<?xml version="1.0" encoding="UTF-8" standalone="no"?>
<!-- Created with Inkscape (http://www.inkscape.org/) -->

<svg
   width="250mm"
   height="142mm"
   viewBox="0 0 250 142"
   version="1.1"
   id="svg1"
   inkscape:version="1.3.1 (91b66b0783, 2023-11-16)"
   sodipodi:docname="magic-wallet.svg"
   xmlns:inkscape="http://www.inkscape.org/namespaces/inkscape"
   xmlns:sodipodi="http://sodipodi.sourceforge.net/DTD/sodipodi-0.dtd"
   xmlns="http://www.w3.org/2000/svg"
   xmlns:svg="http://www.w3.org/2000/svg">
  <sodipodi:namedview
     id="namedview1"
     pagecolor="#ffffff"
     bordercolor="#000000"
     borderopacity="0.25"
     inkscape:showpageshadow="2"
     inkscape:pageopacity="0.0"
     inkscape:pagecheckerboard="0"
     inkscape:deskcolor="#d1d1d1"
     inkscape:document-units="mm"
     inkscape:zoom="0.672594"
     inkscape:cx="393.25358"
     inkscape:cy="365.00474"
     inkscape:window-width="1620"
     inkscape:window-height="1010"
     inkscape:window-x="-6"
     inkscape:window-y="-6"
     inkscape:window-maximized="1"
     inkscape:current-layer="layer1"
     showgrid="false" />
  <defs
     id="defs1" />
  <g
     inkscape:label="Layer 1"
     inkscape:groupmode="layer"
     id="layer1">
    <path
       d="M 2.9998169,72.000256 C 1.3378303,72.000256 0,73.338087 0,75.000073 v 63.999707 c 0,1.662 1.3378303,3.00034 2.9998169,3.00034 H 78.999829 c 0.631924,0 1.183996,-0.23829 1.666565,-0.56948 0.786607,-0.53985 1.333769,-1.40079 1.333769,-2.43086 v -21.99969 h 3.000333 82.999584 v 21.99969 c 0,1.66199 1.33787,3.00034 2.99982,3.00034 h 72.99968 3.00033 c 1.66197,0 3.00033,-1.33835 3.00033,-3.00034 h 0.0114 v -19.99981 h -0.0114 V 94.999886 h 0.0114 V 75.000073 h -0.0114 c 0,-1.661966 -1.33836,-2.999817 -3.00033,-2.999817 h -3.00033 -72.99968 c -1.66195,0 -2.99982,1.337851 -2.99982,2.999817 V 96.999764 H 85.000496 82.000163 V 75.000073 c 0,-1.03011 -0.547097,-1.89117 -1.333769,-2.430859 -0.482547,-0.331048 -1.034691,-0.568958 -1.666565,-0.568958 z m 45.2561521,4.999695 c 0.05435,1.2e-4 0.106417,0.02188 0.144694,0.06046 l 2.118734,2.118217 0.433565,0.434082 c 0.07967,0.07981 0.07967,0.209058 0,0.288871 l -0.867647,0.86713 c -0.07981,0.07967 -0.209059,0.07967 -0.288871,0 l -0.433566,-0.433565 -1.106909,-1.106909 -1.105875,1.106392 -0.434082,0.433566 c -0.07981,0.07967 -0.209059,0.07967 -0.288872,0 l -0.86713,-0.867131 c -0.08001,-0.07987 -0.08001,-0.209516 0,-0.289388 l 0.433565,-0.433565 2.1177,-2.1177 c 0.03828,-0.03859 0.09034,-0.06034 0.144694,-0.06046 z m 8.3783,0 c 0.05435,1.2e-4 0.106417,0.02188 0.144694,0.06046 l 2.118734,2.118217 0.433565,0.434082 c 0.07967,0.07981 0.07967,0.209058 0,0.288871 l -0.86713,0.86713 c -0.07987,0.08001 -0.209517,0.08001 -0.289388,0 l -0.433566,-0.433565 -1.106909,-1.106909 -1.105875,1.106392 -0.433566,0.433566 c -0.07987,0.08001 -0.209516,0.08001 -0.289388,0 l -0.86713,-0.867131 c -0.08001,-0.07987 -0.08001,-0.209516 0,-0.289388 l 0.433565,-0.433565 2.118217,-2.1177 c 0.03815,-0.03846 0.09001,-0.0602 0.144177,-0.06046 z m 8.378817,0 c 0.05417,2.57e-4 0.106026,0.022 0.144177,0.06046 l 2.118734,2.118217 0.433565,0.434082 c 0.07967,0.07981 0.07967,0.209058 0,0.288871 l -0.86713,0.86713 c -0.07981,0.07967 -0.209059,0.07967 -0.288872,0 l -0.434082,-0.433565 -1.106392,-1.106909 -1.106392,1.106392 -0.433566,0.433566 c -0.07981,0.07967 -0.209059,0.07967 -0.288871,0 L 62.31661,79.901066 c -0.08001,-0.07987 -0.08001,-0.209516 0,-0.289388 l 0.433565,-0.433565 2.118217,-2.1177 c 0.03828,-0.03859 0.09034,-0.06034 0.144694,-0.06046 z m 8.3783,0 c 0.05435,1.2e-4 0.106416,0.02188 0.144694,0.06046 l 2.118734,2.118217 0.433565,0.434082 c 0.07967,0.07981 0.07967,0.209058 0,0.288871 l -0.867647,0.86713 c -0.07981,0.07967 -0.209059,0.07967 -0.288872,0 l -0.433565,-0.433565 -1.106909,-1.106909 -1.105876,1.106392 -0.434082,0.433566 c -0.07981,0.07967 -0.209059,0.07967 -0.288871,0 l -0.867131,-0.867131 c -0.08001,-0.07987 -0.08001,-0.209516 0,-0.289388 l 0.433566,-0.433565 2.1177,-2.1177 c 0.03828,-0.03859 0.09034,-0.06034 0.144694,-0.06046 z m -20.946008,5.617228 c 0.0541,1.21e-4 0.105941,0.02168 0.144177,0.05995 l 2.118734,2.118734 0.433565,0.433565 c 0.08001,0.07987 0.08001,0.209517 0,0.289388 l -0.867131,0.867131 c -0.07981,0.07967 -0.209059,0.07967 -0.288871,0 L 53.55177,85.952376 52.445378,84.845467 51.338985,85.95186 50.90542,86.385425 c -0.07981,0.07967 -0.209059,0.07967 -0.288871,0 l -0.867648,-0.867131 c -0.08001,-0.07987 -0.08001,-0.209516 0,-0.289388 l 0.433566,-0.433565 2.118217,-2.118217 c 0.03836,-0.0384 0.09042,-0.05996 0.144694,-0.05995 z m 8.3783,0 c 0.05428,-1.6e-5 0.106331,0.02155 0.144694,0.05995 l 2.118733,2.118734 0.433566,0.433565 c 0.08001,0.07987 0.08001,0.209517 0,0.289388 l -0.867648,0.867131 c -0.07981,0.07967 -0.209059,0.07967 -0.288871,0 l -0.433565,-0.433566 -1.106909,-1.106909 -1.105876,1.106393 -0.434082,0.433565 c -0.07981,0.07967 -0.209059,0.07967 -0.288871,0 l -0.867131,-0.867131 c -0.08001,-0.07987 -0.08001,-0.209516 0,-0.289388 l 0.433565,-0.433565 2.117701,-2.118217 c 0.03836,-0.0384 0.09042,-0.05996 0.144694,-0.05995 z m 8.3783,0 c 0.05428,-1.6e-5 0.106331,0.02155 0.144694,0.05995 l 2.118733,2.118734 0.433566,0.433565 c 0.08001,0.07987 0.08001,0.209517 0,0.289388 l -0.867131,0.867131 c -0.07987,0.08001 -0.209517,0.08001 -0.289388,0 l -0.433565,-0.433566 -1.106909,-1.106909 -1.105876,1.106393 -0.433565,0.433565 c -0.07987,0.08001 -0.209517,0.08001 -0.289388,0 l -0.867131,-0.867131 c -0.08001,-0.07987 -0.08001,-0.209516 0,-0.289388 l 0.433565,-0.433565 2.118217,-2.118217 c 0.03824,-0.03827 0.09008,-0.05982 0.144178,-0.05995 z m -20.946009,5.617229 c 0.05428,-1.7e-5 0.106332,0.02155 0.144694,0.05994 l 2.118734,2.118734 0.433565,0.433565 c 0.08001,0.07987 0.08001,0.209517 0,0.289388 l -0.867647,0.867131 c -0.07981,0.07967 -0.209059,0.07967 -0.288871,0 l -0.433566,-0.433566 -1.106909,-1.106909 -1.105875,1.106393 -0.434082,0.433565 c -0.07981,0.07967 -0.209059,0.07967 -0.288872,0 l -0.86713,-0.867647 c -0.07967,-0.07981 -0.07967,-0.209059 0,-0.288872 l 0.433565,-0.433565 2.1177,-2.118217 c 0.03836,-0.0384 0.09042,-0.05996 0.144694,-0.05994 z m 8.3783,0 c 0.05428,-1.7e-5 0.106332,0.02155 0.144694,0.05994 l 2.118734,2.118734 0.433565,0.433565 c 0.08001,0.07987 0.08001,0.209517 0,0.289388 l -0.86713,0.867131 c -0.07987,0.08001 -0.209517,0.08001 -0.289388,0 l -0.433566,-0.433566 -1.106909,-1.106909 -1.105875,1.106393 -0.433566,0.433565 c -0.07987,0.08001 -0.209516,0.08001 -0.289388,0 l -0.86713,-0.867647 c -0.07967,-0.07981 -0.07967,-0.209059 0,-0.288872 l 0.433565,-0.433565 2.118217,-2.118217 c 0.03824,-0.03827 0.09008,-0.05982 0.144177,-0.05994 z m 8.378817,0 c 0.0541,1.2e-4 0.105941,0.02168 0.144177,0.05994 l 2.118734,2.118734 0.433565,0.433565 c 0.08001,0.07987 0.08001,0.209517 0,0.289388 l -0.86713,0.867131 c -0.07981,0.07967 -0.209059,0.07967 -0.288872,0 l -0.434082,-0.433566 -1.106392,-1.106909 -1.106392,1.106393 -0.433566,0.433565 c -0.07981,0.07967 -0.209059,0.07967 -0.288871,0 L 62.31661,91.135006 c -0.07967,-0.07981 -0.07967,-0.209059 0,-0.288872 l 0.433565,-0.433565 2.118217,-2.118217 c 0.03836,-0.0384 0.09042,-0.05996 0.144694,-0.05994 z m 8.3783,0 c 0.05428,-1.7e-5 0.106332,0.02155 0.144694,0.05994 l 2.118734,2.118734 0.433565,0.433565 c 0.08001,0.07987 0.08001,0.209517 0,0.289388 l -0.867647,0.867131 c -0.07981,0.07967 -0.209059,0.07967 -0.288872,0 l -0.433565,-0.433566 -1.106909,-1.106909 -1.105876,1.106393 -0.434082,0.433565 c -0.07981,0.07967 -0.209059,0.07967 -0.288871,0 l -0.867131,-0.867647 c -0.07966,-0.07981 -0.07966,-0.209059 0,-0.288872 l 0.433566,-0.433565 2.1177,-2.118217 c 0.03836,-0.0384 0.09042,-0.05996 0.144694,-0.05994 z m -20.946008,5.617228 c 0.0541,1.2e-4 0.105941,0.02168 0.144177,0.05994 l 2.118734,2.118734 0.433565,0.433565 c 0.07967,0.07981 0.07967,0.209059 0,0.288872 l -0.867131,0.867647 c -0.07981,0.07967 -0.209059,0.07967 -0.288871,0 l -0.434082,-0.434082 -1.106392,-1.106392 -1.106393,1.106392 -0.433565,0.433565 c -0.07981,0.07967 -0.209059,0.07967 -0.288871,0 l -0.867648,-0.867647 c -0.07966,-0.07981 -0.07966,-0.209059 0,-0.288871 l 0.433566,-0.433566 2.118217,-2.118217 c 0.03836,-0.03839 0.09042,-0.05996 0.144694,-0.05994 z m 8.3783,0 c 0.05428,-1.7e-5 0.106331,0.02155 0.144694,0.05994 l 2.118733,2.118734 0.433566,0.433565 c 0.07966,0.07981 0.07966,0.209059 0,0.288872 l -0.867648,0.867647 c -0.07981,0.07967 -0.209059,0.07967 -0.288871,0 l -0.433565,-0.434082 -1.106909,-1.106392 -1.105876,1.106392 -0.434082,0.433565 c -0.07981,0.07967 -0.209059,0.07967 -0.288871,0 l -0.867131,-0.867647 c -0.07967,-0.07981 -0.07967,-0.209059 0,-0.288871 l 0.433565,-0.433566 2.117701,-2.118217 c 0.03836,-0.03839 0.09042,-0.05996 0.144694,-0.05994 z m 8.3783,0 c 0.05428,-1.7e-5 0.106331,0.02155 0.144694,0.05994 l 2.118733,2.118734 0.433566,0.433565 c 0.07966,0.07981 0.07966,0.209059 0,0.288872 l -0.867131,0.867647 c -0.07987,0.08001 -0.209517,0.08001 -0.289388,0 l -0.433565,-0.434082 -1.106909,-1.106392 -1.105876,1.106392 -0.433565,0.433565 c -0.07987,0.08001 -0.209517,0.08001 -0.289388,0 l -0.867131,-0.867647 c -0.07967,-0.07981 -0.07967,-0.209059 0,-0.288871 L 66.939583,96.029797 69.0578,93.91158 c 0.03824,-0.03827 0.09008,-0.05982 0.144178,-0.05994 z m -20.946009,5.617228 c 0.05428,-1.7e-5 0.106332,0.02155 0.144694,0.05994 l 2.118734,2.118731 0.433565,0.43357 c 0.07967,0.0798 0.07967,0.20906 0,0.28887 l -0.867647,0.86765 c -0.07981,0.0797 -0.209059,0.0797 -0.288871,0 l -0.433566,-0.43409 -1.106909,-1.10639 -1.105875,1.10588 -0.434082,0.43356 c -0.07981,0.0797 -0.209059,0.0797 -0.288872,0 l -0.86713,-0.86713 c -0.07967,-0.0798 -0.07967,-0.20906 0,-0.28887 l 0.433565,-0.43408 2.1177,-2.117701 c 0.03836,-0.0384 0.09042,-0.05996 0.144694,-0.05994 z m 8.3783,0 c 0.05428,-1.7e-5 0.106332,0.02155 0.144694,0.05994 l 2.118734,2.118731 0.433565,0.43357 c 0.07967,0.0798 0.07967,0.20906 0,0.28887 l -0.86713,0.86765 c -0.07987,0.08 -0.209517,0.08 -0.289388,0 l -0.433566,-0.43409 -1.106909,-1.10639 -1.105875,1.10588 -0.433566,0.43356 c -0.07987,0.08 -0.209516,0.08 -0.289388,0 l -0.86713,-0.86713 c -0.07967,-0.0798 -0.07967,-0.20906 0,-0.28887 l 0.433565,-0.43408 2.118217,-2.117701 c 0.03824,-0.03827 0.09008,-0.05982 0.144177,-0.05994 z m 8.378817,0 c 0.0541,1.2e-4 0.105941,0.02168 0.144177,0.05994 l 2.118734,2.118731 0.433565,0.43357 c 0.07967,0.0798 0.07967,0.20906 0,0.28887 l -0.86713,0.86765 c -0.07981,0.0797 -0.209059,0.0797 -0.288872,0 l -0.434082,-0.43409 -1.106392,-1.10639 -1.106392,1.10588 -0.433566,0.43356 c -0.07981,0.0797 -0.209059,0.0797 -0.288871,0 l -0.867647,-0.86713 c -0.07967,-0.0798 -0.07967,-0.20906 0,-0.28887 l 0.433565,-0.43408 2.118217,-2.117701 c 0.03836,-0.0384 0.09042,-0.05996 0.144694,-0.05994 z m 8.3783,0 c 0.05428,-1.7e-5 0.106332,0.02155 0.144694,0.05994 l 2.118734,2.118731 0.433565,0.43357 c 0.07967,0.0798 0.07967,0.20906 0,0.28887 l -0.867647,0.86765 c -0.07981,0.0797 -0.209059,0.0797 -0.288872,0 l -0.433565,-0.43409 -1.106909,-1.10639 -1.105876,1.10588 -0.434082,0.43356 c -0.07981,0.0797 -0.209059,0.0797 -0.288871,0 l -0.867131,-0.86713 c -0.07966,-0.0798 -0.07966,-0.20906 0,-0.28887 l 0.433566,-0.43408 2.1177,-2.117701 c 0.03836,-0.0384 0.09042,-0.05996 0.144694,-0.05994 z m -20.946008,5.617226 c 0.0541,1.2e-4 0.105941,0.0217 0.144177,0.06 l 2.118734,2.11821 0.433565,0.43409 c 0.07967,0.0798 0.07967,0.20905 0,0.28887 l -0.867131,0.86764 c -0.07981,0.0797 -0.209059,0.0797 -0.288871,0 l -0.434082,-0.43408 -1.106392,-1.10639 -1.106393,1.10588 -0.433565,0.43356 c -0.07981,0.0797 -0.209059,0.0797 -0.288871,0 l -0.867648,-0.86713 c -0.07966,-0.0798 -0.07966,-0.20906 0,-0.28887 l 0.433566,-0.43408 2.118217,-2.1177 c 0.03836,-0.0384 0.09042,-0.06 0.144694,-0.06 z m 8.3783,0 c 0.05428,-1e-5 0.106331,0.0216 0.144694,0.06 l 2.118733,2.11821 0.433566,0.43409 c 0.07966,0.0798 0.07966,0.20905 0,0.28887 l -0.867648,0.86764 c -0.07981,0.0797 -0.209059,0.0797 -0.288871,0 l -0.433565,-0.43408 -1.106909,-1.10639 -1.105876,1.10588 -0.434082,0.43356 c -0.07981,0.0797 -0.209059,0.0797 -0.288871,0 l -0.867131,-0.86713 c -0.07967,-0.0798 -0.07967,-0.20906 0,-0.28887 l 0.433565,-0.43408 2.117701,-2.1177 c 0.03836,-0.0384 0.09042,-0.06 0.144694,-0.06 z m 8.3783,0 c 0.05428,-1e-5 0.106331,0.0216 0.144694,0.06 l 2.118733,2.11821 0.433566,0.43409 c 0.07966,0.0798 0.07966,0.20905 0,0.28887 l -0.867131,0.86764 c -0.07987,0.08 -0.209517,0.08 -0.289388,0 l -0.433565,-0.43408 -1.106909,-1.10639 -1.105876,1.10588 -0.433565,0.43356 c -0.07987,0.08 -0.209517,0.08 -0.289388,0 l -0.867131,-0.86713 c -0.07967,-0.0798 -0.07967,-0.20906 0,-0.28887 l 0.433565,-0.43408 2.118217,-2.1177 c 0.03824,-0.0383 0.09008,-0.0598 0.144178,-0.06 z m -20.946009,5.61723 c 0.05428,-2e-5 0.106332,0.0215 0.144694,0.0599 l 2.118734,2.11822 0.433565,0.43408 c 0.07967,0.0798 0.07967,0.20906 0,0.28888 l -0.867647,0.86713 c -0.07981,0.0797 -0.209059,0.0797 -0.288871,0 l -0.433566,-0.43357 -1.106909,-1.10691 -1.105875,1.10639 -0.434082,0.43357 c -0.07981,0.0797 -0.209059,0.0797 -0.288872,0 l -0.86713,-0.86713 c -0.08001,-0.0799 -0.08001,-0.20952 0,-0.28939 l 0.433565,-0.43356 2.1177,-2.11771 c 0.03836,-0.0384 0.09042,-0.06 0.144694,-0.0599 z m 8.3783,0 c 0.05428,-2e-5 0.106332,0.0215 0.144694,0.0599 l 2.118734,2.11822 0.433565,0.43408 c 0.07967,0.0798 0.07967,0.20906 0,0.28888 l -0.86713,0.86713 c -0.07987,0.08 -0.209517,0.08 -0.289388,0 l -0.433566,-0.43357 -1.106909,-1.10691 -1.105875,1.10639 -0.433566,0.43357 c -0.07987,0.08 -0.209516,0.08 -0.289388,0 l -0.86713,-0.86713 c -0.08001,-0.0799 -0.08001,-0.20952 0,-0.28939 l 0.433565,-0.43356 2.118217,-2.11771 c 0.03824,-0.0383 0.09008,-0.0598 0.144177,-0.0599 z m 8.378817,0 c 0.0541,1.2e-4 0.105941,0.0217 0.144177,0.0599 l 2.118734,2.11822 0.433565,0.43408 c 0.07967,0.0798 0.07967,0.20906 0,0.28888 l -0.86713,0.86713 c -0.07981,0.0797 -0.209059,0.0797 -0.288872,0 l -0.434082,-0.43357 -1.106392,-1.10691 -1.106392,1.10639 -0.433566,0.43357 c -0.07981,0.0797 -0.209059,0.0797 -0.288871,0 l -0.867647,-0.86713 c -0.08001,-0.0799 -0.08001,-0.20952 0,-0.28939 l 0.433565,-0.43356 2.118217,-2.11771 c 0.03836,-0.0384 0.09042,-0.06 0.144694,-0.0599 z m 8.3783,0 c 0.05428,-2e-5 0.106332,0.0215 0.144694,0.0599 l 2.118734,2.11822 0.433565,0.43408 c 0.07967,0.0798 0.07967,0.20906 0,0.28888 l -0.867647,0.86713 c -0.07981,0.0797 -0.209059,0.0797 -0.288872,0 l -0.433565,-0.43357 -1.106909,-1.10691 -1.105876,1.10639 -0.434082,0.43357 c -0.07981,0.0797 -0.209059,0.0797 -0.288871,0 l -0.867131,-0.86713 c -0.08001,-0.0799 -0.08001,-0.20952 0,-0.28939 l 0.433566,-0.43356 2.1177,-2.11771 c 0.03836,-0.0384 0.09042,-0.06 0.144694,-0.0599 z m -20.946008,5.61671 c 0.0541,1.2e-4 0.105941,0.0217 0.144177,0.06 l 2.118734,2.11873 0.433565,0.43408 c 0.07967,0.0798 0.07967,0.20906 0,0.28887 l -0.867131,0.86713 c -0.07981,0.0797 -0.209059,0.0797 -0.288871,0 l -0.434082,-0.43356 -1.106392,-1.10691 -1.106393,1.10639 -0.433565,0.43357 c -0.07981,0.0797 -0.209059,0.0797 -0.288871,0 l -0.867648,-0.86713 c -0.08001,-0.0799 -0.08001,-0.20952 0,-0.28939 l 0.433566,-0.43357 2.118217,-2.11821 c 0.03836,-0.0384 0.09042,-0.06 0.144694,-0.06 z m 8.3783,0 c 0.05428,-1e-5 0.106331,0.0215 0.144694,0.06 l 2.118733,2.11873 0.433566,0.43408 c 0.07966,0.0798 0.07966,0.20906 0,0.28887 l -0.867648,0.86713 c -0.07981,0.0797 -0.209059,0.0797 -0.288871,0 l -0.433565,-0.43356 -1.106909,-1.10691 -1.105876,1.10639 -0.434082,0.43357 c -0.07981,0.0797 -0.209059,0.0797 -0.288871,0 l -0.867131,-0.86713 c -0.08001,-0.0799 -0.08001,-0.20952 0,-0.28939 l 0.433565,-0.43357 2.117701,-2.11821 c 0.03836,-0.0384 0.09042,-0.06 0.144694,-0.06 z m 8.3783,0 c 0.05428,-1e-5 0.106331,0.0215 0.144694,0.06 l 2.118733,2.11873 0.433566,0.43408 c 0.07966,0.0798 0.07966,0.20906 0,0.28887 l -0.867131,0.86713 c -0.07987,0.08 -0.209517,0.08 -0.289388,0 l -0.433565,-0.43356 -1.106909,-1.10691 -1.105876,1.10639 -0.433565,0.43357 c -0.07987,0.08 -0.209517,0.08 -0.289388,0 l -0.867131,-0.86713 c -0.08001,-0.0799 -0.08001,-0.20952 0,-0.28939 l 0.433565,-0.43357 2.118217,-2.11821 c 0.03824,-0.0383 0.09008,-0.0598 0.144178,-0.06 z m -20.946009,5.61723 c 0.05428,-2e-5 0.106332,0.0216 0.144694,0.0599 l 2.118734,2.11874 0.433565,0.43356 c 0.08001,0.0799 0.08001,0.20952 0,0.28939 l -0.867647,0.86713 c -0.07981,0.0797 -0.209059,0.0797 -0.288871,0 l -0.433566,-0.43356 -1.106909,-1.10691 -1.105875,1.10639 -0.434082,0.43357 c -0.07981,0.0797 -0.209059,0.0797 -0.288872,0 l -0.86713,-0.86765 c -0.07967,-0.0798 -0.07967,-0.20906 0,-0.28887 l 0.433565,-0.43357 2.1177,-2.11822 c 0.03836,-0.0384 0.09042,-0.06 0.144694,-0.0599 z m 8.3783,0 c 0.05428,-2e-5 0.106332,0.0216 0.144694,0.0599 l 2.118734,2.11874 0.433565,0.43356 c 0.08001,0.0799 0.08001,0.20952 0,0.28939 l -0.86713,0.86713 c -0.07987,0.08 -0.209517,0.08 -0.289388,0 l -0.433566,-0.43356 -1.106909,-1.10691 -1.105875,1.10639 -0.433566,0.43357 c -0.07987,0.08 -0.209516,0.08 -0.289388,0 l -0.86713,-0.86765 c -0.07967,-0.0798 -0.07967,-0.20906 0,-0.28887 l 0.433565,-0.43357 2.118217,-2.11822 c 0.03824,-0.0383 0.09008,-0.0598 0.144177,-0.0599 z m 8.378817,0 c 0.0541,1.2e-4 0.105941,0.0217 0.144177,0.0599 l 2.118734,2.11874 0.433565,0.43356 c 0.08001,0.0799 0.08001,0.20952 0,0.28939 l -0.86713,0.86713 c -0.07981,0.0797 -0.209059,0.0797 -0.288872,0 l -0.434082,-0.43356 -1.106392,-1.10691 -1.106392,1.10639 -0.433566,0.43357 c -0.07981,0.0797 -0.209059,0.0797 -0.288871,0 l -0.867647,-0.86765 c -0.07967,-0.0798 -0.07967,-0.20906 0,-0.28887 l 0.433565,-0.43357 2.118217,-2.11822 c 0.03836,-0.0384 0.09042,-0.06 0.144694,-0.0599 z m 8.3783,0 c 0.05428,-2e-5 0.106332,0.0216 0.144694,0.0599 l 2.118734,2.11874 0.433565,0.43356 c 0.08001,0.0799 0.08001,0.20952 0,0.28939 l -0.867647,0.86713 c -0.07981,0.0797 -0.209059,0.0797 -0.288872,0 l -0.433565,-0.43356 -1.106909,-1.10691 -1.105876,1.10639 -0.434082,0.43357 c -0.07981,0.0797 -0.209059,0.0797 -0.288871,0 l -0.867131,-0.86765 c -0.07966,-0.0798 -0.07966,-0.20906 0,-0.28887 l 0.433566,-0.43357 2.1177,-2.11822 c 0.03836,-0.0384 0.09042,-0.06 0.144694,-0.0599 z m -20.946008,5.61723 c 0.0541,1.2e-4 0.105941,0.0217 0.144177,0.0599 l 2.118734,2.11874 0.433565,0.43356 c 0.08001,0.0799 0.08001,0.20952 0,0.28939 l -0.867131,0.86713 c -0.07981,0.0797 -0.209059,0.0797 -0.288871,0 l -0.434082,-0.43356 -1.106392,-1.10691 -1.106393,1.10639 -0.433565,0.43356 c -0.07981,0.0797 -0.209059,0.0797 -0.288871,0 l -0.867648,-0.86764 c -0.07966,-0.0798 -0.07966,-0.20906 0,-0.28887 l 0.433566,-0.43357 2.118217,-2.11822 c 0.03836,-0.0384 0.09042,-0.06 0.144694,-0.0599 z m 8.3783,0 c 0.05428,-2e-5 0.106331,0.0216 0.144694,0.0599 l 2.118733,2.11874 0.433566,0.43356 c 0.08001,0.0799 0.08001,0.20952 0,0.28939 l -0.867648,0.86713 c -0.07981,0.0797 -0.209059,0.0797 -0.288871,0 l -0.433565,-0.43356 -1.106909,-1.10691 -1.105876,1.10639 -0.434082,0.43356 c -0.07981,0.0797 -0.209059,0.0797 -0.288871,0 l -0.867131,-0.86764 c -0.07967,-0.0798 -0.07967,-0.20906 0,-0.28887 l 0.433565,-0.43357 2.117701,-2.11822 c 0.03836,-0.0384 0.09042,-0.06 0.144694,-0.0599 z m 8.3783,0 c 0.05428,-2e-5 0.106331,0.0216 0.144694,0.0599 l 2.118733,2.11874 0.433566,0.43356 c 0.08001,0.0799 0.08001,0.20952 0,0.28939 l -0.867131,0.86713 c -0.07987,0.08 -0.209517,0.08 -0.289388,0 l -0.433565,-0.43356 -1.106909,-1.10691 -1.105876,1.10639 -0.433565,0.43356 c -0.07987,0.08 -0.209517,0.08 -0.289388,0 l -0.867131,-0.86764 c -0.07967,-0.0798 -0.07967,-0.20906 0,-0.28887 l 0.433565,-0.43357 2.118217,-2.11822 c 0.03824,-0.0383 0.09008,-0.0598 0.144178,-0.0599 z m -20.946009,5.61723 c 0.05428,-2e-5 0.106332,0.0216 0.144694,0.0599 l 2.118734,2.11873 0.433565,0.43357 c 0.07967,0.0798 0.07967,0.20906 0,0.28887 l -0.867647,0.86765 c -0.07981,0.0797 -0.209059,0.0797 -0.288871,0 l -0.433566,-0.43408 -1.106909,-1.1064 -1.105875,1.1064 -0.434082,0.43356 c -0.07981,0.0797 -0.209059,0.0797 -0.288872,0 l -0.86713,-0.86765 c -0.07967,-0.0798 -0.07967,-0.20905 0,-0.28887 l 0.433565,-0.43408 2.1177,-2.1177 c 0.03836,-0.0384 0.09042,-0.06 0.144694,-0.0599 z m 8.3783,0 c 0.05428,-2e-5 0.106332,0.0216 0.144694,0.0599 l 2.118734,2.11873 0.433565,0.43357 c 0.07967,0.0798 0.07967,0.20906 0,0.28887 l -0.86713,0.86765 c -0.07987,0.08 -0.209517,0.08 -0.289388,0 l -0.433566,-0.43408 -1.106909,-1.1064 -1.105875,1.1064 -0.433566,0.43356 c -0.07987,0.08 -0.209516,0.08 -0.289388,0 l -0.86713,-0.86765 c -0.07967,-0.0798 -0.07967,-0.20905 0,-0.28887 l 0.433565,-0.43408 2.118217,-2.1177 c 0.03824,-0.0383 0.09008,-0.0598 0.144177,-0.0599 z m 8.378817,0 c 0.0541,1.2e-4 0.105941,0.0217 0.144177,0.0599 l 2.118734,2.11873 0.433565,0.43357 c 0.07967,0.0798 0.07967,0.20906 0,0.28887 l -0.86713,0.86765 c -0.07981,0.0797 -0.209059,0.0797 -0.288872,0 l -0.434082,-0.43408 -1.106392,-1.1064 -1.106392,1.1064 -0.433566,0.43356 c -0.07981,0.0797 -0.209059,0.0797 -0.288871,0 l -0.867647,-0.86765 c -0.07967,-0.0798 -0.07967,-0.20905 0,-0.28887 l 0.433565,-0.43408 2.118217,-2.1177 c 0.03836,-0.0384 0.09042,-0.06 0.144694,-0.0599 z m 8.3783,0 c 0.05428,-2e-5 0.106332,0.0216 0.144694,0.0599 l 2.118734,2.11873 0.433565,0.43357 c 0.07967,0.0798 0.07967,0.20906 0,0.28887 l -0.867647,0.86765 c -0.07981,0.0797 -0.209059,0.0797 -0.288872,0 l -0.433565,-0.43408 -1.106909,-1.1064 -1.105876,1.1064 -0.434082,0.43356 c -0.07981,0.0797 -0.209059,0.0797 -0.288871,0 l -0.867131,-0.86765 c -0.07966,-0.0798 -0.07966,-0.20905 0,-0.28887 l 0.433566,-0.43408 2.1177,-2.1177 c 0.03836,-0.0384 0.09042,-0.06 0.144694,-0.0599 z"
       style="fill:#b58900;stroke-width:1.9776;stroke-linecap:round;stroke-linejoin:round;paint-order:stroke markers fill"
       id="path4"
       inkscape:label="1 bar" />
    <path
       d="M 2.9998169,0 C 1.3378336,0 0,1.3378336 0,2.9998169 V 67.000045 c 0,1.661983 1.3378336,2.999817 2.9998169,2.999817 H 78.999829 c 0.631873,0 1.184018,-0.23791 1.666565,-0.568958 0.786672,-0.53969 1.333769,-1.400751 1.333769,-2.430859 h 2.988448 82.999589 c 0,1.661967 1.33836,2.999817 3.00033,2.999817 h 73.01156 2.98845 c 1.66198,0 2.99982,-1.33785 2.99982,-2.999817 V 44.999837 h 0.0119 V 25.000024 h -0.0119 V 2.9998169 C 249.98836,1.3378486 248.65052,0 246.98854,0 h -2.98845 -73.01156 c -1.66197,0 -3.00033,1.3378486 -3.00033,2.9998169 H 84.988611 82.000163 c 0,-1.0301086 -0.547097,-1.8911694 -1.333769,-2.43085938 C 80.183847,0.23790957 79.631702,0 78.999829,0 Z M 48.255969,4.9996948 c 0.05435,1.202e-4 0.106417,0.021876 0.144694,0.060461 l 2.118734,2.118217 0.433565,0.434082 c 0.07967,0.079812 0.07967,0.2090589 0,0.2888713 L 50.085315,8.768457 c -0.07981,0.079666 -0.209059,0.079666 -0.288871,0 L 49.362878,8.3348918 48.255969,7.2279826 47.150094,8.334375 46.716012,8.7679403 c -0.07981,0.079666 -0.209059,0.079666 -0.288872,0 L 45.56001,7.9008097 c -0.08001,-0.079872 -0.08001,-0.2095165 0,-0.289388 l 0.433565,-0.4335653 2.1177,-2.1177002 c 0.03828,-0.038585 0.09034,-0.060341 0.144694,-0.060461 z m 8.3783,0 c 0.05435,1.202e-4 0.106417,0.021876 0.144694,0.060461 l 2.118734,2.118217 0.433565,0.434082 c 0.07967,0.079812 0.07967,0.2090589 0,0.2888713 l -0.86713,0.8671305 c -0.07987,0.08001 -0.209517,0.08001 -0.289388,0 L 57.741178,8.3348918 56.634269,7.2279826 55.528394,8.334375 55.094828,8.7679403 c -0.07987,0.08001 -0.209516,0.08001 -0.289388,0 L 53.93831,7.9008097 c -0.08001,-0.079872 -0.08001,-0.2095165 0,-0.289388 l 0.433565,-0.4335653 2.118217,-2.1177002 c 0.03815,-0.038459 0.09001,-0.060204 0.144177,-0.060461 z m 8.378817,0 c 0.05417,2.572e-4 0.106026,0.022003 0.144177,0.060461 l 2.118734,2.118217 0.433565,0.434082 c 0.07967,0.079812 0.07967,0.2090589 0,0.2888713 l -0.86713,0.8671305 c -0.07981,0.079666 -0.209059,0.079666 -0.288872,0 L 66.119478,8.3348918 65.013086,7.2279826 63.906694,8.334375 63.473128,8.7679403 c -0.07981,0.079666 -0.209059,0.079666 -0.288871,0 L 62.31661,7.9008097 c -0.08001,-0.079872 -0.08001,-0.2095165 0,-0.289388 l 0.433565,-0.4335653 2.118217,-2.1177002 c 0.03828,-0.038585 0.09034,-0.060341 0.144694,-0.060461 z m 8.3783,0 c 0.05435,1.202e-4 0.106416,0.021876 0.144694,0.060461 l 2.118734,2.118217 0.433565,0.434082 c 0.07967,0.079812 0.07967,0.2090589 0,0.2888713 L 75.220732,8.768457 c -0.07981,0.079666 -0.209059,0.079666 -0.288872,0 L 74.498295,8.3348918 73.391386,7.2279826 72.28551,8.334375 71.851428,8.7679403 c -0.07981,0.079666 -0.209059,0.079666 -0.288871,0 L 70.695426,7.9008097 c -0.08001,-0.079872 -0.08001,-0.2095165 0,-0.289388 l 0.433566,-0.4335653 2.1177,-2.1177002 c 0.03828,-0.038585 0.09034,-0.060341 0.144694,-0.060461 z M 52.445378,10.616923 c 0.0541,1.2e-4 0.105941,0.02168 0.144177,0.05995 l 2.118734,2.118733 0.433565,0.433566 c 0.08001,0.07987 0.08001,0.209516 0,0.289388 l -0.867131,0.86713 c -0.07981,0.07967 -0.209059,0.07967 -0.288871,0 L 53.55177,13.95212 52.445378,12.845211 51.338985,13.951603 50.90542,14.385168 c -0.07981,0.07967 -0.209059,0.07967 -0.288871,0 l -0.867648,-0.86713 c -0.08001,-0.07987 -0.08001,-0.209517 0,-0.289388 l 0.433566,-0.433565 2.118217,-2.118217 c 0.03836,-0.0384 0.09042,-0.05996 0.144694,-0.05995 z m 8.3783,0 c 0.05428,-1.7e-5 0.106331,0.02155 0.144694,0.05995 l 2.118733,2.118733 0.433566,0.433566 c 0.08001,0.07987 0.08001,0.209516 0,0.289388 l -0.867648,0.86713 c -0.07981,0.07967 -0.209059,0.07967 -0.288871,0 l -0.433565,-0.433565 -1.106909,-1.106909 -1.105876,1.106392 -0.434082,0.433565 c -0.07981,0.07967 -0.209059,0.07967 -0.288871,0 l -0.867131,-0.86713 c -0.08001,-0.07987 -0.08001,-0.209517 0,-0.289388 l 0.433565,-0.433565 2.117701,-2.118217 c 0.03836,-0.0384 0.09042,-0.05996 0.144694,-0.05995 z m 8.3783,0 c 0.05428,-1.7e-5 0.106331,0.02155 0.144694,0.05995 l 2.118733,2.118733 0.433566,0.433566 c 0.08001,0.07987 0.08001,0.209516 0,0.289388 l -0.867131,0.86713 c -0.07987,0.08001 -0.209517,0.08001 -0.289388,0 l -0.433565,-0.433565 -1.106909,-1.106909 -1.105876,1.106392 -0.433565,0.433565 c -0.07987,0.08001 -0.209517,0.08001 -0.289388,0 l -0.867131,-0.86713 c -0.08001,-0.07987 -0.08001,-0.209517 0,-0.289388 l 0.433565,-0.433565 2.118217,-2.118217 c 0.03824,-0.03827 0.09008,-0.05983 0.144178,-0.05995 z m -20.946009,5.617228 c 0.05428,-1.7e-5 0.106332,0.02155 0.144694,0.05994 l 2.118734,2.118734 0.433565,0.433565 c 0.08001,0.07987 0.08001,0.209516 0,0.289388 l -0.867647,0.86713 c -0.07981,0.07967 -0.209059,0.07967 -0.288871,0 l -0.433566,-0.433565 -1.106909,-1.106909 -1.105875,1.106392 -0.434082,0.433566 c -0.07981,0.07967 -0.209059,0.07967 -0.288872,0 l -0.86713,-0.867648 c -0.07967,-0.07981 -0.07967,-0.209059 0,-0.288871 l 0.433565,-0.433565 2.1177,-2.118217 c 0.03836,-0.0384 0.09042,-0.05996 0.144694,-0.05994 z m 8.3783,0 c 0.05428,-1.7e-5 0.106332,0.02155 0.144694,0.05994 l 2.118734,2.118734 0.433565,0.433565 c 0.08001,0.07987 0.08001,0.209516 0,0.289388 l -0.86713,0.86713 c -0.07987,0.08001 -0.209517,0.08001 -0.289388,0 l -0.433566,-0.433565 -1.106909,-1.106909 -1.105875,1.106392 -0.433566,0.433566 c -0.07987,0.08001 -0.209516,0.08001 -0.289388,0 l -0.86713,-0.867648 c -0.07967,-0.07981 -0.07967,-0.209059 0,-0.288871 l 0.433565,-0.433565 2.118217,-2.118217 c 0.03824,-0.03827 0.09008,-0.05983 0.144177,-0.05994 z m 8.378817,0 c 0.0541,1.2e-4 0.105941,0.02168 0.144177,0.05994 l 2.118734,2.118734 0.433565,0.433565 c 0.08001,0.07987 0.08001,0.209516 0,0.289388 l -0.86713,0.86713 c -0.07981,0.07967 -0.209059,0.07967 -0.288872,0 l -0.434082,-0.433565 -1.106392,-1.106909 -1.106392,1.106392 -0.433566,0.433566 c -0.07981,0.07967 -0.209059,0.07967 -0.288871,0 L 62.31661,19.134749 c -0.07967,-0.07981 -0.07967,-0.209059 0,-0.288871 l 0.433565,-0.433565 2.118217,-2.118217 c 0.03836,-0.0384 0.09042,-0.05996 0.144694,-0.05994 z m 8.3783,0 c 0.05428,-1.7e-5 0.106332,0.02155 0.144694,0.05994 l 2.118734,2.118734 0.433565,0.433565 c 0.08001,0.07987 0.08001,0.209516 0,0.289388 l -0.867647,0.86713 c -0.07981,0.07967 -0.209059,0.07967 -0.288872,0 l -0.433565,-0.433565 -1.106909,-1.106909 -1.105876,1.106392 -0.434082,0.433566 c -0.07981,0.07967 -0.209059,0.07967 -0.288871,0 l -0.867131,-0.867648 c -0.07966,-0.07981 -0.07966,-0.209059 0,-0.288871 l 0.433566,-0.433565 2.1177,-2.118217 c 0.03836,-0.0384 0.09042,-0.05996 0.144694,-0.05994 z m -20.946008,5.617228 c 0.0541,1.21e-4 0.105941,0.02168 0.144177,0.05994 l 2.118734,2.118734 0.433565,0.433565 c 0.07967,0.07981 0.07967,0.209059 0,0.288871 l -0.867131,0.867648 c -0.07981,0.07966 -0.209059,0.07966 -0.288871,0 L 53.55177,25.18606 52.445378,24.079667 51.338985,25.18606 50.90542,25.619625 c -0.07981,0.07967 -0.209059,0.07967 -0.288871,0 l -0.867648,-0.867647 c -0.07966,-0.07981 -0.07966,-0.209059 0,-0.288872 l 0.433566,-0.433565 2.118217,-2.118217 c 0.03836,-0.0384 0.09042,-0.05996 0.144694,-0.05994 z m 8.3783,0 c 0.05428,-1.6e-5 0.106331,0.02155 0.144694,0.05994 l 2.118733,2.118734 0.433566,0.433565 c 0.07966,0.07981 0.07966,0.209059 0,0.288871 l -0.867648,0.867648 c -0.07981,0.07966 -0.209059,0.07966 -0.288871,0 L 61.930587,25.18606 60.823678,24.079667 59.717802,25.18606 59.28372,25.619625 c -0.07981,0.07967 -0.209059,0.07967 -0.288871,0 l -0.867131,-0.867647 c -0.07967,-0.07981 -0.07967,-0.209059 0,-0.288872 l 0.433565,-0.433565 2.117701,-2.118217 c 0.03836,-0.0384 0.09042,-0.05996 0.144694,-0.05994 z m 8.3783,0 c 0.05428,-1.6e-5 0.106331,0.02155 0.144694,0.05994 l 2.118733,2.118734 0.433566,0.433565 c 0.07966,0.07981 0.07966,0.209059 0,0.288871 l -0.867131,0.867648 c -0.07987,0.08001 -0.209517,0.08001 -0.289388,0 l -0.433565,-0.434082 -1.106909,-1.106393 -1.105876,1.106393 -0.433565,0.433565 c -0.07987,0.08001 -0.209517,0.08001 -0.289388,0 l -0.867131,-0.867647 c -0.07967,-0.07981 -0.07967,-0.209059 0,-0.288872 l 0.433565,-0.433565 2.118217,-2.118217 c 0.03824,-0.03827 0.09008,-0.05982 0.144178,-0.05994 z M 82.000163,22.99963 H 84.988611 167.9882 V 46.999715 H 84.988611 82.000163 Z m -33.744194,4.468978 c 0.05428,-1.7e-5 0.106332,0.02155 0.144694,0.05994 l 2.118734,2.118734 0.433565,0.433565 c 0.07967,0.07981 0.07967,0.209059 0,0.288871 l -0.867647,0.867648 c -0.07981,0.07967 -0.209059,0.07967 -0.288871,0 l -0.433566,-0.434082 -1.106909,-1.106393 -1.105875,1.105876 -0.434082,0.433565 c -0.07981,0.07967 -0.209059,0.07967 -0.288872,0 l -0.86713,-0.86713 c -0.07967,-0.07981 -0.07967,-0.209059 0,-0.288872 l 0.433565,-0.434082 2.1177,-2.1177 c 0.03836,-0.0384 0.09042,-0.05996 0.144694,-0.05994 z m 8.3783,0 c 0.05428,-1.7e-5 0.106332,0.02155 0.144694,0.05994 l 2.118734,2.118734 0.433565,0.433565 c 0.07967,0.07981 0.07967,0.209059 0,0.288871 l -0.86713,0.867648 c -0.07987,0.08001 -0.209517,0.08001 -0.289388,0 l -0.433566,-0.434082 -1.106909,-1.106393 -1.105875,1.105876 -0.433566,0.433565 c -0.07987,0.08001 -0.209516,0.08001 -0.289388,0 l -0.86713,-0.86713 c -0.07967,-0.07981 -0.07967,-0.209059 0,-0.288872 l 0.433565,-0.434082 2.118217,-2.1177 c 0.03824,-0.03827 0.09008,-0.05982 0.144177,-0.05994 z m 8.378817,0 c 0.0541,1.2e-4 0.105941,0.02168 0.144177,0.05994 l 2.118734,2.118734 0.433565,0.433565 c 0.07967,0.07981 0.07967,0.209059 0,0.288871 l -0.86713,0.867648 c -0.07981,0.07967 -0.209059,0.07967 -0.288872,0 l -0.434082,-0.434082 -1.106392,-1.106393 -1.106392,1.105876 -0.433566,0.433565 c -0.07981,0.07967 -0.209059,0.07967 -0.288871,0 l -0.867647,-0.86713 c -0.07967,-0.07981 -0.07967,-0.209059 0,-0.288872 l 0.433565,-0.434082 2.118217,-2.1177 c 0.03836,-0.0384 0.09042,-0.05996 0.144694,-0.05994 z m 8.3783,0 c 0.05428,-1.7e-5 0.106332,0.02155 0.144694,0.05994 l 2.118734,2.118734 0.433565,0.433565 c 0.07967,0.07981 0.07967,0.209059 0,0.288871 l -0.867647,0.867648 c -0.07981,0.07967 -0.209059,0.07967 -0.288872,0 l -0.433565,-0.434082 -1.106909,-1.106393 -1.105876,1.105876 -0.434082,0.433565 c -0.07981,0.07967 -0.209059,0.07967 -0.288871,0 l -0.867131,-0.86713 c -0.07966,-0.07981 -0.07966,-0.209059 0,-0.288872 l 0.433566,-0.434082 2.1177,-2.1177 c 0.03836,-0.0384 0.09042,-0.05996 0.144694,-0.05994 z m -20.946008,5.617228 c 0.0541,1.2e-4 0.105941,0.02168 0.144177,0.05994 l 2.118734,2.118217 0.433565,0.434082 c 0.07967,0.07981 0.07967,0.209059 0,0.288872 l -0.867131,0.867647 c -0.07981,0.07967 -0.209059,0.07967 -0.288871,0 l -0.434082,-0.434082 -1.106392,-1.106392 -1.106393,1.105875 -0.433565,0.433565 c -0.07981,0.07967 -0.209059,0.07967 -0.288871,0 l -0.867648,-0.86713 c -0.07966,-0.07981 -0.07966,-0.209059 0,-0.288871 l 0.433566,-0.434082 2.118217,-2.117701 c 0.03836,-0.0384 0.09042,-0.05996 0.144694,-0.05994 z m 8.3783,0 c 0.05428,-1.7e-5 0.106331,0.02155 0.144694,0.05994 l 2.118733,2.118217 0.433566,0.434082 c 0.07966,0.07981 0.07966,0.209059 0,0.288872 l -0.867648,0.867647 c -0.07981,0.07967 -0.209059,0.07967 -0.288871,0 l -0.433565,-0.434082 -1.106909,-1.106392 -1.105876,1.105875 -0.434082,0.433565 c -0.07981,0.07967 -0.209059,0.07967 -0.288871,0 l -0.867131,-0.86713 c -0.07967,-0.07981 -0.07967,-0.209059 0,-0.288871 l 0.433565,-0.434082 2.117701,-2.117701 c 0.03836,-0.0384 0.09042,-0.05996 0.144694,-0.05994 z m 8.3783,0 c 0.05428,-1.7e-5 0.106331,0.02155 0.144694,0.05994 l 2.118733,2.118217 0.433566,0.434082 c 0.07966,0.07981 0.07966,0.209059 0,0.288872 l -0.867131,0.867647 c -0.07987,0.08001 -0.209517,0.08001 -0.289388,0 l -0.433565,-0.434082 -1.106909,-1.106392 -1.105876,1.105875 -0.433565,0.433565 c -0.07987,0.08001 -0.209517,0.08001 -0.289388,0 l -0.867131,-0.86713 c -0.07967,-0.07981 -0.07967,-0.209059 0,-0.288871 L 66.939583,35.263481 69.0578,33.14578 c 0.03824,-0.03827 0.09008,-0.05982 0.144178,-0.05994 z m -20.946009,5.617228 c 0.05428,-1.7e-5 0.106332,0.02155 0.144694,0.05994 l 2.118734,2.118217 0.433565,0.434082 c 0.07967,0.07981 0.07967,0.209059 0,0.288871 l -0.867647,0.86713 c -0.07981,0.07967 -0.209059,0.07967 -0.288871,0 l -0.433566,-0.433565 -1.106909,-1.106909 -1.105875,1.106392 -0.434082,0.433566 c -0.07981,0.07966 -0.209059,0.07966 -0.288872,0 l -0.86713,-0.867131 c -0.08001,-0.07987 -0.08001,-0.209516 0,-0.289388 l 0.433565,-0.433565 2.1177,-2.1177 c 0.03836,-0.0384 0.09042,-0.05996 0.144694,-0.05994 z m 8.3783,0 c 0.05428,-1.7e-5 0.106332,0.02155 0.144694,0.05994 l 2.118734,2.118217 0.433565,0.434082 c 0.07967,0.07981 0.07967,0.209059 0,0.288871 l -0.86713,0.86713 c -0.07987,0.08001 -0.209517,0.08001 -0.289388,0 l -0.433566,-0.433565 -1.106909,-1.106909 -1.105875,1.106392 -0.433566,0.433566 c -0.07987,0.08001 -0.209516,0.08001 -0.289388,0 l -0.86713,-0.867131 c -0.08001,-0.07987 -0.08001,-0.209516 0,-0.289388 l 0.433565,-0.433565 2.118217,-2.1177 c 0.03824,-0.03827 0.09008,-0.05982 0.144177,-0.05994 z m 8.378817,0 c 0.0541,1.2e-4 0.105941,0.02168 0.144177,0.05994 l 2.118734,2.118217 0.433565,0.434082 c 0.07967,0.07981 0.07967,0.209059 0,0.288871 l -0.86713,0.86713 c -0.07981,0.07967 -0.209059,0.07967 -0.288872,0 l -0.434082,-0.433565 -1.106392,-1.106909 -1.106392,1.106392 -0.433566,0.433566 c -0.07981,0.07966 -0.209059,0.07966 -0.288871,0 L 62.31661,41.603662 c -0.08001,-0.07987 -0.08001,-0.209516 0,-0.289388 l 0.433565,-0.433565 2.118217,-2.1177 c 0.03836,-0.0384 0.09042,-0.05996 0.144694,-0.05994 z m 8.3783,0 c 0.05428,-1.7e-5 0.106332,0.02155 0.144694,0.05994 l 2.118734,2.118217 0.433565,0.434082 c 0.07967,0.07981 0.07967,0.209059 0,0.288871 l -0.867647,0.86713 c -0.07981,0.07967 -0.209059,0.07967 -0.288872,0 l -0.433565,-0.433565 -1.106909,-1.106909 -1.105876,1.106392 -0.434082,0.433566 c -0.07981,0.07966 -0.209059,0.07966 -0.288871,0 l -0.867131,-0.867131 c -0.08001,-0.07987 -0.08001,-0.209516 0,-0.289388 l 0.433566,-0.433565 2.1177,-2.1177 c 0.03836,-0.0384 0.09042,-0.05996 0.144694,-0.05994 z m -20.946008,5.616711 c 0.0541,1.21e-4 0.105941,0.02168 0.144177,0.05994 l 2.118734,2.118734 0.433565,0.434082 c 0.07967,0.07981 0.07967,0.209059 0,0.288871 l -0.867131,0.867131 c -0.07981,0.07966 -0.209059,0.07966 -0.288871,0 l -0.434082,-0.433566 -1.106392,-1.106909 -1.106393,1.106393 -0.433565,0.433565 c -0.07981,0.07967 -0.209059,0.07967 -0.288871,0 L 49.748901,47.22089 c -0.08001,-0.07987 -0.08001,-0.209516 0,-0.289388 l 0.433566,-0.433565 2.118217,-2.118217 c 0.03836,-0.0384 0.09042,-0.05996 0.144694,-0.05994 z m 8.3783,0 c 0.05428,-1.6e-5 0.106331,0.02155 0.144694,0.05994 l 2.118733,2.118734 0.433566,0.434082 c 0.07966,0.07981 0.07966,0.209059 0,0.288871 l -0.867648,0.867131 c -0.07981,0.07966 -0.209059,0.07966 -0.288871,0 l -0.433565,-0.433566 -1.106909,-1.106909 -1.105876,1.106393 -0.434082,0.433565 c -0.07981,0.07967 -0.209059,0.07967 -0.288871,0 L 58.127718,47.22089 c -0.08001,-0.07987 -0.08001,-0.209516 0,-0.289388 l 0.433565,-0.433565 2.117701,-2.118217 c 0.03836,-0.0384 0.09042,-0.05996 0.144694,-0.05994 z m 8.3783,0 c 0.05428,-1.6e-5 0.106331,0.02155 0.144694,0.05994 l 2.118733,2.118734 0.433566,0.434082 c 0.07966,0.07981 0.07966,0.209059 0,0.288871 l -0.867131,0.867131 c -0.07987,0.08001 -0.209517,0.08001 -0.289388,0 l -0.433565,-0.433566 -1.106909,-1.106909 -1.105876,1.106393 -0.433565,0.433565 c -0.07987,0.08001 -0.209517,0.08001 -0.289388,0 L 66.506018,47.22089 c -0.08001,-0.07987 -0.08001,-0.209516 0,-0.289388 L 66.939583,46.497937 69.0578,44.37972 c 0.03824,-0.03827 0.09008,-0.05982 0.144178,-0.05994 z m -20.946009,5.617229 c 0.05428,-1.7e-5 0.106332,0.02155 0.144694,0.05994 l 2.118734,2.118734 0.433565,0.433565 c 0.08001,0.07987 0.08001,0.209517 0,0.289388 l -0.867647,0.867131 c -0.07981,0.07967 -0.209059,0.07967 -0.288871,0 l -0.433566,-0.433565 -1.106909,-1.10691 -1.105875,1.106393 -0.434082,0.433565 c -0.07981,0.07967 -0.209059,0.07967 -0.288872,0 l -0.86713,-0.867647 c -0.07967,-0.07981 -0.07967,-0.209059 0,-0.288872 l 0.433565,-0.433565 2.1177,-2.118217 c 0.03836,-0.0384 0.09042,-0.05996 0.144694,-0.05994 z m 8.3783,0 c 0.05428,-1.7e-5 0.106332,0.02155 0.144694,0.05994 l 2.118734,2.118734 0.433565,0.433565 c 0.08001,0.07987 0.08001,0.209517 0,0.289388 l -0.86713,0.867131 c -0.07987,0.08001 -0.209517,0.08001 -0.289388,0 l -0.433566,-0.433565 -1.106909,-1.10691 -1.105875,1.106393 -0.433566,0.433565 c -0.07987,0.08001 -0.209516,0.08001 -0.289388,0 l -0.86713,-0.867647 c -0.07967,-0.07981 -0.07967,-0.209059 0,-0.288872 l 0.433565,-0.433565 2.118217,-2.118217 c 0.03824,-0.03827 0.09008,-0.05982 0.144177,-0.05994 z m 8.378817,0 c 0.0541,1.2e-4 0.105941,0.02167 0.144177,0.05994 l 2.118734,2.118734 0.433565,0.433565 c 0.08001,0.07987 0.08001,0.209517 0,0.289388 l -0.86713,0.867131 c -0.07981,0.07967 -0.209059,0.07967 -0.288872,0 l -0.434082,-0.433565 -1.106392,-1.10691 -1.106392,1.106393 -0.433566,0.433565 c -0.07981,0.07967 -0.209059,0.07967 -0.288871,0 L 62.31661,52.837602 c -0.07967,-0.07981 -0.07967,-0.209059 0,-0.288872 l 0.433565,-0.433565 2.118217,-2.118217 c 0.03836,-0.0384 0.09042,-0.05996 0.144694,-0.05994 z m 8.3783,0 c 0.05428,-1.7e-5 0.106332,0.02155 0.144694,0.05994 l 2.118734,2.118734 0.433565,0.433565 c 0.08001,0.07987 0.08001,0.209517 0,0.289388 l -0.867647,0.867131 c -0.07981,0.07967 -0.209059,0.07967 -0.288872,0 l -0.433565,-0.433565 -1.106909,-1.10691 -1.105876,1.106393 -0.434082,0.433565 c -0.07981,0.07967 -0.209059,0.07967 -0.288871,0 l -0.867131,-0.867647 c -0.07966,-0.07981 -0.07966,-0.209059 0,-0.288872 l 0.433566,-0.433565 2.1177,-2.118217 c 0.03836,-0.0384 0.09042,-0.05996 0.144694,-0.05994 z m -20.946008,5.617228 c 0.0541,1.2e-4 0.105941,0.02168 0.144177,0.05994 l 2.118734,2.118734 0.433565,0.433565 c 0.08001,0.07987 0.08001,0.209517 0,0.289388 l -0.867131,0.867131 c -0.07981,0.07967 -0.209059,0.07967 -0.288871,0 L 53.55177,58.889429 52.445378,57.78252 51.338985,58.888912 50.90542,59.322477 c -0.07981,0.07967 -0.209059,0.07967 -0.288871,0 L 49.748901,58.45483 c -0.07966,-0.07981 -0.07966,-0.209059 0,-0.288871 l 0.433566,-0.433566 2.118217,-2.118217 c 0.03836,-0.0384 0.09042,-0.05996 0.144694,-0.05994 z m 8.3783,0 c 0.05428,-1.7e-5 0.106331,0.02155 0.144694,0.05994 l 2.118733,2.118734 0.433566,0.433565 c 0.08001,0.07987 0.08001,0.209517 0,0.289388 l -0.867648,0.867131 c -0.07981,0.07967 -0.209059,0.07967 -0.288871,0 l -0.433565,-0.433565 -1.106909,-1.106909 -1.105876,1.106392 -0.434082,0.433565 c -0.07981,0.07967 -0.209059,0.07967 -0.288871,0 L 58.127718,58.45483 c -0.07967,-0.07981 -0.07967,-0.209059 0,-0.288871 l 0.433565,-0.433566 2.117701,-2.118217 c 0.03836,-0.0384 0.09042,-0.05996 0.144694,-0.05994 z m 8.3783,0 c 0.05428,-1.7e-5 0.106331,0.02155 0.144694,0.05994 l 2.118733,2.118734 0.433566,0.433565 c 0.08001,0.07987 0.08001,0.209517 0,0.289388 l -0.867131,0.867131 c -0.07987,0.08001 -0.209517,0.08001 -0.289388,0 l -0.433565,-0.433565 -1.106909,-1.106909 -1.105876,1.106392 -0.433565,0.433565 c -0.07987,0.08001 -0.209517,0.08001 -0.289388,0 L 66.506018,58.45483 c -0.07967,-0.07981 -0.07967,-0.209059 0,-0.288871 l 0.433565,-0.433566 2.118217,-2.118217 c 0.03824,-0.03827 0.09008,-0.05982 0.144178,-0.05994 z M 48.255969,61.17146 c 0.05428,-1.7e-5 0.106332,0.02155 0.144694,0.05994 l 2.118734,2.118733 0.433565,0.433566 c 0.07967,0.07981 0.07967,0.209058 0,0.288871 l -0.867647,0.867647 c -0.07981,0.07967 -0.209059,0.07967 -0.288871,0 l -0.433566,-0.434082 -1.106909,-1.106392 -1.105875,1.106392 -0.434082,0.433565 c -0.07981,0.07967 -0.209059,0.07967 -0.288872,0 l -0.86713,-0.867647 c -0.07967,-0.07981 -0.07967,-0.209059 0,-0.288871 l 0.433565,-0.434082 2.1177,-2.1177 c 0.03836,-0.0384 0.09042,-0.05996 0.144694,-0.05994 z m 8.3783,0 c 0.05428,-1.7e-5 0.106332,0.02155 0.144694,0.05994 l 2.118734,2.118733 0.433565,0.433566 c 0.07967,0.07981 0.07967,0.209058 0,0.288871 l -0.86713,0.867647 c -0.07987,0.08001 -0.209517,0.08001 -0.289388,0 l -0.433566,-0.434082 -1.106909,-1.106392 -1.105875,1.106392 -0.433566,0.433565 c -0.07987,0.08001 -0.209516,0.08001 -0.289388,0 l -0.86713,-0.867647 c -0.07967,-0.07981 -0.07967,-0.209059 0,-0.288871 l 0.433565,-0.434082 2.118217,-2.1177 c 0.03824,-0.03827 0.09008,-0.05983 0.144177,-0.05994 z m 8.378817,0 c 0.0541,1.2e-4 0.105941,0.02168 0.144177,0.05994 l 2.118734,2.118733 0.433565,0.433566 c 0.07967,0.07981 0.07967,0.209058 0,0.288871 l -0.86713,0.867647 c -0.07981,0.07967 -0.209059,0.07967 -0.288872,0 l -0.434082,-0.434082 -1.106392,-1.106392 -1.106392,1.106392 -0.433566,0.433565 c -0.07981,0.07967 -0.209059,0.07967 -0.288871,0 L 62.31661,64.072058 c -0.07967,-0.07981 -0.07967,-0.209059 0,-0.288871 l 0.433565,-0.434082 2.118217,-2.1177 c 0.03836,-0.0384 0.09042,-0.05996 0.144694,-0.05994 z m 8.3783,0 c 0.05428,-1.7e-5 0.106332,0.02155 0.144694,0.05994 l 2.118734,2.118733 0.433565,0.433566 c 0.07967,0.07981 0.07967,0.209058 0,0.288871 l -0.867647,0.867647 c -0.07981,0.07967 -0.209059,0.07967 -0.288872,0 L 74.498295,64.50614 73.391386,63.399748 72.28551,64.50614 71.851428,64.939705 c -0.07981,0.07967 -0.209059,0.07967 -0.288871,0 l -0.867131,-0.867647 c -0.07966,-0.07981 -0.07966,-0.209059 0,-0.288871 l 0.433566,-0.434082 2.1177,-2.1177 c 0.03836,-0.0384 0.09042,-0.05996 0.144694,-0.05994 z"
       style="fill:#cb4b16;stroke-width:0.327326;stroke-linejoin:bevel;paint-order:stroke markers fill"
       id="path6"
       inkscape:label="2 bars" />
    <g
       id="g143"
       transform="matrix(0.95712859,0,0,0.95712859,6.6704191,73.416264)"
       inkscape:label="[raw]"
       style="display:none"
       sodipodi:insensitive="true">
      <path
         id="path105"
         style="color:#000000;fill:#002b36;stroke-width:0.213588;stroke-linecap:round;stroke-linejoin:round;stroke-dasharray:none;-inkscape-stroke:none;paint-order:stroke markers fill"
         d="m 69.709515,62.431954 a 0.21360863,0.21360863 0 0 0 -0.150992,0.06269 l -2.213004,2.212784 -0.452976,0.453196 a 0.21360863,0.21360863 0 0 0 0,0.301984 l 0.906172,0.906173 a 0.21360863,0.21360863 0 0 0 0.301985,10e-7 l 0.453196,-0.452977 1.155619,-1.15584 1.156281,1.156282 0.453198,0.453196 a 0.21360863,0.21360863 0 0 0 0.301982,0 l 0.906173,-0.906173 a 0.21360863,0.21360863 0 0 0 2e-6,-0.301984 L 72.074173,64.70809 69.860507,62.494644 a 0.21360863,0.21360863 0 0 0 -0.150992,-0.06269 z"
         inkscape:label="arrow" />
      <path
         id="path106"
         style="color:#000000;fill:#002b36;stroke-width:0.213588;stroke-linecap:round;stroke-linejoin:round;stroke-dasharray:none;-inkscape-stroke:none;paint-order:stroke markers fill"
         d="m 60.955779,62.431954 a 0.21360863,0.21360863 0 0 0 -0.150992,0.06269 l -2.213004,2.212784 -0.452976,0.453196 a 0.21360863,0.21360863 0 0 0 0,0.301984 l 0.906172,0.906173 a 0.21360863,0.21360863 0 0 0 0.301986,10e-7 l 0.453196,-0.452977 1.155618,-1.15584 1.156282,1.156282 0.453196,0.453196 a 0.21360863,0.21360863 0 0 0 0.301984,0 l 0.906173,-0.906173 a 0.21360863,0.21360863 0 0 0 0,-0.301984 L 63.320438,64.70809 61.106771,62.494644 a 0.21360863,0.21360863 0 0 0 -0.150992,-0.06269 z"
         inkscape:label="arrow" />
      <path
         id="path107"
         style="color:#000000;fill:#002b36;stroke-width:0.213588;stroke-linecap:round;stroke-linejoin:round;stroke-dasharray:none;-inkscape-stroke:none;paint-order:stroke markers fill"
         d="m 52.202045,62.431954 a 0.21360863,0.21360863 0 0 0 -0.150993,0.06269 l -2.213004,2.212784 -0.452976,0.453196 a 0.21360863,0.21360863 0 0 0 0,0.301984 l 0.906173,0.906173 a 0.21360863,0.21360863 0 0 0 0.301984,10e-7 l 0.453196,-0.452977 1.15562,-1.15584 1.156281,1.156282 0.453196,0.453196 a 0.21360863,0.21360863 0 0 0 0.301984,0 l 0.906172,-0.906173 a 0.21360863,0.21360863 0 0 0 10e-7,-0.301984 L 54.566703,64.70809 52.353037,62.494644 a 0.21360863,0.21360863 0 0 0 -0.150992,-0.06269 z"
         inkscape:label="arrow" />
      <path
         id="path108"
         style="color:#000000;fill:#002b36;stroke-width:0.213588;stroke-linecap:round;stroke-linejoin:round;stroke-dasharray:none;-inkscape-stroke:none;paint-order:stroke markers fill"
         d="m 43.448309,62.431954 a 0.21360863,0.21360863 0 0 0 -0.150993,0.06269 l -2.213004,2.212784 -0.452976,0.453196 a 0.21360863,0.21360863 0 0 0 0,0.301984 l 0.906173,0.906173 a 0.21360863,0.21360863 0 0 0 0.301984,10e-7 l 0.453196,-0.452977 1.15562,-1.15584 1.15628,1.156282 0.453198,0.453196 a 0.21360863,0.21360863 0 0 0 0.301984,0 l 0.906171,-0.906173 a 0.21360863,0.21360863 0 0 0 2e-6,-0.301984 L 45.812968,64.70809 43.599301,62.494644 a 0.21360863,0.21360863 0 0 0 -0.150992,-0.06269 z"
         inkscape:label="arrow" />
      <path
         id="path109"
         style="color:#000000;fill:#002b36;stroke-width:0.213588;stroke-linecap:round;stroke-linejoin:round;stroke-dasharray:none;-inkscape-stroke:none;paint-order:stroke markers fill"
         d="m 65.332647,9.6132036 a 0.21360863,0.21360863 0 0 0 -0.150992,0.062688 l -2.213004,2.2127844 -0.452976,0.453196 a 0.21360863,0.21360863 0 0 0 0,0.301984 l 0.906172,0.906173 a 0.21360863,0.21360863 0 0 0 0.301986,10e-7 l 0.453196,-0.452977 1.155618,-1.15584 1.156282,1.156282 0.453196,0.453196 a 0.21360863,0.21360863 0 0 0 0.301984,0 l 0.906173,-0.906173 a 0.21360863,0.21360863 0 0 0 0,-0.301984 L 67.697306,11.889338 65.483639,9.6758917 a 0.21360863,0.21360863 0 0 0 -0.150992,-0.062688 z"
         inkscape:label="arrow" />
      <path
         id="path110"
         style="color:#000000;fill:#002b36;stroke-width:0.213588;stroke-linecap:round;stroke-linejoin:round;stroke-dasharray:none;-inkscape-stroke:none;paint-order:stroke markers fill"
         d="m 56.578913,9.6132036 a 0.21360863,0.21360863 0 0 0 -0.150993,0.062688 l -2.213004,2.2127844 -0.452976,0.453196 a 0.21360863,0.21360863 0 0 0 0,0.301984 l 0.906173,0.906173 a 0.21360863,0.21360863 0 0 0 0.301984,10e-7 l 0.453196,-0.452977 1.15562,-1.15584 1.156281,1.156282 0.453196,0.453196 a 0.21360863,0.21360863 0 0 0 0.301984,0 l 0.906172,-0.906173 a 0.21360863,0.21360863 0 0 0 10e-7,-0.301984 L 58.943571,11.889338 56.729905,9.6758917 a 0.21360863,0.21360863 0 0 0 -0.150992,-0.062688 z"
         inkscape:label="arrow" />
      <path
         id="path111"
         style="color:#000000;fill:#002b36;stroke-width:0.213588;stroke-linecap:round;stroke-linejoin:round;stroke-dasharray:none;-inkscape-stroke:none;paint-order:stroke markers fill"
         d="m 47.825177,9.6132036 a 0.21360863,0.21360863 0 0 0 -0.150993,0.062688 l -2.213004,2.2127844 -0.452976,0.453196 a 0.21360863,0.21360863 0 0 0 0,0.301984 l 0.906173,0.906173 a 0.21360863,0.21360863 0 0 0 0.301984,10e-7 l 0.453196,-0.452977 1.15562,-1.15584 1.15628,1.156282 0.453198,0.453196 a 0.21360863,0.21360863 0 0 0 0.301984,0 l 0.906171,-0.906173 a 0.21360863,0.21360863 0 0 0 2e-6,-0.301984 L 50.189836,11.889338 47.976169,9.6758917 a 0.21360863,0.21360863 0 0 0 -0.150992,-0.062688 z"
         inkscape:label="arrow" />
      <path
         id="path112"
         style="color:#000000;fill:#002b36;stroke-width:0.213588;stroke-linecap:round;stroke-linejoin:round;stroke-dasharray:none;-inkscape-stroke:none;paint-order:stroke markers fill"
         d="m 69.709515,50.694454 a 0.21360863,0.21360863 0 0 0 -0.150992,0.06269 l -2.213004,2.212784 -0.452976,0.453196 a 0.21360863,0.21360863 0 0 0 0,0.301984 l 0.906172,0.906173 a 0.21360863,0.21360863 0 0 0 0.301985,10e-7 l 0.453196,-0.452977 1.155619,-1.15584 1.156281,1.156282 0.453198,0.453196 a 0.21360863,0.21360863 0 0 0 0.301982,0 l 0.906173,-0.906173 a 0.21360863,0.21360863 0 0 0 2e-6,-0.301983 L 72.074173,52.97059 69.860507,50.757144 a 0.21360863,0.21360863 0 0 0 -0.150992,-0.06269 z"
         inkscape:label="arrow" />
      <path
         id="path113"
         style="color:#000000;fill:#002b36;stroke-width:0.213588;stroke-linecap:round;stroke-linejoin:round;stroke-dasharray:none;-inkscape-stroke:none;paint-order:stroke markers fill"
         d="m 60.955779,50.694454 a 0.21360863,0.21360863 0 0 0 -0.150992,0.06269 l -2.213004,2.212784 -0.452976,0.453196 a 0.21360863,0.21360863 0 0 0 0,0.301984 l 0.906172,0.906173 a 0.21360863,0.21360863 0 0 0 0.301986,10e-7 l 0.453196,-0.452977 1.155618,-1.15584 1.156282,1.156282 0.453196,0.453196 a 0.21360863,0.21360863 0 0 0 0.301984,0 l 0.906173,-0.906173 a 0.21360863,0.21360863 0 0 0 0,-0.301983 L 63.320438,52.97059 61.106771,50.757144 a 0.21360863,0.21360863 0 0 0 -0.150992,-0.06269 z"
         inkscape:label="arrow" />
      <path
         id="path114"
         style="color:#000000;fill:#002b36;stroke-width:0.213588;stroke-linecap:round;stroke-linejoin:round;stroke-dasharray:none;-inkscape-stroke:none;paint-order:stroke markers fill"
         d="m 52.202045,50.694454 a 0.21360863,0.21360863 0 0 0 -0.150993,0.06269 l -2.213004,2.212784 -0.452976,0.453196 a 0.21360863,0.21360863 0 0 0 0,0.301984 l 0.906173,0.906173 a 0.21360863,0.21360863 0 0 0 0.301984,10e-7 l 0.453196,-0.452977 1.15562,-1.15584 1.156281,1.156282 0.453196,0.453196 a 0.21360863,0.21360863 0 0 0 0.301984,0 l 0.906172,-0.906173 a 0.21360863,0.21360863 0 0 0 10e-7,-0.301983 L 54.566703,52.97059 52.353037,50.757144 a 0.21360863,0.21360863 0 0 0 -0.150992,-0.06269 z"
         inkscape:label="arrow" />
      <path
         id="path115"
         style="color:#000000;fill:#002b36;stroke-width:0.213588;stroke-linecap:round;stroke-linejoin:round;stroke-dasharray:none;-inkscape-stroke:none;paint-order:stroke markers fill"
         d="m 43.448309,50.694454 a 0.21360863,0.21360863 0 0 0 -0.150993,0.06269 l -2.213004,2.212784 -0.452976,0.453196 a 0.21360863,0.21360863 0 0 0 0,0.301984 l 0.906173,0.906173 a 0.21360863,0.21360863 0 0 0 0.301984,10e-7 l 0.453196,-0.452977 1.15562,-1.15584 1.15628,1.156282 0.453198,0.453196 a 0.21360863,0.21360863 0 0 0 0.301984,0 l 0.906171,-0.906173 a 0.21360863,0.21360863 0 0 0 2e-6,-0.301983 L 45.812968,52.97059 43.599301,50.757144 a 0.21360863,0.21360863 0 0 0 -0.150992,-0.06269 z"
         inkscape:label="arrow" />
      <path
         id="path116"
         style="color:#000000;fill:#002b36;stroke-width:0.213588;stroke-linecap:round;stroke-linejoin:round;stroke-dasharray:none;-inkscape-stroke:none;paint-order:stroke markers fill"
         d="m 65.332647,56.563204 a 0.21360863,0.21360863 0 0 0 -0.150992,0.06269 l -2.213004,2.212784 -0.452976,0.453196 a 0.21360863,0.21360863 0 0 0 0,0.301984 l 0.906172,0.906173 a 0.21360863,0.21360863 0 0 0 0.301986,10e-7 l 0.453196,-0.452977 1.155618,-1.15584 1.156282,1.156282 0.453196,0.453196 a 0.21360863,0.21360863 0 0 0 0.301984,0 l 0.906173,-0.906173 a 0.21360863,0.21360863 0 0 0 0,-0.301983 L 67.697306,58.83934 65.483639,56.625894 a 0.21360863,0.21360863 0 0 0 -0.150992,-0.06269 z"
         inkscape:label="arrow" />
      <path
         id="path117"
         style="color:#000000;fill:#002b36;stroke-width:0.213588;stroke-linecap:round;stroke-linejoin:round;stroke-dasharray:none;-inkscape-stroke:none;paint-order:stroke markers fill"
         d="m 56.578913,56.563204 a 0.21360863,0.21360863 0 0 0 -0.150993,0.06269 l -2.213004,2.212784 -0.452976,0.453196 a 0.21360863,0.21360863 0 0 0 0,0.301984 l 0.906173,0.906173 a 0.21360863,0.21360863 0 0 0 0.301984,10e-7 l 0.453196,-0.452977 1.15562,-1.15584 1.156281,1.156282 0.453196,0.453196 a 0.21360863,0.21360863 0 0 0 0.301984,0 l 0.906172,-0.906173 a 0.21360863,0.21360863 0 0 0 10e-7,-0.301983 L 58.943571,58.83934 56.729905,56.625894 a 0.21360863,0.21360863 0 0 0 -0.150992,-0.06269 z"
         inkscape:label="arrow" />
      <path
         id="path118"
         style="color:#000000;fill:#002b36;stroke-width:0.213588;stroke-linecap:round;stroke-linejoin:round;stroke-dasharray:none;-inkscape-stroke:none;paint-order:stroke markers fill"
         d="m 47.825177,56.563204 a 0.21360863,0.21360863 0 0 0 -0.150993,0.06269 l -2.213004,2.212784 -0.452976,0.453196 a 0.21360863,0.21360863 0 0 0 0,0.301984 l 0.906173,0.906173 a 0.21360863,0.21360863 0 0 0 0.301984,10e-7 l 0.453196,-0.452977 1.15562,-1.15584 1.15628,1.156282 0.453198,0.453196 a 0.21360863,0.21360863 0 0 0 0.301984,0 L 50.64281,59.59452 a 0.21360863,0.21360863 0 0 0 2e-6,-0.301983 L 50.189836,58.83934 47.976169,56.625894 a 0.21360863,0.21360863 0 0 0 -0.150992,-0.06269 z"
         inkscape:label="arrow" />
      <path
         id="path119"
         style="color:#000000;fill:#002b36;stroke-width:0.213588;stroke-linecap:round;stroke-linejoin:round;stroke-dasharray:none;-inkscape-stroke:none;paint-order:stroke markers fill"
         d="m 69.709515,15.481954 a 0.21360863,0.21360863 0 0 0 -0.150992,0.06269 l -2.213004,2.212784 -0.452976,0.453196 a 0.21360863,0.21360863 0 0 0 0,0.301984 l 0.906172,0.906173 a 0.21360863,0.21360863 0 0 0 0.301985,1e-6 l 0.453196,-0.452977 1.155619,-1.15584 1.156281,1.156282 0.453198,0.453196 a 0.21360863,0.21360863 0 0 0 0.301982,0 l 0.906173,-0.906173 a 0.21360863,0.21360863 0 0 0 2e-6,-0.301984 L 72.074173,17.75809 69.860507,15.544644 a 0.21360863,0.21360863 0 0 0 -0.150992,-0.06269 z"
         inkscape:label="arrow" />
      <path
         id="path120"
         style="color:#000000;fill:#002b36;stroke-width:0.213588;stroke-linecap:round;stroke-linejoin:round;stroke-dasharray:none;-inkscape-stroke:none;paint-order:stroke markers fill"
         d="m 60.955779,15.481954 a 0.21360863,0.21360863 0 0 0 -0.150992,0.06269 l -2.213004,2.212784 -0.452976,0.453196 a 0.21360863,0.21360863 0 0 0 0,0.301984 l 0.906172,0.906173 a 0.21360863,0.21360863 0 0 0 0.301986,1e-6 l 0.453196,-0.452977 1.155618,-1.15584 1.156282,1.156282 0.453196,0.453196 a 0.21360863,0.21360863 0 0 0 0.301984,0 l 0.906173,-0.906173 a 0.21360863,0.21360863 0 0 0 0,-0.301984 L 63.320438,17.75809 61.106771,15.544644 a 0.21360863,0.21360863 0 0 0 -0.150992,-0.06269 z"
         inkscape:label="arrow" />
      <path
         id="path121"
         style="color:#000000;fill:#002b36;stroke-width:0.213588;stroke-linecap:round;stroke-linejoin:round;stroke-dasharray:none;-inkscape-stroke:none;paint-order:stroke markers fill"
         d="m 52.202045,15.481954 a 0.21360863,0.21360863 0 0 0 -0.150993,0.06269 l -2.213004,2.212784 -0.452976,0.453196 a 0.21360863,0.21360863 0 0 0 0,0.301984 l 0.906173,0.906173 a 0.21360863,0.21360863 0 0 0 0.301984,1e-6 l 0.453196,-0.452977 1.15562,-1.15584 1.156281,1.156282 0.453196,0.453196 a 0.21360863,0.21360863 0 0 0 0.301984,0 l 0.906172,-0.906173 a 0.21360863,0.21360863 0 0 0 10e-7,-0.301984 L 54.566703,17.75809 52.353037,15.544644 a 0.21360863,0.21360863 0 0 0 -0.150992,-0.06269 z"
         inkscape:label="arrow" />
      <path
         id="path122"
         style="color:#000000;fill:#002b36;stroke-width:0.213588;stroke-linecap:round;stroke-linejoin:round;stroke-dasharray:none;-inkscape-stroke:none;paint-order:stroke markers fill"
         d="m 43.448309,15.481954 a 0.21360863,0.21360863 0 0 0 -0.150993,0.06269 l -2.213004,2.212784 -0.452976,0.453196 a 0.21360863,0.21360863 0 0 0 0,0.301984 l 0.906173,0.906173 a 0.21360863,0.21360863 0 0 0 0.301984,1e-6 l 0.453196,-0.452977 1.15562,-1.15584 1.15628,1.156282 0.453198,0.453196 a 0.21360863,0.21360863 0 0 0 0.301984,0 l 0.906171,-0.906173 a 0.21360863,0.21360863 0 0 0 2e-6,-0.301984 L 45.812968,17.75809 43.599301,15.544644 a 0.21360863,0.21360863 0 0 0 -0.150992,-0.06269 z"
         inkscape:label="arrow" />
      <path
         id="path123"
         style="color:#000000;fill:#002b36;stroke-width:0.213588;stroke-linecap:round;stroke-linejoin:round;stroke-dasharray:none;-inkscape-stroke:none;paint-order:stroke markers fill"
         d="m 65.332647,21.350704 a 0.21360863,0.21360863 0 0 0 -0.150992,0.06269 l -2.213004,2.212784 -0.452976,0.453196 a 0.21360863,0.21360863 0 0 0 0,0.301984 l 0.906172,0.906173 a 0.21360863,0.21360863 0 0 0 0.301986,10e-7 l 0.453196,-0.452977 1.155618,-1.15584 1.156282,1.156282 0.453196,0.453196 a 0.21360863,0.21360863 0 0 0 0.301984,0 l 0.906173,-0.906173 a 0.21360863,0.21360863 0 0 0 0,-0.301984 L 67.697306,23.62684 65.483639,21.413394 a 0.21360863,0.21360863 0 0 0 -0.150992,-0.06269 z"
         inkscape:label="arrow" />
      <path
         id="path124"
         style="color:#000000;fill:#002b36;stroke-width:0.213588;stroke-linecap:round;stroke-linejoin:round;stroke-dasharray:none;-inkscape-stroke:none;paint-order:stroke markers fill"
         d="m 56.578913,21.350704 a 0.21360863,0.21360863 0 0 0 -0.150993,0.06269 l -2.213004,2.212784 -0.452976,0.453196 a 0.21360863,0.21360863 0 0 0 0,0.301984 l 0.906173,0.906173 a 0.21360863,0.21360863 0 0 0 0.301984,10e-7 l 0.453196,-0.452977 1.15562,-1.15584 1.156281,1.156282 0.453196,0.453196 a 0.21360863,0.21360863 0 0 0 0.301984,0 l 0.906172,-0.906173 a 0.21360863,0.21360863 0 0 0 10e-7,-0.301984 L 58.943571,23.62684 56.729905,21.413394 a 0.21360863,0.21360863 0 0 0 -0.150992,-0.06269 z"
         inkscape:label="arrow" />
      <path
         id="path125"
         style="color:#000000;fill:#002b36;stroke-width:0.213588;stroke-linecap:round;stroke-linejoin:round;stroke-dasharray:none;-inkscape-stroke:none;paint-order:stroke markers fill"
         d="m 47.825177,21.350704 a 0.21360863,0.21360863 0 0 0 -0.150993,0.06269 l -2.213004,2.212784 -0.452976,0.453196 a 0.21360863,0.21360863 0 0 0 0,0.301984 l 0.906173,0.906173 a 0.21360863,0.21360863 0 0 0 0.301984,10e-7 l 0.453196,-0.452977 1.15562,-1.15584 1.15628,1.156282 0.453198,0.453196 a 0.21360863,0.21360863 0 0 0 0.301984,0 L 50.64281,24.38202 a 0.21360863,0.21360863 0 0 0 2e-6,-0.301984 L 50.189836,23.62684 47.976169,21.413394 a 0.21360863,0.21360863 0 0 0 -0.150992,-0.06269 z"
         inkscape:label="arrow" />
      <path
         id="path126"
         style="color:#000000;fill:#002b36;stroke-width:0.213588;stroke-linecap:round;stroke-linejoin:round;stroke-dasharray:none;-inkscape-stroke:none;paint-order:stroke markers fill"
         d="m 69.709515,27.219454 a 0.21360863,0.21360863 0 0 0 -0.150992,0.06269 l -2.213004,2.212784 -0.452976,0.453196 a 0.21360863,0.21360863 0 0 0 0,0.301984 l 0.906172,0.906173 a 0.21360863,0.21360863 0 0 0 0.301985,1e-6 l 0.453196,-0.452977 1.155619,-1.15584 1.156281,1.156282 0.453198,0.453196 a 0.21360863,0.21360863 0 0 0 0.301982,0 l 0.906173,-0.906173 a 0.21360863,0.21360863 0 0 0 2e-6,-0.301983 L 72.074173,29.49559 69.860507,27.282144 a 0.21360863,0.21360863 0 0 0 -0.150992,-0.06269 z"
         inkscape:label="arrow" />
      <path
         id="path127"
         style="color:#000000;fill:#002b36;stroke-width:0.213588;stroke-linecap:round;stroke-linejoin:round;stroke-dasharray:none;-inkscape-stroke:none;paint-order:stroke markers fill"
         d="m 60.955779,27.219454 a 0.21360863,0.21360863 0 0 0 -0.150992,0.06269 l -2.213004,2.212784 -0.452976,0.453196 a 0.21360863,0.21360863 0 0 0 0,0.301984 l 0.906172,0.906173 a 0.21360863,0.21360863 0 0 0 0.301986,1e-6 l 0.453196,-0.452977 1.155618,-1.15584 1.156282,1.156282 0.453196,0.453196 a 0.21360863,0.21360863 0 0 0 0.301984,0 l 0.906173,-0.906173 a 0.21360863,0.21360863 0 0 0 0,-0.301983 L 63.320438,29.49559 61.106771,27.282144 a 0.21360863,0.21360863 0 0 0 -0.150992,-0.06269 z"
         inkscape:label="arrow" />
      <path
         id="path128"
         style="color:#000000;fill:#002b36;stroke-width:0.213588;stroke-linecap:round;stroke-linejoin:round;stroke-dasharray:none;-inkscape-stroke:none;paint-order:stroke markers fill"
         d="m 52.202045,27.219454 a 0.21360863,0.21360863 0 0 0 -0.150993,0.06269 l -2.213004,2.212784 -0.452976,0.453196 a 0.21360863,0.21360863 0 0 0 0,0.301984 l 0.906173,0.906173 a 0.21360863,0.21360863 0 0 0 0.301984,1e-6 l 0.453196,-0.452977 1.15562,-1.15584 1.156281,1.156282 0.453196,0.453196 a 0.21360863,0.21360863 0 0 0 0.301984,0 l 0.906172,-0.906173 a 0.21360863,0.21360863 0 0 0 10e-7,-0.301983 L 54.566703,29.49559 52.353037,27.282144 a 0.21360863,0.21360863 0 0 0 -0.150992,-0.06269 z"
         inkscape:label="arrow" />
      <path
         id="path129"
         style="color:#000000;fill:#002b36;stroke-width:0.213588;stroke-linecap:round;stroke-linejoin:round;stroke-dasharray:none;-inkscape-stroke:none;paint-order:stroke markers fill"
         d="m 43.448309,27.219454 a 0.21360863,0.21360863 0 0 0 -0.150993,0.06269 l -2.213004,2.212784 -0.452976,0.453196 a 0.21360863,0.21360863 0 0 0 0,0.301984 l 0.906173,0.906173 a 0.21360863,0.21360863 0 0 0 0.301984,1e-6 l 0.453196,-0.452977 1.15562,-1.15584 1.15628,1.156282 0.453198,0.453196 a 0.21360863,0.21360863 0 0 0 0.301984,0 l 0.906171,-0.906173 a 0.21360863,0.21360863 0 0 0 2e-6,-0.301983 L 45.812968,29.49559 43.599301,27.282144 a 0.21360863,0.21360863 0 0 0 -0.150992,-0.06269 z"
         inkscape:label="arrow" />
      <path
         id="path130"
         style="color:#000000;fill:#002b36;stroke-width:0.213588;stroke-linecap:round;stroke-linejoin:round;stroke-dasharray:none;-inkscape-stroke:none;paint-order:stroke markers fill"
         d="m 65.332647,33.088204 a 0.21360863,0.21360863 0 0 0 -0.150992,0.06269 l -2.213004,2.212784 -0.452976,0.453196 a 0.21360863,0.21360863 0 0 0 0,0.301984 l 0.906172,0.906173 a 0.21360863,0.21360863 0 0 0 0.301986,1e-6 l 0.453196,-0.452977 1.155618,-1.15584 1.156282,1.156282 0.453196,0.453196 a 0.21360863,0.21360863 0 0 0 0.301984,0 l 0.906173,-0.906173 a 0.21360863,0.21360863 0 0 0 0,-0.301984 L 67.697306,35.36434 65.483639,33.150894 a 0.21360863,0.21360863 0 0 0 -0.150992,-0.06269 z"
         inkscape:label="arrow" />
      <path
         id="path131"
         style="color:#000000;fill:#002b36;stroke-width:0.213588;stroke-linecap:round;stroke-linejoin:round;stroke-dasharray:none;-inkscape-stroke:none;paint-order:stroke markers fill"
         d="m 56.578913,33.088204 a 0.21360863,0.21360863 0 0 0 -0.150993,0.06269 l -2.213004,2.212784 -0.452976,0.453196 a 0.21360863,0.21360863 0 0 0 0,0.301984 l 0.906173,0.906173 a 0.21360863,0.21360863 0 0 0 0.301984,1e-6 l 0.453196,-0.452977 1.15562,-1.15584 1.156281,1.156282 0.453196,0.453196 a 0.21360863,0.21360863 0 0 0 0.301984,0 l 0.906172,-0.906173 a 0.21360863,0.21360863 0 0 0 10e-7,-0.301984 L 58.943571,35.36434 56.729905,33.150894 a 0.21360863,0.21360863 0 0 0 -0.150992,-0.06269 z"
         inkscape:label="arrow" />
      <path
         id="path132"
         style="color:#000000;fill:#002b36;stroke-width:0.213588;stroke-linecap:round;stroke-linejoin:round;stroke-dasharray:none;-inkscape-stroke:none;paint-order:stroke markers fill"
         d="m 47.825177,33.088204 a 0.21360863,0.21360863 0 0 0 -0.150993,0.06269 l -2.213004,2.212784 -0.452976,0.453196 a 0.21360863,0.21360863 0 0 0 0,0.301984 l 0.906173,0.906173 a 0.21360863,0.21360863 0 0 0 0.301984,1e-6 l 0.453196,-0.452977 1.15562,-1.15584 1.15628,1.156282 0.453198,0.453196 a 0.21360863,0.21360863 0 0 0 0.301984,0 L 50.64281,36.11952 a 0.21360863,0.21360863 0 0 0 2e-6,-0.301984 L 50.189836,35.36434 47.976169,33.150894 a 0.21360863,0.21360863 0 0 0 -0.150992,-0.06269 z"
         inkscape:label="arrow" />
      <path
         id="path133"
         style="color:#000000;fill:#002b36;stroke-width:0.213588;stroke-linecap:round;stroke-linejoin:round;stroke-dasharray:none;-inkscape-stroke:none;paint-order:stroke markers fill"
         d="m 69.709515,38.956954 a 0.21360863,0.21360863 0 0 0 -0.150992,0.06269 l -2.213004,2.212784 -0.452976,0.453196 a 0.21360863,0.21360863 0 0 0 0,0.301984 l 0.906172,0.906173 a 0.21360863,0.21360863 0 0 0 0.301985,1e-6 l 0.453196,-0.452977 1.155619,-1.15584 1.156281,1.156282 0.453198,0.453196 a 0.21360863,0.21360863 0 0 0 0.301982,0 l 0.906173,-0.906173 a 0.21360863,0.21360863 0 0 0 2e-6,-0.301984 L 72.074173,41.23309 69.860507,39.019644 a 0.21360863,0.21360863 0 0 0 -0.150992,-0.06269 z"
         inkscape:label="arrow" />
      <path
         id="path134"
         style="color:#000000;fill:#002b36;stroke-width:0.213588;stroke-linecap:round;stroke-linejoin:round;stroke-dasharray:none;-inkscape-stroke:none;paint-order:stroke markers fill"
         d="m 60.955779,38.956954 a 0.21360863,0.21360863 0 0 0 -0.150992,0.06269 l -2.213004,2.212784 -0.452976,0.453196 a 0.21360863,0.21360863 0 0 0 0,0.301984 l 0.906172,0.906173 a 0.21360863,0.21360863 0 0 0 0.301986,1e-6 l 0.453196,-0.452977 1.155618,-1.15584 1.156282,1.156282 0.453196,0.453196 a 0.21360863,0.21360863 0 0 0 0.301984,0 l 0.906173,-0.906173 a 0.21360863,0.21360863 0 0 0 0,-0.301984 L 63.320438,41.23309 61.106771,39.019644 a 0.21360863,0.21360863 0 0 0 -0.150992,-0.06269 z"
         inkscape:label="arrow" />
      <path
         id="path135"
         style="color:#000000;fill:#002b36;stroke-width:0.213588;stroke-linecap:round;stroke-linejoin:round;stroke-dasharray:none;-inkscape-stroke:none;paint-order:stroke markers fill"
         d="m 52.202045,38.956954 a 0.21360863,0.21360863 0 0 0 -0.150993,0.06269 l -2.213004,2.212784 -0.452976,0.453196 a 0.21360863,0.21360863 0 0 0 0,0.301984 l 0.906173,0.906173 a 0.21360863,0.21360863 0 0 0 0.301984,1e-6 l 0.453196,-0.452977 1.15562,-1.15584 1.156281,1.156282 0.453196,0.453196 a 0.21360863,0.21360863 0 0 0 0.301984,0 l 0.906172,-0.906173 a 0.21360863,0.21360863 0 0 0 10e-7,-0.301984 L 54.566703,41.23309 52.353037,39.019644 a 0.21360863,0.21360863 0 0 0 -0.150992,-0.06269 z"
         inkscape:label="arrow" />
      <path
         id="path136"
         style="color:#000000;fill:#002b36;stroke-width:0.213588;stroke-linecap:round;stroke-linejoin:round;stroke-dasharray:none;-inkscape-stroke:none;paint-order:stroke markers fill"
         d="m 43.448309,38.956954 a 0.21360863,0.21360863 0 0 0 -0.150993,0.06269 l -2.213004,2.212784 -0.452976,0.453196 a 0.21360863,0.21360863 0 0 0 0,0.301984 l 0.906173,0.906173 a 0.21360863,0.21360863 0 0 0 0.301984,1e-6 l 0.453196,-0.452977 1.15562,-1.15584 1.15628,1.156282 0.453198,0.453196 a 0.21360863,0.21360863 0 0 0 0.301984,0 l 0.906171,-0.906173 a 0.21360863,0.21360863 0 0 0 2e-6,-0.301984 L 45.812968,41.23309 43.599301,39.019644 a 0.21360863,0.21360863 0 0 0 -0.150992,-0.06269 z"
         inkscape:label="arrow" />
      <path
         id="path137"
         style="color:#000000;fill:#002b36;stroke-width:0.213588;stroke-linecap:round;stroke-linejoin:round;stroke-dasharray:none;-inkscape-stroke:none;paint-order:stroke markers fill"
         d="m 65.332647,44.825704 a 0.21360863,0.21360863 0 0 0 -0.150992,0.06269 l -2.213004,2.212784 -0.452976,0.453196 a 0.21360863,0.21360863 0 0 0 0,0.301984 l 0.906172,0.906173 a 0.21360863,0.21360863 0 0 0 0.301986,10e-7 l 0.453196,-0.452977 1.155618,-1.15584 1.156282,1.156282 0.453196,0.453196 a 0.21360863,0.21360863 0 0 0 0.301984,0 l 0.906173,-0.906173 a 0.21360863,0.21360863 0 0 0 0,-0.301984 L 67.697306,47.10184 65.483639,44.888394 a 0.21360863,0.21360863 0 0 0 -0.150992,-0.06269 z"
         inkscape:label="arrow" />
      <path
         id="path138"
         style="color:#000000;fill:#002b36;stroke-width:0.213588;stroke-linecap:round;stroke-linejoin:round;stroke-dasharray:none;-inkscape-stroke:none;paint-order:stroke markers fill"
         d="m 56.578913,44.825704 a 0.21360863,0.21360863 0 0 0 -0.150993,0.06269 l -2.213004,2.212784 -0.452976,0.453196 a 0.21360863,0.21360863 0 0 0 0,0.301984 l 0.906173,0.906173 a 0.21360863,0.21360863 0 0 0 0.301984,10e-7 l 0.453196,-0.452977 1.15562,-1.15584 1.156281,1.156282 0.453196,0.453196 a 0.21360863,0.21360863 0 0 0 0.301984,0 l 0.906172,-0.906173 a 0.21360863,0.21360863 0 0 0 10e-7,-0.301984 L 58.943571,47.10184 56.729905,44.888394 a 0.21360863,0.21360863 0 0 0 -0.150992,-0.06269 z"
         inkscape:label="arrow" />
      <path
         id="path139"
         style="color:#000000;fill:#002b36;stroke-width:0.213588;stroke-linecap:round;stroke-linejoin:round;stroke-dasharray:none;-inkscape-stroke:none;paint-order:stroke markers fill"
         d="m 47.825177,44.825704 a 0.21360863,0.21360863 0 0 0 -0.150993,0.06269 l -2.213004,2.212784 -0.452976,0.453196 a 0.21360863,0.21360863 0 0 0 0,0.301984 l 0.906173,0.906173 a 0.21360863,0.21360863 0 0 0 0.301984,10e-7 l 0.453196,-0.452977 1.15562,-1.15584 1.15628,1.156282 0.453198,0.453196 a 0.21360863,0.21360863 0 0 0 0.301984,0 L 50.64281,47.85702 a 0.21360863,0.21360863 0 0 0 2e-6,-0.301984 L 50.189836,47.10184 47.976169,44.888394 a 0.21360863,0.21360863 0 0 0 -0.150992,-0.06269 z"
         inkscape:label="arrow" />
      <path
         id="path140"
         style="color:#000000;fill:#002b36;stroke-width:0.213588;stroke-linecap:round;stroke-linejoin:round;stroke-dasharray:none;-inkscape-stroke:none;paint-order:stroke markers fill"
         d="m 69.709515,3.7444536 a 0.21360863,0.21360863 0 0 0 -0.150992,0.062688 L 67.345519,6.0199255 66.892543,6.473122 a 0.21360863,0.21360863 0 0 0 0,0.3019835 l 0.906172,0.9061733 a 0.21360863,0.21360863 0 0 0 0.301985,8e-7 l 0.453196,-0.4529765 1.155619,-1.15584 1.156281,1.1562816 0.453198,0.4531965 a 0.21360863,0.21360863 0 0 0 0.301982,0 l 0.906173,-0.9061733 a 0.21360863,0.21360863 0 0 0 2e-6,-0.3019835 L 72.074173,6.020588 69.860507,3.8071417 a 0.21360863,0.21360863 0 0 0 -0.150992,-0.062688 z"
         inkscape:label="arrow" />
      <path
         id="path141"
         style="color:#000000;fill:#002b36;stroke-width:0.213588;stroke-linecap:round;stroke-linejoin:round;stroke-dasharray:none;-inkscape-stroke:none;paint-order:stroke markers fill"
         d="m 60.955779,3.7444536 a 0.21360863,0.21360863 0 0 0 -0.150992,0.062688 L 58.591783,6.0199255 58.138807,6.473122 a 0.21360863,0.21360863 0 0 0 0,0.3019835 l 0.906172,0.9061733 a 0.21360863,0.21360863 0 0 0 0.301986,8e-7 l 0.453196,-0.4529765 1.155618,-1.15584 1.156282,1.1562816 0.453196,0.4531965 a 0.21360863,0.21360863 0 0 0 0.301984,0 l 0.906173,-0.9061733 a 0.21360863,0.21360863 0 0 0 0,-0.3019835 L 63.320438,6.020588 61.106771,3.8071417 a 0.21360863,0.21360863 0 0 0 -0.150992,-0.062688 z"
         inkscape:label="arrow" />
      <path
         id="path142"
         style="color:#000000;fill:#002b36;stroke-width:0.213588;stroke-linecap:round;stroke-linejoin:round;stroke-dasharray:none;-inkscape-stroke:none;paint-order:stroke markers fill"
         d="m 52.202045,3.7444536 a 0.21360863,0.21360863 0 0 0 -0.150993,0.062688 L 49.838048,6.0199255 49.385072,6.473122 a 0.21360863,0.21360863 0 0 0 0,0.3019835 l 0.906173,0.9061733 a 0.21360863,0.21360863 0 0 0 0.301984,8e-7 l 0.453196,-0.4529765 1.15562,-1.15584 1.156281,1.1562816 0.453196,0.4531965 a 0.21360863,0.21360863 0 0 0 0.301984,0 l 0.906172,-0.9061733 a 0.21360863,0.21360863 0 0 0 10e-7,-0.3019835 L 54.566703,6.020588 52.353037,3.8071417 a 0.21360863,0.21360863 0 0 0 -0.150992,-0.062688 z"
         inkscape:label="arrow" />
      <path
         id="path143"
         style="color:#000000;fill:#002b36;stroke-width:0.213588;stroke-linecap:round;stroke-linejoin:round;stroke-dasharray:none;-inkscape-stroke:none;paint-order:stroke markers fill"
         d="m 43.448309,3.7444536 a 0.21360863,0.21360863 0 0 0 -0.150993,0.062688 L 41.084312,6.0199255 40.631336,6.473122 a 0.21360863,0.21360863 0 0 0 0,0.3019835 l 0.906173,0.9061733 a 0.21360863,0.21360863 0 0 0 0.301984,8e-7 l 0.453196,-0.4529765 1.15562,-1.15584 1.15628,1.1562816 0.453198,0.4531965 a 0.21360863,0.21360863 0 0 0 0.301984,0 l 0.906171,-0.9061733 a 0.21360863,0.21360863 0 0 0 2e-6,-0.3019835 L 45.812968,6.020588 43.599301,3.8071417 a 0.21360863,0.21360863 0 0 0 -0.150992,-0.062688 z"
         inkscape:label="arrow" />
      <path
         d="M 2.9998169,0 C 1.3378252,0 0,1.3378252 0,2.9998169 V 67.000045 c 0,1.661992 1.3378252,2.999817 2.9998169,2.999817 H 78.999829 c 1.661992,0 3.000334,-1.337825 3.000334,-2.999817 h 82.999587 c 0,1.661982 1.33835,2.999817 3.00033,2.999817 h 76.00001 c 1.66199,0 2.99982,-1.337835 2.99982,-2.999817 V 44.999837 H 364 c 1.66199,0 2.99982,-1.337835 2.99982,-2.999817 V 27.999841 c 0,-1.661981 -1.33783,-2.999816 -2.99982,-2.999816 H 246.99991 V 2.9998169 C 246.99991,1.3378352 245.66208,0 244.00009,0 h -76.00001 c -1.66198,0 -3.00033,1.3378352 -3.00033,2.9998169 H 82.000163 C 82.000163,1.3378252 80.661821,0 78.999829,0 Z M 82.000163,22.99963 H 164.99975 V 46.999715 H 82.000163 Z"
         style="fill:#cb4b16;stroke-width:0.327326;stroke-linejoin:bevel;paint-order:stroke markers fill"
         id="path144"
         inkscape:label="bottom piece"
         transform="matrix(1.0447917,0,0,1.0447917,-6.9691985,-76.704703)" />
      <path
         d="M 2.9998169,72.000256 C 1.3378219,72.000256 0,73.338078 0,75.000073 v 63.999707 c 0,1.662 1.3378219,3.00034 2.9998169,3.00034 H 78.999829 c 1.661995,0 3.000334,-1.33834 3.000334,-3.00034 v -21.99969 h 82.999587 v 21.99969 c 0,1.66199 1.33783,3.00034 2.99981,3.00034 h 76.00002 c 1.66198,0 3.00033,-1.33835 3.00033,-3.00034 H 364 c 1.66199,0 2.99982,-1.33783 2.99982,-2.99981 v -14.00018 c 0,-1.66199 -1.33783,-2.99982 -2.99982,-2.99982 H 246.99991 V 94.999886 H 364 c 1.66198,0 2.99982,-1.337838 2.99982,-2.999817 V 77.99989 c 0,-1.661978 -1.33784,-2.999817 -2.99982,-2.999817 H 246.99991 c 0,-1.661981 -1.33835,-2.999817 -3.00033,-2.999817 h -76.00002 c -1.66198,0 -2.99981,1.337836 -2.99981,2.999817 V 96.999764 H 82.000163 V 75.000073 c 0,-1.661995 -1.338339,-2.999817 -3.000334,-2.999817 z"
         style="fill:#b58900;stroke-width:1.9776;stroke-linecap:round;stroke-linejoin:round;paint-order:stroke markers fill"
         id="path145"
         inkscape:label="top piece"
         transform="matrix(1.0447917,0,0,1.0447917,-6.9691985,-76.704703)" />
    </g>
  </g>
</svg>
