<?xml version="1.0" encoding="UTF-8" standalone="no"?>
<!-- Created with Inkscape (http://www.inkscape.org/) -->

<svg
   width="16in"
   height="6in"
   viewBox="0 0 406.4 152.4"
   version="1.1"
   id="svg1"
   xml:space="preserve"
   inkscape:version="1.3.1 (91b66b0783, 2023-11-16)"
   sodipodi:docname="bear-light-switch.svg"
   xmlns:inkscape="http://www.inkscape.org/namespaces/inkscape"
   xmlns:sodipodi="http://sodipodi.sourceforge.net/DTD/sodipodi-0.dtd"
   xmlns="http://www.w3.org/2000/svg"
   xmlns:svg="http://www.w3.org/2000/svg"><sodipodi:namedview
     id="namedview1"
     pagecolor="#ffffff"
     bordercolor="#000000"
     borderopacity="0.25"
     inkscape:showpageshadow="2"
     inkscape:pageopacity="0.0"
     inkscape:pagecheckerboard="0"
     inkscape:deskcolor="#d1d1d1"
     inkscape:document-units="in"
     inkscape:zoom="0.42898109"
     inkscape:cx="970.90527"
     inkscape:cy="544.31304"
     inkscape:current-layer="g44" /><defs
     id="defs1" /><g
     inkscape:label="SHAPES RAW"
     inkscape:groupmode="layer"
     id="layer1"
     style="display:none"><g
       id="g12"
       inkscape:label="ears"
       style="fill:#ffdf7e"
       transform="matrix(1,0,0,-1,12.7,63.365761)"><g
         id="g30"
         transform="translate(-0.08345944)"><path
           style="color:#000000;fill:#96242f;stroke-width:0.9906;stroke-linecap:round;stroke-linejoin:round;stroke-dasharray:none;stroke-dashoffset:134.173;paint-order:stroke fill markers"
           d="m 142.59311,50.414747 c 31.67721,-31.513045 -20.90673,-50.85775275 -35.82758,-36.014228 -14.920862,14.84353 4.15036,67.527274 35.82758,36.014228 z"
           id="path25" /><path
           style="color:#000000;fill:#96242f;stroke-width:0.9906;stroke-linecap:round;stroke-linejoin:round;stroke-dasharray:none;stroke-dashoffset:134.173;paint-order:stroke fill markers"
           d="M 9.9738129,50.414746 C -21.703405,18.901701 30.880536,-0.44300645 45.801391,14.400518 60.722251,29.244048 41.651031,81.927793 9.9738129,50.414746 Z"
           id="path27" /></g><g
         id="g29"
         transform="translate(0.10066794,1)"><path
           id="path26"
           style="color:#000000;fill:#ffdf7e;stroke-width:0.921246;stroke-linecap:round;stroke-linejoin:round;stroke-dasharray:none;stroke-dashoffset:134.173;paint-order:stroke fill markers"
           d="m 131.83715,14.291011 c 2.65307,0.785309 5.19399,1.887453 7.36029,3.243882 4.33259,2.712856 6.98065,6.148622 7.43166,9.977699 0.45102,3.829078 -1.09578,8.991605 -7.83598,15.696875 -6.7402,6.70527 -11.91133,8.223562 -15.73802,7.752654 -3.82668,-0.470906 -7.24824,-3.13724 -9.93855,-7.483873 -2.69031,-4.346633 -4.35673,-10.182927 -4.50464,-15.417293 -0.14791,-5.234367 1.2795,-9.619293 3.42242,-11.751107 2.14292,-2.131811 6.53425,-3.535856 11.76778,-3.360749 2.61676,0.08755 5.38197,0.556602 8.03504,1.341912 z" /><path
           id="path28"
           style="color:#000000;fill:#ffdf7e;stroke-width:0.921246;stroke-linecap:round;stroke-linejoin:round;stroke-dasharray:none;stroke-dashoffset:134.173;paint-order:stroke fill markers"
           d="m 20.361515,14.29101 c -2.653068,0.785309 -5.193993,1.887455 -7.36029,3.243882 -4.332594,2.712857 -6.9806445,6.148622 -7.4316617,9.977698 -0.4510165,3.82908 1.095778,8.991606 7.8359797,15.696876 6.740202,6.705271 11.911335,8.223563 15.738017,7.752655 3.826683,-0.470907 7.248246,-3.13724 9.938555,-7.483873 2.690308,-4.346633 4.356732,-10.182926 4.504644,-15.417293 0.14791,-5.234367 -1.279503,-9.619294 -3.422422,-11.751107 -2.142918,-2.131811 -6.534251,-3.535857 -11.76778,-3.360749 -2.616764,0.08755 -5.381975,0.556602 -8.035042,1.341911 z" /></g></g><path
       id="path6"
       style="fill:#96242f;stroke-width:18.3579;stroke-linecap:round;stroke-linejoin:round;stroke-dashoffset:134.173;paint-order:stroke fill markers"
       d="m 88.899998,146.05 c -123.493508,0 -71.237792,-139.7 0,-139.7 71.237792,0 123.493512,139.7 0,139.7 z"
       sodipodi:nodetypes="zzz"
       inkscape:label="face" /><path
       id="path15"
       style="fill:#ffdf7e;stroke-width:12;stroke-linecap:round;stroke-linejoin:round;stroke-dashoffset:134.173;paint-order:stroke fill markers"
       d="m 88.9,139.23767 c -72.68439,0 -34.236378,-101.41702 -1e-6,-101.41702 34.236381,0 72.684391,101.41702 1e-6,101.41702 z"
       sodipodi:nodetypes="zzz"
       inkscape:label="snout" /><path
       id="path10"
       style="color:#000000;fill:#250657;stroke-linecap:round;stroke-linejoin:round;stroke-dashoffset:134.173;-inkscape-stroke:none;paint-order:stroke fill markers"
       d="m 84.453243,92.75 c 0,0 -0.413948,13.47636 -2.976512,19.16772 -9.216527,20.46944 -6.364546,-11.09788 -14.168128,-11.09752 -2.455069,-1.1e-4 -4.445323,1.99014 -4.445207,4.44521 0,7.30202 1.350423,12.83877 4.237985,16.76797 2.887561,3.9292 8.167216,5.73479 12.519649,4.15582 3.947742,-1.43215 6.994014,-4.71636 9.279537,-9.20668 2.285217,4.49027 5.32924,7.77454 9.276953,9.20668 4.35243,1.57897 9.63416,-0.22662 12.52172,-4.15582 2.88756,-3.9292 4.23643,-9.46595 4.23643,-16.76797 1.2e-4,-2.45507 -1.99014,-4.44533 -4.44521,-4.44521 -7.8013,0.002 -4.94983,31.56631 -14.166057,11.09752 C 93.76126,106.22508 93.34784,92.75 93.34784,92.75 Z"
       inkscape:label="mouth"
       sodipodi:nodetypes="csccsscssccscc" /><g
       id="g10"
       inkscape:label="eyes"
       transform="translate(12.155729,13.742868)"><path
         style="color:#000000;fill:#250657;stroke-linecap:round;stroke-linejoin:round;stroke-dashoffset:134.173;-inkscape-stroke:none;paint-order:stroke fill markers"
         d="m 101.16602,37.849609 c -2.054654,1.344367 -2.630098,2.600016 -1.285161,4.654297 4.002621,6.113599 8.742201,10.269531 14.587891,10.300781 5.84569,0.03125 10.55157,-4.165654 14.2793,-10.175781 1.29296,-2.086232 0.65031,-3.325579 -1.43555,-4.61914 -5.92685,-3.675123 -7.82949,7.430841 -12.79492,7.404296 -5.11778,-0.02745 -7.47781,-11.410561 -13.35156,-7.564453 z"
         id="path13"
         inkscape:label="right"
         sodipodi:nodetypes="ccsccsc" /><path
         style="color:#000000;fill:#250657;stroke-linecap:round;stroke-linejoin:round;stroke-dashoffset:134.173;-inkscape-stroke:none;paint-order:stroke fill markers"
         d="m 38.470703,45.414062 c -4.963632,0.02662 -6.867671,-11.082732 -12.794922,-7.404296 -2.085858,1.293562 -2.728508,2.532909 -1.435547,4.61914 3.72773,6.010127 8.433604,10.207032 14.279297,10.175781 5.845694,-0.03125 10.585269,-4.187182 14.587891,-10.300781 1.345311,-2.053772 0.770771,-3.309294 -1.283203,-4.654297 -5.921258,-3.878294 -8.08677,7.536301 -13.353516,7.564453 z"
         id="path14"
         inkscape:label="left"
         sodipodi:nodetypes="cccsccc" /></g><circle
       style="display:inline;opacity:1;fill:#f2b6bc;stroke-width:12;stroke-linecap:round;stroke-linejoin:round;stroke-dashoffset:134.173;paint-order:stroke fill markers"
       id="path5"
       cx="88.900002"
       cy="76.199997"
       r="19.049999"
       inkscape:label="nose" /><g
       id="g2"
       transform="matrix(1.3050692,0,0,1.3050692,-72.728552,-53.99736)"
       inkscape:label="plate template"
       sodipodi:insensitive="true"
       style="display:none;opacity:0.488"><rect
         style="fill:#250657;stroke-width:12;stroke-linecap:round;stroke-linejoin:round;stroke-dashoffset:134.173;paint-order:stroke fill markers"
         id="rect2"
         width="52.888161"
         height="87.581566"
         x="97.402649"
         y="55.972019" /><rect
         style="fill:#f0b6d3;stroke-width:11.176;stroke-linecap:round;stroke-linejoin:round;stroke-dashoffset:134.173;paint-order:stroke fill markers"
         id="rect1"
         width="7.2984633"
         height="19.46257"
         x="120.19749"
         y="90.031517" /><g
         id="g4"
         transform="translate(15.603329,-0.01713562)"><circle
           style="fill:#dd5498;stroke-width:12;stroke-linecap:round;stroke-linejoin:round;stroke-dashoffset:134.173;paint-order:stroke fill markers"
           id="circle1"
           cx="108.2434"
           cy="122.89174"
           r="2.4328213" /><circle
           style="fill:#f0b6d3;stroke-width:12;stroke-linecap:round;stroke-linejoin:round;stroke-dashoffset:134.173;paint-order:stroke fill markers"
           id="circle3"
           cx="108.2434"
           cy="122.89174"
           r="1.8246158" /></g><g
         id="g3"
         transform="translate(15.603329,0.01713562)"><circle
           style="fill:#dd5498;stroke-width:12;stroke-linecap:round;stroke-linejoin:round;stroke-dashoffset:134.173;paint-order:stroke fill markers"
           id="path1"
           cx="108.2434"
           cy="76.633865"
           r="2.4328213" /><circle
           style="fill:#f0b6d3;stroke-width:12;stroke-linecap:round;stroke-linejoin:round;stroke-dashoffset:134.173;paint-order:stroke fill markers"
           id="circle2"
           cx="108.2434"
           cy="76.633865"
           r="1.8246158" /></g></g></g><g
     inkscape:label="LASER SHAPES"
     inkscape:groupmode="layer"
     id="g44"><path
       id="path62"
       style="color:#000000;fill:#af83f8;stroke-linecap:round;stroke-linejoin:round;stroke-dashoffset:134.173;-inkscape-stroke:none;paint-order:stroke fill markers"
       d="m 266.92251,0.00284313 c -4.44709,0.0914 -10.02417,2.42502997 -16.58038,8.94724987 -8.03196,7.99033 -9.79667,14.39573 -8.78293,19.40605 1.01374,5.01032 5.15013,9.34261 10.912,12.30468 a 3.1753175,3.1753175 0 0 1 1.33377,4.34599 c -10.83896,19.83973 -14.11392,42.94441 -5.75986,60.661917 8.35407,17.71756 28.26779,30.95522 66.36753,30.95522 38.09974,0 58.01292,-13.23766 66.36702,-30.95522 8.35406,-17.717507 5.07703,-40.822187 -5.76193,-60.661917 a 3.1753175,3.1753175 0 0 1 1.33636,-4.34599 c 5.76184,-2.96207 9.89824,-7.29436 10.91199,-12.30468 1.01374,-5.01032 -0.75149,-11.41572 -8.78344,-19.40605 -7.76819,-7.7279399 -14.04473,-9.58700984 -18.94923,-8.76948987 -4.90454,0.81753 -9.12446,4.55554997 -12.14448,9.95287987 a 3.1753175,3.1753175 0 0 1 -4.35116,1.20355 c -8.88892,-5.0996799 -18.57774,-8.0625599 -28.62513,-8.0625599 -10.04739,0 -19.73621,2.96288 -28.62513,8.0625599 a 3.1753175,3.1753175 0 0 1 -4.35167,-1.20355 C 277.94276,3.8906631 273.00982,-0.12225687 266.92251,0.00284313 Z M 314.41213,37.405203 a 2.3812499,2.3812499 0 0 1 2.38125,2.38125 2.3812499,2.3812499 0 0 1 -2.38125,2.38125 2.3812499,2.3812499 0 0 1 -2.38125,-2.38125 2.3812499,2.3812499 0 0 1 2.38125,-2.38125 z m -4.7625,19.84375 h 9.525 v 25.4 h -9.525 z m 4.7625,40.48125 a 2.3812499,2.3812499 0 0 1 2.38125,2.381247 2.3812499,2.3812499 0 0 1 -2.38125,2.38125 2.3812499,2.3812499 0 0 1 -2.38125,-2.38125 2.3812499,2.3812499 0 0 1 2.38125,-2.381247 z"
       inkscape:label="base" /><path
       d="m 49.26708,117.79534 c 0.436526,0.21913 0.911299,0.4135 1.414428,0.5877 0.166318,0.0576 0.353219,0.10001 0.527213,0.15203 0.354639,0.10604 0.715749,0.2074 1.10352,0.28839 0.221814,0.0463 0.461264,0.0786 0.694356,0.11607 0.378699,0.0608 0.767317,0.11329 1.176821,0.14886 0.263265,0.0229 0.537851,0.036 0.814301,0.0477 0.417676,0.0177 0.852136,0.0209 1.300922,0.0115 0.303882,-0.006 0.611559,-0.0166 0.930177,-0.0362 0.474959,-0.0292 0.97554,-0.0819 1.484281,-0.14201 0.328671,-0.0389 0.65163,-0.0723 0.994836,-0.12478 0.57993,-0.0887 1.196563,-0.2122 1.819296,-0.34195 0.314391,-0.0655 0.612319,-0.11555 0.93792,-0.19203 0.968354,-0.22743 1.977932,-0.49502 3.049234,-0.82539 9.085197,-2.80168 12.85503,-6.65274 14.236394,-10.25232 1.381364,-3.59957 0.634866,-7.87265 -1.93916,-12.289109 -0.358637,-0.61545 -0.759256,-1.22506 -1.183381,-1.82877 0,0 -4.53e-4,-2.3e-4 -4.53e-4,-2.3e-4 -10.480089,6.308639 -22.198589,10.701379 -33.978467,12.385939 0.0055,0.0929 0.0024,0.18967 0.0089,0.28194 0.360374,5.09911 2.149211,9.05107 5.317945,11.2475 0.396095,0.27456 0.825389,0.53139 1.290911,0.76508 z"
       style="fill:#ffdf7e;stroke-width:0.921246;stroke-linecap:round;stroke-linejoin:round;stroke-dashoffset:134.173;paint-order:stroke fill markers"
       id="path51"
       inkscape:label="left ear" /><path
       d="m 110.09568,110.65491 c 0.0818,-0.5144 0.12389,-1.0129 0.13211,-1.49477 0.0657,-3.85497 -2.09947,-7.61396 -6.02982,-10.88247 -0.0711,-0.0592 -0.15157,-0.11316 -0.22375,-0.17178 -8.242757,8.58264 -18.648677,15.53481 -29.887835,20.3633 0.242655,0.69673 0.503904,1.37831 0.794324,2.02873 2.084109,4.66766 5.118353,7.76767 8.847514,8.74667 3.72916,0.979 9.05647,0.16522 16.633707,-5.57719 0.89347,-0.67713 1.69997,-1.34078 2.44978,-1.99438 0.25213,-0.21979 0.46664,-0.4325 0.70331,-0.64957 0.4688,-0.42997 0.92893,-0.85863 1.33943,-1.27777 0.24294,-0.24805 0.45853,-0.49082 0.68192,-0.73502 0.34576,-0.37802 0.68068,-0.75377 0.98155,-1.12241 0.20184,-0.24731 0.38968,-0.49121 0.57222,-0.73425 0.26955,-0.35894 0.52049,-0.71361 0.74988,-1.06309 0.15184,-0.23133 0.30139,-0.462 0.43646,-0.68912 0.21011,-0.3533 0.39429,-0.69951 0.56593,-1.04249 0.10564,-0.21112 0.21912,-0.42443 0.31097,-0.63159 0.16055,-0.36214 0.28897,-0.71452 0.40984,-1.0644 0.0593,-0.17166 0.13392,-0.34818 0.18423,-0.51684 0.15217,-0.51023 0.27146,-1.00918 0.34822,-1.49156 z"
       style="fill:#ffdf7e;stroke-width:0.921246;stroke-linecap:round;stroke-linejoin:round;stroke-dashoffset:134.173;paint-order:stroke fill markers"
       id="path50"
       inkscape:label="right ear" /><path
       id="path52"
       style="fill:#96242f;stroke-width:0.9906;stroke-linecap:round;stroke-linejoin:round;stroke-dashoffset:134.173;paint-order:stroke fill markers"
       inkscape:label="head"
       d="m 28.694365,0.00268651 c -0.7402,0.01521 -1.49794,0.08971 -2.26756,0.20774 -0.24573,0.03768 -0.49911,0.10541 -0.74776,0.153995 -0.52939,0.103445 -1.06164,0.216744 -1.60404,0.371037 -0.30715,0.08739 -0.62048,0.200706 -0.93172,0.30489099 -0.50107,0.167723 -1.00526,0.348745 -1.51671,0.561206 -0.33313,0.138395 -0.66973,0.29324 -1.00717,0.451135 -0.50526,0.236414 -1.01542,0.496453 -1.53014,0.777731 -0.34796,0.190158 -0.69684,0.385159 -1.04903,0.596346 -0.52964,0.317584 -1.06607,0.6708 -1.60507,1.037146 -0.34143,0.232065 -0.68119,0.455346 -1.0263,0.70745 -0.59825,0.437036 -1.20585,0.925438 -1.81487,1.424203 -0.2965,0.242826 -0.58881,0.462575 -0.8878,0.720369 -0.91143,0.785812 -1.83236,1.628938 -2.7662356,2.557983 -1.02788,1.0225485 -1.95871,2.0310955 -2.81327,3.0272065 -0.28163,0.328302 -0.50863,0.647223 -0.77204,0.97255 -0.53564,0.6615 -1.07264,1.323646 -1.53479,1.97249 -0.27422,0.385006 -0.49663,0.760583 -0.74569,1.141015 -0.3768,0.575562 -0.75883,1.151892 -1.07953,1.716691 -0.22615,0.398251 -0.40867,0.787521 -0.60771,1.18029 -0.27051,0.533902 -0.54201,1.068125 -0.76378,1.591634 -0.16767,0.395702 -0.30066,0.783427 -0.44131,1.173055 -0.18246001,0.505693 -0.36044001,1.010642 -0.49868001,1.505852 -0.10661,0.381632 -0.18756,0.756442 -0.26872,1.131713 -0.10617,0.491494 -0.20176,0.980055 -0.26562,1.460376 -0.0479,0.359814 -0.0784,0.714739 -0.10335,1.068152 -0.0336,0.478387 -0.051,0.952123 -0.0439,1.418518 0.005,0.338351 0.0198,0.673709 0.0455,1.005624 0.0365,0.46847 0.0938,0.930073 0.17002,1.385445 0.0516,0.309395 0.10641,0.617642 0.1757,0.920874 0.10646,0.464816 0.23863,0.919912 0.38499,1.369942 0.0892,0.274839 0.17503,0.550883 0.27853001,0.820105 0.1807,0.469215 0.39168,0.925887 0.61392,1.377694 0.11374,0.231563 0.21946,0.466589 0.34365,0.693497 0.266,0.485372 0.56494,0.955389 0.87643,1.419035 0.11775,0.175474 0.22434,0.356342 0.3483,0.52865 0.37753,0.524199 0.79032,1.029618 1.22214,1.523938 0.0864,0.09895 0.16273,0.203538 0.25115,0.301274 2.18451,2.412361 4.98798,4.454691 8.1292156,6.071464 -22.4070486,41.01485 -14.2957356,96.321777 63.40853,96.321777 77.704275,0 85.815605,-55.306927 63.408535,-96.321777 3.14126,-1.616777 5.94471,-3.659091 8.12922,-6.071464 0.0884,-0.09774 0.1648,-0.20232 0.25115,-0.301274 0.43182,-0.494322 0.84461,-0.999736 1.22215,-1.523938 0.12396,-0.172309 0.23054,-0.353175 0.3483,-0.52865 0.31149,-0.463649 0.61043,-0.933661 0.87644,-1.419035 0.12417,-0.226909 0.22989,-0.461933 0.34364,-0.693497 0.22224,-0.451809 0.43321,-0.908477 0.61391,-1.377694 0.10351,-0.269223 0.18933,-0.545265 0.27854,-0.820105 0.14635,-0.450033 0.27853,-0.905123 0.38499,-1.369942 0.0693,-0.303233 0.12407,-0.611478 0.1757,-0.920874 0.0762,-0.455375 0.13354,-0.916973 0.17001,-1.385445 0.0257,-0.331917 0.0405,-0.667272 0.0455,-1.005624 0.007,-0.466397 -0.0103,-0.940129 -0.0439,-1.418518 -0.025,-0.353415 -0.0554,-0.708337 -0.10335,-1.068152 -0.0639,-0.480323 -0.15944,-0.96888 -0.26562,-1.460376 -0.0812,-0.375273 -0.16211,-0.75008 -0.26871,-1.131713 -0.13825,-0.495212 -0.31622,-1.000157 -0.49868,-1.505852 -0.14065,-0.38963 -0.27364,-0.777351 -0.44132,-1.173055 -0.22177,-0.523511 -0.49327,-1.05773 -0.76378,-1.591634 -0.19912,-0.392977 -0.38194,-0.782344 -0.60823,-1.180806 -0.31891,-0.561624 -0.69894,-1.135126 -1.07332,-1.70739 -0.25146,-0.384358 -0.47629,-0.763871 -0.75344,-1.152901 -0.4597,-0.645281 -0.99415,-1.303322 -1.52652,-1.96112 -0.26546,-0.328012 -0.49426,-0.649784 -0.77825,-0.980819 -0.85456,-0.996114 -1.78538,-2.004656 -2.81326,-3.0272065 -0.94785,-0.942936 -1.88288,-1.800787 -2.80758,-2.596223 -0.30843,-0.265312 -0.60943,-0.486499 -0.91519,-0.735873 -0.60853,-0.496309 -1.21663,-0.989527 -1.81436,-1.424202 -0.36278,-0.263794 -0.71825,-0.48907 -1.07694,-0.730705 -0.53202,-0.358441 -1.0636,-0.713833 -1.58647,-1.024744 -0.37308,-0.221795 -0.74018,-0.414705 -1.10845,-0.612882 -0.4948,-0.266331 -0.98782,-0.523966 -1.47382,-0.748792 -0.375,-0.17338 -0.74554,-0.327687 -1.11517,-0.476973 -0.46316,-0.187197 -0.92261,-0.359629 -1.37718,-0.510047 -0.3751,-0.12396299 -0.74761,-0.23786899 -1.11673,-0.33744699 -0.43433,-0.11737 -0.86342,-0.213577 -1.28933,-0.298173 -0.37145,-0.07356 -0.74251,-0.145501 -1.10742,-0.19482 -0.40436,-0.05491 -0.80118,-0.08401 -1.19734,-0.110071 -0.37089,-0.02411 -0.74334,-0.05365 -1.10691,-0.05323 -0.59605,2e-4 -1.18466,0.0255 -1.76062,0.08888 -0.19123,0.02125 -0.37895,0.05316 -0.56792,0.08113 -0.5068,0.07448 -1.00576,0.171787 -1.49604,0.293006 -0.23997,0.05963 -0.47771,0.124914 -0.71365,0.195337 -0.3762,0.11181 -0.74369,0.24513 -1.10949,0.38343899 -0.63571,0.241235 -1.25535,0.521438 -1.8588,0.838192 -0.11198,0.05861 -0.22763,0.108922 -0.33848,0.170015 -2.98011,1.646973 -5.55227,4.178234 -7.64915,7.240385 -0.013,0.01901 -0.0258,0.03831 -0.0388,0.05736 -0.52221,0.7663785 -1.0163,1.5640695 -1.47846,2.3900355 C 97.161755,6.4258595 86.922205,3.2727625 76.249645,3.2727625 c -10.67255,0 -20.91212,3.153098 -30.20539,8.4847535 -0.47428,-0.847629 -0.98207,-1.665527 -1.51928,-2.4504965 -0.0141,-0.02054 -0.0277,-0.04152 -0.0419,-0.06201 -1.61513,-2.347498 -3.51018,-4.379944 -5.65392,-5.939691 -0.11003,-0.07976 -0.2261,-0.147557 -0.33745,-0.224792 -0.56613,-0.394141 -1.14964,-0.753958 -1.74924,-1.079004 -0.41392,-0.223515 -0.82946,-0.443665 -1.25884,-0.632003 -0.1145,-0.05041 -0.22858,-0.101531 -0.34417,-0.149345 -0.54782,-0.22574699 -1.10976,-0.41608599 -1.68155,-0.58135999 -0.14226,-0.04128 -0.28363,-0.08458 -0.42736,-0.121956 -0.61132,-0.158327 -1.23557,-0.281851 -1.87276,-0.366903 -0.13034,-0.01746 -0.26287,-0.02862 -0.39429,-0.04289 -0.67729,-0.07326 -1.36418,-0.118873 -2.06912,-0.104387 z m -0.89917,8.24652499 c 0.52078,-0.0096 1.02028,0.01814 1.49861,0.077 3.82663,0.470902 7.24814,3.1377255 9.93842,7.4842985 0.0487,0.07866 0.091,0.165841 0.13901,0.245463 -9.64517,6.969303 -17.97687,16.307831 -24.321,26.766325 h -5.2e-4 c -0.65623,-0.337167 -1.29435,-0.690649 -1.89807,-1.068669 -1.6247,-1.017307 -3.012806,-2.136086 -4.1366956,-3.339331 -0.74927,-0.802163 -1.38107,-1.642132 -1.88774,-2.514058 -0.25334,-0.435964 -0.47539,-0.879714 -0.66508,-1.331185 -0.37937,-0.902945 -0.62932,-1.835853 -0.74207,-2.793111 -0.0564,-0.47863 -0.0815,-0.977912 -0.0692,-1.498617 0.0246,-1.041416 0.19892,-2.168103 0.57309,-3.382739 0.93536,-3.036548 3.11929,-6.624625 7.3318456,-10.815361 0.79493,-0.7908 1.56399,-1.496946 2.31562,-2.148706 0.25284,-0.219236 0.49306,-0.401866 0.74104,-0.606164 0.49109,-0.404568 0.97934,-0.800451 1.4516,-1.148767 0.27965,-0.20626 0.54957,-0.385691 0.82268,-0.573092 0.42265,-0.290025 0.84086,-0.569145 1.24799,-0.815971 0.27321,-0.165634 0.54039,-0.317492 0.80667,-0.464571 0.39324,-0.21722 0.77877,-0.4160955 1.15703,-0.5947965 0.25039,-0.118286 0.49923,-0.234156 0.74311,-0.336413 0.37929,-0.159042 0.74732,-0.293132 1.11105,-0.415479 0.22405,-0.07537 0.45049,-0.157917 0.66869,-0.220141 0.38109,-0.108691 0.74763,-0.1868 1.11104,-0.257866 0.17842,-0.03489 0.36324,-0.0842 0.53744,-0.110587 0.5265,-0.07978 1.03706,-0.128498 1.52548,-0.13746 z m 96.908815,0 c 0.48842,0.009 0.99897,0.05768 1.52549,0.13746 0.17417,0.02639 0.35901,0.0757 0.53743,0.110587 0.36341,0.07107 0.72995,0.149174 1.11104,0.257866 0.2182,0.06222 0.44464,0.14477 0.6687,0.220141 0.36372,0.122348 0.73175,0.256436 1.11104,0.415479 0.24388,0.102258 0.49272,0.218126 0.74311,0.336413 0.37827,0.178702 0.76379,0.3775755 1.15703,0.5947965 0.26628,0.147079 0.53347,0.298937 0.80667,0.464571 0.40713,0.246827 0.82534,0.525945 1.24799,0.815971 0.27311,0.187402 0.54303,0.366831 0.82269,0.573092 0.47226,0.348317 0.9605,0.744198 1.45159,1.148767 0.24799,0.204299 0.4882,0.386928 0.74104,0.606164 0.75164,0.651761 1.52069,1.357905 2.31562,2.148706 4.21256,4.190745 6.39648,7.778798 7.33185,10.815361 0.37418,1.214641 0.5485,2.341319 0.57309,3.382739 0.0123,0.520707 -0.0129,1.019987 -0.0692,1.498617 -0.11276,0.957262 -0.3627,1.890162 -0.74208,2.793111 -0.18968,0.451473 -0.41174,0.895219 -0.66507,1.331185 -0.50668,0.871929 -1.13847,1.711892 -1.88774,2.514058 -1.12391,1.203251 -2.512,2.322023 -4.1367,3.339331 -0.60373,0.378022 -1.24184,0.731501 -1.89808,1.068669 h -5e-4 c -6.34424,-10.45862 -14.67573,-19.796939 -24.321,-26.766325 0.048,-0.07962 0.0903,-0.166803 0.139,-0.245463 2.69029,-4.346581 6.11177,-7.0133965 9.93841,-7.4842985 0.47833,-0.05886 0.97784,-0.08655 1.49862,-0.077 z M 76.249595,34.743203 c 8.12014,0 16.4609,5.743497 23.51588,14.447696 0.259935,-0.225511 0.560015,-0.449104 0.905895,-0.675411 5.87374,-3.846104 8.23386,7.536947 13.35163,7.564397 4.96543,0.02654 6.86773,-11.079836 12.79457,-7.404716 2.08586,1.293559 2.72853,2.533126 1.43557,4.619356 -3.72772,6.010121 -8.43354,10.206856 -14.27923,10.175606 -2.10419,-0.01125 -4.06409,-0.559371 -5.89886,-1.538407 15.69658,30.040933 16.15671,74.228556 -31.825455,74.228556 -48.20539,0 -47.51053,-44.593363 -31.5991,-74.640417 -2.04136,1.238133 -4.24108,1.937522 -6.62544,1.950268 -5.84568,0.03125 -10.55202,-4.165491 -14.27974,-10.175606 -1.29296,-2.086227 -0.65029,-3.325798 1.43557,-4.619356 5.92724,-3.67843 7.83146,7.431336 12.79508,7.404716 5.26674,-0.02815 7.43246,-11.442683 13.35371,-7.564397 0.47959,0.314049 0.87486,0.62337 1.18752,0.938961 7.09988,-8.854258 15.52957,-14.711246 23.7324,-14.711246 z" /><path
       id="path54"
       style="display:inline;fill:#ffdf7e;stroke-width:12;stroke-linecap:round;stroke-linejoin:round;stroke-dashoffset:134.173;paint-order:stroke fill markers"
       inkscape:label="snout"
       d="m 197.52773,118.29467 c -34.23624,0 -72.6841,-101.417081 0,-101.417081 72.68411,0 34.23626,101.417081 0,101.417081 z m 0,-5.04207 a 3.1750001,3.1750001 0 0 0 3.175,-3.175 3.1750001,3.1750001 0 0 0 -3.175,-3.175 3.1750001,3.1750001 0 0 0 -3.175,3.175 3.1750001,3.1750001 0 0 0 3.175,3.175 z m -4.7625,-20.6375 h 9.525 V 67.21509 c 0,0 0.0923,-15.935851 2.36213,-22.259621 0.0982,-0.25866 0.19442,-0.52423 0.29972,-0.7581 0.57601,-1.27929 1.10487,-2.35518 1.59215,-3.24838 0.24364,-0.4466 0.47668,-0.84788 0.70022,-1.20561 0.67061,-1.07318 1.25423,-1.75769 1.76888,-2.12287 0.17155,-0.12172 0.33549,-0.2077 0.49248,-0.26096 0.15699,-0.0533 0.30679,-0.0737 0.45062,-0.0636 0.14382,0.0101 0.28137,0.0505 0.41341,0.11885 0.13204,0.0684 0.25869,0.16426 0.38034,0.28577 0.24329,0.24302 0.46744,0.58732 0.67748,1.01234 0.21003,0.42503 0.40589,0.93085 0.59376,1.49707 0.75146,2.26487 1.37019,5.4964 2.21072,8.3876 0.21013,0.7228 0.43404,1.42421 0.67747,2.08411 0.24344,0.6599 0.50644,1.27781 0.79427,1.834 0.43175,0.83427 0.91925,1.52927 1.48208,2.01538 0.18761,0.16204 0.38365,0.30078 0.5886,0.41393 0.20495,0.11315 0.41917,0.20077 0.64285,0.25993 0.22368,0.0592 0.45694,0.0899 0.70073,0.0899 0.30689,1e-5 0.60669,-0.0312 0.89607,-0.0904 0.28938,-0.0592 0.56815,-0.14643 0.83406,-0.2589 0.26591,-0.11246 0.51902,-0.25002 0.75551,-0.40979 0.23649,-0.15977 0.45673,-0.34149 0.65784,-0.5426 0.20111,-0.20111 0.38284,-0.42135 0.5426,-0.65784 0.15977,-0.23649 0.29733,-0.4896 0.4098,-0.75551 0.11246,-0.26592 0.19969,-0.54468 0.2589,-0.83406 0.0592,-0.28938 0.0905,-0.58919 0.0904,-0.89607 0,-0.91275 -0.021,-1.79776 -0.0636,-2.65565 -0.0425,-0.85789 -0.10645,-1.6887 -0.19224,-2.49236 -0.0858,-0.80347 -0.19374,-1.58021 -0.32349,-2.33009 -3e-5,-1.6e-4 3e-5,-3.5e-4 0,-5.1e-4 -0.1298,-0.75003 -0.28176,-1.47339 -0.45631,-2.17041 -0.17454,-0.69703 -0.37166,-1.36765 -0.59169,-2.01228 -0.22003,-0.64463 -0.4629,-1.26285 -0.72916,-1.8557 -0.26625,-0.59286 -0.55545,-1.16001 -0.86868,-1.70171 -0.31323,-0.54169 -0.65036,-1.05811 -1.0113,-1.54926 -0.36095,-0.49115 -0.75929,-0.94917 -1.18856,-1.37149 -0.42927,-0.42232 -0.88946,-0.80898 -1.37408,-1.15755 -0.48461,-0.34858 -0.99386,-0.65925 -1.52084,-0.92914 -0.52697,-0.2699 -1.07145,-0.49894 -1.6278,-0.68523 -0.55636,-0.1863 -1.1243,-0.3296 -1.69706,-0.42737 -0.57275,-0.0978 -1.15034,-0.1502 -1.72651,-0.15451 -0.57617,-0.004 -1.15112,0.0393 -1.71772,0.13332 -0.56661,0.0941 -1.1251,0.23878 -1.66915,0.43615 -0.49346,0.17902 -0.97265,0.38707 -1.43816,0.6227 -0.4655,0.23564 -0.91735,0.49886 -1.35547,0.78859 -0.43811,0.28972 -0.86253,0.60593 -1.27382,0.94723 -0.41129,0.34129 -0.80922,0.70778 -1.19425,1.09812 -0.38503,0.39034 -0.75739,0.8044 -1.11672,1.24127 -0.35934,0.43686 -0.70604,0.89631 -1.04025,1.37717 -0.33421,0.48086 -0.65567,0.98301 -0.96532,1.50534 -0.30964,0.52233 -0.60731,1.06497 -0.89296,1.62626 -0.57138,-1.12258 -1.19013,-2.16987 -1.85881,-3.1316 -0.33433,-0.48086 -0.68128,-0.94031 -1.04076,-1.37717 -0.35948,-0.43686 -0.73155,-0.85093 -1.11673,-1.24127 -0.38518,-0.39034 -0.78333,-0.75683 -1.19476,-1.09812 -0.41142,-0.3413 -0.83611,-0.65751 -1.27434,-0.94723 -0.43822,-0.28973 -0.8899,-0.55295 -1.35547,-0.78859 -0.46557,-0.23563 -0.94521,-0.44368 -1.43867,-0.6227 -0.54405,-0.19737 -1.1026,-0.34208 -1.66915,-0.43615 -0.56655,-0.0941 -1.14114,-0.13763 -1.71721,-0.13332 -0.57607,0.004 -1.15387,0.0567 -1.72651,0.15451 -0.57263,0.0978 -1.14031,0.24107 -1.69654,0.42737 -0.55622,0.18629 -1.10095,0.41533 -1.6278,0.68523 -0.52686,0.26989 -1.0358,0.58056 -1.52032,0.92914 -0.48452,0.34857 -0.94435,0.73523 -1.37356,1.15755 -0.42922,0.42232 -0.82762,0.88034 -1.18856,1.37149 -0.36095,0.49115 -0.69803,1.00757 -1.01131,1.54926 -0.31327,0.5417 -0.60286,1.10885 -0.8692,1.70171 -0.26633,0.59285 -0.50903,1.21107 -0.72915,1.8557 -0.22012,0.64463 -0.41757,1.31525 -0.59221,2.01228 -0.17464,0.69702 -0.32642,1.42038 -0.45631,2.17041 -2e-5,1.6e-4 3e-5,3.5e-4 0,5.1e-4 -0.12984,0.74988 -0.23765,1.52662 -0.32349,2.33009 -0.0859,0.80366 -0.15019,1.63447 -0.19275,2.49236 -0.0426,0.85789 -0.0636,1.7429 -0.0636,2.65565 -2e-5,0.30688 0.0312,0.60669 0.0904,0.89607 0.0592,0.28938 0.14643,0.56814 0.2589,0.83406 0.11246,0.26591 0.25002,0.51902 0.40979,0.75551 0.15977,0.23649 0.34149,0.45673 0.5426,0.65784 0.20111,0.20111 0.42135,0.38283 0.65784,0.5426 0.23649,0.15977 0.4896,0.29733 0.75551,0.40979 0.26592,0.11247 0.54468,0.1997 0.83406,0.2589 0.28938,0.0592 0.58919,0.0905 0.89607,0.0904 0.24386,1e-5 0.47751,-0.0308 0.70125,-0.0899 0.22374,-0.0591 0.43784,-0.14632 0.64285,-0.25942 0.20502,-0.11309 0.40093,-0.25193 0.5886,-0.41392 0.563,-0.48598 1.05072,-1.18065 1.48259,-2.01487 0.28792,-0.55614 0.55129,-1.17411 0.79479,-1.83399 0.2435,-0.65989 0.46729,-1.36182 0.67748,-2.08463 0.84075,-2.89123 1.45919,-6.12253 2.21071,-8.3876 0.18789,-0.56627 0.38424,-1.07199 0.59428,-1.49707 0.21005,-0.42508 0.43418,-0.76928 0.67748,-1.01234 0.12165,-0.12153 0.24778,-0.21791 0.37982,-0.28629 0.13205,-0.0684 0.26959,-0.10874 0.41341,-0.11885 0.14383,-0.0101 0.29414,0.0103 0.45114,0.0636 0.157,0.0532 0.32092,0.13925 0.49248,0.26096 0.68621,0.48686 1.49451,1.54206 2.4691,3.32848 0.48729,0.89321 1.01612,1.96905 1.59215,3.24838 0.10542,0.23414 0.20197,0.50012 0.30024,0.75913 2.26898,6.32356 2.36065,22.258591 2.36065,22.258591 z" /><path
       id="path53"
       style="display:inline;fill:#250657;stroke-linecap:round;stroke-linejoin:round;stroke-dashoffset:134.173;paint-order:stroke fill markers"
       inkscape:label="mouth"
       d="m 71.359001,44.360974 c 0,0 -0.0983,17.32636 -2.66082,23.01772 -9.21651,20.4694 -6.36456,-11.09788 -14.16813,-11.09752 -2.45506,-1.1e-4 -4.44532,1.99014 -4.4452,4.44521 0,7.302 1.35042,12.83877 4.23798,16.76797 2.88756,3.92918 8.16722,5.73479 12.51965,4.15582 3.94773,-1.43215 6.99402,-4.71636 9.27954,-9.20668 2.28521,4.49027 5.32924,7.77454 9.27695,9.20668 4.35243,1.57897 9.63416,-0.22664 12.52172,-4.15582 2.887539,-3.9292 4.236429,-9.46597 4.236429,-16.76797 1.2e-4,-2.45507 -1.99014,-4.44533 -4.445209,-4.44521 -7.80128,0.002 -4.94985,31.56627 -14.16606,11.09752 -2.56313,-5.69264 -2.66185,-23.01772 -2.66185,-23.01772 z m 4.7625,14.2875 c 1.7535,0 3.175,1.4215 3.175,3.175 0,1.7535 -1.4215,3.175 -3.175,3.175 -1.7535,0 -3.175,-1.4215 -3.175,-3.175 0,-1.7535 1.4215,-3.175 3.175,-3.175 z"
       sodipodi:nodetypes="ccccsscssccsccsssss" /><path
       style="color:#000000;fill:#250657;stroke-linecap:round;stroke-linejoin:round;stroke-dashoffset:134.173;-inkscape-stroke:none;paint-order:stroke fill markers"
       d="m 45.775391,77.51596 c -2.394874,0.541792 -3.372749,1.517265 -2.830291,3.911982 1.614409,7.126763 4.603305,12.676711 10.069688,14.748361 5.4664,2.071607 11.342018,-0.216635 16.93465,-4.545616 1.940367,-1.503023 1.77122,-2.8888 0.268753,-4.829599 -4.269332,-5.514242 -9.932272,4.227088 -14.575513,2.467398 -4.78569,-1.813724 -3.01994,-13.304087 -9.867287,-11.752526 z"
       id="path55"
       inkscape:label="right eye"
       sodipodi:nodetypes="ccsccsc" /><path
       style="color:#000000;fill:#250657;stroke-linecap:round;stroke-linejoin:round;stroke-dashoffset:134.173;-inkscape-stroke:none;paint-order:stroke fill markers"
       d="m 96.651022,88.918475 c -4.476733,2.144108 -10.943354,-7.087652 -14.73162,-1.229986 -1.333523,2.06054 -1.385256,3.455642 0.6749,4.789756 5.937635,3.842154 11.985247,5.627015 17.257548,3.101964 5.27234,-2.525022 7.78274,-8.307201 8.79066,-15.544689 0.33922,-2.431616 -0.71654,-3.321465 -3.1482,-3.660321 -7.01047,-0.977656 -4.09314,10.268296 -8.843288,12.543276 z"
       id="path56"
       inkscape:label="left eye"
       sodipodi:nodetypes="cccsccc" /></g></svg>
