<?xml version="1.0" encoding="UTF-8" standalone="no"?>
<!-- Created with Inkscape (http://www.inkscape.org/) -->

<svg
   width="16in"
   height="6in"
   viewBox="0 0 406.4 152.4"
   version="1.1"
   id="svg1"
   xml:space="preserve"
   inkscape:version="1.3.1 (91b66b0783, 2023-11-16)"
   sodipodi:docname="bear-light-switch.svg"
   xmlns:inkscape="http://www.inkscape.org/namespaces/inkscape"
   xmlns:sodipodi="http://sodipodi.sourceforge.net/DTD/sodipodi-0.dtd"
   xmlns="http://www.w3.org/2000/svg"
   xmlns:svg="http://www.w3.org/2000/svg"><sodipodi:namedview
     id="namedview1"
     pagecolor="#ffffff"
     bordercolor="#000000"
     borderopacity="0.25"
     inkscape:showpageshadow="2"
     inkscape:pageopacity="0.0"
     inkscape:pagecheckerboard="0"
     inkscape:deskcolor="#d1d1d1"
     inkscape:document-units="in"
     inkscape:zoom="0.85796218"
     inkscape:cx="575.20018"
     inkscape:cy="303.62644"
     inkscape:current-layer="g44" /><defs
     id="defs1" /><g
     inkscape:label="SHAPES RAW"
     inkscape:groupmode="layer"
     id="layer1"
     style="display:none"><g
       id="g12"
       inkscape:label="ears"
       style="fill:#ffdf7e"
       transform="matrix(1,0,0,-1,12.7,63.365761)"><g
         id="g30"
         transform="translate(-0.08345944)"><path
           style="color:#000000;fill:#96242f;stroke-width:0.9906;stroke-linecap:round;stroke-linejoin:round;stroke-dasharray:none;stroke-dashoffset:134.173;paint-order:stroke fill markers"
           d="m 142.59311,50.414747 c 31.67721,-31.513045 -20.90673,-50.85775275 -35.82758,-36.014228 -14.920862,14.84353 4.15036,67.527274 35.82758,36.014228 z"
           id="path25" /><path
           style="color:#000000;fill:#96242f;stroke-width:0.9906;stroke-linecap:round;stroke-linejoin:round;stroke-dasharray:none;stroke-dashoffset:134.173;paint-order:stroke fill markers"
           d="M 9.9738129,50.414746 C -21.703405,18.901701 30.880536,-0.44300645 45.801391,14.400518 60.722251,29.244048 41.651031,81.927793 9.9738129,50.414746 Z"
           id="path27" /></g><g
         id="g29"
         transform="translate(0.10066794,1)"><path
           id="path26"
           style="color:#000000;fill:#ffdf7e;stroke-width:0.921246;stroke-linecap:round;stroke-linejoin:round;stroke-dasharray:none;stroke-dashoffset:134.173;paint-order:stroke fill markers"
           d="m 131.83715,14.291011 c 2.65307,0.785309 5.19399,1.887453 7.36029,3.243882 4.33259,2.712856 6.98065,6.148622 7.43166,9.977699 0.45102,3.829078 -1.09578,8.991605 -7.83598,15.696875 -6.7402,6.70527 -11.91133,8.223562 -15.73802,7.752654 -3.82668,-0.470906 -7.24824,-3.13724 -9.93855,-7.483873 -2.69031,-4.346633 -4.35673,-10.182927 -4.50464,-15.417293 -0.14791,-5.234367 1.2795,-9.619293 3.42242,-11.751107 2.14292,-2.131811 6.53425,-3.535856 11.76778,-3.360749 2.61676,0.08755 5.38197,0.556602 8.03504,1.341912 z" /><path
           id="path28"
           style="color:#000000;fill:#ffdf7e;stroke-width:0.921246;stroke-linecap:round;stroke-linejoin:round;stroke-dasharray:none;stroke-dashoffset:134.173;paint-order:stroke fill markers"
           d="m 20.361515,14.29101 c -2.653068,0.785309 -5.193993,1.887455 -7.36029,3.243882 -4.332594,2.712857 -6.9806445,6.148622 -7.4316617,9.977698 -0.4510165,3.82908 1.095778,8.991606 7.8359797,15.696876 6.740202,6.705271 11.911335,8.223563 15.738017,7.752655 3.826683,-0.470907 7.248246,-3.13724 9.938555,-7.483873 2.690308,-4.346633 4.356732,-10.182926 4.504644,-15.417293 0.14791,-5.234367 -1.279503,-9.619294 -3.422422,-11.751107 -2.142918,-2.131811 -6.534251,-3.535857 -11.76778,-3.360749 -2.616764,0.08755 -5.381975,0.556602 -8.035042,1.341911 z" /></g></g><path
       id="path6"
       style="fill:#96242f;stroke-width:18.3579;stroke-linecap:round;stroke-linejoin:round;stroke-dashoffset:134.173;paint-order:stroke fill markers"
       d="m 88.899998,146.05 c -123.493508,0 -71.237792,-139.7 0,-139.7 71.237792,0 123.493512,139.7 0,139.7 z"
       sodipodi:nodetypes="zzz"
       inkscape:label="face" /><path
       id="path15"
       style="fill:#ffdf7e;stroke-width:12;stroke-linecap:round;stroke-linejoin:round;stroke-dashoffset:134.173;paint-order:stroke fill markers"
       d="m 88.9,139.23767 c -72.68439,0 -34.236378,-101.41702 -1e-6,-101.41702 34.236381,0 72.684391,101.41702 1e-6,101.41702 z"
       sodipodi:nodetypes="zzz"
       inkscape:label="snout" /><path
       id="path10"
       style="color:#000000;fill:#250657;stroke-linecap:round;stroke-linejoin:round;stroke-dashoffset:134.173;-inkscape-stroke:none;paint-order:stroke fill markers"
       d="m 84.453243,92.75 c 0,0 -0.413948,13.47636 -2.976512,19.16772 -9.216527,20.46944 -6.364546,-11.09788 -14.168128,-11.09752 -2.455069,-1.1e-4 -4.445323,1.99014 -4.445207,4.44521 0,7.30202 1.350423,12.83877 4.237985,16.76797 2.887561,3.9292 8.167216,5.73479 12.519649,4.15582 3.947742,-1.43215 6.994014,-4.71636 9.279537,-9.20668 2.285217,4.49027 5.32924,7.77454 9.276953,9.20668 4.35243,1.57897 9.63416,-0.22662 12.52172,-4.15582 2.88756,-3.9292 4.23643,-9.46595 4.23643,-16.76797 1.2e-4,-2.45507 -1.99014,-4.44533 -4.44521,-4.44521 -7.8013,0.002 -4.94983,31.56631 -14.166057,11.09752 C 93.76126,106.22508 93.34784,92.75 93.34784,92.75 Z"
       inkscape:label="mouth"
       sodipodi:nodetypes="csccsscssccscc" /><g
       id="g10"
       inkscape:label="eyes"
       transform="translate(12.155729,13.742868)"><path
         style="color:#000000;fill:#250657;stroke-linecap:round;stroke-linejoin:round;stroke-dashoffset:134.173;-inkscape-stroke:none;paint-order:stroke fill markers"
         d="m 101.16602,37.849609 c -2.054654,1.344367 -2.630098,2.600016 -1.285161,4.654297 4.002621,6.113599 8.742201,10.269531 14.587891,10.300781 5.84569,0.03125 10.55157,-4.165654 14.2793,-10.175781 1.29296,-2.086232 0.65031,-3.325579 -1.43555,-4.61914 -5.92685,-3.675123 -7.82949,7.430841 -12.79492,7.404296 -5.11778,-0.02745 -7.47781,-11.410561 -13.35156,-7.564453 z"
         id="path13"
         inkscape:label="right"
         sodipodi:nodetypes="ccsccsc" /><path
         style="color:#000000;fill:#250657;stroke-linecap:round;stroke-linejoin:round;stroke-dashoffset:134.173;-inkscape-stroke:none;paint-order:stroke fill markers"
         d="m 38.470703,45.414062 c -4.963632,0.02662 -6.867671,-11.082732 -12.794922,-7.404296 -2.085858,1.293562 -2.728508,2.532909 -1.435547,4.61914 3.72773,6.010127 8.433604,10.207032 14.279297,10.175781 5.845694,-0.03125 10.585269,-4.187182 14.587891,-10.300781 1.345311,-2.053772 0.770771,-3.309294 -1.283203,-4.654297 -5.921258,-3.878294 -8.08677,7.536301 -13.353516,7.564453 z"
         id="path14"
         inkscape:label="left"
         sodipodi:nodetypes="cccsccc" /></g><circle
       style="display:inline;opacity:1;fill:#f2b6bc;stroke-width:12;stroke-linecap:round;stroke-linejoin:round;stroke-dashoffset:134.173;paint-order:stroke fill markers"
       id="path5"
       cx="88.900002"
       cy="76.199997"
       r="19.049999"
       inkscape:label="nose" /><g
       id="g2"
       transform="matrix(1.3050692,0,0,1.3050692,-72.728552,-53.99736)"
       inkscape:label="plate template"
       sodipodi:insensitive="true"
       style="display:none;opacity:0.488"><rect
         style="fill:#250657;stroke-width:12;stroke-linecap:round;stroke-linejoin:round;stroke-dashoffset:134.173;paint-order:stroke fill markers"
         id="rect2"
         width="52.888161"
         height="87.581566"
         x="97.402649"
         y="55.972019" /><rect
         style="fill:#f0b6d3;stroke-width:11.176;stroke-linecap:round;stroke-linejoin:round;stroke-dashoffset:134.173;paint-order:stroke fill markers"
         id="rect1"
         width="7.2984633"
         height="19.46257"
         x="120.19749"
         y="90.031517" /><g
         id="g4"
         transform="translate(15.603329,-0.01713562)"><circle
           style="fill:#dd5498;stroke-width:12;stroke-linecap:round;stroke-linejoin:round;stroke-dashoffset:134.173;paint-order:stroke fill markers"
           id="circle1"
           cx="108.2434"
           cy="122.89174"
           r="2.4328213" /><circle
           style="fill:#f0b6d3;stroke-width:12;stroke-linecap:round;stroke-linejoin:round;stroke-dashoffset:134.173;paint-order:stroke fill markers"
           id="circle3"
           cx="108.2434"
           cy="122.89174"
           r="1.8246158" /></g><g
         id="g3"
         transform="translate(15.603329,0.01713562)"><circle
           style="fill:#dd5498;stroke-width:12;stroke-linecap:round;stroke-linejoin:round;stroke-dashoffset:134.173;paint-order:stroke fill markers"
           id="path1"
           cx="108.2434"
           cy="76.633865"
           r="2.4328213" /><circle
           style="fill:#f0b6d3;stroke-width:12;stroke-linecap:round;stroke-linejoin:round;stroke-dashoffset:134.173;paint-order:stroke fill markers"
           id="circle2"
           cx="108.2434"
           cy="76.633865"
           r="1.8246158" /></g></g></g><g
     inkscape:label="LASER SHAPES"
     inkscape:groupmode="layer"
     id="g44"
     style="display:inline"><path
       id="path62"
       style="color:#000000;fill:#af83f8;stroke-linecap:round;stroke-linejoin:round;stroke-dashoffset:134.173;-inkscape-stroke:none;paint-order:stroke fill markers"
       d="m 266.92251,0.00284313 c -4.44709,0.0914 -10.02417,2.42502997 -16.58038,8.94724987 -8.03196,7.99033 -9.79667,14.39573 -8.78293,19.40605 1.01374,5.01032 5.15013,9.34261 10.912,12.30468 a 3.1753175,3.1753175 0 0 1 1.33377,4.34599 c -10.83896,19.83973 -14.11392,42.94441 -5.75986,60.661917 8.35407,17.71756 28.26779,30.95522 66.36753,30.95522 38.09974,0 58.01292,-13.23766 66.36702,-30.95522 8.35406,-17.717507 5.07703,-40.822187 -5.76193,-60.661917 a 3.1753175,3.1753175 0 0 1 1.33636,-4.34599 c 5.76184,-2.96207 9.89824,-7.29436 10.91199,-12.30468 1.01374,-5.01032 -0.75149,-11.41572 -8.78344,-19.40605 -7.76819,-7.7279399 -14.04473,-9.58700984 -18.94923,-8.76948987 -4.90454,0.81753 -9.12446,4.55554997 -12.14448,9.95287987 a 3.1753175,3.1753175 0 0 1 -4.35116,1.20355 c -8.88892,-5.0996799 -18.57774,-8.0625599 -28.62513,-8.0625599 -10.04739,0 -19.73621,2.96288 -28.62513,8.0625599 a 3.1753175,3.1753175 0 0 1 -4.35167,-1.20355 C 277.94276,3.8906631 273.00982,-0.12225687 266.92251,0.00284313 Z M 314.41213,37.405203 a 2.3812499,2.3812499 0 0 1 2.38125,2.38125 2.3812499,2.3812499 0 0 1 -2.38125,2.38125 2.3812499,2.3812499 0 0 1 -2.38125,-2.38125 2.3812499,2.3812499 0 0 1 2.38125,-2.38125 z m -4.7625,19.84375 h 9.525 v 25.4 h -9.525 z m 4.7625,40.48125 a 2.3812499,2.3812499 0 0 1 2.38125,2.381247 2.3812499,2.3812499 0 0 1 -2.38125,2.38125 2.3812499,2.3812499 0 0 1 -2.38125,-2.38125 2.3812499,2.3812499 0 0 1 2.38125,-2.381247 z"
       inkscape:label="base" /><path
       d="m 160.64687,122.5821 c -5.3e-4,0.48843 0.0382,0.99998 0.10766,1.52787 0.023,0.17451 0.0687,0.36062 0.10007,0.5395 0.0639,0.36459 0.13496,0.73287 0.23613,1.11587 0.0579,0.21907 0.13621,0.44764 0.20705,0.67285 0.11516,0.36585 0.2422,0.73685 0.39371,1.11895 0.0974,0.24567 0.20858,0.49706 0.32188,0.7495 0.17115,0.38142 0.36278,0.77134 0.5721,1.16844 0.1414,0.26905 0.28861,0.53943 0.44877,0.81556 0.23873,0.41164 0.50995,0.83566 0.79145,1.26367 0.18192,0.27649 0.35636,0.55032 0.55693,0.83373 0.33893,0.47886 0.72541,0.97497 1.12021,1.47374 0.19931,0.2518 0.37744,0.49581 0.59159,0.75272 0.63686,0.76409 1.32809,1.54707 2.10309,2.35713 6.5724,6.86978 11.70364,8.51679 15.54078,8.1406 3.83713,-0.37618 7.32394,-2.95661 10.12084,-7.23541 0.38979,-0.5962 0.75556,-1.22734 1.10553,-1.87685 0,0 1e-5,-5.1e-4 1e-5,-5.1e-4 -10.33277,-6.54715 -19.50672,-15.05938 -26.2865,-24.83884 -0.0808,0.0461 -0.16871,0.0867 -0.24808,0.13426 -4.3983,2.60495 -7.13135,5.97367 -7.67687,9.79043 -0.0682,0.4771 -0.10567,0.97595 -0.10624,1.49683 z"
       style="fill:#ffdf7e;stroke-width:0.921246;stroke-linecap:round;stroke-linejoin:round;stroke-dashoffset:134.173;paint-order:stroke fill markers"
       id="path51"
       inkscape:label="left ear" /><path
       d="m 239.9261,126.0742 c 0.0818,-0.5144 0.12389,-1.0129 0.13211,-1.49477 0.0657,-3.85497 -2.09947,-7.61396 -6.02982,-10.88247 -0.0711,-0.0592 -0.15157,-0.11316 -0.22375,-0.17178 -8.24276,8.58264 -18.64868,15.53481 -29.88784,20.3633 0.24266,0.69673 0.5039,1.37831 0.79432,2.02873 2.08411,4.66766 5.11836,7.76767 8.84752,8.74667 3.72916,0.979 9.05647,0.16522 16.63371,-5.57719 0.89347,-0.67713 1.69997,-1.34078 2.44978,-1.99438 0.25213,-0.21979 0.46664,-0.4325 0.70331,-0.64957 0.4688,-0.42997 0.92893,-0.85863 1.33943,-1.27777 0.24294,-0.24805 0.45853,-0.49082 0.68192,-0.73502 0.34576,-0.37802 0.68068,-0.75377 0.98155,-1.12241 0.20184,-0.24731 0.38968,-0.49121 0.57222,-0.73425 0.26955,-0.35894 0.52049,-0.71361 0.74988,-1.06309 0.15184,-0.23133 0.30139,-0.462 0.43646,-0.68912 0.21011,-0.3533 0.39429,-0.69951 0.56593,-1.04249 0.10564,-0.21112 0.21912,-0.42443 0.31097,-0.63159 0.16055,-0.36214 0.28897,-0.71452 0.40984,-1.0644 0.0593,-0.17166 0.13392,-0.34818 0.18423,-0.51684 0.15217,-0.51023 0.27146,-1.00918 0.34822,-1.49156 z"
       style="fill:#ffdf7e;stroke-width:0.921246;stroke-linecap:round;stroke-linejoin:round;stroke-dashoffset:134.173;paint-order:stroke fill markers"
       id="path50"
       inkscape:label="right ear" /><path
       id="path52"
       style="fill:#96242f;stroke-width:0.9906;stroke-linecap:round;stroke-linejoin:round;stroke-dashoffset:134.173;paint-order:stroke fill markers"
       inkscape:label="head"
       d="m 28.694365,0.00268651 c -0.7402,0.01521 -1.49794,0.08971 -2.26756,0.20774 -0.24573,0.03768 -0.49911,0.10541 -0.74776,0.153995 -0.52939,0.103445 -1.06164,0.216744 -1.60404,0.371037 -0.30715,0.08739 -0.62048,0.200706 -0.93172,0.30489099 -0.50107,0.167723 -1.00526,0.348745 -1.51671,0.561206 -0.33313,0.138395 -0.66973,0.29324 -1.00717,0.451135 -0.50526,0.236414 -1.01542,0.496453 -1.53014,0.777731 -0.34796,0.190158 -0.69684,0.385159 -1.04903,0.596346 -0.52964,0.317584 -1.06607,0.6708 -1.60507,1.037146 -0.34143,0.232065 -0.68119,0.455346 -1.0263,0.70745 -0.59825,0.437036 -1.20585,0.925438 -1.81487,1.424203 -0.2965,0.242826 -0.58881,0.462575 -0.8878,0.720369 -0.91143,0.785812 -1.83236,1.628938 -2.7662356,2.557983 -1.02788,1.0225485 -1.95871,2.0310955 -2.81327,3.0272065 -0.28163,0.328302 -0.50863,0.647223 -0.77204,0.97255 -0.53564,0.6615 -1.07264,1.323646 -1.53479,1.97249 -0.27422,0.385006 -0.49663,0.760583 -0.74569,1.141015 -0.3768,0.575562 -0.75883,1.151892 -1.07953,1.716691 -0.22615,0.398251 -0.40867,0.787521 -0.60771,1.18029 -0.27051,0.533902 -0.54201,1.068125 -0.76378,1.591634 -0.16767,0.395702 -0.30066,0.783427 -0.44131,1.173055 -0.18246001,0.505693 -0.36044001,1.010642 -0.49868001,1.505852 -0.10661,0.381632 -0.18756,0.756442 -0.26872,1.131713 -0.10617,0.491494 -0.20176,0.980055 -0.26562,1.460376 -0.0479,0.359814 -0.0784,0.714739 -0.10335,1.068152 -0.0336,0.478387 -0.051,0.952123 -0.0439,1.418518 0.005,0.338351 0.0198,0.673709 0.0455,1.005624 0.0365,0.46847 0.0938,0.930073 0.17002,1.385445 0.0516,0.309395 0.10641,0.617642 0.1757,0.920874 0.10646,0.464816 0.23863,0.919912 0.38499,1.369942 0.0892,0.274839 0.17503,0.550883 0.27853001,0.820105 0.1807,0.469215 0.39168,0.925887 0.61392,1.377694 0.11374,0.231563 0.21946,0.466589 0.34365,0.693497 0.266,0.485372 0.56494,0.955389 0.87643,1.419035 0.11775,0.175474 0.22434,0.356342 0.3483,0.52865 0.37753,0.524199 0.79032,1.029618 1.22214,1.523938 0.0864,0.09895 0.16273,0.203538 0.25115,0.301274 2.18451,2.412361 4.98798,4.454691 8.1292156,6.071464 -22.4070486,41.01485 -14.2957356,96.321777 63.40853,96.321777 77.704275,0 85.815605,-55.306927 63.408535,-96.321777 3.14126,-1.616777 5.94471,-3.659091 8.12922,-6.071464 0.0884,-0.09774 0.1648,-0.20232 0.25115,-0.301274 0.43182,-0.494322 0.84461,-0.999736 1.22215,-1.523938 0.12396,-0.172309 0.23054,-0.353175 0.3483,-0.52865 0.31149,-0.463649 0.61043,-0.933661 0.87644,-1.419035 0.12417,-0.226909 0.22989,-0.461933 0.34364,-0.693497 0.22224,-0.451809 0.43321,-0.908477 0.61391,-1.377694 0.10351,-0.269223 0.18933,-0.545265 0.27854,-0.820105 0.14635,-0.450033 0.27853,-0.905123 0.38499,-1.369942 0.0693,-0.303233 0.12407,-0.611478 0.1757,-0.920874 0.0762,-0.455375 0.13354,-0.916973 0.17001,-1.385445 0.0257,-0.331917 0.0405,-0.667272 0.0455,-1.005624 0.007,-0.466397 -0.0103,-0.940129 -0.0439,-1.418518 -0.025,-0.353415 -0.0554,-0.708337 -0.10335,-1.068152 -0.0639,-0.480323 -0.15944,-0.96888 -0.26562,-1.460376 -0.0812,-0.375273 -0.16211,-0.75008 -0.26871,-1.131713 -0.13825,-0.495212 -0.31622,-1.000157 -0.49868,-1.505852 -0.14065,-0.38963 -0.27364,-0.777351 -0.44132,-1.173055 -0.22177,-0.523511 -0.49327,-1.05773 -0.76378,-1.591634 -0.19912,-0.392977 -0.38194,-0.782344 -0.60823,-1.180806 -0.31891,-0.561624 -0.69894,-1.135126 -1.07332,-1.70739 -0.25146,-0.384358 -0.47629,-0.763871 -0.75344,-1.152901 -0.4597,-0.645281 -0.99415,-1.303322 -1.52652,-1.96112 -0.26546,-0.328012 -0.49426,-0.649784 -0.77825,-0.980819 -0.85456,-0.996114 -1.78538,-2.004656 -2.81326,-3.0272065 -0.94785,-0.942936 -1.88288,-1.800787 -2.80758,-2.596223 -0.30843,-0.265312 -0.60943,-0.486499 -0.91519,-0.735873 -0.60853,-0.496309 -1.21663,-0.989527 -1.81436,-1.424202 -0.36278,-0.263794 -0.71825,-0.48907 -1.07694,-0.730705 -0.53202,-0.358441 -1.0636,-0.713833 -1.58647,-1.024744 -0.37308,-0.221795 -0.74018,-0.414705 -1.10845,-0.612882 -0.4948,-0.266331 -0.98782,-0.523966 -1.47382,-0.748792 -0.375,-0.17338 -0.74554,-0.327687 -1.11517,-0.476973 -0.46316,-0.187197 -0.92261,-0.359629 -1.37718,-0.510047 -0.3751,-0.12396299 -0.74761,-0.23786899 -1.11673,-0.33744699 -0.43433,-0.11737 -0.86342,-0.213577 -1.28933,-0.298173 -0.37145,-0.07356 -0.74251,-0.145501 -1.10742,-0.19482 -0.40436,-0.05491 -0.80118,-0.08401 -1.19734,-0.110071 -0.37089,-0.02411 -0.74334,-0.05365 -1.10691,-0.05323 -0.59605,2e-4 -1.18466,0.0255 -1.76062,0.08888 -0.19123,0.02125 -0.37895,0.05316 -0.56792,0.08113 -0.5068,0.07448 -1.00576,0.171787 -1.49604,0.293006 -0.23997,0.05963 -0.47771,0.124914 -0.71365,0.195337 -0.3762,0.11181 -0.74369,0.24513 -1.10949,0.38343899 -0.63571,0.241235 -1.25535,0.521438 -1.8588,0.838192 -0.11198,0.05861 -0.22763,0.108922 -0.33848,0.170015 -2.98011,1.646973 -5.55227,4.178234 -7.64915,7.240385 -0.013,0.01901 -0.0258,0.03831 -0.0388,0.05736 -0.52221,0.7663785 -1.0163,1.5640695 -1.47846,2.3900355 C 97.161755,6.4258595 86.922205,3.2727625 76.249645,3.2727625 c -10.67255,0 -20.91212,3.153098 -30.20539,8.4847535 -0.47428,-0.847629 -0.98207,-1.665527 -1.51928,-2.4504965 -0.0141,-0.02054 -0.0277,-0.04152 -0.0419,-0.06201 -1.61513,-2.347498 -3.51018,-4.379944 -5.65392,-5.939691 -0.11003,-0.07976 -0.2261,-0.147557 -0.33745,-0.224792 -0.56613,-0.394141 -1.14964,-0.753958 -1.74924,-1.079004 -0.41392,-0.223515 -0.82946,-0.443665 -1.25884,-0.632003 -0.1145,-0.05041 -0.22858,-0.101531 -0.34417,-0.149345 -0.54782,-0.22574699 -1.10976,-0.41608599 -1.68155,-0.58135999 -0.14226,-0.04128 -0.28363,-0.08458 -0.42736,-0.121956 -0.61132,-0.158327 -1.23557,-0.281851 -1.87276,-0.366903 -0.13034,-0.01746 -0.26287,-0.02862 -0.39429,-0.04289 -0.67729,-0.07326 -1.36418,-0.118873 -2.06912,-0.104387 z m -0.89917,8.24652499 c 0.52078,-0.0096 1.02028,0.01814 1.49861,0.077 3.82663,0.470902 7.24814,3.1377255 9.93842,7.4842985 0.0487,0.07866 0.091,0.165841 0.13901,0.245463 -9.64517,6.969303 -17.97687,16.307831 -24.321,26.766325 h -5.2e-4 c -0.65623,-0.337167 -1.29435,-0.690649 -1.89807,-1.068669 -1.6247,-1.017307 -3.012806,-2.136086 -4.1366956,-3.339331 -0.74927,-0.802163 -1.38107,-1.642132 -1.88774,-2.514058 -0.25334,-0.435964 -0.47539,-0.879714 -0.66508,-1.331185 -0.37937,-0.902945 -0.62932,-1.835853 -0.74207,-2.793111 -0.0564,-0.47863 -0.0815,-0.977912 -0.0692,-1.498617 0.0246,-1.041416 0.19892,-2.168103 0.57309,-3.382739 0.93536,-3.036548 3.11929,-6.624625 7.3318456,-10.815361 0.79493,-0.7908 1.56399,-1.496946 2.31562,-2.148706 0.25284,-0.219236 0.49306,-0.401866 0.74104,-0.606164 0.49109,-0.404568 0.97934,-0.800451 1.4516,-1.148767 0.27965,-0.20626 0.54957,-0.385691 0.82268,-0.573092 0.42265,-0.290025 0.84086,-0.569145 1.24799,-0.815971 0.27321,-0.165634 0.54039,-0.317492 0.80667,-0.464571 0.39324,-0.21722 0.77877,-0.4160955 1.15703,-0.5947965 0.25039,-0.118286 0.49923,-0.234156 0.74311,-0.336413 0.37929,-0.159042 0.74732,-0.293132 1.11105,-0.415479 0.22405,-0.07537 0.45049,-0.157917 0.66869,-0.220141 0.38109,-0.108691 0.74763,-0.1868 1.11104,-0.257866 0.17842,-0.03489 0.36324,-0.0842 0.53744,-0.110587 0.5265,-0.07978 1.03706,-0.128498 1.52548,-0.13746 z m 96.908815,0 c 0.48842,0.009 0.99897,0.05768 1.52549,0.13746 0.17417,0.02639 0.35901,0.0757 0.53743,0.110587 0.36341,0.07107 0.72995,0.149174 1.11104,0.257866 0.2182,0.06222 0.44464,0.14477 0.6687,0.220141 0.36372,0.122348 0.73175,0.256436 1.11104,0.415479 0.24388,0.102258 0.49272,0.218126 0.74311,0.336413 0.37827,0.178702 0.76379,0.3775755 1.15703,0.5947965 0.26628,0.147079 0.53347,0.298937 0.80667,0.464571 0.40713,0.246827 0.82534,0.525945 1.24799,0.815971 0.27311,0.187402 0.54303,0.366831 0.82269,0.573092 0.47226,0.348317 0.9605,0.744198 1.45159,1.148767 0.24799,0.204299 0.4882,0.386928 0.74104,0.606164 0.75164,0.651761 1.52069,1.357905 2.31562,2.148706 4.21256,4.190745 6.39648,7.778798 7.33185,10.815361 0.37418,1.214641 0.5485,2.341319 0.57309,3.382739 0.0123,0.520707 -0.0129,1.019987 -0.0692,1.498617 -0.11276,0.957262 -0.3627,1.890162 -0.74208,2.793111 -0.18968,0.451473 -0.41174,0.895219 -0.66507,1.331185 -0.50668,0.871929 -1.13847,1.711892 -1.88774,2.514058 -1.12391,1.203251 -2.512,2.322023 -4.1367,3.339331 -0.60373,0.378022 -1.24184,0.731501 -1.89808,1.068669 h -5e-4 c -6.34424,-10.45862 -14.67573,-19.796939 -24.321,-26.766325 0.048,-0.07962 0.0903,-0.166803 0.139,-0.245463 2.69029,-4.346581 6.11177,-7.0133965 9.93841,-7.4842985 0.47833,-0.05886 0.97784,-0.08655 1.49862,-0.077 z M 76.249595,34.743203 c 8.12014,0 16.4609,5.743497 23.51588,14.447696 0.259935,-0.225511 0.560015,-0.449104 0.905895,-0.675411 5.87374,-3.846104 8.23386,7.536947 13.35163,7.564397 4.96543,0.02654 6.86773,-11.079836 12.79457,-7.404716 2.08586,1.293559 2.72853,2.533126 1.43557,4.619356 -3.72772,6.010121 -8.43354,10.206856 -14.27923,10.175606 -2.10419,-0.01125 -4.06409,-0.559371 -5.89886,-1.538407 15.69658,30.040933 16.15671,74.228556 -31.825455,74.228556 -48.20539,0 -47.51053,-44.593363 -31.5991,-74.640417 -2.04136,1.238133 -4.24108,1.937522 -6.62544,1.950268 -5.84568,0.03125 -10.55202,-4.165491 -14.27974,-10.175606 -1.29296,-2.086227 -0.65029,-3.325798 1.43557,-4.619356 5.92724,-3.67843 7.83146,7.431336 12.79508,7.404716 5.26674,-0.02815 7.43246,-11.442683 13.35371,-7.564397 0.47959,0.314049 0.87486,0.62337 1.18752,0.938961 7.09988,-8.854258 15.52957,-14.711246 23.7324,-14.711246 z" /><path
       id="path53"
       style="display:inline;fill:#250657;stroke-linecap:round;stroke-linejoin:round;stroke-dashoffset:134.173;paint-order:stroke fill markers"
       inkscape:label="mouth"
       d="m 71.359001,54.360974 c 0,0 -0.0983,17.32636 -2.66082,23.01772 -9.21651,20.4694 -6.36456,-11.09788 -14.16813,-11.09752 -2.45506,-1.1e-4 -4.44532,1.99014 -4.4452,4.44521 0,7.302 1.35042,12.83877 4.23798,16.76797 2.88756,3.92918 8.16722,5.73479 12.51965,4.15582 3.94773,-1.43215 6.99402,-4.71636 9.27954,-9.20668 2.28521,4.49027 5.32924,7.77454 9.27695,9.20668 4.35243,1.57897 9.63416,-0.22664 12.52172,-4.15582 2.887539,-3.9292 4.236429,-9.46597 4.236429,-16.76797 1.2e-4,-2.45507 -1.99014,-4.44533 -4.445209,-4.44521 -7.80128,0.002 -4.94985,31.56627 -14.16606,11.09752 -2.56313,-5.69264 -2.66185,-23.01772 -2.66185,-23.01772 z m 4.7625,14.2875 c 1.7535,0 3.175,1.4215 3.175,3.175 0,1.7535 -1.4215,3.175 -3.175,3.175 -1.7535,0 -3.175,-1.4215 -3.175,-3.175 0,-1.7535 1.4215,-3.175 3.175,-3.175 z"
       sodipodi:nodetypes="ccccsscssccsccsssss" /><path
       style="color:#000000;fill:#250657;stroke-linecap:round;stroke-linejoin:round;stroke-dashoffset:134.173;-inkscape-stroke:none;paint-order:stroke fill markers"
       d="m 45.775391,87.51596 c -2.394874,0.541792 -3.372749,1.517265 -2.830291,3.911982 1.614409,7.126763 4.603305,12.676708 10.069688,14.748358 5.4664,2.07161 11.342018,-0.21663 16.93465,-4.54561 1.940367,-1.50303 1.77122,-2.888803 0.268753,-4.829602 -4.269332,-5.514242 -9.932272,4.227092 -14.575513,2.467398 -4.78569,-1.813724 -3.01994,-13.304087 -9.867287,-11.752526 z"
       id="path55"
       inkscape:label="right eye"
       sodipodi:nodetypes="ccsccsc" /><path
       style="color:#000000;fill:#250657;stroke-linecap:round;stroke-linejoin:round;stroke-dashoffset:134.173;-inkscape-stroke:none;paint-order:stroke fill markers"
       d="m 96.651022,98.918475 c -4.476733,2.144105 -10.943354,-7.087652 -14.73162,-1.229986 -1.333523,2.06054 -1.385256,3.455641 0.6749,4.789761 5.937635,3.84215 11.985247,5.62701 17.257548,3.10196 5.27234,-2.52502 7.78274,-8.307202 8.79066,-15.54469 0.33922,-2.431616 -0.71654,-3.321465 -3.1482,-3.660321 -7.01047,-0.977656 -4.09314,10.268296 -8.843288,12.543276 z"
       id="path56"
       inkscape:label="left eye"
       sodipodi:nodetypes="cccsccc" /><path
       d="m 197.80188,10.8505 c -0.52376,6.3e-5 -1.04823,0.02502 -1.57355,0.07183 -0.17881,0.01593 -0.35799,0.04852 -0.53692,0.06976 -0.34678,0.04116 -0.69371,0.0798 -1.04076,0.14056 -0.22033,0.03861 -0.44058,0.09417 -0.66094,0.14056 -0.30512,0.06416 -0.61016,0.123764 -0.91519,0.202571 -0.24182,0.06255 -0.48335,0.141307 -0.72502,0.212907 -0.28274,0.08367 -0.56559,0.163057 -0.84801,0.258899 -0.2588,0.08793 -0.51725,0.190379 -0.77566,0.288355 -0.26253,0.09942 -0.525,0.195295 -0.78704,0.304891 -0.27848,0.116606 -0.55625,0.246755 -0.83405,0.374654 -0.23904,0.109924 -0.4783,0.216737 -0.71676,0.334863 -0.29923,0.148406 -0.59737,0.309689 -0.89555,0.470772 -0.21253,0.114689 -0.42524,0.226778 -0.63717,0.347783 -0.31898,0.182333 -0.6365,0.376725 -0.95395,0.573091 -0.19044,0.117679 -0.38118,0.233423 -0.57102,0.356051 -0.32933,0.212961 -0.65711,0.436481 -0.98444,0.664042 -0.17416,0.120962 -0.34837,0.240859 -0.52193,0.365869 -0.34535,0.248999 -0.68925,0.507875 -1.03198,0.772563 -0.14968,0.1155 -0.2994,0.230902 -0.44855,0.349333 -0.36307,0.288542 -0.72449,0.586418 -1.08417,0.891935 -0.12292,0.104325 -0.24596,0.208445 -0.36845,0.314709 -0.37716,0.327436 -0.75206,0.663847 -1.125,1.009241 -0.10727,0.09929 -0.21401,0.1995 -0.32091,0.30024 -0.38138,0.359611 -0.76096,0.727717 -1.1374,1.105359 -0.0928,0.09307 -0.18552,0.186977 -0.27802,0.28112 -0.39563,0.402836 -0.78812,0.814193 -1.1777,1.2361 -0.0617,0.06682 -0.12345,0.134255 -0.185,0.201538 -0.40904,0.447216 -0.81474,0.903697 -1.21647,1.370976 -0.0479,0.05572 -0.0953,0.11247 -0.14314,0.168465 -0.40927,0.479505 -0.81544,0.967789 -1.21646,1.467094 -0.0137,0.01706 -0.0271,0.03459 -0.0408,0.05168 1.03898,1.039921 1.15091,2.147396 0.11524,3.728455 -2.36727,3.615771 -4.99535,6.537494 -7.95455,8.335408 -5.95657,11.242504 -9.78079,24.522865 -9.71156,36.742977 3.6e-4,0.0574 0.001,0.114732 0.002,0.172083 0.0256,2.94886 0.28274,5.833165 0.78859,8.612911 0.0302,0.165261 0.0626,0.329527 0.0946,0.494027 0.14913,0.769874 0.31845,1.531005 0.50746,2.283064 0.0339,0.13478 0.064,0.271488 0.0992,0.40566 0.22944,0.8752 0.4842,1.738284 0.76998,2.585889 0.0268,0.07932 0.0585,0.156062 0.0858,0.235128 0.25203,0.73137 0.52919,1.449627 0.82475,2.158008 0.0928,0.222057 0.1897,0.441786 0.28681,0.661458 0.26565,0.601599 0.54925,1.193249 0.84801,1.776119 0.0991,0.193199 0.19331,0.389275 0.2961,0.580326 0.39903,0.742176 0.82182,1.470572 1.27745,2.178679 0.0791,0.122876 0.16823,0.239414 0.24908,0.361218 0.38389,0.578734 0.7873,1.144974 1.21078,1.698604 0.30733,0.401607 0.61713,0.801865 0.94567,1.189592 0.0303,0.03581 0.0589,0.07283 0.0894,0.10852 0.42196,0.493323 0.86474,0.972723 1.32189,1.442293 0.0824,0.0847 0.16653,0.16828 0.25011,0.25218 0.44722,0.44875 0.90733,0.88823 1.38803,1.31361 0.0204,0.0181 0.0394,0.0373 0.0599,0.0553 0.50301,0.44272 1.02877,0.86964 1.5689,1.28571 0.0971,0.0748 0.19574,0.1483 0.29404,0.2222 0.5304,0.39877 1.07413,0.78776 1.64021,1.16014 0.0157,0.0104 0.0307,0.0212 0.0465,0.0315 0.58364,0.38248 1.19069,0.74739 1.81281,1.10071 0.11653,0.0662 0.23453,0.13124 0.35243,0.19637 0.61546,0.34003 1.24455,0.66949 1.89756,0.9803 0.0107,0.005 0.0208,0.0109 0.0315,0.016 0.66644,0.31641 1.35833,0.61277 2.06448,0.89762 0.13902,0.0561 0.27954,0.11106 0.42013,0.16588 0.6963,0.27158 1.40613,0.53232 2.14095,0.77257 0.014,0.005 0.0273,0.01 0.0413,0.0145 0.74898,0.244 1.52399,0.46609 2.31356,0.67644 0.16322,0.0435 0.32802,0.0856 0.49299,0.12764 0.78677,0.20038 1.58784,0.3892 2.41484,0.55552 0.01,0.002 0.0194,0.005 0.0294,0.007 0.82905,0.16622 1.68534,0.30937 2.5554,0.44028 0.20425,0.0307 0.40997,0.0596 0.6165,0.0884 0.87408,0.12167 1.761,0.23182 2.67633,0.31729 0.003,3e-4 0.006,7.4e-4 0.009,0.001 0.9124,0.0851 1.85358,0.14525 2.80758,0.19327 0.24194,0.0122 0.48554,0.0228 0.73019,0.0326 0.96514,0.0385 1.94317,0.0651 2.95072,0.0651 0.002,0 0.004,0 0.006,0 1.00754,-6e-5 1.98611,-0.0266 2.95124,-0.0651 0.24026,-0.01 0.47962,-0.0201 0.71727,-0.032 0.94921,-0.0476 1.88455,-0.10743 2.7926,-0.19172 0.0473,-0.004 0.0923,-0.011 0.13952,-0.0155 0.86609,-0.0824 1.70828,-0.18586 2.53731,-0.30076 0.22221,-0.0308 0.44396,-0.062 0.66353,-0.0951 0.85065,-0.12819 1.68765,-0.26798 2.49907,-0.42995 0.0784,-0.0156 0.15301,-0.0347 0.231,-0.0506 0.75021,-0.15342 1.48037,-0.32379 2.19728,-0.5054 0.1933,-0.049 0.38684,-0.0979 0.57774,-0.14882 0.76026,-0.20302 1.50623,-0.4179 2.2288,-0.65216 0.0964,-0.0312 0.18849,-0.0659 0.28423,-0.0977 0.64768,-0.21513 1.2785,-0.44452 1.896,-0.6842 0.16883,-0.0655 0.33829,-0.13058 0.50488,-0.19792 0.67376,-0.27229 1.33286,-0.55624 1.97042,-0.85731 0.10231,-0.0483 0.1999,-0.1003 0.30128,-0.14934 0.55647,-0.26916 1.09789,-0.55017 1.62677,-0.84078 0.1487,-0.0817 0.2984,-0.1626 0.44494,-0.24598 0.58971,-0.33549 1.1647,-0.68213 1.71979,-1.04386 0.10159,-0.0662 0.19876,-0.1355 0.2992,-0.20257 0.47066,-0.31425 0.92791,-0.6388 1.37356,-0.97152 0.13779,-0.10289 0.27697,-0.20493 0.41238,-0.30954 0.50275,-0.38833 0.99145,-0.78688 1.46193,-1.19838 0.10149,-0.0888 0.19817,-0.18094 0.29817,-0.27078 0.39095,-0.35113 0.76999,-0.71063 1.13843,-1.07746 0.12146,-0.12096 0.24477,-0.24066 0.36381,-0.36328 0.42085,-0.43342 0.82761,-0.87652 1.21853,-1.330154 0.10505,-0.121947 0.20508,-0.247155 0.30799,-0.37052 0.24176,-0.289709 0.47222,-0.586817 0.70228,-0.884184 0.43492,-0.562397 0.85013,-1.137401 1.24385,-1.725992 0.078,-0.116585 0.16232,-0.229174 0.23875,-0.346749 0.47167,-0.725965 0.91318,-1.470341 1.32498,-2.232422 0.062,-0.114672 0.1171,-0.233364 0.17777,-0.348816 0.34224,-0.651715 0.66345,-1.31554 0.96376,-1.991093 0.0818,-0.183942 0.16204,-0.368861 0.24081,-0.554488 0.29558,-0.697096 0.57169,-1.404752 0.82476,-2.124418 0.0354,-0.100458 0.0745,-0.198847 0.10904,-0.299724 0.29602,-0.865328 0.56503,-1.744753 0.80202,-2.639115 0.003,-0.01159 0.005,-0.02355 0.008,-0.03514 0.22537,-0.853589 0.41997,-1.721691 0.59325,-2.598808 0.0278,-0.140529 0.0541,-0.281621 0.0806,-0.422713 0.15918,-0.849157 0.29787,-1.706972 0.41031,-2.575037 0.006,-0.04272 0.0127,-0.08488 0.0181,-0.12764 0.24392,-1.92381 0.37517,-3.890307 0.40153,-5.886463 5.8e-4,-0.04266 5.5e-4,-0.08547 0.001,-0.128157 0.13307,-12.149022 -3.60712,-25.373626 -9.48314,-36.61637 -3.26033,-1.741358 -6.12474,-4.84409 -8.68526,-8.755021 -1.12332,-1.715773 -0.8912,-2.873978 0.40773,-3.992521 -0.8691,-1.073024 -1.75821,-2.099693 -2.66392,-3.076815 -0.0192,-0.02066 -0.0382,-0.04191 -0.0574,-0.06253 -0.41946,-0.451185 -0.84332,-0.889258 -1.26969,-1.318266 -0.0539,-0.05415 -0.10728,-0.109509 -0.16123,-0.163298 -0.40091,-0.3999 -0.80536,-0.787456 -1.21181,-1.166854 -0.0823,-0.0768 -0.16447,-0.154537 -0.24702,-0.230477 -0.38157,-0.351261 -0.76591,-0.690762 -1.15187,-1.023193 -0.11447,-0.09853 -0.2288,-0.197204 -0.34364,-0.294039 -0.36609,-0.308916 -0.73425,-0.607865 -1.10381,-0.89917 -0.13145,-0.103525 -0.26295,-0.206227 -0.39481,-0.307474 -0.35298,-0.271266 -0.70725,-0.533981 -1.06298,-0.788583 -0.16142,-0.115422 -0.3233,-0.228114 -0.48525,-0.340031 -0.33529,-0.231934 -0.67186,-0.457262 -1.00924,-0.67386 -0.17435,-0.111824 -0.34913,-0.219467 -0.524,-0.327112 -0.32971,-0.203181 -0.6598,-0.401601 -0.99115,-0.589628 -0.19256,-0.109148 -0.38572,-0.211812 -0.57878,-0.315743 -0.31309,-0.168744 -0.62625,-0.335136 -0.94051,-0.489893 -0.2162,-0.106344 -0.43289,-0.20374 -0.64957,-0.303341 -0.29634,-0.136386 -0.59276,-0.272825 -0.88987,-0.396358 -0.23651,-0.09821 -0.47365,-0.185001 -0.71055,-0.274918 -0.28082,-0.106728 -0.56158,-0.215714 -0.84284,-0.310576 -0.25474,-0.0858 -0.50982,-0.15768 -0.76481,-0.233577 -0.26365,-0.07859 -0.52734,-0.162149 -0.79117,-0.22996 -0.28834,-0.074 -0.57664,-0.130806 -0.86506,-0.19172 -0.23255,-0.04919 -0.46511,-0.106224 -0.69763,-0.146761 -0.33252,-0.05787 -0.66457,-0.09501 -0.99684,-0.134876 -0.19051,-0.02291 -0.38116,-0.05649 -0.57154,-0.07338 -0.50945,-0.04509 -1.01853,-0.06863 -1.52653,-0.06976 -0.0136,-3.2e-5 -0.0272,-0.0016 -0.0408,-0.0016 z m 0.002,5.04207 a 3.1750001,3.1750001 0 0 1 3.175,3.175 3.1750001,3.1750001 0 0 1 -3.175,3.175 3.1750001,3.1750001 0 0 1 -3.175,-3.175 3.1750001,3.1750001 0 0 1 3.175,-3.175 z m -4.7625,20.6375 h 9.525 v 25.4 c 0,0 0.0916,15.935036 2.36058,22.25859 0.0983,0.259009 0.19482,0.524987 0.30024,0.759126 0.57603,1.279334 1.10486,2.355172 1.59215,3.248381 0.97459,1.786418 1.78289,2.841619 2.4691,3.328479 0.17156,0.12171 0.33547,0.207766 0.49247,0.260966 3.19405,1.080871 3.52368,-11.468537 6.82129,-16.179374 0.0701,-0.100223 0.14008,-0.200087 0.21291,-0.293006 0.0569,-0.07249 0.11347,-0.145612 0.17208,-0.213423 0.13637,-0.157939 0.27696,-0.303771 0.42323,-0.434599 0.57543,-0.514237 1.22791,-0.814744 1.98179,-0.814937 0.30729,-1.5e-5 0.60738,0.03108 0.89711,0.09043 6.6e-4,1.35e-4 0.001,-1.35e-4 0.002,0 0.28938,0.0592 0.56814,0.146429 0.83406,0.258899 0.26591,0.11246 0.51902,0.250025 0.75551,0.409794 0.23649,0.15977 0.45673,0.341493 0.65784,0.542603 0.20111,0.20111 0.38283,0.421351 0.5426,0.657841 0.15977,0.23649 0.29734,0.4896 0.4098,0.755509 0.11247,0.26592 0.1997,0.544678 0.2589,0.834058 0.0592,0.28938 0.0905,0.58919 0.0904,0.896069 0,0.912749 -0.021,1.797763 -0.0636,2.655652 -0.0426,0.857889 -0.10685,1.688695 -0.19275,2.492355 -0.0858,0.803469 -0.19366,1.580211 -0.3235,2.33009 0,0 0,5.17e-4 0,5.17e-4 -0.12989,0.750034 -0.28166,1.47339 -0.4563,2.17041 -0.17464,0.697029 -0.37209,1.367651 -0.59221,2.01228 -0.22012,0.644629 -0.46283,1.262851 -0.72916,1.855701 -0.26634,0.592859 -0.55593,1.160005 -0.8692,1.701705 -0.31328,0.541689 -0.65035,1.05811 -1.0113,1.549259 -0.36094,0.49115 -0.75934,0.949173 -1.18856,1.371493 -0.42921,0.422319 -0.88904,0.808982 -1.37356,1.157552 -0.48452,0.348579 -0.99346,0.659252 -1.52032,0.929142 -0.52685,0.2699 -1.07159,0.49894 -1.62781,0.685229 -0.55623,0.1863 -1.12391,0.329565 -1.69654,0.427365 -0.57264,0.09781 -1.15044,0.150512 -1.72651,0.154512 -0.22138,0.0017 -0.44192,-0.01063 -0.66249,-0.02325 -0.92865,-0.05292 -1.84735,-0.226927 -2.72748,-0.54622 -3.9474,-1.432027 -6.99129,-4.715911 -9.27644,-9.20564 -0.28548,0.560917 -0.583,1.10322 -0.89245,1.625224 -0.30965,0.522329 -0.6311,1.024475 -0.96531,1.505334 -0.33421,0.48086 -0.68091,0.940318 -1.04025,1.377177 -0.35933,0.43687 -0.7317,0.850929 -1.11673,1.241268 -0.38503,0.39034 -0.78295,0.756835 -1.19424,1.098124 -0.41129,0.3413 -0.83572,0.65751 -1.27383,0.947229 -0.43811,0.28973 -0.88997,0.552943 -1.35547,0.788583 -0.46551,0.23563 -0.94469,0.443681 -1.43815,0.622701 -0.54405,0.19737 -1.10254,0.342049 -1.66915,0.436149 -0.5666,0.09402 -1.14156,0.137325 -1.71773,0.133325 -0.20439,-0.0015 -0.40892,-0.01646 -0.6134,-0.02997 -3.25461,-0.2138 -6.48472,-1.921785 -8.52299,-4.695321 -2.88756,-3.929196 -4.23798,-9.465966 -4.23798,-16.767969 -1.2e-4,-2.455065 1.99014,-4.445316 4.4452,-4.445206 0.001,0 0.002,-10e-7 0.003,0 0.24379,0 0.47706,0.03072 0.70074,0.08992 0.22368,0.05916 0.4379,0.146782 0.64285,0.259932 0.20495,0.11315 0.40099,0.251888 0.5886,0.413928 0.17289,0.149325 0.33633,0.324352 0.49557,0.51108 0.0365,0.04274 0.0717,0.08875 0.10749,0.133325 0.0951,0.118482 0.18548,0.248519 0.27595,0.379305 0.20158,0.291323 0.39556,0.602612 0.57619,0.947746 0.008,0.01602 0.0185,0.0278 0.0269,0.04393 0.28783,0.55619 0.55082,1.174097 0.79426,1.833997 0.24343,0.659899 0.46735,1.361311 0.67748,2.08411 0.25901,0.89094 0.49362,1.810153 0.72089,2.727482 0.2858,1.153995 0.55869,2.28812 0.83147,3.346566 0.21393,0.83074 0.42985,1.624836 0.65836,2.313554 0.18787,0.566219 0.38373,1.072037 0.59376,1.497066 0.21004,0.42502 0.43419,0.769322 0.67748,1.012342 0.12165,0.121509 0.2483,0.21737 0.38034,0.28577 0.13173,0.06819 0.26892,0.10864 0.41237,0.118856 0.4188,0.02945 0.89235,-0.207953 1.43403,-0.75706 0.0426,-0.04317 0.0867,-0.0939 0.13022,-0.141076 0.10203,-0.110744 0.20926,-0.243906 0.31626,-0.377238 0.2505,-0.311793 0.51101,-0.670245 0.79065,-1.113111 0.68094,-1.079077 1.45106,-2.553736 2.33319,-4.512903 0.1072,-0.238075 0.20509,-0.508281 0.30489,-0.772045 2.26538,-6.332415 2.358,-22.245671 2.358,-22.245671 z"
       style="display:inline;fill:#ffdf7e;stroke-width:12;stroke-linecap:round;stroke-linejoin:round;stroke-dashoffset:134.173;paint-order:stroke fill markers"
       id="path9" /></g></svg>
