<?xml version="1.0" encoding="UTF-8" standalone="no"?>
<!-- Created with Inkscape (http://www.inkscape.org/) -->

<svg
   width="210mm"
   height="297mm"
   viewBox="0 0 210 297"
   version="1.1"
   id="svg1"
   inkscape:version="1.3.1 (91b66b0783, 2023-11-16)"
   sodipodi:docname="deco-feather-frame.svg"
   xmlns:inkscape="http://www.inkscape.org/namespaces/inkscape"
   xmlns:sodipodi="http://sodipodi.sourceforge.net/DTD/sodipodi-0.dtd"
   xmlns="http://www.w3.org/2000/svg"
   xmlns:svg="http://www.w3.org/2000/svg">
  <sodipodi:namedview
     id="namedview1"
     pagecolor="#ffffff"
     bordercolor="#000000"
     borderopacity="0.25"
     inkscape:showpageshadow="2"
     inkscape:pageopacity="0.0"
     inkscape:pagecheckerboard="0"
     inkscape:deskcolor="#d1d1d1"
     inkscape:document-units="mm"
     inkscape:zoom="0.62270623"
     inkscape:cx="272.19898"
     inkscape:cy="336.43473"
     inkscape:current-layer="layer1" />
  <defs
     id="defs1" />
  <g
     inkscape:label="Layer 1"
     inkscape:groupmode="layer"
     id="layer1">
    <g
       id="g54"
       style="stroke:#4f1319;stroke-width:1;stroke-linecap:round;stroke-linejoin:round;stroke-dasharray:none;paint-order:fill markers stroke"
       transform="matrix(1,0,0,-1,164.83089,80.927165)">
      <path
         d="m 20.669539,59.426864 v -2.999817 c -3.313816,-8.3e-5 -6.000233,2.686334 -6.00015,6.00015 v 17.999935 h 6.00015 z"
         style="fill:#106e7d;stroke:#4f1319;stroke-width:1;stroke-linecap:round;stroke-linejoin:round;stroke-dasharray:none;paint-order:fill markers stroke"
         id="path30" />
      <path
         d="m 14.669389,80.427132 v -6.00015 c -0.0103,-2.133173 -1.152437,-4.100488 -2.999817,-5.167127 -0.68177,-0.4025 -1.434408,-0.664857 -2.2133017,-0.77463 -0.2596908,-0.03658 -0.5225623,-0.05617 -0.7865153,-0.05839 v 6.000151 6.00015 h 2.999817 z"
         style="fill:#ffe9a6;stroke:#4f1319;stroke-width:1;stroke-linecap:round;stroke-linejoin:round;stroke-dasharray:none;paint-order:fill markers stroke"
         id="path29" />
      <path
         d="m 20.669539,53.42723 c -4.970522,1.8e-5 -8.999949,4.029445 -8.999967,8.999967 v 6.832658 c 1.84738,1.066639 2.98952,3.033954 2.999817,5.167127 V 62.427197 c -8.3e-5,-3.313816 2.686334,-6.000233 6.00015,-6.00015 z"
         style="fill:#d6a206;stroke:#4f1319;stroke-width:1;stroke-linecap:round;stroke-linejoin:round;stroke-dasharray:none;paint-order:fill markers stroke"
         id="path28" />
      <path
         d="m 8.669755,68.426831 c 0.263953,0.0022 0.5268245,0.02182 0.7865153,0.05839 0.7788937,0.109773 1.5315317,0.37213 2.2133017,0.77463 v -6.832658 c 1.8e-5,-4.970522 4.029445,-8.999949 8.999967,-8.999967 -2.6e-5,-1.038027 0.145504,-2.039688 0.393258,-3.000334 H 20.669539 C 14.042115,50.427015 8.669588,55.799773 8.669755,62.427197 Z"
         style="fill:#86cfda;stroke:#4f1319;stroke-width:1;stroke-linecap:round;stroke-linejoin:round;stroke-dasharray:none;paint-order:fill markers stroke"
         id="path27" />
      <path
         d="M 26.669173,80.427132 A 18,18 0 0 1 32.669324,67.077043 V 50.426896 47.427079 c -3.313816,-8.3e-5 -6.000234,2.686335 -6.000151,6.000151 z"
         style="fill:#106e7d;stroke:#4f1319;stroke-width:1;stroke-linecap:round;stroke-linejoin:round;stroke-dasharray:none;paint-order:fill markers stroke"
         id="path33" />
      <path
         d="M 26.669173,65.427014 V 53.42723 c -8.3e-5,-3.313816 2.686335,-6.000234 6.000151,-6.000151 v -2.999817 c -4.970523,1.8e-5 -8.99995,4.029445 -8.999968,8.999968 v 6.832658 c 1.84738,1.066639 2.989521,3.033953 2.999817,5.167126 z"
         style="fill:#d6a206;stroke:#4f1319;stroke-width:1;stroke-linecap:round;stroke-linejoin:round;stroke-dasharray:none;paint-order:fill markers stroke"
         id="path32" />
      <path
         d="M 26.669173,80.427132 V 65.427014 c -0.0103,-2.133173 -1.152437,-4.100487 -2.999817,-5.167126 -0.909221,-0.536783 -1.944005,-0.824124 -2.999817,-0.833024 v 21.000268 z"
         style="fill:#ffe9a6;stroke:#4f1319;stroke-width:1;stroke-linecap:round;stroke-linejoin:round;stroke-dasharray:none;paint-order:fill markers stroke"
         id="path31" />
      <path
         d="m 32.669324,41.426929 c -5.589375,10e-5 -10.272466,3.827261 -11.606527,8.999967 -0.247753,0.960642 -0.393284,1.962311 -0.393258,3.000334 v 5.999634 c 1.05581,0.0089 2.090598,0.296242 2.999817,0.833024 V 53.42723 c 1.8e-5,-4.970503 4.029465,-8.99995 8.999968,-8.999968 -2.6e-5,-1.038045 0.145494,-2.039673 0.393257,-3.000333 z"
         style="fill:#86cfda;stroke:#4f1319;stroke-width:1;stroke-linecap:round;stroke-linejoin:round;stroke-dasharray:none;paint-order:fill markers stroke"
         id="path26" />
      <path
         d="m 44.669108,35.427295 c -2.174603,8e-6 -4.168993,0.771274 -5.724715,2.055172 -0.222246,0.183414 -0.435653,0.377775 -0.639238,0.581359 -1.628513,1.628651 -2.636005,3.878313 -2.636014,6.363436 v 6.832658 c 1.847379,1.066639 2.98952,3.033954 2.999817,5.167127 V 44.427262 c -8.4e-5,-3.313816 2.686334,-6.000233 6.00015,-6.00015 z"
         style="fill:#d6a206;stroke:#4f1319;stroke-width:1;stroke-linecap:round;stroke-linejoin:round;stroke-dasharray:none;paint-order:fill markers stroke"
         id="path39" />
      <path
         d="m 44.669108,38.427112 c -3.313816,-8.3e-5 -6.000234,2.686334 -6.00015,6.00015 v 19.062403 a 18,18 0 0 1 6.00015,-1.062468 z"
         style="fill:#106e7d;stroke:#4f1319;stroke-width:1;stroke-linecap:round;stroke-linejoin:round;stroke-dasharray:none;paint-order:fill markers stroke"
         id="path38" />
      <path
         d="m 35.669141,51.25992 c -0.909222,-0.536782 -1.944005,-0.824124 -2.999817,-0.833024 v 16.650147 a 18,18 0 0 1 5.999634,-3.587378 v -7.062618 c -0.0103,-2.133173 -1.152438,-4.100488 -2.999817,-5.167127 z"
         style="fill:#ffe9a6;stroke:#4f1319;stroke-width:1;stroke-linecap:round;stroke-linejoin:round;stroke-dasharray:none;paint-order:fill markers stroke"
         id="path37" />
      <path
         d="m 44.669108,32.426961 c -5.589363,1.01e-4 -10.272441,3.827282 -11.606527,8.999968 -0.247763,0.96066 -0.393283,1.962288 -0.393257,3.000333 v 5.999634 c 0.527902,0.0044 1.050621,0.07855 1.554944,0.218591 0.504322,0.140045 0.990264,0.346043 1.444873,0.614433 v -6.832658 c 3e-6,-0.931971 0.141663,-1.83088 0.404626,-2.676322 0.175309,-0.563628 0.404512,-1.103247 0.681612,-1.613338 1.524048,-2.805504 4.496502,-4.710295 7.913729,-4.710307 z"
         style="fill:#86cfda;stroke:#4f1319;stroke-width:1;stroke-linecap:round;stroke-linejoin:round;stroke-dasharray:none;paint-order:fill markers stroke"
         id="path25" />
      <path
         d="m 44.669108,62.427197 c -2.045893,0.01059 -4.07502,0.369891 -6.00015,1.062468 -2.21508,0.79224 -4.253404,2.011021 -5.999634,3.587378 -3.800667,3.39928 -5.981295,8.251088 -6.000151,13.350089 h 5.999634 l 5.17e-4,-0.0052 c 0.02243,-4.264492 2.306466,-8.196739 5.999634,-10.329086 1.818647,-1.073475 3.888392,-1.647998 6.00015,-1.665531 z"
         style="fill:#86cfda;stroke:#4f1319;stroke-width:1;stroke-linecap:round;stroke-linejoin:round;stroke-dasharray:none;paint-order:fill markers stroke"
         id="path34" />
      <path
         d="m 44.669108,68.427348 c -2.111758,0.01753 -4.181503,0.592056 -6.00015,1.665531 -3.693176,2.132351 -5.977208,6.064586 -5.999634,10.329086 v 0.0052 h 5.999634 c -8.4e-5,-3.313861 2.686348,-6.000293 6.00015,-6.00015 z"
         style="fill:#d6a206;stroke:#4f1319;stroke-width:1;stroke-linecap:round;stroke-linejoin:round;stroke-dasharray:none;paint-order:fill markers stroke"
         id="path35" />
      <path
         d="m 44.669108,74.426982 a 5.9998922,6 0 0 0 -6.00015,6.00015 h 6.00015 z"
         style="fill:#106e7d;stroke:#4f1319;stroke-width:1;stroke-linecap:round;stroke-linejoin:round;stroke-dasharray:none;paint-order:fill markers stroke"
         id="path36" />
      <path
         d="m 20.669539,59.426864 v -2.999817 c -3.313816,-8.3e-5 -6.000233,2.686334 -6.00015,6.00015 v 17.999935 h 6.00015 z"
         style="fill:#106e7d;stroke:#4f1319;stroke-width:1;stroke-linecap:round;stroke-linejoin:round;stroke-dasharray:none;paint-order:fill markers stroke"
         id="path40" />
      <path
         d="m 14.669389,80.427132 v -6.00015 c -0.0103,-2.133173 -1.152437,-4.100488 -2.999817,-5.167127 -0.68177,-0.4025 -1.434408,-0.664857 -2.2133017,-0.77463 -0.2596908,-0.03658 -0.5225623,-0.05617 -0.7865153,-0.05839 v 6.000151 6.00015 h 2.999817 z"
         style="fill:#ffe9a6;stroke:#4f1319;stroke-width:1;stroke-linecap:round;stroke-linejoin:round;stroke-dasharray:none;paint-order:fill markers stroke"
         id="path41" />
      <path
         d="m 20.669539,53.42723 c -4.970522,1.8e-5 -8.999949,4.029445 -8.999967,8.999967 v 6.832658 c 1.84738,1.066639 2.98952,3.033954 2.999817,5.167127 V 62.427197 c -8.3e-5,-3.313816 2.686334,-6.000233 6.00015,-6.00015 z"
         style="fill:#d6a206;stroke:#4f1319;stroke-width:1;stroke-linecap:round;stroke-linejoin:round;stroke-dasharray:none;paint-order:fill markers stroke"
         id="path42" />
      <path
         d="m 8.669755,68.426831 c 0.263953,0.0022 0.5268245,0.02182 0.7865153,0.05839 0.7788937,0.109773 1.5315317,0.37213 2.2133017,0.77463 v -6.832658 c 1.8e-5,-4.970522 4.029445,-8.999949 8.999967,-8.999967 -2.6e-5,-1.038027 0.145504,-2.039688 0.393258,-3.000334 H 20.669539 C 14.042115,50.427015 8.669588,55.799773 8.669755,62.427197 Z"
         style="fill:#86cfda;stroke:#4f1319;stroke-width:1;stroke-linecap:round;stroke-linejoin:round;stroke-dasharray:none;paint-order:fill markers stroke"
         id="path43" />
      <path
         d="M 26.669173,80.427132 A 18,18 0 0 1 32.669324,67.077043 V 50.426896 47.427079 c -3.313816,-8.3e-5 -6.000234,2.686335 -6.000151,6.000151 z"
         style="fill:#106e7d;stroke:#4f1319;stroke-width:1;stroke-linecap:round;stroke-linejoin:round;stroke-dasharray:none;paint-order:fill markers stroke"
         id="path44" />
      <path
         d="M 26.669173,65.427014 V 53.42723 c -8.3e-5,-3.313816 2.686335,-6.000234 6.000151,-6.000151 v -2.999817 c -4.970523,1.8e-5 -8.99995,4.029445 -8.999968,8.999968 v 6.832658 c 1.84738,1.066639 2.989521,3.033953 2.999817,5.167126 z"
         style="fill:#d6a206;stroke:#4f1319;stroke-width:1;stroke-linecap:round;stroke-linejoin:round;stroke-dasharray:none;paint-order:fill markers stroke"
         id="path45" />
      <path
         d="M 26.669173,80.427132 V 65.427014 c -0.0103,-2.133173 -1.152437,-4.100487 -2.999817,-5.167126 -0.909221,-0.536783 -1.944005,-0.824124 -2.999817,-0.833024 v 21.000268 z"
         style="fill:#ffe9a6;stroke:#4f1319;stroke-width:1;stroke-linecap:round;stroke-linejoin:round;stroke-dasharray:none;paint-order:fill markers stroke"
         id="path46" />
      <path
         d="m 32.669324,41.426929 c -5.589375,10e-5 -10.272466,3.827261 -11.606527,8.999967 -0.247753,0.960642 -0.393284,1.962311 -0.393258,3.000334 v 5.999634 c 1.05581,0.0089 2.090598,0.296242 2.999817,0.833024 V 53.42723 c 1.8e-5,-4.970503 4.029465,-8.99995 8.999968,-8.999968 -2.6e-5,-1.038045 0.145494,-2.039673 0.393257,-3.000333 z"
         style="fill:#86cfda;stroke:#4f1319;stroke-width:1;stroke-linecap:round;stroke-linejoin:round;stroke-dasharray:none;paint-order:fill markers stroke"
         id="path47" />
      <path
         d="m 44.669108,35.427295 c -2.174603,8e-6 -4.168993,0.771274 -5.724715,2.055172 -0.222246,0.183414 -0.435653,0.377775 -0.639238,0.581359 -1.628513,1.628651 -2.636005,3.878313 -2.636014,6.363436 v 6.832658 c 1.847379,1.066639 2.98952,3.033954 2.999817,5.167127 V 44.427262 c -8.4e-5,-3.313816 2.686334,-6.000233 6.00015,-6.00015 z"
         style="fill:#d6a206;stroke:#4f1319;stroke-width:1;stroke-linecap:round;stroke-linejoin:round;stroke-dasharray:none;paint-order:fill markers stroke"
         id="path48" />
      <path
         d="m 44.669108,38.427112 c -3.313816,-8.3e-5 -6.000234,2.686334 -6.00015,6.00015 v 19.062403 a 18,18 0 0 1 6.00015,-1.062468 z"
         style="fill:#106e7d;stroke:#4f1319;stroke-width:1;stroke-linecap:round;stroke-linejoin:round;stroke-dasharray:none;paint-order:fill markers stroke"
         id="path49" />
      <path
         d="m 35.669141,51.25992 c -0.909222,-0.536782 -1.944005,-0.824124 -2.999817,-0.833024 v 16.650147 a 18,18 0 0 1 5.999634,-3.587378 v -7.062618 c -0.0103,-2.133173 -1.152438,-4.100488 -2.999817,-5.167127 z"
         style="fill:#ffe9a6;stroke:#4f1319;stroke-width:1;stroke-linecap:round;stroke-linejoin:round;stroke-dasharray:none;paint-order:fill markers stroke"
         id="path50" />
      <path
         d="m 44.669108,32.426961 c -5.589363,1.01e-4 -10.272441,3.827282 -11.606527,8.999968 -0.247763,0.96066 -0.393283,1.962288 -0.393257,3.000333 v 5.999634 c 0.527902,0.0044 1.050621,0.07855 1.554944,0.218591 0.504322,0.140045 0.990264,0.346043 1.444873,0.614433 v -6.832658 c 3e-6,-0.931971 0.141663,-1.83088 0.404626,-2.676322 0.175309,-0.563628 0.404512,-1.103247 0.681612,-1.613338 1.524048,-2.805504 4.496502,-4.710295 7.913729,-4.710307 z"
         style="fill:#86cfda;stroke:#4f1319;stroke-width:1;stroke-linecap:round;stroke-linejoin:round;stroke-dasharray:none;paint-order:fill markers stroke"
         id="path51" />
      <path
         d="m 44.669108,62.427197 c -2.045893,0.01059 -4.07502,0.369891 -6.00015,1.062468 -2.21508,0.79224 -4.253404,2.011021 -5.999634,3.587378 -3.800667,3.39928 -5.981295,8.251088 -6.000151,13.350089 h 5.999634 l 5.17e-4,-0.0052 c 0.02243,-4.264492 2.306466,-8.196739 5.999634,-10.329086 1.818647,-1.073475 3.888392,-1.647998 6.00015,-1.665531 z"
         style="fill:#86cfda;stroke:#4f1319;stroke-width:1;stroke-linecap:round;stroke-linejoin:round;stroke-dasharray:none;paint-order:fill markers stroke"
         id="path52" />
      <path
         d="m 44.669108,68.427348 c -2.111758,0.01753 -4.181503,0.592056 -6.00015,1.665531 -3.693176,2.132351 -5.977208,6.064586 -5.999634,10.329086 v 0.0052 h 5.999634 c -8.4e-5,-3.313861 2.686348,-6.000293 6.00015,-6.00015 z"
         style="fill:#d6a206;stroke:#4f1319;stroke-width:1;stroke-linecap:round;stroke-linejoin:round;stroke-dasharray:none;paint-order:fill markers stroke"
         id="path53" />
      <path
         d="m 44.669108,74.426982 a 5.9998922,6 0 0 0 -6.00015,6.00015 h 6.00015 z"
         style="fill:#106e7d;stroke:#4f1319;stroke-width:1;stroke-linecap:round;stroke-linejoin:round;stroke-dasharray:none;paint-order:fill markers stroke"
         id="path54" />
    </g>
    <g
       id="g84"
       style="stroke:#4f1319;stroke-width:1;stroke-linecap:round;stroke-linejoin:round;stroke-dasharray:none;paint-order:fill markers stroke"
       transform="rotate(180,22.584554,40.463582)">
      <path
         d="m 20.669539,59.426864 v -2.999817 c -3.313816,-8.3e-5 -6.000233,2.686334 -6.00015,6.00015 v 17.999935 h 6.00015 z"
         style="fill:#106e7d;stroke:#4f1319;stroke-width:1;stroke-linecap:round;stroke-linejoin:round;stroke-dasharray:none;paint-order:fill markers stroke"
         id="path55" />
      <path
         d="m 14.669389,80.427132 v -6.00015 c -0.0103,-2.133173 -1.152437,-4.100488 -2.999817,-5.167127 -0.68177,-0.4025 -1.434408,-0.664857 -2.2133017,-0.77463 -0.2596908,-0.03658 -0.5225623,-0.05617 -0.7865153,-0.05839 v 6.000151 6.00015 h 2.999817 z"
         style="fill:#ffe9a6;stroke:#4f1319;stroke-width:1;stroke-linecap:round;stroke-linejoin:round;stroke-dasharray:none;paint-order:fill markers stroke"
         id="path56" />
      <path
         d="m 20.669539,53.42723 c -4.970522,1.8e-5 -8.999949,4.029445 -8.999967,8.999967 v 6.832658 c 1.84738,1.066639 2.98952,3.033954 2.999817,5.167127 V 62.427197 c -8.3e-5,-3.313816 2.686334,-6.000233 6.00015,-6.00015 z"
         style="fill:#d6a206;stroke:#4f1319;stroke-width:1;stroke-linecap:round;stroke-linejoin:round;stroke-dasharray:none;paint-order:fill markers stroke"
         id="path57" />
      <path
         d="m 8.669755,68.426831 c 0.263953,0.0022 0.5268245,0.02182 0.7865153,0.05839 0.7788937,0.109773 1.5315317,0.37213 2.2133017,0.77463 v -6.832658 c 1.8e-5,-4.970522 4.029445,-8.999949 8.999967,-8.999967 -2.6e-5,-1.038027 0.145504,-2.039688 0.393258,-3.000334 H 20.669539 C 14.042115,50.427015 8.669588,55.799773 8.669755,62.427197 Z"
         style="fill:#86cfda;stroke:#4f1319;stroke-width:1;stroke-linecap:round;stroke-linejoin:round;stroke-dasharray:none;paint-order:fill markers stroke"
         id="path58" />
      <path
         d="M 26.669173,80.427132 A 18,18 0 0 1 32.669324,67.077043 V 50.426896 47.427079 c -3.313816,-8.3e-5 -6.000234,2.686335 -6.000151,6.000151 z"
         style="fill:#106e7d;stroke:#4f1319;stroke-width:1;stroke-linecap:round;stroke-linejoin:round;stroke-dasharray:none;paint-order:fill markers stroke"
         id="path59" />
      <path
         d="M 26.669173,65.427014 V 53.42723 c -8.3e-5,-3.313816 2.686335,-6.000234 6.000151,-6.000151 v -2.999817 c -4.970523,1.8e-5 -8.99995,4.029445 -8.999968,8.999968 v 6.832658 c 1.84738,1.066639 2.989521,3.033953 2.999817,5.167126 z"
         style="fill:#d6a206;stroke:#4f1319;stroke-width:1;stroke-linecap:round;stroke-linejoin:round;stroke-dasharray:none;paint-order:fill markers stroke"
         id="path60" />
      <path
         d="M 26.669173,80.427132 V 65.427014 c -0.0103,-2.133173 -1.152437,-4.100487 -2.999817,-5.167126 -0.909221,-0.536783 -1.944005,-0.824124 -2.999817,-0.833024 v 21.000268 z"
         style="fill:#ffe9a6;stroke:#4f1319;stroke-width:1;stroke-linecap:round;stroke-linejoin:round;stroke-dasharray:none;paint-order:fill markers stroke"
         id="path61" />
      <path
         d="m 32.669324,41.426929 c -5.589375,10e-5 -10.272466,3.827261 -11.606527,8.999967 -0.247753,0.960642 -0.393284,1.962311 -0.393258,3.000334 v 5.999634 c 1.05581,0.0089 2.090598,0.296242 2.999817,0.833024 V 53.42723 c 1.8e-5,-4.970503 4.029465,-8.99995 8.999968,-8.999968 -2.6e-5,-1.038045 0.145494,-2.039673 0.393257,-3.000333 z"
         style="fill:#86cfda;stroke:#4f1319;stroke-width:1;stroke-linecap:round;stroke-linejoin:round;stroke-dasharray:none;paint-order:fill markers stroke"
         id="path62" />
      <path
         d="m 44.669108,35.427295 c -2.174603,8e-6 -4.168993,0.771274 -5.724715,2.055172 -0.222246,0.183414 -0.435653,0.377775 -0.639238,0.581359 -1.628513,1.628651 -2.636005,3.878313 -2.636014,6.363436 v 6.832658 c 1.847379,1.066639 2.98952,3.033954 2.999817,5.167127 V 44.427262 c -8.4e-5,-3.313816 2.686334,-6.000233 6.00015,-6.00015 z"
         style="fill:#d6a206;stroke:#4f1319;stroke-width:1;stroke-linecap:round;stroke-linejoin:round;stroke-dasharray:none;paint-order:fill markers stroke"
         id="path63" />
      <path
         d="m 44.669108,38.427112 c -3.313816,-8.3e-5 -6.000234,2.686334 -6.00015,6.00015 v 19.062403 a 18,18 0 0 1 6.00015,-1.062468 z"
         style="fill:#106e7d;stroke:#4f1319;stroke-width:1;stroke-linecap:round;stroke-linejoin:round;stroke-dasharray:none;paint-order:fill markers stroke"
         id="path64" />
      <path
         d="m 35.669141,51.25992 c -0.909222,-0.536782 -1.944005,-0.824124 -2.999817,-0.833024 v 16.650147 a 18,18 0 0 1 5.999634,-3.587378 v -7.062618 c -0.0103,-2.133173 -1.152438,-4.100488 -2.999817,-5.167127 z"
         style="fill:#ffe9a6;stroke:#4f1319;stroke-width:1;stroke-linecap:round;stroke-linejoin:round;stroke-dasharray:none;paint-order:fill markers stroke"
         id="path65" />
      <path
         d="m 44.669108,32.426961 c -5.589363,1.01e-4 -10.272441,3.827282 -11.606527,8.999968 -0.247763,0.96066 -0.393283,1.962288 -0.393257,3.000333 v 5.999634 c 0.527902,0.0044 1.050621,0.07855 1.554944,0.218591 0.504322,0.140045 0.990264,0.346043 1.444873,0.614433 v -6.832658 c 3e-6,-0.931971 0.141663,-1.83088 0.404626,-2.676322 0.175309,-0.563628 0.404512,-1.103247 0.681612,-1.613338 1.524048,-2.805504 4.496502,-4.710295 7.913729,-4.710307 z"
         style="fill:#86cfda;stroke:#4f1319;stroke-width:1;stroke-linecap:round;stroke-linejoin:round;stroke-dasharray:none;paint-order:fill markers stroke"
         id="path66" />
      <path
         d="m 44.669108,62.427197 c -2.045893,0.01059 -4.07502,0.369891 -6.00015,1.062468 -2.21508,0.79224 -4.253404,2.011021 -5.999634,3.587378 -3.800667,3.39928 -5.981295,8.251088 -6.000151,13.350089 h 5.999634 l 5.17e-4,-0.0052 c 0.02243,-4.264492 2.306466,-8.196739 5.999634,-10.329086 1.818647,-1.073475 3.888392,-1.647998 6.00015,-1.665531 z"
         style="fill:#86cfda;stroke:#4f1319;stroke-width:1;stroke-linecap:round;stroke-linejoin:round;stroke-dasharray:none;paint-order:fill markers stroke"
         id="path67" />
      <path
         d="m 44.669108,68.427348 c -2.111758,0.01753 -4.181503,0.592056 -6.00015,1.665531 -3.693176,2.132351 -5.977208,6.064586 -5.999634,10.329086 v 0.0052 h 5.999634 c -8.4e-5,-3.313861 2.686348,-6.000293 6.00015,-6.00015 z"
         style="fill:#d6a206;stroke:#4f1319;stroke-width:1;stroke-linecap:round;stroke-linejoin:round;stroke-dasharray:none;paint-order:fill markers stroke"
         id="path68" />
      <path
         d="m 44.669108,74.426982 a 5.9998922,6 0 0 0 -6.00015,6.00015 h 6.00015 z"
         style="fill:#106e7d;stroke:#4f1319;stroke-width:1;stroke-linecap:round;stroke-linejoin:round;stroke-dasharray:none;paint-order:fill markers stroke"
         id="path69" />
      <path
         d="m 20.669539,59.426864 v -2.999817 c -3.313816,-8.3e-5 -6.000233,2.686334 -6.00015,6.00015 v 17.999935 h 6.00015 z"
         style="fill:#106e7d;stroke:#4f1319;stroke-width:1;stroke-linecap:round;stroke-linejoin:round;stroke-dasharray:none;paint-order:fill markers stroke"
         id="path70" />
      <path
         d="m 14.669389,80.427132 v -6.00015 c -0.0103,-2.133173 -1.152437,-4.100488 -2.999817,-5.167127 -0.68177,-0.4025 -1.434408,-0.664857 -2.2133017,-0.77463 -0.2596908,-0.03658 -0.5225623,-0.05617 -0.7865153,-0.05839 v 6.000151 6.00015 h 2.999817 z"
         style="fill:#ffe9a6;stroke:#4f1319;stroke-width:1;stroke-linecap:round;stroke-linejoin:round;stroke-dasharray:none;paint-order:fill markers stroke"
         id="path71" />
      <path
         d="m 20.669539,53.42723 c -4.970522,1.8e-5 -8.999949,4.029445 -8.999967,8.999967 v 6.832658 c 1.84738,1.066639 2.98952,3.033954 2.999817,5.167127 V 62.427197 c -8.3e-5,-3.313816 2.686334,-6.000233 6.00015,-6.00015 z"
         style="fill:#d6a206;stroke:#4f1319;stroke-width:1;stroke-linecap:round;stroke-linejoin:round;stroke-dasharray:none;paint-order:fill markers stroke"
         id="path72" />
      <path
         d="m 8.669755,68.426831 c 0.263953,0.0022 0.5268245,0.02182 0.7865153,0.05839 0.7788937,0.109773 1.5315317,0.37213 2.2133017,0.77463 v -6.832658 c 1.8e-5,-4.970522 4.029445,-8.999949 8.999967,-8.999967 -2.6e-5,-1.038027 0.145504,-2.039688 0.393258,-3.000334 H 20.669539 C 14.042115,50.427015 8.669588,55.799773 8.669755,62.427197 Z"
         style="fill:#86cfda;stroke:#4f1319;stroke-width:1;stroke-linecap:round;stroke-linejoin:round;stroke-dasharray:none;paint-order:fill markers stroke"
         id="path73" />
      <path
         d="M 26.669173,80.427132 A 18,18 0 0 1 32.669324,67.077043 V 50.426896 47.427079 c -3.313816,-8.3e-5 -6.000234,2.686335 -6.000151,6.000151 z"
         style="fill:#106e7d;stroke:#4f1319;stroke-width:1;stroke-linecap:round;stroke-linejoin:round;stroke-dasharray:none;paint-order:fill markers stroke"
         id="path74" />
      <path
         d="M 26.669173,65.427014 V 53.42723 c -8.3e-5,-3.313816 2.686335,-6.000234 6.000151,-6.000151 v -2.999817 c -4.970523,1.8e-5 -8.99995,4.029445 -8.999968,8.999968 v 6.832658 c 1.84738,1.066639 2.989521,3.033953 2.999817,5.167126 z"
         style="fill:#d6a206;stroke:#4f1319;stroke-width:1;stroke-linecap:round;stroke-linejoin:round;stroke-dasharray:none;paint-order:fill markers stroke"
         id="path75" />
      <path
         d="M 26.669173,80.427132 V 65.427014 c -0.0103,-2.133173 -1.152437,-4.100487 -2.999817,-5.167126 -0.909221,-0.536783 -1.944005,-0.824124 -2.999817,-0.833024 v 21.000268 z"
         style="fill:#ffe9a6;stroke:#4f1319;stroke-width:1;stroke-linecap:round;stroke-linejoin:round;stroke-dasharray:none;paint-order:fill markers stroke"
         id="path76" />
      <path
         d="m 32.669324,41.426929 c -5.589375,10e-5 -10.272466,3.827261 -11.606527,8.999967 -0.247753,0.960642 -0.393284,1.962311 -0.393258,3.000334 v 5.999634 c 1.05581,0.0089 2.090598,0.296242 2.999817,0.833024 V 53.42723 c 1.8e-5,-4.970503 4.029465,-8.99995 8.999968,-8.999968 -2.6e-5,-1.038045 0.145494,-2.039673 0.393257,-3.000333 z"
         style="fill:#86cfda;stroke:#4f1319;stroke-width:1;stroke-linecap:round;stroke-linejoin:round;stroke-dasharray:none;paint-order:fill markers stroke"
         id="path77" />
      <path
         d="m 44.669108,35.427295 c -2.174603,8e-6 -4.168993,0.771274 -5.724715,2.055172 -0.222246,0.183414 -0.435653,0.377775 -0.639238,0.581359 -1.628513,1.628651 -2.636005,3.878313 -2.636014,6.363436 v 6.832658 c 1.847379,1.066639 2.98952,3.033954 2.999817,5.167127 V 44.427262 c -8.4e-5,-3.313816 2.686334,-6.000233 6.00015,-6.00015 z"
         style="fill:#d6a206;stroke:#4f1319;stroke-width:1;stroke-linecap:round;stroke-linejoin:round;stroke-dasharray:none;paint-order:fill markers stroke"
         id="path78" />
      <path
         d="m 44.669108,38.427112 c -3.313816,-8.3e-5 -6.000234,2.686334 -6.00015,6.00015 v 19.062403 a 18,18 0 0 1 6.00015,-1.062468 z"
         style="fill:#106e7d;stroke:#4f1319;stroke-width:1;stroke-linecap:round;stroke-linejoin:round;stroke-dasharray:none;paint-order:fill markers stroke"
         id="path79" />
      <path
         d="m 35.669141,51.25992 c -0.909222,-0.536782 -1.944005,-0.824124 -2.999817,-0.833024 v 16.650147 a 18,18 0 0 1 5.999634,-3.587378 v -7.062618 c -0.0103,-2.133173 -1.152438,-4.100488 -2.999817,-5.167127 z"
         style="fill:#ffe9a6;stroke:#4f1319;stroke-width:1;stroke-linecap:round;stroke-linejoin:round;stroke-dasharray:none;paint-order:fill markers stroke"
         id="path80" />
      <path
         d="m 44.669108,32.426961 c -5.589363,1.01e-4 -10.272441,3.827282 -11.606527,8.999968 -0.247763,0.96066 -0.393283,1.962288 -0.393257,3.000333 v 5.999634 c 0.527902,0.0044 1.050621,0.07855 1.554944,0.218591 0.504322,0.140045 0.990264,0.346043 1.444873,0.614433 v -6.832658 c 3e-6,-0.931971 0.141663,-1.83088 0.404626,-2.676322 0.175309,-0.563628 0.404512,-1.103247 0.681612,-1.613338 1.524048,-2.805504 4.496502,-4.710295 7.913729,-4.710307 z"
         style="fill:#86cfda;stroke:#4f1319;stroke-width:1;stroke-linecap:round;stroke-linejoin:round;stroke-dasharray:none;paint-order:fill markers stroke"
         id="path81" />
      <path
         d="m 44.669108,62.427197 c -2.045893,0.01059 -4.07502,0.369891 -6.00015,1.062468 -2.21508,0.79224 -4.253404,2.011021 -5.999634,3.587378 -3.800667,3.39928 -5.981295,8.251088 -6.000151,13.350089 h 5.999634 l 5.17e-4,-0.0052 c 0.02243,-4.264492 2.306466,-8.196739 5.999634,-10.329086 1.818647,-1.073475 3.888392,-1.647998 6.00015,-1.665531 z"
         style="fill:#86cfda;stroke:#4f1319;stroke-width:1;stroke-linecap:round;stroke-linejoin:round;stroke-dasharray:none;paint-order:fill markers stroke"
         id="path82" />
      <path
         d="m 44.669108,68.427348 c -2.111758,0.01753 -4.181503,0.592056 -6.00015,1.665531 -3.693176,2.132351 -5.977208,6.064586 -5.999634,10.329086 v 0.0052 h 5.999634 c -8.4e-5,-3.313861 2.686348,-6.000293 6.00015,-6.00015 z"
         style="fill:#d6a206;stroke:#4f1319;stroke-width:1;stroke-linecap:round;stroke-linejoin:round;stroke-dasharray:none;paint-order:fill markers stroke"
         id="path83" />
      <path
         d="m 44.669108,74.426982 a 5.9998922,6 0 0 0 -6.00015,6.00015 h 6.00015 z"
         style="fill:#106e7d;stroke:#4f1319;stroke-width:1;stroke-linecap:round;stroke-linejoin:round;stroke-dasharray:none;paint-order:fill markers stroke"
         id="path84" />
    </g>
  </g>
</svg>
