<?xml version="1.0" encoding="UTF-8" standalone="no"?>
<!-- Created with Inkscape (http://www.inkscape.org/) -->

<svg
   width="36in"
   height="5.9999995in"
   viewBox="0 0 914.40001 152.39999"
   version="1.1"
   id="svg1"
   inkscape:version="1.3.2 (091e20e, 2023-11-25, custom)"
   sodipodi:docname="don-your-vegetables.svg"
   xml:space="preserve"
   xmlns:inkscape="http://www.inkscape.org/namespaces/inkscape"
   xmlns:sodipodi="http://sodipodi.sourceforge.net/DTD/sodipodi-0.dtd"
   xmlns="http://www.w3.org/2000/svg"
   xmlns:svg="http://www.w3.org/2000/svg"><sodipodi:namedview
     id="namedview1"
     pagecolor="#505050"
     bordercolor="#eeeeee"
     borderopacity="1"
     inkscape:showpageshadow="0"
     inkscape:pageopacity="0"
     inkscape:pagecheckerboard="0"
     inkscape:deskcolor="#505050"
     inkscape:document-units="in"
     inkscape:zoom="0.16413966"
     inkscape:cx="1727.1877"
     inkscape:cy="289.38771"
     inkscape:current-layer="layer3"><inkscape:page
       x="1.4065279e-06"
       y="0"
       width="914.40002"
       height="152.39999"
       id="page49"
       margin="0"
       bleed="0" /></sodipodi:namedview><defs
     id="defs1"><inkscape:path-effect
       effect="lattice2"
       gridpoint0="855.28008,-3.5527137e-15"
       gridpoint1="1298.3197,-3.5527137e-15"
       gridpoint2="855.28007,111.7601"
       gridpoint3="1298.3197,111.7601"
       gridpoint4="966.04,-3.5527137e-15"
       gridpoint5="1187.5598,-3.5527137e-15"
       gridpoint6="984.20572,159.64132"
       gridpoint7="1169.3941,159.64132"
       gridpoint8x9="1076.7999,0"
       gridpoint10x11="1076.8,171.03042"
       gridpoint12="855.2801,27.940025"
       gridpoint13="1298.3197,27.940025"
       gridpoint14="855.2801,83.820075"
       gridpoint15="1298.3197,83.820075"
       gridpoint16="966.04,27.940025"
       gridpoint17="1187.5598,27.940025"
       gridpoint18="966.04,83.820075"
       gridpoint19="1187.5598,83.820075"
       gridpoint20x21="1076.7999,27.940025"
       gridpoint22x23="1076.7999,83.820075"
       gridpoint24x26="855.2801,55.88005"
       gridpoint25x27="1298.3197,55.88005"
       gridpoint28x30="966.04,55.88005"
       gridpoint29x31="1187.5598,55.88005"
       gridpoint32x33x34x35="1076.7999,55.88005"
       id="path-effect10"
       is_visible="true"
       lpeversion="1"
       horizontal_mirror="false"
       vertical_mirror="true"
       perimetral="true"
       live_update="true" /><inkscape:path-effect
       effect="envelope"
       id="path-effect9"
       is_visible="true"
       lpeversion="1"
       yy="true"
       xx="true"
       bendpath1="m 855.2801,0 h 443.0396"
       bendpath2="M 1298.3197,0 V 111.7601"
       bendpath3="m 855.2801,111.7601 c 0,116.83991 443.0396,116.83991 443.0396,0"
       bendpath4="M 855.2801,0 V 111.7601"
       bendpath3-nodetypes="cc"
       bendpath2-nodetypes="cc" /><inkscape:path-effect
       effect="bend_path"
       id="path-effect5"
       is_visible="true"
       lpeversion="1"
       bendpath="M 38.099998,139.7 C 381,190.5 381,0 723.90002,50.799999"
       prop_scale="1"
       scale_y_rel="false"
       vertical="false"
       hide_knot="false"
       bendpath-nodetypes="cc" /><inkscape:path-effect
       effect="lattice2"
       gridpoint0="49.252804,100.01878"
       gridpoint1="712.7472,100.01878"
       gridpoint2="49.252804,138.98238"
       gridpoint3="712.7472,138.98238"
       gridpoint4="215.1264,100.01878"
       gridpoint5="546.8736,100.01878"
       gridpoint6="215.1264,138.98238"
       gridpoint7="546.8736,138.98238"
       gridpoint8x9="381,100.01878"
       gridpoint10x11="381,138.98238"
       gridpoint12="49.252804,109.75968"
       gridpoint13="712.7472,109.75968"
       gridpoint14="49.252804,129.24148"
       gridpoint15="712.7472,129.24148"
       gridpoint16="215.1264,109.75968"
       gridpoint17="546.8736,109.75968"
       gridpoint18="215.1264,129.24148"
       gridpoint19="546.8736,129.24148"
       gridpoint20x21="381,109.75968"
       gridpoint22x23="381,129.24148"
       gridpoint24x26="49.252804,119.50058"
       gridpoint25x27="712.75,119.50058"
       gridpoint28x30="215.1264,119.50058"
       gridpoint29x31="546.8736,119.50058"
       gridpoint32x33x34x35="381,119.50058"
       id="path-effect4"
       is_visible="true"
       lpeversion="1"
       horizontal_mirror="false"
       vertical_mirror="false"
       perimetral="false"
       live_update="false" /><inkscape:path-effect
       effect="bend_path"
       id="path-effect3"
       is_visible="true"
       lpeversion="1"
       bendpath="M 36.981735,154.66941 C 379.88174,230.8694 379.88174,2.2693982 722.78176,78.469395"
       prop_scale="1"
       scale_y_rel="false"
       vertical="false"
       hide_knot="false"
       bendpath-nodetypes="cc" /></defs><g
     inkscape:groupmode="layer"
     id="layer3"
     inkscape:label="RUSTIC"
     style="display:inline"
     transform="translate(-797.40002)"><g
       id="g54"
       inkscape:label="rustic wood piece"
       style="display:none"><path
         d="m 921.36237,0 c -8.77274,0 -38.52369,2.8306557 -66.73339,5.6477173 l -54.23959,5.7820757 c -1.61516,0.08559 -2.90464,1.354686 -2.88561,5.41414 0.019,4.059454 -0.0131,8.450463 0.30903,11.768791 0.16109,1.659163 0.39937,3.07487 0.93586,4.412134 0.53647,1.337265 1.48591,2.607571 2.71508,3.423047 2.45835,1.63095 5.05748,1.636951 7.16207,3.299678 2.10458,1.662727 1.45125,2.020077 0.90978,2.922164 -0.54145,0.902086 -0.55109,2.357509 -0.18293,3.176034 0.73634,1.63705 1.56087,1.819939 0.63309,2.552572 -0.92777,0.732633 -5.43828,1.271758 -6.33042,1.333495 -0.9688,0.06704 -1.81795,0.583935 -2.28099,1.047999 -0.46304,0.464062 -0.67511,0.876952 -0.83871,1.238167 -0.32719,0.722431 -0.44242,1.317779 -0.55087,1.980241 -1.23094,13.398168 1.1008,26.843314 2.23632,40.16344 0.0605,1.235538 -1.02754,10.323525 -3.49361,32.927185 -0.0186,1.38467 0.89641,2.61482 1.31224,3.05149 -0.18919,0.13754 -0.37695,2.94705 -1.08486,6.22392 -0.70792,3.27686 -1.39814,7.30771 -1.03147,10.97866 0.10756,1.07684 0.72546,1.98394 1.30225,2.5063 0.57679,0.52236 1.13238,0.79813 1.67793,1.02371 1.09113,0.45117 2.21845,0.68117 3.55999,0.88005 2.68312,0.39775 6.17943,0.57064 10.39523,0.62735 8.43161,0.11343 19.64958,-0.28259 31.42599,-0.79581 11.77641,-0.51322 24.09887,-1.14439 34.61236,-1.50947 10.5135,-0.36509 19.36025,-0.42865 23.52983,0.061 5.38416,0.63228 19.88532,0.74343 39.83995,0.73484 19.95465,-0.009 44.97971,-0.19781 69.99938,-0.36949 25.0198,-0.17167 50.036,-0.32563 69.9466,-0.26562 19.9107,0.0601 35.1726,0.42439 39.0054,0.98702 5.2198,0.76623 15.5113,1.02957 28.5822,1.06402 13.071,0.0345 28.7237,-0.20529 43.848,-0.61805 15.1242,-0.41275 29.7127,-0.99736 40.6673,-1.65313 5.4771,-0.32788 10.0382,-0.67355 13.3562,-1.03146 1.6591,-0.17896 2.9978,-0.35502 4.066,-0.56017 0.534,-0.10256 0.991,-0.2052 1.4831,-0.36949 0.492,-0.1643 1.1339,0.0683 2.1585,-1.58595 -0.6481,1.04637 -0.5725,0.54002 0.033,0.32298 0.6057,-0.21704 1.6209,-0.48191 2.8453,-0.7152 2.4489,-0.46659 5.7621,-0.83719 9.1069,-1.00253 3.3448,-0.16534 6.7484,-0.12439 9.3581,0.16433 1.3049,0.14438 2.4134,0.35556 3.1435,0.57775 0.7301,0.2222 1.0121,0.53861 0.7591,0.25269 1.0133,1.14537 1.591,1.10183 2.1782,1.28003 0.5871,0.1782 1.1874,0.3027 1.8898,0.42271 1.4048,0.24 3.1918,0.44264 5.3877,0.63356 4.3921,0.38184 10.3851,0.70351 17.5096,0.97926 14.249,0.55151 32.9966,0.91104 52.0108,1.11725 19.014,0.20621 38.2889,0.2584 53.5657,0.18965 15.2767,-0.0688 26.1869,-0.21476 29.7682,-0.54519 2.4367,-0.22483 13.0008,-0.45144 26.8945,-0.55862 13.8936,-0.10716 31.43,-0.13213 48.9282,-0.0806 17.4983,0.0514 34.9608,0.17942 48.7097,0.38085 13.7491,0.20143 24.259,0.55079 26.169,0.79427 3.3109,0.42205 11.3385,0.63407 22.3366,0.83406 10.9981,0.19999 24.6379,0.33403 37.9636,0.41134 13.3255,0.0773 26.3353,0.0981 36.0644,0.0744 4.8646,-0.0118 8.9071,-0.0335 11.7699,-0.0667 1.4314,-0.0166 2.5649,-0.0371 3.377,-0.0594 0.406,-0.0111 0.7273,-0.0218 0.9963,-0.0367 0.1345,-0.008 0.2506,-0.0147 0.4026,-0.0305 0.076,-0.008 0.1581,-0.0159 0.3039,-0.0419 0.1459,-0.0261 0.1887,0.12589 1.08,-0.39223 1.6465,-0.95704 1.5553,-1.86301 1.6759,-2.37815 0.1205,-0.51513 0.1496,-0.91899 0.1715,-1.34358 0.044,-0.84918 0.014,-1.74181 -0.033,-2.64945 -0.094,-1.81532 -0.261,-3.96509 -0.261,-3.99873 0,-1.81258 -1.2172,-2.86285 -2.0593,-3.39049 0.3676,-0.14473 0.75,-0.2781 1.4578,-1.23765 v -0.002 c 0.7582,-1.02926 0.57,-1.22912 0.6154,-1.49242 0.046,-0.2636 0.063,-0.46577 0.078,-0.68316 0.031,-0.4348 0.042,-0.91062 0.045,-1.48105 0.01,-1.14086 -0.025,-2.63645 -0.082,-4.40231 -0.1144,-3.53172 -0.3324,-8.12131 -0.5721,-12.72326 -0.2397,-4.60195 -0.5012,-9.21239 -0.7028,-12.75581 -0.1008,-1.77172 -0.1867,-3.277498 -0.247,-4.37751 -0.061,-1.100003 -0.092,-2.064466 -0.092,-1.815393 0,-1.167137 -0.6169,-1.962787 -1.0144,-2.34766 -0.3976,-0.384873 -0.6958,-0.541108 -0.9534,-0.673861 -0.5154,-0.265505 -0.9096,-0.385372 -1.3493,-0.51263 -2.7852,-0.750139 -5.6637,-1.070393 -8.5152,-1.46141 l 9.6499,-2.292365 c 0.3725,-0.407822 0.4901,-0.684716 0.586,-0.89917 0.1918,-0.428907 0.2317,-0.659425 0.2822,-0.895553 0.1012,-0.472253 0.1514,-0.900053 0.2026,-1.425236 0.1026,-1.050365 0.179,-2.414581 0.2433,-4.048331 0.1285,-3.267498 0.2027,-7.570083 0.2471,-11.902633 0.089,-8.665101 0.053,-17.573838 0.053,-17.904334 0,-1.374934 -0.806,-2.20958 -1.2609,-2.57917 -0.4549,-0.369591 -0.7837,-0.510508 -1.0883,-0.640788 -0.6091,-0.260563 -1.1481,-0.402701 -1.7906,-0.557072 -1.285,-0.308743 -6.4175,-0.592785 -6.4778,-1.589656 -0.06,-0.996871 5.9177,-1.289048 5.8509,-1.284071 1.2475,-0.09297 2.0047,-0.793418 2.3689,-1.226281 0.3643,-0.432864 0.5099,-0.753777 0.6366,-1.044381 0.2535,-0.581208 0.3746,-1.069646 0.5003,-1.632458 0.2514,-1.125624 0.4446,-2.494387 0.6304,-4.121196 0.3719,-3.253618 0.6799,-7.477909 0.9302,-11.745536 0.2503,-4.267629 0.4411,-8.566421 0.5705,-11.902116 0.1295,-3.335693 0.1984,-5.447113 0.1984,-6.1856693 0,-1.0104252 -0.5824,-1.9195862 -1.0371,-2.3378418 -0.4547,-0.4182557 -0.8001,-0.5592724 -1.0651,-0.6661092 -0.5297,-0.2136736 -0.83,-0.2494174 -1.1405,-0.2945557 -0.621,-0.090277 -1.2118,-0.1119886 -1.9425,-0.1245402 -1.4614,-0.025103 -3.3919,0.029234 -5.7164,0.133842 -4.6493,0.2092146 -10.8238,0.6245992 -17.1437,1.0619507 -6.3199,0.4373515 -12.7825,0.8984343 -17.9358,1.1999267 -2.5766,0.1507462 -4.8273,0.2616215 -6.5454,0.3100586 -1.718,0.048437 -3.1163,-0.031581 -3.052,-0.021187 -0.8382,-0.135357 -1.4931,-0.1456596 -2.9037,-0.223759 -1.4106,-0.078099 -3.3137,-0.1685282 -5.6508,-0.269751 -4.674,-0.2024455 -11.0797,-0.4481107 -18.6459,-0.721403 -15.1322,-0.5465846 -34.9062,-1.2036813 -54.7067,-1.8350301 -19.8005,-0.6313487 -39.6251,-1.2379761 -54.8525,-1.6872355 -15.2273,-0.4492593 -25.4994,-0.7425903 -27.3482,-0.7425903 -2.1459,0 -4.0301,0.8156665 -5.4462,1.7776692 -1.4162,0.9620027 -2.5008,2.0422471 -3.5873,3.0034343 -2.1731,1.9223747 -4.0994,3.4566406 -8.0678,3.7770306 -0.5061,0.04086 -5.1692,0.0385 -11.7517,-0.1204062 -6.5825,-0.1589025 -15.4917,-0.4293334 -25.9493,-0.7751465 -20.9154,-0.6916259 -48.0281,-1.6876632 -75.1918,-2.7073283 -27.1638,-1.0196651 -54.3809,-2.0633573 -75.5096,-2.8525391 -21.1289,-0.7891818 -35.874,-1.3260173 -39.0891,-1.3260173 -5.8363,0 -19.9786,0.5862174 -34.2129,1.168921 -14.2345,0.5827035 -28.56,1.1637532 -33.9509,1.1637532 -5.1681,0 -65.6965,-1.1651921 -126.4435,-2.3306071 C 990.79256,1.1668737 929.69355,0 921.36237,0 Z"
         style="fill:#765ba7;stroke:none;stroke-width:0.9906;stroke-linecap:square;stroke-linejoin:round;stroke-dasharray:none;paint-order:stroke fill markers"
         id="path53"
         sodipodi:nodetypes="sccsssscsscsssssccssssssssscssssssssscssssscsssssssssssssssscssssssscccccccssccsssccsssssssssccssssssssssssssscssssssssssssssssss" /><path
         id="path52"
         style="color:#000000;fill:#f15060;stroke-linecap:square;stroke-linejoin:round;-inkscape-stroke:none;paint-order:stroke fill markers"
         d="m 920.20534,0.58756104 c -16.09442,0 -121.21793,12.49691196 -121.21793,12.49691196 0.49622,26.5654 -1.30068,19.037702 23.84661,22.408451 25.14755,3.370781 8.85208,6.344784 -5.43171,6.939628 -14.2838,0.594843 -2.21292,3.569307 3.21892,5.552116 5.43189,1.982813 -15.4909,4.163725 -18.30741,4.362008 -2.81653,0.198282 0.80446,37.871771 1.00563,42.035677 0.2012,4.16391 -3.01739,34.104377 -3.01739,34.104377 l 25.54986,-1.38803 -23.94066,5.55212 c 0,0 -3.01785,9.71587 -2.41432,15.8626 0.60355,6.14741 85.31303,-1.23303 104.09081,1.01027 18.77777,2.2433 200.86555,-2.6827 219.64345,0.12144 18.7778,2.80412 129.4482,-0.75867 131.4447,-3.36465 1.4934,-1.94926 28.8094,-2.27372 30.4426,-0.84129 3.9114,3.43051 148.2307,4.20621 160.1804,3.08456 11.9494,-1.12165 141.1178,-0.84136 151.9292,0.56069 10.8117,1.40208 111.9557,1.542 112.667,1.12138 0.7113,-0.42062 0,-6.58935 0,-7.8512 0,-1.26186 -3.8409,-1.96321 -7.1127,-2.38383 -3.2719,-0.42062 6.4014,-3.22449 7.1127,-4.20595 0.7113,-0.98143 -1.5647,-37.294798 -1.5647,-38.696862 0,-1.402055 -24.326,-3.645476 -26.1752,-4.346505 -1.8493,-0.701032 23.7567,-5.187797 24.7525,-5.187797 0.9957,0 0.8537,-34.770898 0.8537,-35.75234 0,-0.981443 -9.9577,-2.103183 -21.3382,-3.925859 -11.3805,-1.822676 17.6395,-5.888367 19.4887,-6.028572 1.8493,-0.140207 2.9208,-33.8942727 2.9208,-35.4805223 0,-1.5862493 -48.2831,3.1723082 -53.1115,2.3791829 -4.8283,-0.7931247 -162.0302,-5.5515991 -167.6632,-5.5515991 -5.633,0 -3.7425,7.9308915 -13.3992,8.7240155 -9.6566,0.793125 -217.2751,-8.4310101 -228.5411,-8.4310101 -11.2659,0 -57.1353,2.8794108 -68.4015,2.8794108 -11.266,0 -241.41646,-5.75882166 -257.51086,-5.75882166 z M 918.79095,38.1 c 5.94515,0 10.76416,4.073389 14.51901,12.219926 2.44062,5.265445 4.06787,11.226312 4.7563,17.88263 l 4.5682,7.451225 -4.50567,7.649662 c -0.68835,7.053708 -2.3155,13.312491 -4.88136,18.776627 -3.81739,8.14654 -8.82386,12.21993 -14.89418,12.21993 -5.88261,0 -10.76414,-4.07339 -14.58154,-12.21993 -2.69102,-5.762181 -4.3806,-12.219917 -5.00641,-19.372973 l -4.31808,-6.954098 4.44314,-7.153051 c 0.68835,-6.755665 2.3781,-12.815881 4.94388,-18.280022 C 907.71426,42.173389 912.72064,38.1 918.79095,38.1 Z m 164.71295,0 c 5.9451,0 10.7641,4.073389 14.519,12.219926 2.4406,5.265445 4.0674,11.226312 4.7558,17.88263 l 4.5687,7.451225 -4.5057,7.649662 c -0.6884,7.053708 -2.3155,13.312491 -4.8813,18.776627 -3.8174,8.14654 -8.8238,12.21993 -14.8942,12.21993 -5.8825,0 -10.7641,-4.07339 -14.5815,-12.21993 -2.691,-5.762181 -4.3806,-12.219917 -5.0065,-19.372973 l -4.318,-6.954098 4.4431,-7.153051 c 0.6884,-6.755665 2.3781,-12.815881 4.9439,-18.280022 3.88,-8.146537 8.8864,-12.219926 14.9567,-12.219926 z m 256.6443,0.298173 14.581,0.496611 2.8789,20.068542 -4.6312,1.887224 c -0.4381,-4.073269 -1.6267,-7.550313 -3.5668,-10.431405 -1.9399,-2.881092 -4.2555,-4.371309 -6.8212,-4.371309 -3.8801,0 -6.7589,3.775087 -8.5737,11.226188 -0.8136,3.377832 -1.3769,7.252396 -1.6898,11.524361 l 4.193,6.855396 -4.2555,7.153051 c 0.2503,4.271965 0.7507,8.046922 1.5017,11.325407 1.6271,6.954361 4.2555,10.431401 7.9478,10.431401 3.5046,0 6.133,-3.17874 6.133,-8.642879 v -9.438184 c 0,-4.371312 -2.3154,-7.650048 -5.1315,-8.544181 v -8.047054 l 18.4614,1.192175 v 7.451225 c -2.5658,1.291525 -3.8798,5.265436 -3.8798,11.921753 v 21.558375 c -8.1356,0.79478 -13.8306,1.0927 -17.0223,0.894 -1.8148,0.1987 -3.3792,2.6e-4 -4.5682,-0.59583 -8.6987,-4.27196 -13.6431,-14.107265 -14.8321,-29.506208 l -4.3806,-7.053833 4.318,-6.854878 c 0.5633,-7.153058 2.1904,-13.511316 4.9439,-19.074805 3.7549,-7.649798 8.574,-11.425143 14.394,-11.425143 z m -163.2107,0.09922 c 4.4432,0 8.1351,2.285257 10.9512,6.954614 2.8161,4.669356 4.2556,10.530749 4.2556,17.584457 0,2.682397 -0.3126,5.066614 -0.9384,7.25227 l 2.19,5.166093 -7.5721,3.079916 c -0.751,0.49674 -1.5646,0.794913 -2.3782,1.092956 1.9401,1.589569 3.5672,4.172482 4.8814,7.649663 l 2.1275,7.25227 c 1.1891,3.377832 2.2533,5.066874 3.2546,5.066874 1.3767,0 2.7532,-1.986826 4.1299,-6.060095 0.9387,2.682397 1.3772,5.165704 1.3772,7.450709 0,3.37783 -0.8765,6.15996 -2.6288,8.44496 -1.6896,2.285 -3.6295,3.37757 -5.8198,3.37757 -3.88,0 -6.8212,-2.58317 -8.8237,-7.84861 -0.6884,-3.07979 -1.8152,-7.550442 -3.3171,-13.511323 -1.6897,-5.960881 -3.6294,-8.941057 -5.8824,-8.941057 -2.3154,0 -3.4421,1.192045 -3.4421,3.675745 v 8.941573 c 0,4.768704 2.0026,9.139882 4.9439,9.239232 v 7.74888 c -0.8136,0.29804 -7.6973,0.29843 -20.589,0.0997 v -6.75566 c 2.6911,-0.49674 4.5057,-4.173 4.5057,-8.444959 V 83.00527 l -4.5057,-7.252271 4.5057,-7.153051 V 56.181584 c 0,-5.464141 -1.1263,-8.14679 -3.3166,-8.14679 -0.4381,0 -0.876,0.09935 -1.3766,0.397392 v -9.338965 c 1.5019,0 9.3245,-0.198437 23.4678,-0.595828 z m 464.0993,0.09922 c 4.0052,0 9.5124,0.298043 16.584,0.794783 l 0.6883,25.433073 -3.7548,0.497128 c -1.8149,-12.617199 -5.3822,-18.876368 -10.8267,-18.876368 -1.9401,0 -3.6296,1.192173 -5.0064,3.576526 -1.3143,2.285004 -2.0025,5.066872 -2.0025,8.246009 0,2.682397 1.2516,4.669352 3.8173,5.960876 0,0 2.6911,1.192174 8.0104,3.576526 1.8149,0.794784 3.3171,1.688914 4.5687,2.781742 l 7.8848,5.066875 -2.4407,4.172355 c 1.0013,3.079787 1.5023,6.258789 1.5023,9.636621 0,7.053709 -1.8149,12.915611 -5.5072,17.584971 -3.3794,4.37131 -7.3844,6.55671 -11.9527,6.55671 -1.5646,0 -6.8215,-0.69531 -15.8957,-2.08618 l -0.6883,-26.227856 4.4431,-0.496611 c 0.751,4.073268 2.3782,8.344837 4.8188,12.616801 2.7536,4.868046 5.3192,7.252786 7.6347,7.252786 3.7549,0 6.8838,-4.37131 6.8838,-10.332184 0,-4.868053 -2.1276,-8.345356 -6.3205,-10.232968 l -19.4004,-8.345227 2.7538,-4.371309 c -1.0013,-2.980441 -1.5017,-6.55709 -1.5017,-10.630359 0,-6.755665 1.5642,-12.219794 4.7558,-16.293062 2.9414,-3.874573 6.6337,-5.861658 10.9518,-5.861658 z m -490.1334,0.09922 0.062,8.743135 h -0.3751 c -2.691,0 -4.068,2.384218 -4.068,7.252271 v 15.100887 l 3.5672,5.861658 -3.5672,6.060095 v 10.530623 c 0,6.159576 -1.6271,11.325658 -4.9439,15.498278 -3.0665,3.97392 -6.571,5.96087 -10.5136,5.96087 -4.7561,0 -8.6986,-2.4833 -11.8277,-7.4507 -3.129,-5.06675 -4.6932,-11.325918 -4.6932,-18.876368 V 83.00527 l -4.5062,-7.252271 4.5062,-7.153051 v -13.01471 c 0,-2.4837 -0.3756,-4.669352 -1.1266,-6.358268 -0.8761,-2.086309 -2.0652,-2.880961 -3.6297,-2.48357 v -7.550443 l 19.5249,-0.198954 V 46.7434 c -2.691,0.09935 -4.4432,3.576523 -4.4432,7.947836 v 13.51132 l 4.5688,7.451225 -4.5688,7.748881 v 6.557222 c 0,8.941322 2.691,13.411586 8.0729,13.411586 2.3781,0 4.2556,-1.29113 5.5697,-3.874183 1.2516,-2.384353 1.8774,-5.464393 1.8774,-9.338965 v -8.841838 l -3.4416,-5.563485 3.4416,-5.464266 v -12.12019 c 0,-7.451101 -1.8774,-11.226576 -5.5697,-11.325924 l -0.062,-7.947835 z m 294.6306,0.09974 v 26.52603 l -4.5682,4.073136 c -0.3755,-6.258926 -0.6886,-10.233095 -0.939,-11.723315 -0.8761,-5.464141 -2.378,-8.245492 -4.4431,-8.245492 -2.1904,0 -4.4431,3.079525 -4.4431,6.556706 v 12.518099 l 4.3806,7.153052 -4.3806,7.351489 v 13.213147 c 0,2.285004 0.3755,4.371565 1.064,6.159835 0.8135,1.98696 1.9397,2.88109 3.3791,2.78174 l 0.062,6.9541 c -0.6883,0.29804 -1.4394,0.49712 -2.3781,0.49712 h -7.0089 -8.4486 c -0.5006,0 -1.001,-3.8e-4 -1.5642,-0.0997 v -6.75566 c 2.4406,-0.69544 4.1305,-3.77509 4.1305,-7.649665 V 83.303443 l -4.8814,-7.550444 4.8814,-7.451224 V 55.585238 c 0,-4.073268 -1.1268,-6.060095 -3.3171,-6.060095 -2.3781,0 -4.193,2.68239 -5.5072,7.947835 -0.9387,3.775224 -1.4391,7.947575 -1.5642,12.517582 l -4.1305,-3.576526 v -27.51925 z m -597.27156,0.198438 20.58944,0.198954 c 5.63221,0 10.0752,2.682391 13.39195,7.947835 3.19167,5.066749 5.06945,12.120313 5.69526,21.160983 l 4.50567,7.352006 -4.50567,7.649662 c -0.56327,7.252405 -1.8777,13.213014 -3.94291,18.081069 -3.31675,7.6498 -8.19827,11.42514 -14.64407,11.42514 h -19.33732 c -0.56327,0 -1.12655,-0.0991 -1.68982,-0.19844 v -6.35826 c 2.81618,-0.89414 4.69377,-4.76883 4.69377,-9.438189 l -0.0625,-13.412101 -4.7563,-7.649663 4.7563,-7.649662 0.0625,0.09922 V 57.771151 c 0,-8.345233 -1.56471,-12.120579 -4.7563,-11.425142 z m 211.58606,0 -0.062,8.444962 c -1.4394,0.09935 -3.0042,1.092827 -4.6938,3.179134 -1.3768,1.688917 -2.5655,3.675873 -3.5042,5.960877 l -5.5697,13.411584 3.5047,5.663221 -7.7602,6.75566 0.062,16.094108 c 0,3.973923 2.7538,6.656313 5.3196,6.358273 v 7.45122 l -22.4038,-0.0992 v -7.15305 h 0.2501 c 3.2542,0 4.8813,-2.18604 4.8813,-6.458004 V 82.409441 l -8.0728,-6.656442 3.5672,-5.762439 -7.4471,-19.472196 c -1.0639,-2.185657 -2.1907,-3.278353 -3.3171,-3.278353 -0.2503,0 -0.5006,0.09961 -0.7509,0.198954 v -8.146789 l 21.1522,-0.09922 -0.062,7.947835 c -0.6884,-0.298043 -1.2517,-0.397392 -1.7524,-0.397392 -1.189,0 -1.8148,0.695306 -1.8148,2.086178 0,1.291524 1.0637,4.570131 3.1915,9.835575 l 4.068,10.034013 c 0.7509,-1.49022 2.0649,-4.371177 3.9424,-8.444446 2.0026,-4.47066 3.0039,-7.749266 3.0039,-9.835575 0,-2.285005 -1.0639,-3.477307 -3.129,-3.477307 -0.3755,0 -0.751,3.87e-4 -1.1891,0.09974 l -0.062,-7.650179 z m 455.2756,0 c 6.7586,-0.298045 11.7026,1.291778 14.8316,4.967655 3.5046,3.973921 5.2571,9.140134 5.2571,15.39906 0,5.464141 -1.815,9.835444 -5.4447,13.113928 2.0652,1.390874 3.7547,3.874181 5.069,7.450709 1.3141,3.576528 2.0024,7.252656 2.0024,10.928531 0,7.252406 -2.1275,13.014446 -6.3205,17.187066 -3.5045,3.07979 -8.8865,4.66948 -16.0833,4.66948 -7.1967,0.0994 -12.7664,0.0992 -16.7716,0.0992 l -0.6258,-0.0992 v -7.05383 c 2.691,-1.09283 4.4432,-4.96752 4.4432,-9.438185 V 83.204224 l -4.6313,-7.451225 4.6313,-7.352006 V 57.075586 c 0,-3.278484 -0.3756,-5.861786 -1.1891,-7.749398 -0.9387,-2.285003 -2.4406,-3.278352 -4.3806,-2.880961 v -6.75566 c 0.6884,-0.09935 2.378,-0.198954 5.0689,-0.198954 2.6911,0 7.4472,-0.198567 14.1434,-0.49661 z m -535.06609,0.09922 c 4.81878,-0.09935 7.50972,-0.09935 8.01037,0 v 8.345744 c -2.56578,0.09935 -4.50619,3.079784 -4.50619,7.153052 v 13.709758 l 4.50619,7.352006 -4.50619,7.649662 v 28.711427 h -4.63072 L 957.8418,73.467867 v 22.452894 c 0,6.358269 1.68957,9.437929 5.06894,9.239229 v 7.15305 c -0.62581,0.39739 -3.50462,0.59596 -8.57364,0.49661 -5.06909,0 -7.82247,1.3e-4 -8.13542,-0.0992 v -7.352 c 2.56578,-0.39739 4.38061,-3.77509 4.38061,-8.047056 V 83.303443 l -0.12505,0.09922 -4.7563,-7.649663 4.7563,-7.649662 0.12505,0.198438 v -7.748882 c 0,-3.675875 -0.56336,-6.557349 -1.68982,-8.842354 -1.25154,-2.4837 -3.00361,-3.775093 -5.25652,-3.675745 v -8.841837 h 10.70115 l 22.52938,41.129789 V 56.876632 c 0,-6.457621 -1.56472,-9.636621 -4.69377,-9.636621 v -7.947835 c 0.43802,-0.09935 3.06661,-0.198955 7.8853,-0.198955 z m 268.28389,0 0.062,8.444963 c -1.3768,0.09935 -2.5654,0.496481 -3.5042,1.390613 -1.2516,1.092828 -1.8779,2.583303 -1.8779,4.570263 0,1.490221 1.252,7.749002 3.8179,18.776632 l 4.7558,20.167762 7.8227,-34.871257 c 0.3129,-1.291524 0.4383,-2.582916 0.4383,-3.675745 0,-3.874572 -1.4393,-5.960747 -4.3807,-6.457487 v -8.246008 h 16.9592 v 8.444446 h -0.3757 c -2.8161,0 -5.0061,3.378084 -6.5706,10.133748 l -2.6288,11.325407 4.068,6.656441 -7.3846,7.748881 -6.7588,29.10933 h -8.7612 l -6.4461,-29.10933 -7.0089,-7.748881 3.8799,-6.259049 -2.4407,-11.027751 c -1.5646,-7.053709 -4.0676,-10.530623 -7.6347,-10.530623 v -8.544182 z m 206.6422,0 h 22.7169 v 7.848617 c -1.0638,0.09935 -1.9403,0.497127 -2.6913,1.291911 -0.9387,0.894132 -1.3766,2.185524 -1.3766,3.675744 0,0.99348 0.1877,2.086048 0.6258,3.377572 l 4.5682,14.008447 6.9463,6.358269 -3.129,5.36453 5.8203,17.88263 c 1.6271,4.967399 3.3167,7.252659 5.069,6.954609 v 6.85488 l -21.8411,-0.29817 v -6.55671 c 1.2516,0 2.4409,-0.29843 3.5047,-0.89451 1.4394,-0.79479 2.1906,-1.98696 2.1906,-3.57653 0,-1.09283 -0.3757,-2.682393 -1.1266,-4.768701 -0.3129,-0.894132 -0.8138,-2.38422 -1.6273,-4.470528 h -19.3998 c -1.0639,4.073268 -1.6273,6.656569 -1.6273,7.749397 0,4.073272 1.9399,6.060222 5.7573,5.960872 v 6.35827 l -19.0867,-0.19895 v -6.55671 c 3.0665,-0.19869 5.1315,-2.3846 6.258,-6.557219 l 4.7558,-17.386019 -3.5667,-5.761923 7.259,-7.947835 c 2.691,-10.03415 4.0054,-15.796192 4.0054,-17.187065 0,-2.086307 -0.8135,-3.079915 -2.5032,-3.079915 -0.5007,0 -1.0016,0.09909 -1.5648,0.198437 z m -142.1841,0.298173 -0.3127,17.88263 -3.5672,1.788521 c -0.8136,-6.457621 -4.8813,-10.828796 -9.1994,-10.828796 -2.8787,0 -4.8816,1.192173 -5.9454,3.576526 -0.9387,1.98696 -1.4392,5.364655 -1.4392,10.034013 v 4.073136 c 0,-0.298045 -2e-4,0.496738 0.062,2.384351 v 1.788521 c 0.751,0.49674 1.5647,0.794783 2.4407,0.794783 2.8162,0 4.3185,-3.278606 4.5062,-9.835575 l 4.3806,0.298173 0.5633,24.141162 h -5.0064 c -0.5633,-2.384352 -1.0642,-3.97353 -1.5023,-4.668965 -0.6258,-1.092829 -1.6896,-1.589568 -3.1915,-1.589568 -0.9387,0 -1.6895,0.496352 -2.1275,1.489832 0,7.252405 0.1248,12.021229 0.4377,14.206885 0.8136,6.060227 2.6913,9.040787 5.7578,9.040787 6.5709,0 11.1391,-6.060083 11.3895,-16.392276 l 5.0689,0.993221 -1.1265,24.042455 -36.1715,-0.29817 v -7.352 c 1.2516,0 2.2531,-1.19205 2.9414,-3.67575 0.5633,-1.887611 0.8134,-3.974045 0.8134,-6.259048 v -12.21941 l -4.3806,-7.053833 4.3176,-6.954614 V 58.665153 c 0,-3.278484 -0.3752,-5.961004 -1.0635,-8.246008 -0.9388,-2.881092 -2.3156,-4.172485 -4.193,-3.675745 v -7.252787 c 9.9503,-0.09935 22.0909,-0.09922 36.5471,-0.09922 z m 88.4897,0 -0.3132,17.88263 -3.5672,1.788521 c -0.8135,-6.457621 -4.8813,-10.828796 -9.1995,-10.828796 -2.8787,0 -4.881,1.192173 -5.9448,3.576526 -0.9388,1.98696 -1.4397,5.364655 -1.4397,10.034013 v 4.073136 c 0,-0.298045 3e-4,0.496738 0.063,2.384351 v 1.788521 c 0.751,0.49674 1.5646,0.794783 2.4407,0.794783 2.8162,0 4.318,-3.278606 4.5057,-9.835575 l 4.3806,0.298173 0.5633,24.141162 h -5.0065 c -0.5632,-2.384352 -1.0636,-3.97353 -1.5017,-4.668965 -0.6258,-1.092829 -1.6901,-1.589568 -3.192,-1.589568 -0.9387,0 -1.6894,0.496352 -2.1275,1.489832 0,7.252405 0.1252,12.021229 0.4382,14.206885 0.8135,6.060227 2.6907,9.040787 5.7572,9.040787 6.571,0 11.1392,-6.060083 11.3895,-16.392276 l 5.0695,0.993221 -1.1266,24.042455 -36.1719,-0.29817 v -7.352 c 1.2516,0 2.2531,-1.19205 2.9414,-3.67575 0.5633,-1.887611 0.8134,-3.974045 0.8134,-6.259048 v -12.21941 l -4.3806,-7.053833 4.3181,-6.954614 V 58.665153 c 0,-3.278484 -0.3757,-5.961004 -1.064,-8.246008 -0.9388,-2.881092 -2.3156,-4.172485 -4.1931,-3.675745 v -7.252787 c 9.9504,-0.09935 22.0915,-0.09922 36.5477,-0.09922 z m 160.9576,0 v 7.252788 h -0.1876 c -3.3794,0 -5.0689,2.980303 -5.0689,8.841837 v 12.914974 l 4.4431,7.252788 -4.4431,7.550443 V 97.90772 c 1.6896,1.589568 3.6299,2.38435 5.9453,2.38435 5.3194,0 9.5746,-5.36491 12.7037,-16.193844 l 3.6297,3.079916 -3.8799,25.433068 -34.6072,0.0992 v -8.246 c 1.7523,0 3.1292,-1.19231 4.1931,-3.47731 0.9387,-1.986962 1.3766,-4.470399 1.3766,-7.351491 l -0.062,-10.034013 -4.7563,-7.650179 4.7563,-7.649662 0.1251,0.198954 V 55.287065 c 0,-4.967401 -1.9403,-7.848487 -5.8829,-8.742619 v -6.854879 z m 56.3857,0 -0.3132,17.88263 -3.5672,1.788521 c -0.8136,-6.457621 -4.8814,-10.828796 -9.1994,-10.828796 -2.8788,0 -4.881,1.192173 -5.9449,3.576526 -0.9387,1.98696 -1.4397,5.364655 -1.4397,10.034013 v 4.073136 c 0,-0.298045 4e-4,0.496738 0.063,2.384351 v 1.788521 c 0.7509,0.49674 1.5645,0.794783 2.4406,0.794783 2.8161,0 4.3179,-3.278606 4.5057,-9.835575 l 4.3806,0.298173 0.5633,24.141162 h -5.0064 c -0.5632,-2.384352 -1.0642,-3.97353 -1.5023,-4.668965 -0.6258,-1.092829 -1.6896,-1.589568 -3.1915,-1.589568 -0.9388,0 -1.6895,0.496352 -2.1275,1.489832 0,7.252405 0.1253,12.021229 0.4382,14.206885 0.8136,6.060227 2.6908,9.040787 5.7573,9.040787 6.5709,0 11.1391,-6.060083 11.3895,-16.392276 l 5.0694,0.993221 -1.1265,24.042455 -36.172,-0.29817 v -7.352 c 1.2516,0 2.253,-1.19205 2.9414,-3.67575 0.5632,-1.887611 0.8134,-3.974045 0.8134,-6.259048 v -12.21941 l -4.3806,-7.053833 4.3181,-6.954614 V 58.665153 c 0,-3.278484 -0.3756,-5.961004 -1.064,-8.246008 -0.9387,-2.881092 -2.3156,-4.172485 -4.193,-3.675745 v -7.252787 c 9.9503,-0.09935 22.0914,-0.09922 36.5476,-0.09922 z m -100.3799,6.557223 c -1.4394,0 -2.691,0.39752 -3.7548,1.092956 -1.3768,0.993481 -2.065,2.483568 -2.065,4.470529 v 17.78341 c 0.6884,0.09935 1.3766,0.09922 2.0024,0.09922 6.3207,0 9.5121,-4.073259 9.5121,-12.319145 0,-3.079787 -0.438,-5.563353 -1.3766,-7.649662 -1.064,-2.285005 -2.5033,-3.477307 -4.3181,-3.477308 z m -649.33869,0.397392 c -3.6297,0 -5.44463,3.576649 -5.44463,10.630359 v 11.226188 l 4.5682,7.451225 -4.5682,7.748881 v 10.729577 c 0,2.483701 0.31264,4.570005 0.93844,6.358271 0.75098,2.285 1.81526,3.37809 3.25459,3.37809 4.75615,0 7.63444,-6.954478 8.57312,-20.962549 l -4.44314,-7.153052 4.63124,-7.451224 c -0.18778,-4.073269 -0.62579,-7.749138 -1.2516,-11.12697 -1.31424,-7.252405 -3.44184,-10.828796 -6.25802,-10.828796 z m 49.87654,1.192175 c -4.19288,0 -6.69601,6.954217 -7.57215,20.763591 l 4.50619,7.352006 -4.56871,7.748881 c 0.25032,3.675877 0.75075,7.451092 1.43918,11.126969 1.43933,7.649799 3.50455,11.425139 6.19549,11.425139 4.19297,0 6.44581,-7.55043 6.82129,-22.651327 l -0.12506,0.09922 -4.75578,-7.649663 4.63073,-7.352006 c -0.18771,-2.682397 -0.4379,-5.364658 -0.81339,-8.047054 -1.189,-8.543929 -3.12939,-12.815755 -5.75779,-12.815755 z m 164.71295,0 c -4.1929,0 -6.696,6.954217 -7.5722,20.763591 l 4.5057,7.352006 -4.5682,7.748881 c 0.2503,3.675877 0.7508,7.451092 1.4392,11.126969 1.4393,7.649799 3.5046,11.425139 6.1955,11.425139 4.1929,0 6.4458,-7.55043 6.8213,-22.651327 l -0.1251,0.09922 -4.7563,-7.649663 4.6313,-7.352006 c -0.1877,-2.682397 -0.4379,-5.364658 -0.8134,-8.047054 -1.1891,-8.543929 -3.1294,-12.815755 -5.7578,-12.815755 z m 92.8703,1.589567 c -4.5058,0 -6.7588,3.079781 -6.7588,9.140011 v 15.89567 c 0.8136,0.298044 1.6267,0.496611 2.3777,0.496611 5.82,0 9.7002,-6.05996 9.7002,-15.299325 0,-2.98044 -0.4381,-5.364787 -1.2517,-7.153052 -0.9387,-2.086308 -2.2525,-3.079915 -4.0674,-3.079915 z m 287.4336,10.034013 -5.6322,22.353158 12.7041,0.09973 z m 54.0071,18.37924 c -1.6271,0 -3.3791,0.695822 -5.2566,2.086694 v 16.293063 c 0,5.762189 1.6896,8.642879 5.1315,8.642879 2.4406,0 4.5059,-1.39074 6.133,-4.07313 1.6896,-2.682399 2.5032,-6.060224 2.5032,-9.934797 0,-3.675877 -0.8136,-6.755529 -2.5032,-9.239229 -1.6271,-2.4837 -3.6299,-3.77548 -6.0079,-3.77548 z" /></g><path
       id="rect54"
       style="display:inline;fill:#000000;stroke-width:0.9906;stroke-linecap:square;stroke-linejoin:round;paint-order:stroke fill markers"
       d="M 797.40003,2.4321131e-6 H 1711.8 V 152.39999 H 797.40003 Z"
       inkscape:label="full rectangle" /><path
       id="path55"
       style="display:inline;fill:#bb8b41;stroke-width:0.9906;stroke-linecap:square;stroke-linejoin:round;paint-order:stroke fill markers"
       inkscape:label="text cutout"
       d="M 797.39991,0 V 152.4 H 1711.7999 V 0 Z m 121.39104,38.1 c 5.94515,0 10.76416,4.073389 14.51901,12.219926 2.44062,5.265445 4.06787,11.226312 4.7563,17.88263 l 4.5682,7.451225 -4.50567,7.649662 c -0.68835,7.053708 -2.3155,13.312491 -4.88136,18.776627 -3.81739,8.14654 -8.82386,12.21993 -14.89418,12.21993 -5.88261,0 -10.76414,-4.07339 -14.58154,-12.21993 -2.69102,-5.762181 -4.3806,-12.219917 -5.00641,-19.372973 l -4.31808,-6.954098 4.44314,-7.153051 c 0.68835,-6.755665 2.3781,-12.815881 4.94388,-18.280022 C 907.71426,42.173389 912.72064,38.1 918.79095,38.1 Z m 164.71295,0 c 5.9451,0 10.7641,4.073389 14.519,12.219926 2.4406,5.265445 4.0674,11.226312 4.7558,17.88263 l 4.5687,7.451225 -4.5057,7.649662 c -0.6884,7.053708 -2.3155,13.312491 -4.8813,18.776627 -3.8174,8.14654 -8.8238,12.21993 -14.8942,12.21993 -5.8825,0 -10.7641,-4.07339 -14.5815,-12.21993 -2.691,-5.762181 -4.3806,-12.219917 -5.0065,-19.372973 l -4.318,-6.954098 4.4431,-7.153051 c 0.6884,-6.755665 2.3781,-12.815881 4.9439,-18.280022 3.88,-8.146537 8.8864,-12.219926 14.9567,-12.219926 z m 256.6443,0.298173 14.581,0.496611 2.8789,20.068542 -4.6312,1.887224 c -0.4381,-4.073269 -1.6267,-7.550313 -3.5668,-10.431405 -1.9399,-2.881092 -4.2555,-4.371309 -6.8212,-4.371309 -3.8801,0 -6.7589,3.775087 -8.5737,11.226188 -0.8136,3.377832 -1.3769,7.252396 -1.6898,11.524361 l 4.193,6.855396 -4.2555,7.153051 c 0.2503,4.271965 0.7507,8.046922 1.5017,11.325407 1.6271,6.954361 4.2555,10.431401 7.9478,10.431401 3.5046,0 6.133,-3.17874 6.133,-8.642879 v -9.438184 c 0,-4.371312 -2.3154,-7.650048 -5.1315,-8.544181 v -8.047054 l 18.4614,1.192175 v 7.451225 c -2.5658,1.291525 -3.8798,5.265436 -3.8798,11.921753 v 21.558375 c -8.1356,0.79478 -13.8306,1.0927 -17.0223,0.894 -1.8148,0.1987 -3.3792,2.6e-4 -4.5682,-0.59583 -8.6987,-4.27196 -13.6431,-14.107265 -14.8321,-29.506208 l -4.3806,-7.053833 4.318,-6.854878 c 0.5633,-7.153058 2.1904,-13.511316 4.9439,-19.074805 3.7549,-7.649798 8.574,-11.425143 14.394,-11.425143 z m -163.2107,0.09922 c 4.4432,0 8.1351,2.285257 10.9512,6.954614 2.8161,4.669356 4.2556,10.530749 4.2556,17.584457 0,2.682397 -0.3126,5.066614 -0.9384,7.25227 l 2.19,5.166093 -7.5721,3.079916 c -0.751,0.49674 -1.5646,0.794913 -2.3782,1.092956 1.9401,1.589569 3.5672,4.172482 4.8814,7.649663 l 2.1275,7.25227 c 1.1891,3.377832 2.2533,5.066874 3.2546,5.066874 1.3767,0 2.7532,-1.986826 4.1299,-6.060095 0.9387,2.682397 1.3772,5.165704 1.3772,7.450709 0,3.37783 -0.8765,6.15996 -2.6288,8.44496 -1.6896,2.285 -3.6295,3.37757 -5.8198,3.37757 -3.88,0 -6.8212,-2.58317 -8.8237,-7.84861 -0.6884,-3.07979 -1.8152,-7.550442 -3.3171,-13.511323 -1.6897,-5.960881 -3.6294,-8.941057 -5.8824,-8.941057 -2.3154,0 -3.4421,1.192045 -3.4421,3.675745 v 8.941573 c 0,4.768704 2.0026,9.139882 4.9439,9.239232 v 7.74888 c -0.8136,0.29804 -7.6973,0.29843 -20.589,0.0997 v -6.75566 c 2.6911,-0.49674 4.5057,-4.173 4.5057,-8.444959 V 83.00527 l -4.5057,-7.252271 4.5057,-7.153051 V 56.181584 c 0,-5.464141 -1.1263,-8.14679 -3.3166,-8.14679 -0.4381,0 -0.876,0.09935 -1.3766,0.397392 v -9.338965 c 1.5019,0 9.3245,-0.198437 23.4678,-0.595828 z m 464.0993,0.09922 c 4.0052,0 9.5124,0.298043 16.584,0.794783 l 0.6883,25.433073 -3.7548,0.497128 c -1.8149,-12.617199 -5.3822,-18.876368 -10.8267,-18.876368 -1.9401,0 -3.6296,1.192173 -5.0064,3.576526 -1.3143,2.285004 -2.0025,5.066872 -2.0025,8.246009 0,2.682397 1.2516,4.669352 3.8173,5.960876 0,0 2.6911,1.192174 8.0104,3.576526 1.8149,0.794784 3.3171,1.688914 4.5687,2.781742 l 7.8848,5.066875 -2.4407,4.172355 c 1.0013,3.079787 1.5023,6.258789 1.5023,9.636621 0,7.053709 -1.8149,12.915611 -5.5072,17.584971 -3.3794,4.37131 -7.3844,6.55671 -11.9527,6.55671 -1.5646,0 -6.8215,-0.69531 -15.8957,-2.08618 l -0.6883,-26.227856 4.4431,-0.496611 c 0.751,4.073268 2.3782,8.344837 4.8188,12.616801 2.7536,4.868046 5.3192,7.252786 7.6347,7.252786 3.7549,0 6.8838,-4.37131 6.8838,-10.332184 0,-4.868053 -2.1276,-8.345356 -6.3205,-10.232968 l -19.4004,-8.345227 2.7538,-4.371309 c -1.0013,-2.980441 -1.5017,-6.55709 -1.5017,-10.630359 0,-6.755665 1.5642,-12.219794 4.7558,-16.293062 2.9414,-3.874573 6.6337,-5.861658 10.9518,-5.861658 z m -490.1334,0.09922 0.062,8.743135 h -0.3751 c -2.691,0 -4.068,2.384218 -4.068,7.252271 v 15.100887 l 3.5672,5.861658 -3.5672,6.060095 v 10.530623 c 0,6.159576 -1.6271,11.325658 -4.9439,15.498278 -3.0665,3.97392 -6.571,5.96087 -10.5136,5.96087 -4.7561,0 -8.6986,-2.4833 -11.8277,-7.4507 -3.129,-5.06675 -4.6932,-11.325918 -4.6932,-18.876368 V 83.00527 l -4.5062,-7.252271 4.5062,-7.153051 v -13.01471 c 0,-2.4837 -0.3756,-4.669352 -1.1266,-6.358268 -0.8761,-2.086309 -2.0652,-2.880961 -3.6297,-2.48357 v -7.550443 l 19.5249,-0.198954 V 46.7434 c -2.691,0.09935 -4.4432,3.576523 -4.4432,7.947836 v 13.51132 l 4.5688,7.451225 -4.5688,7.748881 v 6.557222 c 0,8.941322 2.691,13.411586 8.0729,13.411586 2.3781,0 4.2556,-1.29113 5.5697,-3.874183 1.2516,-2.384353 1.8774,-5.464393 1.8774,-9.338965 v -8.841838 l -3.4416,-5.563485 3.4416,-5.464266 v -12.12019 c 0,-7.451101 -1.8774,-11.226576 -5.5697,-11.325924 l -0.062,-7.947835 z m 294.6306,0.09974 v 26.52603 l -4.5682,4.073136 c -0.3755,-6.258926 -0.6886,-10.233095 -0.939,-11.723315 -0.8761,-5.464141 -2.378,-8.245492 -4.4431,-8.245492 -2.1904,0 -4.4431,3.079525 -4.4431,6.556706 v 12.518099 l 4.3806,7.153052 -4.3806,7.351489 v 13.213147 c 0,2.285004 0.3755,4.371565 1.064,6.159835 0.8135,1.98696 1.9397,2.88109 3.3791,2.78174 l 0.062,6.9541 c -0.6883,0.29804 -1.4394,0.49712 -2.3781,0.49712 h -7.0089 -8.4486 c -0.5006,0 -1.001,-3.8e-4 -1.5642,-0.0997 v -6.75566 c 2.4406,-0.69544 4.1305,-3.77509 4.1305,-7.649665 V 83.303443 l -4.8814,-7.550444 4.8814,-7.451224 V 55.585238 c 0,-4.073268 -1.1268,-6.060095 -3.3171,-6.060095 -2.3781,0 -4.193,2.68239 -5.5072,7.947835 -0.9387,3.775224 -1.4391,7.947575 -1.5642,12.517582 l -4.1305,-3.576526 v -27.51925 z m -597.27156,0.198438 20.58944,0.198954 c 5.63221,0 10.0752,2.682391 13.39195,7.947835 3.19167,5.066749 5.06945,12.120313 5.69526,21.160983 l 4.50567,7.352006 -4.50567,7.649662 c -0.56327,7.252405 -1.8777,13.213014 -3.94291,18.081069 -3.31675,7.6498 -8.19827,11.42514 -14.64407,11.42514 h -19.33732 c -0.56327,0 -1.12655,-0.0991 -1.68982,-0.19844 v -6.35826 c 2.81618,-0.89414 4.69377,-4.76883 4.69377,-9.438189 l -0.0625,-13.412101 -4.7563,-7.649663 4.7563,-7.649662 0.0625,0.09922 V 57.771151 c 0,-8.345233 -1.56471,-12.120579 -4.7563,-11.425142 z m 211.58606,0 -0.062,8.444962 c -1.4394,0.09935 -3.0042,1.092827 -4.6938,3.179134 -1.3768,1.688917 -2.5655,3.675873 -3.5042,5.960877 l -5.5697,13.411584 3.5047,5.663221 -7.7602,6.75566 0.062,16.094108 c 0,3.973923 2.7538,6.656313 5.3196,6.358273 v 7.45122 l -22.4038,-0.0992 v -7.15305 h 0.2501 c 3.2542,0 4.8813,-2.18604 4.8813,-6.458004 V 82.409441 l -8.0728,-6.656442 3.5672,-5.762439 -7.4471,-19.472196 c -1.0639,-2.185657 -2.1907,-3.278353 -3.3171,-3.278353 -0.2503,0 -0.5006,0.09961 -0.7509,0.198954 v -8.146789 l 21.1522,-0.09922 -0.062,7.947835 c -0.6884,-0.298043 -1.2517,-0.397392 -1.7524,-0.397392 -1.189,0 -1.8148,0.695306 -1.8148,2.086178 0,1.291524 1.0637,4.570131 3.1915,9.835575 l 4.068,10.034013 c 0.7509,-1.49022 2.0649,-4.371177 3.9424,-8.444446 2.0026,-4.47066 3.0039,-7.749266 3.0039,-9.835575 0,-2.285005 -1.0639,-3.477307 -3.129,-3.477307 -0.3755,0 -0.751,3.87e-4 -1.1891,0.09974 l -0.062,-7.650179 z m 455.2756,0 c 6.7586,-0.298045 11.7026,1.291778 14.8316,4.967655 3.5046,3.973921 5.2571,9.140134 5.2571,15.39906 0,5.464141 -1.815,9.835444 -5.4447,13.113928 2.0652,1.390874 3.7547,3.874181 5.069,7.450709 1.3141,3.576528 2.0024,7.252656 2.0024,10.928531 0,7.252406 -2.1275,13.014446 -6.3205,17.187066 -3.5045,3.07979 -8.8865,4.66948 -16.0833,4.66948 -7.1967,0.0994 -12.7664,0.0992 -16.7716,0.0992 l -0.6258,-0.0992 v -7.05383 c 2.691,-1.09283 4.4432,-4.96752 4.4432,-9.438185 V 83.204224 l -4.6313,-7.451225 4.6313,-7.352006 V 57.075586 c 0,-3.278484 -0.3756,-5.861786 -1.1891,-7.749398 -0.9387,-2.285003 -2.4406,-3.278352 -4.3806,-2.880961 v -6.75566 c 0.6884,-0.09935 2.378,-0.198954 5.0689,-0.198954 2.6911,0 7.4472,-0.198567 14.1434,-0.49661 z m -535.06609,0.09922 c 4.81878,-0.09935 7.50972,-0.09935 8.01037,0 v 8.345744 c -2.56578,0.09935 -4.50619,3.079784 -4.50619,7.153052 v 13.709758 l 4.50619,7.352006 -4.50619,7.649662 v 28.711427 h -4.63072 L 957.8418,73.467867 v 22.452894 c 0,6.358269 1.68957,9.437929 5.06894,9.239229 v 7.15305 c -0.62581,0.39739 -3.50462,0.59596 -8.57364,0.49661 -5.06909,0 -7.82247,1.3e-4 -8.13542,-0.0992 v -7.352 c 2.56578,-0.39739 4.38061,-3.77509 4.38061,-8.047056 V 83.303443 l -0.12505,0.09922 -4.7563,-7.649663 4.7563,-7.649662 0.12505,0.198438 v -7.748882 c 0,-3.675875 -0.56336,-6.557349 -1.68982,-8.842354 -1.25154,-2.4837 -3.00361,-3.775093 -5.25652,-3.675745 v -8.841837 h 10.70115 l 22.52938,41.129789 V 56.876632 c 0,-6.457621 -1.56472,-9.636621 -4.69377,-9.636621 v -7.947835 c 0.43802,-0.09935 3.06661,-0.198955 7.8853,-0.198955 z m 268.28389,0 0.062,8.444963 c -1.3768,0.09935 -2.5654,0.496481 -3.5042,1.390613 -1.2516,1.092828 -1.8779,2.583303 -1.8779,4.570263 0,1.490221 1.252,7.749002 3.8179,18.776632 l 4.7558,20.167762 7.8227,-34.871257 c 0.3129,-1.291524 0.4383,-2.582916 0.4383,-3.675745 0,-3.874572 -1.4393,-5.960747 -4.3807,-6.457487 v -8.246008 h 16.9592 v 8.444446 h -0.3757 c -2.8161,0 -5.0061,3.378084 -6.5706,10.133748 l -2.6288,11.325407 4.068,6.656441 -7.3846,7.748881 -6.7588,29.10933 h -8.7612 l -6.4461,-29.10933 -7.0089,-7.748881 3.8799,-6.259049 -2.4407,-11.027751 c -1.5646,-7.053709 -4.0676,-10.530623 -7.6347,-10.530623 v -8.544182 z m 206.6422,0 h 22.7169 v 7.848617 c -1.0638,0.09935 -1.9403,0.497127 -2.6913,1.291911 -0.9387,0.894132 -1.3766,2.185524 -1.3766,3.675744 0,0.99348 0.1877,2.086048 0.6258,3.377572 l 4.5682,14.008447 6.9463,6.358269 -3.129,5.36453 5.8203,17.88263 c 1.6271,4.967399 3.3167,7.252659 5.069,6.954609 v 6.85488 l -21.8411,-0.29817 v -6.55671 c 1.2516,0 2.4409,-0.29843 3.5047,-0.89451 1.4394,-0.79479 2.1906,-1.98696 2.1906,-3.57653 0,-1.09283 -0.3757,-2.682393 -1.1266,-4.768701 -0.3129,-0.894132 -0.8138,-2.38422 -1.6273,-4.470528 h -19.3998 c -1.0639,4.073268 -1.6273,6.656569 -1.6273,7.749397 0,4.073272 1.9399,6.060222 5.7573,5.960872 v 6.35827 l -19.0867,-0.19895 v -6.55671 c 3.0665,-0.19869 5.1315,-2.3846 6.258,-6.557219 l 4.7558,-17.386019 -3.5667,-5.761923 7.259,-7.947835 c 2.691,-10.03415 4.0054,-15.796192 4.0054,-17.187065 0,-2.086307 -0.8135,-3.079915 -2.5032,-3.079915 -0.5007,0 -1.0016,0.09909 -1.5648,0.198437 z m -142.1841,0.298173 -0.3127,17.88263 -3.5672,1.788521 c -0.8136,-6.457621 -4.8813,-10.828796 -9.1994,-10.828796 -2.8787,0 -4.8816,1.192173 -5.9454,3.576526 -0.9387,1.98696 -1.4392,5.364655 -1.4392,10.034013 v 4.073136 c 0,-0.298045 -2e-4,0.496738 0.062,2.384351 v 1.788521 c 0.751,0.49674 1.5647,0.794783 2.4407,0.794783 2.8162,0 4.3185,-3.278606 4.5062,-9.835575 l 4.3806,0.298173 0.5633,24.141162 h -5.0064 c -0.5633,-2.384352 -1.0642,-3.97353 -1.5023,-4.668965 -0.6258,-1.092829 -1.6896,-1.589568 -3.1915,-1.589568 -0.9387,0 -1.6895,0.496352 -2.1275,1.489832 0,7.252405 0.1248,12.021229 0.4377,14.206885 0.8136,6.060227 2.6913,9.040787 5.7578,9.040787 6.5709,0 11.1391,-6.060083 11.3895,-16.392276 l 5.0689,0.993221 -1.1265,24.042455 -36.1715,-0.29817 v -7.352 c 1.2516,0 2.2531,-1.19205 2.9414,-3.67575 0.5633,-1.887611 0.8134,-3.974045 0.8134,-6.259048 v -12.21941 l -4.3806,-7.053833 4.3176,-6.954614 V 58.665153 c 0,-3.278484 -0.3752,-5.961004 -1.0635,-8.246008 -0.9388,-2.881092 -2.3156,-4.172485 -4.193,-3.675745 v -7.252787 c 9.9503,-0.09935 22.0909,-0.09922 36.5471,-0.09922 z m 88.4897,0 -0.3132,17.88263 -3.5672,1.788521 c -0.8135,-6.457621 -4.8813,-10.828796 -9.1995,-10.828796 -2.8787,0 -4.881,1.192173 -5.9448,3.576526 -0.9388,1.98696 -1.4397,5.364655 -1.4397,10.034013 v 4.073136 c 0,-0.298045 3e-4,0.496738 0.063,2.384351 v 1.788521 c 0.751,0.49674 1.5646,0.794783 2.4407,0.794783 2.8162,0 4.318,-3.278606 4.5057,-9.835575 l 4.3806,0.298173 0.5633,24.141162 h -5.0065 c -0.5632,-2.384352 -1.0636,-3.97353 -1.5017,-4.668965 -0.6258,-1.092829 -1.6901,-1.589568 -3.192,-1.589568 -0.9387,0 -1.6894,0.496352 -2.1275,1.489832 0,7.252405 0.1252,12.021229 0.4382,14.206885 0.8135,6.060227 2.6907,9.040787 5.7572,9.040787 6.571,0 11.1392,-6.060083 11.3895,-16.392276 l 5.0695,0.993221 -1.1266,24.042455 -36.1719,-0.29817 v -7.352 c 1.2516,0 2.2531,-1.19205 2.9414,-3.67575 0.5633,-1.887611 0.8134,-3.974045 0.8134,-6.259048 v -12.21941 l -4.3806,-7.053833 4.3181,-6.954614 V 58.665153 c 0,-3.278484 -0.3757,-5.961004 -1.064,-8.246008 -0.9388,-2.881092 -2.3156,-4.172485 -4.1931,-3.675745 v -7.252787 c 9.9504,-0.09935 22.0915,-0.09922 36.5477,-0.09922 z m 160.9576,0 v 7.252788 h -0.1876 c -3.3794,0 -5.0689,2.980303 -5.0689,8.841837 v 12.914974 l 4.4431,7.252788 -4.4431,7.550443 V 97.90772 c 1.6896,1.589568 3.6299,2.38435 5.9453,2.38435 5.3194,0 9.5746,-5.36491 12.7037,-16.193844 l 3.6297,3.079916 -3.8799,25.433068 -34.6072,0.0992 v -8.246 c 1.7523,0 3.1292,-1.19231 4.1931,-3.47731 0.9387,-1.986962 1.3766,-4.470399 1.3766,-7.351491 l -0.062,-10.034013 -4.7563,-7.650179 4.7563,-7.649662 0.1251,0.198954 V 55.287065 c 0,-4.967401 -1.9403,-7.848487 -5.8829,-8.742619 v -6.854879 z m 56.3857,0 -0.3132,17.88263 -3.5672,1.788521 c -0.8136,-6.457621 -4.8814,-10.828796 -9.1994,-10.828796 -2.8788,0 -4.881,1.192173 -5.9449,3.576526 -0.9387,1.98696 -1.4397,5.364655 -1.4397,10.034013 v 4.073136 c 0,-0.298045 4e-4,0.496738 0.063,2.384351 v 1.788521 c 0.7509,0.49674 1.5645,0.794783 2.4406,0.794783 2.8161,0 4.3179,-3.278606 4.5057,-9.835575 l 4.3806,0.298173 0.5633,24.141162 h -5.0064 c -0.5632,-2.384352 -1.0642,-3.97353 -1.5023,-4.668965 -0.6258,-1.092829 -1.6896,-1.589568 -3.1915,-1.589568 -0.9388,0 -1.6895,0.496352 -2.1275,1.489832 0,7.252405 0.1253,12.021229 0.4382,14.206885 0.8136,6.060227 2.6908,9.040787 5.7573,9.040787 6.5709,0 11.1391,-6.060083 11.3895,-16.392276 l 5.0694,0.993221 -1.1265,24.042455 -36.172,-0.29817 v -7.352 c 1.2516,0 2.253,-1.19205 2.9414,-3.67575 0.5632,-1.887611 0.8134,-3.974045 0.8134,-6.259048 v -12.21941 l -4.3806,-7.053833 4.3181,-6.954614 V 58.665153 c 0,-3.278484 -0.3756,-5.961004 -1.064,-8.246008 -0.9387,-2.881092 -2.3156,-4.172485 -4.193,-3.675745 v -7.252787 c 9.9503,-0.09935 22.0914,-0.09922 36.5476,-0.09922 z m -100.3799,6.557223 c -1.4394,0 -2.691,0.39752 -3.7548,1.092956 -1.3768,0.993481 -2.065,2.483568 -2.065,4.470529 v 17.78341 c 0.6884,0.09935 1.3766,0.09922 2.0024,0.09922 6.3207,0 9.5121,-4.073259 9.5121,-12.319145 0,-3.079787 -0.438,-5.563353 -1.3766,-7.649662 -1.064,-2.285005 -2.5033,-3.477307 -4.3181,-3.477308 z m -649.33869,0.397392 c -3.6297,0 -5.44463,3.576649 -5.44463,10.630359 v 11.226188 l 4.5682,7.451225 -4.5682,7.748881 v 10.729577 c 0,2.483701 0.31264,4.570005 0.93844,6.358271 0.75098,2.285 1.81526,3.37809 3.25459,3.37809 4.75615,0 7.63444,-6.954478 8.57312,-20.962549 l -4.44314,-7.153052 4.63124,-7.451224 c -0.18778,-4.073269 -0.62579,-7.749138 -1.2516,-11.12697 -1.31424,-7.252405 -3.44184,-10.828796 -6.25802,-10.828796 z m 49.87654,1.192175 c -4.19288,0 -6.69601,6.954217 -7.57215,20.763591 l 4.50619,7.352006 -4.56871,7.748881 c 0.25032,3.675877 0.75075,7.451092 1.43918,11.126969 1.43933,7.649799 3.50455,11.425139 6.19549,11.425139 4.19297,0 6.44581,-7.55043 6.82129,-22.651327 l -0.12506,0.09922 -4.75578,-7.649663 4.63073,-7.352006 c -0.18771,-2.682397 -0.4379,-5.364658 -0.81339,-8.047054 -1.189,-8.543929 -3.12939,-12.815755 -5.75779,-12.815755 z m 164.71295,0 c -4.1929,0 -6.696,6.954217 -7.5722,20.763591 l 4.5057,7.352006 -4.5682,7.748881 c 0.2503,3.675877 0.7508,7.451092 1.4392,11.126969 1.4393,7.649799 3.5046,11.425139 6.1955,11.425139 4.1929,0 6.4458,-7.55043 6.8213,-22.651327 l -0.1251,0.09922 -4.7563,-7.649663 4.6313,-7.352006 c -0.1877,-2.682397 -0.4379,-5.364658 -0.8134,-8.047054 -1.1891,-8.543929 -3.1294,-12.815755 -5.7578,-12.815755 z m 92.8703,1.589567 c -4.5058,0 -6.7588,3.079781 -6.7588,9.140011 v 15.89567 c 0.8136,0.298044 1.6267,0.496611 2.3777,0.496611 5.82,0 9.7002,-6.05996 9.7002,-15.299325 0,-2.98044 -0.4381,-5.364787 -1.2517,-7.153052 -0.9387,-2.086308 -2.2525,-3.079915 -4.0674,-3.079915 z m 287.4336,10.034013 -5.6322,22.353158 12.7041,0.09973 z m 54.0071,18.37924 c -1.6271,0 -3.3791,0.695822 -5.2566,2.086694 v 16.293063 c 0,5.762189 1.6896,8.642879 5.1315,8.642879 2.4406,0 4.5059,-1.39074 6.133,-4.07313 1.6896,-2.682399 2.5032,-6.060224 2.5032,-9.934797 0,-3.675877 -0.8136,-6.755529 -2.5032,-9.239229 -1.6271,-2.4837 -3.6299,-3.77548 -6.0079,-3.77548 z" /></g></svg>
