<?xml version="1.0" encoding="UTF-8" standalone="no"?>
<!-- Created with Inkscape (http://www.inkscape.org/) -->

<svg
   width="36in"
   height="5.9999995in"
   viewBox="0 0 914.40001 152.39999"
   version="1.1"
   id="svg1"
   inkscape:version="1.3.2 (091e20e, 2023-11-25, custom)"
   sodipodi:docname="don-your-vegetables.svg"
   xml:space="preserve"
   xmlns:inkscape="http://www.inkscape.org/namespaces/inkscape"
   xmlns:sodipodi="http://sodipodi.sourceforge.net/DTD/sodipodi-0.dtd"
   xmlns="http://www.w3.org/2000/svg"
   xmlns:svg="http://www.w3.org/2000/svg"><sodipodi:namedview
     id="namedview1"
     pagecolor="#505050"
     bordercolor="#eeeeee"
     borderopacity="1"
     inkscape:showpageshadow="0"
     inkscape:pageopacity="0"
     inkscape:pagecheckerboard="0"
     inkscape:deskcolor="#505050"
     inkscape:document-units="in"
     inkscape:zoom="0.32827932"
     inkscape:cx="2051.6065"
     inkscape:cy="-178.2019"
     inkscape:current-layer="layer3"><inkscape:page
       x="1.4065279e-06"
       y="0"
       width="914.40002"
       height="152.39999"
       id="page49"
       margin="0"
       bleed="0" /></sodipodi:namedview><defs
     id="defs1"><inkscape:path-effect
       effect="lattice2"
       gridpoint0="855.28008,-3.5527137e-15"
       gridpoint1="1298.3197,-3.5527137e-15"
       gridpoint2="855.28007,111.7601"
       gridpoint3="1298.3197,111.7601"
       gridpoint4="966.04,-3.5527137e-15"
       gridpoint5="1187.5598,-3.5527137e-15"
       gridpoint6="984.20572,159.64132"
       gridpoint7="1169.3941,159.64132"
       gridpoint8x9="1076.7999,0"
       gridpoint10x11="1076.8,171.03042"
       gridpoint12="855.2801,27.940025"
       gridpoint13="1298.3197,27.940025"
       gridpoint14="855.2801,83.820075"
       gridpoint15="1298.3197,83.820075"
       gridpoint16="966.04,27.940025"
       gridpoint17="1187.5598,27.940025"
       gridpoint18="966.04,83.820075"
       gridpoint19="1187.5598,83.820075"
       gridpoint20x21="1076.7999,27.940025"
       gridpoint22x23="1076.7999,83.820075"
       gridpoint24x26="855.2801,55.88005"
       gridpoint25x27="1298.3197,55.88005"
       gridpoint28x30="966.04,55.88005"
       gridpoint29x31="1187.5598,55.88005"
       gridpoint32x33x34x35="1076.7999,55.88005"
       id="path-effect10"
       is_visible="true"
       lpeversion="1"
       horizontal_mirror="false"
       vertical_mirror="true"
       perimetral="true"
       live_update="true" /><inkscape:path-effect
       effect="envelope"
       id="path-effect9"
       is_visible="true"
       lpeversion="1"
       yy="true"
       xx="true"
       bendpath1="m 855.2801,0 h 443.0396"
       bendpath2="M 1298.3197,0 V 111.7601"
       bendpath3="m 855.2801,111.7601 c 0,116.83991 443.0396,116.83991 443.0396,0"
       bendpath4="M 855.2801,0 V 111.7601"
       bendpath3-nodetypes="cc"
       bendpath2-nodetypes="cc" /><inkscape:path-effect
       effect="bend_path"
       id="path-effect5"
       is_visible="true"
       lpeversion="1"
       bendpath="M 38.099998,139.7 C 381,190.5 381,0 723.90002,50.799999"
       prop_scale="1"
       scale_y_rel="false"
       vertical="false"
       hide_knot="false"
       bendpath-nodetypes="cc" /><inkscape:path-effect
       effect="lattice2"
       gridpoint0="49.252804,100.01878"
       gridpoint1="712.7472,100.01878"
       gridpoint2="49.252804,138.98238"
       gridpoint3="712.7472,138.98238"
       gridpoint4="215.1264,100.01878"
       gridpoint5="546.8736,100.01878"
       gridpoint6="215.1264,138.98238"
       gridpoint7="546.8736,138.98238"
       gridpoint8x9="381,100.01878"
       gridpoint10x11="381,138.98238"
       gridpoint12="49.252804,109.75968"
       gridpoint13="712.7472,109.75968"
       gridpoint14="49.252804,129.24148"
       gridpoint15="712.7472,129.24148"
       gridpoint16="215.1264,109.75968"
       gridpoint17="546.8736,109.75968"
       gridpoint18="215.1264,129.24148"
       gridpoint19="546.8736,129.24148"
       gridpoint20x21="381,109.75968"
       gridpoint22x23="381,129.24148"
       gridpoint24x26="49.252804,119.50058"
       gridpoint25x27="712.75,119.50058"
       gridpoint28x30="215.1264,119.50058"
       gridpoint29x31="546.8736,119.50058"
       gridpoint32x33x34x35="381,119.50058"
       id="path-effect4"
       is_visible="true"
       lpeversion="1"
       horizontal_mirror="false"
       vertical_mirror="false"
       perimetral="false"
       live_update="false" /><inkscape:path-effect
       effect="bend_path"
       id="path-effect3"
       is_visible="true"
       lpeversion="1"
       bendpath="M 36.981735,154.66941 C 379.88174,230.8694 379.88174,2.2693982 722.78176,78.469395"
       prop_scale="1"
       scale_y_rel="false"
       vertical="false"
       hide_knot="false"
       bendpath-nodetypes="cc" /></defs><g
     inkscape:groupmode="layer"
     id="layer3"
     inkscape:label="RUSTIC"
     style="display:inline"
     transform="translate(-797.40002)"><g
       id="g54"
       inkscape:label="rustic wood piece"
       style="display:none"><path
         d="m 921.36237,0 c -8.77274,0 -38.52369,2.8306557 -66.73339,5.6477173 l -54.23959,5.7820757 c -1.61516,0.08559 -2.90464,1.354686 -2.88561,5.41414 0.019,4.059454 -0.0131,8.450463 0.30903,11.768791 0.16109,1.659163 0.39937,3.07487 0.93586,4.412134 0.53647,1.337265 1.48591,2.607571 2.71508,3.423047 2.45835,1.63095 5.05748,1.636951 7.16207,3.299678 2.10458,1.662727 1.45125,2.020077 0.90978,2.922164 -0.54145,0.902086 -0.55109,2.357509 -0.18293,3.176034 0.73634,1.63705 1.56087,1.819939 0.63309,2.552572 -0.92777,0.732633 -5.43828,1.271758 -6.33042,1.333495 -0.9688,0.06704 -1.81795,0.583935 -2.28099,1.047999 -0.46304,0.464062 -0.67511,0.876952 -0.83871,1.238167 -0.32719,0.722431 -0.44242,1.317779 -0.55087,1.980241 -1.23094,13.398168 1.1008,26.843314 2.23632,40.16344 0.0605,1.235538 -1.02754,10.323525 -3.49361,32.927185 -0.0186,1.38467 0.89641,2.61482 1.31224,3.05149 -0.18919,0.13754 -0.37695,2.94705 -1.08486,6.22392 -0.70792,3.27686 -1.39814,7.30771 -1.03147,10.97866 0.10756,1.07684 0.72546,1.98394 1.30225,2.5063 0.57679,0.52236 1.13238,0.79813 1.67793,1.02371 1.09113,0.45117 2.21845,0.68117 3.55999,0.88005 2.68312,0.39775 6.17943,0.57064 10.39523,0.62735 8.43161,0.11343 19.64958,-0.28259 31.42599,-0.79581 11.77641,-0.51322 24.09887,-1.14439 34.61236,-1.50947 10.5135,-0.36509 19.36025,-0.42865 23.52983,0.061 5.38416,0.63228 19.88532,0.74343 39.83995,0.73484 19.95465,-0.009 44.97971,-0.19781 69.99938,-0.36949 25.0198,-0.17167 50.036,-0.32563 69.9466,-0.26562 19.9107,0.0601 35.1726,0.42439 39.0054,0.98702 5.2198,0.76623 15.5113,1.02957 28.5822,1.06402 13.071,0.0345 28.7237,-0.20529 43.848,-0.61805 15.1242,-0.41275 29.7127,-0.99736 40.6673,-1.65313 5.4771,-0.32788 10.0382,-0.67355 13.3562,-1.03146 1.6591,-0.17896 2.9978,-0.35502 4.066,-0.56017 0.534,-0.10256 0.991,-0.2052 1.4831,-0.36949 0.492,-0.1643 1.1339,0.0683 2.1585,-1.58595 -0.6481,1.04637 -0.5725,0.54002 0.033,0.32298 0.6057,-0.21704 1.6209,-0.48191 2.8453,-0.7152 2.4489,-0.46659 5.7621,-0.83719 9.1069,-1.00253 3.3448,-0.16534 6.7484,-0.12439 9.3581,0.16433 1.3049,0.14438 2.4134,0.35556 3.1435,0.57775 0.7301,0.2222 1.0121,0.53861 0.7591,0.25269 1.0133,1.14537 1.591,1.10183 2.1782,1.28003 0.5871,0.1782 1.1874,0.3027 1.8898,0.42271 1.4048,0.24 3.1918,0.44264 5.3877,0.63356 4.3921,0.38184 10.3851,0.70351 17.5096,0.97926 14.249,0.55151 32.9966,0.91104 52.0108,1.11725 19.014,0.20621 38.2889,0.2584 53.5657,0.18965 15.2767,-0.0688 26.1869,-0.21476 29.7682,-0.54519 2.4367,-0.22483 13.0008,-0.45144 26.8945,-0.55862 13.8936,-0.10716 31.43,-0.13213 48.9282,-0.0806 17.4983,0.0514 34.9608,0.17942 48.7097,0.38085 13.7491,0.20143 24.259,0.55079 26.169,0.79427 3.3109,0.42205 11.3385,0.63407 22.3366,0.83406 10.9981,0.19999 24.6379,0.33403 37.9636,0.41134 13.3255,0.0773 26.3353,0.0981 36.0644,0.0744 4.8646,-0.0118 8.9071,-0.0335 11.7699,-0.0667 1.4314,-0.0166 2.5649,-0.0371 3.377,-0.0594 0.406,-0.0111 0.7273,-0.0218 0.9963,-0.0367 0.1345,-0.008 0.2506,-0.0147 0.4026,-0.0305 0.076,-0.008 0.1581,-0.0159 0.3039,-0.0419 0.1459,-0.0261 0.1887,0.12589 1.08,-0.39223 1.6465,-0.95704 1.5553,-1.86301 1.6759,-2.37815 0.1205,-0.51513 0.1496,-0.91899 0.1715,-1.34358 0.044,-0.84918 0.014,-1.74181 -0.033,-2.64945 -0.094,-1.81532 -0.261,-3.96509 -0.261,-3.99873 0,-1.81258 -1.2172,-2.86285 -2.0593,-3.39049 0.3676,-0.14473 0.75,-0.2781 1.4578,-1.23765 v -0.002 c 0.7582,-1.02926 0.57,-1.22912 0.6154,-1.49242 0.046,-0.2636 0.063,-0.46577 0.078,-0.68316 0.031,-0.4348 0.042,-0.91062 0.045,-1.48105 0.01,-1.14086 -0.025,-2.63645 -0.082,-4.40231 -0.1144,-3.53172 -0.3324,-8.12131 -0.5721,-12.72326 -0.2397,-4.60195 -0.5012,-9.21239 -0.7028,-12.75581 -0.1008,-1.77172 -0.1867,-3.277498 -0.247,-4.37751 -0.061,-1.100003 -0.092,-2.064466 -0.092,-1.815393 0,-1.167137 -0.6169,-1.962787 -1.0144,-2.34766 -0.3976,-0.384873 -0.6958,-0.541108 -0.9534,-0.673861 -0.5154,-0.265505 -0.9096,-0.385372 -1.3493,-0.51263 -2.7852,-0.750139 -5.6637,-1.070393 -8.5152,-1.46141 l 9.6499,-2.292365 c 0.3725,-0.407822 0.4901,-0.684716 0.586,-0.89917 0.1918,-0.428907 0.2317,-0.659425 0.2822,-0.895553 0.1012,-0.472253 0.1514,-0.900053 0.2026,-1.425236 0.1026,-1.050365 0.179,-2.414581 0.2433,-4.048331 0.1285,-3.267498 0.2027,-7.570083 0.2471,-11.902633 0.089,-8.665101 0.053,-17.573838 0.053,-17.904334 0,-1.374934 -0.806,-2.20958 -1.2609,-2.57917 -0.4549,-0.369591 -0.7837,-0.510508 -1.0883,-0.640788 -0.6091,-0.260563 -1.1481,-0.402701 -1.7906,-0.557072 -1.285,-0.308743 -6.4175,-0.592785 -6.4778,-1.589656 -0.06,-0.996871 5.9177,-1.289048 5.8509,-1.284071 1.2475,-0.09297 2.0047,-0.793418 2.3689,-1.226281 0.3643,-0.432864 0.5099,-0.753777 0.6366,-1.044381 0.2535,-0.581208 0.3746,-1.069646 0.5003,-1.632458 0.2514,-1.125624 0.4446,-2.494387 0.6304,-4.121196 0.3719,-3.253618 0.6799,-7.477909 0.9302,-11.745536 0.2503,-4.267629 0.4411,-8.566421 0.5705,-11.902116 0.1295,-3.335693 0.1984,-5.447113 0.1984,-6.1856693 0,-1.0104252 -0.5824,-1.9195862 -1.0371,-2.3378418 -0.4547,-0.4182557 -0.8001,-0.5592724 -1.0651,-0.6661092 -0.5297,-0.2136736 -0.83,-0.2494174 -1.1405,-0.2945557 -0.621,-0.090277 -1.2118,-0.1119886 -1.9425,-0.1245402 -1.4614,-0.025103 -3.3919,0.029234 -5.7164,0.133842 -4.6493,0.2092146 -10.8238,0.6245992 -17.1437,1.0619507 -6.3199,0.4373515 -12.7825,0.8984343 -17.9358,1.1999267 -2.5766,0.1507462 -4.8273,0.2616215 -6.5454,0.3100586 -1.718,0.048437 -3.1163,-0.031581 -3.052,-0.021187 -0.8382,-0.135357 -1.4931,-0.1456596 -2.9037,-0.223759 -1.4106,-0.078099 -3.3137,-0.1685282 -5.6508,-0.269751 -4.674,-0.2024455 -11.0797,-0.4481107 -18.6459,-0.721403 -15.1322,-0.5465846 -34.9062,-1.2036813 -54.7067,-1.8350301 -19.8005,-0.6313487 -39.6251,-1.2379761 -54.8525,-1.6872355 -15.2273,-0.4492593 -25.4994,-0.7425903 -27.3482,-0.7425903 -2.1459,0 -4.0301,0.8156665 -5.4462,1.7776692 -1.4162,0.9620027 -2.5008,2.0422471 -3.5873,3.0034343 -2.1731,1.9223747 -4.0994,3.4566406 -8.0678,3.7770306 -0.5061,0.04086 -5.1692,0.0385 -11.7517,-0.1204062 -6.5825,-0.1589025 -15.4917,-0.4293334 -25.9493,-0.7751465 -20.9154,-0.6916259 -48.0281,-1.6876632 -75.1918,-2.7073283 -27.1638,-1.0196651 -54.3809,-2.0633573 -75.5096,-2.8525391 -21.1289,-0.7891818 -35.874,-1.3260173 -39.0891,-1.3260173 -5.8363,0 -19.9786,0.5862174 -34.2129,1.168921 -14.2345,0.5827035 -28.56,1.1637532 -33.9509,1.1637532 -5.1681,0 -65.6965,-1.1651921 -126.4435,-2.3306071 C 990.79256,1.1668737 929.69355,0 921.36237,0 Z"
         style="fill:#765ba7;stroke:none;stroke-width:0.9906;stroke-linecap:square;stroke-linejoin:round;stroke-dasharray:none;paint-order:stroke fill markers"
         id="path53"
         sodipodi:nodetypes="sccsssscsscsssssccssssssssscssssssssscssssscsssssssssssssssscssssssscccccccssccsssccsssssssssccssssssssssssssscssssssssssssssssss" /><path
         id="path52"
         style="color:#000000;fill:#f15060;stroke-linecap:square;stroke-linejoin:round;-inkscape-stroke:none;paint-order:stroke fill markers"
         d="m 920.20534,0.58756104 c -16.09442,0 -121.21793,12.49691196 -121.21793,12.49691196 0.49622,26.5654 -1.30068,19.037702 23.84661,22.408451 25.14755,3.370781 8.85208,6.344784 -5.43171,6.939628 -14.2838,0.594843 -2.21292,3.569307 3.21892,5.552116 5.43189,1.982813 -15.4909,4.163725 -18.30741,4.362008 -2.81653,0.198282 0.80446,37.871771 1.00563,42.035677 0.2012,4.16391 -3.01739,34.104377 -3.01739,34.104377 l 25.54986,-1.38803 -23.94066,5.55212 c 0,0 -3.01785,9.71587 -2.41432,15.8626 0.60355,6.14741 85.31303,-1.23303 104.09081,1.01027 18.77777,2.2433 200.86555,-2.6827 219.64345,0.12144 18.7778,2.80412 129.4482,-0.75867 131.4447,-3.36465 1.4934,-1.94926 28.8094,-2.27372 30.4426,-0.84129 3.9114,3.43051 148.2307,4.20621 160.1804,3.08456 11.9494,-1.12165 141.1178,-0.84136 151.9292,0.56069 10.8117,1.40208 111.9557,1.542 112.667,1.12138 0.7113,-0.42062 0,-6.58935 0,-7.8512 0,-1.26186 -3.8409,-1.96321 -7.1127,-2.38383 -3.2719,-0.42062 6.4014,-3.22449 7.1127,-4.20595 0.7113,-0.98143 -1.5647,-37.294798 -1.5647,-38.696862 0,-1.402055 -24.326,-3.645476 -26.1752,-4.346505 -1.8493,-0.701032 23.7567,-5.187797 24.7525,-5.187797 0.9957,0 0.8537,-34.770898 0.8537,-35.75234 0,-0.981443 -9.9577,-2.103183 -21.3382,-3.925859 -11.3805,-1.822676 17.6395,-5.888367 19.4887,-6.028572 1.8493,-0.140207 2.9208,-33.8942727 2.9208,-35.4805223 0,-1.5862493 -48.2831,3.1723082 -53.1115,2.3791829 -4.8283,-0.7931247 -162.0302,-5.5515991 -167.6632,-5.5515991 -5.633,0 -3.7425,7.9308915 -13.3992,8.7240155 -9.6566,0.793125 -217.2751,-8.4310101 -228.5411,-8.4310101 -11.2659,0 -57.1353,2.8794108 -68.4015,2.8794108 -11.266,0 -241.41646,-5.75882166 -257.51086,-5.75882166 z M 918.79095,38.1 c 5.94515,0 10.76416,4.073389 14.51901,12.219926 2.44062,5.265445 4.06787,11.226312 4.7563,17.88263 l 4.5682,7.451225 -4.50567,7.649662 c -0.68835,7.053708 -2.3155,13.312491 -4.88136,18.776627 -3.81739,8.14654 -8.82386,12.21993 -14.89418,12.21993 -5.88261,0 -10.76414,-4.07339 -14.58154,-12.21993 -2.69102,-5.762181 -4.3806,-12.219917 -5.00641,-19.372973 l -4.31808,-6.954098 4.44314,-7.153051 c 0.68835,-6.755665 2.3781,-12.815881 4.94388,-18.280022 C 907.71426,42.173389 912.72064,38.1 918.79095,38.1 Z m 164.71295,0 c 5.9451,0 10.7641,4.073389 14.519,12.219926 2.4406,5.265445 4.0674,11.226312 4.7558,17.88263 l 4.5687,7.451225 -4.5057,7.649662 c -0.6884,7.053708 -2.3155,13.312491 -4.8813,18.776627 -3.8174,8.14654 -8.8238,12.21993 -14.8942,12.21993 -5.8825,0 -10.7641,-4.07339 -14.5815,-12.21993 -2.691,-5.762181 -4.3806,-12.219917 -5.0065,-19.372973 l -4.318,-6.954098 4.4431,-7.153051 c 0.6884,-6.755665 2.3781,-12.815881 4.9439,-18.280022 3.88,-8.146537 8.8864,-12.219926 14.9567,-12.219926 z m 256.6443,0.298173 14.581,0.496611 2.8789,20.068542 -4.6312,1.887224 c -0.4381,-4.073269 -1.6267,-7.550313 -3.5668,-10.431405 -1.9399,-2.881092 -4.2555,-4.371309 -6.8212,-4.371309 -3.8801,0 -6.7589,3.775087 -8.5737,11.226188 -0.8136,3.377832 -1.3769,7.252396 -1.6898,11.524361 l 4.193,6.855396 -4.2555,7.153051 c 0.2503,4.271965 0.7507,8.046922 1.5017,11.325407 1.6271,6.954361 4.2555,10.431401 7.9478,10.431401 3.5046,0 6.133,-3.17874 6.133,-8.642879 v -9.438184 c 0,-4.371312 -2.3154,-7.650048 -5.1315,-8.544181 v -8.047054 l 18.4614,1.192175 v 7.451225 c -2.5658,1.291525 -3.8798,5.265436 -3.8798,11.921753 v 21.558375 c -8.1356,0.79478 -13.8306,1.0927 -17.0223,0.894 -1.8148,0.1987 -3.3792,2.6e-4 -4.5682,-0.59583 -8.6987,-4.27196 -13.6431,-14.107265 -14.8321,-29.506208 l -4.3806,-7.053833 4.318,-6.854878 c 0.5633,-7.153058 2.1904,-13.511316 4.9439,-19.074805 3.7549,-7.649798 8.574,-11.425143 14.394,-11.425143 z m -163.2107,0.09922 c 4.4432,0 8.1351,2.285257 10.9512,6.954614 2.8161,4.669356 4.2556,10.530749 4.2556,17.584457 0,2.682397 -0.3126,5.066614 -0.9384,7.25227 l 2.19,5.166093 -7.5721,3.079916 c -0.751,0.49674 -1.5646,0.794913 -2.3782,1.092956 1.9401,1.589569 3.5672,4.172482 4.8814,7.649663 l 2.1275,7.25227 c 1.1891,3.377832 2.2533,5.066874 3.2546,5.066874 1.3767,0 2.7532,-1.986826 4.1299,-6.060095 0.9387,2.682397 1.3772,5.165704 1.3772,7.450709 0,3.37783 -0.8765,6.15996 -2.6288,8.44496 -1.6896,2.285 -3.6295,3.37757 -5.8198,3.37757 -3.88,0 -6.8212,-2.58317 -8.8237,-7.84861 -0.6884,-3.07979 -1.8152,-7.550442 -3.3171,-13.511323 -1.6897,-5.960881 -3.6294,-8.941057 -5.8824,-8.941057 -2.3154,0 -3.4421,1.192045 -3.4421,3.675745 v 8.941573 c 0,4.768704 2.0026,9.139882 4.9439,9.239232 v 7.74888 c -0.8136,0.29804 -7.6973,0.29843 -20.589,0.0997 v -6.75566 c 2.6911,-0.49674 4.5057,-4.173 4.5057,-8.444959 V 83.00527 l -4.5057,-7.252271 4.5057,-7.153051 V 56.181584 c 0,-5.464141 -1.1263,-8.14679 -3.3166,-8.14679 -0.4381,0 -0.876,0.09935 -1.3766,0.397392 v -9.338965 c 1.5019,0 9.3245,-0.198437 23.4678,-0.595828 z m 464.0993,0.09922 c 4.0052,0 9.5124,0.298043 16.584,0.794783 l 0.6883,25.433073 -3.7548,0.497128 c -1.8149,-12.617199 -5.3822,-18.876368 -10.8267,-18.876368 -1.9401,0 -3.6296,1.192173 -5.0064,3.576526 -1.3143,2.285004 -2.0025,5.066872 -2.0025,8.246009 0,2.682397 1.2516,4.669352 3.8173,5.960876 0,0 2.6911,1.192174 8.0104,3.576526 1.8149,0.794784 3.3171,1.688914 4.5687,2.781742 l 7.8848,5.066875 -2.4407,4.172355 c 1.0013,3.079787 1.5023,6.258789 1.5023,9.636621 0,7.053709 -1.8149,12.915611 -5.5072,17.584971 -3.3794,4.37131 -7.3844,6.55671 -11.9527,6.55671 -1.5646,0 -6.8215,-0.69531 -15.8957,-2.08618 l -0.6883,-26.227856 4.4431,-0.496611 c 0.751,4.073268 2.3782,8.344837 4.8188,12.616801 2.7536,4.868046 5.3192,7.252786 7.6347,7.252786 3.7549,0 6.8838,-4.37131 6.8838,-10.332184 0,-4.868053 -2.1276,-8.345356 -6.3205,-10.232968 l -19.4004,-8.345227 2.7538,-4.371309 c -1.0013,-2.980441 -1.5017,-6.55709 -1.5017,-10.630359 0,-6.755665 1.5642,-12.219794 4.7558,-16.293062 2.9414,-3.874573 6.6337,-5.861658 10.9518,-5.861658 z m -490.1334,0.09922 0.062,8.743135 h -0.3751 c -2.691,0 -4.068,2.384218 -4.068,7.252271 v 15.100887 l 3.5672,5.861658 -3.5672,6.060095 v 10.530623 c 0,6.159576 -1.6271,11.325658 -4.9439,15.498278 -3.0665,3.97392 -6.571,5.96087 -10.5136,5.96087 -4.7561,0 -8.6986,-2.4833 -11.8277,-7.4507 -3.129,-5.06675 -4.6932,-11.325918 -4.6932,-18.876368 V 83.00527 l -4.5062,-7.252271 4.5062,-7.153051 v -13.01471 c 0,-2.4837 -0.3756,-4.669352 -1.1266,-6.358268 -0.8761,-2.086309 -2.0652,-2.880961 -3.6297,-2.48357 v -7.550443 l 19.5249,-0.198954 V 46.7434 c -2.691,0.09935 -4.4432,3.576523 -4.4432,7.947836 v 13.51132 l 4.5688,7.451225 -4.5688,7.748881 v 6.557222 c 0,8.941322 2.691,13.411586 8.0729,13.411586 2.3781,0 4.2556,-1.29113 5.5697,-3.874183 1.2516,-2.384353 1.8774,-5.464393 1.8774,-9.338965 v -8.841838 l -3.4416,-5.563485 3.4416,-5.464266 v -12.12019 c 0,-7.451101 -1.8774,-11.226576 -5.5697,-11.325924 l -0.062,-7.947835 z m 294.6306,0.09974 v 26.52603 l -4.5682,4.073136 c -0.3755,-6.258926 -0.6886,-10.233095 -0.939,-11.723315 -0.8761,-5.464141 -2.378,-8.245492 -4.4431,-8.245492 -2.1904,0 -4.4431,3.079525 -4.4431,6.556706 v 12.518099 l 4.3806,7.153052 -4.3806,7.351489 v 13.213147 c 0,2.285004 0.3755,4.371565 1.064,6.159835 0.8135,1.98696 1.9397,2.88109 3.3791,2.78174 l 0.062,6.9541 c -0.6883,0.29804 -1.4394,0.49712 -2.3781,0.49712 h -7.0089 -8.4486 c -0.5006,0 -1.001,-3.8e-4 -1.5642,-0.0997 v -6.75566 c 2.4406,-0.69544 4.1305,-3.77509 4.1305,-7.649665 V 83.303443 l -4.8814,-7.550444 4.8814,-7.451224 V 55.585238 c 0,-4.073268 -1.1268,-6.060095 -3.3171,-6.060095 -2.3781,0 -4.193,2.68239 -5.5072,7.947835 -0.9387,3.775224 -1.4391,7.947575 -1.5642,12.517582 l -4.1305,-3.576526 v -27.51925 z m -597.27156,0.198438 20.58944,0.198954 c 5.63221,0 10.0752,2.682391 13.39195,7.947835 3.19167,5.066749 5.06945,12.120313 5.69526,21.160983 l 4.50567,7.352006 -4.50567,7.649662 c -0.56327,7.252405 -1.8777,13.213014 -3.94291,18.081069 -3.31675,7.6498 -8.19827,11.42514 -14.64407,11.42514 h -19.33732 c -0.56327,0 -1.12655,-0.0991 -1.68982,-0.19844 v -6.35826 c 2.81618,-0.89414 4.69377,-4.76883 4.69377,-9.438189 l -0.0625,-13.412101 -4.7563,-7.649663 4.7563,-7.649662 0.0625,0.09922 V 57.771151 c 0,-8.345233 -1.56471,-12.120579 -4.7563,-11.425142 z m 211.58606,0 -0.062,8.444962 c -1.4394,0.09935 -3.0042,1.092827 -4.6938,3.179134 -1.3768,1.688917 -2.5655,3.675873 -3.5042,5.960877 l -5.5697,13.411584 3.5047,5.663221 -7.7602,6.75566 0.062,16.094108 c 0,3.973923 2.7538,6.656313 5.3196,6.358273 v 7.45122 l -22.4038,-0.0992 v -7.15305 h 0.2501 c 3.2542,0 4.8813,-2.18604 4.8813,-6.458004 V 82.409441 l -8.0728,-6.656442 3.5672,-5.762439 -7.4471,-19.472196 c -1.0639,-2.185657 -2.1907,-3.278353 -3.3171,-3.278353 -0.2503,0 -0.5006,0.09961 -0.7509,0.198954 v -8.146789 l 21.1522,-0.09922 -0.062,7.947835 c -0.6884,-0.298043 -1.2517,-0.397392 -1.7524,-0.397392 -1.189,0 -1.8148,0.695306 -1.8148,2.086178 0,1.291524 1.0637,4.570131 3.1915,9.835575 l 4.068,10.034013 c 0.7509,-1.49022 2.0649,-4.371177 3.9424,-8.444446 2.0026,-4.47066 3.0039,-7.749266 3.0039,-9.835575 0,-2.285005 -1.0639,-3.477307 -3.129,-3.477307 -0.3755,0 -0.751,3.87e-4 -1.1891,0.09974 l -0.062,-7.650179 z m 455.2756,0 c 6.7586,-0.298045 11.7026,1.291778 14.8316,4.967655 3.5046,3.973921 5.2571,9.140134 5.2571,15.39906 0,5.464141 -1.815,9.835444 -5.4447,13.113928 2.0652,1.390874 3.7547,3.874181 5.069,7.450709 1.3141,3.576528 2.0024,7.252656 2.0024,10.928531 0,7.252406 -2.1275,13.014446 -6.3205,17.187066 -3.5045,3.07979 -8.8865,4.66948 -16.0833,4.66948 -7.1967,0.0994 -12.7664,0.0992 -16.7716,0.0992 l -0.6258,-0.0992 v -7.05383 c 2.691,-1.09283 4.4432,-4.96752 4.4432,-9.438185 V 83.204224 l -4.6313,-7.451225 4.6313,-7.352006 V 57.075586 c 0,-3.278484 -0.3756,-5.861786 -1.1891,-7.749398 -0.9387,-2.285003 -2.4406,-3.278352 -4.3806,-2.880961 v -6.75566 c 0.6884,-0.09935 2.378,-0.198954 5.0689,-0.198954 2.6911,0 7.4472,-0.198567 14.1434,-0.49661 z m -535.06609,0.09922 c 4.81878,-0.09935 7.50972,-0.09935 8.01037,0 v 8.345744 c -2.56578,0.09935 -4.50619,3.079784 -4.50619,7.153052 v 13.709758 l 4.50619,7.352006 -4.50619,7.649662 v 28.711427 h -4.63072 L 957.8418,73.467867 v 22.452894 c 0,6.358269 1.68957,9.437929 5.06894,9.239229 v 7.15305 c -0.62581,0.39739 -3.50462,0.59596 -8.57364,0.49661 -5.06909,0 -7.82247,1.3e-4 -8.13542,-0.0992 v -7.352 c 2.56578,-0.39739 4.38061,-3.77509 4.38061,-8.047056 V 83.303443 l -0.12505,0.09922 -4.7563,-7.649663 4.7563,-7.649662 0.12505,0.198438 v -7.748882 c 0,-3.675875 -0.56336,-6.557349 -1.68982,-8.842354 -1.25154,-2.4837 -3.00361,-3.775093 -5.25652,-3.675745 v -8.841837 h 10.70115 l 22.52938,41.129789 V 56.876632 c 0,-6.457621 -1.56472,-9.636621 -4.69377,-9.636621 v -7.947835 c 0.43802,-0.09935 3.06661,-0.198955 7.8853,-0.198955 z m 268.28389,0 0.062,8.444963 c -1.3768,0.09935 -2.5654,0.496481 -3.5042,1.390613 -1.2516,1.092828 -1.8779,2.583303 -1.8779,4.570263 0,1.490221 1.252,7.749002 3.8179,18.776632 l 4.7558,20.167762 7.8227,-34.871257 c 0.3129,-1.291524 0.4383,-2.582916 0.4383,-3.675745 0,-3.874572 -1.4393,-5.960747 -4.3807,-6.457487 v -8.246008 h 16.9592 v 8.444446 h -0.3757 c -2.8161,0 -5.0061,3.378084 -6.5706,10.133748 l -2.6288,11.325407 4.068,6.656441 -7.3846,7.748881 -6.7588,29.10933 h -8.7612 l -6.4461,-29.10933 -7.0089,-7.748881 3.8799,-6.259049 -2.4407,-11.027751 c -1.5646,-7.053709 -4.0676,-10.530623 -7.6347,-10.530623 v -8.544182 z m 206.6422,0 h 22.7169 v 7.848617 c -1.0638,0.09935 -1.9403,0.497127 -2.6913,1.291911 -0.9387,0.894132 -1.3766,2.185524 -1.3766,3.675744 0,0.99348 0.1877,2.086048 0.6258,3.377572 l 4.5682,14.008447 6.9463,6.358269 -3.129,5.36453 5.8203,17.88263 c 1.6271,4.967399 3.3167,7.252659 5.069,6.954609 v 6.85488 l -21.8411,-0.29817 v -6.55671 c 1.2516,0 2.4409,-0.29843 3.5047,-0.89451 1.4394,-0.79479 2.1906,-1.98696 2.1906,-3.57653 0,-1.09283 -0.3757,-2.682393 -1.1266,-4.768701 -0.3129,-0.894132 -0.8138,-2.38422 -1.6273,-4.470528 h -19.3998 c -1.0639,4.073268 -1.6273,6.656569 -1.6273,7.749397 0,4.073272 1.9399,6.060222 5.7573,5.960872 v 6.35827 l -19.0867,-0.19895 v -6.55671 c 3.0665,-0.19869 5.1315,-2.3846 6.258,-6.557219 l 4.7558,-17.386019 -3.5667,-5.761923 7.259,-7.947835 c 2.691,-10.03415 4.0054,-15.796192 4.0054,-17.187065 0,-2.086307 -0.8135,-3.079915 -2.5032,-3.079915 -0.5007,0 -1.0016,0.09909 -1.5648,0.198437 z m -142.1841,0.298173 -0.3127,17.88263 -3.5672,1.788521 c -0.8136,-6.457621 -4.8813,-10.828796 -9.1994,-10.828796 -2.8787,0 -4.8816,1.192173 -5.9454,3.576526 -0.9387,1.98696 -1.4392,5.364655 -1.4392,10.034013 v 4.073136 c 0,-0.298045 -2e-4,0.496738 0.062,2.384351 v 1.788521 c 0.751,0.49674 1.5647,0.794783 2.4407,0.794783 2.8162,0 4.3185,-3.278606 4.5062,-9.835575 l 4.3806,0.298173 0.5633,24.141162 h -5.0064 c -0.5633,-2.384352 -1.0642,-3.97353 -1.5023,-4.668965 -0.6258,-1.092829 -1.6896,-1.589568 -3.1915,-1.589568 -0.9387,0 -1.6895,0.496352 -2.1275,1.489832 0,7.252405 0.1248,12.021229 0.4377,14.206885 0.8136,6.060227 2.6913,9.040787 5.7578,9.040787 6.5709,0 11.1391,-6.060083 11.3895,-16.392276 l 5.0689,0.993221 -1.1265,24.042455 -36.1715,-0.29817 v -7.352 c 1.2516,0 2.2531,-1.19205 2.9414,-3.67575 0.5633,-1.887611 0.8134,-3.974045 0.8134,-6.259048 v -12.21941 l -4.3806,-7.053833 4.3176,-6.954614 V 58.665153 c 0,-3.278484 -0.3752,-5.961004 -1.0635,-8.246008 -0.9388,-2.881092 -2.3156,-4.172485 -4.193,-3.675745 v -7.252787 c 9.9503,-0.09935 22.0909,-0.09922 36.5471,-0.09922 z m 88.4897,0 -0.3132,17.88263 -3.5672,1.788521 c -0.8135,-6.457621 -4.8813,-10.828796 -9.1995,-10.828796 -2.8787,0 -4.881,1.192173 -5.9448,3.576526 -0.9388,1.98696 -1.4397,5.364655 -1.4397,10.034013 v 4.073136 c 0,-0.298045 3e-4,0.496738 0.063,2.384351 v 1.788521 c 0.751,0.49674 1.5646,0.794783 2.4407,0.794783 2.8162,0 4.318,-3.278606 4.5057,-9.835575 l 4.3806,0.298173 0.5633,24.141162 h -5.0065 c -0.5632,-2.384352 -1.0636,-3.97353 -1.5017,-4.668965 -0.6258,-1.092829 -1.6901,-1.589568 -3.192,-1.589568 -0.9387,0 -1.6894,0.496352 -2.1275,1.489832 0,7.252405 0.1252,12.021229 0.4382,14.206885 0.8135,6.060227 2.6907,9.040787 5.7572,9.040787 6.571,0 11.1392,-6.060083 11.3895,-16.392276 l 5.0695,0.993221 -1.1266,24.042455 -36.1719,-0.29817 v -7.352 c 1.2516,0 2.2531,-1.19205 2.9414,-3.67575 0.5633,-1.887611 0.8134,-3.974045 0.8134,-6.259048 v -12.21941 l -4.3806,-7.053833 4.3181,-6.954614 V 58.665153 c 0,-3.278484 -0.3757,-5.961004 -1.064,-8.246008 -0.9388,-2.881092 -2.3156,-4.172485 -4.1931,-3.675745 v -7.252787 c 9.9504,-0.09935 22.0915,-0.09922 36.5477,-0.09922 z m 160.9576,0 v 7.252788 h -0.1876 c -3.3794,0 -5.0689,2.980303 -5.0689,8.841837 v 12.914974 l 4.4431,7.252788 -4.4431,7.550443 V 97.90772 c 1.6896,1.589568 3.6299,2.38435 5.9453,2.38435 5.3194,0 9.5746,-5.36491 12.7037,-16.193844 l 3.6297,3.079916 -3.8799,25.433068 -34.6072,0.0992 v -8.246 c 1.7523,0 3.1292,-1.19231 4.1931,-3.47731 0.9387,-1.986962 1.3766,-4.470399 1.3766,-7.351491 l -0.062,-10.034013 -4.7563,-7.650179 4.7563,-7.649662 0.1251,0.198954 V 55.287065 c 0,-4.967401 -1.9403,-7.848487 -5.8829,-8.742619 v -6.854879 z m 56.3857,0 -0.3132,17.88263 -3.5672,1.788521 c -0.8136,-6.457621 -4.8814,-10.828796 -9.1994,-10.828796 -2.8788,0 -4.881,1.192173 -5.9449,3.576526 -0.9387,1.98696 -1.4397,5.364655 -1.4397,10.034013 v 4.073136 c 0,-0.298045 4e-4,0.496738 0.063,2.384351 v 1.788521 c 0.7509,0.49674 1.5645,0.794783 2.4406,0.794783 2.8161,0 4.3179,-3.278606 4.5057,-9.835575 l 4.3806,0.298173 0.5633,24.141162 h -5.0064 c -0.5632,-2.384352 -1.0642,-3.97353 -1.5023,-4.668965 -0.6258,-1.092829 -1.6896,-1.589568 -3.1915,-1.589568 -0.9388,0 -1.6895,0.496352 -2.1275,1.489832 0,7.252405 0.1253,12.021229 0.4382,14.206885 0.8136,6.060227 2.6908,9.040787 5.7573,9.040787 6.5709,0 11.1391,-6.060083 11.3895,-16.392276 l 5.0694,0.993221 -1.1265,24.042455 -36.172,-0.29817 v -7.352 c 1.2516,0 2.253,-1.19205 2.9414,-3.67575 0.5632,-1.887611 0.8134,-3.974045 0.8134,-6.259048 v -12.21941 l -4.3806,-7.053833 4.3181,-6.954614 V 58.665153 c 0,-3.278484 -0.3756,-5.961004 -1.064,-8.246008 -0.9387,-2.881092 -2.3156,-4.172485 -4.193,-3.675745 v -7.252787 c 9.9503,-0.09935 22.0914,-0.09922 36.5476,-0.09922 z m -100.3799,6.557223 c -1.4394,0 -2.691,0.39752 -3.7548,1.092956 -1.3768,0.993481 -2.065,2.483568 -2.065,4.470529 v 17.78341 c 0.6884,0.09935 1.3766,0.09922 2.0024,0.09922 6.3207,0 9.5121,-4.073259 9.5121,-12.319145 0,-3.079787 -0.438,-5.563353 -1.3766,-7.649662 -1.064,-2.285005 -2.5033,-3.477307 -4.3181,-3.477308 z m -649.33869,0.397392 c -3.6297,0 -5.44463,3.576649 -5.44463,10.630359 v 11.226188 l 4.5682,7.451225 -4.5682,7.748881 v 10.729577 c 0,2.483701 0.31264,4.570005 0.93844,6.358271 0.75098,2.285 1.81526,3.37809 3.25459,3.37809 4.75615,0 7.63444,-6.954478 8.57312,-20.962549 l -4.44314,-7.153052 4.63124,-7.451224 c -0.18778,-4.073269 -0.62579,-7.749138 -1.2516,-11.12697 -1.31424,-7.252405 -3.44184,-10.828796 -6.25802,-10.828796 z m 49.87654,1.192175 c -4.19288,0 -6.69601,6.954217 -7.57215,20.763591 l 4.50619,7.352006 -4.56871,7.748881 c 0.25032,3.675877 0.75075,7.451092 1.43918,11.126969 1.43933,7.649799 3.50455,11.425139 6.19549,11.425139 4.19297,0 6.44581,-7.55043 6.82129,-22.651327 l -0.12506,0.09922 -4.75578,-7.649663 4.63073,-7.352006 c -0.18771,-2.682397 -0.4379,-5.364658 -0.81339,-8.047054 -1.189,-8.543929 -3.12939,-12.815755 -5.75779,-12.815755 z m 164.71295,0 c -4.1929,0 -6.696,6.954217 -7.5722,20.763591 l 4.5057,7.352006 -4.5682,7.748881 c 0.2503,3.675877 0.7508,7.451092 1.4392,11.126969 1.4393,7.649799 3.5046,11.425139 6.1955,11.425139 4.1929,0 6.4458,-7.55043 6.8213,-22.651327 l -0.1251,0.09922 -4.7563,-7.649663 4.6313,-7.352006 c -0.1877,-2.682397 -0.4379,-5.364658 -0.8134,-8.047054 -1.1891,-8.543929 -3.1294,-12.815755 -5.7578,-12.815755 z m 92.8703,1.589567 c -4.5058,0 -6.7588,3.079781 -6.7588,9.140011 v 15.89567 c 0.8136,0.298044 1.6267,0.496611 2.3777,0.496611 5.82,0 9.7002,-6.05996 9.7002,-15.299325 0,-2.98044 -0.4381,-5.364787 -1.2517,-7.153052 -0.9387,-2.086308 -2.2525,-3.079915 -4.0674,-3.079915 z m 287.4336,10.034013 -5.6322,22.353158 12.7041,0.09973 z m 54.0071,18.37924 c -1.6271,0 -3.3791,0.695822 -5.2566,2.086694 v 16.293063 c 0,5.762189 1.6896,8.642879 5.1315,8.642879 2.4406,0 4.5059,-1.39074 6.133,-4.07313 1.6896,-2.682399 2.5032,-6.060224 2.5032,-9.934797 0,-3.675877 -0.8136,-6.755529 -2.5032,-9.239229 -1.6271,-2.4837 -3.6299,-3.77548 -6.0079,-3.77548 z" /></g><path
       id="rect54"
       style="display:inline;fill:#000000;stroke-width:0.9906;stroke-linecap:square;stroke-linejoin:round;paint-order:stroke fill markers"
       d="M 797.40003,2.4321131e-6 H 1711.8 V 152.39999 H 797.40003 Z"
       inkscape:label="full rectangle" /><path
       id="path58"
       style="display:inline;fill:#bb8b41;stroke-width:0.9906;stroke-linecap:square;stroke-linejoin:round;paint-order:stroke fill markers"
       inkscape:label="text cutout"
       d="M 797.40003 0 L 797.40003 152.4 L 1711.8001 152.4 L 1711.8001 0 L 797.40003 0 z M 916.98343 38.100001 C 922.50599 38.100001 926.98201 42.173391 930.46994 50.319927 C 932.7371 55.585371 934.24882 61.546241 934.88828 68.202557 L 939.13195 75.653782 L 934.94616 83.303445 C 934.3067 90.357153 932.79549 96.615936 930.41207 102.08008 C 926.866 110.22661 922.21504 114.3 916.57622 114.3 C 911.11179 114.3 906.57789 110.22661 903.03182 102.08008 C 900.53214 96.317892 898.96227 89.860155 898.38095 82.707098 L 894.36982 75.753001 L 898.49722 68.599949 C 899.13667 61.844285 900.70628 55.784067 903.0897 50.319927 C 906.6939 42.173391 911.3446 38.100001 916.98343 38.100001 z M 1082.8271 38.100001 C 1088.3496 38.100001 1092.8256 42.173391 1096.3136 50.319927 C 1098.5807 55.585371 1100.0925 61.546241 1100.7319 68.202557 L 1104.9756 75.653782 L 1100.7898 83.303445 C 1100.1503 90.357153 1098.6391 96.615936 1096.2557 102.08008 C 1092.7096 110.22661 1088.0587 114.3 1082.4198 114.3 C 1076.9554 114.3 1072.4215 110.22661 1068.8755 102.08008 C 1066.3758 96.317892 1064.8059 89.860155 1064.2246 82.707098 L 1060.2134 75.753001 L 1064.3408 68.599949 C 1064.9803 61.844285 1066.5499 55.784067 1068.9333 50.319927 C 1072.5375 42.173391 1077.1882 38.100001 1082.8271 38.100001 z M 1340.4868 38.398174 L 1354.0312 38.894785 L 1356.7054 58.963328 L 1352.4039 60.850551 C 1351.997 56.777283 1350.8925 53.300238 1349.0904 50.419146 C 1347.2883 47.538054 1345.1373 46.047836 1342.7538 46.047836 C 1339.1496 46.047836 1336.4753 49.822925 1334.7895 57.274025 C 1334.0337 60.651857 1333.5107 64.526422 1333.22 68.798386 L 1337.1149 75.653782 L 1333.1622 82.806834 C 1333.3947 87.078798 1333.8593 90.853757 1334.5569 94.132241 C 1336.0684 101.0866 1338.5101 104.56365 1341.9399 104.56365 C 1345.1953 104.56365 1347.6367 101.3849 1347.6367 95.920763 L 1347.6367 86.482579 C 1347.6367 82.111267 1345.4861 78.832529 1342.8701 77.938397 L 1342.8701 69.891343 L 1360.0189 71.083518 L 1360.0189 78.534743 C 1357.6355 79.826267 1356.415 83.80018 1356.415 90.456496 L 1356.415 112.01487 C 1348.8578 112.80966 1343.5678 113.10809 1340.6031 112.90939 C 1338.9172 113.10809 1337.4639 112.90913 1336.3594 112.31304 C 1328.279 108.04108 1323.6864 98.205775 1322.5819 82.806834 L 1318.5124 75.753001 L 1322.5235 68.898122 C 1323.0467 61.745066 1324.5582 55.386805 1327.116 49.823317 C 1330.604 42.17352 1335.0805 38.398174 1340.4868 38.398174 z M 1176.0384 38.497393 C 1180.1658 38.497393 1183.5955 40.782651 1186.2114 45.452007 C 1188.8274 50.121363 1190.1642 55.982756 1190.1642 63.036464 C 1190.1642 65.71886 1189.8737 68.103079 1189.2924 70.288735 L 1191.3269 75.454828 L 1184.2932 78.534743 C 1183.5956 79.031483 1182.8398 79.329656 1182.084 79.6277 C 1183.8861 81.217268 1185.3974 83.800182 1186.6181 87.277362 L 1188.5948 94.529633 C 1189.6993 97.907465 1190.6877 99.596507 1191.6178 99.596507 C 1192.8967 99.596507 1194.1754 97.60968 1195.4543 93.536412 C 1196.3263 96.218808 1196.7333 98.702116 1196.7333 100.98712 C 1196.7333 104.36495 1195.9193 107.14708 1194.2916 109.43208 C 1192.722 111.71709 1190.9198 112.80965 1188.8852 112.80965 C 1185.281 112.80965 1182.549 110.22648 1180.6888 104.96104 C 1180.0493 101.88125 1179.003 97.410598 1177.6078 91.449718 C 1176.0383 85.488837 1174.2363 82.508661 1172.1436 82.508661 C 1169.9927 82.508661 1168.9458 83.700706 1168.9458 86.184406 L 1168.9458 95.125979 C 1168.9458 99.894683 1170.8061 104.26586 1173.5383 104.36521 L 1173.5383 112.11409 C 1172.7826 112.41213 1166.3881 112.41252 1154.4129 112.21383 L 1154.4129 105.45817 C 1156.9126 104.96143 1158.5987 101.28517 1158.5987 97.013202 L 1158.5987 83.005271 L 1154.4129 75.753001 L 1158.5987 68.599949 L 1158.5987 56.181585 C 1158.5987 50.717445 1157.5523 48.034795 1155.5177 48.034795 C 1155.1108 48.034795 1154.7038 48.134143 1154.2387 48.432187 L 1154.2387 39.093739 C 1155.6339 39.093739 1162.9005 38.894785 1176.0384 38.497393 z M 1642.456 38.596612 C 1646.1764 38.596612 1651.2918 38.894655 1657.8607 39.391395 L 1658.5005 64.824469 L 1655.0123 65.321596 C 1653.3265 52.704399 1650.0131 46.445228 1644.9555 46.445228 C 1643.1535 46.445228 1641.5836 47.637402 1640.3047 50.021754 C 1639.0839 52.306758 1638.4448 55.088627 1638.4448 58.267763 C 1638.4448 60.950159 1639.6075 62.937115 1641.9909 64.228639 C 1641.9909 64.228639 1644.4905 65.420813 1649.4318 67.805165 C 1651.1176 68.599949 1652.5128 69.49408 1653.6754 70.586908 L 1661 75.653782 L 1658.7325 79.826137 C 1659.6626 82.905925 1660.1278 86.084927 1660.1278 89.462759 C 1660.1278 96.516467 1658.4421 102.37838 1655.0123 107.04773 C 1651.8732 111.41904 1648.1528 113.60444 1643.9091 113.60444 C 1642.4558 113.60444 1637.5728 112.90913 1629.1436 111.51826 L 1628.5038 85.290403 L 1632.6312 84.793793 C 1633.3288 88.867061 1634.8403 93.13863 1637.1074 97.410594 C 1639.6653 102.27865 1642.0486 104.66338 1644.1995 104.66338 C 1647.6875 104.66338 1650.5945 100.29208 1650.5945 94.331195 C 1650.5945 89.463143 1648.6179 85.98584 1644.723 84.098228 L 1626.7019 75.753001 L 1629.2599 71.381691 C 1628.3298 68.401251 1627.8646 64.8246 1627.8646 60.751332 C 1627.8646 53.995668 1629.3177 48.531538 1632.2824 44.458269 C 1635.0146 40.583697 1638.4448 38.596612 1642.456 38.596612 z M 1148.6453 38.696347 L 1148.7037 47.438966 L 1148.3548 47.438966 C 1145.8552 47.438966 1144.5763 49.823185 1144.5763 54.691237 L 1144.5763 69.792124 L 1147.8898 75.653782 L 1144.5763 81.713877 L 1144.5763 92.244501 C 1144.5763 98.404077 1143.0648 103.57016 1139.9838 107.74278 C 1137.1353 111.7167 1133.8798 113.70417 1130.2174 113.70417 C 1125.7994 113.70417 1122.1371 111.22035 1119.2305 106.25295 C 1116.3239 101.1862 1114.8706 94.927029 1114.8706 87.376581 L 1114.8706 83.005271 L 1110.6848 75.753001 L 1114.8706 68.599949 L 1114.8706 55.585239 C 1114.8706 53.101539 1114.5217 50.915887 1113.8241 49.226971 C 1113.0103 47.140663 1111.9055 46.346009 1110.4522 46.743401 L 1110.4522 39.192958 L 1128.5896 38.994003 L 1128.5896 46.743401 C 1126.09 46.842749 1124.4622 50.319925 1124.4622 54.691237 L 1124.4622 68.202557 L 1128.7059 75.653782 L 1124.4622 83.402663 L 1124.4622 89.959886 C 1124.4622 98.901206 1126.9622 103.37147 1131.9615 103.37147 C 1134.1706 103.37147 1135.9146 102.08034 1137.1354 99.497289 C 1138.298 97.112936 1138.8789 94.032896 1138.8789 90.158323 L 1138.8789 81.316486 L 1135.6817 75.753001 L 1138.8789 70.288735 L 1138.8789 58.168544 C 1138.8789 50.717444 1137.1349 46.941968 1133.7051 46.84262 L 1133.6472 38.894785 L 1148.6453 38.696347 z M 1444.8014 38.795566 L 1444.8014 65.321596 L 1440.5577 69.394732 C 1440.2089 63.135808 1439.9179 59.161637 1439.6854 57.671417 C 1438.8715 52.207276 1437.4764 49.425925 1435.558 49.425925 C 1433.5234 49.425925 1431.4306 52.505451 1431.4306 55.982631 L 1431.4306 68.50073 L 1435.5001 75.653782 L 1431.4306 83.005271 L 1431.4306 96.218419 C 1431.4306 98.503423 1431.7797 100.58999 1432.4192 102.37825 C 1433.1749 104.36521 1434.2209 105.25934 1435.558 105.15999 L 1435.6164 112.11409 C 1434.9769 112.41213 1434.2792 112.61122 1433.4072 112.61122 L 1426.8965 112.61122 L 1419.0484 112.61122 C 1418.5833 112.61122 1418.1185 112.61135 1417.5953 112.512 L 1417.5953 105.75582 C 1419.8624 105.06039 1421.4317 101.98073 1421.4317 98.106159 L 1421.4317 83.303445 L 1416.8976 75.753001 L 1421.4317 68.301776 L 1421.4317 55.585239 C 1421.4317 51.511971 1420.3854 49.525144 1418.3508 49.525144 C 1416.1417 49.525144 1414.4561 52.207535 1413.2353 57.472979 C 1412.3633 61.248203 1411.8984 65.420554 1411.7822 69.990562 L 1407.9452 66.414036 L 1407.9452 38.894785 L 1444.8014 38.795566 z M 848.25842 38.994003 L 867.38387 39.192958 C 872.61577 39.192958 876.74293 41.875349 879.82394 47.140793 C 882.78868 52.207541 884.53273 59.261108 885.11406 68.301776 L 889.29985 75.653782 L 885.11406 83.303445 C 884.59087 90.555849 883.37011 96.51646 881.45175 101.38451 C 878.37074 109.03431 873.83658 112.80965 867.84896 112.80965 L 849.88623 112.80965 C 849.36304 112.80965 848.83949 112.71057 848.3163 112.61122 L 848.3163 106.25295 C 850.93225 105.35882 852.67624 101.48412 852.67624 96.814765 L 852.61836 83.402663 L 848.20003 75.753001 L 852.61836 68.103338 L 852.67624 68.202557 L 852.67624 57.771152 C 852.67624 49.42592 851.22317 45.650573 848.25842 46.346009 L 848.25842 38.994003 z M 1057.6431 38.994003 L 1057.5852 47.438966 C 1056.2481 47.538314 1054.7948 48.531792 1053.2252 50.6181 C 1051.9463 52.307016 1050.8416 54.293973 1049.9696 56.578977 L 1044.7958 69.990562 L 1048.0514 75.653782 L 1040.8431 82.409442 L 1040.9009 98.503551 C 1040.9009 102.47747 1043.4588 105.15986 1045.8422 104.86182 L 1045.8422 112.31304 L 1025.0311 112.21383 L 1025.0311 105.06077 L 1025.2636 105.06077 C 1028.2865 105.06077 1029.7977 102.87473 1029.7977 98.602769 L 1029.7977 82.409442 L 1022.2984 75.753001 L 1025.6125 69.990562 L 1018.6945 50.518365 C 1017.7063 48.332709 1016.66 47.240012 1015.6136 47.240012 C 1015.3811 47.240012 1015.1485 47.339618 1014.916 47.438966 L 1014.916 39.292176 L 1034.5644 39.192958 L 1034.5065 47.140793 C 1033.867 46.842749 1033.3437 46.743401 1032.8787 46.743401 C 1031.7742 46.743401 1031.193 47.438707 1031.193 48.829579 C 1031.193 50.121103 1032.1812 53.39971 1034.1577 58.665154 L 1037.9363 68.699168 C 1038.6338 67.208948 1039.8546 64.32799 1041.5986 60.254722 C 1043.4588 55.784061 1044.3891 52.505454 1044.3891 50.419146 C 1044.3891 48.134142 1043.4007 46.941839 1041.4823 46.941839 C 1041.1335 46.941839 1040.7849 46.942226 1040.378 47.041574 L 1040.3196 39.391395 L 1057.6431 38.994003 z M 1515.8637 38.994003 C 1522.142 38.695959 1526.7345 40.285783 1529.6411 43.961659 C 1532.8965 47.935579 1534.5246 53.101795 1534.5246 59.360719 C 1534.5246 64.824859 1532.8387 69.196164 1529.467 72.474648 C 1531.3854 73.86552 1532.955 76.348828 1534.1757 79.925356 C 1535.3965 83.501884 1536.0356 87.178012 1536.0356 90.853888 C 1536.0356 98.106292 1534.0595 103.86834 1530.1646 108.04095 C 1526.9092 111.12074 1521.9097 112.71044 1515.2244 112.71044 C 1508.5392 112.80978 1503.3655 112.80965 1499.645 112.80965 L 1499.0637 112.71044 L 1499.0637 105.6566 C 1501.5634 104.56377 1503.1911 100.68908 1503.1911 96.218419 L 1503.1911 83.204226 L 1498.8895 75.753001 L 1503.1911 68.400995 L 1503.1911 57.075587 C 1503.1911 53.797103 1502.8425 51.213801 1502.0867 49.326189 C 1501.2148 47.041185 1499.8193 46.047836 1498.0172 46.445228 L 1498.0172 39.689568 C 1498.6567 39.59022 1500.2263 39.491131 1502.726 39.491131 C 1505.2257 39.491131 1509.6435 39.292047 1515.8637 38.994003 z M 977.10482 39.093739 C 981.58101 38.994391 984.08066 38.994391 984.54571 39.093739 L 984.54571 47.438966 C 982.16229 47.538314 980.35992 50.51875 980.35992 54.592018 L 980.35992 68.301776 L 984.54571 75.653782 L 980.35992 83.303445 L 980.35992 112.01487 L 976.05838 112.01487 L 956.46784 73.467869 L 956.46784 95.920763 C 956.46784 102.27903 958.03746 105.35869 961.1766 105.15999 L 961.1766 112.31304 C 960.59528 112.71044 957.92094 112.909 953.21223 112.80965 C 948.50352 112.80965 945.94573 112.80978 945.65506 112.71044 L 945.65506 105.35843 C 948.03848 104.96104 949.72458 101.58334 949.72458 97.311375 L 949.72458 83.303445 L 949.60831 83.402663 L 945.18998 75.753001 L 949.60831 68.103338 L 949.72458 68.301776 L 949.72458 60.552895 C 949.72458 56.877018 949.20103 53.995544 948.15465 51.71054 C 946.99201 49.22684 945.36451 47.935447 943.27175 48.034795 L 943.27175 39.192958 L 953.21223 39.192958 L 974.14015 80.322748 L 974.14015 56.876633 C 974.14015 50.419013 972.68682 47.240012 969.78021 47.240012 L 969.78021 39.292176 C 970.18713 39.192828 972.62864 39.093739 977.10482 39.093739 z M 1248.787 39.093739 L 1248.8448 47.538185 C 1247.5659 47.637533 1246.4617 48.034666 1245.5897 48.928798 C 1244.4271 50.021626 1243.8457 51.512101 1243.8457 53.499061 C 1243.8457 54.989281 1245.0083 61.248065 1247.3917 72.275694 L 1251.8095 92.443455 L 1259.0763 57.572198 C 1259.3669 56.280674 1259.4829 54.989281 1259.4829 53.896453 C 1259.4829 50.021881 1258.1462 47.935706 1255.4139 47.438966 L 1255.4139 39.192958 L 1271.168 39.192958 L 1271.168 47.637404 L 1270.8192 47.637404 C 1268.2033 47.637404 1266.1685 51.015488 1264.7152 57.771152 L 1262.2735 69.096559 L 1266.0521 75.753001 L 1259.1925 83.501882 L 1252.9144 112.61122 L 1244.7758 112.61122 L 1238.7881 83.501882 L 1232.2774 75.753001 L 1235.8813 69.493951 L 1233.6142 58.4662 C 1232.1609 51.412492 1229.8357 47.935577 1226.5222 47.935577 L 1226.5222 39.391395 L 1248.787 39.093739 z M 1456.7887 39.093739 L 1477.8908 39.093739 L 1477.8908 46.941839 C 1476.9026 47.041187 1476.0888 47.438966 1475.3912 48.23375 C 1474.5192 49.127882 1474.1122 50.419274 1474.1122 51.909494 C 1474.1122 52.902974 1474.2867 53.995542 1474.6936 55.287066 L 1478.9373 69.295514 L 1485.3901 75.653782 L 1482.4833 81.018313 L 1487.8897 98.900942 C 1489.4011 103.86834 1490.9707 106.1536 1492.5984 105.85556 L 1492.5984 112.71044 L 1472.3103 112.41226 L 1472.3103 105.85556 C 1473.4729 105.85556 1474.5776 105.55713 1475.5659 104.96104 C 1476.9029 104.16625 1477.6004 102.97408 1477.6004 101.38451 C 1477.6004 100.29168 1477.2515 98.702119 1476.5539 96.615811 C 1476.2633 95.721679 1475.7981 94.23159 1475.0424 92.145282 L 1457.0213 92.145282 C 1456.033 96.21855 1455.5103 98.801852 1455.5103 99.89468 C 1455.5103 103.96795 1457.3122 105.9549 1460.8583 105.85556 L 1460.8583 112.21383 L 1443.1281 112.01487 L 1443.1281 105.45817 C 1445.9765 105.25947 1447.8948 103.07356 1448.9412 98.900942 L 1453.359 81.514923 L 1450.0455 75.753001 L 1456.7887 67.805165 C 1459.2884 57.771017 1460.5094 52.008972 1460.5094 50.6181 C 1460.5094 48.531792 1459.7536 47.538185 1458.184 47.538185 C 1457.7189 47.538185 1457.254 47.637274 1456.7309 47.736622 L 1456.7887 39.093739 z M 1311.873 39.391395 L 1311.5821 57.274025 L 1308.2686 59.062546 C 1307.5129 52.604926 1303.7345 48.23375 1299.7234 48.23375 C 1297.0493 48.23375 1295.189 49.425923 1294.2007 51.810276 C 1293.3287 53.797236 1292.8639 57.174933 1292.8639 61.844289 L 1292.8639 65.917425 C 1292.8639 65.619381 1292.8636 66.414164 1292.9217 68.301776 L 1292.9217 70.090297 C 1293.6193 70.587037 1294.3749 70.885081 1295.1888 70.885081 C 1297.8047 70.885081 1299.2002 67.606473 1299.3746 61.049505 L 1303.4436 61.347678 L 1303.9671 85.488841 L 1299.3162 85.488841 C 1298.793 83.104489 1298.3284 81.515311 1297.9214 80.819875 C 1297.3401 79.727047 1296.3514 79.230308 1294.9562 79.230308 C 1294.0842 79.230308 1293.3871 79.72666 1292.9801 80.72014 C 1292.9801 87.972544 1293.0962 92.741369 1293.3868 94.927025 C 1294.1425 100.98725 1295.8869 103.96782 1298.7353 103.96782 C 1304.8392 103.96782 1309.0825 97.907728 1309.315 87.575535 L 1314.0238 88.568756 L 1312.9774 112.61122 L 1279.3768 112.31304 L 1279.3768 104.96104 C 1280.5395 104.96104 1281.47 103.76899 1282.1095 101.28529 C 1282.6327 99.397681 1282.865 97.311248 1282.865 95.026243 L 1282.865 82.806834 L 1278.7955 75.753001 L 1282.8066 68.798386 L 1282.8066 58.665154 C 1282.8066 55.38667 1282.458 52.70415 1281.8185 50.419146 C 1280.9465 47.538054 1279.6676 46.246661 1277.9237 46.743401 L 1277.9237 39.491131 C 1287.1667 39.391783 1298.4445 39.391395 1311.873 39.391395 z M 1400.4919 39.391395 L 1400.201 57.274025 L 1396.8875 59.062546 C 1396.1318 52.604926 1392.3534 48.23375 1388.3423 48.23375 C 1385.6682 48.23375 1383.8079 49.425923 1382.8196 51.810276 C 1381.9476 53.797236 1381.4827 57.174933 1381.4827 61.844289 L 1381.4827 65.917425 C 1381.4827 65.619381 1381.4825 66.414164 1381.5406 68.301776 L 1381.5406 70.090297 C 1382.2382 70.587037 1382.9938 70.885081 1383.8077 70.885081 C 1386.4236 70.885081 1387.8191 67.606473 1387.9935 61.049505 L 1392.0625 61.347678 L 1392.5859 85.488841 L 1387.9351 85.488841 C 1387.4119 83.104489 1386.9467 81.515311 1386.5398 80.819875 C 1385.9585 79.727047 1384.9703 79.230308 1383.5751 79.230308 C 1382.7031 79.230308 1382.0059 79.72666 1381.599 80.72014 C 1381.599 87.972544 1381.715 92.741369 1382.0057 94.927025 C 1382.7614 100.98725 1384.5052 103.96782 1387.3537 103.96782 C 1393.4576 103.96782 1397.7014 97.907728 1397.9339 87.575535 L 1402.6427 88.568756 L 1401.5962 112.61122 L 1367.9957 112.31304 L 1367.9957 104.96104 C 1369.1583 104.96104 1370.0884 103.76899 1370.7278 101.28529 C 1371.251 99.397681 1371.4839 97.311248 1371.4839 95.026243 L 1371.4839 82.806834 L 1367.4143 75.753001 L 1371.4255 68.798386 L 1371.4255 58.665154 C 1371.4255 55.38667 1371.0769 52.70415 1370.4374 50.419146 C 1369.5654 47.538054 1368.2865 46.246661 1366.5426 46.743401 L 1366.5426 39.491131 C 1375.7856 39.391783 1387.0634 39.391395 1400.4919 39.391395 z M 1562.8474 39.391395 L 1562.8474 46.644183 L 1562.6732 46.644183 C 1559.5341 46.644183 1557.9645 49.624488 1557.9645 55.48602 L 1557.9645 68.400995 L 1562.0919 75.653782 L 1557.9645 83.204226 L 1557.9645 97.907721 C 1559.534 99.497289 1561.3362 100.29207 1563.4871 100.29207 C 1568.4284 100.29207 1572.3814 94.92716 1575.288 84.098228 L 1578.6593 87.178144 L 1575.0554 112.61122 L 1542.908 112.71044 L 1542.908 104.46443 C 1544.5357 104.46443 1545.8146 103.27212 1546.8029 100.98712 C 1547.6749 99.00016 1548.0819 96.516723 1548.0819 93.635631 L 1548.0235 83.601618 L 1543.6057 75.951438 L 1548.0235 68.301776 L 1548.1398 68.50073 L 1548.1398 55.287066 C 1548.1398 50.319666 1546.3378 47.438579 1542.6755 46.544447 L 1542.6755 39.689568 L 1562.8474 39.391395 z M 1618.4347 39.391395 L 1618.1437 57.274025 L 1614.8303 59.062546 C 1614.0745 52.604926 1610.2962 48.23375 1606.285 48.23375 C 1603.611 48.23375 1601.7506 49.425923 1600.7624 51.810276 C 1599.8904 53.797236 1599.4255 57.174933 1599.4255 61.844289 L 1599.4255 65.917425 C 1599.4255 65.619381 1599.4253 66.414164 1599.4834 68.301776 L 1599.4834 70.090297 C 1600.181 70.587037 1600.9366 70.885081 1601.7504 70.885081 C 1604.3664 70.885081 1605.7618 67.606473 1605.9362 61.049505 L 1610.0052 61.347678 L 1610.5287 85.488841 L 1605.8778 85.488841 C 1605.3546 83.104489 1604.8895 81.515311 1604.4826 80.819875 C 1603.9012 79.727047 1602.9131 79.230308 1601.5179 79.230308 C 1600.6459 79.230308 1599.9487 79.72666 1599.5418 80.72014 C 1599.5418 87.972544 1599.6578 92.741369 1599.9485 94.927025 C 1600.7042 100.98725 1602.448 103.96782 1605.2965 103.96782 C 1611.4004 103.96782 1615.6442 97.907728 1615.8767 87.575535 L 1620.5855 88.568756 L 1619.539 112.61122 L 1585.9385 112.31304 L 1585.9385 104.96104 C 1587.1011 104.96104 1588.0312 103.76899 1588.6706 101.28529 C 1589.1938 99.397681 1589.4266 97.311248 1589.4266 95.026243 L 1589.4266 82.806834 L 1585.3571 75.753001 L 1589.3682 68.798386 L 1589.3682 58.665154 C 1589.3682 55.38667 1589.0196 52.70415 1588.3802 50.419146 C 1587.5082 47.538054 1586.2293 46.246661 1584.4853 46.743401 L 1584.4853 39.491131 C 1593.7284 39.391783 1605.0061 39.391395 1618.4347 39.391395 z M 1518.7705 45.948618 C 1517.4334 45.948618 1516.2711 46.346138 1515.2828 47.041574 C 1514.0039 48.035054 1513.3641 49.525142 1513.3641 51.512103 L 1513.3641 69.295514 C 1514.0035 69.394862 1514.6431 69.394732 1515.2244 69.394732 C 1521.0958 69.394732 1524.0606 65.321472 1524.0606 57.075587 C 1524.0606 53.995799 1523.6536 51.512233 1522.7816 49.425925 C 1521.7934 47.140921 1520.4563 45.948618 1518.7705 45.948618 z M 867.44227 46.346009 C 864.0706 46.346009 862.38469 49.92266 862.38469 56.976369 L 862.38469 68.202557 L 866.62836 75.653782 L 862.38469 83.402663 L 862.38469 94.132241 C 862.38469 96.615941 862.67515 98.702246 863.25647 100.49051 C 863.95406 102.77551 864.9425 103.8686 866.27955 103.8686 C 870.69759 103.8686 873.37142 96.914121 874.2434 82.906053 L 870.116 75.753001 L 874.41807 68.301776 C 874.24367 64.228508 873.83667 60.552638 873.25535 57.174806 C 872.03457 49.922402 870.05821 46.346009 867.44227 46.346009 z M 916.98343 47.538185 C 913.08857 47.538185 910.76308 54.492403 909.94923 68.301776 L 914.13502 75.653782 L 909.89135 83.402663 C 910.12388 87.078539 910.58877 90.853757 911.22822 94.529633 C 912.56526 102.17943 914.48374 105.95478 916.98343 105.95478 C 920.87829 105.95478 922.9712 98.404341 923.31999 83.303445 L 923.20372 83.402663 L 918.78539 75.753001 L 923.08745 68.400995 C 922.91305 65.718599 922.68022 63.036336 922.33142 60.35394 C 921.22691 51.810012 919.42498 47.538185 916.98343 47.538185 z M 1082.8271 47.538185 C 1078.9322 47.538185 1076.6067 54.492403 1075.7929 68.301776 L 1079.9787 75.653782 L 1075.735 83.402663 C 1075.9675 87.078539 1076.4324 90.853757 1077.0719 94.529633 C 1078.4089 102.17943 1080.3274 105.95478 1082.8271 105.95478 C 1086.7219 105.95478 1088.8148 98.404341 1089.1636 83.303445 L 1089.0473 83.402663 L 1084.629 75.753001 L 1088.9311 68.400995 C 1088.7567 65.718599 1088.5238 63.036336 1088.1751 60.35394 C 1087.0705 51.810012 1085.2686 47.538185 1082.8271 47.538185 z M 1175.5149 49.127752 C 1171.3294 49.127752 1169.2368 52.207535 1169.2368 58.267763 L 1169.2368 74.163434 C 1169.9925 74.461478 1170.7484 74.660044 1171.4459 74.660044 C 1176.8522 74.660044 1180.4562 68.600084 1180.4562 59.360719 C 1180.4562 56.380279 1180.0492 53.995931 1179.2935 52.207667 C 1178.4215 50.121359 1177.2008 49.127752 1175.5149 49.127752 z M 1464.9857 59.161765 L 1459.7539 81.514923 L 1471.5548 81.614659 L 1464.9857 59.161765 z M 1518.3638 77.541005 C 1516.8524 77.541005 1515.2243 78.236828 1513.4804 79.6277 L 1513.4804 95.920763 C 1513.4804 101.68295 1515.0502 104.56365 1518.2475 104.56365 C 1520.5147 104.56365 1522.4329 103.17291 1523.9443 100.49051 C 1525.5139 97.808113 1526.2698 94.430287 1526.2698 90.555715 C 1526.2698 86.879839 1525.5139 83.800186 1523.9443 81.316486 C 1522.4329 78.832786 1520.5728 77.541005 1518.3638 77.541005 z "
       transform="translate(-6.9049262e-6)" /></g></svg>
