<?xml version="1.0" encoding="UTF-8" standalone="no"?>
<!-- Created with Inkscape (http://www.inkscape.org/) -->

<svg
   width="210mm"
   height="297mm"
   viewBox="0 0 210 297"
   version="1.1"
   id="svg1"
   xml:space="preserve"
   inkscape:version="1.3.1 (91b66b0783, 2023-11-16)"
   sodipodi:docname="pinball.svg"
   xmlns:inkscape="http://www.inkscape.org/namespaces/inkscape"
   xmlns:sodipodi="http://sodipodi.sourceforge.net/DTD/sodipodi-0.dtd"
   xmlns="http://www.w3.org/2000/svg"
   xmlns:svg="http://www.w3.org/2000/svg"><sodipodi:namedview
     id="namedview1"
     pagecolor="#ffffff"
     bordercolor="#000000"
     borderopacity="0.25"
     inkscape:showpageshadow="2"
     inkscape:pageopacity="0.0"
     inkscape:pagecheckerboard="0"
     inkscape:deskcolor="#d1d1d1"
     inkscape:document-units="mm"
     inkscape:zoom="0.43729569"
     inkscape:cx="282.4176"
     inkscape:cy="575.12572"
     inkscape:current-layer="layer6" /><defs
     id="defs1" /><g
     inkscape:label="Layer 1"
     inkscape:groupmode="layer"
     id="layer1"
     style="display:none"><rect
       style="display:inline;fill:#0c5460;stroke:#083a42;stroke-width:5.24999;stroke-linecap:square;stroke-linejoin:round;stroke-dasharray:none;paint-order:fill markers stroke"
       id="rect10"
       width="514"
       height="32"
       x="-152"
       y="130.5" /><g
       id="g24"
       transform="translate(-21,86.947928)"
       inkscape:label="fills"
       style="display:inline"><path
         style="color:#000000;fill:#ad8305;stroke-width:1;stroke-linecap:round;stroke-linejoin:round;-inkscape-stroke:none;paint-order:fill markers stroke"
         d="m 174.00006,258.05207 c 0,-17.14893 -9.14899,-32.99515 -24.00051,-41.5694 -7.2968,-4.21274 -15.57393,-6.43057 -23.9995,-6.4306 -8.42591,-1.5e-4 -16.70342,2.21769 -24.00051,6.4306 -14.85113,8.57451 -23.99969,24.42069 -23.99947,41.5694"
         id="path29" /><path
         style="color:#000000;fill:#d6a206;stroke-width:1;stroke-linecap:round;stroke-linejoin:round;-inkscape-stroke:none;paint-order:fill markers stroke"
         d="m 162.00006,258.05207 c 0,-12.86169 -6.86172,-24.74636 -18.00036,-31.17705 -5.4726,-3.15956 -11.68044,-4.82294 -17.99964,-4.82295 -6.31944,-1.2e-4 -12.52752,1.66326 -18.00036,4.82295 -11.138395,6.43088 -17.999755,18.31551 -17.999635,31.17705"
         id="path35" /><path
         style="color:#000000;fill:#ffc107;stroke-linecap:round;stroke-linejoin:round;-inkscape-stroke:none;paint-order:fill markers stroke"
         d="m 150.00015,258.05216 c 0,-8.5745 -4.57451,-16.49764 -12.0003,-20.78478 -3.64841,-2.10638 -7.78699,-3.2153 -11.99979,-3.21531 -4.21297,-8e-5 -8.35174,1.10885 -12.0003,3.21531 -7.42559,4.28727 -11.99989,12.21039 -11.99978,20.78478"
         id="path11" /><path
         style="color:#000000;display:inline;fill:#92235a;stroke-linecap:round;stroke-linejoin:round;-inkscape-stroke:none;paint-order:fill markers stroke"
         d="m -90.00002,258.05201 v -24 l 96,24"
         id="path13" /><path
         style="color:#000000;display:inline;fill:#d63384;stroke-linecap:round;stroke-linejoin:round;-inkscape-stroke:none;paint-order:fill markers stroke"
         d="m -42.00002,258.05201 v -24 l 96,24"
         id="path15" /><path
         style="color:#000000;display:inline;fill:#e374ab;stroke-linecap:round;stroke-linejoin:round;-inkscape-stroke:none;paint-order:fill markers stroke"
         d="m 5.99998,258.05201 v -24 l 96,24"
         id="path17" /><path
         style="color:#000000;display:inline;fill:#92235a;stroke-linecap:round;stroke-linejoin:round;-inkscape-stroke:none;paint-order:fill markers stroke"
         d="m 342.00015,258.05201 v -24 l -96,24"
         id="path19" /><path
         style="color:#000000;display:inline;fill:#d63384;stroke-linecap:round;stroke-linejoin:round;-inkscape-stroke:none;paint-order:fill markers stroke"
         d="m 294.00015,258.05201 v -24 l -96,24"
         id="path21" /><path
         style="color:#000000;display:inline;fill:#e374ab;stroke-linecap:round;stroke-linejoin:round;-inkscape-stroke:none;paint-order:fill markers stroke"
         d="m 246.00015,258.05201 v -24 l -96,24"
         id="path23" /></g></g><g
     inkscape:groupmode="layer"
     id="layer6"
     inkscape:label="SUN"><path
       id="path234"
       style="fill:#250657;stroke:#250657;stroke-width:20;stroke-linecap:round;stroke-linejoin:round;stroke-dasharray:none;paint-order:fill markers stroke"
       d="m 81.000224,-43.500187 c 0,0 -60.853042,73.206244 -94.794214,107.147465 C 8.9999955,124.5 8.9999955,172.5 -13.79399,233.35268 20.14718,267.29395 81.000224,340.50015 81.000224,340.50015 h 47.999656 c 0,0 60.85294,-73.2062 94.79421,-107.14747 C 201,172.5 201,124.5 223.79409,63.647278 189.85282,29.706057 128.99988,-43.500187 128.99988,-43.500187 Z"
       sodipodi:nodetypes="ccccccccc"
       inkscape:label="bg" /><g
       id="g249"
       style="display:none"
       inkscape:label="files"><path
         style="fill:#ad8305;stroke:#ad8305;stroke-width:0;stroke-linecap:round;stroke-linejoin:round;stroke-dasharray:none;paint-order:fill markers stroke"
         d="M 8.9999955,172.5 105,148.5 8.9999955,124.5 Z"
         id="path215" /><path
         style="fill:#ad8305;stroke:#ad8305;stroke-width:0;stroke-linecap:round;stroke-linejoin:round;stroke-dasharray:none;paint-order:fill markers stroke"
         d="m 201,172.5 -96,-24 96,-24 z"
         id="path218" /><circle
         style="fill:#5c4503;stroke:#ad8305;stroke-width:0;stroke-linecap:round;stroke-linejoin:round;stroke-dasharray:none;paint-order:fill markers stroke"
         id="path231"
         cx="105"
         cy="148.5"
         r="48" /><path
         style="fill:#ad8305;stroke:#ad8305;stroke-width:0;stroke-linecap:round;stroke-linejoin:round;stroke-dasharray:none;paint-order:fill markers stroke"
         d="M 20.147184,97.588308 105,148.5 54.088308,63.647183 Z"
         id="path220" /><path
         style="fill:#5c4503;stroke:#ad8305;stroke-width:0;stroke-linecap:round;stroke-linejoin:round;stroke-dasharray:none;paint-order:fill markers stroke"
         d="M -13.793943,63.647182 71.058873,114.55888 20.147182,29.706057 Z"
         id="path221" /><path
         style="fill:#ad8305;stroke:#ad8305;stroke-width:0;stroke-linecap:round;stroke-linejoin:round;stroke-dasharray:none;paint-order:fill markers stroke"
         d="M 155.91169,233.35281 105,148.5 l 84.85281,50.91169 z"
         id="path223" /><path
         style="fill:#5c4503;stroke:#ad8305;stroke-width:0;stroke-linecap:round;stroke-linejoin:round;stroke-dasharray:none;paint-order:fill markers stroke"
         d="m 189.85282,267.29395 -50.9117,-84.85282 84.85283,50.91169 z"
         id="path224" /><path
         style="fill:#ad8305;stroke:#ad8305;stroke-width:0;stroke-linecap:round;stroke-linejoin:round;stroke-dasharray:none;paint-order:fill markers stroke"
         d="M 189.85282,97.588308 105,148.5 155.91169,63.647183 Z"
         id="path226" /><path
         style="fill:#5c4503;stroke:#ad8305;stroke-width:0;stroke-linecap:round;stroke-linejoin:round;stroke-dasharray:none;paint-order:fill markers stroke"
         d="M 223.79394,63.647182 138.94113,114.55888 189.85282,29.706057 Z"
         id="path227" /><path
         style="fill:#ad8305;stroke:#ad8305;stroke-width:0;stroke-linecap:round;stroke-linejoin:round;stroke-dasharray:none;paint-order:fill markers stroke"
         d="M 54.08831,233.35281 105,148.5 20.14719,199.41169 Z"
         id="path229" /><path
         style="fill:#5c4503;stroke:#ad8305;stroke-width:0;stroke-linecap:round;stroke-linejoin:round;stroke-dasharray:none;paint-order:fill markers stroke"
         d="m 20.14718,267.29395 50.9117,-84.85282 -84.85283,50.91169 z"
         id="path230" /><circle
         style="fill:#d6a206;stroke:#ad8305;stroke-width:0;stroke-linecap:round;stroke-linejoin:round;stroke-dasharray:none;paint-order:fill markers stroke"
         id="circle231"
         cx="105"
         cy="148.5"
         r="36" /><path
         style="fill:#ffc107;stroke:#ad8305;stroke-width:0;stroke-linecap:round;stroke-linejoin:round;stroke-dasharray:none;paint-order:fill markers stroke"
         d="M 81.000001,52.499995 105,148.5 129,52.499995 Z"
         id="path209" /><path
         style="fill:#ad8305;stroke:#ad8305;stroke-width:0;stroke-linecap:round;stroke-linejoin:round;stroke-dasharray:none;paint-order:fill markers stroke"
         d="M 81.000001,4.499994 105,100.5 129,4.499994 Z"
         id="path210" /><path
         style="fill:#5c4503;stroke:#ad8305;stroke-width:0;stroke-linecap:round;stroke-linejoin:round;stroke-dasharray:none;paint-order:fill markers stroke"
         d="M 81.000001,-43.500008 105,52.499995 129,-43.500008 Z"
         id="path211" /><path
         style="fill:#ffc107;stroke:#ad8305;stroke-width:0;stroke-linecap:round;stroke-linejoin:round;stroke-dasharray:none;paint-order:fill markers stroke"
         d="M 81.000001,244.5 105,148.5 l 24,96 z"
         id="path212" /><path
         style="fill:#ad8305;stroke:#ad8305;stroke-width:0;stroke-linecap:round;stroke-linejoin:round;stroke-dasharray:none;paint-order:fill markers stroke"
         d="M 81.000001,292.50001 105,196.5 l 24,96.00001 z"
         id="path213" /><path
         style="fill:#5c4503;stroke:#ad8305;stroke-width:0;stroke-linecap:round;stroke-linejoin:round;stroke-dasharray:none;paint-order:fill markers stroke"
         d="M 81.000001,340.50001 105,244.5 l 24,96.00001 z"
         id="path214" /><circle
         style="fill:#ffd556;stroke:#ad8305;stroke-width:0;stroke-linecap:round;stroke-linejoin:round;stroke-dasharray:none;paint-order:fill markers stroke"
         id="circle232"
         cx="105"
         cy="148.5"
         r="24" /></g><path
       id="path299"
       style="color:#000000;display:inline;fill:#d6a206;stroke-linecap:round;stroke-linejoin:round;-inkscape-stroke:none;paint-order:fill markers stroke"
       d="M 119.0501 100.54683 L 118.05429 104.52902 C 121.10599 105.43641 124.04199 106.65319 126.84135 108.16962 L 128.9544 104.64943 C 125.80949 102.93086 122.4891 101.55548 119.0501 100.54683 z M 90.967057 100.61453 C 87.528053 101.62318 84.207679 102.99855 81.062752 104.71712 L 83.175802 108.23732 C 85.975176 106.72087 88.911163 105.50411 91.962862 104.59672 L 90.967057 100.61453 z M 9.0154704 122.50002 C 7.936487 122.48962 7.0008726 123.36226 7.0000895 124.49989 L 7.0000895 172.50007 C 7.0009845 173.80022 8.2226197 174.75402 9.4841756 174.43948 L 57.11641 162.53375 C 58.124899 165.97214 59.500848 169.29204 61.219002 172.4365 L 64.738167 170.32397 C 62.903073 166.93586 61.407584 163.37409 60.470728 159.63108 C 60.469328 159.62608 60.467993 159.62036 60.466593 159.61506 C 59.526611 155.98351 59.035599 152.25105 59.002083 148.49998 C 59.035603 144.74891 59.526611 141.01442 60.466593 137.38283 C 60.467993 137.37883 60.469428 137.37381 60.470728 137.36991 C 61.407581 133.62692 62.903074 130.06459 64.738167 126.67651 L 61.217969 124.56242 C 59.499733 127.7074 58.12474 131.02771 57.11641 134.46673 L 9.4841756 122.56048 C 9.3264812 122.52118 9.1696108 122.50152 9.0154704 122.50002 z M 200.98463 122.50002 C 200.83046 122.50202 200.67313 122.52108 200.51541 122.56048 L 152.95345 134.44967 C 151.94361 131.004 150.56457 127.67729 148.84208 124.52677 L 145.32291 126.63878 C 147.16211 130.03247 148.66238 133.5999 149.60017 137.34976 L 149.60017 137.35596 C 150.5198 140.99755 150.99007 144.73856 151.0006 148.49481 C 150.9966 148.96395 150.985 149.43248 150.9665 149.90093 C 150.8741 152.24337 150.60277 154.57476 150.15518 156.87466 C 150.06568 157.3346 149.96884 157.79305 149.86527 158.25029 C 149.76168 158.7077 149.65112 159.16328 149.53351 159.61765 C 149.53251 159.62265 149.53137 159.62837 149.52937 159.63367 C 148.59265 163.37626 147.09624 166.93722 145.26142 170.325 L 148.78265 172.43702 C 150.50065 169.29236 151.87544 165.97233 152.88369 162.53375 L 200.51541 174.43948 C 201.77715 174.75442 202.9992 173.80049 203.00001 172.50007 L 203.00001 124.49989 C 202.9993 123.36202 202.06382 122.48939 200.98463 122.50002 z M 10.999845 127.06098 L 56.132491 138.34453 C 55.412225 141.67513 55.028909 145.07175 54.999744 148.48293 C 54.999641 148.49463 54.999641 148.50585 54.999744 148.51755 C 55.028904 151.92856 55.412756 155.32525 56.133008 158.65595 L 10.999845 169.9395 L 10.999845 127.06098 z M 199.00026 127.06098 L 199.00026 169.94001 L 153.86658 158.65647 C 154.58703 155.3256 154.97123 151.92939 155.00036 148.51807 C 155.00041 148.51007 155.00041 148.50168 155.00036 148.49378 C 154.99136 145.07577 154.62774 141.67059 153.92497 138.32902 L 199.00026 127.06098 z M 83.175802 188.76212 L 81.062752 192.28232 C 84.207676 194.00089 87.528055 195.37626 90.967057 196.38491 L 91.962862 192.40273 C 88.911158 191.49534 85.975176 190.27857 83.175802 188.76212 z M 126.8243 188.76212 C 124.02492 190.27857 121.08894 191.49534 118.03724 192.40273 L 119.03304 196.38491 C 122.47206 195.37626 125.79242 194.00089 128.93735 192.28232 L 126.8243 188.76212 z " /><path
       id="path289"
       style="color:#000000;display:inline;fill:#d6a206;stroke-linecap:round;stroke-linejoin:round;-inkscape-stroke:none;paint-order:fill markers stroke"
       d="m 81.000224,-45.500065 c -1.300663,4.71e-4 -2.254925,1.222658 -1.939933,2.484603 l 11.37915,45.5155678 h -9.439217 c -1.30039,5.552e-4 -2.254523,1.2223235 -1.939933,2.4840861 L 90.439441,50.49976 h -9.439217 c -1.300663,4.71e-4 -2.254925,1.222658 -1.939933,2.484603 l 17.725016,70.900577 a 26,26 0 0 0 -17.785478,24.61504 26,26 0 0 0 17.785478,24.61503 L 79.060291,244.0156 c -0.31499,1.26195 0.639271,2.48413 1.939933,2.4846 h 9.439217 l -11.37915,45.51557 c -0.314586,1.26177 0.639546,2.48352 1.939933,2.48408 h 9.439217 l -11.37915,45.51557 c -0.31499,1.26195 0.639271,2.48413 1.939933,2.4846 h 47.999656 c 1.30045,-8.1e-4 2.25435,-1.22286 1.93941,-2.4846 l -11.37863,-45.51557 h 9.43922 c 1.30018,-9e-4 2.25394,-1.22252 1.93941,-2.48408 L 119.56066,246.5002 h 9.43922 c 1.30045,-8.1e-4 2.25435,-1.22286 1.93941,-2.4846 l -17.7245,-70.90059 a 26,26 0 0 0 17.78497,-24.61503 26,26 0 0 0 -18.06402,-24.7189 l 0.28784,0.0723 17.71571,-70.869057 c 0.31494,-1.261736 -0.63896,-2.483792 -1.93941,-2.484603 h -9.43922 L 130.93929,4.9841919 c 0.31454,-1.2615533 -0.63923,-2.4831911 -1.93941,-2.4840861 h -9.43922 l 11.37863,-45.5155678 c 0.31494,-1.261736 -0.63896,-2.483792 -1.93941,-2.484603 z m 2.562117,4.000273 H 126.43931 L 115.05861,4.0157756 104.99979,44.254146 94.939425,4.0157756 Z m 0,47.9996537 h 7.874972 L 103.05883,52.984363 c 0.50592,2.018557 3.37446,2.018557 3.88038,0 L 118.56072,6.4998617 h 7.87859 L 115.05861,52.01543 104.99979,92.2538 94.939425,52.01543 Z m 0,48.0001713 h 7.874972 l 11.621517,46.484497 c 0.11007,0.38871 0.33527,0.73498 0.64595,0.99322 0.0987,0.0709 0.20373,0.13265 0.31368,0.18449 0.23794,0.14196 0.50278,0.23294 0.77773,0.26717 0.13487,0.0138 0.27079,0.0138 0.40566,0 0.27477,-0.0343 0.53943,-0.12528 0.77721,-0.26717 0.11012,-0.0518 0.21529,-0.11356 0.31419,-0.18449 0.31068,-0.25824 0.53589,-0.60451 0.64596,-0.99322 l 11.62151,-46.484497 h 7.87859 l -17.09611,68.377737 0.79013,0.19844 a 26,26 0 0 0 -5.13354,-0.57619 26,26 0 0 0 -4.3372,0.40307 z M 104.99979,126.49977 A 22,22 0 0 1 127,148.49998 22,22 0 0 1 104.99979,170.50019 22,22 0 0 1 83.000102,148.49998 22,22 0 0 1 104.99979,126.49977 Z m -4.3372,47.5971 a 26,26 0 0 0 4.3372,0.40307 26,26 0 0 0 4.33772,-0.40307 l 17.1018,68.40306 h -7.87859 l -11.62151,-46.4845 c -0.10988,-0.3884 -0.33471,-0.73446 -0.64492,-0.99271 -0.0997,-0.0716 -0.2057,-0.13387 -0.31678,-0.18603 -0.23646,-0.14093 -0.49947,-0.23153 -0.77256,-0.26614 -0.067,-0.0273 -0.13554,-0.0509 -0.20516,-0.0708 -0.0698,0.0198 -0.13845,0.0435 -0.20567,0.0708 -0.27327,0.0345 -0.53646,0.12514 -0.77308,0.26614 -0.11106,0.052 -0.2171,0.11409 -0.31678,0.18551 -0.31049,0.25832 -0.5355,0.60458 -0.64543,0.99323 l -11.621517,46.4845 h -7.874972 z m 4.3372,30.64929 10.05882,40.23837 11.3807,45.51557 h -7.87859 l -11.62151,-46.4845 c -0.10819,-0.43274 -0.35793,-0.8169 -0.70952,-1.09141 -0.35123,-0.27452 -0.78411,-0.42385 -1.2299,-0.42426 -0.44632,7e-5 -0.8798,0.14941 -1.23145,0.42426 -0.35158,0.27451 -0.60132,0.65867 -0.70951,1.09141 l -11.621517,46.4845 h -7.874972 l 11.377084,-45.51557 z m 0,48.00017 10.05882,40.23785 11.3807,45.51557 H 83.562341 l 11.377084,-45.51557 z" /><path
       id="path302"
       style="color:#000000;display:inline;fill:#d63384;stroke-linecap:round;stroke-linejoin:round;-inkscape-stroke:none;paint-order:fill markers stroke"
       d="M 20.390487 27.720789 C 19.779458 27.645449 19.167778 27.855698 18.73219 28.29078 L -15.208891 62.232377 C -16.128347 63.152867 -15.938172 64.692322 -14.822351 65.361385 L 25.407235 89.50048 L 18.73219 96.173975 C 18.68179 96.246165 18.63622 96.321605 18.595764 96.399801 C 18.538014 96.449511 18.483143 96.502478 18.431433 96.558447 C 18.406923 96.629067 18.386388 96.701015 18.369938 96.773938 C 18.315748 96.907089 18.276078 97.045695 18.251599 97.187349 C 18.206379 97.370291 18.187235 97.558707 18.194755 97.747005 C 18.209335 97.824555 18.228486 97.901166 18.252116 97.976449 C 18.345666 98.518817 18.658586 98.998669 19.117179 99.302983 L 71.73774 130.87522 C 70.48819 133.21226 69.484552 135.67362 68.746708 138.2205 C 68.639116 138.58289 68.537876 138.94768 68.443368 139.31449 C 67.594521 142.28297 67.110371 145.34407 67.002112 148.4297 C 67.000512 148.4765 67.000512 148.5234 67.002112 148.57026 C 67.110371 151.65589 67.594522 154.71698 68.443368 157.68547 C 68.537897 158.05234 68.639062 158.41704 68.746708 158.77946 C 69.484725 161.32665 70.488859 163.78793 71.738774 166.12526 L 19.117179 197.69749 C 18.596144 198.02591 18.25548 198.57608 18.193722 199.18888 C 18.192941 199.19988 18.192254 199.21085 18.191654 199.22195 C 18.167524 199.48018 18.193849 199.74065 18.269169 199.98883 C 18.287299 200.04803 18.308168 200.10627 18.331698 200.16349 C 18.358048 200.25849 18.391393 200.35142 18.431433 200.44151 C 18.493823 200.52171 18.562235 200.59702 18.636072 200.66682 C 18.665632 200.72132 18.6977 200.77445 18.73219 200.82598 L 25.407235 207.49948 L -14.822351 231.63651 C -15.939853 232.30544 -16.130157 233.84696 -15.208891 234.76758 L 18.73219 268.70711 C 19.652213 269.62686 21.19157 269.43746 21.861198 268.32212 L 46.00081 228.09254 L 52.673787 234.76758 C 52.729767 234.80688 52.787717 234.84328 52.84742 234.87662 C 52.91322 234.94552 52.98385 235.00955 53.058777 235.06834 C 53.130057 235.09874 53.203044 235.12479 53.277368 235.14689 C 53.379112 235.19319 53.484558 235.23089 53.592594 235.25954 C 53.758624 235.30014 53.929168 235.31919 54.100057 235.31639 C 54.209005 235.32039 54.31806 235.31437 54.426135 235.30037 C 54.60176 235.26437 54.771748 235.20497 54.931531 235.12363 C 55.025601 235.08753 55.116815 235.04433 55.204382 234.99444 C 55.380897 234.86755 55.535544 234.71273 55.662236 234.53607 C 55.706795 234.49147 55.749216 234.44467 55.78936 234.39603 C 55.79386 234.39103 55.798355 234.38604 55.802795 234.38104 L 81.062752 192.28232 L 83.175802 188.76212 C 85.975176 190.27857 88.911158 191.49534 91.962862 192.40273 L 91.962862 192.40169 C 88.91116 191.4943 85.975179 190.27758 83.175802 188.76109 L 87.375028 181.76203 C 89.470656 182.88286 91.666505 183.80419 93.934318 184.51484 L 94.925989 180.54867 C 92.40877 179.74021 89.96362 178.72216 87.697489 177.35145 C 87.695389 177.35045 87.693388 177.34935 87.691288 177.34835 C 82.963922 174.49472 79.00296 170.53243 76.150391 165.80435 L 76.148324 165.8028 L 76.148324 165.80228 C 75.933416 165.44699 75.725068 165.08786 75.523556 164.72535 L 75.523556 164.72483 C 75.322046 164.36232 75.127054 163.99655 74.939095 163.62722 L 74.939095 163.6267 C 74.751142 163.25739 74.569701 162.88471 74.395459 162.50894 L 74.395459 162.50843 C 74.221253 162.13273 74.054021 161.75382 73.893681 161.37206 L 73.893164 161.37155 C 73.796724 161.14193 73.70807 160.90923 73.616695 160.67753 C 73.556145 160.52398 73.49156 160.37152 73.433244 160.21709 C 73.286922 159.8296 73.147313 159.43939 73.015181 159.04662 L 73.015181 159.04611 C 72.973432 158.922 72.937161 158.79604 72.896842 158.67145 C 72.681919 158.0072 72.482678 157.33761 72.308765 156.66021 C 72.304365 156.64191 72.299762 156.62363 72.294812 156.60543 L 72.294812 156.60491 C 71.730364 154.63574 71.347042 152.62118 71.146045 150.58564 C 71.143845 150.56344 71.141944 150.54066 71.139844 150.51846 C 71.074904 149.84727 71.029014 149.17375 71.003935 148.49895 C 71.029015 147.82414 71.074895 147.15063 71.139844 146.47943 C 71.142044 146.45723 71.143845 146.43455 71.146045 146.41225 C 71.347042 144.37671 71.730364 142.36216 72.294812 140.39298 C 72.299712 140.37478 72.304415 140.3565 72.308765 140.3382 C 73.135112 137.11954 74.428437 134.03895 76.148324 131.19561 L 76.150391 131.19406 C 79.002469 126.4668 82.962433 122.50516 87.688704 119.65161 L 87.691288 119.65058 L 87.694906 119.64748 L 87.697489 119.64696 C 89.963648 118.27625 92.408768 117.2582 94.925989 116.44974 L 93.934318 112.48357 C 91.66661 113.19432 89.471074 114.11596 87.375545 115.23689 L 83.175802 108.23732 L 81.062752 104.71712 L 55.802795 62.618917 C 55.530413 62.164105 55.088595 61.836043 54.574447 61.706828 C 54.363437 61.661738 54.146518 61.651095 53.932109 61.675305 C 53.923709 61.674907 53.915227 61.674497 53.906787 61.674272 C 53.750771 61.695302 53.597783 61.734672 53.451001 61.791577 C 53.358001 61.817347 53.266982 61.849819 53.178666 61.888729 C 53.138256 61.901749 53.098276 61.91606 53.058777 61.93162 C 53.020787 61.96789 52.984237 62.00564 52.949223 62.044792 C 52.852353 62.099552 52.760221 62.162296 52.673787 62.232377 L 46.00081 68.907422 L 21.861198 28.677836 C 21.544522 28.14934 21.001955 27.796269 20.390487 27.720789 z M 93.934318 184.51484 L 92.449654 190.45297 L 91.962862 192.40169 L 93.934318 184.51484 z M 189.60962 27.720789 C 188.99815 27.796268 188.45558 28.149338 188.1389 28.677836 L 163.99929 68.907422 L 157.32631 62.232377 C 157.31931 62.227977 157.31191 62.223678 157.30461 62.219458 C 157.19508 62.109757 157.07316 62.013162 156.94132 61.93162 C 156.85112 61.89154 156.75797 61.858215 156.66279 61.831885 C 156.60569 61.808365 156.54762 61.787506 156.48864 61.769356 C 156.24124 61.694546 155.98169 61.668401 155.72434 61.692358 C 155.71214 61.692763 155.69985 61.693182 155.68765 61.693909 C 155.60085 61.692609 155.51399 61.696908 155.42772 61.706828 C 154.91281 61.83555 154.47017 62.163668 154.19731 62.618917 L 128.97404 104.65769 C 128.95658 104.64814 128.93777 104.64139 128.9203 104.63186 C 128.93153 104.63798 128.94317 104.64329 128.9544 104.64943 L 126.84187 108.16859 C 126.84826 108.17205 126.85512 108.17443 126.86151 108.17789 L 122.78992 114.96249 C 120.66234 113.83858 118.43389 112.92009 116.13245 112.21796 L 115.14078 116.18361 C 117.69657 116.98099 120.18012 117.99329 122.48245 119.36894 C 127.26216 122.23892 131.26369 126.24117 134.1329 131.02146 C 134.99175 132.45924 135.74173 133.95651 136.37824 135.50077 C 136.53715 135.88637 136.68938 136.27483 136.83403 136.66608 C 136.85343 136.71858 136.87012 136.77212 136.88932 136.82472 C 137.01312 137.16475 137.13398 137.50603 137.24692 137.84998 C 137.24704 137.85035 137.24732 137.85077 137.24744 137.85102 C 137.37771 138.24784 137.50074 138.64719 137.61641 139.04888 L 137.61641 139.04939 C 137.73213 139.45128 137.84052 139.85536 137.94145 140.26172 C 137.94213 140.26572 137.94252 140.26971 137.94352 140.27361 C 138.62781 142.95403 138.98116 145.70838 138.99823 148.47466 C 138.89799 151.2274 138.46588 153.95741 137.70684 156.60543 C 137.70184 156.62363 137.69624 156.64181 137.69134 156.66021 C 136.86502 159.87902 135.57173 162.95927 133.85178 165.8028 L 133.84971 165.80487 C 130.99609 170.53417 127.03399 174.49627 122.30468 177.3499 L 122.30261 177.35197 C 120.03668 178.72251 117.59108 179.74075 115.07411 180.54919 L 117.11843 188.72595 L 116.0663 184.51535 C 118.33399 183.8047 120.52959 182.88281 122.62507 181.76203 L 126.8243 188.76109 C 124.02537 190.27711 121.08885 191.49455 118.03776 192.40169 L 117.11843 188.72595 L 118.03776 192.40273 C 121.08928 191.49535 124.02507 190.27849 126.8243 188.76212 L 128.93735 192.28232 L 154.19731 234.38104 C 154.28251 234.49844 154.38024 234.60621 154.48876 234.70247 C 154.49776 234.71707 154.5079 234.73158 154.5177 234.74588 C 154.5267 234.75188 154.53516 234.75765 154.54406 234.76345 C 154.70848 234.92037 154.89844 235.04811 155.10578 235.1412 C 155.13658 235.1568 155.16781 235.17164 155.19931 235.18564 C 155.39717 235.26024 155.6056 235.30296 155.81685 235.31225 C 155.87215 235.31725 155.92769 235.319 155.98324 235.32 C 156.1671 235.311 156.34882 235.2765 156.52326 235.21768 C 156.60596 235.19398 156.68713 235.16497 156.76614 235.13087 C 156.82544 235.11277 156.88393 235.09184 156.94132 235.06834 C 157.07192 234.98754 157.19278 234.89203 157.30151 234.7836 C 157.30951 234.7786 157.31811 234.77298 157.32631 234.76758 L 163.99929 228.09254 L 188.1389 268.32212 C 188.80856 269.43704 190.34741 269.62641 191.2674 268.70711 L 225.20899 234.76758 C 226.13026 233.84696 225.93995 232.30544 224.82245 231.63651 L 184.59287 207.49948 L 191.2674 200.82598 C 191.36934 200.71993 191.4593 200.60295 191.5356 200.47717 C 191.5466 200.46537 191.55735 200.45361 191.56815 200.44151 C 192.13661 199.49454 191.82983 198.26605 190.88292 197.69749 L 138.26184 166.12578 C 139.51163 163.78839 140.515 161.3273 141.25288 158.77997 C 141.36043 158.41773 141.46175 158.05317 141.55622 157.6865 L 141.55622 157.68598 C 141.76536 156.95459 141.95168 156.21791 142.11639 155.4763 C 142.12139 155.4546 142.12636 155.43289 142.13086 155.41119 C 142.29187 154.68017 142.43139 153.94453 142.54892 153.20564 C 142.55292 153.18324 142.55596 153.16086 142.55926 153.13846 C 142.67537 152.39996 142.77007 151.65818 142.84244 150.91379 C 142.84444 150.89109 142.84665 150.86827 142.84865 150.84557 C 142.91964 150.10174 142.96845 149.35518 142.99541 148.60747 C 142.99585 148.59537 142.99751 148.58339 142.99851 148.57129 C 142.99951 148.54459 143.00006 148.51789 143.00006 148.49119 C 143.00001 148.48019 142.99902 148.4687 142.99902 148.4576 C 142.99402 147.7045 142.96761 146.95246 142.91841 146.20193 C 142.91741 146.17953 142.91527 146.15715 142.91427 146.13475 C 142.86377 145.38375 142.79121 144.6342 142.6962 143.88786 C 142.6942 143.86816 142.69093 143.84855 142.68793 143.82895 C 142.59163 143.08206 142.47294 142.33821 142.3324 141.59808 C 142.3284 141.57618 142.3244 141.55476 142.32 141.53296 C 142.17844 140.79443 142.01498 140.0598 141.82959 139.33 C 141.82659 139.3192 141.82587 139.30772 141.82287 139.29692 C 141.08065 136.3087 139.97354 133.42769 138.5378 130.70985 L 190.88292 99.302983 C 191.83014 98.734411 192.13696 97.505526 191.56815 96.558447 C 191.55775 96.546787 191.54723 96.535234 191.53663 96.523824 C 191.46003 96.397631 191.36976 96.2803 191.2674 96.173975 L 184.59287 89.50048 L 224.82245 65.361385 C 225.93827 64.692322 226.12845 63.152867 225.20899 62.232377 L 191.2674 28.29078 C 190.83193 27.855851 190.22046 27.645616 189.60962 27.720789 z M 19.750216 32.93184 L 43.888794 73.161943 L 65.228577 108.72876 L 29.662272 87.388464 L -10.568347 63.249886 L 19.750216 32.93184 z M 190.24989 32.93184 L 220.56845 63.249886 L 180.33783 87.388464 L 144.77153 108.72876 L 166.11131 73.161943 L 190.24989 32.93184 z M 53.69078 66.872404 L 83.951982 117.30809 C 79.956407 120.01502 76.51427 123.45662 73.807381 127.45217 L 23.3717 97.190967 L 28.942419 91.621798 L 70.029317 116.27352 C 71.814592 117.34387 73.84368 115.31478 72.773336 113.5295 L 48.122127 72.442607 L 53.69078 66.872404 z M 156.30932 66.872404 L 161.87797 72.442607 L 137.22677 113.5295 C 136.15644 115.31477 138.18552 117.34384 139.97078 116.27352 L 181.05768 91.621798 L 186.6284 97.190967 L 136.48056 127.27957 C 133.75099 123.23164 130.26815 119.74879 126.2202 117.01921 L 131.39663 108.39442 L 156.30932 66.872404 z M 119.0501 100.54528 L 118.45272 102.93635 L 119.0501 100.54683 C 119.06747 100.55193 119.08441 100.55826 119.10177 100.56337 C 119.08424 100.55821 119.06764 100.55043 119.0501 100.54528 z M 124.07718 102.3183 C 124.113 102.33311 124.14837 102.34889 124.18415 102.36378 C 124.14833 102.34887 124.11304 102.33312 124.07718 102.3183 z M 118.05429 104.52902 L 118.05429 104.53005 C 119.57951 104.98318 121.0757 105.51432 122.54084 106.12065 C 121.07594 105.51374 119.57962 104.98256 118.05429 104.52902 z M 122.58373 106.13977 C 124.02055 106.73611 125.42665 107.40672 126.80001 108.14844 C 125.42665 107.40626 124.02029 106.73667 122.58373 106.13977 z M 112.59416 109.87443 L 111.77922 113.13263 L 112.59416 109.87443 z M 7.8501668 122.90774 C 7.8139509 122.92984 7.7784487 122.95311 7.7437134 122.97751 C 7.7766333 122.95041 7.8155995 122.93274 7.8501668 122.90774 z M 73.808415 169.54727 C 76.515065 173.5427 79.956273 176.98489 83.951465 179.69187 L 78.640678 188.54456 L 53.691813 230.12652 L 48.122127 224.55684 L 72.773336 183.46994 C 73.422193 182.38826 72.92006 180.98333 71.732572 180.55797 C 71.168332 180.35596 70.543236 180.41759 70.029317 180.72592 L 28.942419 205.37816 L 23.3717 199.80899 L 64.955208 174.85961 L 73.808415 169.54727 z M 136.1922 169.54727 L 186.6284 199.80848 L 181.05768 205.37764 L 139.97078 180.72592 C 138.18553 179.65561 136.15646 181.68467 137.22677 183.46994 L 161.87797 224.55684 L 156.30829 230.12652 L 131.35942 188.54456 L 126.04812 179.69187 C 130.0436 176.98496 133.48537 173.54278 136.1922 169.54727 z M 65.228577 188.2712 L 43.888794 223.8375 L 19.750216 264.0676 L -10.56628 233.74956 L 29.662272 209.61098 L 65.228577 188.2712 z M 144.77153 188.2712 L 180.33783 209.61098 L 220.56638 233.74956 L 190.24989 264.0676 L 166.11131 223.8375 L 144.77153 188.2712 z " /><path
       id="path298"
       style="color:#000000;display:none;fill:#d6a206;stroke-linecap:round;stroke-linejoin:round;-inkscape-stroke:none;paint-order:fill markers stroke"
       d="m 81.000224,-45.500065 a 2.0002,2.0002 0 0 0 -1.939933,2.484603 L 90.439441,2.5001058 H 81.000224 A 2.0002,2.0002 0 0 0 79.060291,4.9841919 L 90.439441,50.49976 h -9.439217 a 2.0002,2.0002 0 0 0 -1.939933,2.484603 l 11.906766,47.630687 c -3.439024,1.00865 -6.759363,2.38402 -9.904305,4.10259 L 55.802795,62.618917 a 2,2 0 0 0 -1.228348,-0.912089 2,2 0 0 0 -0.642338,-0.03152 2.0002,2.0002 0 0 0 -0.02532,-10e-4 2,2 0 0 0 -0.455786,0.117305 2.0002,2.0002 0 0 0 -0.272335,0.09715 2,2 0 0 0 -0.119889,0.04289 2,2 0 0 0 -0.109554,0.113172 2.0002,2.0002 0 0 0 -0.275436,0.187585 L 46.00081,68.907422 21.861198,28.677836 A 2.0002,2.0002 0 0 0 20.390487,27.720789 2.0002,2.0002 0 0 0 18.73219,28.29078 l -33.941081,33.941597 a 2.0002,2.0002 0 0 0 0.38654,3.129008 L 25.407235,89.50048 18.73219,96.173975 a 2.0002,2.0002 0 0 0 -0.136426,0.225826 2,2 0 0 0 -0.164331,0.158646 2,2 0 0 0 -0.06149,0.215491 2.0002,2.0002 0 0 0 -0.118339,0.413411 2,2 0 0 0 -0.05684,0.559656 2.0002,2.0002 0 0 0 0.05736,0.229444 2,2 0 0 0 0.865063,1.326534 l 42.10079,25.259437 c -1.718239,3.14498 -3.093226,6.46529 -4.101559,9.90431 L 9.4841756,122.56048 a 2.0002,2.0002 0 0 0 -2.4840861,1.93941 v 48.00018 a 2.0002,2.0002 0 0 0 2.4840861,1.93941 L 57.11641,162.53375 c 1.008492,3.43842 2.384432,6.75826 4.102592,9.90275 l -42.101823,25.26099 a 2,2 0 0 0 -0.923457,1.49139 2.0002,2.0002 0 0 0 -0.0021,0.0331 2,2 0 0 0 0.07752,0.76688 2.0002,2.0002 0 0 0 0.06253,0.17466 2,2 0 0 0 0.09973,0.27802 2,2 0 0 0 0.204639,0.22531 2.0002,2.0002 0 0 0 0.09612,0.15916 l 6.675045,6.6735 -40.229586,24.13703 a 2.0002,2.0002 0 0 0 -0.38654,3.13107 l 33.941081,33.93953 a 2.0002,2.0002 0 0 0 3.129008,-0.38499 l 24.139612,-40.22958 6.672977,6.67504 a 2.0004777,2.0004777 0 0 0 0.173633,0.10904 2,2 0 0 0 0.211357,0.19172 2,2 0 0 0 0.218591,0.0786 2.0004777,2.0004777 0 0 0 0.315226,0.11265 2,2 0 0 0 0.507463,0.0569 2.0004777,2.0004777 0 0 0 0.326078,-0.016 2,2 0 0 0 0.505396,-0.17674 2.0004777,2.0004777 0 0 0 0.272851,-0.12919 2,2 0 0 0 0.457854,-0.45837 2.0004777,2.0004777 0 0 0 0.127124,-0.14004 2,2 0 0 0 0.01344,-0.015 l 25.259957,-42.09872 c 3.144942,1.71857 6.465281,3.09394 9.904305,4.10259 L 79.060291,244.0156 a 2.0002,2.0002 0 0 0 1.939933,2.4846 h 9.439217 l -11.37915,45.51557 a 2.0002,2.0002 0 0 0 1.939933,2.48408 h 9.439217 l -11.37915,45.51557 a 2.0002,2.0002 0 0 0 1.939933,2.4846 h 47.999656 a 2.0002,2.0002 0 0 0 1.93941,-2.4846 l -11.37863,-45.51557 h 9.43922 a 2.0002,2.0002 0 0 0 1.93941,-2.48408 L 119.56066,246.5002 h 9.43922 a 2.0002,2.0002 0 0 0 1.93941,-2.4846 l -11.90625,-47.63069 c 3.43901,-1.00862 6.75935,-2.38406 9.90431,-4.10259 l 25.25996,42.09872 a 2,2 0 0 0 0.29145,0.32143 2.0002,2.0002 0 0 0 0.0289,0.0434 2.0002,2.0002 0 0 0 0.0264,0.0176 2,2 0 0 0 0.56172,0.37775 2.0002,2.0002 0 0 0 0.0935,0.0444 2,2 0 0 0 0.61754,0.12661 2.0002,2.0002 0 0 0 0.16639,0.008 2,2 0 0 0 0.54002,-0.10232 2.0002,2.0002 0 0 0 0.24288,-0.0873 2,2 0 0 0 0.17518,-0.0625 2,2 0 0 0 0.36019,-0.28474 2.0002,2.0002 0 0 0 0.0248,-0.016 l 6.67298,-6.67504 24.13961,40.22958 a 2.0002,2.0002 0 0 0 3.1285,0.38499 l 33.94159,-33.93953 a 2.0002,2.0002 0 0 0 -0.38654,-3.13107 l -40.22958,-24.13703 6.67453,-6.6735 a 2.0002,2.0002 0 0 0 0.2682,-0.34881 2,2 0 0 0 0.0326,-0.0357 2,2 0 0 0 -0.68523,-2.74402 l -42.10027,-25.26047 c 1.718,-3.14466 3.09279,-6.46466 4.10104,-9.90327 l 47.63172,11.90573 a 2.0002,2.0002 0 0 0 2.4846,-1.93941 v -48.00018 a 2.0002,2.0002 0 0 0 -2.4846,-1.93941 l -47.56196,11.88919 c -1.00987,-3.4457 -2.38888,-6.77235 -4.11137,-9.9229 l 42.04084,-25.223787 a 2,2 0 0 0 0.68523,-2.744536 2,2 0 0 0 -0.0315,-0.03462 2.0002,2.0002 0 0 0 -0.26923,-0.349849 l -6.67453,-6.673495 40.22958,-24.139095 a 2.0002,2.0002 0 0 0 0.38654,-3.129008 L 191.2674,28.29078 a 2.0002,2.0002 0 0 0 -1.65778,-0.569991 2.0002,2.0002 0 0 0 -1.47072,0.957047 l -24.13961,40.229586 -6.67298,-6.675045 a 2.0002,2.0002 0 0 0 -0.0217,-0.01292 2,2 0 0 0 -0.36329,-0.287838 2,2 0 0 0 -0.27853,-0.09974 2.0002,2.0002 0 0 0 -0.17415,-0.06253 2,2 0 0 0 -0.7643,-0.077 2.0002,2.0002 0 0 0 -0.0367,0.0016 2,2 0 0 0 -0.25993,0.01292 2,2 0 0 0 -1.23041,0.912089 l -25.22327,42.038772 c -3.1511,-1.72322 -6.47855,-3.1026 -9.92498,-4.11292 l 11.89023,-47.560406 a 2.0002,2.0002 0 0 0 -1.93941,-2.484603 h -9.43922 L 130.93929,4.9841919 a 2.0002,2.0002 0 0 0 -1.93941,-2.4840861 h -9.43922 l 11.37863,-45.5155678 a 2.0002,2.0002 0 0 0 -1.93941,-2.484603 z m 2.562117,4.000273 H 126.43931 L 115.05861,4.0157756 104.99979,44.254146 94.939425,4.0157756 Z m 0,47.9996537 h 7.874972 L 103.05883,52.984363 a 2.0002,2.0002 0 0 0 3.88038,0 L 118.56072,6.4998617 h 7.87859 L 115.05861,52.01543 104.99979,92.2538 94.939425,52.01543 Z M 19.750216,32.93184 43.888794,73.161943 65.228577,108.72876 29.662272,87.388464 -10.568347,63.249886 Z m 170.499674,0 30.31856,30.318046 -40.23062,24.138578 -35.5663,21.340296 21.33978,-35.566817 z M 83.562341,54.500033 h 7.874972 l 11.621517,46.484497 a 2.0002,2.0002 0 0 0 0.64595,0.99322 2.0002,2.0002 0 0 0 0.31368,0.18449 2.0002,2.0002 0 0 0 0.77773,0.26717 2.0002,2.0002 0 0 0 0.40566,0 2.0002,2.0002 0 0 0 0.77721,-0.26717 2.0002,2.0002 0 0 0 0.31419,-0.18449 2.0002,2.0002 0 0 0 0.64596,-0.99322 l 11.62151,-46.484497 h 7.87859 l -11.74399,46.976457 -2.9161,11.65614 -2.43602,9.74514 c -1.43361,-0.24407 -2.88474,-0.37703 -4.34134,-0.37827 v 5.2e-4 a 2.0002,2.0002 0 0 0 -0.0724,0.002 c -1.42644,0.05 -2.84295,0.22777 -4.23953,0.51057 l -2.406573,-9.62577 -2.96106,-11.84166 v -5.1e-4 a 2.0002,2.0002 0 0 0 -5.17e-4,-5.2e-4 z M 53.69078,66.872404 83.951982,117.30809 c -3.995591,2.70697 -7.4377,6.14853 -10.144601,10.14408 L 23.3717,97.190967 28.942419,91.621798 70.029317,116.27352 a 2.0002,2.0002 0 0 0 2.744019,-2.74402 L 48.122127,72.442607 Z m 102.61854,0 5.56865,5.570203 -24.6512,41.086893 a 2.0002,2.0002 0 0 0 2.74401,2.74402 l 41.0869,-24.651722 5.57072,5.569169 -41.52098,24.911653 a 2.0002,2.0002 0 0 0 -0.002,5.2e-4 v 5.2e-4 l -8.62479,5.17591 c -2.72957,-4.04793 -6.21241,-7.53078 -10.26036,-10.26036 l 5.17643,-8.62479 z m -38.25606,37.657136 c 3.05891,0.90867 6.0028,2.12781 8.80825,3.64835 l -4.07159,6.7846 c -2.12792,-1.12409 -4.35664,-2.04287 -6.65851,-2.74505 z m -26.090398,0.0682 0.573609,2.29392 1.397847,5.59294 c -2.267716,0.71075 -4.463236,1.63239 -6.558773,2.75332 l -4.199743,-6.99958 c 2.799389,-1.51648 5.735346,-2.73321 8.78706,-3.6406 z m 23.177918,11.58586 c 2.55583,0.79738 5.03934,1.80968 7.34167,3.18533 4.77975,2.86998 8.78124,6.87223 11.65045,11.65252 0.85885,1.43778 1.60883,2.93505 2.24534,4.47931 0.15891,0.3856 0.31114,0.77406 0.45579,1.16531 0.0194,0.0525 0.0361,0.10604 0.0553,0.15864 0.1238,0.34003 0.24466,0.68131 0.3576,1.02526 1.2e-4,3.7e-4 4e-4,6.7e-4 5.2e-4,10e-4 0.13027,0.39682 0.2533,0.79617 0.36897,1.19786 v 5.1e-4 c 0.11572,0.40189 0.22411,0.80597 0.32504,1.21233 a 2.0002,2.0002 0 0 0 0.002,0.0119 c 0.68429,2.68042 1.03764,5.43477 1.05471,8.20105 -0.10024,2.75274 -0.53235,5.48275 -1.29139,8.13077 a 2.0002,2.0002 0 0 0 -0.0155,0.0548 c -0.82632,3.21885 -2.11961,6.29906 -3.83956,9.14259 a 2.0002,2.0002 0 0 0 -0.002,0.002 c -2.85362,4.72934 -6.81568,8.6914 -11.54503,11.54503 a 2.0002,2.0002 0 0 0 -0.002,0.002 c -2.26593,1.37058 -4.71153,2.38878 -7.2285,3.19722 l -1.90014,-7.59747 c 1.31353,-0.44634 2.58456,-1.00596 3.81062,-1.65623 0.43157,-0.22112 0.85687,-0.45511 1.27331,-0.70693 l 0.002,-0.002 c 3.61462,-2.1817 6.64435,-5.21156 8.82581,-8.82633 l 0.002,-0.002 c 1.30718,-2.16132 2.28953,-4.50155 2.92179,-6.94686 0.14538,-0.50813 0.27551,-1.02059 0.38964,-1.53583 0.11412,-0.51523 0.21251,-1.03348 0.29507,-1.55443 0.16512,-1.04189 0.26683,-2.0938 0.30386,-3.15019 a 2.0002,2.0002 0 0 0 0.002,-0.0724 c -2.5e-4,-0.53138 -0.0172,-1.06212 -0.0501,-1.59163 v -5.2e-4 c -0.0329,-0.52951 -0.082,-1.05769 -0.14728,-1.58388 v -5.2e-4 c -0.0653,-0.52619 -0.14656,-1.05058 -0.24391,-1.57199 v -5.2e-4 c -0.0974,-0.52158 -0.21079,-1.04011 -0.34004,-1.55546 a 2.0002,2.0002 0 0 0 -0.002,-0.01 v -5.2e-4 c -0.15871,-0.61991 -0.34003,-1.23294 -0.54364,-1.83813 -0.61081,-1.81558 -1.42151,-3.5596 -2.41742,-5.20071 -1.64358,-2.73649 -3.77173,-5.13887 -6.27197,-7.09414 h -5.2e-4 c -0.83346,-0.65178 -1.70802,-1.25427 -2.61999,-1.80248 -0.41672,-0.25304 -0.84197,-0.48827 -1.27383,-0.71055 -1.24305,-0.66252 -2.53268,-1.23152 -3.86591,-1.68413 z m -20.214791,0.26768 1.900142,7.59747 c -1.316372,0.44727 -2.589877,1.00876 -3.818371,1.66088 -0.429418,0.22053 -0.852999,0.45354 -1.267623,0.70435 -2.259576,1.36374 -4.290675,3.05905 -6.02909,5.0214 -0.34768,0.39247 -0.683965,0.79538 -1.00769,1.20871 -0.647546,0.82674 -1.245633,1.69428 -1.791105,2.59829 -1.307345,2.16203 -2.290293,4.50489 -2.922302,6.951 -0.29041,1.01558 -0.518468,2.04691 -0.68368,3.08818 -0.08261,0.52064 -0.149759,1.04344 -0.200504,1.56838 -0.05077,0.52511 -0.08535,1.05175 -0.10387,1.57975 a 2.0002,2.0002 0 0 0 0,0.14056 c 0.07405,2.11133 0.407235,4.20515 0.988054,6.23631 0.63223,2.44697 1.615826,4.7904 2.923852,6.95307 2.181995,3.61533 5.2128,6.64678 8.828402,8.8284 0.415314,0.25117 0.838987,0.48465 1.269173,0.70538 1.227319,0.6511 2.499748,1.21112 3.814754,1.65778 l -1.900142,7.59747 c -2.517227,-0.80846 -4.962361,-1.82651 -7.2285,-3.19722 a 2.0002,2.0002 0 0 0 -0.0062,-0.003 c -4.727386,-2.85363 -8.688316,-6.81591 -11.540897,-11.54399 a 2.0002,2.0002 0 0 0 -0.0021,-0.002 v -5.2e-4 c -0.214908,-0.35529 -0.423252,-0.71443 -0.624768,-1.07694 v -5.1e-4 c -0.20151,-0.36251 -0.396502,-0.72828 -0.584461,-1.09761 v -5.2e-4 c -0.187953,-0.36933 -0.369394,-0.74199 -0.543636,-1.11776 v -5.2e-4 c -0.174206,-0.3757 -0.341438,-0.7546 -0.501778,-1.13636 l -5.17e-4,-5.2e-4 c -0.09644,-0.22962 -0.185094,-0.46231 -0.276469,-0.69401 -0.06055,-0.15355 -0.125135,-0.30601 -0.183451,-0.46044 -0.146322,-0.38749 -0.285931,-0.7777 -0.418063,-1.17047 v -5.2e-4 c -0.04175,-0.12411 -0.07802,-0.25004 -0.118339,-0.37465 -0.214927,-0.66425 -0.41416,-1.33383 -0.588077,-2.01125 a 2.0002,2.0002 0 0 0 -0.01395,-0.0548 v -5.1e-4 c -0.564452,-1.96919 -0.94777,-3.98373 -1.148767,-6.01927 -0.0022,-0.0222 -0.0041,-0.0445 -0.0062,-0.0667 -0.06494,-0.67119 -0.11083,-1.34471 -0.135909,-2.01951 0.02508,-0.67481 0.07096,-1.34832 0.135909,-2.01952 0.0022,-0.0222 0.004,-0.0444 0.0062,-0.0667 0.200997,-2.03554 0.584315,-4.05009 1.148767,-6.01927 a 2.0002,2.0002 0 0 0 0.01395,-0.0548 c 0.826351,-3.21867 2.119668,-6.29922 3.839559,-9.14259 a 2.0002,2.0002 0 0 0 0.0021,-0.002 c 2.85209,-4.72726 6.812022,-8.6889 11.538313,-11.54245 a 2,2 0 0 0 0.0026,-5.1e-4 2,2 0 0 0 0.0036,-0.003 2.0002,2.0002 0 0 0 0.0026,-10e-4 c 2.266167,-1.37072 4.711271,-2.38876 7.2285,-3.19722 z m 10.105331,10.05262 c 1.34084,0.004 2.67692,0.12748 3.99252,0.37258 0.43858,0.0818 0.87503,0.17704 1.30844,0.28577 2.09739,0.53772 4.1039,1.38198 5.95468,2.50579 a 2.0002,2.0002 0 0 0 0.008,0.004 c 3.08993,1.85587 5.677,4.44293 7.53287,7.53287 a 2.0002,2.0002 0 0 0 0.004,0.008 c 0.56253,0.92626 1.05524,1.89146 1.47433,2.88768 0.20955,0.4981 0.40068,1.00366 0.57309,1.51619 0.17249,0.51267 0.32595,1.03195 0.46044,1.55701 2.2e-4,8.3e-4 0.002,0.001 0.002,0.002 0.1083,0.43267 0.20289,0.8679 0.28422,1.30587 0.0126,0.0677 0.0196,0.1363 0.0315,0.20412 0.1424,0.80952 0.2445,1.62584 0.29559,2.44636 0.0277,0.44475 0.042,0.89036 0.0429,1.33635 -0.0655,1.77765 -0.34185,3.54179 -0.83199,5.25188 a 2.0002,2.0002 0 0 0 -0.0155,0.0527 c -0.2674,1.04134 -0.61014,2.06074 -1.02526,3.04943 -0.41513,0.98869 -0.90286,1.94711 -1.45934,2.867 a 2.0002,2.0002 0 0 0 -0.002,0.002 c -0.2308,0.38254 -0.47274,0.75732 -0.72554,1.12397 -1.51678,2.19986 -3.42132,4.10575 -5.62084,5.62291 -0.36659,0.25286 -0.74145,0.49523 -1.12397,0.72605 a 2.0002,2.0002 0 0 0 -0.002,0 c -1.83983,1.11282 -3.83326,1.94944 -5.91592,2.48409 a 2.0002,2.0002 0 0 0 -0.0512,0.0155 2.0002,2.0002 0 0 0 -0.002,0 c -1.69975,0.48717 -3.45361,0.7586 -5.22035,0.82631 -0.0299,-0.001 -0.0595,-0.005 -0.0894,-0.006 -1.73658,-0.0733 -3.46024,-0.34112 -5.131471,-0.82011 a 2.0002,2.0002 0 0 0 -0.0015,0 2.0002,2.0002 0 0 0 -0.05116,-0.0155 C 98.6852,169.38139 97.666066,169.0385 96.67755,168.62346 h -5.17e-4 c -0.494328,-0.20756 -0.980674,-0.43314 -1.458826,-0.67645 -0.478151,-0.2433 -0.947681,-0.50412 -1.407666,-0.78238 a 2.0002,2.0002 0 0 0 -5.16e-4,-5.1e-4 2.0002,2.0002 0 0 0 -0.0016,-0.002 c -0.764908,-0.46154 -1.498847,-0.96791 -2.198315,-1.51567 h -5.17e-4 c -0.291295,-0.22812 -0.57305,-0.46781 -0.852144,-0.71003 -0.05587,-0.0485 -0.115682,-0.0936 -0.171049,-0.14263 -0.332119,-0.29419 -0.654828,-0.59799 -0.968417,-0.91157 -0.313589,-0.31359 -0.617896,-0.63682 -0.912089,-0.96894 -0.294031,-0.33193 -0.578353,-0.67309 -0.852144,-1.02267 l -5.17e-4,-5.2e-4 c -0.273781,-0.34959 -0.53694,-0.70798 -0.789616,-1.07435 -0.2528,-0.36658 -0.494731,-0.74145 -0.725537,-1.12397 a 2.0002,2.0002 0 0 0 -5.17e-4,0 2.0002,2.0002 0 0 0 -0.0015,-0.002 c -0.556419,-0.91998 -1.044179,-1.87835 -1.459342,-2.86701 -0.207495,-0.49412 -0.396952,-0.99601 -0.567924,-1.5043 -0.171029,-0.50851 -0.323688,-1.02391 -0.457337,-1.54461 a 2.0002,2.0002 0 0 0 -0.01344,-0.0527 c -0.365377,-1.27481 -0.610721,-2.5806 -0.738973,-3.89899 -0.04273,-0.43929 -0.07247,-0.87985 -0.0894,-1.32136 v -5.2e-4 c 0.01693,-0.44168 0.04665,-0.88242 0.0894,-1.32188 0.128253,-1.31839 0.373596,-2.62366 0.738973,-3.89847 a 2.0002,2.0002 0 0 0 0.01344,-0.0527 c 0.267298,-1.0414 0.610096,-2.06077 1.025261,-3.04943 0.20752,-0.49418 0.433216,-0.98081 0.676444,-1.45883 0.243309,-0.47815 0.50469,-0.94768 0.782898,-1.40766 a 2.0002,2.0002 0 0 0 0.0021,-0.002 c 1.153948,-1.91243 2.587837,-3.63162 4.24832,-5.10253 H 90.587 c 0.996361,-0.88258 2.073982,-1.67592 3.221508,-2.36833 a 2.0002,2.0002 0 0 0 0.0016,-0.002 h 5.16e-4 c 1.839903,-1.113 3.833111,-1.94933 5.915918,-2.48408 a 2.0002,2.0002 0 0 0 0.05271,-0.0155 c 0.854828,-0.245 1.723468,-0.43712 2.600358,-0.57567 0.43852,-0.0693 0.87978,-0.12516 1.32188,-0.16795 0.4421,-0.0428 0.88527,-0.072 1.32964,-0.0884 z m 40.29108,0.13487 c 1.8392,3.39369 3.33946,6.96112 4.27725,10.71098 a 2.0002,2.0002 0 0 0 0,0.006 c 0.91963,3.64161 1.38991,7.38259 1.40044,11.13886 -0.004,0.46915 -0.0156,0.93766 -0.0341,1.40611 -0.0924,2.34244 -0.36373,4.67384 -0.81132,6.97374 -0.0895,0.45994 -0.18634,0.91838 -0.28991,1.37562 -0.10359,0.45741 -0.21415,0.91299 -0.33176,1.36736 a 2.0002,2.0002 0 0 0 -0.004,0.016 c -0.93675,3.74261 -2.43313,7.30354 -4.26795,10.69134 l -6.99906,-4.19923 c 1.24979,-2.33739 2.25315,-4.79847 2.99103,-7.3458 0.10755,-0.36224 0.20887,-0.72681 0.30334,-1.09348 v -5.1e-4 c 0.20914,-0.73139 0.39547,-1.46808 0.56018,-2.20969 0.005,-0.0217 0.01,-0.0434 0.0145,-0.0651 0.16101,-0.73102 0.30053,-1.46662 0.41806,-2.20555 0.004,-0.0224 0.007,-0.0448 0.0103,-0.0672 0.11611,-0.7385 0.21082,-1.48028 0.28319,-2.22467 0.002,-0.0227 0.004,-0.0455 0.006,-0.0682 0.071,-0.74383 0.1198,-1.4904 0.14676,-2.23811 4.4e-4,-0.0121 0.002,-0.0241 0.003,-0.0362 a 2.0002,2.0002 0 0 0 0.002,-0.0801 c -5e-5,-0.011 -9.6e-4,-0.022 -0.001,-0.0331 -0.005,-0.75314 -0.0319,-1.50514 -0.0811,-2.25567 -0.001,-0.0224 -0.003,-0.0448 -0.004,-0.0672 -0.0505,-0.751 -0.12306,-1.50055 -0.21807,-2.24689 -0.002,-0.0197 -0.005,-0.0393 -0.008,-0.0589 -0.0963,-0.74689 -0.215,-1.4907 -0.35554,-2.23087 -0.004,-0.0219 -0.008,-0.0438 -0.0124,-0.0656 -0.14156,-0.73853 -0.30502,-1.47317 -0.49041,-2.20297 -0.003,-0.0108 -0.004,-0.0218 -0.007,-0.0326 -0.74222,-2.98826 -1.84933,-5.86923 -3.28507,-8.58707 z m -80.584233,0.0372 6.999573,4.19923 c -1.249554,2.33708 -2.253184,4.79836 -2.991032,7.34528 -0.107592,0.36239 -0.208828,0.72718 -0.30334,1.09399 -0.848847,2.96848 -1.332997,6.02958 -1.441256,9.11521 a 2.0002,2.0002 0 0 0 0,0.14056 c 0.108259,3.08563 0.59241,6.14672 1.441256,9.11521 0.09453,0.36687 0.195694,0.73157 0.30334,1.09399 0.738021,2.54723 1.742147,5.00847 2.992066,7.3458 l -7.000607,4.19871 c -1.8351,-3.38811 -3.33058,-6.94988 -4.267439,-10.69289 a 2.0002,2.0002 0 0 0 -0.0041,-0.016 c -0.939985,-3.63158 -1.430994,-7.36401 -1.46451,-11.11508 0.03352,-3.75107 0.524525,-7.48556 1.46451,-11.11715 a 2.0002,2.0002 0 0 0 0.0041,-0.0134 c 0.936856,-3.74299 2.43234,-7.30529 4.267439,-10.6934 z m -53.738322,0.38447 45.132646,11.28355 c -0.720269,3.33063 -1.103582,6.72722 -1.132747,10.1384 a 2.0002,2.0002 0 0 0 0,0.0351 c 0.02916,3.41101 0.413009,6.8077 1.133264,10.1384 L 10.999845,169.9395 Z m 188.000415,0 v 42.87904 l -45.13368,-11.28355 c 0.72045,-3.33087 1.10465,-6.72705 1.13378,-10.1384 a 2.0002,2.0002 0 0 0 0,-0.0238 c -0.009,-3.41801 -0.37262,-6.82319 -1.07539,-10.16476 z M 73.808415,169.54779 c 2.706662,3.99543 6.147842,7.4376 10.14305,10.1446 l -5.310787,8.85269 -24.948865,41.58196 -5.569686,-5.56969 24.651209,-41.0869 a 2.0002,2.0002 0 0 0 -1.040764,-2.91196 2.0002,2.0002 0 0 0 -1.703255,0.16795 L 28.942419,205.37816 23.3717,199.80899 64.955208,174.85961 Z m 62.383785,0 8.85269,5.31182 41.58351,24.94938 -5.57072,5.56917 -41.0869,-24.65172 a 2.0002,2.0002 0 0 0 -2.74401,2.74401 l 24.6512,41.0869 -5.56968,5.56969 -24.94887,-41.58196 -5.3113,-8.85269 c 3.99548,-2.70693 7.43721,-6.14909 10.14408,-10.1446 z m -35.50222,4.43952 c 1.39659,0.2828 2.81311,0.46053 4.23953,0.51057 a 2.0002,2.0002 0 0 0 0.14056,0 c 1.4266,-0.05 2.84345,-0.22775 4.24005,-0.51057 l 2.40658,9.62577 2.96105,11.84217 11.76156,47.04468 h -7.87859 l -11.62151,-46.4845 a 2.0002,2.0002 0 0 0 -0.64492,-0.99271 2.0002,2.0002 0 0 0 -0.31678,-0.18603 2.0002,2.0002 0 0 0 -0.77256,-0.26614 2.0002,2.0002 0 0 0 -0.20516,-0.0708 2.0002,2.0002 0 0 0 -0.20567,0.0708 2.0002,2.0002 0 0 0 -0.77308,0.26614 2.0002,2.0002 0 0 0 -0.31678,0.18551 2.0002,2.0002 0 0 0 -0.64543,0.99323 l -11.621517,46.4845 h -7.874972 l 11.760006,-47.04468 2.96106,-11.84217 z m -13.314952,7.77524 c 2.095636,1.12083 4.291469,2.04215 6.55929,2.7528 l -1.484664,5.93814 -0.486792,1.94872 c -3.051714,-0.90739 -5.987671,-2.12412 -8.78706,-3.64061 z m 35.250042,0 4.19923,6.99905 c -2.79893,1.51602 -5.73541,2.73347 -8.78654,3.64061 l -0.91933,-3.67575 -1.05213,-4.21059 c 2.26769,-0.71065 4.46325,-1.63254 6.55877,-2.75332 z m -57.396493,6.50916 -21.339783,35.56631 -24.138578,40.2301 -30.316496,-30.31805 40.228552,-24.13858 z m 79.542953,0 35.5663,21.33978 40.22855,24.13858 -30.31649,30.31805 -24.13858,-40.2301 z m -39.77174,16.47445 10.05882,40.23837 11.3807,45.51557 h -7.87859 l -11.62151,-46.4845 a 2.0002,2.0002 0 0 0 -0.70952,-1.09141 2.0002,2.0002 0 0 0 -1.2299,-0.42426 2.0002,2.0002 0 0 0 -1.23145,0.42426 2.0002,2.0002 0 0 0 -0.70951,1.09141 l -11.621517,46.4845 h -7.874972 l 11.377084,-45.51557 z m 0,48.00017 10.05882,40.23785 11.3807,45.51557 H 83.562341 l 11.377084,-45.51557 z"
       inkscape:label="full" /></g><g
     inkscape:groupmode="layer"
     id="layer5"
     inkscape:label="MIRRORED"
     style="display:none"><path
       d="m 104.99979,384.59616 c -8.886509,-1.6e-4 -17.616155,2.33779 -25.312148,6.78098 -12.112534,6.99336 -20.567609,18.60008 -23.805265,31.85852 L -2.3631632,408.67428 c -0.2070908,-0.0518 -0.4135471,-0.0776 -0.6159831,-0.0796 -1.4170522,-0.0142 -2.6456594,1.13197 -2.6458334,2.62619 v 14.63787 L -74.36342,408.67428 c -0.207089,-0.0518 -0.413544,-0.0776 -0.615983,-0.0796 -1.417058,-0.0142 -2.645659,1.13196 -2.645833,2.62619 v 14.63787 l -68.737924,-17.18448 c -0.20709,-0.0518 -0.41354,-0.0776 -0.61598,-0.0796 -1.41708,-0.0142 -2.64566,1.13195 -2.64584,2.62619 v 23.99957 23.99957 c 1.8e-4,1.49425 1.22876,2.6404 2.64584,2.6262 0.20244,-0.002 0.40889,-0.0278 0.61598,-0.0796 l 68.737924,-17.18448 v 14.63786 c 1.74e-4,1.49424 1.228775,2.6404 2.645833,2.6262 0.202439,-0.002 0.408894,-0.0278 0.615983,-0.0796 l 68.7384403,-17.18448 v 14.63786 c 1.74e-4,1.49423 1.2287812,2.6404 2.6458334,2.6262 0.202436,-0.002 0.4088923,-0.0278 0.6159831,-0.0796 L 55.882377,447.20526 c 3.237656,13.25844 11.692731,24.86516 23.805265,31.85852 7.695993,4.4432 16.425639,6.78114 25.312148,6.78098 8.88616,-3e-5 17.61699,-2.33796 25.31267,-6.78098 12.11288,-6.99316 20.56819,-18.59993 23.80578,-31.85852 l 58.24502,14.56139 c 0.2071,0.0518 0.41355,0.0776 0.61599,0.0796 1.41704,0.0142 2.64566,-1.13197 2.64583,-2.6262 v -14.63786 l 68.73844,17.18448 c 0.20707,0.0517 0.41359,0.0776 0.61598,0.0796 1.41685,0.014 2.64507,-1.13222 2.64532,-2.6262 v -14.63786 l 68.73844,17.18448 c 0.20709,0.0518 0.41355,0.0776 0.61598,0.0796 1.41705,0.0142 2.64566,-1.13199 2.64584,-2.6262 v -23.99957 -23.99957 c -1.8e-4,-1.4942 -1.22879,-2.64042 -2.64584,-2.62619 -0.20243,0.002 -0.40889,0.0278 -0.61598,0.0796 l -68.73844,17.18448 v -14.63787 c -2.5e-4,-1.49397 -1.22847,-2.64018 -2.64532,-2.62619 -0.20239,0.002 -0.40891,0.0279 -0.61598,0.0796 l -68.73844,17.18448 v -14.63787 c -1.7e-4,-1.49422 -1.22879,-2.64042 -2.64583,-2.62619 -0.20244,0.002 -0.40889,0.0278 -0.61599,0.0796 l -58.24502,14.56138 c -3.23759,-13.25859 -11.6929,-24.86536 -23.80578,-31.85852 -7.69568,-4.44301 -16.42651,-6.78095 -25.31267,-6.78098 z m 0,5.24981 c 7.96488,2e-5 15.78966,2.0958 22.68751,6.07818 10.87155,6.2765 18.44942,16.68607 21.34391,28.58327 l -18.17253,4.54339 c -1.67875,-7.02737 -6.13708,-13.18833 -12.54601,-16.88837 -4.04721,-2.33664 -8.63953,-3.56618 -13.31288,-3.56619 -4.6735,-9e-5 -9.264956,1.22945 -13.312363,3.56619 -6.408584,3.70007 -10.867668,9.86071 -12.546521,16.88786 l -18.172018,-4.54288 c 2.894548,-11.89711 10.472131,-22.30658 21.3434,-28.58327 6.898108,-3.98254 14.722308,-6.07833 22.687502,-6.07818 z m 0,24.00009 c 3.75209,10e-6 7.43834,0.98736 10.68772,2.86339 5.16751,2.98333 8.74911,7.94668 10.08466,13.6126 0.37461,1.58926 0.60301,3.22476 0.60306,4.89841 -5e-5,1.67366 -0.22845,3.30916 -0.60306,4.89841 -1.33555,5.66593 -4.91715,10.62928 -10.08466,13.61261 -3.24938,1.87602 -6.93563,2.86338 -10.68772,2.86339 -3.7522,7e-5 -7.437668,-0.9873 -10.6872,-2.86339 -5.16735,-2.98342 -8.749099,-7.94672 -10.084656,-13.61261 -0.374615,-1.58924 -0.603039,-3.22477 -0.603064,-4.89841 2.5e-5,-1.67363 0.228449,-3.30916 0.603064,-4.89841 1.335557,-5.66588 4.917306,-10.62918 10.084656,-13.6126 3.249532,-1.8761 6.935,-2.86346 10.6872,-2.86339 z m -249.37496,0.73845 66.749934,16.68684 5.250326,1.31258 10.547159,2.63653 -10.547159,2.63653 -5.250326,1.31259 -66.749934,16.68683 v -20.63595 z m 72.00026,0 66.7499303,16.68684 5.2498088,1.31258 10.5471599,2.63653 -10.5471599,2.63653 -5.2498088,1.31259 -66.7499303,16.68683 v -12.58683 l 22.011576,-5.50302 c 1.191286,-0.29783 1.936988,-1.3716 1.9389,-2.5461 -0.0019,-1.17449 -0.747614,-2.24827 -1.9389,-2.54609 l -22.011576,-5.50303 z m 71.9997391,0 78.8122439,19.70216 c -0.01106,0.31313 -0.06197,0.61899 -0.06201,0.93379 4.6e-5,0.3148 0.05095,0.62067 0.06201,0.9338 l -78.8122439,19.70215 v -12.58683 l 22.0120929,-5.50302 c 1.191291,-0.29783 1.93699,-1.3716 1.9389,-2.5461 -0.0019,-1.17449 -0.747609,-2.24827 -1.9389,-2.54609 l -22.0120929,-5.50303 z m 210.7499309,0 v 12.58683 l -22.01158,5.50303 c -1.19127,0.29782 -1.93698,1.37161 -1.9389,2.54609 0.002,1.17449 0.74763,2.24827 1.9389,2.5461 l 22.01158,5.50302 v 12.58683 l -78.81173,-19.70215 c 0.0111,-0.31313 0.0619,-0.61899 0.062,-0.9338 -6e-5,-0.31481 -0.0509,-0.62066 -0.062,-0.93379 z m 72.00025,0 v 12.58683 l -22.01157,5.50303 c -1.19145,0.29762 -1.93742,1.3715 -1.93942,2.54609 0.002,1.1746 0.74797,2.24847 1.93942,2.5461 l 22.01157,5.50302 v 12.58683 l -66.74993,-16.68683 -5.25032,-1.31259 -10.54716,-2.63653 10.54716,-2.63653 5.25032,-1.31258 z m 71.99974,0 v 20.63595 20.63595 l -66.74993,-16.68683 -5.24981,-1.31259 -10.54716,-2.63653 10.54716,-2.63653 5.24981,-1.31258 z m -223.51607,26.8056 18.17253,4.54339 c -2.89449,11.89721 -10.47236,22.30677 -21.34391,28.58327 -6.89785,3.98239 -14.72263,6.07816 -22.68751,6.07818 -7.965194,1.5e-4 -15.789394,-2.09563 -22.687502,-6.07818 -10.871269,-6.27669 -18.448852,-16.68615 -21.3434,-28.58327 l 18.172018,-4.54287 c 1.678853,7.02715 6.137937,13.18779 12.546521,16.88786 4.047407,2.33674 8.638863,3.56628 13.312363,3.56619 4.67335,-10e-6 9.26567,-1.22955 13.31288,-3.56619 6.40893,-3.70004 10.86726,-9.86101 12.54601,-16.88838 z"
       style="display:inline;fill:#d6a206;stroke-linecap:round;stroke-linejoin:round;paint-order:fill markers stroke"
       id="path34"
       inkscape:label="simple mirror" /></g></svg>
