<?xml version="1.0" encoding="UTF-8" standalone="no"?>
<!-- Created with Inkscape (http://www.inkscape.org/) -->

<svg
   width="30in"
   height="12in"
   viewBox="0 0 762 304.79999"
   version="1.1"
   id="svg1"
   inkscape:version="1.3.1 (91b66b0783, 2023-11-16)"
   sodipodi:docname="archway.svg"
   xmlns:inkscape="http://www.inkscape.org/namespaces/inkscape"
   xmlns:sodipodi="http://sodipodi.sourceforge.net/DTD/sodipodi-0.dtd"
   xmlns="http://www.w3.org/2000/svg"
   xmlns:svg="http://www.w3.org/2000/svg">
  <sodipodi:namedview
     id="namedview1"
     pagecolor="#ffffff"
     bordercolor="#000000"
     borderopacity="0.25"
     inkscape:showpageshadow="2"
     inkscape:pageopacity="0.0"
     inkscape:pagecheckerboard="0"
     inkscape:deskcolor="#d1d1d1"
     inkscape:document-units="in"
     inkscape:zoom="0.30333544"
     inkscape:cx="1109.333"
     inkscape:cy="212.63589"
     inkscape:current-layer="layer1" />
  <defs
     id="defs1" />
  <g
     inkscape:label="Layer 1"
     inkscape:groupmode="layer"
     id="layer1">
    <path
       id="path127"
       style="fill:#b2dfbc;stroke-linecap:round;stroke-linejoin:round"
       d="m 372.19691,0 c -0.56133,-2.4991849e-5 -1.11664,0.05746001 -1.65881,0.16691501 -0.35446,0.07118 -0.68593,0.196732 -1.02268,0.311092 -0.17919,0.06078 -0.36699,0.09523 -0.54157,0.167948 -0.35219,0.146901 -0.67557,0.343209 -1.00149,0.53485099 -0.14442,0.08466 -0.30086,0.145349 -0.44028,0.238746 -0.43023,0.28876 -0.82806,0.619975 -1.19683,0.981334 -0.0201,0.01971 -0.0452,0.03383 -0.0651,0.05374 -2.7e-4,2.69e-4 -7.7e-4,2.49e-4 -10e-4,5.16e-4 l -20.7145,20.715015 h -29.2933 c -4.62958,2.23e-4 -8.3825,3.753374 -8.38244,8.382951 V 48.56861 H 290.8629 c -4.62958,2.23e-4 -8.3825,3.753373 -8.38244,8.38295 v 17.017566 h -34.97874 c -4.62958,-6.2e-5 -8.38273,3.752858 -8.38295,8.382434 v 17.016015 h -9.65212 c -2.22355,3.13e-4 -4.3559,0.884035 -5.92781,2.456695 l -15.50396,15.50603 h -54.6933 c -4.62979,-6e-5 -8.38301,3.75318 -8.38295,8.38295 v 17.0155 H 51.744128 c -4.629779,-6e-5 -8.383013,3.75317 -8.382951,8.38295 v 93.21653 h -9.654191 c -2.223618,4.5e-4 -4.355983,0.88437 -5.927803,2.45721 L 2.455147,272.11361 C 0.883563,273.68527 4.5000077e-4,275.81674 0,278.03935 v 6.94325 c -6.1999232e-5,4.62957 3.7528575,8.38272 8.382434,8.38295 H 736.01139 c 4.62957,-2.3e-4 8.38249,-3.75338 8.38243,-8.38295 v -6.94325 c -4.5e-4,-2.22261 -0.88356,-4.35408 -2.45514,-5.92574 l -25.32404,-25.32817 c -1.57182,-1.57284 -3.70419,-2.45676 -5.9278,-2.45721 h -9.65419 V 151.1117 c 6e-5,-4.62978 -3.75318,-8.38301 -8.38296,-8.38295 h -93.21446 v -17.0155 c 6e-5,-4.62977 -3.75316,-8.38301 -8.38295,-8.38295 h -54.6933 l -15.50396,-15.50603 c -1.57191,-1.57266 -3.70426,-2.456382 -5.92781,-2.456695 h -9.65212 V 82.35156 c -2.2e-4,-4.629576 -3.75338,-8.382496 -8.38295,-8.382434 H 461.9134 V 56.95156 c 6e-5,-4.629577 -3.75286,-8.382727 -8.38244,-8.38295 H 436.51495 V 31.553112 c 6e-5,-4.629577 -3.75286,-8.382728 -8.38244,-8.382951 h -29.2933 L 378.12471,2.455147 c -2.7e-4,-2.68e-4 -7.6e-4,-2.48e-4 -10e-4,-5.17e-4 -0.0199,-0.01991 -0.045,-0.03403 -0.0651,-0.05374 -0.36877,-0.36136 -0.7666,-0.692575 -1.19683,-0.981335 -0.13942,-0.0934 -0.29586,-0.154082 -0.44028,-0.238746 -0.32592,-0.19164199 -0.64931,-0.38794999 -1.00149,-0.53485099 -0.17458,-0.07272 -0.36238,-0.107169 -0.54157,-0.167948 -0.33675,-0.11436 -0.66823,-0.239911 -1.02268,-0.311092 -0.54218,-0.109451 -1.09748,-0.166940001849 -1.65881,-0.1669150018492 z"
       sodipodi:nodetypes="scscccssccccccccccccccccccccccccccccccccccccccccccccccccccccsscccccs" />
    <path
       id="path123"
       style="fill:#ffd556;stroke:none;stroke-linecap:square"
       d="M 372.19691 8.3819172 L 349.02727 31.553112 L 316.26131 31.553112 L 316.26131 56.951562 L 290.86286 56.951562 L 290.86286 82.351561 L 247.50168 82.351561 L 247.50168 107.75001 L 229.46661 107.75001 L 211.5075 125.71325 L 153.34154 125.71325 L 153.34154 151.1117 L 51.744128 151.1117 L 51.744128 252.71119 L 33.706986 252.71119 L 8.3824339 278.03935 L 8.3824339 284.98312 L 372.19691 284.98312 L 736.01139 284.98312 L 736.01139 278.03935 L 710.68684 252.71119 L 692.6497 252.71119 L 692.6497 151.1117 L 591.05229 151.1117 L 591.05229 125.71325 L 532.88633 125.71325 L 514.92722 107.75001 L 496.89214 107.75001 L 496.89214 82.351561 L 453.53097 82.351561 L 453.53097 56.951562 L 428.13252 56.951562 L 428.13252 31.553112 L 395.36656 31.553112 L 372.19691 8.3819172 z " />
    <path
       d="m 299.24581,90.734511 v 7.642427 186.606172 h 8.38088 V 73.713845 h 17.01757 v -8.379851 h -25.39845 z"
       style="fill:#856404"
       id="path77" />
    <path
       d="M 372.19691,20.23649 352.49992,39.933995 H 324.64426 V 284.98311 h 8.38295 V 48.316429 h 22.94537 l 16.22433,-16.225883 z"
       style="fill:#d6a206;stroke-linecap:square"
       id="path79" />
    <path
       d="m 255.88463,116.13296 v 8.38295 160.4672 h 8.38295 V 98.376938 h 34.97823 v -7.642427 h -43.36118 z"
       style="fill:#d6a206"
       id="path75" />
    <path
       d="m 60.125011,261.09362 v 8.38295 15.50654 h 8.380884 V 167.87295 h 93.218595 v -8.37882 H 60.125011 Z"
       style="fill:#856404"
       id="path65" />
    <path
       d="m 232.93926,116.13296 -17.95911,17.96117 -2.45515,2.45515 v 5.92625 142.50758 h 8.38089 V 140.02194 l 15.50758,-15.50603 h 19.47116 v -8.38295 z"
       style="fill:#856404"
       id="path73" />
    <path
       d="m 161.72449,159.49413 v 25.56278 8.38295 17.01757 8.38243 66.14325 h 8.38295 V 142.47553 H 212.525 v -5.92625 l 2.45515,-2.45515 h -53.25566 z"
       style="fill:#d6a206"
       id="path71" />
    <path
       d="m 119.30641,284.98311 v -66.14325 h 42.41808 v -8.38243 h -50.80103 v 74.52568 z"
       style="fill:#856404"
       id="path69" />
    <path
       d="m 93.905895,284.98311 v -91.54325 h 67.818595 v -8.38295 H 85.525011 v 99.9262 z"
       style="fill:#d6a206"
       id="path67" />
    <path
       d="m 16.765385,284.98311 h 8.380883 l 15.507581,-15.50654 h 19.471162 v -8.38295 H 37.179642 l -20.414257,20.41684 z"
       style="fill:#d6a206"
       id="path64" />
    <path
       d="M 324.64426,73.713845 H 307.62669 V 284.98311 h 17.01757 z"
       style="fill:#0c5460;stroke-width:8.38201;stroke-linecap:square"
       id="path78" />
    <path
       d="M 299.24581,284.98311 V 98.376938 H 264.26758 V 284.98311 Z"
       style="fill:#28a745;stroke-width:8.38201;stroke-linecap:square"
       id="path76" />
    <path
       d="m 255.88463,284.98311 v -160.4672 h -19.47116 l -15.50758,15.50603 v 144.96117 z"
       style="fill:#0c5460;stroke-width:8.38201;stroke-linecap:square"
       id="path74" />
    <path
       d="M 212.525,142.47553 H 170.10744 V 284.98311 H 212.525 Z"
       style="fill:#28a745;stroke-width:8.38201;stroke-linecap:square"
       id="path72" />
    <path
       d="m 161.72449,284.98311 v -66.14325 h -42.41808 v 66.14325 z"
       style="fill:#0c5460;stroke-width:8.38201;stroke-linecap:square"
       id="path70" />
    <path
       d="m 110.92346,284.98311 v -74.52568 h 50.80103 V 193.43986 H 93.905895 v 91.54325 z"
       style="fill:#28a745;stroke-width:8.38201;stroke-linecap:square"
       id="path68" />
    <path
       d="m 85.525011,284.98311 v -99.9262 H 161.72449 V 167.87295 H 68.505895 v 117.11016 z"
       style="fill:#0c5460;stroke-width:8.38201;stroke-linecap:square"
       id="path66" />
    <path
       d="M 60.125011,284.98311 V 269.47657 H 40.653849 l -15.507581,15.50654 z"
       style="fill:#28a745;stroke-width:8.38201;stroke-linecap:square"
       id="path63" />
    <path
       d="m 445.14809,90.734511 v 7.642427 186.606172 h -8.38088 V 73.713845 h -17.01757 v -8.379851 h 25.39845 z"
       style="fill:#856404"
       id="path168" />
    <path
       d="m 372.19699,20.23649 19.69699,19.697505 h 27.85566 V 284.98311 h -8.38295 V 48.316429 H 388.42132 L 372.19699,32.090546 Z"
       style="fill:#d6a206;stroke-linecap:square"
       id="path169" />
    <path
       d="m 488.50927,116.13296 v 8.38295 160.4672 h -8.38295 V 98.376938 h -34.97823 v -7.642427 h 43.36118 z"
       style="fill:#d6a206"
       id="path170" />
    <path
       d="m 684.26889,261.09362 v 8.38295 15.50654 h -8.38088 V 167.87295 h -93.2186 v -8.37882 h 101.59948 z"
       style="fill:#856404"
       id="path171" />
    <path
       d="m 511.45464,116.13296 17.95911,17.96117 2.45515,2.45515 v 5.92625 142.50758 h -8.38089 V 140.02194 l -15.50758,-15.50603 h -19.47116 v -8.38295 z"
       style="fill:#856404"
       id="path172" />
    <path
       d="m 582.66941,159.49413 v 25.56278 8.38295 17.01757 8.38243 66.14325 h -8.38295 V 142.47553 H 531.8689 v -5.92625 l -2.45515,-2.45515 h 53.25566 z"
       style="fill:#d6a206"
       id="path173" />
    <path
       d="m 625.08749,284.98311 v -66.14325 h -42.41808 v -8.38243 h 50.80103 v 74.52568 z"
       style="fill:#856404"
       id="path174" />
    <path
       d="m 650.48801,284.98311 v -91.54325 h -67.8186 v -8.38295 h 76.19948 v 99.9262 z"
       style="fill:#d6a206"
       id="path175" />
    <path
       d="m 727.62852,284.98311 h -8.38088 l -15.50758,-15.50654 h -19.47117 v -8.38295 h 22.94537 l 20.41426,20.41684 z"
       style="fill:#d6a206"
       id="path176" />
    <path
       d="m 419.74964,73.713845 h 17.01757 V 284.98311 h -17.01757 z"
       style="fill:#0c5460;stroke-width:8.38201;stroke-linecap:square"
       id="path177" />
    <path
       d="M 445.14809,284.98311 V 98.376938 h 34.97823 V 284.98311 Z"
       style="fill:#28a745;stroke-width:8.38201;stroke-linecap:square"
       id="path178" />
    <path
       d="m 488.50927,284.98311 v -160.4672 h 19.47116 l 15.50758,15.50603 v 144.96117 z"
       style="fill:#0c5460;stroke-width:8.38201;stroke-linecap:square"
       id="path179" />
    <path
       d="m 531.8689,142.47553 h 42.41756 V 284.98311 H 531.8689 Z"
       style="fill:#28a745;stroke-width:8.38201;stroke-linecap:square"
       id="path180" />
    <path
       d="m 582.66941,284.98311 v -66.14325 h 42.41808 v 66.14325 z"
       style="fill:#0c5460;stroke-width:8.38201;stroke-linecap:square"
       id="path181" />
    <path
       id="path80"
       style="fill:#28a745;stroke:none;stroke-width:8.382;stroke-linecap:square;stroke-linejoin:miter;stroke-dasharray:none"
       d="M 372.19691 32.090547 L 355.97258 48.31643 L 333.02721 48.31643 L 333.02721 284.98312 L 372.19691 284.98312 L 411.36662 284.98312 L 411.36662 48.31643 L 388.42125 48.31643 L 372.19691 32.090547 z " />
    <path
       d="m 633.47044,284.98311 v -74.52568 h -50.80103 v -17.01757 h 67.8186 v 91.54325 z"
       style="fill:#28a745;stroke-width:8.38201;stroke-linecap:square"
       id="path182" />
    <path
       d="m 658.86889,284.98311 v -99.9262 h -76.19948 v -17.18396 h 93.2186 v 117.11016 z"
       style="fill:#0c5460;stroke-width:8.38201;stroke-linecap:square"
       id="path183" />
    <path
       d="m 684.26889,284.98311 v -15.50654 h 19.47117 l 15.50758,15.50654 z"
       style="fill:#28a745;stroke-width:8.38201;stroke-linecap:square"
       id="path184" />
  </g>
  <g
     inkscape:groupmode="layer"
     id="layer3"
     inkscape:label="TEMP"
     style="display:none">
    <g
       id="g99"
       transform="translate(4.1914754,5.9278035)">
      <path
         d="m 285.73036,64.570218 v 7.642427 186.606175 h 8.38088 V 47.549552 h 17.01757 v -8.379851 h -25.39845 z"
         style="fill:#d6a206"
         id="path81" />
      <path
         d="M 358.68146,-5.9278034 338.98447,13.769702 H 311.12881 V 258.81882 h 8.38295 V 22.152136 h 22.94537 L 358.68146,5.9262532 Z"
         style="fill:#d6a206;stroke-linecap:square"
         id="path82" />
      <path
         d="m 242.36918,89.968667 v 8.382951 160.467202 h 8.38295 V 72.212645 h 34.97823 v -7.642427 h -43.36118 z"
         style="fill:#d6a206"
         id="path83" />
      <path
         d="m 46.609557,234.92933 v 8.38295 15.50654 h 8.380884 V 141.70866 h 93.218599 v -8.37882 H 46.609557 Z"
         style="fill:#d6a206"
         id="path84" />
      <path
         d="m 219.42381,89.968667 -17.95911,17.961173 -2.45515,2.45515 v 5.92625 142.50758 h 8.38089 V 113.85765 l 15.50758,-15.506032 h 19.47116 v -8.382951 z"
         style="fill:#d6a206"
         id="path85" />
      <path
         d="m 148.20904,133.32984 v 25.56278 8.38295 17.01757 8.38243 66.14325 h 8.38295 V 116.31124 h 42.41756 v -5.92625 l 2.45515,-2.45515 h -53.25566 z"
         style="fill:#d6a206"
         id="path86" />
      <path
         d="m 105.79096,258.81882 v -66.14325 h 42.41808 v -8.38243 H 97.408006 v 74.52568 z"
         style="fill:#d6a206"
         id="path87" />
      <path
         d="m 80.390441,258.81882 v -91.54325 h 67.818599 v -8.38295 H 72.009557 v 99.9262 z"
         style="fill:#d6a206"
         id="path88" />
      <path
         d="m 3.2499308,258.81882 h 8.3808832 l 15.507581,-15.50654 h 19.471162 v -8.38295 H 23.664188 L 3.2499308,255.34617 Z"
         style="fill:#d6a206"
         id="path89" />
      <path
         d="M 311.12881,47.549552 H 294.11124 V 258.81882 h 17.01757 z"
         style="fill:#0c5460;stroke-width:8.38201;stroke-linecap:square"
         id="path90" />
      <path
         d="M 285.73036,258.81882 V 72.212645 H 250.75213 V 258.81882 Z"
         style="fill:#28a745;stroke-width:8.38201;stroke-linecap:square"
         id="path91" />
      <path
         d="M 242.36918,258.81882 V 98.351618 h -19.47116 l -15.50758,15.506032 v 144.96117 z"
         style="fill:#0c5460;stroke-width:8.38201;stroke-linecap:square"
         id="path92" />
      <path
         d="m 199.00955,116.31124 h -42.41756 v 142.50758 h 42.41756 z"
         style="fill:#28a745;stroke-width:8.38201;stroke-linecap:square"
         id="path93" />
      <path
         d="m 148.20904,258.81882 v -66.14325 h -42.41808 v 66.14325 z"
         style="fill:#0c5460;stroke-width:8.38201;stroke-linecap:square"
         id="path94" />
      <path
         d="M 97.408006,258.81882 V 184.29314 H 148.20904 V 167.27557 H 80.390441 v 91.54325 z"
         style="fill:#28a745;stroke-width:8.38201;stroke-linecap:square"
         id="path95" />
      <path
         d="m 72.009557,258.81882 v -99.9262 H 148.20904 V 141.70866 H 54.990441 v 117.11016 z"
         style="fill:#0c5460;stroke-width:8.38201;stroke-linecap:square"
         id="path96" />
      <path
         d="M 46.609557,258.81882 V 243.31228 H 27.138395 l -15.507581,15.50654 z"
         style="fill:#28a745;stroke-width:8.38201;stroke-linecap:square"
         id="path97" />
      <path
         d="m 3.2499308,258.81882 v 8.38192 h 8.3808832 34.978743 8.380884 17.019116 8.380884 17.017565 8.382954 42.41808 8.38295 42.41756 8.38089 34.97874 8.38295 34.97823 8.38088 17.01757 8.38295 39.1697 v -8.38192 h -39.1697 -8.38295 -17.01757 -8.38088 -34.97823 -8.38295 -34.97874 -8.38089 -42.41756 -8.38295 H 105.79096 97.408006 80.390441 72.009557 54.990441 46.609557 11.630814 Z"
         style="fill:#d6a206;stroke-width:8.38201;stroke-linecap:square"
         id="path98" />
      <path
         style="fill:#28a745;stroke:none;stroke-width:8.382;stroke-linecap:square;stroke-linejoin:miter;stroke-dasharray:none"
         d="M 358.68152,5.9262532 342.45714,22.152137 H 319.51176 V 258.81883 h 39.16976 z"
         id="path99" />
    </g>
  </g>
</svg>
