<?xml version="1.0" encoding="UTF-8" standalone="no"?>
<!-- Created with Inkscape (http://www.inkscape.org/) -->

<svg
   width="300mm"
   height="405mm"
   viewBox="0 0 300 405"
   version="1.1"
   id="svg1"
   inkscape:version="1.3.1 (91b66b0783, 2023-11-16)"
   sodipodi:docname="shell-pattern.svg"
   xmlns:inkscape="http://www.inkscape.org/namespaces/inkscape"
   xmlns:sodipodi="http://sodipodi.sourceforge.net/DTD/sodipodi-0.dtd"
   xmlns="http://www.w3.org/2000/svg"
   xmlns:svg="http://www.w3.org/2000/svg">
  <sodipodi:namedview
     id="namedview1"
     pagecolor="#ffffff"
     bordercolor="#000000"
     borderopacity="0.25"
     inkscape:showpageshadow="2"
     inkscape:pageopacity="0.0"
     inkscape:pagecheckerboard="0"
     inkscape:deskcolor="#d1d1d1"
     inkscape:document-units="mm"
     inkscape:zoom="0.2201599"
     inkscape:cx="556.41377"
     inkscape:cy="824.40082"
     inkscape:current-layer="layer1" />
  <defs
     id="defs1" />
  <g
     inkscape:label="Layer 1"
     inkscape:groupmode="layer"
     id="layer1">
    <g
       id="g593"
       inkscape:label="shells"
       transform="matrix(0.77837188,0,0,0.77837188,6.4534554,1.5770748)"
       style="stroke-width:1.28473">
      <path
         id="path592"
         style="color:#000000;fill:#6f42c1;stroke-width:1.28473;stroke-linecap:round;stroke-linejoin:round;-inkscape-stroke:none;paint-order:fill markers stroke"
         d="m 2.3807332,-1.839681 c -5.7742398,-0.3881133 -10.6715364,4.1909337 -10.6717,9.9782023 V 508 c 6.019e-4,5.52255 4.4773593,9.99931 9.9999064,9.99991 H 367.12901 c 5.52255,-6e-4 9.99931,-4.47736 9.99991,-9.99991 V 8.1385213 c -1.6e-4,-5.7872686 -4.89746,-10.3663156 -10.6717,-9.9782023 -160.3211,-0.2878079 -249.31853,-0.2060214 -364.0764868,0 z"
         sodipodi:nodetypes="ccccccccc"
         inkscape:label="cut" />
      <path
         id="path591"
         style="fill:#ffc107;stroke-width:1.28473;stroke-linecap:round;stroke-linejoin:round;paint-order:fill markers stroke"
         d="M 91.614086,8.0000285 C 69.336789,8.0001908 51.335127,25.081228 49.450028,46.859521 c 3.216724,0.270013 6.346676,0.843924 9.364185,1.693497 0.660969,-10.967805 6.777995,-20.949712 16.367965,-26.486481 10.163897,-5.868131 22.703905,-5.868131 32.867812,0 9.58982,5.536685 15.70684,15.518374 16.36797,26.485981 3.0175,-0.849408 6.14739,-1.423169 9.36418,-1.692997 C 131.89703,25.081029 113.89158,7.9999492 91.614086,8.0000285 Z m 92.803094,0 c -22.27731,1.623e-4 -40.27893,17.0811995 -42.16406,38.8594925 3.2168,0.269996 6.34661,0.843928 9.36418,1.693497 0.66098,-10.967805 6.778,-20.949712 16.36797,-26.486481 10.1639,-5.868131 22.7039,-5.868131 32.86781,0 9.58981,5.536685 15.70684,15.518374 16.36797,26.485981 3.01746,-0.849408 6.14744,-1.423169 9.36418,-1.692997 C 224.70016,25.081029 206.6947,7.9999492 184.41718,8.0000285 Z m 92.80358,0 C 254.94331,8.0001908 236.94161,25.08149 235.05671,46.86002 c 3.21678,0.270029 6.34664,0.843404 9.36418,1.692998 0.66098,-10.967805 6.778,-20.949712 16.36797,-26.486481 10.1639,-5.868131 22.70393,-5.868131 32.86781,0 9.58981,5.536685 15.70684,15.518374 16.36797,26.485981 3.01755,-0.849412 6.14733,-1.423194 9.36418,-1.692997 C 317.50373,25.081029 299.49828,7.9999492 277.22076,8.0000285 Z M 1.7084229,8.1384056 v 9.7148734 c 4.6943285,0.414688 9.3225911,1.779218 13.5384781,4.213258 9.589814,5.536685 15.706838,15.518374 16.367965,26.485981 3.017592,-0.849436 6.147299,-1.423181 9.364184,-1.692997 C 39.176714,26.037263 22.627248,9.5496062 1.7084229,8.1384056 Z m 365.4205071,0 C 346.20963,9.549084 329.66198,26.037183 327.8598,46.86002 c 3.21675,0.270029 6.34665,0.843404 9.36418,1.692998 0.66094,-10.967805 6.778,-20.949712 16.36797,-26.486481 4.21541,-2.433782 8.84314,-3.798782 13.53698,-4.213758 z M 91.615585,25.395581 c -4.337871,8.6e-5 -8.67605,1.123162 -12.566841,3.369508 -7.781868,4.492864 -12.566841,12.780445 -12.566841,21.766171 v 0.873225 c 11.292859,5.296667 20.307972,14.666315 25.134182,26.212223 0.436346,-1.044067 0.912314,-2.066596 1.415742,-3.07377 0.0112,-0.02241 0.02274,-0.04456 0.03397,-0.06694 0.50126,-0.99909 1.034527,-1.979002 1.59908,-2.938891 0.0049,-0.0083 0.0097,-0.01667 0.01449,-0.02498 1.149588,-1.952048 2.428061,-3.817681 3.822102,-5.590036 0.0029,-0.0039 0.0058,-0.0076 0.0087,-0.01148 4.841371,-6.151508 11.079631,-11.149635 18.239801,-14.507618 v -0.871726 c 0,-8.985726 -4.78498,-17.273307 -12.56683,-21.766171 -3.89078,-2.246345 -8.22896,-3.369422 -12.56685,-3.369508 z m 92.803095,0 c -4.3379,8.6e-5 -8.67608,1.123162 -12.56684,3.369508 -7.78189,4.492864 -12.56685,12.780445 -12.56685,21.766171 v 0.872726 c 11.2931,5.296624 20.30784,14.666641 25.13419,26.212722 0.43634,-1.044067 0.91231,-2.066596 1.41574,-3.07377 0.0111,-0.02241 0.0227,-0.04456 0.0339,-0.06694 0.50126,-0.99909 1.03453,-1.979002 1.59908,-2.938891 0.005,-0.0083 0.01,-0.01667 0.0145,-0.02498 1.14956,-1.952048 2.42803,-3.817681 3.8221,-5.590036 0.003,-0.0039 0.006,-0.0076 0.009,-0.01148 4.84142,-6.151508 11.07967,-11.149635 18.23981,-14.507618 v -0.871726 c 0,-8.985726 -4.78499,-17.273307 -12.56684,-21.766171 -3.89081,-2.246345 -8.22898,-3.369422 -12.56684,-3.369508 z m 92.80409,0 c -4.33807,0 -8.67594,1.123076 -12.56684,3.369508 -7.78192,4.492864 -12.56734,12.780445 -12.56734,21.766171 v 0.873225 c 11.29276,5.296675 20.30775,14.666385 25.13367,26.212223 0.43676,-1.045053 0.91328,-2.068677 1.41724,-3.076767 0.01,-0.01981 0.0205,-0.03916 0.0305,-0.05895 0.50472,-1.00628 1.04115,-1.99336 1.61007,-2.959872 1.9e-4,-2.84e-4 3.1e-4,-7.18e-4 5e-4,-9.67e-4 1.15215,-1.957236 2.43423,-3.827394 3.83209,-5.604024 4.84215,-6.154123 11.08185,-11.154656 18.2443,-14.513612 V 50.53129 c 0,-8.985726 -4.78498,-17.273307 -12.56683,-21.766171 -3.89096,-2.246432 -8.2293,-3.369508 -12.56734,-3.369508 z M 1.7084229,25.583414 v 46.235443 c 0.053552,-0.0924 0.099237,-0.18972 0.1533638,-0.28175 0.00488,-0.0083 0.00961,-0.01667 0.014487,-0.02498 1.1495844,-1.952049 2.4280465,-3.817681 3.822106,-5.590036 0.00301,-0.0039 0.00598,-0.0076 0.00899,-0.01148 C 10.548769,59.759093 16.787018,54.760969 23.947175,51.402986 V 50.53126 c 0,-8.985726 -4.784976,-17.273307 -12.566841,-21.766171 C 8.3569069,27.019516 5.0620731,25.972562 1.7084229,25.583414 Z m 365.4205071,5e-4 c -3.353,0.38929 -6.64694,1.435865 -9.66992,3.181175 -7.78186,4.492864 -12.56734,12.780445 -12.56734,21.766171 v 0.873225 c 9.34941,4.385157 17.09504,11.59004 22.23726,20.482311 z M 45.212791,54.401823 c -0.715252,2.9e-5 -1.426147,0.01873 -2.132606,0.05345 -0.278705,0.01375 -0.553583,0.04086 -0.830762,0.05994 -0.419495,0.02876 -0.839867,0.05416 -1.255886,0.09492 -0.35257,0.03471 -0.700711,0.08312 -1.050566,0.126388 -0.337451,0.04152 -0.67618,0.07905 -1.011103,0.128386 -0.410148,0.06077 -0.815845,0.13441 -1.221915,0.206816 -0.254691,0.04514 -0.510735,0.08624 -0.763821,0.13588 -0.491335,0.09697 -0.977852,0.206426 -1.462701,0.320215 -0.153871,0.03587 -0.308875,0.06888 -0.46209,0.106406 -0.581143,0.143329 -1.157344,0.298533 -1.728465,0.465586 -0.03931,0.01142 -0.07912,0.02145 -0.118395,0.03298 -16.44108,4.861414 -28.5954002,19.446497 -30.1257484,37.128529 3.2166732,0.270007 6.3462274,0.843953 9.3636854,1.693497 0.66095,-10.967824 6.778474,-20.950209 16.368465,-26.486981 10.163894,-5.868131 22.703932,-5.868131 32.867813,0 9.589834,5.536694 15.706848,15.518854 16.367965,26.486481 3.017393,-0.849369 6.147,-1.423177 9.363685,-1.692997 C 85.849262,75.570463 73.681478,60.979444 57.227122,56.125295 c -0.0027,-7.74e-4 -0.0053,-0.0017 -0.008,-0.0025 -0.605916,-0.178613 -1.218151,-0.342183 -1.83537,-0.49406 -0.122259,-0.02987 -0.245989,-0.05611 -0.368673,-0.08492 -0.514514,-0.121704 -1.031795,-0.236953 -1.55362,-0.339698 -0.219867,-0.04301 -0.442327,-0.07878 -0.663411,-0.118395 -0.437323,-0.07887 -0.874768,-0.157444 -1.316831,-0.222802 -0.315751,-0.0464 -0.635147,-0.08145 -0.953153,-0.120893 -0.363721,-0.04539 -0.725871,-0.09575 -1.092531,-0.131883 -0.409878,-0.04017 -0.82414,-0.06491 -1.2374,-0.09341 -0.285312,-0.01979 -0.568322,-0.04731 -0.855241,-0.06144 -0.704989,-0.03455 -1.414371,-0.05344 -2.12811,-0.05345 h -5e-4 -4.99e-4 z m 92.803099,0 c -0.71493,2.9e-5 -1.42548,0.01876 -2.13162,0.05345 -0.28239,0.01392 -0.56094,0.04154 -0.84175,0.06095 -0.41564,0.02859 -0.83221,0.05354 -1.2444,0.09392 -0.35628,0.03506 -0.70805,0.08407 -1.06155,0.127887 -0.33357,0.04111 -0.66851,0.07763 -0.99962,0.126388 -0.41418,0.06135 -0.82385,0.136096 -1.23389,0.209313 -0.25034,0.04443 -0.50206,0.08462 -0.75084,0.133382 -0.49569,0.09779 -0.9866,0.2078 -1.47569,0.322714 -0.14953,0.03489 -0.30019,0.06694 -0.4491,0.103408 -0.58219,0.143548 -1.15985,0.299227 -1.73196,0.466585 -0.0393,0.01137 -0.0788,0.0215 -0.1179,0.03298 -16.44122,4.86146 -28.595573,19.446776 -30.125747,37.129028 3.216758,0.270029 6.346687,0.843401 9.364177,1.692998 0.66097,-10.967824 6.77799,-20.950204 16.36798,-26.486981 10.1639,-5.868131 22.7039,-5.868131 32.86781,0 9.58982,5.536694 15.70685,15.518854 16.36796,26.486481 3.01758,-0.849412 6.14732,-1.423194 9.36419,-1.692997 -1.53097,-17.689385 -13.69699,-32.27916 -30.14923,-37.134524 -0.0145,-0.0043 -0.029,-0.0082 -0.0435,-0.01249 -0.59572,-0.175108 -1.19776,-0.336293 -1.8044,-0.485568 -0.12278,-0.03 -0.24699,-0.05649 -0.37018,-0.08543 -0.51332,-0.121407 -1.02899,-0.236663 -1.54962,-0.339199 -0.22396,-0.04382 -0.45067,-0.07959 -0.67589,-0.119894 -0.43341,-0.07805 -0.86679,-0.156524 -1.30485,-0.221303 -0.31953,-0.04697 -0.6428,-0.08203 -0.96464,-0.121892 -0.36025,-0.04487 -0.7189,-0.09459 -1.08204,-0.130384 -0.4132,-0.0405 -0.83075,-0.06627 -1.24739,-0.09491 -0.28199,-0.0195 -0.56168,-0.04648 -0.84525,-0.06045 -0.69588,-0.03412 -1.39622,-0.05248 -2.10063,-0.05296 -0.0103,-8e-6 -0.0202,-5e-4 -0.0305,-5e-4 z m 92.80258,0 c -0.71492,2.9e-5 -1.42547,0.01876 -2.13161,0.05345 -0.2824,0.01392 -0.56091,0.04154 -0.84175,0.06095 -0.41562,0.02859 -0.83218,0.05354 -1.2444,0.09392 -0.35626,0.03506 -0.70806,0.08407 -1.06155,0.127887 -0.33357,0.04111 -0.66851,0.07763 -0.99962,0.126388 -0.4142,0.06135 -0.82388,0.136096 -1.23389,0.209313 -0.25033,0.04443 -0.50206,0.08462 -0.75084,0.133382 -0.49569,0.09779 -0.98659,0.2078 -1.47569,0.322714 -0.14953,0.03489 -0.30018,0.06694 -0.4491,0.103408 -0.58219,0.143548 -1.15982,0.299227 -1.73197,0.466585 -0.0392,0.01137 -0.0787,0.0215 -0.11789,0.03298 -16.44124,4.86146 -28.59558,19.446776 -30.12575,37.129028 3.21678,0.270029 6.34667,0.843401 9.36419,1.692998 0.66095,-10.967824 6.77799,-20.950204 16.36797,-26.486981 10.16387,-5.868131 22.70393,-5.868131 32.86781,0 9.58983,5.536694 15.70685,15.518854 16.36796,26.486481 3.01755,-0.84944 6.14736,-1.423163 9.36419,-1.692997 -1.53107,-17.690855 -13.69888,-32.281873 -30.15323,-37.136023 -0.002,-7.74e-4 -0.005,-0.0017 -0.008,-0.0025 -0.007,-0.0021 -0.0147,-0.0039 -0.0215,-0.006 -0.59996,-0.176513 -1.20637,-0.338757 -1.81739,-0.489066 -0.11843,-0.02892 -0.23836,-0.05399 -0.35718,-0.08193 -0.5173,-0.122475 -1.03692,-0.238887 -1.56162,-0.342196 -0.21983,-0.043 -0.44235,-0.07828 -0.6634,-0.117895 -0.43733,-0.07887 -0.87477,-0.157444 -1.31683,-0.222802 -0.31576,-0.0464 -0.63517,-0.08145 -0.95316,-0.120893 -0.36373,-0.04539 -0.72587,-0.09575 -1.09253,-0.131883 -0.40988,-0.04017 -0.82414,-0.06491 -1.2374,-0.09341 -0.28532,-0.01979 -0.56832,-0.04731 -0.85524,-0.06144 -0.70515,-0.03455 -1.4147,-0.05345 -2.12861,-0.05345 h -9.7e-4 -9.6e-4 z m 92.8036,0 c -0.71493,4.7e-5 -1.42549,0.01875 -2.13162,0.05345 -0.27871,0.01375 -0.55358,0.04086 -0.83076,0.05994 -0.4195,0.02876 -0.83986,0.05416 -1.25588,0.09492 -0.35258,0.03471 -0.70071,0.08312 -1.05057,0.126388 -0.33746,0.04152 -0.67618,0.07905 -1.0111,0.128386 -0.41015,0.06077 -0.81584,0.13441 -1.22191,0.206816 -0.2547,0.04514 -0.51075,0.08624 -0.76383,0.13588 -0.49135,0.09697 -0.97784,0.206426 -1.4627,0.320215 -0.15402,0.0359 -0.30922,0.06884 -0.46259,0.106406 -0.57778,0.142504 -1.1511,0.296634 -1.71897,0.46259 -0.0437,0.01268 -0.0878,0.02466 -0.13138,0.03747 -16.43922,4.862492 -28.59202,19.446305 -30.12226,37.127031 3.21678,0.269996 6.34664,0.843924 9.36419,1.693497 0.66096,-10.967824 6.77797,-20.950204 16.36796,-26.486981 10.1639,-5.868131 22.70391,-5.868131 32.86782,0 9.58983,5.536694 15.70686,15.518854 16.36796,26.486481 3.01758,-0.84944 6.14733,-1.423163 9.36419,-1.692997 -1.53117,-17.691728 -13.70017,-32.283093 -30.15572,-37.136522 -0.007,-0.002 -0.0137,-0.004 -0.0205,-0.006 -0.60207,-0.17724 -1.21065,-0.340213 -1.82388,-0.491063 -0.11844,-0.02892 -0.23835,-0.05399 -0.35718,-0.08193 -0.5173,-0.122475 -1.03693,-0.238887 -1.56162,-0.342197 -0.21984,-0.043 -0.44235,-0.07828 -0.6634,-0.117895 -0.43732,-0.07887 -0.87477,-0.157443 -1.31683,-0.222802 -0.31576,-0.0464 -0.63516,-0.08144 -0.95316,-0.120893 -0.36373,-0.04539 -0.72586,-0.09575 -1.09253,-0.131883 -0.40988,-0.04017 -0.82415,-0.06491 -1.2374,-0.09341 -0.28531,-0.01979 -0.56833,-0.04731 -0.85524,-0.06144 -0.68943,-0.03379 -1.38284,-0.05169 -2.08065,-0.05245 -0.0159,0 -0.0315,-9.66e-4 -0.0475,-9.66e-4 z M 45.214789,71.796877 c -4.338051,0 -8.676408,1.123576 -12.56734,3.370007 -7.781871,4.492864 -12.56734,12.779944 -12.56734,21.765672 v 0.873227 c 11.292992,5.296527 20.308115,14.666307 25.13418,26.212227 0.436068,-1.0434 0.912177,-2.06523 1.415243,-3.07178 0.01214,-0.0243 0.02479,-0.0481 0.03697,-0.0724 0.500665,-0.99769 1.032798,-1.9763 1.596582,-2.93489 0.0049,-0.008 0.0096,-0.0162 0.01449,-0.0249 1.149587,-1.95206 2.428069,-3.81769 3.822106,-5.59005 0.003,-0.004 0.006,-0.008 0.009,-0.0115 4.841512,-6.15169 11.079907,-11.15015 18.240303,-14.508117 v -0.871728 c 0,-8.985729 -4.785482,-17.272808 -12.567341,-21.765672 -3.890921,-2.24647 -8.228784,-3.370008 -12.56684,-3.370008 z m 92.803091,0 c -4.33802,0 -8.67639,1.123576 -12.56734,3.370007 -7.78187,4.492864 -12.56684,12.779944 -12.56684,21.765672 v 0.87372 c 11.29281,5.296674 20.30773,14.666364 25.13368,26.212234 0.43612,-1.04354 0.91211,-2.0656 1.41524,-3.07228 0.012,-0.0242 0.0249,-0.0478 0.0369,-0.0719 0.50348,-1.0033 1.03828,-1.9876 1.60558,-2.95137 7e-5,-9e-5 4.2e-4,-9.2e-4 5e-4,-9.7e-4 5.14308,-8.73696 12.84618,-15.78899 22.0764,-20.117627 v -0.871728 c 0,-8.985729 -4.78549,-17.272809 -12.56734,-21.765673 -3.89097,-2.246431 -8.22877,-3.370007 -12.56685,-3.370007 z m 92.80259,0 c -4.33789,8.6e-5 -8.67608,1.123662 -12.56684,3.370007 -7.78186,4.492864 -12.56685,12.779944 -12.56685,21.765672 v 0.87372 c 11.29303,5.296764 20.30829,14.666554 25.13419,26.212724 0.43484,-1.04051 0.90877,-2.0599 1.41024,-3.06377 0.0163,-0.0326 0.0336,-0.0645 0.05,-0.0969 0.4984,-0.99227 1.02774,-1.96581 1.58859,-2.91941 0.005,-0.008 0.01,-0.0162 0.0145,-0.0249 1.14959,-1.95206 2.42803,-3.81769 3.8221,-5.59004 0.003,-0.004 0.006,-0.008 0.009,-0.0115 4.84141,-6.15151 11.07966,-11.14962 18.2398,-14.507623 v -0.872221 c 0,-8.985729 -4.78547,-17.272808 -12.56734,-21.765672 -3.89076,-2.246346 -8.22848,-3.369922 -12.56634,-3.370008 z m 92.80359,0 c -4.33802,0 -8.67639,1.123576 -12.56734,3.370007 -7.78187,4.492864 -12.56684,12.779944 -12.56684,21.765672 v 0.873227 c 11.293,5.296527 20.30814,14.666307 25.13418,26.212227 0.43438,-1.03937 0.9084,-2.05748 1.40924,-3.06029 0.0175,-0.0351 0.0364,-0.0694 0.0539,-0.1044 0.49679,-0.98883 1.02426,-1.95902 1.58308,-2.90942 0.007,-0.0107 0.0117,-0.0217 0.0185,-0.0325 1.14816,-1.94938 2.42513,-3.81238 3.81711,-5.58255 0.006,-0.007 0.0102,-0.0137 0.016,-0.0205 4.84086,-6.14952 11.07786,-11.14636 18.23632,-14.503622 v -0.872221 c 0,-8.985729 -4.78497,-17.272808 -12.56685,-21.765672 -3.8909,-2.246432 -8.22926,-3.370008 -12.56734,-3.370008 z M 184.41768,100.80312 c -0.10256,0 -0.20336,0.007 -0.30573,0.008 -0.61134,0.004 -1.22103,0.0168 -1.82588,0.0465 -0.27888,0.0137 -0.5539,0.0409 -0.83126,0.0599 -0.41949,0.0288 -0.83988,0.0541 -1.25589,0.0949 -0.36397,0.0359 -0.72345,0.0855 -1.08453,0.13039 -0.32253,0.0399 -0.64642,0.0753 -0.96664,0.12239 -0.43503,0.0643 -0.86541,0.14237 -1.29586,0.2198 -0.22851,0.0409 -0.45866,0.0774 -0.68589,0.1219 -0.51253,0.10096 -1.0202,0.21444 -1.52564,0.3337 -0.13339,0.0312 -0.26774,0.0599 -0.40065,0.0924 -0.59448,0.14641 -1.18443,0.30485 -1.76843,0.47608 -0.0274,0.008 -0.0556,0.0153 -0.0829,0.023 -16.44607,4.8586 -28.60427,19.44634 -30.13474,37.13202 3.21677,0.27 6.34664,0.84345 9.36418,1.69299 0.66095,-10.96781 6.77799,-20.95021 16.36797,-26.48698 10.1639,-5.86811 22.7034,-5.86811 32.86731,0 9.58983,5.53669 15.70735,15.51885 16.36846,26.48649 3.01749,-0.84942 6.14695,-1.42317 9.36369,-1.693 -1.53121,-17.69249 -13.70057,-32.28471 -30.15722,-37.13752 -0.002,-3.1e-4 -0.003,-6.9e-4 -0.004,-9.7e-4 -0.61105,-0.18013 -1.2288,-0.34561 -1.85136,-0.49855 -0.0996,-0.0243 -0.20038,-0.0453 -0.30023,-0.0689 -0.5359,-0.1275 -1.07471,-0.24728 -1.61856,-0.35419 -0.19652,-0.0384 -0.39548,-0.0697 -0.59298,-0.1054 -0.45985,-0.0836 -0.92017,-0.16615 -1.38527,-0.23479 -0.30004,-0.044 -0.60362,-0.0767 -0.90569,-0.1144 -0.37593,-0.0473 -0.75043,-0.0991 -1.12949,-0.13638 -0.40989,-0.0401 -0.82414,-0.0644 -1.23741,-0.0929 -0.28548,-0.0198 -0.56865,-0.0479 -0.85574,-0.062 -0.57922,-0.0284 -1.16327,-0.0396 -1.74844,-0.0445 -0.12771,-9.7e-4 -0.25368,-0.009 -0.38167,-0.009 z m -92.803594,5e-4 c -0.102557,0 -0.203355,0.007 -0.305728,0.008 -0.611484,0.004 -1.220889,0.0162 -1.825879,0.0459 -0.280215,0.0138 -0.556578,0.0412 -0.835259,0.0604 -0.417708,0.0287 -0.836621,0.0538 -1.250888,0.0945 -0.367665,0.0361 -0.730811,0.0863 -1.095528,0.13188 -0.31867,0.0396 -0.638741,0.0743 -0.955152,0.12089 -0.437177,0.0647 -0.869803,0.14249 -1.302343,0.22031 -0.226931,0.0406 -0.455241,0.0772 -0.680895,0.12139 -0.514546,0.10136 -1.0242,0.2154 -1.531641,0.3352 -0.130485,0.0305 -0.26213,0.0581 -0.392151,0.0899 -0.598704,0.14743 -1.192848,0.30699 -1.780918,0.47958 -0.02276,0.007 -0.04571,0.0126 -0.06844,0.0195 -16.447937,4.85744 -28.608491,19.44566 -30.139237,37.13253 3.216724,0.27002 6.346676,0.84395 9.364185,1.69349 0.660959,-10.96779 6.777976,-20.9502 16.367965,-26.48697 10.163897,-5.86811 22.703906,-5.86811 32.867813,0 9.58983,5.5367 15.70686,15.51885 16.36796,26.48648 3.01751,-0.84942 6.1474,-1.42317 9.36419,-1.693 -1.53123,-17.69248 -13.70104,-32.28472 -30.15772,-37.13752 -0.004,-0.002 -0.009,-0.003 -0.013,-0.004 -0.60799,-0.17908 -1.22251,-0.34391 -1.84186,-0.49606 -0.0996,-0.0243 -0.20039,-0.0453 -0.30024,-0.0689 -0.5359,-0.1275 -1.07472,-0.24728 -1.618565,-0.35419 -0.196501,-0.0384 -0.395477,-0.0697 -0.592964,-0.1054 -0.45985,-0.0836 -0.920174,-0.16616 -1.385273,-0.23479 -0.300044,-0.044 -0.603636,-0.0767 -0.905701,-0.1144 -0.37593,-0.0473 -0.750421,-0.0991 -1.129493,-0.13638 -0.409879,-0.0401 -0.824147,-0.0644 -1.237401,-0.0929 -0.285486,-0.0198 -0.568649,-0.0478 -0.85574,-0.062 -0.581703,-0.0285 -1.168226,-0.0396 -1.755941,-0.0445 -0.125207,-9.6e-4 -0.24869,-0.009 -0.374168,-0.009 z m 185.606674,0 v 5e-4 c -0.10288,0 -0.20402,0.007 -0.30672,0.008 -0.611,0.004 -1.22035,0.0162 -1.82488,0.0459 -0.2824,0.0139 -0.56092,0.0421 -0.84175,0.0615 -0.41563,0.0286 -0.83219,0.0531 -1.2444,0.0934 -0.36766,0.0361 -0.7308,0.0863 -1.09552,0.13188 -0.31867,0.0396 -0.63874,0.0744 -0.95516,0.12089 -0.43903,0.0649 -0.87348,0.1431 -1.30784,0.22131 -0.22436,0.0401 -0.45028,0.0762 -0.67339,0.11989 -0.51675,0.10176 -1.02856,0.21634 -1.53814,0.3367 -0.12886,0.0303 -0.25876,0.0575 -0.38715,0.0889 -0.59888,0.14745 -1.19322,0.30694 -1.78143,0.47958 -0.0227,0.007 -0.0457,0.0131 -0.0684,0.02 -16.44811,4.85746 -28.60865,19.44592 -30.13924,37.13302 3.21678,0.27003 6.34664,0.84341 9.36418,1.693 0.66096,-10.96783 6.77799,-20.95023 16.36797,-26.48698 10.1639,-5.86812 22.70393,-5.86812 32.86781,0 9.58982,5.53667 15.70685,15.51885 16.36797,26.48648 3.01756,-0.84941 6.14734,-1.42319 9.36418,-1.693 -1.53108,-17.691 -13.69912,-32.28198 -30.15373,-37.13602 -0.003,-9.7e-4 -0.005,-0.002 -0.008,-0.003 -0.61005,-0.17984 -1.22685,-0.34482 -1.84836,-0.49756 -0.10401,-0.0253 -0.20889,-0.0473 -0.31322,-0.0719 -0.53169,-0.12634 -1.06608,-0.2456 -1.60557,-0.35168 -0.20068,-0.0392 -0.40379,-0.0715 -0.60547,-0.1079 -0.45604,-0.0828 -0.9126,-0.16425 -1.37378,-0.2323 -0.30403,-0.0446 -0.61207,-0.0782 -0.91819,-0.1164 -0.37227,-0.0467 -0.74314,-0.0974 -1.1185,-0.13438 -0.41319,-0.0405 -0.83074,-0.0663 -1.24739,-0.0949 -0.28215,-0.0195 -0.56202,-0.0464 -0.84576,-0.0604 -0.58466,-0.0286 -1.17417,-0.0401 -1.76492,-0.045 -0.1222,-9.7e-4 -0.24272,-0.009 -0.36518,-0.009 z m -275.5123371,0.1084 v 9.74435 c 4.6943285,0.41469 9.3225911,1.77924 13.5384781,4.21325 9.589829,5.5367 15.706857,15.51869 16.367965,26.48649 3.017604,-0.84945 6.147286,-1.42367 9.364184,-1.6935 -1.531362,-17.69173 -13.700499,-32.28329 -30.156221,-37.13652 -0.006,-0.002 -0.01199,-0.003 -0.01798,-0.005 -0.60615,-0.17847 -1.2189154,-0.34234 -1.8363692,-0.49406 -0.1024458,-0.025 -0.2059882,-0.0472 -0.3087259,-0.0714 -0.5337784,-0.1269 -1.0704092,-0.24621 -1.6120685,-0.35269 -0.1965219,-0.0384 -0.3954848,-0.0697 -0.5929734,-0.1054 -0.4598474,-0.0836 -0.9201723,-0.16616 -1.3852699,-0.23479 -0.3018079,-0.0443 -0.6073316,-0.0775 -0.9111908,-0.11541 -0.3739206,-0.0469 -0.7464768,-0.0977 -1.1235024,-0.13487 -0.413207,-0.0405 -0.8307532,-0.0663 -1.2473923,-0.0949 -0.026328,-0.002 -0.052637,-0.004 -0.07893,-0.006 z m 365.4205071,0 c -0.0261,0.002 -0.0522,0.004 -0.0784,0.006 -0.41563,0.0286 -0.83218,0.0536 -1.24439,0.094 -0.36768,0.0361 -0.73082,0.0863 -1.09554,0.13188 -0.31867,0.0396 -0.63873,0.0743 -0.95515,0.12089 -0.43718,0.0647 -0.86979,0.14249 -1.30234,0.22031 -0.22693,0.0406 -0.45524,0.0772 -0.6809,0.12139 -0.51455,0.10136 -1.02419,0.2154 -1.53164,0.3352 -0.13047,0.0305 -0.26216,0.0581 -0.39215,0.0899 -0.60205,0.14824 -1.19912,0.30837 -1.79041,0.48206 -0.0182,0.005 -0.0366,0.01 -0.0549,0.0155 -16.44997,4.8564 -28.61253,19.44613 -30.14323,37.13453 3.21674,0.27003 6.34665,0.84342 9.36418,1.69299 0.66093,-10.9678 6.77799,-20.9502 16.36797,-26.48698 4.21541,-2.43375 8.84313,-3.79877 13.53698,-4.21375 v -9.74317 z M 91.615585,118.19867 c -4.337871,9e-5 -8.67605,1.12366 -12.566841,3.37001 -7.781868,4.49288 -12.566841,12.77994 -12.566841,21.76567 v 0.87373 c 11.292859,5.29667 20.308262,14.66634 25.134182,26.21222 0.435737,-1.04261 0.910611,-2.06394 1.413244,-3.06977 0.01333,-0.0267 0.02758,-0.0528 0.04096,-0.0795 0.500014,-0.99611 1.031646,-1.97326 1.594585,-2.9304 0.0049,-0.008 0.0097,-0.0162 0.01449,-0.0249 1.149587,-1.95204 2.42806,-3.81768 3.822101,-5.59004 0.0029,-0.004 0.0058,-0.008 0.0087,-0.0115 4.841375,-6.15154 11.079625,-11.14963 18.239805,-14.50763 v -0.87222 c 0,-8.98573 -4.78499,-17.27279 -12.56684,-21.76567 -3.89077,-2.24634 -8.228954,-3.36992 -12.566843,-3.37001 z m 92.803095,0 c -4.3379,9e-5 -8.67608,1.12366 -12.56684,3.37001 -7.78189,4.49288 -12.56685,12.77994 -12.56685,21.76567 v 0.87323 c 11.2931,5.2966 20.30816,14.66666 25.13419,26.21272 0.43573,-1.04261 0.9106,-2.06394 1.41324,-3.06977 0.0133,-0.0267 0.0276,-0.0528 0.041,-0.0795 0.50001,-0.99611 1.03166,-1.97326 1.59459,-2.9304 0.005,-0.008 0.01,-0.0162 0.0145,-0.0249 1.14956,-1.95204 2.42803,-3.81768 3.8221,-5.59004 0.003,-0.004 0.006,-0.008 0.009,-0.0115 4.84142,-6.15154 11.07967,-11.14963 18.2398,-14.50763 v -0.87222 c 0,-8.98573 -4.78498,-17.27279 -12.56683,-21.76567 -3.89081,-2.24634 -8.22898,-3.36992 -12.56684,-3.37001 z m 92.80409,0 c -4.33807,0 -8.67594,1.12359 -12.56684,3.37001 -7.78192,4.49288 -12.56734,12.77994 -12.56734,21.76567 v 0.87373 c 11.29276,5.29668 20.30778,14.66637 25.13367,26.21222 0.43613,-1.04353 0.91211,-2.06561 1.41525,-3.07227 0.012,-0.0242 0.0248,-0.0478 0.0369,-0.0719 0.50348,-1.00331 1.03827,-1.98763 1.60557,-2.95138 7e-5,-8e-5 4.3e-4,-9.2e-4 5e-4,-9.6e-4 5.14313,-8.73697 12.84619,-15.78902 22.07639,-20.11763 v -0.87174 c 0,-8.98572 -4.78498,-17.27278 -12.56683,-21.76567 -3.89096,-2.24641 -8.2293,-3.37 -12.56734,-3.37 z M 1.7084229,118.3865 v 46.23595 c 0.053549,-0.0924 0.099237,-0.18973 0.1533638,-0.28176 0.00488,-0.008 0.0096,-0.0162 0.014487,-0.0249 1.1495844,-1.95204 2.4280465,-3.81768 3.822106,-5.59004 0.00301,-0.004 0.00598,-0.008 0.00899,-0.0115 4.8413993,-6.15157 11.0796483,-11.14964 18.2398053,-14.50764 v -0.87222 c 0,-8.98573 -4.784976,-17.27279 -12.566841,-21.76567 -3.0234273,-1.74558 -6.3182611,-2.7929 -9.6719113,-3.18218 z m 365.4205071,5e-4 c -3.353,0.38943 -6.64694,1.43636 -9.66992,3.18168 -7.78186,4.49288 -12.56734,12.77994 -12.56734,21.76567 v 0.87373 c 9.34925,4.38508 17.09499,11.58977 22.23726,20.4818 z M 45.212791,147.20541 c -0.102531,0 -0.20338,0.007 -0.305729,0.008 -0.611505,0.004 -1.221359,0.0162 -1.826377,0.0459 -0.27887,0.0137 -0.553917,0.0409 -0.831262,0.0599 -0.419495,0.0288 -0.839867,0.0541 -1.255886,0.0949 -0.363967,0.0359 -0.723464,0.0855 -1.084536,0.13039 -0.322528,0.0399 -0.646424,0.0753 -0.966642,0.12238 -0.433343,0.0641 -0.862072,0.14177 -1.290854,0.21882 -0.230938,0.0413 -0.463271,0.0784 -0.692884,0.12338 -0.510491,0.10059 -1.016166,0.21348 -1.519651,0.33221 -0.134862,0.0315 -0.270781,0.0605 -0.40514,0.0934 -0.597502,0.14717 -1.190014,0.30634 -1.776922,0.47858 -0.0229,0.007 -0.04604,0.0128 -0.06894,0.0195 -16.447784,4.85736 -28.6082841,19.44538 -30.1392365,37.13202 3.2166732,0.27002 6.3462274,0.84395 9.3636855,1.6935 0.661105,-10.96764 6.778626,-20.94977 16.368464,-26.48649 10.163895,-5.8681 22.703933,-5.8681 32.867814,0 9.589689,5.53663 15.706693,15.51855 16.367965,26.48598 3.017373,-0.84936 6.147029,-1.42316 9.363684,-1.69299 -1.531412,-17.69224 -13.701208,-32.2843 -30.157719,-37.13702 -0.0043,-0.002 -0.0087,-0.003 -0.01299,-0.004 -0.607134,-0.17882 -1.220402,-0.34307 -1.838868,-0.49505 -0.103405,-0.0252 -0.208025,-0.0475 -0.311723,-0.0719 -0.532843,-0.12664 -1.068878,-0.24589 -1.60957,-0.35219 -0.196685,-0.0384 -0.395822,-0.0697 -0.593473,-0.1054 -0.45985,-0.0836 -0.920172,-0.16615 -1.385271,-0.23479 -0.300041,-0.044 -0.603623,-0.0767 -0.905695,-0.1144 -0.37593,-0.0473 -0.750425,-0.0991 -1.129498,-0.13638 -0.409878,-0.0401 -0.82414,-0.0644 -1.2374,-0.0929 -0.285477,-0.0198 -0.568649,-0.0479 -0.85574,-0.062 -0.583848,-0.0286 -1.172533,-0.0396 -1.762436,-0.0445 -0.122901,-9.7e-4 -0.244008,-0.009 -0.367173,-0.009 z m 92.803099,0 v 5e-4 c -0.1029,0 -0.20403,0.007 -0.30674,0.008 -0.611,0.004 -1.22035,0.0162 -1.82488,0.0459 -0.28239,0.014 -0.56094,0.042 -0.84175,0.0615 -0.41564,0.0285 -0.83221,0.053 -1.2444,0.0934 -0.36767,0.0362 -0.7308,0.0863 -1.09552,0.13188 -0.31867,0.0396 -0.63874,0.0744 -0.95515,0.1209 -0.43718,0.0647 -0.8698,0.14248 -1.30235,0.2203 -0.22693,0.0406 -0.45524,0.0772 -0.68089,0.12139 -0.51455,0.10136 -1.0242,0.21541 -1.53164,0.33521 -0.13049,0.0306 -0.26213,0.0581 -0.39216,0.0899 -0.5987,0.14741 -1.19284,0.307 -1.78091,0.47958 -0.0227,0.007 -0.0457,0.0126 -0.0684,0.0195 -16.44793,4.85744 -28.608463,19.44566 -30.139237,37.13253 3.216806,0.27003 6.346647,0.84388 9.364177,1.69349 0.66097,-10.96782 6.77799,-20.95017 16.36798,-26.48698 10.1639,-5.8681 22.7039,-5.8681 32.86781,0 9.58968,5.53664 15.7067,15.51855 16.36796,26.48599 3.01757,-0.84941 6.14735,-1.4232 9.36419,-1.69301 -1.5313,-17.69077 -13.69933,-32.28155 -30.15373,-37.13552 l -0.008,-0.003 c -0.61005,-0.17984 -1.22686,-0.34482 -1.84836,-0.49756 -0.10403,-0.0253 -0.20939,-0.0473 -0.31372,-0.0719 -0.53168,-0.12635 -1.06608,-0.2456 -1.60558,-0.35169 -0.20066,-0.0392 -0.40378,-0.0715 -0.60546,-0.1079 -0.45604,-0.0829 -0.91258,-0.16425 -1.37378,-0.2323 -0.30404,-0.0446 -0.61157,-0.0782 -0.91769,-0.11639 -0.37227,-0.0467 -0.74315,-0.0974 -1.1185,-0.13438 -0.41321,-0.0405 -0.83075,-0.0663 -1.24739,-0.0949 -0.28216,-0.0194 -0.56202,-0.0464 -0.84575,-0.0604 -0.58468,-0.0286 -1.17419,-0.0401 -1.76493,-0.045 -0.12238,-9.7e-4 -0.24305,-0.009 -0.36568,-0.009 z m 92.80308,0 c -0.10289,0 -0.20402,0.007 -0.30672,0.008 -0.61101,0.005 -1.22036,0.0162 -1.82488,0.0459 -0.28241,0.014 -0.56092,0.0421 -0.84176,0.0615 -0.41562,0.0285 -0.83218,0.0531 -1.24439,0.0934 -0.36767,0.0362 -0.73081,0.0863 -1.09553,0.13189 -0.31867,0.0395 -0.63873,0.0743 -0.95515,0.12088 -0.43718,0.0647 -0.8698,0.14249 -1.30234,0.22031 -0.22694,0.0406 -0.45524,0.0772 -0.6809,0.12139 -0.51455,0.10136 -1.0242,0.2154 -1.53164,0.33521 -0.13049,0.0305 -0.26213,0.0581 -0.39215,0.0899 -0.59872,0.14741 -1.19284,0.30698 -1.78092,0.47957 -0.0227,0.007 -0.0457,0.0128 -0.0685,0.0195 -16.44797,4.85741 -28.60846,19.44564 -30.13924,37.13251 3.21683,0.27004 6.34659,0.8439 9.36419,1.69351 0.66095,-10.96782 6.77798,-20.95018 16.36796,-26.48699 10.1639,-5.8681 22.70393,-5.8681 32.86781,0 9.58984,5.53672 15.70686,15.51885 16.36797,26.48649 3.01754,-0.84946 6.14735,-1.42365 9.36418,-1.6935 -1.53136,-17.69224 -13.70124,-32.2843 -30.15771,-37.13702 -0.004,-0.002 -0.009,-0.003 -0.013,-0.004 -0.60798,-0.17907 -1.2225,-0.3439 -1.84186,-0.49606 -0.0996,-0.0243 -0.20039,-0.0453 -0.30023,-0.0689 -0.53591,-0.12749 -1.07471,-0.24728 -1.61856,-0.35419 -0.19653,-0.0384 -0.39548,-0.0697 -0.59298,-0.1054 -0.45985,-0.0836 -0.92019,-0.16615 -1.38527,-0.23479 -0.30006,-0.044 -0.60362,-0.0767 -0.90569,-0.1144 -0.37593,-0.0473 -0.75042,-0.0991 -1.1295,-0.13638 -0.40988,-0.0401 -0.82414,-0.0644 -1.2374,-0.0929 -0.28548,-0.0198 -0.56864,-0.0479 -0.85574,-0.062 -0.58168,-0.0285 -1.16823,-0.0396 -1.75594,-0.0445 -0.12521,-9.7e-4 -0.24868,-0.009 -0.37417,-0.009 z m 92.8031,0 c -0.10005,0 -0.19838,0.006 -0.29824,0.007 -0.61388,0.004 -1.22604,0.0166 -1.83338,0.0464 -0.27886,0.0137 -0.55391,0.0409 -0.83125,0.0599 -0.4195,0.0288 -0.83987,0.0541 -1.25589,0.0949 -0.36398,0.0359 -0.72346,0.0854 -1.08453,0.13038 -0.32253,0.0399 -0.64643,0.0753 -0.96665,0.12239 -0.43334,0.0641 -0.86206,0.14177 -1.29085,0.21881 -0.23094,0.0413 -0.46327,0.0784 -0.69288,0.12339 -0.5105,0.10059 -1.01617,0.21348 -1.51966,0.33221 -0.13486,0.0315 -0.27078,0.0605 -0.40514,0.0934 -0.59433,0.14639 -1.18408,0.30489 -1.76793,0.47608 -0.0274,0.008 -0.0551,0.0153 -0.0825,0.023 -16.44596,4.85856 -28.6046,19.44607 -30.13524,37.13152 3.21673,0.27 6.34667,0.84343 9.36418,1.693 0.66111,-10.96763 6.77812,-20.94977 16.36797,-26.48648 10.1639,-5.86812 22.7039,-5.86812 32.86781,0 9.58982,5.53671 15.70685,15.51885 16.36796,26.48648 3.0176,-0.84946 6.14731,-1.42365 9.36419,-1.69349 -1.5315,-17.69312 -13.70251,-32.28549 -30.16022,-37.13753 -3.2e-4,-1e-4 -6.8e-4,-3.9e-4 -9.7e-4,-5e-4 -0.61106,-0.18013 -1.22881,-0.34561 -1.85135,-0.49856 -0.0996,-0.0243 -0.20039,-0.0453 -0.30024,-0.0689 -0.5359,-0.1275 -1.07471,-0.24728 -1.61856,-0.35419 -0.19653,-0.0384 -0.39548,-0.0697 -0.59297,-0.1054 -0.45985,-0.0836 -0.92018,-0.16616 -1.38527,-0.23479 -0.30005,-0.044 -0.60362,-0.0767 -0.9057,-0.1144 -0.37594,-0.0473 -0.75043,-0.0991 -1.1295,-0.13638 -0.40988,-0.0401 -0.82414,-0.0644 -1.2374,-0.0929 -0.28548,-0.0198 -0.56865,-0.0479 -0.85574,-0.062 -0.57935,-0.0284 -1.16313,-0.0396 -1.74845,-0.0445 -0.1277,-9.6e-4 -0.25366,-0.009 -0.38165,-0.009 z M 45.214789,164.60046 c -4.338051,0 -8.676408,1.12359 -12.56734,3.37001 -7.781871,4.49289 -12.56734,12.77993 -12.56734,21.76568 v 0.87272 c 11.293271,5.29669 20.308203,14.66694 25.13418,26.21323 0.43676,-1.04506 0.913272,-2.06917 1.417242,-3.07727 0.0099,-0.0198 0.02054,-0.0392 0.03047,-0.059 0.502457,-1.00176 1.036496,-1.98403 1.602577,-2.94639 0.0041,-0.007 0.0079,-0.0142 0.01199,-0.021 1.150596,-1.95391 2.430579,-3.82116 3.826102,-5.59503 0.0011,-9.6e-4 0.0019,-0.003 0.003,-0.004 4.841899,-6.15337 11.081502,-11.15296 18.2433,-14.51162 v -0.87172 c 0,-8.98576 -4.785481,-17.2728 -12.56734,-21.76568 -3.89092,-2.24642 -8.228785,-3.37001 -12.566841,-3.37001 z m 92.803091,0 c -4.33802,0 -8.67639,1.12359 -12.56734,3.37001 -7.78187,4.49289 -12.56684,12.77993 -12.56684,21.76568 v 0.87322 c 11.29296,5.29672 20.30778,14.66669 25.13368,26.21273 0.43676,-1.04506 0.91327,-2.06917 1.41724,-3.07727 0.01,-0.0198 0.0205,-0.0392 0.0305,-0.059 5.06749,-10.10315 13.43541,-18.27037 23.68696,-23.07801 v -0.87172 c 0,-8.98575 -4.78548,-17.27279 -12.56734,-21.76568 -3.89096,-2.24642 -8.22876,-3.37 -12.56684,-3.37 z m 92.80309,0 c -4.33807,0 -8.67644,1.12359 -12.56734,3.37001 -7.78186,4.49289 -12.56685,12.77993 -12.56685,21.76568 v 0.87322 c 11.29318,5.2968 20.30834,14.66688 25.13419,26.21322 0.43545,-1.04197 0.91047,-2.06304 1.41275,-3.06827 0.0141,-0.0282 0.0287,-0.0562 0.0429,-0.0844 0.50013,-0.99621 1.03151,-1.97316 1.59458,-2.9304 0.004,-0.007 0.008,-0.0142 0.012,-0.021 1.1506,-1.95391 2.43057,-3.82116 3.8261,-5.59503 9.7e-4,-9.7e-4 0.002,-0.003 0.003,-0.004 4.84185,-6.15325 11.08119,-11.15295 18.2428,-14.51161 v -0.87173 c 0,-8.98575 -4.78548,-17.27279 -12.56734,-21.76568 -3.8909,-2.24641 -8.22881,-3.37 -12.56683,-3.37 z m 92.80309,0 c -4.33802,0 -8.67639,1.12359 -12.56734,3.37001 -7.78187,4.49289 -12.56684,12.77993 -12.56684,21.76568 v 0.87272 c 11.29314,5.29662 20.30819,14.66662 25.13418,26.21272 0.43497,-1.04076 0.90961,-2.06067 1.41124,-3.06478 0.0155,-0.0309 0.032,-0.0611 0.0475,-0.0919 0.49851,-0.99276 1.02805,-1.96637 1.58909,-2.92041 0.006,-0.01 0.0102,-0.0189 0.016,-0.0284 1.14917,-1.9512 2.42767,-3.81589 3.82111,-5.58754 0.004,-0.005 0.007,-0.009 0.0105,-0.0134 4.8412,-6.15098 11.07917,-11.1488 18.2388,-14.50662 v -0.87222 c 0,-8.98576 -4.78496,-17.2728 -12.56684,-21.76568 -3.89091,-2.24642 -8.22926,-3.37001 -12.56734,-3.37001 z M 91.614086,193.60671 c -0.718603,0 -1.432366,0.0194 -2.142098,0.0544 -0.229569,0.0113 -0.455845,0.0339 -0.684392,0.0489 -0.468692,0.0307 -0.937883,0.0608 -1.402255,0.10641 -0.352546,0.0347 -0.700747,0.083 -1.050567,0.12638 -0.330251,0.0407 -0.661784,0.0772 -0.989621,0.1254 -0.423441,0.0626 -0.842287,0.13828 -1.26138,0.2133 -0.244466,0.0435 -0.490359,0.0828 -0.733349,0.13039 -0.495683,0.0978 -0.986609,0.20779 -1.475689,0.32271 -0.149529,0.0349 -0.300191,0.067 -0.449102,0.10341 -0.582192,0.14354 -1.159841,0.29923 -1.731961,0.46659 -0.03916,0.0113 -0.07879,0.0215 -0.117896,0.033 -16.441227,4.86149 -28.595611,19.44676 -30.125748,37.12904 3.216714,0.26999 6.346695,0.84342 9.364185,1.69299 0.660959,-10.96783 6.777976,-20.95023 16.367965,-26.48698 10.163897,-5.86816 22.703905,-5.86816 32.867812,0 9.58983,5.53666 15.70686,15.51885 16.36797,26.48648 3.0175,-0.84941 6.14739,-1.42317 9.36418,-1.69299 -1.53081,-17.68761 -13.69453,-32.27616 -30.14423,-37.13303 -0.0204,-0.006 -0.0411,-0.0117 -0.0615,-0.0175 -0.59252,-0.17396 -1.19109,-0.33466 -1.7944,-0.48308 -0.11844,-0.0289 -0.23836,-0.0539 -0.35718,-0.0819 -0.51731,-0.12247 -1.03693,-0.23889 -1.561622,-0.3422 -0.219818,-0.043 -0.442353,-0.0783 -0.663408,-0.11789 -0.436833,-0.0788 -0.873762,-0.15756 -1.315332,-0.22281 -0.319871,-0.0471 -0.643494,-0.082 -0.965637,-0.12189 -0.359937,-0.0448 -0.718252,-0.0942 -1.081045,-0.12988 -0.435708,-0.0427 -0.875814,-0.0704 -1.315331,-0.0999 -0.256282,-0.0173 -0.510241,-0.0427 -0.767819,-0.0555 -0.697655,-0.0344 -1.399889,-0.0524 -2.106129,-0.053 -0.01155,0 -0.02291,-9.6e-4 -0.03447,-9.6e-4 z m 92.803094,0 c -0.71844,0 -1.43257,0.0194 -2.14211,0.0544 -0.22841,0.0113 -0.4535,0.034 -0.68089,0.0489 -0.47012,0.0307 -0.94045,0.0607 -1.40625,0.10641 -0.34903,0.0344 -0.69371,0.0825 -1.04007,0.12538 -0.3341,0.0411 -0.66949,0.0777 -1.00112,0.1264 -0.42124,0.0623 -0.83793,0.13767 -1.25488,0.2123 -0.24626,0.0438 -0.49408,0.0834 -0.73884,0.13139 -0.49354,0.0974 -0.98221,0.20737 -1.4692,0.32171 -0.15225,0.0355 -0.30549,0.0682 -0.4571,0.1054 -0.57807,0.14257 -1.1518,0.29656 -1.71997,0.4626 -0.0437,0.0128 -0.0877,0.0248 -0.13138,0.0374 -16.43926,4.86251 -28.59201,19.44629 -30.12225,37.12704 3.2168,0.26999 6.34661,0.84392 9.36418,1.69349 0.66096,-10.96783 6.77799,-20.95023 16.36797,-26.48698 10.1639,-5.86816 22.7039,-5.86816 32.86781,0 9.58983,5.53667 15.70685,15.51885 16.36797,26.48648 3.01746,-0.84941 6.14744,-1.42317 9.36418,-1.69299 -1.53078,-17.68761 -13.69453,-32.27616 -30.14423,-37.13303 -0.0205,-0.006 -0.0411,-0.0117 -0.0615,-0.0175 -0.59252,-0.17396 -1.19109,-0.33466 -1.79441,-0.48308 -0.11843,-0.0289 -0.23837,-0.0539 -0.35719,-0.0819 -0.5173,-0.12247 -1.03692,-0.23889 -1.56161,-0.3422 -0.21983,-0.043 -0.44235,-0.0783 -0.6634,-0.11789 -0.43685,-0.0788 -0.87378,-0.15755 -1.31534,-0.22281 -0.31988,-0.0471 -0.64346,-0.082 -0.96564,-0.12189 -0.35992,-0.0448 -0.71825,-0.0941 -1.08104,-0.12988 -0.43572,-0.0427 -0.87582,-0.0704 -1.31534,-0.0999 -0.25628,-0.0173 -0.51024,-0.0427 -0.76782,-0.0555 -0.69482,-0.0342 -1.39426,-0.0523 -2.09763,-0.053 -0.0144,0 -0.0285,-9.6e-4 -0.0429,-9.6e-4 z m 92.80358,0 c -0.71843,0 -1.43252,0.0194 -2.14209,0.0544 -0.23192,0.0115 -0.46054,0.0343 -0.69139,0.0495 -0.46645,0.0306 -0.93309,0.0605 -1.39526,0.10592 -0.35254,0.0347 -0.70074,0.083 -1.05056,0.12638 -0.33027,0.0407 -0.66179,0.0771 -0.98962,0.12539 -0.42513,0.0628 -0.84563,0.13891 -1.26638,0.21431 -0.24206,0.0431 -0.48575,0.0817 -0.72636,0.12888 -0.49788,0.0982 -0.99096,0.20874 -1.48218,0.32421 -0.14775,0.0344 -0.29646,0.0663 -0.4436,0.10242 -0.58252,0.14361 -1.16052,0.29914 -1.73297,0.46658 -0.0392,0.0113 -0.0788,0.0215 -0.1179,0.033 -16.44124,4.86149 -28.59557,19.44676 -30.12574,37.12903 3.21678,0.27001 6.34664,0.84339 9.36418,1.693 0.66096,-10.96783 6.77799,-20.95023 16.36797,-26.48698 10.1639,-5.86816 22.70393,-5.86816 32.86781,0 9.58982,5.53666 15.70685,15.51885 16.36797,26.48647 3.01755,-0.84942 6.14733,-1.42319 9.36418,-1.69299 -1.53067,-17.68618 -13.69254,-32.274 -30.14023,-37.13202 -0.025,-0.008 -0.0504,-0.0132 -0.0754,-0.021 -0.58827,-0.17257 -1.18249,-0.3322 -1.78142,-0.47957 -0.12277,-0.0301 -0.24697,-0.0566 -0.37017,-0.0855 -0.51335,-0.1214 -1.02899,-0.23666 -1.54962,-0.33919 -0.22397,-0.0438 -0.45068,-0.0796 -0.6759,-0.11989 -0.43306,-0.078 -0.86614,-0.15604 -1.30384,-0.22081 -0.32354,-0.0475 -0.65075,-0.0836 -0.97663,-0.12389 -0.35629,-0.0443 -0.71096,-0.093 -1.07005,-0.12839 -0.4395,-0.0431 -0.88344,-0.0708 -1.32683,-0.10041 -0.25264,-0.0169 -0.50293,-0.0423 -0.75683,-0.0549 -0.70855,-0.0349 -1.42167,-0.0539 -2.1391,-0.0539 h -5e-4 -4.9e-4 z m 89.90817,0.1084 c -0.44592,0.0292 -0.89199,0.058 -1.33381,0.10142 -0.35254,0.0347 -0.70075,0.083 -1.05058,0.12638 -0.33025,0.0407 -0.66178,0.0771 -0.98962,0.12539 -0.42344,0.0627 -0.84228,0.13829 -1.26138,0.21331 -0.24447,0.0435 -0.49035,0.0828 -0.73335,0.13038 -0.49568,0.0978 -0.98659,0.2078 -1.47568,0.32272 -0.14938,0.0349 -0.29987,0.067 -0.4486,0.10341 -0.58569,0.14439 -1.16645,0.30058 -1.74196,0.46908 -0.0345,0.0101 -0.0694,0.0193 -0.10391,0.0295 -16.44322,4.86029 -28.59995,19.44634 -30.13024,37.13004 3.21675,0.27 6.34665,0.84338 9.36418,1.69299 0.66093,-10.96783 6.77799,-20.95023 16.36797,-26.48698 4.21541,-2.4338 8.84314,-3.79879 13.53698,-4.21376 z m -365.4205071,5e-4 v 9.74385 c 4.6943285,0.41469 9.3225911,1.77919 13.5384781,4.21326 9.589829,5.53666 15.706853,15.51885 16.367965,26.48648 3.017592,-0.84944 6.147299,-1.42318 9.364184,-1.693 -1.530753,-17.68705 -13.693791,-32.27525 -30.142732,-37.13252 -0.02208,-0.007 -0.04435,-0.0122 -0.06644,-0.0189 -0.590571,-0.17334 -1.1871198,-0.33362 -1.7884117,-0.48157 -0.1212759,-0.0296 -0.2439873,-0.0553 -0.3656753,-0.0839 -0.5153241,-0.12193 -1.0329579,-0.2378 -1.5556186,-0.34071 -0.2198413,-0.043 -0.442357,-0.0783 -0.6634108,-0.11789 -0.4368371,-0.0788 -0.8737649,-0.15755 -1.315332,-0.2228 -0.3216281,-0.0473 -0.6471807,-0.0828 -0.9711376,-0.1229 -0.3577632,-0.0445 -0.7139454,-0.0933 -1.0745458,-0.12888 -0.4394996,-0.0431 -0.8834428,-0.0708 -1.3268218,-0.10041 z m 89.9071621,17.28665 c -4.337871,9e-5 -8.67605,1.12315 -12.566841,3.36951 -7.781868,4.49283 -12.566841,12.77995 -12.566841,21.76567 v 0.87373 c 11.292723,5.29658 20.308214,14.66603 25.134182,26.21172 0.436288,-1.0439 0.912381,-2.06623 1.415742,-3.07327 0.0112,-0.0223 0.02274,-0.0445 0.03397,-0.0669 0.50126,-0.99909 1.034527,-1.97899 1.59908,-2.93888 0.0049,-0.009 0.0097,-0.0162 0.01449,-0.0249 1.149588,-1.95206 2.428061,-3.8177 3.822102,-5.59004 0.0029,-0.004 0.0058,-0.008 0.0087,-0.0115 4.841371,-6.15149 11.079631,-11.14964 18.239801,-14.50762 v -0.87222 c 0,-8.98572 -4.78498,-17.27284 -12.56683,-21.76567 -3.89078,-2.24636 -8.22896,-3.36943 -12.56685,-3.36951 z m 92.803095,0 c -4.3379,9e-5 -8.67608,1.12315 -12.56684,3.36951 -7.78189,4.49283 -12.56685,12.77995 -12.56685,21.76567 v 0.87322 c 11.2931,5.29665 20.30816,14.66665 25.13419,26.21273 0.43634,-1.04408 0.91231,-2.0666 1.41574,-3.07377 0.0111,-0.0223 0.0227,-0.0445 0.0339,-0.0669 0.50126,-0.99909 1.03453,-1.97899 1.59908,-2.93888 0.005,-0.009 0.01,-0.0162 0.0145,-0.0249 1.14956,-1.95206 2.42803,-3.8177 3.8221,-5.59004 0.003,-0.004 0.006,-0.008 0.009,-0.0115 4.84142,-6.15149 11.07967,-11.14964 18.23981,-14.50762 v -0.87222 c 0,-8.98572 -4.78499,-17.27284 -12.56684,-21.76567 -3.89081,-2.24636 -8.22898,-3.36943 -12.56684,-3.36951 z m 92.80409,0 c -4.33807,0 -8.67594,1.12306 -12.56684,3.36951 -7.78192,4.49283 -12.56734,12.77995 -12.56734,21.76567 v 0.87373 c 11.29276,5.29664 20.30778,14.66634 25.13367,26.21222 0.4367,-1.04493 0.91335,-2.0683 1.41724,-3.07627 0.01,-0.0199 0.0205,-0.0395 0.0305,-0.0594 0.50472,-1.00629 1.04115,-1.99335 1.61007,-2.95987 7e-5,-1e-4 4.3e-4,-9.1e-4 5e-4,-9.7e-4 5.14312,-8.73696 12.84619,-15.78896 22.07639,-20.11764 v -0.87172 c 0,-8.98572 -4.78498,-17.27284 -12.56683,-21.76567 -3.89096,-2.24645 -8.2293,-3.36951 -12.56734,-3.36951 z M 1.7084229,211.1901 v 46.23543 c 0.053552,-0.0924 0.099237,-0.18971 0.1533638,-0.28174 0.00488,-0.009 0.00961,-0.0162 0.014487,-0.0249 1.1495844,-1.95206 2.4280465,-3.8177 3.822106,-5.59004 0.00301,-0.004 0.00598,-0.008 0.00899,-0.0115 4.8413953,-6.15149 11.0796463,-11.14963 18.2398033,-14.50761 v -0.87223 c 0,-8.98572 -4.784976,-17.27284 -12.566841,-21.76567 -3.0234272,-1.74559 -6.318261,-2.79253 -9.6719112,-3.18167 z m 365.4205071,4.9e-4 c -3.353,0.38929 -6.64694,1.43585 -9.66992,3.18118 -7.78186,4.49283 -12.56734,12.77995 -12.56734,21.76567 v 0.87373 c 9.34925,4.38508 17.09499,11.58977 22.23726,20.48181 z M 45.212791,240.008 c -0.102531,0 -0.20338,0.007 -0.305729,0.008 -0.611505,0.004 -1.221359,0.0162 -1.826377,0.0459 -0.27887,0.0137 -0.553917,0.0408 -0.831262,0.0599 -0.419495,0.0288 -0.839867,0.0541 -1.255886,0.0949 -0.363967,0.0359 -0.723464,0.0855 -1.084536,0.13039 -0.322528,0.0399 -0.646424,0.0753 -0.966642,0.12238 -0.433343,0.0641 -0.862072,0.14177 -1.290854,0.21882 -0.230938,0.0413 -0.463271,0.0784 -0.692884,0.12339 -0.510491,0.10058 -1.016166,0.21345 -1.519651,0.33219 -0.134862,0.0315 -0.270781,0.0605 -0.40514,0.0934 -0.597502,0.14717 -1.190014,0.30634 -1.776922,0.47857 -0.0229,0.007 -0.04604,0.0126 -0.06894,0.0195 -16.447937,4.85742 -28.6084688,19.44565 -30.1392365,37.13253 3.2166684,0.27001 6.3462312,0.84395 9.3636855,1.69349 0.66095,-10.96783 6.778481,-20.9502 16.368464,-26.48698 10.163895,-5.86813 22.703933,-5.86813 32.867814,0 9.589689,5.53662 15.706693,15.51857 16.367965,26.48599 3.017373,-0.84934 6.147029,-1.42269 9.363684,-1.6925 -1.531228,-17.69249 -13.701053,-32.28472 -30.157719,-37.13752 -0.0012,-3.1e-4 -0.0023,-7e-4 -0.0035,-9.7e-4 -0.609241,-0.1796 -1.224703,-0.34449 -1.845361,-0.49705 -0.110184,-0.0269 -0.221682,-0.0505 -0.332205,-0.0765 -0.523797,-0.12425 -1.050719,-0.24109 -1.582095,-0.34569 -0.210277,-0.0411 -0.423058,-0.0754 -0.634437,-0.11341 -0.449668,-0.0814 -0.89961,-0.1622 -1.354297,-0.22929 -0.300042,-0.044 -0.603624,-0.0766 -0.905695,-0.1144 -0.375931,-0.0473 -0.750426,-0.0991 -1.129498,-0.13638 -0.409878,-0.0401 -0.824141,-0.0649 -1.237401,-0.0934 -0.285477,-0.0198 -0.568648,-0.0474 -0.85574,-0.0615 -0.583848,-0.0286 -1.172532,-0.0396 -1.762435,-0.0445 -0.122902,-9.7e-4 -0.244008,-0.009 -0.367174,-0.009 z m 92.803099,5.1e-4 c -0.10541,0 -0.20902,0.007 -0.31423,0.008 -0.60847,0.005 -1.21534,0.0163 -1.81739,0.0459 -0.28239,0.0139 -0.56094,0.042 -0.84175,0.0615 -0.41564,0.0285 -0.83221,0.0531 -1.2444,0.0934 -0.36767,0.0362 -0.7308,0.0863 -1.09552,0.13188 -0.31867,0.0396 -0.63874,0.0744 -0.95515,0.1209 -0.43718,0.0647 -0.8698,0.14248 -1.30235,0.2203 -0.22693,0.0406 -0.45524,0.0772 -0.68089,0.1214 -0.51455,0.10137 -1.0242,0.21541 -1.53164,0.3352 -0.13049,0.0305 -0.26213,0.0581 -0.39216,0.0899 -0.5987,0.14742 -1.19284,0.307 -1.78091,0.47958 -0.0227,0.007 -0.0457,0.0126 -0.0684,0.0195 -16.44793,4.85742 -28.608463,19.44565 -30.139237,37.13253 3.216767,0.27003 6.346677,0.84389 9.364177,1.69349 0.66097,-10.96782 6.77799,-20.95023 16.36798,-26.48697 10.1639,-5.86814 22.7039,-5.86814 32.86781,0 9.58968,5.53658 15.7067,15.51857 16.36796,26.48598 3.01757,-0.84938 6.14734,-1.4232 9.36419,-1.693 -1.5313,-17.69079 -13.69933,-32.28153 -30.15373,-37.13553 l -0.008,-0.003 c -0.60905,-0.17954 -1.2249,-0.34403 -1.84536,-0.49655 -0.11085,-0.0271 -0.22302,-0.0508 -0.33421,-0.077 -0.52263,-0.12396 -1.04791,-0.2408 -1.5781,-0.34519 -0.21421,-0.042 -0.43103,-0.0768 -0.64642,-0.1154 -0.44589,-0.0806 -0.89199,-0.16079 -1.34281,-0.2273 -0.30404,-0.0446 -0.61157,-0.0782 -0.91769,-0.1164 -0.37227,-0.0467 -0.74315,-0.0974 -1.1185,-0.13438 -0.41321,-0.0405 -0.83075,-0.0663 -1.24739,-0.0949 -0.28216,-0.0195 -0.56202,-0.0464 -0.84575,-0.0604 -0.58236,-0.0285 -1.16956,-0.0396 -1.75794,-0.0445 -0.12471,-9.6e-4 -0.24769,-0.009 -0.37267,-0.009 z m 92.80308,0 c -0.10289,0 -0.20402,0.007 -0.30672,0.008 -0.61101,0.004 -1.22036,0.0162 -1.82488,0.0459 -0.28241,0.0139 -0.56092,0.042 -0.84176,0.0615 -0.41562,0.0285 -0.83218,0.0531 -1.24439,0.0934 -0.36767,0.0362 -0.73081,0.0863 -1.09553,0.13188 -0.31867,0.0396 -0.63873,0.0744 -0.95515,0.1209 -0.43718,0.0647 -0.8698,0.14248 -1.30234,0.2203 -0.22694,0.0406 -0.45524,0.0772 -0.6809,0.1214 -0.51455,0.10137 -1.0242,0.21541 -1.53164,0.3352 -0.13049,0.0305 -0.26213,0.0581 -0.39215,0.0899 -0.59872,0.14742 -1.19284,0.307 -1.78092,0.47958 -0.0227,0.007 -0.0457,0.0126 -0.0685,0.0195 -16.44797,4.85742 -28.60846,19.44565 -30.13924,37.13253 3.2168,0.27003 6.34663,0.84389 9.36419,1.69349 0.66095,-10.96782 6.77798,-20.95023 16.36796,-26.48697 10.1639,-5.86814 22.70393,-5.86814 32.86781,0 9.58984,5.53666 15.70686,15.51885 16.36797,26.48647 3.01754,-0.84945 6.14736,-1.42316 9.36418,-1.69299 -1.53117,-17.69249 -13.70108,-32.2847 -30.15771,-37.13753 -0.004,-0.002 -0.009,-0.003 -0.013,-0.004 -0.60698,-0.17878 -1.22054,-0.34312 -1.83886,-0.49507 -0.10638,-0.026 -0.21401,-0.0488 -0.32072,-0.0739 -0.52669,-0.12507 -1.0562,-0.24251 -1.59059,-0.3477 -0.21026,-0.0411 -0.42304,-0.0754 -0.63443,-0.11339 -0.44967,-0.0814 -0.89964,-0.16221 -1.3543,-0.2293 -0.30006,-0.044 -0.60362,-0.0766 -0.90569,-0.1144 -0.37593,-0.0473 -0.75042,-0.0991 -1.1295,-0.13637 -0.40988,-0.0401 -0.82414,-0.0649 -1.2374,-0.0934 -0.28548,-0.0198 -0.56864,-0.0474 -0.85574,-0.0615 -0.58168,-0.0285 -1.16823,-0.0396 -1.75594,-0.0445 -0.12521,-9.6e-4 -0.24868,-0.009 -0.37417,-0.009 z m 92.8031,0 c -0.10005,0 -0.19838,0.006 -0.29824,0.007 -0.61388,0.004 -1.22604,0.0166 -1.83338,0.0465 -0.27886,0.0137 -0.55391,0.0408 -0.83125,0.0599 -0.4195,0.0288 -0.83987,0.0541 -1.25589,0.0949 -0.36398,0.0359 -0.72346,0.0854 -1.08453,0.13038 -0.32253,0.0399 -0.64643,0.0753 -0.96665,0.12239 -0.43334,0.0641 -0.86206,0.14176 -1.29085,0.2188 -0.23094,0.0413 -0.46327,0.0784 -0.69288,0.12339 -0.5105,0.10059 -1.01617,0.21347 -1.51966,0.33221 -0.13486,0.0315 -0.27078,0.0605 -0.40514,0.0934 -0.59433,0.14639 -1.18408,0.30488 -1.76793,0.47607 -0.0274,0.008 -0.0551,0.0153 -0.0825,0.023 -16.44596,4.8586 -28.6046,19.44606 -30.13524,37.13153 3.21674,0.27 6.34666,0.84392 9.36418,1.6935 0.66096,-10.96783 6.77798,-20.95022 16.36797,-26.48698 10.1639,-5.86813 22.7039,-5.86813 32.86781,0 9.58982,5.53667 15.70685,15.51885 16.36796,26.48648 3.0176,-0.84946 6.1473,-1.42366 9.36419,-1.6935 -1.5315,-17.69314 -13.70251,-32.28548 -30.16022,-37.13751 -3.2e-4,-1e-4 -6.8e-4,-4.1e-4 -9.7e-4,-5.1e-4 -0.61005,-0.17983 -1.22686,-0.34483 -1.84836,-0.49756 -0.10638,-0.026 -0.21401,-0.0488 -0.32071,-0.0739 -0.52671,-0.12507 -1.05622,-0.24251 -1.59059,-0.34769 -0.21028,-0.0411 -0.42306,-0.0754 -0.63444,-0.1134 -0.44967,-0.0814 -0.89961,-0.16221 -1.35429,-0.2293 -0.30005,-0.044 -0.60362,-0.0766 -0.9057,-0.1144 -0.37594,-0.0473 -0.75043,-0.0991 -1.1295,-0.13637 -0.40988,-0.0401 -0.82414,-0.0649 -1.2374,-0.0934 -0.28548,-0.0198 -0.56865,-0.0474 -0.85574,-0.0615 -0.57935,-0.0284 -1.16313,-0.0396 -1.74845,-0.0445 -0.1277,-9.7e-4 -0.25366,-0.009 -0.38165,-0.009 z M 45.214789,257.40356 c -4.338051,0 -8.676408,1.12356 -12.56734,3.37001 -7.781871,4.49282 -12.56734,12.77994 -12.56734,21.76567 v 0.87272 c 11.293165,5.29659 20.308158,14.66709 25.13418,26.21322 0.436125,-1.04355 0.912102,-2.06558 1.415243,-3.07227 0.01214,-0.0243 0.02479,-0.0481 0.03697,-0.0724 0.500665,-0.99769 1.032798,-1.9763 1.596582,-2.93489 0.0049,-0.008 0.0096,-0.0162 0.01449,-0.0249 1.149587,-1.95206 2.428069,-3.81769 3.822106,-5.59003 0.003,-0.004 0.006,-0.008 0.009,-0.0115 4.841512,-6.15165 11.079907,-11.15011 18.240303,-14.50811 v -0.87173 c 0,-8.98572 -4.785482,-17.27284 -12.567341,-21.76567 -3.890919,-2.24644 -8.228784,-3.37 -12.56684,-3.37 z m 92.803091,0 c -4.33802,0 -8.67639,1.12356 -12.56734,3.37001 -7.78187,4.49282 -12.56684,12.77994 -12.56684,21.76567 v 0.87322 c 11.29285,5.2967 20.30773,14.66682 25.13368,26.21272 0.43613,-1.04355 0.9121,-2.06558 1.41524,-3.07227 0.012,-0.0242 0.0249,-0.0478 0.0369,-0.0719 0.50348,-1.00329 1.03828,-1.98763 1.60558,-2.95139 7e-5,-8e-5 4.2e-4,-9.1e-4 5e-4,-9.6e-4 5.14308,-8.73697 12.84618,-15.78897 22.0764,-20.11764 v -0.87173 c 0,-8.98572 -4.78549,-17.27284 -12.56734,-21.76567 -3.89097,-2.24644 -8.22877,-3.37 -12.56685,-3.37 z m 92.80259,0 c -4.33789,9e-5 -8.67608,1.12364 -12.56684,3.37001 -7.78186,4.49282 -12.56685,12.77994 -12.56685,21.76567 v 0.87322 c 11.29307,5.29678 20.30829,14.66701 25.13419,26.21322 0.43484,-1.04052 0.90877,-2.0599 1.41024,-3.06378 0.0163,-0.0326 0.0336,-0.0645 0.05,-0.0969 0.4984,-0.9923 1.02774,-1.96581 1.58859,-2.91941 0.005,-0.008 0.01,-0.0162 0.0145,-0.0249 1.14959,-1.95206 2.42803,-3.81769 3.8221,-5.59003 0.003,-0.004 0.006,-0.008 0.009,-0.0115 4.84141,-6.15149 11.07966,-11.14963 18.2398,-14.50761 v -0.87223 c 0,-8.98572 -4.78547,-17.27284 -12.56734,-21.76567 -3.89076,-2.24636 -8.22848,-3.36991 -12.56634,-3.37 z m 92.80359,0 c -4.33802,0 -8.67639,1.12356 -12.56734,3.37001 -7.78187,4.49282 -12.56684,12.77994 -12.56684,21.76567 v 0.87272 c 11.29317,5.29659 20.30819,14.66709 25.13418,26.21322 0.43438,-1.03938 0.9084,-2.05745 1.40924,-3.06028 0.0176,-0.0352 0.0363,-0.0697 0.0539,-0.10491 0.49679,-0.98884 1.02426,-1.95903 1.58308,-2.90941 0.007,-0.0107 0.0117,-0.0217 0.0185,-0.0325 1.14816,-1.94937 2.42513,-3.81241 3.81711,-5.58254 0.006,-0.007 0.0102,-0.0137 0.016,-0.0205 4.84086,-6.14954 11.07786,-11.14638 18.23632,-14.50362 v -0.87222 c 0,-8.98573 -4.78497,-17.27285 -12.56685,-21.76567 -3.8909,-2.24645 -8.22926,-3.37001 -12.56734,-3.37001 z M 91.614086,286.4098 c -0.715249,0 -1.425673,0.0192 -2.132106,0.0539 -0.260777,0.0129 -0.517868,0.0385 -0.777311,0.056 -0.440735,0.0296 -0.88242,0.0569 -1.319328,0.0999 -0.352546,0.0347 -0.700747,0.083 -1.050567,0.12639 -0.330087,0.0407 -0.661449,0.0772 -0.989122,0.12539 -0.437177,0.0647 -0.869803,0.14248 -1.302343,0.2203 -0.226931,0.0406 -0.455241,0.0772 -0.680895,0.1214 -0.514546,0.10137 -1.0242,0.21541 -1.531641,0.3352 -0.130678,0.0307 -0.262448,0.0586 -0.39265,0.0904 -0.586942,0.14452 -1.169246,0.30085 -1.74595,0.46958 -0.03866,0.0112 -0.07779,0.0212 -0.116397,0.0325 -16.440918,4.86135 -28.595234,19.44673 -30.125748,37.12853 3.216724,0.27002 6.346676,0.84395 9.364185,1.69349 0.660969,-10.96778 6.777995,-20.94973 16.367965,-26.48647 10.163897,-5.86814 22.703905,-5.86814 32.867812,0 9.58982,5.53666 15.70684,15.51837 16.36797,26.48598 3.0175,-0.84942 6.14739,-1.42317 9.36418,-1.693 -1.53099,-17.68735 -13.69468,-32.27625 -30.14423,-37.13302 -0.0204,-0.006 -0.0411,-0.0117 -0.0615,-0.0175 -0.59252,-0.17397 -1.19109,-0.33466 -1.7944,-0.48307 -0.11844,-0.029 -0.23836,-0.054 -0.35718,-0.082 -0.51731,-0.12249 -1.03693,-0.23889 -1.561622,-0.3422 -0.214675,-0.0421 -0.432067,-0.0762 -0.647922,-0.1149 -0.44559,-0.0805 -0.891288,-0.16079 -1.341809,-0.2273 -0.300364,-0.0441 -0.604304,-0.0766 -0.906697,-0.1144 -0.37593,-0.0473 -0.750421,-0.0991 -1.129493,-0.13637 -0.409879,-0.0401 -0.824147,-0.0649 -1.237401,-0.0934 -0.285486,-0.0198 -0.56865,-0.0474 -0.85574,-0.0615 -0.704993,-0.0345 -1.41436,-0.0539 -2.12811,-0.0539 h -9.67e-4 z m 92.803094,0 c -0.71508,0 -1.42581,0.0192 -2.13211,0.0539 -0.25977,0.0129 -0.51589,0.0385 -0.77431,0.056 -0.44201,0.0297 -0.88466,0.0568 -1.32283,0.0999 -0.34903,0.0344 -0.69371,0.0826 -1.04007,0.12539 -0.33393,0.0411 -0.66915,0.0776 -1.00062,0.12639 -0.43502,0.0644 -0.86541,0.14237 -1.29585,0.21981 -0.22851,0.0409 -0.45865,0.0774 -0.68588,0.12189 -0.51253,0.10096 -1.02018,0.21445 -1.52565,0.3337 -0.13355,0.0313 -0.26809,0.0598 -0.40114,0.0924 -0.58272,0.14353 -1.16084,0.2987 -1.73347,0.46608 -0.0432,0.0125 -0.0867,0.0243 -0.12988,0.0369 -16.43911,4.86242 -28.59182,19.44654 -30.12225,37.12703 3.2168,0.27 6.34661,0.84395 9.36418,1.69349 0.66098,-10.96777 6.778,-20.94973 16.36797,-26.48647 10.1639,-5.86813 22.7039,-5.86813 32.86781,0 9.58981,5.53666 15.70684,15.51837 16.36797,26.48598 3.01746,-0.84942 6.14744,-1.42317 9.36418,-1.693 -1.53098,-17.68734 -13.69469,-32.27625 -30.14423,-37.13302 -0.0205,-0.006 -0.0411,-0.0117 -0.0615,-0.0175 -0.59252,-0.17397 -1.19109,-0.33466 -1.79441,-0.48307 -0.11843,-0.029 -0.23837,-0.054 -0.35719,-0.082 -0.5173,-0.12249 -1.03692,-0.23889 -1.56161,-0.3422 -0.21469,-0.0421 -0.43207,-0.0762 -0.64792,-0.1149 -0.44559,-0.0805 -0.8913,-0.16079 -1.34181,-0.2273 -0.30037,-0.0441 -0.60429,-0.0766 -0.90669,-0.1144 -0.37594,-0.0473 -0.75044,-0.0991 -1.1295,-0.13637 -0.40989,-0.0401 -0.82414,-0.0649 -1.2374,-0.0934 -0.28548,-0.0198 -0.56866,-0.0474 -0.85575,-0.0615 -0.69208,-0.0339 -1.38864,-0.0523 -2.08914,-0.053 -0.0137,0 -0.0273,-9.7e-4 -0.041,-9.7e-4 z m 92.80358,0 c -0.71491,0 -1.42546,0.0192 -2.1316,0.0539 -0.26329,0.013 -0.52287,0.0388 -0.78481,0.0565 -0.43848,0.0296 -0.87763,0.0566 -1.31233,0.0994 -0.35254,0.0347 -0.70074,0.083 -1.05056,0.12639 -0.3301,0.0407 -0.66145,0.0772 -0.98913,0.12539 -0.43903,0.065 -0.87348,0.1431 -1.30784,0.22131 -0.22436,0.0401 -0.45028,0.0762 -0.67339,0.11989 -0.51675,0.10176 -1.02856,0.21633 -1.53814,0.3367 -0.12903,0.0303 -0.2591,0.0575 -0.38766,0.0889 -0.58714,0.14457 -1.16952,0.30131 -1.74645,0.47009 -0.0387,0.0112 -0.0778,0.0212 -0.1164,0.0325 -16.44109,4.86139 -28.59539,19.447 -30.12574,37.12903 3.21683,0.27003 6.3466,0.84387 9.36418,1.6935 0.66082,-10.96801 6.77786,-20.95016 16.36797,-26.48698 10.1639,-5.86814 22.70393,-5.86814 32.86781,0 9.58981,5.53666 15.70684,15.51836 16.36797,26.48598 3.01755,-0.84942 6.14733,-1.4232 9.36418,-1.693 -1.53085,-17.68594 -13.6927,-32.27405 -30.14023,-37.13203 -0.025,-0.008 -0.0504,-0.0132 -0.0754,-0.021 -0.58827,-0.17256 -1.18249,-0.3322 -1.78142,-0.47958 -0.12277,-0.0301 -0.24697,-0.0566 -0.37017,-0.0855 -0.51335,-0.12141 -1.02899,-0.23667 -1.54962,-0.33921 -0.21869,-0.0427 -0.44003,-0.0779 -0.65992,-0.11739 -0.44194,-0.0798 -0.88403,-0.15887 -1.33082,-0.2248 -0.30419,-0.0447 -0.6119,-0.0782 -0.91818,-0.1164 -0.37227,-0.0467 -0.74315,-0.0974 -1.11851,-0.13438 -0.41319,-0.0405 -0.83074,-0.0663 -1.24739,-0.0949 -0.28215,-0.0195 -0.56201,-0.0464 -0.84575,-0.0604 -0.70515,-0.0346 -1.4147,-0.0539 -2.12861,-0.0539 h -5e-4 -4.9e-4 z m 89.90817,0.1084 c -0.007,9.7e-4 -0.0147,0.002 -0.0215,0.002 -0.4385,0.0296 -0.87764,0.0566 -1.31234,0.0994 -0.35253,0.0347 -0.70074,0.083 -1.05057,0.12639 -0.33009,0.0407 -0.66144,0.0772 -0.98912,0.12539 -0.43718,0.0647 -0.86979,0.14248 -1.30234,0.2203 -0.22693,0.0406 -0.45524,0.0772 -0.6809,0.1214 -0.51455,0.10137 -1.02419,0.21541 -1.53164,0.3352 -0.13066,0.0306 -0.26243,0.0586 -0.39265,0.0904 -0.59027,0.14534 -1.1755,0.30226 -1.75544,0.47208 -0.034,0.01 -0.0683,0.019 -0.10241,0.029 -16.44291,4.86019 -28.59958,19.4463 -30.13024,37.12952 3.21676,0.27003 6.34664,0.84392 9.36418,1.6935 0.66094,-10.96778 6.778,-20.94974 16.36797,-26.48648 4.21541,-2.43379 8.84314,-3.79878 13.53698,-4.21376 v -9.74385 z m -365.4205071,5e-4 v 9.74485 c 4.6943285,0.41469 9.3225911,1.77921 13.5384781,4.21326 9.589814,5.53666 15.706838,15.51839 16.367965,26.48597 3.017592,-0.84942 6.147299,-1.42317 9.364184,-1.69299 -1.530937,-17.6868 -13.693944,-32.27524 -30.142732,-37.13253 -0.02208,-0.007 -0.04435,-0.0122 -0.06644,-0.0189 -0.590571,-0.17331 -1.1871198,-0.33362 -1.7884117,-0.48158 -0.1212759,-0.0296 -0.2439873,-0.0553 -0.3656753,-0.0839 -0.5153241,-0.12193 -1.0329579,-0.23779 -1.5556186,-0.34071 -0.2146956,-0.0421 -0.4320745,-0.0762 -0.6479246,-0.11489 -0.4455644,-0.0805 -0.8913252,-0.16029 -1.3418085,-0.2268 -0.3021517,-0.0444 -0.6079817,-0.0779 -0.9121899,-0.1159 -0.3739206,-0.0469 -0.7464767,-0.0978 -1.1235024,-0.13488 -0.413207,-0.0405 -0.8307532,-0.0663 -1.2473923,-0.0949 -0.026328,-0.002 -0.052637,-0.004 -0.07893,-0.006 z m 89.9071621,17.28665 c -4.337871,9e-5 -8.67605,1.12317 -12.566841,3.36951 -7.781868,4.49288 -12.566841,12.78045 -12.566841,21.76617 v 0.87323 c 11.292723,5.2966 20.308214,14.66601 25.134182,26.21172 0.436288,-1.04393 0.912381,-2.06625 1.415742,-3.07327 0.0112,-0.0223 0.02274,-0.0446 0.03397,-0.067 0.50126,-0.99909 1.034527,-1.979 1.59908,-2.93889 0.0049,-0.009 0.0097,-0.0162 0.01449,-0.0249 1.149588,-1.95203 2.428061,-3.81768 3.822102,-5.59004 0.0029,-0.004 0.0058,-0.008 0.0087,-0.0115 4.841371,-6.15154 11.079631,-11.14965 18.239801,-14.50762 v -0.87173 c 0,-8.98572 -4.78498,-17.27329 -12.56683,-21.76617 -3.89078,-2.24634 -8.22896,-3.36942 -12.56685,-3.3695 z m 92.803095,0 c -4.3379,9e-5 -8.67608,1.12317 -12.56684,3.36951 -7.78189,4.49288 -12.56685,12.78045 -12.56685,21.76617 v 0.87273 c 11.2931,5.2966 20.30816,14.66666 25.13419,26.21272 0.43634,-1.04406 0.91231,-2.06661 1.41574,-3.07377 0.0111,-0.0223 0.0227,-0.0446 0.0339,-0.067 0.50126,-0.99909 1.03453,-1.979 1.59908,-2.93889 0.005,-0.009 0.01,-0.0162 0.0145,-0.0249 1.14956,-1.95203 2.42803,-3.81768 3.8221,-5.59004 0.003,-0.004 0.006,-0.008 0.009,-0.0115 4.84142,-6.15154 11.07967,-11.14965 18.23981,-14.50762 v -0.87173 c 0,-8.98572 -4.78499,-17.27329 -12.56684,-21.76617 -3.89081,-2.24634 -8.22898,-3.36942 -12.56684,-3.3695 z m 92.80409,0 c -4.33807,0 -8.67594,1.12309 -12.56684,3.36951 -7.78192,4.49288 -12.56734,12.78045 -12.56734,21.76617 v 0.87323 c 11.29276,5.29668 20.30778,14.66637 25.13367,26.21222 0.43676,-1.04505 0.91328,-2.06868 1.41724,-3.07677 0.01,-0.0198 0.0205,-0.0392 0.0305,-0.059 0.50472,-1.00628 1.04115,-1.99339 1.61007,-2.95987 7e-5,-9e-5 4.3e-4,-9.2e-4 5e-4,-9.7e-4 5.14312,-8.73696 12.84619,-15.78902 22.07639,-20.11763 v -0.87123 c 0,-8.98572 -4.78498,-17.27329 -12.56683,-21.76617 -3.89096,-2.24642 -8.2293,-3.36951 -12.56734,-3.36951 z M 1.7084229,303.99318 v 46.23545 c 0.053552,-0.0924 0.099237,-0.18973 0.1533638,-0.28176 0.00488,-0.009 0.00961,-0.0162 0.014487,-0.0249 1.1495844,-1.95204 2.4280465,-3.81768 3.822106,-5.59004 0.00301,-0.004 0.00598,-0.008 0.00899,-0.0115 4.8413973,-6.15155 11.0796483,-11.14966 18.2398053,-14.50763 v -0.87173 c 0,-8.98572 -4.784976,-17.27329 -12.566841,-21.76617 -3.0234273,-1.74558 -6.3182611,-2.79253 -9.6719113,-3.18168 z m 365.4205071,5.1e-4 c -3.353,0.38929 -6.64694,1.43585 -9.66992,3.18117 -7.78186,4.49288 -12.56734,12.78045 -12.56734,21.76617 v 0.87323 c 9.34941,4.38515 17.09504,11.59004 22.23726,20.48231 z m -136.30996,28.8174 v 5e-4 c -0.71491,0 -1.42547,0.0188 -2.1316,0.0535 -0.28241,0.014 -0.56092,0.0415 -0.84176,0.0609 -0.41562,0.0285 -0.83218,0.0535 -1.24439,0.0939 -0.35627,0.0351 -0.70806,0.0841 -1.06156,0.12789 -0.33357,0.0411 -0.66851,0.0777 -0.99961,0.12639 -0.4142,0.0613 -0.82386,0.13604 -1.23391,0.20931 -0.25033,0.0445 -0.50205,0.0846 -0.75083,0.13339 -0.49569,0.0978 -0.9866,0.2078 -1.47569,0.32271 -0.14953,0.0349 -0.30018,0.067 -0.4491,0.10341 -0.5822,0.14355 -1.15982,0.29922 -1.73196,0.46658 -0.0393,0.0114 -0.0788,0.0215 -0.1179,0.033 -16.44107,4.86138 -28.59539,19.44651 -30.12575,37.12853 3.21679,0.27002 6.34662,0.84391 9.36419,1.6935 0.66095,-10.96782 6.77798,-20.95018 16.36796,-26.48699 10.1639,-5.8681 22.70393,-5.8681 32.86781,0 9.58984,5.53672 15.70686,15.51885 16.36797,26.48649 3.01754,-0.84946 6.14735,-1.42317 9.36418,-1.693 -1.53104,-17.69084 -13.6989,-32.2819 -30.15322,-37.13602 -0.01,-0.003 -0.0197,-0.006 -0.0295,-0.009 -0.59996,-0.17651 -1.20637,-0.33877 -1.81739,-0.48907 -0.11843,-0.0289 -0.23836,-0.054 -0.35718,-0.0819 -0.5173,-0.12248 -1.03692,-0.23839 -1.56161,-0.34169 -0.21984,-0.043 -0.44236,-0.0788 -0.66341,-0.11841 -0.43733,-0.0789 -0.87477,-0.15744 -1.31683,-0.22279 -0.31575,-0.0464 -0.63516,-0.081 -0.95316,-0.12039 -0.36373,-0.0453 -0.72587,-0.0962 -1.09252,-0.13238 -0.40989,-0.0401 -0.82415,-0.0644 -1.23741,-0.0929 -0.28531,-0.0198 -0.56831,-0.0479 -0.85524,-0.062 -0.69241,-0.0339 -1.38928,-0.0518 -2.09014,-0.0525 -0.0136,0 -0.027,-9.7e-4 -0.0405,-9.7e-4 z m -185.606179,5e-4 v 5.1e-4 c -0.715252,0 -1.426147,0.0188 -2.132606,0.0534 -0.278705,0.0137 -0.553583,0.0409 -0.830762,0.0599 -0.419495,0.0288 -0.839867,0.0541 -1.255886,0.0949 -0.35257,0.0347 -0.700711,0.083 -1.050566,0.12639 -0.337451,0.0415 -0.67618,0.0791 -1.011103,0.12838 -0.410148,0.0608 -0.815845,0.13441 -1.221915,0.20682 -0.254691,0.0451 -0.510735,0.0862 -0.763821,0.13588 -0.491335,0.097 -0.977852,0.20642 -1.462701,0.32021 -0.153871,0.0359 -0.308875,0.0689 -0.46209,0.10641 -0.581143,0.14333 -1.157344,0.29853 -1.728465,0.46559 -0.03931,0.0114 -0.07912,0.0215 -0.118395,0.033 -16.441234,4.86143 -28.5955848,19.44678 -30.1257484,37.12903 3.2166597,0.27001 6.346239,0.84345 9.3636854,1.69299 0.66095,-10.96782 6.778481,-20.95017 16.368465,-26.48698 10.163894,-5.8681 22.703932,-5.8681 32.867813,0 9.589689,5.53663 15.706693,15.51855 16.367965,26.48598 3.017373,-0.84936 6.147029,-1.42267 9.363685,-1.69249 -1.531084,-17.69084 -13.698868,-32.28188 -30.153224,-37.13603 -0.0027,-9.7e-4 -0.0053,-0.002 -0.008,-0.003 -0.605916,-0.17862 -1.218151,-0.34218 -1.83537,-0.49406 -0.122259,-0.03 -0.245989,-0.0561 -0.368673,-0.085 -0.514514,-0.12169 -1.031795,-0.23694 -1.55362,-0.33969 -0.219867,-0.043 -0.442327,-0.0788 -0.663411,-0.1184 -0.437323,-0.0789 -0.874768,-0.15745 -1.316831,-0.2228 -0.315751,-0.0464 -0.635147,-0.0815 -0.953153,-0.12089 -0.363721,-0.0453 -0.725871,-0.0957 -1.092531,-0.13188 -0.409878,-0.0401 -0.82414,-0.0649 -1.2374,-0.0934 -0.285312,-0.0198 -0.568322,-0.0474 -0.855241,-0.0615 -0.692247,-0.0339 -1.388951,-0.0518 -2.089644,-0.0525 -0.01357,0 -0.02689,-9.7e-4 -0.04047,-9.7e-4 z m 92.803099,0 c -0.71493,0 -1.42548,0.0188 -2.13162,0.0535 -0.28239,0.014 -0.56094,0.0415 -0.84175,0.0609 -0.41564,0.0285 -0.83221,0.0535 -1.2444,0.0939 -0.35628,0.0351 -0.70805,0.0841 -1.06155,0.12789 -0.33357,0.0411 -0.66851,0.0777 -0.99962,0.12639 -0.41418,0.0613 -0.82385,0.13604 -1.23389,0.20931 -0.25034,0.0445 -0.50206,0.0846 -0.75084,0.13339 -0.49569,0.0978 -0.9866,0.2078 -1.47569,0.32271 -0.14953,0.0349 -0.30019,0.067 -0.4491,0.10341 -0.58219,0.14355 -1.15985,0.29922 -1.73196,0.46658 -0.0393,0.0114 -0.0788,0.0215 -0.1179,0.033 -16.44122,4.86143 -28.595573,19.44678 -30.125747,37.12903 3.216758,0.27003 6.346687,0.84341 9.364177,1.693 0.66097,-10.96782 6.77799,-20.95018 16.36798,-26.48699 10.1639,-5.8681 22.7039,-5.8681 32.86781,0 9.58968,5.53664 15.7067,15.51855 16.36796,26.48599 3.01757,-0.84941 6.14735,-1.4227 9.36419,-1.6925 -1.53097,-17.68937 -13.69699,-32.27918 -30.14923,-37.13452 -0.0145,-0.004 -0.029,-0.009 -0.0435,-0.0125 -0.59572,-0.17512 -1.19776,-0.3363 -1.8044,-0.48558 -0.12278,-0.0301 -0.24699,-0.0565 -0.37018,-0.0854 -0.51332,-0.12141 -1.02899,-0.23667 -1.54962,-0.33921 -0.22396,-0.0438 -0.45067,-0.0796 -0.67589,-0.11989 -0.43341,-0.078 -0.86679,-0.15654 -1.30485,-0.22131 -0.31953,-0.047 -0.6428,-0.0821 -0.96464,-0.12189 -0.36025,-0.0448 -0.7189,-0.0946 -1.08204,-0.13038 -0.4132,-0.0405 -0.83075,-0.0663 -1.24739,-0.0949 -0.28199,-0.0194 -0.56168,-0.0464 -0.84525,-0.0604 -0.70532,-0.0346 -1.41503,-0.0535 -2.12911,-0.0535 h -5e-4 -5e-4 z m 185.60618,0 c -0.71493,10e-6 -1.42549,0.0188 -2.13162,0.0535 -0.27871,0.0137 -0.55358,0.0409 -0.83076,0.0599 -0.4195,0.0288 -0.83986,0.0541 -1.25588,0.0949 -0.35258,0.0347 -0.70071,0.083 -1.05057,0.12638 -0.33746,0.0415 -0.67618,0.0791 -1.0111,0.12839 -0.41015,0.0608 -0.81584,0.13441 -1.22191,0.20682 -0.2547,0.0451 -0.51075,0.0862 -0.76383,0.13588 -0.49135,0.097 -0.97784,0.20643 -1.4627,0.32022 -0.15402,0.036 -0.30922,0.0688 -0.46259,0.1064 -0.57778,0.1425 -1.1511,0.29663 -1.71897,0.46259 -0.0437,0.0128 -0.0878,0.0247 -0.13138,0.0375 -16.43922,4.86247 -28.59202,19.44632 -30.12226,37.12703 3.21678,0.27 6.34664,0.84393 9.36419,1.69351 0.66096,-10.96782 6.77797,-20.95019 16.36796,-26.48699 10.1639,-5.86811 22.70391,-5.86811 32.86782,0 9.58983,5.53672 15.70686,15.51885 16.36796,26.48648 3.0176,-0.84946 6.14731,-1.42316 9.36419,-1.693 -1.53117,-17.69171 -13.70017,-32.28308 -30.15572,-37.13652 -0.002,0 -0.004,-0.002 -0.006,-0.002 -0.60693,-0.17892 -1.22061,-0.34297 -1.83887,-0.49506 -0.11844,-0.0289 -0.23836,-0.0539 -0.35719,-0.0819 -0.5173,-0.12247 -1.03694,-0.23889 -1.56161,-0.34219 -0.21984,-0.043 -0.44236,-0.0783 -0.66341,-0.1179 -0.43732,-0.0789 -0.87477,-0.15746 -1.31683,-0.22281 -0.31576,-0.0464 -0.63516,-0.0815 -0.95316,-0.12088 -0.36371,-0.0453 -0.72586,-0.0957 -1.09253,-0.13189 -0.40988,-0.0401 -0.82414,-0.0649 -1.23739,-0.0934 -0.28531,-0.0198 -0.56833,-0.0474 -0.85524,-0.0615 -0.70515,-0.0346 -1.41421,-0.0535 -2.12812,-0.0535 h -9.6e-4 z M 45.214789,350.20665 c -4.338051,0 -8.676408,1.12358 -12.56734,3.37 -7.781871,4.49289 -12.56734,12.77993 -12.56734,21.76568 v 0.87322 c 11.293131,5.29659 20.308159,14.66665 25.13418,26.21273 0.436119,-1.04352 0.912109,-2.06559 1.415243,-3.07227 0.01214,-0.0243 0.02479,-0.0482 0.03697,-0.0724 0.500665,-0.99768 1.032798,-1.97632 1.596582,-2.93489 0.0049,-0.009 0.0096,-0.0162 0.01449,-0.0249 1.149587,-1.95203 2.428069,-3.81769 3.822106,-5.59005 0.003,-0.004 0.006,-0.008 0.009,-0.0115 4.841512,-6.15172 11.079907,-11.15014 18.240303,-14.50812 v -0.87172 c 0,-8.98575 -4.785482,-17.27279 -12.567341,-21.76568 -3.890919,-2.24642 -8.228784,-3.37001 -12.56684,-3.37001 z m 92.803091,0 c -4.33802,0 -8.67639,1.12358 -12.56734,3.37 -7.78187,4.49289 -12.56684,12.77993 -12.56684,21.76568 v 0.87372 c 11.29268,5.29662 20.30769,14.66605 25.13368,26.21172 0.43607,-1.04338 0.91217,-2.06522 1.41524,-3.07176 0.012,-0.0242 0.0249,-0.0478 0.0369,-0.0719 0.50348,-1.00331 1.03828,-1.98761 1.60558,-2.95137 7e-5,-9e-5 4.2e-4,-9e-4 5e-4,-9.7e-4 5.14308,-8.73699 12.84618,-15.78901 22.0764,-20.11764 v -0.87172 c 0,-8.98575 -4.78549,-17.27279 -12.56734,-21.76568 -3.89097,-2.24642 -8.22877,-3.37001 -12.56685,-3.37001 z m 92.80259,0 c -4.33789,8e-5 -8.67608,1.12367 -12.56684,3.37 -7.78186,4.49289 -12.56685,12.77993 -12.56685,21.76568 v 0.87372 c 11.29293,5.29674 20.30783,14.66669 25.13369,26.21272 0.43486,-1.04057 0.90925,-2.05987 1.41074,-3.06377 0.0163,-0.0326 0.0336,-0.0644 0.05,-0.0969 0.4984,-0.99229 1.02774,-1.96583 1.58859,-2.9194 0.005,-0.009 0.01,-0.0162 0.0145,-0.0249 1.14959,-1.95203 2.42803,-3.81769 3.8221,-5.59005 0.003,-0.004 0.006,-0.008 0.009,-0.0115 4.84141,-6.15154 11.07966,-11.14964 18.2398,-14.50761 v -0.87223 c 0,-8.98575 -4.78547,-17.27279 -12.56734,-21.76568 -3.89076,-2.24633 -8.22848,-3.36992 -12.56634,-3.37001 z m 92.80359,0 c -4.33802,0 -8.67639,1.12358 -12.56734,3.37 -7.78187,4.49289 -12.56684,12.77993 -12.56684,21.76568 v 0.87322 c 11.293,5.29653 20.30814,14.66631 25.13418,26.21222 0.43438,-1.03936 0.9084,-2.05747 1.40924,-3.06028 0.0175,-0.0351 0.0364,-0.0694 0.0539,-0.1044 0.49679,-0.98884 1.02426,-1.95902 1.58308,-2.90942 0.007,-0.0107 0.0117,-0.0218 0.0185,-0.0325 1.14816,-1.94934 2.42513,-3.81237 3.81711,-5.58254 0.006,-0.007 0.0102,-0.0137 0.016,-0.0205 4.84086,-6.14951 11.07786,-11.14638 18.23632,-14.50361 v -0.87223 c 0,-8.98575 -4.78497,-17.27279 -12.56685,-21.76568 -3.8909,-2.24642 -8.22926,-3.37 -12.56734,-3.37 z M 91.614086,379.21289 c -0.71508,0 -1.425337,0.0192 -2.131607,0.0539 -0.260775,0.0129 -0.517867,0.0385 -0.77731,0.056 -0.440735,0.0296 -0.882421,0.057 -1.319328,0.0999 -0.352546,0.0349 -0.700747,0.083 -1.050567,0.12638 -0.330087,0.0407 -0.661449,0.0772 -0.989122,0.12539 -0.43718,0.0647 -0.869803,0.14249 -1.302344,0.2203 -0.226933,0.0406 -0.455238,0.0772 -0.680895,0.12139 -0.514543,0.10136 -1.024199,0.2154 -1.53164,0.33521 -0.130485,0.0305 -0.26213,0.0581 -0.392151,0.0899 -0.598704,0.14741 -1.192846,0.30699 -1.780919,0.47957 -0.02276,0.007 -0.04571,0.0128 -0.06844,0.0195 -16.448091,4.85746 -28.608672,19.44592 -30.139237,37.13302 3.216707,0.27002 6.346696,0.84343 9.364186,1.693 0.660959,-10.9678 6.777976,-20.9502 16.367965,-26.48698 10.163897,-5.86813 22.703928,-5.86813 32.867803,0 9.58968,5.53661 15.70671,15.51854 16.36797,26.48597 3.01747,-0.8494 6.14744,-1.42316 9.36418,-1.69299 -1.53139,-17.69228 -13.70121,-32.28429 -30.15771,-37.13702 -0.002,-3.1e-4 -0.003,-6.9e-4 -0.004,-9.7e-4 -0.61106,-0.18013 -1.22881,-0.34562 -1.85136,-0.49856 -0.0996,-0.0243 -0.20038,-0.0453 -0.30023,-0.0689 -0.53591,-0.1275 -1.07472,-0.2473 -1.618568,-0.35418 -0.196501,-0.0384 -0.395477,-0.0697 -0.592965,-0.10541 -0.459849,-0.0836 -0.920173,-0.16615 -1.385272,-0.23479 -0.300044,-0.044 -0.603637,-0.0767 -0.905702,-0.1144 -0.375929,-0.0473 -0.75042,-0.0991 -1.129493,-0.13638 -0.409878,-0.0401 -0.824146,-0.0649 -1.237401,-0.0934 -0.285486,-0.0198 -0.568649,-0.0474 -0.855739,-0.0615 -0.692078,-0.0339 -1.388617,-0.0523 -2.089146,-0.053 -0.01357,0 -0.0269,-9.7e-4 -0.04047,-9.7e-4 z m 92.802584,0 c -0.71473,0 -1.42514,0.0192 -2.1311,0.0539 -0.25977,0.0129 -0.51587,0.0385 -0.77431,0.056 -0.44202,0.0297 -0.88466,0.0569 -1.32283,0.0999 -0.34903,0.0344 -0.6937,0.0826 -1.04007,0.12538 -0.33393,0.0411 -0.66915,0.0777 -1.00061,0.12639 -0.43503,0.0644 -0.86541,0.14237 -1.29586,0.2198 -0.22851,0.0409 -0.45866,0.0774 -0.68589,0.12189 -0.51253,0.10097 -1.0202,0.21445 -1.52564,0.33371 -0.13339,0.0312 -0.26774,0.0599 -0.40065,0.0924 -0.59448,0.14642 -1.18443,0.30484 -1.76843,0.47609 -0.0274,0.008 -0.0551,0.0153 -0.0825,0.023 -16.44592,4.85856 -28.60458,19.44605 -30.13524,37.13153 3.21677,0.27 6.34664,0.84393 9.36418,1.6935 0.66095,-10.9678 6.77799,-20.9502 16.36797,-26.48698 10.1639,-5.86813 22.7039,-5.86813 32.86781,0 9.58984,5.53669 15.70685,15.51884 16.36796,26.48648 3.0175,-0.84942 6.14741,-1.42316 9.36419,-1.693 -1.5312,-17.6925 -13.70107,-32.28475 -30.15772,-37.13752 -0.002,-3.1e-4 -0.003,-6.9e-4 -0.004,-9.7e-4 -0.61105,-0.18013 -1.2288,-0.34562 -1.85136,-0.49856 -0.0996,-0.0243 -0.20038,-0.0453 -0.30022,-0.0689 -0.53591,-0.1275 -1.07471,-0.2473 -1.61857,-0.35418 -0.19652,-0.0384 -0.39548,-0.0697 -0.59297,-0.10541 -0.45985,-0.0836 -0.92018,-0.16615 -1.38528,-0.23479 -0.30004,-0.044 -0.60361,-0.0767 -0.90569,-0.1144 -0.37593,-0.0473 -0.75043,-0.0991 -1.12949,-0.13638 -0.40989,-0.0401 -0.82414,-0.0649 -1.23741,-0.0934 -0.28547,-0.0198 -0.56865,-0.0474 -0.85574,-0.0615 -0.70482,-0.0345 -1.41403,-0.0539 -2.12761,-0.0539 h -5e-4 -5e-4 -0.002 z m 92.80409,0 v 5e-4 c -0.71491,0 -1.42546,0.0192 -2.1316,0.0539 -0.26329,0.0129 -0.52287,0.0387 -0.78481,0.0564 -0.43848,0.0296 -0.87763,0.0566 -1.31233,0.0994 -0.35254,0.0348 -0.70074,0.083 -1.05056,0.12639 -0.3301,0.0407 -0.66145,0.0772 -0.98913,0.12539 -0.43903,0.065 -0.87348,0.1431 -1.30784,0.2213 -0.22436,0.0401 -0.45028,0.0762 -0.67339,0.11989 -0.51675,0.10178 -1.02856,0.21634 -1.53814,0.33671 -0.12886,0.0303 -0.25876,0.0575 -0.38715,0.0889 -0.59888,0.14744 -1.19322,0.30694 -1.78143,0.47957 -0.0227,0.007 -0.0457,0.0127 -0.0684,0.0195 -16.44796,4.85744 -28.60846,19.44565 -30.13924,37.13253 3.21679,0.27003 6.34663,0.8439 9.36418,1.69349 0.66096,-10.9678 6.77799,-20.95017 16.36797,-26.48698 10.1639,-5.8681 22.70393,-5.8681 32.86781,0 9.58968,5.53664 15.7067,15.51856 16.36797,26.48599 3.01753,-0.8494 6.14736,-1.4227 9.36418,-1.6925 -1.53108,-17.69101 -13.69912,-32.28203 -30.15373,-37.13602 -0.003,-9.7e-4 -0.005,-0.002 -0.008,-0.003 -0.61005,-0.17983 -1.22685,-0.34483 -1.84836,-0.49756 -0.10401,-0.0253 -0.20889,-0.0473 -0.31322,-0.0719 -0.53169,-0.12635 -1.06608,-0.2456 -1.60557,-0.35169 -0.20068,-0.0392 -0.40379,-0.0715 -0.60547,-0.1079 -0.45604,-0.0827 -0.9126,-0.16423 -1.37378,-0.23229 -0.30403,-0.0447 -0.61207,-0.0782 -0.91819,-0.1164 -0.37227,-0.0467 -0.74314,-0.0974 -1.1185,-0.13438 -0.41319,-0.0405 -0.83074,-0.0663 -1.24739,-0.0949 -0.28215,-0.0194 -0.56202,-0.0464 -0.84576,-0.0604 -0.69222,-0.0339 -1.38844,-0.0523 -2.08913,-0.053 -0.0135,0 -0.0274,-9.6e-4 -0.041,-9.6e-4 z m 89.90817,0.1084 c -0.007,9.7e-4 -0.0147,0.002 -0.0215,0.002 -0.4385,0.0296 -0.87764,0.0566 -1.31234,0.0994 -0.35253,0.0349 -0.70074,0.083 -1.05057,0.12639 -0.33009,0.0407 -0.66144,0.0772 -0.98912,0.12539 -0.43718,0.0647 -0.86979,0.14248 -1.30234,0.2203 -0.22693,0.0406 -0.45524,0.0772 -0.6809,0.12139 -0.51455,0.10135 -1.02419,0.2154 -1.53164,0.3352 -0.13047,0.0306 -0.26216,0.0581 -0.39215,0.0899 -0.60205,0.14824 -1.19912,0.3084 -1.79041,0.48208 -0.0182,0.005 -0.0366,0.01 -0.0549,0.0155 -16.44982,4.85634 -28.61234,19.44583 -30.14323,37.13403 3.21675,0.27003 6.34664,0.8439 9.36418,1.6935 0.66093,-10.9678 6.77799,-20.95021 16.36797,-26.48698 4.21541,-2.43379 8.84313,-3.79879 13.53698,-4.21376 v -9.74375 z m -365.4205071,5e-4 v 9.74435 c 4.6943285,0.41468 9.3225911,1.77923 13.5384781,4.21326 9.589829,5.53669 15.706857,15.51868 16.367965,26.48648 3.017606,-0.84945 6.147283,-1.42317 9.364184,-1.69299 -1.531177,-17.69197 -13.700345,-32.28377 -30.156221,-37.13703 -0.006,-0.002 -0.01199,-0.003 -0.01798,-0.005 -0.60615,-0.17848 -1.2189154,-0.34235 -1.8363692,-0.49406 -0.1024458,-0.025 -0.2059882,-0.0472 -0.3087259,-0.0714 -0.5337784,-0.1269 -1.0704092,-0.24622 -1.6120685,-0.35268 -0.1965219,-0.0384 -0.3954848,-0.0697 -0.5929734,-0.10541 -0.4598474,-0.0836 -0.9201723,-0.16616 -1.3852699,-0.23479 -0.3018079,-0.0443 -0.6073316,-0.0775 -0.9111908,-0.1154 -0.3739206,-0.0469 -0.7464768,-0.0978 -1.1235024,-0.13488 -0.413207,-0.0405 -0.8307532,-0.0663 -1.2473923,-0.0949 -0.026328,-0.002 -0.052637,-0.004 -0.07893,-0.006 z m 89.9071621,17.28665 c -4.337871,9e-5 -8.67605,1.12367 -12.566841,3.37001 -7.781868,4.49288 -12.566841,12.77995 -12.566841,21.76568 v 0.87322 c 11.292897,5.29665 20.308262,14.66678 25.134182,26.21272 0.435737,-1.04263 0.910602,-2.06393 1.413244,-3.06978 0.01333,-0.0267 0.02758,-0.0528 0.04096,-0.0795 0.500014,-0.99612 1.031646,-1.97325 1.594585,-2.9304 0.0049,-0.008 0.0097,-0.0162 0.01449,-0.0249 1.149587,-1.95206 2.42806,-3.81769 3.822101,-5.59003 0.0029,-0.004 0.0058,-0.008 0.0087,-0.0115 4.841375,-6.15152 11.079625,-11.14965 18.239805,-14.50762 v -0.87222 c 0,-8.98573 -4.78499,-17.2728 -12.56684,-21.76568 -3.89077,-2.24634 -8.228954,-3.36992 -12.566843,-3.37001 z m 92.803095,0 c -4.3379,9e-5 -8.67608,1.12367 -12.56684,3.37001 -7.78189,4.49288 -12.56685,12.77995 -12.56685,21.76568 v 0.87271 c 11.293,5.29659 20.30811,14.6668 25.13419,26.21273 0.43569,-1.04249 0.91067,-2.06357 1.41324,-3.06928 0.0133,-0.0267 0.0276,-0.0528 0.041,-0.0795 0.50001,-0.99612 1.03166,-1.97325 1.59459,-2.9304 0.005,-0.008 0.01,-0.0162 0.0145,-0.0249 1.14956,-1.95206 2.42803,-3.81769 3.8221,-5.59003 0.003,-0.004 0.006,-0.008 0.009,-0.0115 4.84142,-6.15152 11.07967,-11.14965 18.2398,-14.50762 v -0.87222 c 0,-8.98573 -4.78498,-17.2728 -12.56683,-21.76568 -3.89081,-2.24634 -8.22898,-3.36992 -12.56684,-3.37001 z m 92.80409,0 c -4.33807,0 -8.67594,1.12359 -12.56684,3.37001 -7.78192,4.49288 -12.56734,12.77995 -12.56734,21.76568 v 0.87322 c 11.29266,5.29659 20.30773,14.66651 25.13367,26.21222 0.43608,-1.04341 0.91217,-2.0652 1.41525,-3.07177 0.012,-0.0242 0.0248,-0.0478 0.0369,-0.0719 0.50348,-1.00331 1.03827,-1.98762 1.60557,-2.95138 7e-5,-9e-5 4.3e-4,-9e-4 5e-4,-9.6e-4 5.14313,-8.73697 12.84619,-15.78899 22.07639,-20.11764 v -0.87173 c 0,-8.98572 -4.78498,-17.27279 -12.56683,-21.76568 -3.89096,-2.24642 -8.2293,-3.37 -12.56734,-3.37 z M 1.7084229,396.79628 v 46.23594 c 0.053549,-0.0924 0.099237,-0.18972 0.1533638,-0.28175 0.00488,-0.008 0.0096,-0.0162 0.014487,-0.0249 1.1495844,-1.95206 2.4280465,-3.81769 3.822106,-5.59003 0.00301,-0.004 0.00598,-0.008 0.00899,-0.0115 4.8413993,-6.15157 11.0796483,-11.14967 18.2398053,-14.50764 v -0.87222 c 0,-8.98573 -4.784976,-17.2728 -12.566841,-21.76568 -3.0234273,-1.74556 -6.3182611,-2.79289 -9.6719113,-3.18217 z m 365.4205071,4.9e-4 c -3.353,0.38943 -6.64694,1.43638 -9.66992,3.18168 -7.78186,4.49288 -12.56734,12.77995 -12.56734,21.76568 v 0.87322 c 9.34932,4.3851 17.095,11.59008 22.23726,20.4823 z M 45.212791,425.61469 v 4.9e-4 c -0.715252,0 -1.426147,0.0192 -2.132606,0.0539 -0.259773,0.0129 -0.515859,0.0385 -0.774313,0.056 -0.44201,0.0298 -0.884665,0.0569 -1.322825,0.0999 -0.349024,0.0344 -0.693714,0.0826 -1.040076,0.12539 -0.333933,0.0411 -0.669154,0.0776 -1.000612,0.12639 -0.433343,0.0641 -0.862072,0.14177 -1.290854,0.21881 -0.230938,0.0412 -0.463271,0.0784 -0.692884,0.12339 -0.510491,0.10059 -1.016166,0.21347 -1.519651,0.33221 -0.13502,0.0316 -0.271124,0.0605 -0.40564,0.0934 -0.585882,0.14432 -1.166747,0.30018 -1.742453,0.46858 -0.0387,0.0112 -0.07775,0.0217 -0.116396,0.033 -16.440926,4.86139 -28.5952156,19.4467 -30.1257484,37.12853 3.2166732,0.27001 6.3462274,0.84395 9.3636854,1.6935 0.660965,-10.96781 6.778495,-20.94969 16.368465,-26.48649 10.163894,-5.8681 22.703932,-5.8681 32.867813,0 9.589815,5.53671 15.706838,15.51838 16.367965,26.48598 3.017373,-0.84936 6.147029,-1.42317 9.363685,-1.69299 -1.531268,-17.69066 -13.699023,-32.28192 -30.153224,-37.13603 -0.0027,-9.6e-4 -0.0053,-0.002 -0.008,-0.003 -0.605916,-0.17861 -1.218151,-0.34218 -1.83537,-0.49406 -0.122259,-0.0299 -0.245989,-0.0561 -0.368673,-0.085 -0.514514,-0.12171 -1.031795,-0.23696 -1.55362,-0.3397 -0.214724,-0.0421 -0.432041,-0.0767 -0.647925,-0.11539 -0.445591,-0.0805 -0.89129,-0.16079 -1.341808,-0.2273 -0.300364,-0.0441 -0.604294,-0.0766 -0.906695,-0.1144 -0.37593,-0.0473 -0.750425,-0.0991 -1.129498,-0.13639 -0.409878,-0.0401 -0.82414,-0.0649 -1.2374,-0.0934 -0.285477,-0.0198 -0.568649,-0.0474 -0.85574,-0.0615 -0.704823,-0.0345 -1.414039,-0.0539 -2.127611,-0.0539 h -5e-4 -4.99e-4 z m 92.803099,0 c -0.71493,0 -1.42548,0.0192 -2.13162,0.0539 -0.26328,0.0129 -0.52287,0.0387 -0.78479,0.0565 -0.4385,0.0296 -0.87764,0.0566 -1.31234,0.0994 -0.35254,0.0348 -0.70074,0.083 -1.05057,0.12639 -0.33009,0.0407 -0.66145,0.0772 -0.98912,0.12539 -0.43718,0.0647 -0.8698,0.14238 -1.30235,0.2203 -0.22693,0.0406 -0.45524,0.0772 -0.68089,0.12139 -0.51455,0.10136 -1.0242,0.2154 -1.53164,0.3352 -0.13068,0.0306 -0.26243,0.0586 -0.39265,0.0904 -0.58694,0.14453 -1.16925,0.30088 -1.74595,0.46957 -0.0387,0.0112 -0.0778,0.0212 -0.1164,0.0325 -16.44106,4.86144 -28.595389,19.44698 -30.125747,37.12904 3.216758,0.27004 6.346687,0.84339 9.364177,1.69299 0.66098,-10.9678 6.77801,-20.9497 16.36798,-26.48647 10.1639,-5.86814 22.7039,-5.86814 32.86781,0 9.58981,5.53668 15.70683,15.51839 16.36796,26.48597 3.01757,-0.8494 6.14735,-1.42319 9.36419,-1.69299 -1.53115,-17.68916 -13.69715,-32.27919 -30.14923,-37.13453 -0.0145,-0.004 -0.029,-0.009 -0.0435,-0.0125 -0.59572,-0.17511 -1.19776,-0.33629 -1.8044,-0.48556 -0.12278,-0.0301 -0.24699,-0.0566 -0.37018,-0.0855 -0.51332,-0.12141 -1.02899,-0.23667 -1.54962,-0.3392 -0.21868,-0.0427 -0.44002,-0.0779 -0.65991,-0.11739 -0.44194,-0.0798 -0.88403,-0.15887 -1.33081,-0.2248 -0.3042,-0.0447 -0.61192,-0.0782 -0.91819,-0.1164 -0.37228,-0.0467 -0.74316,-0.0974 -1.11851,-0.13438 -0.4132,-0.0405 -0.83075,-0.0663 -1.24739,-0.0949 -0.28216,-0.0194 -0.56202,-0.0464 -0.84575,-0.0604 -0.69556,-0.0341 -1.39558,-0.053 -2.09963,-0.0535 -0.0103,-1e-5 -0.0206,-4.9e-4 -0.0309,-4.9e-4 z m 92.80258,0 v 4.9e-4 c -0.71492,0 -1.42547,0.0192 -2.13161,0.0539 -0.26329,0.013 -0.52286,0.0387 -0.7848,0.0565 -0.43849,0.0296 -0.87764,0.0567 -1.31234,0.0994 -0.35253,0.0347 -0.70074,0.083 -1.05056,0.1264 -0.3301,0.0407 -0.66146,0.0772 -0.98912,0.12538 -0.43718,0.0647 -0.86981,0.1424 -1.30235,0.22031 -0.22693,0.0406 -0.45523,0.0772 -0.68089,0.12139 -0.51456,0.10136 -1.0242,0.2154 -1.53164,0.3352 -0.13069,0.0306 -0.26244,0.0586 -0.39266,0.0904 -0.58691,0.14453 -1.16922,0.30087 -1.74594,0.46959 -0.0387,0.0112 -0.0778,0.0212 -0.1164,0.0325 -16.44109,4.86144 -28.5954,19.447 -30.12575,37.12902 3.21678,0.27004 6.34667,0.8434 9.36419,1.69301 0.66097,-10.96781 6.778,-20.94969 16.36797,-26.48649 10.16387,-5.8681 22.70393,-5.8681 32.86781,0 9.58996,5.5368 15.70699,15.51868 16.36796,26.48649 3.01757,-0.84946 6.14733,-1.42366 9.36419,-1.6935 -1.53125,-17.69066 -13.69904,-32.28192 -30.15323,-37.13603 -0.002,-9.6e-4 -0.005,-0.002 -0.008,-0.003 -0.60693,-0.17891 -1.22061,-0.34296 -1.83887,-0.49505 -0.11843,-0.0289 -0.23836,-0.054 -0.35718,-0.082 -0.5173,-0.12247 -1.03692,-0.23889 -1.56162,-0.3422 -0.21469,-0.0421 -0.43206,-0.0762 -0.64792,-0.11489 -0.44559,-0.0805 -0.89129,-0.16079 -1.34181,-0.2273 -0.30037,-0.0441 -0.60429,-0.0766 -0.90669,-0.1144 -0.37593,-0.0473 -0.75042,-0.0991 -1.1295,-0.13639 -0.40988,-0.0401 -0.82414,-0.0649 -1.2374,-0.0934 -0.28548,-0.0198 -0.56864,-0.0474 -0.85575,-0.0615 -0.69206,-0.0339 -1.38864,-0.0523 -2.08913,-0.053 -0.0135,0 -0.0274,-9.6e-4 -0.041,-9.6e-4 z m 92.80309,0 c -0.71491,1e-5 -1.4255,0.0192 -2.1316,0.0539 -0.25977,0.0129 -0.51586,0.0385 -0.77432,0.056 -0.44201,0.0298 -0.88466,0.0569 -1.32282,0.0999 -0.34903,0.0344 -0.69372,0.0826 -1.04007,0.12539 -0.33394,0.0411 -0.66915,0.0776 -1.00062,0.12639 -0.43334,0.0641 -0.86206,0.14175 -1.29085,0.2188 -0.23094,0.0412 -0.46327,0.0784 -0.69288,0.12339 -0.5105,0.10059 -1.01617,0.21347 -1.51966,0.33221 -0.13502,0.0316 -0.27112,0.0605 -0.40564,0.0934 -0.58256,0.1435 -1.16046,0.29876 -1.73296,0.46608 -0.0432,0.0125 -0.0868,0.0243 -0.12989,0.0369 -16.43906,4.86248 -28.59182,19.44654 -30.12224,37.12704 3.21675,0.27 6.34666,0.84392 9.36417,1.69349 0.66098,-10.9678 6.77801,-20.9497 16.36798,-26.48647 10.1639,-5.86813 22.7039,-5.86813 32.86781,0 9.58996,5.53677 15.70699,15.51867 16.36796,26.48647 3.01759,-0.84945 6.14731,-1.42366 9.36419,-1.69349 -1.53135,-17.6915 -13.70033,-32.28314 -30.15573,-37.13652 -0.002,0 -0.004,-0.002 -0.006,-0.002 -0.60692,-0.17892 -1.2206,-0.34297 -1.83886,-0.49506 -0.11844,-0.0289 -0.23836,-0.054 -0.35719,-0.082 -0.5173,-0.12247 -1.03693,-0.23889 -1.56161,-0.3422 -0.2147,-0.0421 -0.43207,-0.0762 -0.64793,-0.11489 -0.44557,-0.0805 -0.89128,-0.16079 -1.3418,-0.2273 -0.30036,-0.0441 -0.6043,-0.0766 -0.9067,-0.1144 -0.37594,-0.0473 -0.75043,-0.0991 -1.1295,-0.13638 -0.40986,-0.0401 -0.82414,-0.0649 -1.2374,-0.0934 -0.28548,-0.0198 -0.56865,-0.0474 -0.85574,-0.0615 -0.68893,-0.0337 -1.38185,-0.0522 -2.07915,-0.053 -0.0169,0 -0.0335,-9.7e-4 -0.0505,-9.7e-4 z M 45.214789,443.01023 c -4.338051,0 -8.676408,1.12307 -12.56734,3.36952 -7.781871,4.49282 -12.56734,12.78045 -12.56734,21.76617 v 0.87272 c 11.293131,5.29664 20.308159,14.66661 25.13418,26.21272 0.436754,-1.04506 0.913278,-2.06867 1.417242,-3.07676 0.0099,-0.0198 0.02054,-0.0392 0.03047,-0.059 0.501975,-1.00081 1.0356,-1.98242 1.601079,-2.94389 0.0049,-0.009 0.0096,-0.0162 0.01449,-0.0249 1.148824,-1.95076 2.426625,-3.81472 3.819609,-5.58604 0.0049,-0.006 0.0096,-0.0131 0.01449,-0.0189 4.841068,-6.14991 11.078427,-11.14683 18.237305,-14.50412 v -0.87172 c 0,-8.98573 -4.785481,-17.27335 -12.56734,-21.76618 -3.890919,-2.24644 -8.228784,-3.36951 -12.56684,-3.36951 z m 92.803091,0 c -4.33802,0 -8.67639,1.12307 -12.56734,3.36952 -7.78187,4.49282 -12.56684,12.78045 -12.56684,21.76617 v 0.87322 c 11.29281,5.29668 20.30773,14.66636 25.13368,26.21222 0.43676,-1.04506 0.91327,-2.06867 1.41724,-3.07676 0.01,-0.0198 0.0205,-0.0392 0.0305,-0.059 0.50197,-1.00081 1.03559,-1.98242 1.60107,-2.94389 0.005,-0.009 0.01,-0.0162 0.0145,-0.0249 5.14307,-8.73317 12.84412,-15.78182 22.07141,-20.10914 v -0.87172 c 0,-8.98573 -4.78548,-17.27335 -12.56734,-21.76617 -3.89096,-2.24645 -8.22876,-3.36952 -12.56684,-3.36952 z m 92.80309,0 c -4.33807,0 -8.67644,1.12307 -12.56734,3.36952 -7.78186,4.49282 -12.56685,12.78045 -12.56685,21.76617 v 0.87322 c 11.29303,5.29677 20.30829,14.66655 25.13419,26.21273 0.43545,-1.04196 0.91048,-2.06257 1.41275,-3.06778 0.0141,-0.0282 0.0287,-0.0562 0.0429,-0.0844 0.49965,-0.99527 1.03062,-1.97156 1.59308,-2.92791 0.005,-0.009 0.01,-0.0162 0.0145,-0.0249 1.14883,-1.95076 2.42663,-3.81473 3.81961,-5.58604 0.005,-0.006 0.01,-0.0131 0.0145,-0.019 4.84102,-6.1498 11.07811,-11.14683 18.23681,-14.50412 V 468.146 c 0,-8.98573 -4.78549,-17.27335 -12.56734,-21.76618 -3.8909,-2.24645 -8.22882,-3.36951 -12.56684,-3.36951 z m 92.80309,0 c -4.33802,0 -8.67639,1.12307 -12.56734,3.36952 -7.78187,4.49282 -12.56684,12.78045 -12.56684,21.76617 v 0.87272 c 11.293,5.29658 20.30814,14.66632 25.13418,26.21223 0.43496,-1.04074 0.90961,-2.06019 1.41124,-3.06429 0.0155,-0.0309 0.032,-0.0611 0.0475,-0.0919 0.49803,-0.99182 1.02715,-1.96478 1.58759,-2.91791 0.007,-0.0107 0.0117,-0.0217 0.0185,-0.0325 1.14746,-1.94819 2.42363,-3.80984 3.81461,-5.57905 0.007,-0.009 0.0147,-0.0188 0.0215,-0.0275 4.84037,-6.14774 11.07638,-11.1431 18.23331,-14.49962 v -0.87222 c 0,-8.98572 -4.78497,-17.27335 -12.56685,-21.76617 -3.8909,-2.24645 -8.22926,-3.36952 -12.56734,-3.36952 z m -232.009974,29.00625 -4.99e-4,5e-4 c -0.71525,0 -1.425674,0.0188 -2.132107,0.0534 -0.280053,0.0137 -0.556245,0.0412 -0.834759,0.0604 -0.417547,0.0287 -0.836286,0.0539 -1.250389,0.0944 -0.371522,0.0365 -0.738511,0.0873 -1.107017,0.13338 -0.314816,0.0392 -0.631041,0.074 -0.943663,0.11989 -0.42376,0.0627 -0.842968,0.1382 -1.262378,0.21332 -0.244469,0.0435 -0.490362,0.0827 -0.733349,0.13039 -0.495685,0.0978 -0.98661,0.2078 -1.47569,0.32271 -0.149529,0.0349 -0.30019,0.067 -0.449101,0.10341 -0.582195,0.14354 -1.159842,0.29922 -1.731962,0.46658 -0.03916,0.0114 -0.07879,0.0215 -0.117896,0.033 -15.527824,4.5914 -27.113554,17.89653 -29.655165,34.25209 h 9.598477 c 1.850616,-9.11604 7.432347,-17.16505 15.66309,-21.91704 5.08194,-2.93408 10.75798,-4.4011 16.433907,-4.4011 5.675939,0 11.351965,1.46702 16.433905,4.4011 8.23072,4.75199 13.81246,12.801 15.66309,21.91704 h 9.59848 c -2.54318,-16.36419 -14.14186,-29.67492 -29.68264,-34.25958 -0.003,-9.7e-4 -0.005,-0.002 -0.008,-0.003 -0.60693,-0.17892 -1.22061,-0.34297 -1.83887,-0.49506 -0.11844,-0.029 -0.23836,-0.0539 -0.35719,-0.0819 -0.5173,-0.12247 -1.03692,-0.23889 -1.561615,-0.3422 -0.219818,-0.043 -0.442352,-0.0782 -0.663408,-0.11789 -0.437316,-0.0789 -0.874767,-0.15746 -1.31683,-0.22281 -0.305487,-0.0448 -0.614589,-0.0785 -0.922184,-0.11689 -0.377585,-0.0475 -0.753727,-0.099 -1.134489,-0.13638 -0.385597,-0.0377 -0.775375,-0.0611 -1.163966,-0.0884 -0.306174,-0.0217 -0.610146,-0.0508 -0.918185,-0.0659 -0.704992,-0.0345 -1.414359,-0.0535 -2.12811,-0.0535 h -9.67e-4 z m 92.803094,0 v 5e-4 c -0.71508,0 -1.42581,0.0188 -2.13211,0.0534 -0.2787,0.0137 -0.55358,0.0409 -0.83076,0.0599 -0.41933,0.0287 -0.83953,0.0542 -1.25539,0.0949 -0.36784,0.0362 -0.73113,0.0869 -1.09603,0.13239 -0.31865,0.0396 -0.63874,0.0744 -0.95514,0.12088 -0.4216,0.0624 -0.83861,0.13769 -1.25589,0.21232 -0.24626,0.0438 -0.49408,0.0834 -0.73884,0.13139 -0.49354,0.0974 -0.98221,0.20736 -1.4692,0.3217 -0.15225,0.0355 -0.30549,0.0682 -0.4571,0.10541 -0.57807,0.14257 -1.1518,0.29655 -1.71997,0.4626 -0.0437,0.0127 -0.0877,0.0245 -0.13138,0.0374 -15.52603,4.5924 -27.11023,17.89635 -29.65167,34.25059 h 9.59847 c 1.85064,-9.11604 7.43237,-17.16505 15.6631,-21.91704 5.08197,-2.93408 10.75794,-4.4011 16.43391,-4.4011 5.67591,0 11.35196,1.46702 16.4339,4.4011 8.23074,4.75199 13.81247,12.801 15.66309,21.91704 h 9.59848 c -2.54318,-16.36418 -14.14188,-29.67492 -29.68264,-34.25958 -0.002,-9.7e-4 -0.005,-0.002 -0.008,-0.003 -0.60693,-0.17892 -1.22061,-0.34297 -1.83887,-0.49506 -0.11843,-0.029 -0.23837,-0.0539 -0.35719,-0.0819 -0.5173,-0.12247 -1.03692,-0.23889 -1.56161,-0.3422 -0.21983,-0.043 -0.44236,-0.0782 -0.66341,-0.11789 -0.43733,-0.0789 -0.87477,-0.15746 -1.31683,-0.2228 -0.3055,-0.0449 -0.61461,-0.0785 -0.92218,-0.1169 -0.3776,-0.0475 -0.75374,-0.099 -1.1345,-0.13638 -0.38561,-0.0377 -0.77538,-0.0611 -1.16396,-0.0885 -0.30619,-0.0217 -0.61015,-0.0507 -0.91819,-0.0659 -0.70482,-0.0345 -1.41403,-0.0535 -2.12761,-0.0535 h -5e-4 -4.9e-4 z m 92.80358,0 c -0.71491,0 -1.42546,0.0188 -2.1316,0.0535 -0.2824,0.0139 -0.56092,0.0416 -0.84175,0.061 -0.41546,0.0286 -0.83185,0.0535 -1.2439,0.0939 -0.37152,0.0365 -0.73851,0.0873 -1.10701,0.13337 -0.31483,0.0392 -0.63105,0.0739 -0.94367,0.1199 -0.42545,0.0629 -0.8463,0.13891 -1.26737,0.21431 -0.24206,0.0431 -0.48575,0.0817 -0.72636,0.12888 -0.49788,0.0982 -0.99096,0.20874 -1.48218,0.32421 -0.14775,0.0344 -0.29646,0.0663 -0.4436,0.10241 -0.58252,0.14362 -1.16052,0.29914 -1.73297,0.46659 -0.0392,0.0114 -0.0788,0.0215 -0.1179,0.033 -15.52782,4.59137 -27.11354,17.89652 -29.65516,34.25208 h 9.59847 c 1.85063,-9.11604 7.43237,-17.16502 15.6631,-21.91704 5.08197,-2.93408 10.75795,-4.40109 16.43391,-4.40109 5.67592,0 11.35195,1.46701 16.4339,4.40109 8.23074,4.75202 13.8125,12.801 15.66309,21.91704 h 9.59798 c -2.54298,-16.3627 -14.13942,-29.6723 -29.67815,-34.25809 -0.0145,-0.004 -0.029,-0.009 -0.0434,-0.0125 -0.59572,-0.17511 -1.19776,-0.33629 -1.8044,-0.48557 -0.12277,-0.0301 -0.24697,-0.0566 -0.37017,-0.0855 -0.51335,-0.1214 -1.02899,-0.23666 -1.54962,-0.33919 -0.22397,-0.0438 -0.45068,-0.0796 -0.6759,-0.11989 -0.43341,-0.078 -0.86678,-0.15654 -1.30484,-0.22131 -0.30911,-0.0454 -0.62191,-0.0792 -0.93318,-0.1179 -0.37414,-0.0469 -0.74674,-0.0983 -1.124,-0.13538 -0.38939,-0.0381 -0.78301,-0.0614 -1.17545,-0.0889 -0.30255,-0.0214 -0.60284,-0.0505 -0.9072,-0.0654 -0.69571,-0.0341 -1.3959,-0.0525 -2.10014,-0.053 -0.0102,-10e-6 -0.0202,-5e-4 -0.0305,-5e-4 z m 89.90817,0.10841 c -0.0261,0.002 -0.0522,0.004 -0.0784,0.006 -0.41547,0.0286 -0.83185,0.0535 -1.2439,0.0939 -0.37151,0.0365 -0.73851,0.0873 -1.10702,0.13338 -0.31481,0.0392 -0.63104,0.0739 -0.94366,0.1199 -0.42375,0.0626 -0.84296,0.1382 -1.26238,0.21331 -0.24447,0.0435 -0.49035,0.0827 -0.73335,0.13038 -0.49568,0.0978 -0.98659,0.2078 -1.47569,0.32272 -0.14937,0.0349 -0.29987,0.067 -0.44859,0.1034 -0.58569,0.1444 -1.16645,0.30059 -1.74196,0.46908 -0.0345,0.0101 -0.0694,0.0193 -0.10391,0.0295 -15.52977,4.5903 -27.11777,17.89614 -29.65966,34.25308 h 9.59848 c 1.85062,-9.11603 7.43236,-17.16501 15.66309,-21.91703 4.21546,-2.43383 8.84309,-3.79831 13.53698,-4.21326 v -9.74385 z m -365.4205071,4.9e-4 v 9.74385 c 4.6943865,0.41478 9.3225451,1.77917 13.5384781,4.21326 8.230727,4.75202 13.812468,12.801 15.66309,21.91704 h 9.598477 c -2.543059,-16.36369 -14.141099,-29.67401 -29.681143,-34.25908 -0.01143,-0.004 -0.02305,-0.007 -0.03447,-0.01 -0.59804,-0.1759 -1.2023478,-0.33821 -1.8113916,-0.48807 -0.1212759,-0.0296 -0.2439873,-0.0553 -0.3656753,-0.0839 -0.5153241,-0.12192 -1.0329579,-0.23779 -1.5556186,-0.3407 -0.2198413,-0.043 -0.442357,-0.0782 -0.6634108,-0.11789 -0.4373204,-0.0789 -0.8747696,-0.15746 -1.3168306,-0.2228 -0.3070687,-0.0451 -0.6179861,-0.0788 -0.9271767,-0.1174 -0.3756258,-0.0472 -0.74974,-0.0987 -1.1284979,-0.13588 -0.3893926,-0.0381 -0.7830127,-0.0614 -1.1754562,-0.0889 -0.04681,-0.003 -0.093649,-0.006 -0.1403753,-0.01 z m 89.9076621,17.28665 c -4.338039,0 -8.676401,1.12306 -12.567341,3.36951 -5.838081,3.37061 -9.969143,8.88256 -11.675132,15.21799 h 48.484948 c -1.706,-6.33543 -5.83704,-11.84738 -11.67514,-15.21799 -3.8909,-2.24645 -8.229281,-3.36951 -12.567335,-3.36951 z m 92.803095,0 c -4.33807,0 -8.67644,1.12306 -12.56734,3.36951 -5.8381,3.37061 -9.96914,8.88256 -11.67514,15.21799 h 48.48495 c -1.70599,-6.33543 -5.83707,-11.84738 -11.67513,-15.21799 -3.89096,-2.24645 -8.22932,-3.36951 -12.56734,-3.36951 z m 92.80359,0 c -4.33807,0 -8.67594,1.12306 -12.56684,3.36951 -5.83811,3.37061 -9.96951,8.88256 -11.67564,15.21799 h 48.48495 c -1.706,-6.33543 -5.83707,-11.84738 -11.67513,-15.21799 -3.89096,-2.24645 -8.2293,-3.36951 -12.56734,-3.36951 z M 1.7084229,489.59987 v 18.39966 H 23.055467 C 21.349479,501.6641 17.21841,496.15215 11.380334,492.78154 8.3569069,491.03595 5.0620731,489.98901 1.7084229,489.59987 Z m 365.4205071,4.9e-4 c -3.353,0.38929 -6.64694,1.43585 -9.66992,3.18118 -5.83807,3.37061 -9.9695,8.88256 -11.67563,15.21799 h 21.34555 z"
         inkscape:label="cut-out" />
    </g>
  </g>
</svg>
