<?xml version="1.0" encoding="UTF-8" standalone="no"?>
<!-- Created with Inkscape (http://www.inkscape.org/) -->

<svg
   width="5.9999995in"
   height="9in"
   viewBox="0 0 152.39998 228.59999"
   version="1.1"
   id="svg1"
   inkscape:version="1.3.1 (91b66b0783, 2023-11-16)"
   sodipodi:docname="tp-holder.svg"
   xmlns:inkscape="http://www.inkscape.org/namespaces/inkscape"
   xmlns:sodipodi="http://sodipodi.sourceforge.net/DTD/sodipodi-0.dtd"
   xmlns="http://www.w3.org/2000/svg"
   xmlns:svg="http://www.w3.org/2000/svg">
  <sodipodi:namedview
     id="namedview1"
     pagecolor="#ffffff"
     bordercolor="#000000"
     borderopacity="0.25"
     inkscape:showpageshadow="2"
     inkscape:pageopacity="0.0"
     inkscape:pagecheckerboard="0"
     inkscape:deskcolor="#d1d1d1"
     inkscape:document-units="in"
     inkscape:zoom="0.42898109"
     inkscape:cx="304.20921"
     inkscape:cy="145.69407"
     inkscape:current-layer="layer1" />
  <defs
     id="defs1" />
  <g
     inkscape:label="Layer 1"
     inkscape:groupmode="layer"
     id="layer1">
    <path
       id="path17"
       style="font-variation-settings:'wdth' 99.8, 'wght' 700;fill:#4b2d83;stroke-width:40.6629;stroke-linecap:round;stroke-linejoin:round;stroke-dashoffset:134.173;paint-order:markers fill stroke"
       d="m 31.75,0 c 1.071658,0 2.130623,0.0549321 3.175,0.15864665 C 50.968425,1.7518804 63.5,15.287492 63.5,31.75 V 50.8 c 0,16.383227 -12.411335,29.865959 -28.34349,31.566032 V 138.56674 139.7 c 0,3.51783 -2.832179,6.35 -6.35,6.35 h -6.35 H 12.7 6.35 C 2.832161,146.05 0,143.21785 0,139.7 V 88.9 82.55 c 0,-7.013862 5.686138,-12.7 12.7,-12.7 h 6.35 12.7 C 39.455924,69.8499 46.403369,65.206778 49.350993,58.086894 50.307525,55.776641 50.799921,53.30044 50.8,50.8 V 31.75 C 50.799921,29.249589 50.307514,26.77333 49.350993,24.463106 46.815895,18.339667 41.319446,14.057206 34.929134,12.975952 33.889354,12.800019 32.828367,12.700014 31.75,12.7 c -9.982241,0.0034 -15.945515,7.156204 -17.908984,12.571842 0,0 -1.313612,6.478158 -7.479647,6.478158 -6.166035,0 -5.938595,-3.622746 -5.69681,-6.491593 C 1.78582,11.954342 16.440545,0 31.75,0 Z M 30.577979,126.97158 H 4.578015 v 2.99981 h 25.999964 z" />
    <path
       id="path19"
       style="font-variation-settings:'wdth' 99.8, 'wght' 700;fill:#4b2d83;stroke-width:40.6629;stroke-linecap:round;stroke-linejoin:round;stroke-dashoffset:134.173;paint-order:markers fill stroke"
       d="m 120.64998,0 c -1.07166,0 -2.13062,0.0549321 -3.175,0.15864665 C 101.43156,1.7518804 88.899982,15.287492 88.899982,31.75 V 50.8 c 0,16.383227 12.411338,29.865959 28.343488,31.566032 V 138.56674 139.7 c 0,3.51783 2.83218,6.35 6.35,6.35 h 6.35 9.75651 6.35 c 3.51784,0 6.35,-2.83215 6.35,-6.35 V 88.9 82.55 c 0,-7.013862 -5.68614,-12.7 -12.7,-12.7 h -6.35 -12.7 C 112.94406,69.8499 105.99661,65.206778 103.04899,58.086894 102.09246,55.776641 101.60006,53.30044 101.59998,50.8 V 31.75 c 8e-5,-2.500411 0.49249,-4.97667 1.44901,-7.286894 2.5351,-6.123439 8.03154,-10.4059 14.42186,-11.487154 1.03978,-0.175933 2.10076,-0.275938 3.17913,-0.275952 9.98224,0.0034 15.94552,7.156204 17.90898,12.571842 0,0 1.31362,6.478158 7.47965,6.478158 6.16604,0 5.9386,-3.622746 5.69681,-6.491593 C 150.61416,11.954342 135.95944,0 120.64998,0 Z m 12.6721,115.4715 h 2.99981 v 25.99997 h -2.99981 z" />
    <path
       d="m 41.065445,89.607898 c 0,-1.75892 1.41607,-3.175 3.175,-3.175 h 28.80599 c 1.75894,0 3.175,1.41608 3.175,3.175 v 3.175 h -3.175 -1.40301 V 207.0829 h -11.49956 v -57.15001 h -3.00033 V 207.0829 H 45.643465 V 92.782898 h -1.40302 -3.175 z"
       style="font-variation-settings:'wdth' 99.8, 'wght' 700;fill:#dd5498;stroke-width:12.8491;stroke-linecap:round;stroke-linejoin:round;stroke-dashoffset:134.173;paint-order:markers fill stroke"
       id="path25" />
    <path
       d="m 76.838194,220.39302 c 0,1.75892 1.41607,3.175 3.175,3.175 h 28.805986 c 1.75894,0 3.175,-1.41608 3.175,-3.175 v -3.175 h -3.175 -1.40301 V 102.91801 H 95.916614 v 57.15001 h -3.00033 v -57.15001 h -11.50007 v 114.30001 h -1.40302 -3.175 z"
       style="font-variation-settings:'wdth' 99.8, 'wght' 700;fill:#dd5498;stroke-width:12.8491;stroke-linecap:round;stroke-linejoin:round;stroke-dashoffset:134.173;paint-order:markers fill stroke"
       id="path26" />
  </g>
</svg>
