<?xml version="1.0" encoding="UTF-8" standalone="no"?>
<!-- Created with Inkscape (http://www.inkscape.org/) -->

<svg
   width="610mm"
   height="465mm"
   viewBox="0 0 610 465"
   version="1.1"
   id="svg1"
   inkscape:version="1.3.1 (91b66b0783, 2023-11-16)"
   sodipodi:docname="triangle-sun.svg"
   xmlns:inkscape="http://www.inkscape.org/namespaces/inkscape"
   xmlns:sodipodi="http://sodipodi.sourceforge.net/DTD/sodipodi-0.dtd"
   xmlns="http://www.w3.org/2000/svg"
   xmlns:svg="http://www.w3.org/2000/svg">
  <sodipodi:namedview
     id="namedview1"
     pagecolor="#ffffff"
     bordercolor="#000000"
     borderopacity="0.25"
     inkscape:showpageshadow="2"
     inkscape:pageopacity="0.0"
     inkscape:pagecheckerboard="0"
     inkscape:deskcolor="#d1d1d1"
     inkscape:document-units="mm"
     inkscape:zoom="0.16807548"
     inkscape:cx="1424.955"
     inkscape:cy="1008.4755"
     inkscape:current-layer="layer1" />
  <defs
     id="defs1" />
  <g
     inkscape:label="Layer 1"
     inkscape:groupmode="layer"
     id="layer1">
    <path
       id="path111"
       style="display:inline;fill:#281845"
       d="M 4.9996948,55 C 2.2301964,55 0,57.230713 0,60.000212 V 160.00031 460.00009 c 1.5089172e-4,2.60403 2.0150152,4.67599 4.5578613,4.91081 0.1531328,0.014 0.2849257,0.0889 0.4418335,0.0889 H 104.99979 c 0.15691,0 0.2887,-0.0749 0.44184,-0.0889 2.54292,-0.2346 4.55822,-2.30672 4.55837,-4.91081 V 237.68704 l 15.00012,-9.92187 v 57.23268 175.00224 c 0,0.1916 0.0877,0.35363 0.10852,0.5395 0.26418,2.34215 2.09338,4.15392 4.44934,4.37131 0.15314,0.014 0.28492,0.0889 0.44184,0.0889 h 100.00009 c 0.14993,0 0.2757,-0.072 0.4222,-0.0847 2.55244,-0.2253 4.57735,-2.30415 4.5775,-4.91494 v -98.78364 l 5.2e-4,-10e-4 15.00011,-29.01942 v 127.80409 c 0,2.76993 2.22976,4.99969 4.9997,4.99969 h 100.0001 c 2.76993,0 5.00021,-2.22976 5.00021,-4.99969 V 332.19652 l 14.9996,29.0189 5.2e-4,0.001 v 98.78364 c 1.5e-4,2.63555 2.05976,4.73807 4.64674,4.92889 0.1228,0.009 0.22727,0.0708 0.35243,0.0708 h 100.0001 c 0.17266,0 0.31823,-0.0807 0.48628,-0.0977 2.37528,-0.24109 4.21895,-2.09555 4.42918,-4.47983 0.0128,-0.1465 0.0847,-0.27226 0.0847,-0.42219 V 284.99785 227.76517 l 15.00012,9.92187 v 222.31305 c 1.5e-4,2.63588 2.05999,4.73833 4.64726,4.92889 0.12281,0.009 0.22727,0.0708 0.35244,0.0708 h 100.00009 c 0.18022,0 0.33229,-0.0834 0.50747,-0.1018 2.51068,-0.26617 4.4926,-2.31673 4.49275,-4.89789 V 160.00031 60.000212 C 610.00003,57.230436 607.76955,55 604.99976,55 H 504.99967 c -2.76978,0 -4.9997,2.230436 -4.9997,5.000212 v 64.659618 l -15.00012,-5.62498 V 25.000212 C 484.99985,22.230458 482.7694,20 479.99964,20 h -100.0001 c -2.76974,0 -4.99969,2.230458 -4.99969,5.000212 v 47.500012 h -14.9996 V 5.000212 C 360.00025,2.230669 357.76958,0 355.00004,0 h -100.0001 c -2.76955,0 -4.9997,2.230669 -4.9997,5.000212 V 72.500224 H 235.00013 V 25.000212 C 235.00013,22.230685 232.76946,20 229.99991,20 H 129.99982 c -2.76954,0 -4.9997,2.230685 -4.9997,5.000212 V 119.03485 L 110,124.65983 V 60.000212 C 110,57.230713 107.7693,55 104.99979,55 Z m 5.0002116,9.999906 H 100.0001 V 128.40999 L 29.092798,155.0001 H 9.9999064 Z m 125.0001236,-35 h 90.00019 v 42.500318 h -5.00021 c -5.77334,2.07e-4 -9.38201,6.249588 -6.49625,11.249959 l 0.99478,1.722892 -79.49851,29.811615 z m 125.00012,-20 h 90.00019 v 62.500318 h -90.00019 z m 124.99961,20 h 90.00019 v 85.284784 l -79.49851,-29.811615 0.99477,-1.722892 c 2.88577,-5.000371 -0.72291,-11.249752 -6.49624,-11.249959 h -5.00021 z m 125.00012,35 h 90.00019 V 155.0001 h -19.09289 l -70.9073,-26.59011 z M 232.99198,87.499825 H 377.008 L 304.99999,212.22089 Z m -13.4245,6.752559 4.79919,8.312156 -89.36664,40.59907 -9.99991,4.54339 -15.00012,6.81457 -9.9999,4.54288 -46.083494,20.93567 H 34.999931 V 163.46521 L 100.0001,139.08996 110,135.34032 l 15.00012,-5.62498 9.99991,-3.75016 z m 170.86502,0 84.56745,31.712796 9.9999,3.75016 15.00012,5.62498 9.99991,3.74964 65.00016,24.37525 v 16.53491 h -18.91667 l -46.08349,-20.93567 -9.99991,-4.54288 -15.00012,-6.81457 -9.9999,-4.54339 -89.36664,-40.59907 z m -161.04185,17.014466 4.87722,8.44703 -9.26765,5.08134 -90.00019,49.34583 -9.99991,5.48287 -15.00012,8.2243 -9.9999,5.48287 -21.282424,11.66906 H 59.999955 V 188.22133 L 100.0001,170.04931 110,165.50643 l 15.00012,-6.81457 9.99991,-4.54287 90.00019,-40.88743 z m 151.21868,0 4.39043,1.99471 90.00019,40.88743 9.9999,4.54287 15.00012,6.81457 9.99991,4.54288 40.00014,18.17202 v 16.77882 H 531.2823 l -21.28242,-11.66906 -9.99991,-5.48287 -15.00012,-8.2243 -9.9999,-5.48287 -90.00019,-49.34583 -9.26766,-5.08134 z m -141.34021,17.10955 4.93613,8.54986 -9.20512,6.08904 -9.99991,6.61458 -90.00019,59.53177 -9.99991,6.61458 -15.00012,9.92188 -6.50347,4.30206 H 100.0001 84.99998 v -17.03824 l 15.00012,-8.22482 9.9999,-5.48287 15.00012,-8.2243 9.99991,-5.48287 90.00019,-49.34738 9.99991,-5.48287 z m 131.46174,0 4.26899,2.34042 9.99991,5.48287 90.00019,49.34738 9.9999,5.48287 15.00012,8.2243 9.99991,5.48287 L 525,212.96193 v 17.03824 h -15.00012 -3.49643 l -6.50348,-4.30206 -15.00012,-9.92188 -9.9999,-6.61458 -90.00019,-59.53177 -9.99991,-6.61458 -9.20512,-6.08903 z m -121.5161,17.22634 4.96766,8.60361 -4.18218,3.34708 -15.00011,12.00547 -9.99991,8.00313 -90.00019,72.03074 v -28.44219 l 90.00019,-59.53125 9.99991,-6.61406 z m 111.57045,0 14.21464,9.40253 9.99991,6.61406 90.00019,59.53125 v 28.44219 l -90.00019,-72.03074 -9.99991,-8.00313 -14.9996,-12.00495 -4.18269,-3.3476 z m -101.54522,17.36431 4.96197,8.59379 -4.20181,4.09639 -5.00021,4.87464 -4.9997,4.87412 -15.00011,14.62288 -9.99991,9.74825 -72.03385,70.2231 h -17.96634 v -17.59634 l 90.00019,-72.0323 9.99991,-8.00364 15.00011,-12.00547 4.9997,-4.00131 z m 91.51948,0 4.24057,3.39411 5.00021,4.00182 14.9996,12.00496 9.99991,8.00364 90.00019,72.0323 v 17.59634 H 457.0336 l -72.03384,-70.2231 -9.99991,-9.74825 -14.9996,-14.62236 -5.00021,-4.87464 -4.9997,-4.87412 -4.20233,-4.09691 z M 9.9999064,165 H 24.999508 v 20.00033 269.99954 5.2e-4 H 9.9999064 Z m 575.0005636,0 h 14.9996 v 290.00039 h -14.9996 v -5.2e-4 -269.99954 z m -315.63913,15.49673 4.90874,8.50284 -14.26993,17.13384 -5.00021,6.00377 -4.9997,6.00325 -15.00011,18.01027 -9.99991,12.0065 -47.34233,56.84304 h -17.65835 v -17.89193 l 65.00068,-63.36616 9.99991,-9.74824 15.00011,-14.62288 4.9997,-4.87412 5.00021,-4.87464 z m 71.2773,0 9.3617,9.12606 4.9997,4.87412 5.00021,4.87464 14.9996,14.62236 9.99991,9.74824 65.00068,63.36616 v 17.89193 h -17.65835 l -47.34233,-56.84304 -9.99991,-12.0065 -14.9996,-18.00975 -5.00021,-6.00377 -4.9997,-6.00325 -14.27044,-17.13436 z m -305.638709,9.5033 h 14.999601 v 20.00033 244.99951 5.2e-4 H 34.999931 v -5.2e-4 z m 525.000509,0 h 14.9996 v 264.99984 5.2e-4 h -14.9996 v -5.2e-4 -244.99951 z m -280.40304,8.22689 4.79506,8.30492 -24.39231,36.69595 -5.00021,7.52202 -4.9997,7.5215 -15.00011,22.56555 -9.99991,15.04353 -22.68027,34.11988 h -17.32039 v -18.19166 l 40.00066,-48.02807 9.99991,-12.0065 15.00011,-18.01027 4.9997,-6.00326 5.00021,-6.00376 z m 50.80465,0 19.59829,23.53086 4.9997,6.00273 5.00021,6.00377 14.9996,18.00976 9.99991,12.0065 40.00066,48.02807 v 18.19166 h -17.32039 l -22.68027,-34.11988 -9.99991,-15.04353 -14.9996,-22.56503 -5.00021,-7.52202 -4.9997,-7.52151 -24.39282,-36.69646 z M 59.999955,215.00005 h 14.999601 v 20.00033 219.99949 5.2e-4 H 59.999955 v -5.2e-4 z m 475.000465,0 h 14.9996 v 239.99982 5.2e-4 h -14.9996 v -5.2e-4 -219.99949 z m -245.02639,1.1989 4.60489,7.97625 -34.57877,66.8967 -5.00021,9.67331 -4.9997,9.67227 -15.00011,29.01994 -8.04447,15.56287 h -1.95544 -15.00064 v -18.48982 l 15.00064,-22.56659 9.99991,-15.04352 15.00011,-22.56555 4.9997,-7.5215 5.00021,-7.52203 z m 30.05191,0 29.9744,45.09285 4.9997,7.52151 5.00021,7.52202 14.9996,22.56503 9.99991,15.04352 15.00063,22.56659 v 18.48982 h -15.00063 -1.95544 l -8.04447,-15.56287 -14.9996,-29.0189 -5.00021,-9.67331 -4.9997,-9.67228 -34.57928,-66.89773 z m -19.03863,17.35553 c 2.43339,1.53939 5.59196,1.53939 8.02535,0 l 40.98768,79.29593 V 454.99987 H 260.00015 V 312.84938 Z m -215.98733,6.4456 h 14.999601 v 214.99979 5.2e-4 H 84.99998 v -5.2e-4 z m 425.00041,0 H 525 v 214.99979 5.2e-4 h -14.99961 v -5.2e-4 z m -375.00088,50.00005 h 5.2e-4 14.9996 v 20.00033 144.99941 5.2e-4 h -15.00012 z m 325.00084,0 h 14.9996 5.1e-4 v 165.00026 h -15.00011 v -5.2e-4 -144.99941 z m -300.00081,25.00002 h 15.00011 v 19.99981 119.99991 5.2e-4 h -15.00011 v -5.2e-4 z m 275.00078,0 h 15.00012 v 139.99972 5.2e-4 h -15.00012 v -5.2e-4 -119.99991 z m -250.00076,25.00002 h 15.00012 v 19.99982 94.99988 5.2e-4 h -15.00012 v -5.2e-4 z m 225.00074,0 h 15.00012 v 114.9997 5.2e-4 H 410.0003 v -5.2e-4 -94.99988 z M 209.99958,365.0002 h 15.00012 v 89.99967 5.2e-4 h -15.00012 v -5.2e-4 z m 175.00069,0 h 15.00012 v 89.99967 5.2e-4 h -15.00012 v -5.2e-4 z"
       sodipodi:nodetypes="sscccsscccccsccsscccccssssccccssscssccccsssccccsssccssssccssssccssssccssscccccccccccccccccccccccccccccccccccccccccccccccccccccccccccccccccccccccccccccccccccccccccccccccccccccccccccccccccccccccccccccccccccccccccccccccccccccccccccccccccccccccccccccccccccccccccccccccccccccccccccccccccccccccccccccccccccccccccccccccccccccccccccccccccccccccccccccccccccccccccccccccccccccccccccccccccccccccccccccccccccccccccccccccccccccccccccccccccccccccccccccccccccccccccccccccccccccccccccccccccccccccc" />
  </g>
</svg>
