<?xml version="1.0" encoding="UTF-8" standalone="no"?>
<!-- Created with Inkscape (http://www.inkscape.org/) -->

<svg
   width="110mm"
   height="146mm"
   viewBox="0 0 110 146"
   version="1.1"
   id="svg1"
   xml:space="preserve"
   inkscape:version="1.3.1 (91b66b0783, 2023-11-16)"
   sodipodi:docname="zig-zag.svg"
   xmlns:inkscape="http://www.inkscape.org/namespaces/inkscape"
   xmlns:sodipodi="http://sodipodi.sourceforge.net/DTD/sodipodi-0.dtd"
   xmlns:xlink="http://www.w3.org/1999/xlink"
   xmlns="http://www.w3.org/2000/svg"
   xmlns:svg="http://www.w3.org/2000/svg"><sodipodi:namedview
     id="namedview1"
     pagecolor="#ffffff"
     bordercolor="#000000"
     borderopacity="0.25"
     inkscape:showpageshadow="2"
     inkscape:pageopacity="0.0"
     inkscape:pagecheckerboard="0"
     inkscape:deskcolor="#d1d1d1"
     inkscape:document-units="mm"
     inkscape:zoom="1.3980392"
     inkscape:cx="229.60729"
     inkscape:cy="249.99299"
     inkscape:current-layer="layer1" /><defs
     id="defs1" /><g
     inkscape:label="TRACE"
     inkscape:groupmode="layer"
     id="layer1"
     style="display:none"><g
       id="g13"
       transform="translate(584.53532,-263.99665)"
       inkscape:label="corner"><path
         d="m 88.000019,-37.906213 v 8.000002 h 7.999806 v -8.000002 z"
         style="fill:#0b5cd5;stroke-width:4.99999;stroke-linecap:square;stroke-linejoin:round;paint-order:markers fill stroke"
         id="path13"
         sodipodi:nodetypes="ccccc" /><path
         d="M 95.999825,50.093789 H 8.0000194 V -37.906213 H 0 v 96.000341 h 95.999825 z"
         style="fill:#0b5cd5;stroke-width:4.99999;stroke-linecap:square;stroke-linejoin:round;paint-order:markers fill stroke"
         id="path5"
         sodipodi:nodetypes="ccccccc" /><path
         d="m 88.000019,-37.906213 h -8 v 16.000002 h 15.999806 v -8 h -7.999806 z"
         style="fill:#05285b;stroke-linecap:square;paint-order:markers fill stroke"
         id="path12"
         sodipodi:nodetypes="ccccccc" /><path
         d="m 95.999825,50.093789 v -8 H 16.189273 L 16.000019,-37.906213 H 8.0000194 v 88.000002 z"
         style="fill:#05285b;stroke-linecap:square;paint-order:markers fill stroke"
         id="path6"
         sodipodi:nodetypes="ccccccc" /><path
         d="M 64.000019,-37.906213 V -5.9062106 H 95.999825 V -21.906211 H 80.000019 v -16.000002 z"
         style="fill:#96242f;stroke-linecap:square;paint-order:markers fill stroke"
         id="path11"
         sodipodi:nodetypes="ccccccc" /><path
         d="m 16.000019,-37.906213 0.189254,80.000002 h 79.810552 v -16 H 32.000019 v -64.000002 z"
         style="fill:#96242f;stroke-linecap:square;paint-order:markers fill stroke"
         id="path7"
         sodipodi:nodetypes="ccccccc" /><path
         d="m 56.000019,-37.906213 -9.7e-5,40.0000024 h 39.999903 v -8 H 64.000019 V -37.906213 Z"
         style="fill:#05285b;stroke-linecap:square;paint-order:markers fill stroke"
         id="path10"
         sodipodi:nodetypes="ccccccc" /><path
         d="m 32.000019,-37.906213 v 64.000002 h 63.999806 v -8 H 40.000019 v -56.000002 z"
         style="fill:#05285b;stroke-linecap:square;paint-order:markers fill stroke"
         id="path8"
         sodipodi:nodetypes="ccccccc" /><path
         d="M 40.000019,-37.906213 V 18.093789 H 95.999825 V 2.0937894 H 55.999922 l 9.7e-5,-40.0000024 z"
         style="fill:#a8cbfe;stroke-linecap:square;paint-order:markers fill stroke"
         id="path9"
         sodipodi:nodetypes="ccccccc" /></g><g
       id="g115"
       inkscape:label="line-tile"
       transform="translate(277.63183,-980.5205)"><path
         d="m 394.90386,817.50566 v 14.00017 34 h -3.5e-4 v 33.99999 13.99966 h 8.00006 v -13.99966 -3.00033 -11.99979 -5.00021 -13.99966 -14.00018 -5.00021 -11.99979 -5.00021 -11.99978 h -3.4e-4 z"
         style="fill:#0b5cd5;stroke-width:4.99999;stroke-linecap:square;stroke-linejoin:round;paint-order:markers fill stroke"
         id="path115" /><path
         d="m 386.90341,817.50566 v 14.00017 34 h -8.3e-4 v 33.99999 13.99966 h 8.00036 v -13.99966 -33.99999 h 8.3e-4 v -34 -14.00017 z"
         style="fill:#05285b;stroke-width:4.99999;stroke-linecap:square;stroke-linejoin:round;paint-order:markers fill stroke"
         id="path114" /><path
         d="m 370.90421,817.50566 v 14.00017 34 h -6.8e-4 v 33.99999 13.99966 h 15.99931 v -13.99966 -33.99999 h 6.9e-4 v -34 -14.00017 z"
         style="fill:#96242f;stroke-width:4.99999;stroke-linecap:square;stroke-linejoin:round;paint-order:markers fill stroke"
         id="path113" /><path
         d="m 362.90434,817.50566 v 14.00017 34 h -8.3e-4 v 47.99965 h 8.00039 v -13.99966 -33.99999 h 8.2e-4 v -34 -14.00017 z"
         style="fill:#05285b;stroke-width:4.99999;stroke-linecap:square;stroke-linejoin:round;paint-order:markers fill stroke"
         id="path112" /><path
         d="m 346.90351,817.50566 v 14.00017 h 3e-4 v 34 47.99965 h 15.9994 v -47.99965 -34 h 3e-4 v -14.00017 z"
         style="fill:#a8cbfe;stroke-width:4.99999;stroke-linecap:square;stroke-linejoin:round;paint-order:markers fill stroke"
         id="path111" /><path
         d="m 338.90314,817.50566 v 14.00017 34 h 8.3e-4 v 33.99999 13.99966 h 7.99871 8.3e-4 v -47.99965 h -8.3e-4 v -34 -14.00017 z"
         style="fill:#05285b;stroke-width:4.99999;stroke-linecap:square;stroke-linejoin:round;paint-order:markers fill stroke"
         id="path110" /><path
         d="m 322.90267,817.50566 v 14.00017 34 h 6.8e-4 v 33.99999 13.99966 h 16.00031 6.9e-4 v -13.99966 -33.99999 h -6.9e-4 v -34 -14.00017 z"
         style="fill:#96242f;stroke-width:5;stroke-linecap:square;stroke-linejoin:round;paint-order:markers fill stroke"
         id="path109" /><path
         d="m 314.90355,817.50566 v 14.00017 34 h 8.1e-4 v 33.99999 13.99966 h 7.99831 8.2e-4 v -13.99966 -33.99999 h -8.2e-4 v -34 -14.00017 z"
         style="fill:#05285b;stroke-width:4.99999;stroke-linecap:square;stroke-linejoin:round;paint-order:markers fill stroke"
         id="path108" /><path
         d="m 306.90323,817.50566 v 11.99978 5.00021 11.99979 5.00021 14.00018 13.99966 5.00021 11.99979 3.00033 1.99988 11.99978 h 8.00022 3.4e-4 v -13.99966 -33.99999 h -3.4e-4 v -34 -14.00017 h -7.99988 z"
         style="fill:#0b5cd5;stroke-width:4.99999;stroke-linecap:square;stroke-linejoin:round;paint-order:markers fill stroke"
         id="path107" /></g><g
       id="g206"
       transform="translate(0,138.88802)"><rect
         style="fill:#975cf6;stroke:none;stroke-width:62.0001;stroke-linecap:square;stroke-linejoin:miter;stroke-dasharray:none;paint-order:markers fill stroke"
         id="rect195"
         width="8"
         height="8"
         x="584.53534"
         y="-309.90286" /><rect
         style="fill:#975cf6;stroke:none;stroke-width:62.0001;stroke-linecap:square;stroke-linejoin:miter;stroke-dasharray:none;paint-order:markers fill stroke"
         id="rect196"
         width="8"
         height="8"
         x="592.53534"
         y="-309.90286" /><rect
         style="fill:#975cf6;stroke:none;stroke-width:62.0001;stroke-linecap:square;stroke-linejoin:miter;stroke-dasharray:none;paint-order:markers fill stroke"
         id="rect197"
         width="8"
         height="8"
         x="600.53534"
         y="-309.90286" /><rect
         style="fill:#975cf6;stroke:none;stroke-width:62.0001;stroke-linecap:square;stroke-linejoin:miter;stroke-dasharray:none;paint-order:markers fill stroke"
         id="rect198"
         width="8"
         height="8"
         x="608.53534"
         y="-309.90286" /><rect
         style="fill:#975cf6;stroke:none;stroke-width:62.0001;stroke-linecap:square;stroke-linejoin:miter;stroke-dasharray:none;paint-order:markers fill stroke"
         id="rect199"
         width="8"
         height="8"
         x="616.53534"
         y="-309.90286" /><rect
         style="fill:#975cf6;stroke:none;stroke-width:62.0001;stroke-linecap:square;stroke-linejoin:miter;stroke-dasharray:none;paint-order:markers fill stroke"
         id="rect200"
         width="8"
         height="8"
         x="624.53534"
         y="-309.90286" /><rect
         style="fill:#975cf6;stroke:none;stroke-width:62.0001;stroke-linecap:square;stroke-linejoin:miter;stroke-dasharray:none;paint-order:markers fill stroke"
         id="rect201"
         width="8"
         height="8"
         x="632.53534"
         y="-309.90286" /><rect
         style="fill:#975cf6;stroke:none;stroke-width:62.0001;stroke-linecap:square;stroke-linejoin:miter;stroke-dasharray:none;paint-order:markers fill stroke"
         id="rect202"
         width="8"
         height="8"
         x="640.53534"
         y="-309.90286" /><rect
         style="fill:#975cf6;stroke:none;stroke-width:62.0001;stroke-linecap:square;stroke-linejoin:miter;stroke-dasharray:none;paint-order:markers fill stroke"
         id="rect203"
         width="8"
         height="8"
         x="648.53534"
         y="-309.90286" /><rect
         style="fill:#975cf6;stroke:none;stroke-width:62.0001;stroke-linecap:square;stroke-linejoin:miter;stroke-dasharray:none;paint-order:markers fill stroke"
         id="rect204"
         width="8"
         height="8"
         x="656.53534"
         y="-309.90286" /><rect
         style="fill:#975cf6;stroke:none;stroke-width:62.0001;stroke-linecap:square;stroke-linejoin:miter;stroke-dasharray:none;paint-order:markers fill stroke"
         id="rect205"
         width="8"
         height="8"
         x="664.53534"
         y="-309.90286" /><rect
         style="fill:#975cf6;stroke:none;stroke-width:62.0001;stroke-linecap:square;stroke-linejoin:miter;stroke-dasharray:none;paint-order:markers fill stroke"
         id="rect206"
         width="8"
         height="8"
         x="672.53534"
         y="-309.90286" /></g></g><g
     inkscape:groupmode="layer"
     id="layer3"
     inkscape:label="BUILD"
     style="display:none"><g
       id="g195"><use
         x="0"
         y="0"
         xlink:href="#g13"
         id="use178"
         transform="rotate(90,-47.530604,-133.06536)" /><use
         x="0"
         y="0"
         xlink:href="#g13"
         id="use179"
         transform="rotate(-90,801.37274,474.16332)" /><use
         x="0"
         y="0"
         xlink:href="#g13"
         id="use180"
         transform="rotate(180,400.92104,146.54889)" /><use
         x="0"
         y="0"
         xlink:href="#g13"
         id="use181"
         transform="translate(-463.2284,896.90351)" /><use
         x="0"
         y="0"
         xlink:href="#g13"
         id="use125"
         transform="translate(-751.2293,896.9035)" /><use
         x="0"
         y="0"
         xlink:href="#g115"
         id="use129"
         transform="rotate(90,-74.087114,-63.621536)" /><use
         x="0"
         y="0"
         xlink:href="#g115"
         id="use122"
         transform="rotate(90,69.912876,80.378454)" /><use
         x="0"
         y="0"
         xlink:href="#g13"
         id="use121"
         transform="rotate(-90,945.37267,330.16338)" /><use
         x="0"
         y="0"
         xlink:href="#g13"
         id="use160"
         transform="rotate(90,-143.53092,-229.0657)" /><use
         x="0"
         y="0"
         xlink:href="#g13"
         id="use96"
         transform="matrix(0,-1,-1,0,11.40369,1179.5357)" /><use
         x="0"
         y="0"
         xlink:href="#g13"
         id="use133"
         transform="translate(-751.22917,704.90307)" /><use
         x="0"
         y="0"
         xlink:href="#g13"
         id="use132"
         transform="rotate(180,304.92082,98.54884)" /><use
         x="0"
         y="0"
         xlink:href="#g13"
         id="use82"
         transform="matrix(-1,0,0,1,993.84195,704.90307)" /><use
         x="0"
         y="0"
         xlink:href="#g13"
         id="use83"
         transform="matrix(1,0,0,-1,-367.22883,197.09769)" /><use
         x="0"
         y="0"
         xlink:href="#g13"
         id="use131"
         transform="rotate(90,-47.530834,-325.06579)" /><use
         x="0"
         y="0"
         xlink:href="#g13"
         id="use134"
         transform="rotate(-90,609.37231,378.16322)" /><use
         x="0"
         y="0"
         xlink:href="#g13"
         id="use80"
         transform="matrix(0,1,1,0,615.20942,-277.53494)" /><use
         x="0"
         y="0"
         xlink:href="#g13"
         id="use77"
         transform="matrix(0,-1,-1,0,11.4037,987.53552)"
         style="display:inline" /><use
         x="0"
         y="0"
         xlink:href="#g13"
         id="use147"
         transform="translate(-751.22917,512.9029)" /><use
         x="0"
         y="0"
         xlink:href="#g13"
         id="use150"
         transform="rotate(180,304.92082,2.54876)" /><use
         x="0"
         y="0"
         xlink:href="#g13"
         id="use78"
         transform="matrix(-1,0,0,1,993.84195,512.9029)" /><use
         x="0"
         y="0"
         xlink:href="#g13"
         id="use79"
         transform="matrix(1,0,0,-1,-367.22883,5.09752)"
         style="display:inline" /><use
         x="0"
         y="0"
         xlink:href="#g13"
         id="use151"
         transform="rotate(90,48.469446,-421.06593)" /><use
         x="0"
         y="0"
         xlink:href="#g13"
         id="use155"
         transform="rotate(180,496.92105,-45.45141)"
         style="display:inline" /><use
         x="0"
         y="0"
         xlink:href="#g13"
         id="use177"
         transform="rotate(-90,705.3724,474.16331)" /><use
         x="0"
         y="0"
         xlink:href="#g13"
         id="use182"
         transform="matrix(0,1,1,0,615.20998,-85.534772)" /><use
         x="0"
         y="0"
         xlink:href="#g13"
         id="use187"
         transform="rotate(-90,513.3721,186.16268)" /><use
         x="0"
         y="0"
         xlink:href="#g13"
         id="use188"
         transform="translate(-463.22839,320.90221)" /><use
         x="0"
         y="0"
         xlink:href="#g13"
         id="use189"
         transform="rotate(90,240.46977,-421.06574)" /><use
         x="0"
         y="0"
         xlink:href="#g13"
         id="use190"
         transform="rotate(180,400.92104,-141.4515)" /><use
         x="0"
         y="0"
         xlink:href="#g13"
         id="use191"
         transform="translate(-367.22853,416.90255)" /><use
         x="0"
         y="0"
         xlink:href="#g13"
         id="use192"
         transform="rotate(180,448.92097,-93.451584)" /><use
         x="0"
         y="0"
         xlink:href="#g13"
         id="use193"
         transform="matrix(-1,0,0,1,609.84177,416.90255)" /><use
         x="0"
         y="0"
         xlink:href="#g13"
         id="use194"
         transform="matrix(1,0,0,-1,-655.2287,-186.90317)" /><use
         x="0"
         y="0"
         xlink:href="#g13"
         id="use195"
         transform="rotate(180,448.92097,-93.451584)" /></g><path
       d="m 767.49198,-11.411738 v 86.47426 H 708.13183 V 460.52615 h 59.36015 v 86.47431 h 73.28248 V 460.52615 H 900.1316 V 75.062522 h -59.35714 v -86.47426 z"
       style="display:none;fill:#afecda;stroke-width:10;stroke-linecap:round;stroke-linejoin:round;paint-order:stroke fill markers"
       id="path195" /></g><g
     inkscape:groupmode="layer"
     id="g254"
     inkscape:label="LASER"
     style="display:inline"><g
       id="g573"
       inkscape:label="original"
       style="display:none"><path
         id="path572"
         style="color:#000000;fill:#0b5cd5;stroke-linecap:round;stroke-linejoin:round;-inkscape-stroke:none;paint-order:markers fill stroke"
         d="m 25.306466,-81.000224 a 4.0004,4.0004 0 0 0 -3.999756,4.000273 v 92.000069 h -92.000069 a 4.0004,4.0004 0 0 0 -3.999756,3.999756 v 92.000066 h -92.000065 a 4.0004,4.0004 0 0 0 -4.00028,4.00028 v 95.99982 95.99983 96.00034 95.99982 95.99983 96.00189 a 4.0004,4.0004 0 0 0 4.00028,4.00027 h 95.997754 a 4.0004,4.0004 0 0 0 0.0021,0 h 14.000179 2.999817 12.000301 4.999694 14.00018 13.9996618 5.0002116 11.9997843 5.0002113 11.999785 a 4.0004,4.0004 0 0 0 0.0041,-0.002 h 95.992071 a 4.0004,4.0004 0 0 0 0.004,0.002 h 95.99982 14.00018 2.99982 12.0003 4.99969 14.00018 14.00018 4.9997 12.0003 4.99969 12.0003 a 4.0004,4.0004 0 0 0 0.004,-0.002 h 95.99621 a 4.0004,4.0004 0 0 0 4.00027,-3.99976 v -96.0004 -95.99983 -95.99982 -96.00034 -95.99983 -96.00034 a 4.0004,4.0004 0 0 0 -4.00027,-3.99976 H 317.30673 V 18.999874 a 4.0004,4.0004 0 0 0 -3.99976,-3.999756 h -92.00006 v -92.000069 a 4.0004,4.0004 0 0 0 -4.00028,-4.000273 h -95.99982 z m 8.000545,12.000301 h 87.999799 87.99979 v 87.99928 h 5.2e-4 v 8.000029 h 7.99951 v 5.16e-4 h 87.9998 V 114.9997 h 5.2e-4 v 8.00003 h 7.99951 V 127 h 5.1e-4 v -3.99976 h 87.9998 v 87.9998 87.9998 h -87.9998 v -3.99976 h -5.1e-4 v 4.00027 h -8.00003 v 8.00003 8.00003 h 8.00003 88.00031 V 403.00021 491 h -87.9998 v -3.99975 h -5.1e-4 v 4.00027 h -8.00003 v 8.00003 8.00003 h 8.00003 v 3.99924 h 5.1e-4 v -3.99924 h 88.00032 v 87.99979 h -4.00079 v 5.2e-4 h 3.99975 v 87.9998 h -87.99979 v -4.00079 a 4.0004,4.0004 0 0 0 -5.2e-4,5.2e-4 v 4.00078 h -14.00018 -33.99999 v -0.001 h -33.99999 -13.99915 v 5.2e-4 h -87.99979 v -87.9998 h 3.99975 v -5.2e-4 h -3.99975 v -7.99951 h -8.00003 v -5.1e-4 h -8.00003 v 8.00002 h -4.00027 v 5.2e-4 h 4.00027 v 87.9998 H 25.306466 v -4.00079 a 4.0004,4.0004 0 0 0 -5.17e-4,5.2e-4 v 4.00078 H 11.30577 -22.694222 v -10e-4 h -33.999992 -13.999662 v -4.00027 a 4.0004,4.0004 0 0 0 -5.17e-4,0 v 4.00079 h -87.999797 v -87.9998 h 4.00079 v -5.2e-4 h -4.00027 v -87.99979 h 87.999794 8.000028 v -8.00003 -8.00003 h -7.999511 v -4.00027 h -5.17e-4 V 491 h -87.999794 v -87.99979 -87.9998 h 87.999794 8.000028 v -8.00003 -8.00003 h -7.999511 v -4.00027 h -5.17e-4 v 3.99976 h -87.999794 v -87.9998 h 4.00027 v -5.2e-4 h -4.00027 v -87.99979 h 87.999794 V 127 h 5.17e-4 v -4.00027 h 8.000028 V 114.9997 26.999902 h 87.999797 v -5.16e-4 h 8.000028 v -7.999512 h 5.17e-4 z m 79.999769,79.999768 v 8.000029 87.999796 H 25.306466 17.306437 v 8.00003 87.9998 h -87.999796 v -3.99924 h -5.17e-4 v 3.99975 h -7.999512 v 7.99951 h -3.999756 v 5.2e-4 h 3.999239 v 8.00003 h 8.000029 v 3.99976 h 5.17e-4 v -3.99924 h 87.999796 v 87.99979 87.9998 h -88.000313 -8.000029 v 8.00003 8.00003 h 8.000029 v 3.99975 h 5.17e-4 v -3.99924 h 87.999796 v 87.9998 87.9998 h -88.000313 -8.000029 v 8.00002 h -3.999239 v 5.2e-4 h 3.999239 v 7.99951 h 7.999512 v 4.00079 a 4.0004,4.0004 0 0 0 5.17e-4,5.2e-4 v -3.99976 h 13.999662 33.999992 v -10e-4 H 11.30577 25.305949 v 3.99924 h 5.17e-4 v -3.99924 h 8.000028 v -8.00003 h 4.000273 v -5.2e-4 h -3.999756 v -87.99979 h 87.999799 87.99979 v 87.99979 h 5.2e-4 v 7.99952 h 7.99951 v 0.002 h 13.99915 33.99999 v -0.001 h 33.99999 14.00018 v 3.99924 h 5.2e-4 v -3.99924 h 8.00003 v -8.00003 h 4.00027 v -5.2e-4 H 321.307 v -8.00002 h -8.00003 v -4.00028 h -5.1e-4 v 4.00028 h -87.9998 v -87.9998 -87.9998 h 87.9998 v 3.99924 h 5.1e-4 v -3.99975 h 7.99952 v -8.00003 -8.00003 h -8.00003 -87.9998 v -87.9998 -87.99979 h 87.9998 v 3.99924 h 5.1e-4 v -3.99976 h 7.99952 v -8.00003 h 5.1e-4 v -8.00003 h -8.00003 v -3.99975 h -5.1e-4 v 3.99924 h -87.9998 v -87.9998 -8.00003 h -8.00003 v -5.2e-4 H 129.30684 V 18.999874 10.999845 h -8.00003 z M 29.306738,118.99997 h 92.000072 92.00007 v 92.00007 95.99983 96.00034 91.99955 H 121.30681 29.306738 v -91.99955 -96.00034 -95.99983 z" /><path
         id="path562"
         style="display:inline;fill:#05285b;stroke-linecap:square;paint-order:markers fill stroke"
         d="m 33.307011,-68.999923 v 87.999797 h -5.17e-4 v 7.999512 h -8.000028 v 5.16e-4 h -87.999797 v 87.999798 8.00003 h -8.000028 v 8.00003 h 15.99954 V 114.9997 h 5.17e-4 l 0.189135,-79.999769 h 79.810633 v -5.17e-4 h 16.000057 v -15.99954 h 5.16e-4 v -79.810632 l 79.999771,-0.189653 v 5.17e-4 h 79.81063 l 0.18914,79.999768 h 5.1e-4 v 15.99954 h 15.99954 v 5.17e-4 h 79.81063 l 0.18914,79.999769 h 5.2e-4 v 16.00006 h 15.99954 v -8.00003 h -7.99951 v -8.00003 h -5.2e-4 V 26.999902 h -87.9998 v -5.16e-4 h -7.99951 v -8.000029 h -5.2e-4 v -87.99928 h -87.99979 z m 24.000085,23.999569 V 18.999874 H 57.30658 V 50.999471 H 25.306466 -38.693245 V 114.9997 h -5.17e-4 v 32.00011 h -31.999597 v 8.00003 h 40.000142 l -5.17e-4,-40.00014 h 5.17e-4 V 58.9995 H 25.306466 65.306608 V 18.999874 h 5.17e-4 v -56.0002 h 55.999685 55.99968 v 56.0002 h 5.2e-4 V 58.9995 h 39.99962 56.0002 v 56.0002 40.00014 h 39.99963 v -8.00003 h -31.9996 V 114.9997 h -5.2e-4 V 50.999471 H 217.30663 185.30704 V 18.999357 h -5.2e-4 v -63.999711 h -63.99971 z m 23.999569,24.000085 V 18.999874 74.999556 H 25.306466 -14.693677 l 5.17e-4,40.000144 h -5.17e-4 v 56.0002 h -55.999682 v 8.00003 H -6.6936483 V 114.9997 h 5.168e-4 V 82.999585 H 25.306466 89.306694 V 18.999874 -13.00024 h 32.000116 32.00011 v 32.000114 63.999711 h 63.99971 32.00012 v 32.000115 64.00023 h 63.99971 V 170.9999 H 257.30677 V 114.9997 74.999556 H 217.30663 161.30695 V 18.999357 -21.000269 H 121.30681 Z M 105.30675,2.9998169 V 18.999874 98.809989 L 25.306466,98.999642 H 9.3064087 V 114.9997 L 9.1172729,194.99947 H -70.693359 v 8.00003 h 87.999796 v -87.9998 -8.00003 h 8.000029 88.000314 V 18.999874 10.999845 h 8.00003 8.00003 v 8.000029 87.999276 h 87.99979 v 5.2e-4 h 8.00003 v 8.00003 87.9998 h 87.9998 v -8.00003 H 233.49583 L 233.30669,114.9997 V 98.999642 h -16.00006 v -5.17e-4 H 137.496 L 137.30686,18.999357 V 2.9998169 H 121.30681 Z M -158.69367,122.99973 v 87.99979 h 8.00003 v -79.81011 l 79.999764,-0.18965 v -8.00003 z m 472.00064,5.1e-4 v 8.00003 h 79.81064 l 0.18913,79.99977 -0.18913,79.99977 h -79.81064 v 8.00003 h 87.9998 v -87.9998 -87.9998 z m -448.00056,23.99957 v 63.99971 h 8.00003 v -55.99968 h 55.999684 v -8.00003 z m 448.00056,0 v 8.00003 h 55.99969 v 56.0002 56.0002 h -55.99969 v 8.00003 h 63.99972 V 211.00004 146.99981 Z M -110.6935,170.9999 v 39.99962 h 8.00003 v -31.99959 h 31.999594 v -8.00003 z m 424.00047,0 v 8.00003 h 31.9996 v 32.00011 32.00011 h -31.9996 v 8.00003 h 39.99963 v -40.00014 l 5.2e-4,-40.00014 z m -400.000386,24.00008 v 15.99954 h 8.000028 v -7.99951 h 7.999512 v -8.00003 z m 400.000386,0 v 8.00003 h 8.00003 v 8.00003 h -5.1e-4 v 8.00003 h -7.99952 v 8.00003 h 15.99954 v -16.00006 -16.00006 z m -472.00064,16.00006 v 87.9998 h 87.999794 v -8.00003 h -79.810634 l -0.18913,-79.99977 z m 24.00008,0 v 64.00023 h 63.999714 v -8.00003 h -56.000204 v -56.0002 z m 23.99957,0 v 40.00014 h 40.000144 v -8.00003 h -32.000114 v -32.00011 z m 24.000087,0 v 16.00006 h 16.000057 v -8.00003 h -8.000029 v -8.00003 z m 16.000574,8.00055 v 8.00002 H 9.1172729 l 0.1891358,79.99977 v 79.81063 l -80.0002847,0.18914 h -16.000057 v 16.00006 16.00005 h 16.000057 v -8.00002 h -8.000029 v -8.00003 -8.00003 h 8.000029 88.000313 v -87.9998 -87.99979 z m 296.000019,0 v 87.99979 87.9998 h 87.9998 8.00003 v 8.00003 8.00003 h -7.99952 v 8.00002 h 15.99954 v -16.00005 -16.00006 h -16.00005 l -79.99977,-0.18914 v -79.81063 l 0.18914,-79.99977 h 79.81063 v -8.00002 z m -296.000019,23.99956 v 8.00003 h 55.999682 v 56.0002 55.99969 h -56.000199 v 5.1e-4 l -39.999624,-5.1e-4 v 40.00014 h -5.2e-4 v 40.00014 h 40.000144 v -8.00003 h -32.000114 v -32.00011 -31.9996 h 32.000114 v -5.2e-4 h 64.0002277 v -63.99971 -64.00023 z m 320.000109,0 v 64.00023 63.99971 h 63.99971 v 5.2e-4 h 32.00011 v 31.9996 32.00011 h -31.9996 v 8.00003 h 39.99963 v -40.00014 -40.00014 l -40.00014,5.1e-4 v -5.1e-4 h -55.99969 v -55.99969 h -5.1e-4 v -56.0002 h 56.0002 v -8.00003 z m -320.000109,24.00009 v 8.00003 h 31.999597 v 32.00011 31.9996 h -32.000114 v 5.2e-4 h -63.999714 v 63.99971 64.00023 h 63.999714 v -8.00003 h -56.000204 v -56.0002 h 5.2e-4 v -55.99969 h 55.999684 v -5.1e-4 l 40.000142,5.1e-4 v -40.00014 -40.00014 z m 343.999679,0 v 40.00014 40.00014 l 40.00014,-5.1e-4 v 5.1e-4 h 56.0002 v 55.99969 56.0002 h -55.99969 v 8.00003 h 63.99972 V 403.00021 339.0005 h -64.00023 v -5.2e-4 h -32.00012 v -31.9996 -32.00011 h 32.00012 v -8.00003 z m -343.999679,24.00009 v 8.00002 h 7.999511 v 8.00003 8.00003 h -8.000028 -87.999794 V 403.00021 491 h 87.999794 v -8.00002 h -79.810634 l -0.18913,-79.99977 v -79.81063 l 79.999764,-0.18914 h 16.000057 v -16.00006 -16.00005 z m 367.999759,0 v 16.00005 15.99954 h 16.00006 v 5.2e-4 l 80.00028,0.18914 v 79.81063 l -0.18913,79.99977 H 313.30697 V 491 h 87.9998 v -87.99979 -87.9998 h -88.00031 -8.00003 v -8.00003 -8.00003 h 8.00003 v -8.00002 z M -70.693359,411.00075 v 8.00003 H 9.1172729 l 0.1891358,79.99977 v 79.81063 l -80.0002847,0.18914 h -16.000057 v 16.00005 h 8.000028 v -8.00002 h 8.000029 88.000313 v -87.9998 -87.9998 z m 296.000019,0 v 87.9998 87.9998 h 87.9998 v -8.00003 l -79.99977,-0.18914 v -79.81063 l 0.18914,-79.99977 h 79.81063 v -8.00003 z m -296.000019,23.99957 v 8.00003 h 55.999682 v 56.0002 55.99968 h -56.000199 v 5.2e-4 l -39.999624,-5.2e-4 v 40.00014 h 7.99951 v -31.99959 h 32.000114 v -5.2e-4 h 64.0002277 v -63.99971 -64.00023 z m 320.000109,0 v 64.00023 63.99971 h 63.99971 v -8.00003 h -55.99969 v -55.99968 h -5.1e-4 v -56.0002 h 56.0002 v -8.00003 z m -320.000109,24.00009 v 8.00003 h 31.999597 v 32.00011 31.9996 h -32.000114 v 5.1e-4 h -63.999714 v 63.99971 h 8.00003 v -55.99968 h 55.999684 v -5.2e-4 l 40.000142,5.2e-4 v -40.00014 -40.00014 z m 343.999679,0 v 40.00014 40.00014 l 40.00014,-5.2e-4 v -8.00002 h -32.00012 v -31.9996 -32.00011 h 32.00012 v -8.00003 z m -343.999679,24.00008 v 8.00003 h 7.999511 v 8.00003 8.00003 h -8.000028 -87.999794 v 87.99979 h 8.00003 v -79.81063 l 79.999764,-0.18913 h 16.000057 v -16.00006 -16.00006 z m 367.999759,0 v 16.00006 16.00006 h 16.00006 v -8.00003 h -8.00003 v -8.00003 -8.00003 h 8.00003 v -8.00003 z M 33.307011,507.00058 v 87.99979 h 8.000028 v -79.81063 l 79.999771,-0.18913 h 79.81063 l 0.18914,79.99976 h 8.00002 v -87.99979 h -87.99979 z m 279.999959,0 v 8.00003 l 80.00029,0.18913 v 79.81063 h 8.00003 V 507.00058 Z M 57.307096,531.00066 v 63.99971 h 8.000029 v -55.99968 h 55.999685 55.99968 v 55.99968 h 8.00003 v -63.99971 h -63.99971 z m 255.999874,0 v 8.00003 h 56.0002 v 55.99968 h 8.00003 V 531.00066 Z M 81.306665,555.00023 v 40.00014 h 8.000029 v -31.99959 h 32.000116 32.00011 v 31.99959 h 8.00003 v -39.99962 h -40.00014 z m 272.000455,0 -40.00015,5.2e-4 v 8.00003 h 32.00012 v 31.99959 h 8.00003 z m -40.00015,24.00009 v 8.00003 h 8.00003 v 8.00002 h 8.00003 v -16.00005 z m -208.00022,5.1e-4 v 15.99954 h 8.00003 v -8.00002 h 8.00003 v 5.1e-4 h 8.00003 v 7.99951 h 8.00002 v -15.99954 h -16.00005 z m -264.00094,16.00006 v 87.9998 h 87.999797 v -8.00003 h -79.810117 l -0.18965,-79.99977 z m 24.00009,0 v 63.99971 h 63.999707 v -8.00003 h -55.999687 v -55.99968 z m 24.00008,0 v 39.99963 h 39.999627 v -8.00003 h -31.999597 v -31.9996 z m 24.000087,0 v 15.99954 h 15.99954 v -8.00003 h -7.999512 v -7.99951 z m 120.000427,0 v 8.00003 h -8.000028 v 8.00003 h 16.000057 v -16.00006 z m 24.000086,0 v 31.9996 H 25.306466 v 8.00003 l 40.000142,5.1e-4 v -40.00014 z m 24.000085,0 v 55.99968 H 25.306466 v 8.00003 h 64.000228 v -63.99971 z m 24.000085,0 v 79.81063 l -80.000284,0.18914 v 8.00003 h 88.000314 v -87.9998 z m 24.00009,0 v 87.9998 h 87.99979 v -5.2e-4 h 13.99915 33.99999 v 10e-4 h 33.99999 14.00018 v -8.00054 h -14.00018 -33.99999 v -5.2e-4 h -33.99999 -13.99966 v 5.2e-4 H 137.496 l -0.18914,-79.99977 z m 24.00008,0 v 63.99971 h 63.9992 v 5.2e-4 h 13.99966 33.99999 v 10e-4 h 33.99999 14.00018 v -8.00054 h -14.00018 -33.99999 v -5.2e-4 h -47.99914 v -5.2e-4 h -55.99968 v -55.99968 z m 24.00009,0 v 39.99963 h 39.99911 v 5.1e-4 h 47.99965 V 635 h 33.99999 14.00018 v -7.99951 h -14.00018 -33.99999 v 10e-4 h -33.99999 -13.99915 v -10e-4 h -31.99959 v -31.9996 z m 24.00008,0 v 15.99954 h 15.99903 v 5.2e-4 h 13.99966 33.99999 v -10e-4 h 33.99999 14.00018 v -7.99899 h -14.00018 -33.99999 v 0.001 h -33.99999 -13.99915 v -0.002 h -7.99951 v -7.99951 z m 119.9994,0 v 8.00003 h -8.00003 v 8.00003 h 16.00005 v -16.00006 z m 24.00008,0 v 31.9996 h -32.00011 v 8.00003 l 40.00014,5.1e-4 v -40.00014 z m 24.00009,0 v 55.99968 h -56.0002 v 8.00003 h 64.00023 v -63.99971 z m 23.99957,0 v 79.81063 l -79.99977,0.18914 v 8.00003 h 87.99979 v -87.9998 z m -416.000452,8.00003 v 0.001 h -33.999992 -13.999662 v 7.99796 0.001 h 13.999662 33.999992 v -0.001 H 11.30577 25.305949 v -7.99899 H 11.30577 Z m 0,23.99957 v 10e-4 H -56.694214 -70.693876 V 635 v 10e-4 h 47.999654 V 635 H 11.30577 25.305949 v -7.99951 H 11.30577 Z m -47.999654,24.0006 v 8.00003 h 13.999662 33.999992 v 10e-4 H 11.30577 25.305949 v -8.00054 H 11.30577 -22.694222 v -5.2e-4 z m 0,23.99905 v 8.00003 h 13.999662 33.999992 v 10e-4 H 11.30577 25.305949 v -8.00054 H 11.30577 -22.694222 v -5.2e-4 h -33.999992 z" /><path
         id="path571"
         style="display:inline;fill:#96242f;stroke-linecap:square;paint-order:markers fill stroke"
         d="m 121.30681,-61.000411 -79.999771,0.189653 v 79.810632 h -5.16e-4 v 15.99954 H 25.306466 v 5.17e-4 h -79.810633 l -0.189135,79.999769 h -5.17e-4 v 16.00006 h -15.99954 v 0.0315 l -80.000281,0.15813 v 60.00512 19.80499 h 0.0377 l 0.15141,80.00029 h 79.810634 l 5.17e-4,5.2e-4 h 15.99954 v 16.00005 16.00006 h -16.000057 l -79.999764,0.18914 v 79.81063 l 0.18913,79.99977 h 79.810634 l 5.17e-4,5.1e-4 h 15.99954 v 16.00006 16.00006 h -16.000057 l -79.999764,0.18913 v 79.81012 5.1e-4 l -5.2e-4,5.2e-4 0.18965,79.99977 h 79.810117 v -10e-4 l 5.17e-4,5.1e-4 h 13.999662 33.999992 v 0.001 H 11.30577 25.305949 l 5.17e-4,-5.2e-4 80.000284,-0.18914 v -79.81115 -8.00002 -7.99952 h 16.00006 16.00005 v 15.99954 5.2e-4 l 0.18914,79.99977 h 79.81063 v -5.2e-4 h 13.99915 33.99999 v 0.001 h 33.99999 14.00018 l 5.2e-4,-5.2e-4 79.99977,-0.18914 v -79.81063 l -5.2e-4,-5.2e-4 h 0.002 v -79.81063 l -80.00081,-0.15761 v -0.0315 H 297.3064 V 499.0005 483.00044 h 16.00006 l 5.1e-4,-5.1e-4 h 79.81064 l 0.18913,-79.99977 v -79.81063 l -80.00028,-0.18914 16.59382,-5.2e-4 H 297.3064 v -15.99954 -16.00005 h 16.00006 l 5.1e-4,-5.2e-4 h 79.81064 l 0.18913,-79.99977 -0.18913,-79.99977 h -79.81115 v -5.1e-4 H 297.30692 V 114.9997 l -5.2e-4,-16.058452 -0.18914,-63.941317 h -79.81063 v -5.17e-4 H 201.30709 V 18.999357 h -5.1e-4 l -0.18914,-79.999251 h -79.81063 z m -63.999714,16.000057 h 63.999714 63.99971 v 64.000228 h 5.2e-4 v 31.999597 h 31.99959 63.99971 V 114.9997 h 5.2e-4 v 32.00011 h 31.9996 5.1e-4 63.99972 v 64.00023 64.00023 h -47.40641 -16.59331 -32.00063 v 32.00011 31.9996 h 32.00012 v 5.2e-4 h 64.00023 v 63.99971 64.00023 h -46.87105 -17.12867 -32.00063 v 32.00011 31.9996 h 32.00012 l 5.1e-4,5.1e-4 h 64.00023 v 40.98355 l -5.1e-4,-5.2e-4 v 87.01691 h -64.00023 v 0.001 h -14.0007 -33.99999 v -5.2e-4 h -33.99999 -13.99915 l -19.49286,-5.2e-4 H 153.30692 V 595.00037 579.00032 563.00078 H 121.30681 89.306694 v 31.99959 h 0.001 l -0.001,5.2e-4 V 659.0006 H 25.306466 v 0.001 H 11.30577 -22.694222 v -5.2e-4 h -33.999992 -14.000179 v -5.2e-4 H -134.6941 v -64.00023 h 5.1e-4 v -63.99971 h 63.999714 v -5.1e-4 h 32.000114 v -31.9996 -32.00011 h -32.000114 -13.91698 -50.082734 V 403.00021 339.0005 h 63.999714 v -5.2e-4 h 32.000114 v -31.9996 -32.00011 h -32.000114 -18.734774 -45.26494 v -64.00023 -5.2e-4 -63.99971 h 63.999714 5.17e-4 31.999597 V 114.9997 h 5.17e-4 V 50.999471 H 25.306466 57.30658 V 18.999874 h 5.16e-4 z M 89.306694,-13.00024 V 18.999874 82.999585 H 25.306466 -6.6931315 V 114.9997 h -5.168e-4 v 64.00023 h -63.9997107 -5.17e-4 -31.999594 v 15.40681 l -5.2e-4,-5.2e-4 v 48.59393 h 32.000631 31.999597 32.0001137 v 64.00023 63.99971 H -70.693876 v 5.2e-4 h -32.000114 v 31.9996 32.00011 h 32.000631 20.875728 43.1239827 v 64.00023 63.99971 H -70.693876 v 5.2e-4 h -32.000114 v 16.00005 15.99954 32.00012 h 31.999597 l 5.17e-4,5.2e-4 v 5.1e-4 h 13.999662 33.999992 v -5.1e-4 H 11.30577 40.829549 l -5.17e-4,-5.2e-4 H 57.30658 v -32.00012 h 5.16e-4 v -63.99971 h 63.999714 63.99971 v 63.99971 h 5.2e-4 v 32.00012 h 31.99908 v 5.2e-4 5.1e-4 h 13.99966 33.99999 v -5.1e-4 h 33.99999 14.00018 v -10e-4 l 5.2e-4,5.2e-4 h 32.00011 v -31.9996 l -5.2e-4,-5.2e-4 h 10e-4 v -31.99959 h -32.00063 v -5.2e-4 h -63.99971 v -63.99971 -64.00023 h 63.99971 5.1e-4 31.9996 v -32.00011 -31.9996 h -32.00011 l 14.98823,-5.2e-4 h -78.98794 v -63.99971 -64.00023 h 64.00022 15.99954 16.00006 V 211.00004 178.99993 H 313.30646 296.17779 249.30675 V 114.9997 82.999585 H 217.30663 153.30692 V 18.999357 -13.00024 H 121.30681 Z M 105.30675,2.9998169 h 16.00006 16.00005 V 18.999874 l 0.18914,79.999251 h 79.81063 l -21.41161,5.17e-4 h 37.41167 V 114.9997 l 0.18914,79.99977 h 79.81063 l 5.1e-4,5.1e-4 h 15.99954 v 16.00006 16.00006 h -15.99954 v 5.1e-4 h -79.81114 l -0.18914,79.99977 v 79.81063 l 79.99977,0.18914 h 16.00005 v 16.00006 16.00005 h -15.99954 v 5.2e-4 h -79.81114 l -0.18914,79.99977 v 79.81063 l 79.99977,0.18914 h 5.1e-4 15.99954 v 32.00063 h -16.00057 v -10e-4 h -14.00018 -33.99999 v 10e-4 h -33.99999 -13.99915 v -5.2e-4 h -15.99954 v -15.99954 l -5.1e-4,-5.2e-4 -0.18914,-79.99976 h -79.81063 l -79.999771,0.18913 v 79.81063 l -5.16e-4,5.2e-4 v 16.00006 h -15.999541 -5.16e-4 l -5.17e-4,-10e-4 H 11.30577 -22.694222 v 10e-4 h -33.999992 -14.000179 v -5.2e-4 h -15.99954 v -15.99954 -5.2e-4 -16.00005 h 16.000057 L 9.3064087,578.81118 V 499.00055 L 9.1172729,419.00078 H -70.693359 l -5.17e-4,-5.2e-4 h -16.000057 v -16.00005 -16.00006 h 16.000057 L 9.3064087,386.81101 V 307.00038 L 9.1172729,227.00061 h -79.8101159 -5.16e-4 l -5.17e-4,-5.1e-4 h -16.000057 v -16.00006 l -5.17e-4,-5.2e-4 h 0.001 v -15.99954 h 37.946521 l -5.17e-4,-5.1e-4 H 9.1172729 L 9.3064087,114.9997 V 98.999642 H 25.306466 L 105.30675,98.809989 V 18.999874 Z" /><path
         id="path568"
         style="display:inline;fill:#c8a9fa;stroke-linecap:square;paint-order:markers fill stroke"
         d="M 65.307125,-37.000326 65.306608,58.9995 h -95.999825 v 96.00034 h -96.000343 l -5.2e-4,112.00043 h 96.000346 v 80.00028 h -95.999826 l -5.2e-4,111.99989 h 96.000346 v 80.00028 h -95.999826 l -5.2e-4,111.99988 H 81.306665 v -96.00034 l 80.000285,5.2e-4 v 95.99982 l 207.99971,3e-5 5.1e-4,-111.99988 h -96.00085 v -80.00028 h 96.00034 V 347.00058 H 273.30632 V 267.0003 h 96.00034 V 154.9999 H 273.30683 V 58.9995 h -95.99982 l -5.2e-4,-95.999826 z m 15.99954,16.000057 h 80.000285 v 95.999825 h 95.99982 V 170.9999 h 96.00035 l -5.2e-4,80.00028 h -96.00034 l 5.1e-4,111.99989 h 95.99983 v 80.00028 h -96.00034 l 5.1e-4,111.99988 h 96.00035 l -5.2e-4,80.0008 -175.99962,-5.1e-4 -5.2e-4,-95.99983 H 65.307125 l -5.17e-4,96.00034 -176.000628,-5.1e-4 5.2e-4,-80.00029 h 95.999823 V 443.00035 h -96.000343 l 5.2e-4,-80.00028 h 95.999823 V 251.00018 h -96.000343 l 4.8e-4,-80.00028 h 95.999823 V 74.999556 h 96.000382 z"
         sodipodi:nodetypes="cccccccccccccccccccccccccccccccccccccccccccccccccccccccccccccccccc" /></g><path
       id="path573"
       style="color:#000000;fill:#0b5cd5;stroke-width:1;stroke-linecap:round;stroke-linejoin:round;-inkscape-stroke:none;paint-order:markers fill stroke"
       d="m 36.70577,0 c -0.41369,6e-5 -0.7493,0.3351 -0.74931,0.7488 V 17.97824 H 18.72754 c -0.41366,7e-5 -0.74872,0.33513 -0.74879,0.74879 V 35.95647 H 0.74931 C 0.33557,35.95648 2e-5,36.29153 0,36.70526 v 17.97823 17.97823 17.97823 17.97823 17.97823 17.97875 c 2e-5,0.41373 0.33557,0.74878 0.74931,0.74879 h 17.97772 5.1e-4 2.62206 0.56173 2.24741 0.93586 2.62206 2.62154 0.9369 2.24689 0.93637 2.24741 5.2e-4 17.9772 5.1e-4 17.97823 2.62207 0.56172 2.24741 0.93586 2.62206 2.62206 0.93586 2.24741 0.93638 2.24741 0.001 17.9772 c 0.4137,-1e-5 0.74924,-0.33561 0.7493,-0.74931 V 126.59641 108.61818 90.63995 72.66172 54.68349 36.70526 c -6e-5,-0.4137 -0.3356,-0.74878 -0.7493,-0.74879 H 91.38977 V 18.72703 c -7e-5,-0.41366 -0.33566,-0.74872 -0.7493,-0.74879 H 73.41154 V 0.7488 C 73.41153,0.33506 73.07597,1e-5 72.66223,0 H 54.684 Z m 1.4981,2.2469 H 54.684 71.16413 v 16.48013 1.4981 h 1.4981 16.48014 v 16.48013 1.4981 h 1.4981 16.48013 v 16.48013 16.48013 h -16.48013 -1.4981 v 1.4981 1.4981 h 1.4981 16.48013 v 16.48013 16.48013 h -16.48013 -1.4981 v 1.4981 1.49862 h 1.4981 16.48013 v 16.47961 16.48013 H 90.64047 88.0184 81.65135 75.28378 72.66223 56.1821 v -16.47961 h 0.74931 v -5.2e-4 H 56.1821 v -1.4981 H 54.684 53.1859 v 1.4981 h -0.7493 v 5.2e-4 h 0.7493 v 16.47961 H 36.70577 34.08371 27.71666 21.34909 18.72754 2.24741 v -16.47961 h 0.74931 v -5.2e-4 H 2.24741 V 110.1168 h 16.48013 1.4981 v -1.49862 -1.4981 H 18.72754 2.24741 V 90.63995 74.15982 h 16.48013 1.4981 v -1.4981 -1.4981 H 18.72754 2.24741 V 54.68349 38.20336 h 16.48013 1.4981 v -1.4981 -16.48013 h 16.48013 1.4981 v -1.4981 z M 53.1859,17.22893 v 1.4981 2.03553 c 0.43046,-0.27879 0.94295,-0.4439 1.4981,-0.4439 0.55517,0 1.06756,0.16511 1.4981,0.4439 v -2.03553 -1.4981 H 54.684 Z m 0,8.14575 v 9.83248 h -16.48013 -1.4981 v 1.4981 16.48013 h -16.48013 -1.4981 v 1.4981 1.4981 h 1.4981 v 5.2e-4 h 16.48013 v 16.47961 16.48013 h -16.48013 -1.4981 v 1.4981 1.4981 h 1.4981 v 5.2e-4 h 16.48013 v 16.47961 16.48013 h -16.48013 -1.4981 v 1.4981 1.4981 h 1.4981 v 5.2e-4 h 2.62155 6.36757 6.36705 2.62206 1.4981 v -1.4981 h 0.74931 v -5.2e-4 H 38.20387 V 110.1168 H 54.684 71.16413 v 16.47961 1.4981 h 1.4981 v 5.2e-4 h 2.62155 6.36757 6.36705 2.62207 1.4981 v -1.49862 -1.4981 H 90.64047 74.16033 V 108.61818 92.13857 h 16.48014 v -5.2e-4 h 1.4981 v -1.4981 -1.4981 H 90.64047 74.16033 V 72.66172 56.18211 h 16.48014 v -5.2e-4 h 1.4981 v -1.4981 -1.4981 H 90.64047 74.16033 V 36.70526 35.20716 H 72.66223 56.1821 v -9.83248 c -0.43054,0.27888 -0.94293,0.4439 -1.4981,0.4439 -0.55515,0 -1.06764,-0.16502 -1.4981,-0.4439 z M 38.04729,38.05556 h 33.27394 v 66.80161 H 38.04729 Z" /><path
       id="path574"
       style="display:inline;fill:#05285b;stroke-width:1;stroke-linecap:square;paint-order:markers fill stroke"
       d="m 38.20387,2.2469 v 16.48013 1.4981 h -1.4981 -16.48013 v 16.48013 1.4981 H 18.72754 2.24741 v 16.48013 16.48013 h 16.48013 1.4981 v 1.4981 1.4981 H 18.72754 2.24741 v 16.48013 16.48013 h 16.48013 1.4981 v 1.4981 1.49862 H 18.72754 2.24741 v 16.47961 16.48013 h 16.48013 2.62155 6.36757 6.36705 2.62206 16.48013 v -16.48013 -1.4981 h 1.4981 1.4981 v 1.4981 16.48013 h 16.48013 2.62155 6.36757 6.36705 2.62207 16.48013 V 126.59641 110.1168 h -16.48013 -1.4981 v -1.49862 -1.4981 h 1.4981 16.48013 V 90.63995 74.15982 h -16.48013 -1.4981 v -1.4981 -1.4981 h 1.4981 16.48013 V 54.68349 38.20336 H 90.64047 89.14237 V 36.70526 20.22513 H 72.66223 71.16413 V 18.72703 2.2469 H 54.684 Z M 54.684,3.745 v 5.1e-4 h 14.94638 l 0.03565,14.98152 v 2.9962 h 2.9962 v 5.1e-4 h 14.94638 l 0.03514,14.98152 h 5.2e-4 v 2.9962 h 2.9962 v 5.1e-4 h 14.94637 l 0.0357,14.98152 -0.0357,14.98203 h -14.94637 -2.9962 v 2.9962 2.9962 h 2.9962 v 5.2e-4 l 14.98203,0.0351 v 14.94637 l -0.0357,14.98203 h -14.94637 -2.9962 v 2.9962 2.99672 h 2.9962 l 14.98203,0.0351 v 14.94637 14.94689 l -14.98203,0.0351 H 88.0184 81.65135 75.28378 72.66223 57.71586 L 57.6802,126.59641 v -2.9962 H 54.684 51.6878 v 2.9962 14.94689 l -14.98203,0.0351 H 34.08371 27.71666 21.34909 18.72754 3.78117 L 3.74551,126.59641 v -14.94637 l 14.98203,-0.0351 h 2.9962 v -2.99672 -2.9962 H 18.72754 3.78117 L 3.74551,90.63999 V 75.69362 l 14.98203,-0.0351 h 2.9962 V 72.6618 69.6656 H 18.72754 3.78117 L 3.74551,54.68357 V 39.73719 l 14.98203,-0.0356 h 2.9962 v -2.9962 L 21.7594,21.72336 h 14.94637 2.9962 V 18.72716 3.78078 Z M 42.69869,6.74171 v 11.98532 5.99291 H 36.70577 24.72046 v 11.98532 5.99291 H 18.72754 6.74223 v 11.98532 11.98583 h 11.98531 5.99292 v 5.9924 5.99292 H 18.72754 6.74223 v 11.98531 11.98583 h 11.98531 5.99292 v 5.9924 5.99292 H 18.72754 6.74223 v 11.98531 h -5.2e-4 v 11.98583 h 11.98583 2.62155 6.36757 6.36705 2.62206 11.98532 v -11.98583 -5.9924 h 3.36155 c -0.06947,-0.24299 -0.11834,-0.49477 -0.11834,-0.76119 0,-0.25749 0.04606,-0.50117 0.11111,-0.73691 l -4.85242,-5.1e-4 v 7.49101 10.48773 H 36.70577 34.08371 27.71666 18.72754 8.24033 V 126.59641 116.1092 h 10.48721 7.49102 v -7.49102 -7.49101 H 18.72754 8.24033 V 90.63995 80.15274 h 10.48721 7.49102 V 72.66172 65.1707 H 18.72754 8.24033 V 54.68349 44.19627 h 10.48721 7.49102 V 36.70526 26.21804 h 10.48721 7.49102 V 18.72703 8.23981 H 54.684 65.17122 v 10.48722 7.49101 h 7.49101 10.48722 v 10.48722 7.49101 h 7.49102 10.48721 V 54.68349 65.1707 H 90.64047 83.14945 v 7.49102 7.49102 h 7.49102 10.48721 v 10.48721 10.48722 H 90.64047 83.14945 v 7.49101 7.49102 h 7.49102 10.48721 v 10.48721 10.48773 H 90.64047 88.0184 81.65135 72.66223 62.17502 v -10.48773 -7.4905 h -4.8519 c 0.06507,0.23574 0.1111,0.47942 0.1111,0.73691 0,0.26642 -0.04884,0.5182 -0.11834,0.76119 h 3.36104 v 5.9924 11.98583 h 11.98531 2.62155 6.36757 6.36705 2.62207 11.98531 v -11.98583 h 5.2e-4 V 114.6111 H 90.64047 84.64755 v -5.99292 -5.9924 h 5.99292 11.98531 V 90.63995 78.65464 H 90.64047 84.64755 v -5.99292 -5.9924 h 5.99292 11.98531 V 54.68349 42.69817 H 90.64047 84.64755 V 36.70526 24.71994 H 72.66223 66.66932 V 18.72703 6.74171 H 54.684 Z m 4.4943,4.4943 v 7.49102 10.48721 H 36.70577 29.21476 v 7.49102 10.48721 H 18.72754 11.23653 v 7.49102 7.49101 h 7.49101 10.48722 V 72.66172 83.14893 H 18.72754 v 5.2e-4 l -7.49101,-5.2e-4 v 7.49102 7.49102 h 7.49101 10.48722 v 10.48721 10.48722 H 18.72754 v 5.1e-4 l -7.49101,-5.1e-4 v 7.49101 7.49102 h 7.49101 8.98912 6.36705 2.62206 7.49102 V 126.59641 116.1092 H 54.684 65.17122 v 10.48721 7.49102 h 7.49101 8.98912 6.36705 2.62207 7.49101 v -7.49102 -7.49101 l -7.49101,5.1e-4 v -5.1e-4 H 80.15325 V 108.61818 98.13097 h 10.48722 7.49101 v -7.49102 -7.49102 l -7.49101,5.2e-4 v -5.2e-4 H 80.15325 V 72.66172 62.1745 h 10.48722 7.49101 V 54.68349 47.19247 H 90.64047 80.15325 V 36.70526 29.21424 H 72.66223 62.17502 V 18.72703 11.23601 H 54.684 Z m 1.4981,1.4981 h 5.99291 5.99292 v 5.99292 11.98531 h 11.98531 5.99292 v 5.99292 11.98531 h 11.98532 5.99291 v 5.99292 5.99291 H 90.64047 78.65515 v 11.98532 11.98583 h 11.98532 5.99291 v 5.9924 5.99292 H 90.64047 78.65515 v 11.98531 11.98583 h 11.98532 5.99291 v 5.9924 5.99292 H 90.64047 88.0184 81.65135 75.28378 72.66223 66.66932 V 126.59641 114.6111 H 54.684 42.69869 v 11.98531 5.99292 h -5.99292 -2.62206 -6.36705 -6.36757 -2.62155 -5.99291 v -5.99292 -5.9924 h 5.99291 11.98532 V 108.61818 96.63287 H 18.72754 12.73463 v -5.99292 -5.9924 h 5.99291 11.98532 V 72.66172 60.6764 H 18.72754 12.73463 v -5.99291 -5.99292 h 5.99291 11.98532 V 36.70526 30.71234 h 5.99291 11.98532 V 18.72703 Z m 2.99671,2.99672 v 2.9962 14.94637 l -14.98203,0.0357 h -2.9962 v 2.9962 l -0.03565,14.98203 h -14.94638 -2.9962 v 2.9962 h -5.1e-4 v 2.99672 h 2.99671 14.94638 l 0.03565,14.98151 v 14.94637 l -14.98203,0.0357 h -2.99671 v 2.9962 2.99672 h 2.99671 14.94638 l 0.03565,14.98151 v 14.94638 l -14.98203,0.0357 h -2.99671 v 2.9962 2.99672 h 2.99671 2.62155 6.36757 v -5.2e-4 h 6.36705 2.62206 v 5.2e-4 h 2.9962 v -2.99672 -14.94637 l 14.98203,-0.0351 h 14.94638 l 0.03565,14.98151 v 2.99672 h 2.9962 2.62155 6.36757 v -5.2e-4 h 6.36705 2.62207 v 5.2e-4 h 2.99619 v -2.99672 -2.9962 h -2.99619 l -14.98204,-0.0357 V 108.6183 l 0.03566,-14.98151 h 14.94638 2.99619 v -2.99672 -2.9962 H 90.64047 L 75.65843,87.60817 V 72.6618 l 0.03566,-14.98151 h 14.94638 2.99619 v -2.99672 -2.9962 H 90.64047 75.69409 L 75.65843,36.70534 v -2.9962 H 72.66223 57.71586 L 57.68072,18.72711 v -2.9962 H 54.684 Z m 1.4981,1.4981 h 1.4981 1.4981 v 1.4981 2.03553 c 0.75421,0.48838 1.25212,1.33332 1.25212,2.3058 0,0.9725 -0.49791,1.8178 -1.25212,2.30632 v 9.83248 h 16.48013 1.4981 v 1.4981 16.48013 h 16.48014 1.4981 v 1.4981 1.4981 h -1.4981 v 5.2e-4 H 74.16033 v 16.47961 16.48013 h 16.48014 1.4981 v 1.4981 1.4981 h -1.4981 v 5.2e-4 H 74.16033 v 16.47961 16.48013 h 16.48014 1.4981 v 1.4981 1.49862 h -1.4981 -2.62207 -6.36705 -6.36757 -2.62155 v -5.2e-4 h -1.4981 v -1.4981 -16.47961 H 54.684 38.20387 v 16.47961 1.49862 h -1.4981 -2.62206 -6.36705 -6.36757 -2.62155 v -5.2e-4 h -1.4981 v -1.4981 -1.4981 h 1.4981 16.48013 V 108.61818 92.13857 H 18.72754 v -5.2e-4 h -1.4981 v -1.4981 -1.4981 h 1.4981 16.48013 V 72.66172 56.18211 H 18.72754 v -5.2e-4 h -1.4981 v -1.4981 -1.4981 h 1.4981 16.48013 v -16.48013 -1.4981 h 1.4981 16.48013 v -9.83248 c -0.75405,-0.48852 -1.2516,-1.33382 -1.2516,-2.30632 0,-0.97248 0.49755,-1.81742 1.2516,-2.3058 v -2.03553 z" /><path
       id="path575"
       style="display:inline;fill:#96242f;stroke-width:1;stroke-linecap:square;paint-order:markers fill stroke"
       d="M 54.684,3.745 39.70197,3.7807 v 14.94638 2.9962 H 36.70577 21.7594 l -0.03566,14.98203 v 2.9962 h -2.9962 v 0.006 l -14.98203,0.0294 v 11.23756 3.70882 h 0.00724 l 0.02842,14.98203 h 14.94637 2.9962 v 2.9962 2.99672 h -2.9962 l -14.98203,0.0351 v 14.94637 l 0.03566,14.98203 h 14.94637 2.9962 v 2.9962 2.99672 h -2.9962 l -14.98203,0.0351 v 14.94637 5.2e-4 l 0.03566,14.98151 h 14.94637 2.62155 6.36757 6.36705 2.62206 l 14.98203,-0.0351 v -14.94689 -1.4981 -1.4981 h 2.9962 2.9962 v 2.9962 5.2e-4 l 0.03566,14.98151 h 14.94637 2.62155 6.36757 6.36705 2.62207 l 14.98151,-0.0351 v -14.94637 -5.2e-4 h 5.2e-4 v -14.94637 l -14.98203,-0.0295 v -0.006 h -2.99672 v -2.99672 -2.9962 h 2.99672 14.94637 l 0.0357,-14.98203 V 75.69294 l -14.98203,-0.0351 3.1073,-5.2e-4 h -6.10402 v -2.9962 -2.9962 h 2.99672 14.94637 l 0.0357,-14.98203 -0.0357,-14.98152 H 90.64047 v -5.1e-4 h -2.9962 v -2.9962 l -5.2e-4,-3.00705 -0.03514,-11.97498 h -14.94638 -2.9962 v -2.9962 L 69.63038,3.7444 Z M 42.69869,6.74171 H 54.684 66.66932 v 11.98532 5.99291 h 5.99291 11.98532 v 11.98532 5.99291 h 5.99292 11.98531 v 11.98532 11.98583 h -8.87801 -3.1073 -5.99292 v 5.9924 5.99292 h 5.99292 11.98531 v 11.98531 11.98583 h -8.77776 -3.20755 -5.99292 v 5.9924 5.99292 h 5.99292 11.98583 v 7.67498 h -5.2e-4 v 16.29616 H 90.64047 88.0184 81.65135 75.28378 72.66223 69.01181 60.67692 v -11.98583 -2.9962 -2.9962 h -3.36104 c -0.32901,1.15035 -1.37063,1.98903 -2.63188,1.98903 -1.26123,0 -2.30246,-0.83868 -2.63136,-1.98903 h -3.36155 v 5.9924 11.98583 H 36.70577 34.08371 27.71666 21.34909 18.72754 6.74171 v -11.98583 h 5.2e-4 V 114.6111 h 11.98531 5.99292 v -5.99292 -5.9924 H 18.72754 16.12098 6.74223 V 90.63995 78.65464 h 11.98531 5.99292 v -5.99292 -5.9924 H 18.72754 15.21871 6.74223 V 54.68349 42.69817 h 11.98531 5.99292 V 36.70526 24.71994 h 11.98531 5.99292 v -5.99291 z m 5.9924,5.9924 v 5.99292 11.98531 H 36.70577 30.71286 v 5.99292 11.98531 H 18.72754 12.73463 v 2.88561 9.10022 h 5.99291 5.99292 5.9924 V 72.66172 84.64755 H 18.72754 12.73463 v 5.9924 5.99292 h 5.99291 3.90932 8.076 v 11.98531 11.98583 H 18.72754 12.73463 v 2.9962 2.9962 5.99292 h 5.99291 2.62155 6.36757 6.36705 5.52886 3.08612 V 126.59641 114.6111 H 54.684 66.66932 v 11.98531 5.99292 h 5.99291 2.62155 6.36757 6.36705 2.62207 5.99291 v -5.9924 -5.2e-4 -5.9924 H 90.64047 78.65515 V 108.61818 96.63287 h 11.98532 5.99291 v -5.99292 -5.9924 H 93.44753 78.65515 V 72.66172 60.6764 h 11.98532 2.99619 2.99672 V 54.68349 48.69057 H 90.64047 87.43291 78.65515 V 36.70526 30.71234 H 72.66223 60.67692 V 18.72703 12.73411 H 54.684 Z m 2.99671,2.99672 h 2.9962 2.9962 v 2.9962 l 0.03566,14.98203 h 14.94637 2.9962 v 2.9962 l 0.03566,14.98203 h 14.94638 2.99619 v 2.9962 2.99672 H 90.64047 75.69409 l -0.03566,14.98151 v 14.94637 l 14.98204,0.0357 h 2.99619 v 2.9962 2.99672 H 90.64047 75.69409 l -0.03566,14.98151 v 14.94638 l 14.98204,0.0357 h 2.99619 v 5.99292 h -2.99619 v -5.2e-4 H 88.0184 81.65135 v 5.2e-4 h -6.36757 -2.62155 -2.9962 V 126.5965 L 69.63038,111.6149 H 54.684 L 39.70249,111.65 v 14.94637 h -5.2e-4 v 2.99672 h -2.9962 v -5.2e-4 h -2.62206 -6.36705 v 5.2e-4 h -6.36757 -2.62155 -2.9962 v -2.99672 -2.9962 h 2.9962 l 14.98203,-0.0357 V 108.61809 L 33.67392,93.63658 h -14.94638 -2.9962 v -2.99672 -2.9962 h 2.9962 l 14.98203,-0.0357 V 72.66159 L 33.67392,57.68008 h -14.94638 -2.9962 v -2.99672 -2.9962 h 7.10603 10.83655 l 0.03565,-14.98203 v -2.9962 h 2.9962 L 51.6878,33.67323 V 18.72686 Z" /><path
       id="path576"
       style="display:inline;fill:#c8a9fa;stroke-width:1;stroke-linecap:square;paint-order:markers fill stroke"
       d="M 44.19679,8.23981 V 26.21804 H 26.21856 V 44.19627 H 8.24033 V 65.1707 H 26.21856 V 80.15274 H 8.24033 v 20.97443 H 26.21856 V 116.1092 H 8.24033 v 20.97494 H 47.19299 V 119.1054 h 4.85242 c 0.15669,-0.56748 0.48576,-1.05503 0.93275,-1.40974 0.01954,-0.0157 0.0374,-0.0319 0.05737,-0.047 0.21152,-0.15868 0.44473,-0.28607 0.69814,-0.37879 0.04164,-0.0154 0.08401,-0.0259 0.12661,-0.0393 0.26128,-0.0815 0.53426,-0.13746 0.82372,-0.13746 0.28929,0 0.56203,0.056 0.82321,0.13746 0.04315,0.0136 0.08599,0.0242 0.12816,0.0398 0.25396,0.093 0.48783,0.22057 0.6997,0.37982 0.01805,0.0137 0.03397,0.0287 0.05167,0.0429 0.44888,0.355 0.7793,0.84377 0.93638,1.41283 h 4.8519 v 17.97823 h 38.95266 V 116.1092 H 83.14945 v -14.98152 h 17.97823 V 80.15274 H 83.14945 V 65.1707 h 17.97823 V 44.19627 H 83.14945 V 26.21804 H 65.17122 V 8.23981 Z m 2.9962,2.9962 H 62.17502 V 29.21424 H 80.15325 V 47.19247 H 98.13148 V 62.1745 H 80.15325 V 83.14893 H 98.13148 V 98.13097 H 80.15325 v 20.97443 h 17.97823 v 14.98203 H 65.17122 V 116.1092 H 44.19679 v 17.97823 H 11.23653 V 119.1054 H 29.21476 V 98.13097 H 11.23653 V 83.14893 H 29.21476 V 62.1745 H 11.23653 V 47.19247 H 29.21476 V 29.21424 h 17.97823 z" /><path
       id="path579"
       style="display:none;fill:#ffcb2f;stroke-linecap:round;stroke-linejoin:round"
       d="m 574.0771,-205.23967 c -1.52765,0 -2.7497,1.22206 -2.7497,2.7497 0,1.52766 1.22205,2.75022 2.7497,2.75022 1.52767,0 2.75022,-1.22256 2.75022,-2.75022 0,-1.52764 -1.22255,-2.7497 -2.75022,-2.7497 z m 0,96.77446 c -1.52765,0 -2.7497,1.22205 -2.7497,2.7497 0,1.52766 1.22205,2.75022 2.7497,2.75022 1.52767,0 2.75022,-1.22256 2.75022,-2.75022 0,-1.52765 -1.22255,-2.7497 -2.75022,-2.7497 z"
       inkscape:label="holes" /><path
       id="path577"
       style="display:inline;fill:#ffcb2f;stroke-linecap:round;stroke-linejoin:round"
       d="m 54.68405,19.56908 a 3.5000002,3.5000002 0 0 0 -3.50004,3.50005 3.5000002,3.5000002 0 0 0 3.50004,3.50004 3.5000002,3.5000002 0 0 0 3.50005,-3.50004 3.5000002,3.5000002 0 0 0 -3.50005,-3.50005 z m 0,0.74983 c 1.52767,0 2.75022,1.22204 2.75022,2.7497 0,1.52766 -1.22255,2.75022 -2.75022,2.75022 -1.52767,0 -2.7497,-1.22256 -2.7497,-2.75022 0,-1.52766 1.22203,-2.7497 2.7497,-2.7497 z m 0,96.02463 a 3.5000002,3.5000002 0 0 0 -3.50004,3.50004 3.5000002,3.5000002 0 0 0 3.50004,3.50005 3.5000002,3.5000002 0 0 0 3.50005,-3.50005 3.5000002,3.5000002 0 0 0 -3.50005,-3.50004 z m 0,0.74982 c 1.52767,0 2.75022,1.22205 2.75022,2.7497 0,1.52766 -1.22255,2.75022 -2.75022,2.75022 -1.52767,0 -2.7497,-1.22256 -2.7497,-2.75022 0,-1.52765 1.22203,-2.7497 2.7497,-2.7497 z"
       inkscape:label="screw engravings" /></g></svg>
