<?xml version="1.0" encoding="UTF-8" standalone="no"?>
<!-- Created with Inkscape (http://www.inkscape.org/) -->

<svg
   width="120mm"
   height="120mm"
   viewBox="0 0 120 120"
   version="1.1"
   id="svg1"
   inkscape:version="1.3.1 (91b66b0783, 2023-11-16)"
   sodipodi:docname="brat-guac.svg"
   xmlns:inkscape="http://www.inkscape.org/namespaces/inkscape"
   xmlns:sodipodi="http://sodipodi.sourceforge.net/DTD/sodipodi-0.dtd"
   xmlns="http://www.w3.org/2000/svg"
   xmlns:svg="http://www.w3.org/2000/svg">
  <sodipodi:namedview
     id="namedview1"
     pagecolor="#ffffff"
     bordercolor="#000000"
     borderopacity="0.25"
     inkscape:showpageshadow="2"
     inkscape:pageopacity="0.0"
     inkscape:pagecheckerboard="0"
     inkscape:deskcolor="#d1d1d1"
     inkscape:document-units="mm"
     inkscape:zoom="1"
     inkscape:cx="189.5"
     inkscape:cy="221.5"
     inkscape:current-layer="layer1" />
  <defs
     id="defs1" />
  <g
     inkscape:label="Layer 1"
     inkscape:groupmode="layer"
     id="layer1">
    <path
       id="rect17"
       style="display:inline;fill:#8ace00;fill-opacity:1;stroke:none;stroke-width:24;stroke-linecap:round;stroke-linejoin:round;paint-order:fill markers stroke"
       d="m -123.99997,4.5e-5 c -0.554,0 -0.99994,0.44594 -0.99994,0.99994 V 119.00002 c 0,0.55399 0.44594,0.99994 0.99994,0.99994 H -5.99994 c 0.554,0 0.99994,-0.44595 0.99994,-0.99994 V 0.999985 C -5,0.445985 -5.44594,4.5e-5 -5.99994,4.5e-5 Z m 15.99954,45.00035 h 3.00033 v 2.99982 3.6251 8.12457 3.00033 8.12509 5.12475 11.12542 5.12423 8.125615 2.9998 3.62459 3.00034 h -3.00033 v -6.62493 -2.9998 -5.125275 -8.12509 -2.99982 -8.12508 -5.12475 -8.12509 -3.00033 -5.12475 -2.99982 z m 83.00062,0 h 3.00033 v 6.62492 8.12457 3.00033 13.24984 33.999995 h -3.00033 v -3.00034 -3.62459 -2.9998 -5.125275 -3.00034 -5.12423 -3.00034 -5.12526 -2.99982 -5.12475 -3.00034 -5.12475 -3.00033 -5.12475 -2.99982 -3.6251 z" />
    <path
       id="rect1"
       style="fill:#8ace00;fill-opacity:1;stroke:none;stroke-width:24;stroke-linecap:round;stroke-linejoin:round;paint-order:fill markers stroke"
       d="M 0.99993896 0 C 0.44593952 7.8332324e-17 0 0.44593952 0 0.99993896 L 0 118.99997 C 7.8332324e-17 119.55397 0.44593952 119.99991 0.99993896 119.99991 L 118.99997 119.99991 C 119.55397 119.99991 119.99991 119.55397 119.99991 118.99997 L 119.99991 0.99993896 C 119.99991 0.44593952 119.55397 0 118.99997 0 L 0.99993896 0 z " />
    <g
       id="text1"
       transform="scale(1.001066,0.99893514)">
      <path
         id="path21"
         style="color:#000000;-inkscape-font-specification:'Arial, Condensed';fill:#b8ff25;stroke-linecap:round;stroke-linejoin:round;-inkscape-stroke:none;paint-order:stroke fill markers"
         d="M 33.892549 45.549085 C 32.503913 45.549085 31.220011 45.954753 30.09373 46.749774 A 0.50005 0.50005 0 0 0 30.091665 46.749774 C 28.959812 47.55824 28.071941 48.804953 27.40632 50.443404 C 26.736557 52.09205 26.407962 53.999043 26.407962 56.156116 C 26.407962 59.374349 27.156655 62.003245 28.693241 63.982577 A 0.50005 0.50005 0 0 0 28.693241 63.984647 C 30.037318 65.707153 31.812352 66.615194 33.874998 66.615194 C 34.854126 66.615194 35.768772 66.375866 36.584089 65.900265 C 37.028285 65.641149 37.373942 65.158045 37.761573 64.769414 C 37.726313 66.028376 37.694522 67.385775 37.599482 67.79519 A 0.50005 0.50005 0 0 0 37.599482 67.796742 C 37.359004 68.850267 36.92649 69.582678 36.316174 70.066721 A 0.50005 0.50005 0 0 0 36.308431 70.072412 C 35.713709 70.562795 34.895144 70.82614 33.781047 70.82614 C 32.76339 70.82614 32.039029 70.589431 31.534999 70.166046 A 0.50005 0.50005 0 0 0 31.531386 70.163977 C 31.033848 69.755996 30.714657 69.124299 30.601684 68.164036 A 0.50005 0.50005 0 0 0 30.193359 67.730526 L 27.533308 67.24994 A 0.50005 0.50005 0 0 0 26.943276 67.732595 C 26.904536 69.811713 27.489846 71.524965 28.716987 72.752105 C 29.947365 73.982482 31.703499 74.578227 33.874998 74.578227 C 35.529491 74.578227 36.9849 74.17941 38.195193 73.369262 C 39.399456 72.575242 40.282363 71.463144 40.808785 70.082241 L 40.808785 70.080172 C 41.348332 68.67626 41.580008 66.499003 41.580008 63.454916 L 41.580008 46.492151 A 0.50005 0.50005 0 0 0 41.080313 45.992424 L 38.566351 45.992424 A 0.50005 0.50005 0 0 0 38.066656 46.492151 L 38.066656 47.660249 C 37.635803 47.187876 37.247479 46.626265 36.736372 46.322471 C 35.883596 45.808508 34.922633 45.549085 33.892549 45.549085 z M 69.332191 45.549085 C 67.090348 45.549085 65.295214 46.046713 64.00796 47.103617 A 0.50005 0.50005 0 0 0 64.005895 47.105687 C 62.730602 48.163909 61.918725 49.821534 61.523422 52.002075 A 0.50005 0.50005 0 0 0 61.933296 52.584055 L 64.613479 53.027394 A 0.50005 0.50005 0 0 0 65.183379 52.634751 C 65.46737 51.250294 65.916487 50.379467 66.398547 49.982476 A 0.50005 0.50005 0 0 0 66.40216 49.978338 C 66.903564 49.555586 67.726749 49.302724 68.925931 49.302724 C 70.236625 49.302724 71.101862 49.651607 71.66806 50.310454 A 0.50005 0.50005 0 0 0 71.673738 50.316662 C 72.018201 50.705288 72.267384 51.529671 72.267384 52.812708 L 72.269449 52.80081 L 72.258093 53.269497 C 71.286612 53.650565 69.860196 54.014905 67.800584 54.312405 C 66.114122 54.551699 64.828971 54.918654 63.918138 55.470673 C 63.029379 56.009315 62.321049 56.766913 61.814566 57.713235 C 61.304082 58.667034 61.052634 59.758837 61.052634 60.960939 C 61.052634 62.770275 61.596135 64.284277 62.693163 65.394848 C 63.789247 66.504464 65.283036 67.058534 67.058785 67.058534 C 68.193721 67.058534 69.296639 66.798546 70.345519 66.287217 C 71.157159 65.891543 71.910571 65.227935 72.660223 64.546968 C 72.767123 65.164441 72.853176 65.803798 73.064419 66.308944 A 0.50005 0.50005 0 0 0 73.525398 66.615194 L 76.371286 66.615194 A 0.50005 0.50005 0 0 0 76.828135 65.910094 C 76.501016 65.185758 76.280434 64.448369 76.164284 63.693398 C 76.065164 62.962433 76.003742 60.986782 76.003742 57.892743 L 76.003742 53.458835 C 76.003742 51.638921 75.877243 50.2438 75.597481 49.228748 C 75.317749 48.165768 74.619756 47.273523 73.582182 46.594062 L 73.578052 46.591993 C 72.505221 45.878103 71.081151 45.549085 69.332191 45.549085 z M 86.29292 45.549085 C 84.004876 45.549085 82.061112 46.491472 80.60166 48.302754 A 0.50005 0.50005 0 0 0 80.60166 48.304823 C 79.131953 50.132028 78.439239 52.806551 78.439239 56.285445 C 78.439239 59.739582 79.125959 62.418372 80.577914 64.279516 A 0.50005 0.50005 0 0 0 80.579979 64.283138 C 82.024943 66.105614 83.94064 67.058534 86.183482 67.058534 C 88.037588 67.058534 89.673853 66.379926 90.988403 65.066353 L 90.990468 65.064284 C 92.331326 63.735677 93.141318 61.832193 93.459003 59.417788 A 0.50005 0.50005 0 0 0 93.042935 58.859605 L 90.363267 58.433337 A 0.50005 0.50005 0 0 0 89.789237 58.868917 C 89.599543 60.481326 89.149896 61.613614 88.513673 62.302855 C 87.867057 63.004267 87.145935 63.324035 86.238201 63.324035 C 85.071257 63.324035 84.173564 62.837462 83.394378 61.742085 C 82.658085 60.690447 82.230315 58.849979 82.230315 56.230609 C 82.230315 53.700163 82.672478 51.915691 83.443418 50.873293 C 84.258347 49.775402 85.192518 49.283066 86.386871 49.283066 C 87.162803 49.283066 87.776646 49.547909 88.336095 50.128877 A 0.50005 0.50005 0 0 0 88.339708 50.130946 C 88.884909 50.686631 89.308032 51.582014 89.554876 52.851507 A 0.50005 0.50005 0 0 0 90.13665 53.248287 L 92.779149 52.748043 A 0.50005 0.50005 0 0 0 93.181796 52.181583 C 92.849671 50.035549 92.073609 48.360681 90.822182 47.23036 C 89.599515 46.115526 88.057973 45.549085 86.29292 45.549085 z M 45.164082 45.992424 A 0.50005 0.50005 0 0 0 44.663871 46.492151 L 44.663871 58.65061 C 44.663871 60.488577 44.808735 61.952527 45.12485 63.072103 A 0.50005 0.50005 0 0 0 45.126915 63.078311 C 45.463653 64.223218 46.139025 65.192187 47.113307 65.939581 A 0.50005 0.50005 0 0 0 47.117436 65.94165 C 48.106923 66.687153 49.312263 67.058534 50.670021 67.058534 C 51.8279 67.058534 52.895668 66.753345 53.826154 66.146507 C 54.390787 65.778268 54.806253 65.10389 55.269488 64.52731 L 55.269488 66.115468 A 0.50005 0.50005 0 0 0 55.7697 66.615194 L 58.208811 66.615194 A 0.50005 0.50005 0 0 0 58.709023 66.115468 L 58.709023 46.492151 A 0.50005 0.50005 0 0 0 58.208811 45.992424 L 55.474425 45.992424 A 0.50005 0.50005 0 0 0 54.97473 46.492151 L 54.97473 57.006065 C 54.97473 59.421347 54.588672 61.027683 54.005797 61.781401 C 53.246209 62.752063 52.355733 63.195225 51.187784 63.195224 C 50.584384 63.195225 50.075178 63.027945 49.603523 62.683599 C 49.145179 62.32772 48.837859 61.88168 48.65627 61.298746 C 48.494854 60.731899 48.379063 59.376832 48.379063 57.374911 L 48.379063 46.492151 A 0.50005 0.50005 0 0 0 47.878852 45.992424 L 45.164082 45.992424 z M 33.892549 46.048812 C 34.841041 46.048812 35.703258 46.283239 36.479297 46.751326 C 37.267655 47.219413 37.963797 47.921142 38.567383 48.857316 L 38.567383 46.492668 L 41.080313 46.492668 L 41.080313 63.454399 C 41.080313 66.47233 40.833818 68.622169 40.341095 69.90325 C 39.848371 71.196649 39.041513 72.212703 37.920567 72.951788 C 36.799622 73.703192 35.45068 74.079018 33.873965 74.079018 C 31.792208 74.079018 30.191023 73.518172 29.070077 72.397226 C 27.949131 71.27628 27.407049 69.724602 27.444003 67.74139 L 30.10457 68.221458 C 30.227752 69.268495 30.597494 70.044852 31.213398 70.549894 C 31.829303 71.067253 32.685253 71.325867 33.781563 71.325867 C 34.976417 71.325867 35.924803 71.036244 36.626935 70.457294 C 37.341384 69.890662 37.828108 69.040712 38.086788 67.907448 C 38.246923 67.217635 38.326828 65.764254 38.326828 63.546998 C 37.735559 64.396946 37.070745 65.037173 36.33166 65.468307 C 35.592575 65.89944 34.773186 66.115468 33.873965 66.115468 C 31.952343 66.115468 30.357424 65.302315 29.088661 63.676327 C 27.635127 61.803977 26.908173 59.297228 26.908173 56.156116 C 26.908173 54.049723 27.228307 52.207905 27.868847 50.63119 C 28.509388 49.054475 29.347058 47.896503 30.381777 47.157418 C 31.428815 46.418333 32.59915 46.048812 33.892549 46.048812 z M 69.331675 46.048812 C 71.019253 46.048812 72.343648 46.369443 73.304458 47.009983 C 74.265269 47.638206 74.868975 48.420351 75.115337 49.356525 C 75.374017 50.2927 75.503014 51.659877 75.503014 53.458317 L 75.503014 57.892743 C 75.503014 60.996901 75.558372 62.955415 75.669235 63.768409 C 75.792416 64.569084 76.02638 65.351746 76.371286 66.115468 L 73.525914 66.115468 C 73.242598 65.437973 73.057727 64.631125 72.9715 63.69495 C 72.059962 64.643443 71.111576 65.357782 70.126129 65.838187 C 69.140682 66.318592 68.118657 66.558807 67.059301 66.558807 C 65.384041 66.558807 64.047115 66.053674 63.04935 65.043591 C 62.051585 64.033508 61.552846 62.672119 61.552846 60.959905 C 61.552846 59.826641 61.786809 58.82268 62.254897 57.948096 C 62.722984 57.073511 63.363768 56.390182 64.176762 55.897458 C 64.989755 55.404735 66.221198 55.041002 67.871822 54.806958 C 70.089078 54.486688 71.715325 54.105073 72.750044 53.661622 L 72.768628 52.811673 C 72.768628 51.469002 72.528399 50.526542 72.047993 49.984546 C 71.370499 49.196189 70.329677 48.801963 68.925415 48.801963 C 67.656652 48.801963 66.707749 49.066882 66.079527 49.596559 C 65.451304 50.113919 64.989642 51.093176 64.694008 52.534392 L 62.014857 52.091053 C 62.396718 49.984661 63.166499 48.450863 64.324399 47.490052 C 65.494617 46.529241 67.163692 46.048812 69.331675 46.048812 z M 86.293952 46.048812 C 87.956894 46.048812 89.354927 46.566556 90.488191 47.601275 C 91.633773 48.635994 92.366477 50.187673 92.686747 52.257111 L 90.044763 52.756321 C 89.786084 51.425967 89.336437 50.4341 88.695896 49.781241 C 88.055356 49.116064 87.285575 48.783857 86.386355 48.783857 C 85.043683 48.783857 83.928706 49.380983 83.041804 50.575837 C 82.167219 51.758374 81.730104 53.643294 81.730104 56.230092 C 81.730104 58.903117 82.148939 60.836927 82.986569 62.031782 C 83.836517 63.226636 84.920166 63.824279 86.238201 63.824279 C 87.27292 63.824279 88.153933 63.430054 88.880701 62.641696 C 89.619786 61.841021 90.087714 60.602633 90.284803 58.927373 L 92.963954 59.352607 C 92.656001 61.693043 91.879955 63.479148 90.635828 64.710957 C 89.40402 65.942766 87.919816 66.558807 86.182966 66.558807 C 84.076574 66.558807 82.33961 65.696246 80.972302 63.971714 C 79.617312 62.234864 78.939967 59.672919 78.939967 56.285445 C 78.939967 52.873335 79.623578 50.317178 80.990885 48.617282 C 82.370511 46.905068 84.138287 46.048812 86.293952 46.048812 z M 45.163566 46.492668 L 47.879885 46.492668 L 47.879885 57.375428 C 47.879885 59.395594 47.978069 60.750678 48.175159 61.440491 C 48.384566 62.117985 48.760574 62.666221 49.30257 63.085036 C 49.856885 63.491533 50.485137 63.69495 51.187268 63.69495 C 52.492985 63.69495 53.564619 63.158808 54.402249 62.087135 C 55.116698 61.163278 55.473909 59.469682 55.473909 57.006065 L 55.473909 46.492668 L 58.208295 46.492668 L 58.208295 66.115468 L 55.7697 66.115468 L 55.7697 63.232988 C 55.141478 64.341616 54.401993 65.17265 53.552044 65.726964 C 52.702097 66.281278 51.741695 66.558807 50.670021 66.558807 C 49.401259 66.558807 48.317093 66.219777 47.417873 65.542283 C 46.518653 64.85247 45.914946 63.984121 45.606994 62.937083 C 45.31136 61.890046 45.163566 60.461369 45.163566 58.65061 L 45.163566 46.492668 z M 33.984951 48.801963 C 32.851687 48.801963 31.853693 49.405912 30.991426 50.613084 C 30.141478 51.807938 29.716894 53.587738 29.716894 55.952811 C 29.716894 58.527291 30.141478 60.405907 30.991426 61.588443 C 31.841375 62.770979 32.882712 63.362317 34.114521 63.362317 C 35.34633 63.362317 36.392901 62.783072 37.255167 61.625172 C 38.117433 60.467272 38.5488 58.625971 38.5488 56.100763 C 38.5488 53.637146 38.105418 51.807938 37.218516 50.613084 C 36.331614 49.405912 35.253714 48.801963 33.984951 48.801963 z M 33.984435 49.302724 C 35.094621 49.302724 35.99684 49.792462 36.816385 50.907953 A 0.50005 0.50005 0 0 0 36.816385 50.910023 C 37.605263 51.972819 38.048588 53.698183 38.048588 56.101798 C 38.048588 58.570092 37.611824 60.307914 36.853553 61.326164 C 36.059408 62.392586 35.190179 62.861555 34.115037 62.861555 C 33.043229 62.861555 32.18134 62.386258 31.398203 61.296677 C 30.648618 60.253777 30.216589 58.472782 30.216589 55.953328 C 30.216589 53.649079 30.639153 51.972272 31.398203 50.904332 C 32.200251 49.781466 33.028708 49.302724 33.984435 49.302724 z M 72.750044 56.266821 C 71.752279 56.759545 70.268076 57.178474 68.297182 57.52338 C 67.1516 57.72047 66.351007 57.948074 65.895238 58.206753 C 65.439469 58.453115 65.081741 58.810543 64.823062 59.27863 C 64.5767 59.734399 64.453969 60.264237 64.453969 60.867823 C 64.453969 61.803998 64.743291 62.555133 65.322241 63.121765 C 65.901191 63.676078 66.701784 63.953608 67.724185 63.953608 C 68.697314 63.953608 69.578326 63.700783 70.366684 63.195741 C 71.167359 62.6907 71.7648 62.019463 72.158979 61.181833 C 72.553158 60.331885 72.750044 59.10032 72.750044 57.486651 L 72.750044 56.266821 z M 72.249833 56.919673 L 72.249833 57.486133 C 72.249833 59.059089 72.048594 60.230384 71.705227 60.970768 C 71.350119 61.72418 70.825465 62.315886 70.099802 62.773612 A 0.50005 0.50005 0 0 0 70.097737 62.775681 C 69.388063 63.230315 68.611332 63.453364 67.724701 63.453364 C 66.794521 63.453364 66.14424 63.214669 65.671718 62.763783 C 65.191142 62.293431 64.953148 61.700411 64.953148 60.867305 C 64.953148 60.334122 65.061128 59.895241 65.261844 59.521769 C 65.478355 59.129985 65.758649 58.848659 66.132697 58.646471 A 0.50005 0.50005 0 0 0 66.142505 58.64285 C 66.489282 58.44603 67.260332 58.208635 68.380809 58.015864 A 0.50005 0.50005 0 0 0 68.382874 58.015864 C 70.065716 57.721309 71.226573 57.338386 72.249833 56.919673 z " />
      <path
         style="color:#000000;-inkscape-font-specification:'Arial, Condensed';display:inline;fill:#000000;stroke-linecap:round;stroke-linejoin:round;-inkscape-stroke:none;paint-order:stroke fill markers"
         d="m 27.444042,67.741216 2.660709,0.480406 q 0.184772,1.570557 1.108629,2.328121 0.923858,0.77604 2.568324,0.77604 1.792283,0 2.845481,-0.868426 1.071675,-0.849949 1.459695,-2.549847 0.240203,-1.03472 0.240203,-4.360607 -0.886904,1.274923 -1.995532,1.921624 -1.108629,0.6467 -2.457461,0.6467 -2.882436,0 -4.785582,-2.438984 -2.180304,-2.808527 -2.180304,-7.5202 0,-3.159592 0.960812,-5.524667 0.960812,-2.365075 2.512892,-3.473704 1.570558,-1.108629 3.510659,-1.108629 1.42274,0 2.586801,0.702131 1.182537,0.702132 2.087918,2.106395 v -2.365075 h 2.512892 v 16.962023 q 0,4.526902 -0.739086,6.448525 -0.739086,1.940101 -2.420507,3.04873 -1.68142,1.127106 -4.046495,1.127106 -3.122639,0 -4.804059,-1.68142 -1.681421,-1.681421 -1.625989,-4.656242 z m 2.272689,-11.788421 q 0,3.861724 1.274923,5.63553 1.274924,1.773806 3.122639,1.773806 1.847715,0 3.141115,-1.736852 1.2934,-1.736852 1.2934,-5.524667 0,-3.69543 -1.330354,-5.487714 -1.330355,-1.81076 -3.233501,-1.81076 -1.699898,0 -2.993299,1.81076 -1.274923,1.792284 -1.274923,5.339897 z m 26.052781,10.162432 v -2.882436 q -0.942334,1.662944 -2.217258,2.494416 -1.274923,0.831471 -2.882435,0.831471 -1.903146,0 -3.251978,-1.016243 -1.348832,-1.03472 -1.810761,-2.605278 -0.443452,-1.570558 -0.443452,-4.286699 V 46.492494 h 2.716141 v 10.883041 q 0,3.030253 0.295635,4.064973 0.314111,1.016243 1.127106,1.644466 0.831472,0.609746 1.884669,0.609746 1.958578,0 3.215024,-1.607512 1.071675,-1.385786 1.071675,-5.081216 V 46.492494 h 2.734618 V 66.115227 Z M 72.971739,63.69472 q -1.367309,1.422741 -2.845481,2.14335 -1.478172,0.720608 -3.067207,0.720608 -2.512892,0 -4.009541,-1.515126 -1.49665,-1.515126 -1.49665,-4.08345 0,-1.699898 0.702132,-3.011775 0.702132,-1.311878 1.921624,-2.050964 1.219491,-0.739086 3.695429,-1.090152 3.325887,-0.480406 4.877968,-1.145583 l 0.01848,-0.849949 q 0,-2.014009 -0.720609,-2.827004 -1.016243,-1.182537 -3.122638,-1.182537 -1.903146,0 -2.845481,0.794517 -0.942335,0.776041 -1.385786,2.937867 l -2.67919,-0.443452 q 0.572792,-3.159592 2.309644,-4.60081 1.755329,-1.441217 5.007307,-1.441217 2.53137,0 3.972587,0.960811 1.441218,0.942335 1.810761,2.346598 0.38802,1.404264 0.38802,4.101927 v 4.434516 q 0,4.656242 0.166294,5.875734 0.184772,1.201014 0.702132,2.346598 H 73.526053 Q 73.101079,65.098984 72.971739,63.69472 Z m -0.221726,-7.427814 q -1.496649,0.739086 -4.452993,1.256446 -1.718375,0.295635 -2.402029,0.683655 -0.683655,0.369543 -1.071675,1.071675 -0.369543,0.683654 -0.369543,1.589034 0,1.404264 0.868426,2.254213 0.868426,0.831471 2.402029,0.831471 1.459695,0 2.642233,-0.757563 1.201014,-0.757563 1.792283,-2.014009 0.591269,-1.274923 0.591269,-3.69543 z m 17.534813,2.66071 2.679187,0.424974 q -0.461929,3.510658 -2.328121,5.358373 -1.847715,1.847715 -4.452993,1.847715 -3.159592,0 -5.210556,-2.586801 -2.032486,-2.605278 -2.032486,-7.686494 0,-5.11817 2.050963,-7.668017 2.069441,-2.568323 5.302942,-2.568323 2.494415,0 4.194313,1.55208 1.718375,1.552081 2.198781,4.656242 l -2.642233,0.498883 q -0.38802,-1.995532 -1.348832,-2.974821 -0.960811,-0.997766 -2.309643,-0.997766 -2.01401,0 -3.344364,1.792283 -1.311878,1.773807 -1.311878,5.654008 0,4.009541 1.256446,5.801825 1.274924,1.792283 3.251979,1.792283 1.55208,0 2.642232,-1.182537 1.108629,-1.201015 1.404263,-3.713907 z"
         id="path22" />
    </g>
  </g>
  <g
     inkscape:groupmode="layer"
     id="layer2"
     inkscape:label="SUPPORT">
    <path
       id="path7"
       style="fill:#7e36f4;stroke-linecap:round;stroke-linejoin:round;paint-order:stroke fill markers"
       d="m 204.90133,27.034728 -32.49982,56.291665 2.59829,1.50016 v 8.66046 c 1.2e-4,2.76156 -2.23864,5.00033 -5.00021,5.00021 -2.76137,1.7e-4 -4.99981,2.238837 -4.9997,5.000207 h 4.9997 75.00007 V 93.487013 c 0,-32.722525 -13.25622,-50.954935 -37.50003,-64.952115 z"
       sodipodi:nodetypes="ccccccccssc" />
    <path
       id="path20"
       style="fill:#7e36f4;stroke-linecap:round;stroke-linejoin:round;paint-order:stroke fill markers"
       d="m 165.09833,87.67802 32.49982,-56.29166 -2.59829,-1.50016 v -8.66046 c -1.2e-4,-2.76156 2.23864,-5.00033 5.00021,-5.00021 2.76137,-1.7e-4 4.99981,-2.23884 4.9997,-5.00021 H 200.00007 125 v 10.00042 c 0,32.72252 13.25622,50.95493 37.50003,64.95211 z"
       sodipodi:nodetypes="ccccccccssc" />
  </g>
</svg>
