<?xml version="1.0" encoding="UTF-8" standalone="no"?>
<!-- Created with Inkscape (http://www.inkscape.org/) -->

<svg
   width="2.75in"
   height="1.25in"
   viewBox="0 0 69.85 31.75"
   version="1.1"
   id="svg1"
   inkscape:version="1.3.1 (91b66b0783, 2023-11-16)"
   sodipodi:docname="dihada-token.svg"
   xmlns:inkscape="http://www.inkscape.org/namespaces/inkscape"
   xmlns:sodipodi="http://sodipodi.sourceforge.net/DTD/sodipodi-0.dtd"
   xmlns="http://www.w3.org/2000/svg"
   xmlns:svg="http://www.w3.org/2000/svg">
  <sodipodi:namedview
     id="namedview1"
     pagecolor="#ffffff"
     bordercolor="#000000"
     borderopacity="0.25"
     inkscape:showpageshadow="2"
     inkscape:pageopacity="0.0"
     inkscape:pagecheckerboard="false"
     inkscape:deskcolor="#d1d1d1"
     inkscape:document-units="in"
     inkscape:zoom="4"
     inkscape:cx="139.75"
     inkscape:cy="69.75"
     inkscape:window-width="1620"
     inkscape:window-height="1010"
     inkscape:window-x="-6"
     inkscape:window-y="-6"
     inkscape:window-maximized="1"
     inkscape:current-layer="layer1"
     showguides="true" />
  <defs
     id="defs1">
    <rect
       x="162.96371"
       y="64.774223"
       width="129.04063"
       height="64.68602"
       id="rect2" />
    <rect
       x="162.96371"
       y="64.774223"
       width="129.04063"
       height="64.68602"
       id="rect4" />
    <rect
       x="162.96371"
       y="64.774223"
       width="129.04063"
       height="64.68602"
       id="rect3" />
    <rect
       x="162.96371"
       y="64.774223"
       width="129.04063"
       height="64.68602"
       id="rect16" />
  </defs>
  <g
     inkscape:groupmode="layer"
     id="layer2"
     inkscape:label="RAW"
     style="display:none">
    <rect
       style="fill:#ffe9a6;stroke:none;stroke-width:0.15;stroke-linecap:round;stroke-linejoin:round"
       id="rect1"
       width="63.5"
       height="25.4"
       x="3.175"
       y="3.1750002"
       rx="3.175"
       ry="3.175"
       inkscape:label="cut" />
    <rect
       style="display:inline;fill:#ffe9a6;stroke:#000000;stroke-width:0.508;stroke-linecap:round;stroke-linejoin:round;stroke-dasharray:none"
       id="rect5"
       width="60.325001"
       height="22.225"
       x="4.7624998"
       y="4.7624998"
       rx="2.54"
       ry="2.54"
       inkscape:label="border" />
    <path
       id="rect6"
       style="display:inline;fill:#000000;fill-opacity:1;stroke:none;stroke-width:0.15;stroke-linecap:round;stroke-linejoin:round"
       inkscape:label="inset"
       d="M 7.3023966,4.7625 C 5.8952381,4.7625 4.7625,5.8952381 4.7625,7.3023966 V 24.447603 c 0,1.407159 1.1327381,2.539897 2.5398966,2.539897 H 26.789062 V 4.7625 Z" />
    <text
       xml:space="preserve"
       id="text4"
       style="font-style:normal;font-variant:normal;font-weight:normal;font-stretch:normal;font-size:18.6667px;line-height:1.1;font-family:'Franklin Gothic Medium Cond';-inkscape-font-specification:'Franklin Gothic Medium Cond, Normal';font-variant-ligatures:normal;font-variant-caps:normal;font-variant-numeric:normal;font-variant-east-asian:normal;letter-spacing:0.4px;white-space:pre;shape-inside:url(#rect4);display:inline;fill:#856404"
       transform="matrix(0.26458333,0,0,0.26458333,-13.417449,-9.1818204)"
       inkscape:label="raw font"><tspan
         x="162.96289"
         y="80.390288"
         id="tspan1">INDESTRUCTIBLE
</tspan><tspan
         x="162.96289"
         y="100.92366"
         id="tspan2">LIFELINK
</tspan><tspan
         x="162.96289"
         y="121.45703"
         id="tspan3">VIGILANCE</tspan></text>
    <g
       id="g14"
       inkscape:label="crown"
       style="display:inline"
       transform="matrix(0.85326598,0,0,0.85326598,-7.563926,-6.4579529)">
      <path
         id="path4"
         style="color:#000000;fill:#856404;stroke-width:0.860652;stroke-linecap:round;stroke-linejoin:round;-inkscape-stroke:none"
         d="m 18.729969,31.866996 c 0,0.226912 0.150779,0.414083 0.317352,0.5398 0.166574,0.125718 0.364636,0.216829 0.596524,0.3015 0.463777,0.169343 1.071923,0.304883 1.816298,0.419845 1.488751,0.229922 3.505941,0.36832 5.735224,0.36832 2.229287,0 4.246475,-0.138398 5.735225,-0.36832 0.744375,-0.114962 1.354428,-0.250502 1.818207,-0.419845 0.231888,-0.08467 0.429951,-0.175782 0.596523,-0.3015 0.166573,-0.125717 0.34802,-0.303228 0.317352,-0.5398 0,0 -0.06335,-0.382327 -0.280544,-0.23025 -0.217197,0.152077 -0.401434,0.227696 -0.633323,0.312368 -0.463779,0.169342 -1.073832,0.303276 -1.818207,0.418235 -1.488749,0.229923 -3.505938,0.36832 -5.735225,0.36832 -2.229283,0 -4.246474,-0.138397 -5.735224,-0.36832 -0.744377,-0.114959 -1.352521,-0.248893 -1.816298,-0.418235 -0.231889,-0.08467 -0.372924,-0.15128 -0.596048,-0.302707 -0.223123,-0.151427 -0.317836,0.151791 -0.317836,0.220589 z"
         sodipodi:nodetypes="ssssssssczssssszs"
         inkscape:label="backring" />
      <path
         id="path13"
         style="display:inline;fill:#856404;fill-opacity:1;stroke:#d6a206;stroke-width:0;stroke-linejoin:round;stroke-dasharray:none;stroke-opacity:1"
         inkscape:label="crown back"
         d="m 21.604883,20.870561 c -0.49697,1.285476 -1.256161,2.199111 -1.99471,2.83962 0.210678,0.0634 0.428499,0.115981 0.653706,0.150379 0.979374,0.149588 2.074875,-0.0024 3.22461,-0.824239 0.103375,-0.07389 0.206949,-0.155531 0.311092,-0.240813 -0.803759,-0.410698 -1.599454,-1.01783 -2.194698,-1.924947 z m 11.181229,0 c -0.594984,0.906723 -1.390339,1.513734 -2.193664,1.924431 0.104327,0.08546 0.208569,0.167302 0.312126,0.241329 1.149691,0.821812 2.245293,0.973826 3.224609,0.824239 0.224662,-0.03432 0.441474,-0.08718 0.65164,-0.150379 -0.738582,-0.640513 -1.497718,-1.554092 -1.994711,-2.83962 z" />
      <path
         id="path11"
         style="color:#000000;fill:#ffe9a6;fill-opacity:1;stroke-width:1.02284;stroke-linecap:round;stroke-linejoin:round;-inkscape-stroke:none"
         d="m 17.881423,30.930092 c 0,-0.291303 0.165886,-0.531589 0.349151,-0.692981 0.183265,-0.161393 0.401174,-0.278359 0.656299,-0.387057 0.51025,-0.217397 1.179336,-0.3914 1.998301,-0.538985 1.637933,-0.295168 3.857256,-0.472839 6.309927,-0.472839 2.452673,0 4.671994,0.177671 6.309926,0.472839 0.818965,0.147585 1.490149,0.321588 2.000401,0.538985 0.255125,0.108698 0.473035,0.225664 0.656298,0.387057 0.183265,0.161392 0.382893,0.389276 0.349153,0.692981 0,0 -0.0697,0.490821 -0.308655,0.295588 -0.238963,-0.195232 -0.441661,-0.29231 -0.696788,-0.401009 -0.510251,-0.217397 -1.181435,-0.389337 -2.000401,-0.536918 -1.63793,-0.295169 -3.857252,-0.47284 -6.309925,-0.47284 -2.452671,0 -4.671996,0.177671 -6.309927,0.47284 -0.818968,0.147581 -1.488051,0.319521 -1.998301,0.536918 -0.255126,0.108699 -0.410294,0.194209 -0.655774,0.388607 -0.245482,0.194398 -0.349685,-0.194865 -0.349685,-0.283186 z"
         sodipodi:nodetypes="ssssssssczssssszs"
         inkscape:label="front ring" />
      <path
         id="path12"
         style="display:inline;fill:#ffe9a6;fill-opacity:1;stroke:#d6a206;stroke-width:0;stroke-linejoin:round;stroke-dasharray:none;stroke-opacity:1"
         inkscape:label="crown"
         d="m 27.19679,18.850529 c -0.922159,1.98799 -1.900579,3.387959 -2.893364,4.276742 l -5.17e-4,5.16e-4 c -0.08353,0.07476 -0.167482,0.145947 -0.251147,0.213941 -0.0028,0.0023 -0.006,0.005 -0.0088,0.0072 -10e-4,8.33e-4 -0.0021,0.0018 -0.0031,0.0026 -0.08557,0.0692 -0.171096,0.134569 -0.256832,0.195854 -0.625963,0.447451 -1.253054,0.717774 -1.859834,0.855245 -0.151696,0.03437 -0.302319,0.06007 -0.451136,0.07855 -0.148815,0.01848 -0.296048,0.02959 -0.441316,0.03359 -0.290535,0.008 -0.573122,-0.01164 -0.845427,-0.05323 -0.09768,-0.01492 -0.193036,-0.03217 -0.286287,-0.05116 -0.07895,-0.01608 -0.155651,-0.03401 -0.231511,-0.05271 -0.01308,-0.0032 -0.0268,-0.006 -0.03979,-0.0093 -0.0876,-0.02224 -0.173294,-0.046 -0.256832,-0.07131 -0.08421,-0.02551 -0.166302,-0.05242 -0.246497,-0.08061 -1.025324,-0.360423 -1.717999,-0.929825 -2.128552,-1.30328 0.250654,2.141648 0.823478,4.540328 1.046964,6.68383 1.47017,-1.268256 5.074043,-1.546395 9.153447,-1.547709 4.069133,2.6e-4 7.702516,0.525584 9.183935,1.459859 0.427822,-2.751762 0.981138,-5.957878 1.015959,-6.59598 -0.410347,0.373381 -1.104213,0.943324 -2.130619,1.303797 -0.0078,0.0027 -0.01596,0.005 -0.02377,0.0078 -0.07216,0.02501 -0.145282,0.04953 -0.220659,0.07235 -6.9e-4,2.09e-4 -0.0014,3.09e-4 -0.0021,5.17e-4 -0.0093,0.0028 -0.01908,0.005 -0.02842,0.0078 -0.07182,0.02133 -0.144837,0.04192 -0.219625,0.06098 -0.04298,0.0109 -0.08781,0.0204 -0.131775,0.03049 -0.04931,0.01137 -0.09773,0.02331 -0.148311,0.03359 -0.09324,0.01895 -0.188636,0.03624 -0.286287,0.05116 -0.272292,0.04159 -0.554891,0.06122 -0.845427,0.05323 -0.145269,-0.004 -0.292497,-0.01511 -0.441317,-0.03359 -0.148817,-0.01848 -0.299436,-0.04418 -0.451135,-0.07855 -0.530944,-0.120287 -1.077557,-0.342223 -1.625224,-0.695565 -0.07824,-0.05048 -0.156368,-0.103748 -0.234611,-0.15968 -0.08571,-0.06126 -0.171353,-0.126642 -0.256832,-0.195854 -0.0037,-0.003 -0.0072,-0.0063 -0.01085,-0.0093 -0.08394,-0.06828 -0.167863,-0.139886 -0.251664,-0.214974 -0.992048,-0.888873 -1.968651,-2.289007 -2.890779,-4.276742 z" />
    </g>
  </g>
  <g
     inkscape:label="EXPORT"
     inkscape:groupmode="layer"
     id="layer1"
     style="display:inline">
    <rect
       style="display:inline;fill:#ffe9a6;stroke:none;stroke-width:0.15;stroke-linecap:round;stroke-linejoin:round"
       id="rect7"
       width="63.5"
       height="25.4"
       x="3.175"
       y="3.1750002"
       rx="3.175"
       ry="3.175"
       inkscape:label="cut" />
    <path
       id="path21"
       style="color:#000000;display:inline;fill:#000000;stroke-linecap:round;stroke-linejoin:round;-inkscape-stroke:none"
       inkscape:label="inset"
       d="m 7.3029134,4.5077352 c -1.543473,0 -2.7951782,1.2517052 -2.7951782,2.7951782 V 24.447087 c 0,1.543471 1.2517052,2.795178 2.7951782,2.795178 H 62.547087 c 1.543471,0 2.794661,-1.251707 2.794661,-2.795178 V 7.3029134 c 0,-1.543473 -1.25119,-2.7951782 -2.794661,-2.7951782 z M 26.789062,5.0157145 h 35.758025 c 1.270826,0 2.286682,1.0163692 2.286682,2.2871989 V 24.447087 c 0,1.270826 -1.015856,2.287198 -2.286682,2.287198 H 26.789062 Z M 15.641939,9.6268026 c 0.78682,1.6960654 1.620553,2.8904284 2.467033,3.6488724 0.0715,0.06407 0.142834,0.125191 0.214457,0.183452 0.0031,0.0026 0.0061,0.0057 0.0093,0.0083 0.07294,0.05906 0.145975,0.114644 0.219108,0.166915 0.06676,0.04773 0.133229,0.09335 0.199988,0.136426 0.467305,0.301494 0.933959,0.490608 1.386995,0.593245 0.12944,0.02933 0.258009,0.05141 0.38499,0.06718 0.126983,0.01577 0.252768,0.02501 0.376721,0.02842 0.247904,0.0068 0.489066,-0.01 0.721403,-0.04548 0.08332,-0.01273 0.164354,-0.02724 0.243913,-0.04341 0.04316,-0.0088 0.08453,-0.01872 0.126607,-0.02842 0.03751,-0.0086 0.07598,-0.01705 0.112655,-0.02635 0.06381,-0.01626 0.125787,-0.03399 0.187068,-0.05219 0.008,-0.0024 0.01635,-0.0038 0.02429,-0.0062 5.98e-4,-1.78e-4 0.0015,-3.39e-4 0.0021,-5.17e-4 0.06432,-0.01947 0.126531,-0.04067 0.188103,-0.06201 0.0067,-0.0024 0.0135,-0.0044 0.02015,-0.0067 0.875797,-0.307579 1.467842,-0.793484 1.817977,-1.112077 -0.02971,0.544471 -0.501568,3.280098 -0.866614,5.628081 -1.264043,-0.797185 -4.364164,-1.245697 -7.836214,-1.245919 -3.480813,0.0011 -6.5559309,0.238691 -7.8103757,1.320849 -0.1906928,-1.828975 -0.6796112,-3.875617 -0.8934855,-5.703011 0.3503106,0.318657 0.9415534,0.804541 1.8164266,1.112077 0.068428,0.02405 0.1384696,0.04696 0.2103231,0.06873 0.07128,0.0216 0.144362,0.04148 0.219108,0.06046 0.011084,0.0028 0.022429,0.0055 0.03359,0.0083 0.064729,0.01596 0.1305555,0.03124 0.1979208,0.04496 0.079568,0.0162 0.1605658,0.03068 0.2439127,0.04341 0.2323484,0.03549 0.473499,0.0523 0.721403,0.04548 0.123952,-0.0034 0.249742,-0.01265 0.376721,-0.02842 0.12698,-0.01577 0.255552,-0.03785 0.384989,-0.06718 0.517745,-0.117299 1.052871,-0.347877 1.586984,-0.729671 0.07315,-0.05229 0.146094,-0.108386 0.219108,-0.167432 8.53e-4,-6.82e-4 0.0017,-0.0014 0.0026,-0.0021 0.0024,-0.0019 0.0048,-0.0042 0.0072,-0.0062 0.07139,-0.05802 0.143184,-0.118628 0.214457,-0.182418 l 5.17e-4,-5.17e-4 c 0.847109,-0.758367 1.681737,-1.95259 2.468583,-3.6488724 z m -4.771285,1.7234094 c 0.507901,0.774009 1.186937,1.291842 1.872754,1.642277 -0.08886,0.07277 -0.17741,0.142624 -0.265617,0.205672 -0.981026,0.701244 -1.915589,0.830954 -2.7512529,0.703316 -0.1921609,-0.02935 -0.3778249,-0.07406 -0.5575887,-0.128158 0.6301769,-0.546521 1.2776596,-1.32626 1.7017046,-2.423107 z m 9.540503,0 c 0.424067,1.096892 1.072018,1.876582 1.702222,2.423107 -0.179327,0.05393 -0.364342,0.09887 -0.556039,0.128158 -0.835614,0.127637 -1.770264,-0.0021 -2.751253,-0.703316 -0.08836,-0.06317 -0.177632,-0.132752 -0.26665,-0.205672 0.685447,-0.350434 1.364043,-0.868604 1.87172,-1.642277 z m -4.770251,6.798551 c 2.092778,0 3.986062,0.151736 5.38365,0.403593 0.698795,0.125929 1.271493,0.274423 1.706873,0.45992 0.217689,0.09275 0.403801,0.192502 0.560173,0.330213 0.156372,0.137709 0.326962,0.332037 0.298173,0.591178 0,0 -0.05966,0.418766 -0.26355,0.252181 -0.203899,-0.166585 -0.377105,-0.249349 -0.594796,-0.342098 -0.435379,-0.185497 -1.008077,-0.332444 -1.706873,-0.45837 -1.397586,-0.251857 -3.290872,-0.403076 -5.38365,-0.403076 -2.092777,0 -3.986579,0.151219 -5.384168,0.403076 -0.6987956,0.125926 -1.2699439,0.272873 -1.705322,0.45837 -0.2176899,0.09275 -0.3496797,0.16589 -0.559139,0.331763 -0.209461,0.165873 -0.2986898,-0.166485 -0.2986898,-0.241846 0,-0.248559 0.1417995,-0.453469 0.2981731,-0.591178 0.1563734,-0.137711 0.3419667,-0.237465 0.5596557,-0.330213 0.4353781,-0.185497 1.006529,-0.333991 1.705322,-0.45992 1.39759,-0.251857 3.291391,-0.403593 5.384168,-0.403593 z m 7.07657,2.357996 c 0.112786,0.01116 0.148312,0.226342 0.148312,0.226342 0.02617,0.201859 -0.128654,0.35317 -0.270785,0.460437 -0.14213,0.107271 -0.311151,0.185103 -0.509013,0.257349 -0.395723,0.144495 -0.91618,0.260025 -1.551326,0.358118 -1.270296,0.196184 -2.991591,0.314192 -4.893758,0.314192 -1.902164,0 -3.623465,-0.118008 -4.893758,-0.314192 C 10.111998,21.710912 9.593095,21.595382 9.1973714,21.450887 8.9995101,21.37864 8.8304897,21.300809 8.6883586,21.193538 8.5462279,21.086271 8.4175741,20.926717 8.4175741,20.733101 c 0,-0.0587 0.080919,-0.317309 0.2713012,-0.188102 0.1903834,0.129208 0.3106339,0.186136 0.5084961,0.258382 0.3957236,0.144494 0.9146256,0.258477 1.5497766,0.356568 1.270292,0.196185 2.991594,0.314192 4.893758,0.314192 1.902167,0 3.623463,-0.118007 4.893758,-0.314192 0.635146,-0.09809 1.155603,-0.212074 1.551326,-0.356568 0.197863,-0.07225 0.355209,-0.136888 0.540536,-0.26665 0.03475,-0.02433 0.06492,-0.03255 0.09095,-0.02997 z" />
    <path
       id="path19"
       style="color:#000000;display:inline;fill:#856404;stroke-width:0.860652;stroke-linecap:round;stroke-linejoin:round;-inkscape-stroke:none"
       inkscape:label="crown shadow"
       d="m 21.604729,20.87059 c -0.496969,1.285475 -1.255794,2.199295 -1.994343,2.839804 0.210678,0.0634 0.428269,0.115798 0.653476,0.150196 0.979373,0.149588 2.074646,-0.0024 3.22438,-0.824263 0.103374,-0.07389 0.207151,-0.15576 0.311294,-0.241042 -0.803758,-0.410697 -1.599563,-1.017579 -2.194807,-1.924695 z m 11.18116,0 c -0.594984,0.906722 -1.390272,1.513999 -2.193596,1.924695 0.104327,0.08546 0.208949,0.167015 0.312506,0.241042 1.14969,0.821811 2.245064,0.97385 3.224379,0.824263 0.224662,-0.03432 0.441493,-0.087 0.651659,-0.150196 -0.738581,-0.640513 -1.497956,-1.554277 -1.994948,-2.839804 z m 2.702931,10.731176 c -0.0305,-0.003 -0.06587,0.0066 -0.106591,0.03513 -0.217197,0.152077 -0.401602,0.227834 -0.63349,0.312506 -0.463779,0.169342 -1.07373,0.302926 -1.818105,0.417885 -1.488747,0.229923 -3.50604,0.368224 -5.735325,0.368224 -2.229281,0 -4.246577,-0.138301 -5.735326,-0.368224 -0.744376,-0.114959 -1.35251,-0.248543 -1.816287,-0.417885 -0.231889,-0.08467 -0.372817,-0.151389 -0.595941,-0.302816 -0.223123,-0.151427 -0.317956,0.151652 -0.317956,0.22045 0,0.226912 0.150778,0.4139 0.31735,0.539617 0.166574,0.125718 0.364659,0.216934 0.596547,0.301604 0.463777,0.169343 1.071913,0.304741 1.816287,0.419703 1.48875,0.229922 3.506045,0.368223 5.735326,0.368223 2.229285,0 4.246577,-0.138301 5.735325,-0.368223 0.744375,-0.114962 1.354326,-0.25036 1.818105,-0.419703 0.231887,-0.08467 0.429974,-0.175886 0.596546,-0.301604 0.166573,-0.125717 0.348019,-0.303045 0.317351,-0.539617 0,0 -0.04164,-0.252189 -0.173816,-0.265266 z"
       transform="matrix(0.85326598,0,0,0.85326598,-7.5639261,-6.4579529)" />
    <path
       id="path17"
       d="m 203.30928,67.720522 c -1.14237,0 -2.05925,0.337239 -2.75196,1.011719 -0.68663,0.674479 -1.03125,1.507594 -1.03125,2.498047 0,0.650174 0.15495,1.229816 0.46485,1.740234 0.3099,0.510417 0.68359,0.896918 1.12109,1.158203 0.44357,0.261285 1.16363,0.580295 2.16016,0.957031 0.94184,0.358507 1.53255,0.695746 1.76953,1.011719 0.23698,0.315972 0.35547,0.658637 0.35547,1.029297 0,0.504341 -0.17318,0.930989 -0.51953,1.277344 -0.34028,0.340278 -0.84158,0.509765 -1.50391,0.509765 -1.35504,0 -2.19358,-0.765624 -2.51562,-2.296875 l -1.8418,0.519532 c 0.54687,2.321182 1.96875,3.482422 4.26562,3.482422 1.33074,0 2.36437,-0.368272 3.09961,-1.103516 0.74132,-0.735243 1.11133,-1.624782 1.11133,-2.669922 0,-0.644098 -0.14214,-1.209201 -0.42773,-1.695313 -0.27952,-0.492187 -0.64779,-0.884114 -1.10352,-1.175781 -0.45573,-0.291667 -1.10655,-0.599826 -1.95117,-0.921875 -0.99045,-0.376736 -1.65213,-0.697483 -1.98633,-0.964844 -0.32813,-0.273437 -0.49219,-0.63802 -0.49219,-1.09375 0,-0.413195 0.14584,-0.777777 0.4375,-1.09375 0.29775,-0.322049 0.71702,-0.484375 1.25782,-0.484375 0.58334,0 1.04275,0.158637 1.37695,0.47461 0.34028,0.309896 0.61372,0.792969 0.82031,1.449219 l 1.75781,-0.611329 c -0.55902,-2.00521 -1.8496,-3.007812 -3.87304,-3.007812 z m 38.91406,0 c -1.47657,0 -2.60677,0.559677 -3.39062,1.677734 -0.78386,1.118056 -1.17579,2.72591 -1.17579,4.822266 0,1.944446 0.37197,3.495659 1.11329,4.65625 0.74132,1.160591 1.86784,1.742188 3.38085,1.742188 2.32726,0 3.68533,-1.383679 4.07422,-4.148438 l -1.89648,-0.263672 c -0.13368,0.875001 -0.35786,1.54579 -0.67383,2.013672 -0.3099,0.461806 -0.78385,0.693359 -1.42187,0.693359 -1.59202,0 -2.38868,-1.525822 -2.38868,-4.576172 0,-3.275176 0.79666,-4.912109 2.38868,-4.912109 1.19097,0 1.8891,0.94249 2.0957,2.826172 l 1.91406,-0.283203 c -0.39496,-2.8316 -1.73481,-4.248047 -4.01953,-4.248047 z m -78.06641,0.228515 v 12.441407 h 2.06055 V 67.949037 Z m 4.78321,0 v 12.441407 h 1.72265 v -9.962891 l 4.59375,9.962891 h 1.92383 V 67.949037 h -1.72266 v 8.968751 l -4.09179,-8.968751 z m 10.96484,0 v 12.441407 h 2.95312 c 1.42188,0 2.51563,-0.291666 3.28125,-0.875 0.77171,-0.583334 1.34224,-1.348957 1.7129,-2.296875 0.37673,-0.953994 0.5664,-2.038628 0.5664,-3.253906 0,-1.154515 -0.20964,-2.20638 -0.6289,-3.154297 -0.4132,-0.947918 -1.02757,-1.660591 -1.8418,-2.140625 -0.80816,-0.480036 -1.8891,-0.720704 -3.24414,-0.720704 z m 10.88086,0 v 12.441407 h 7.21094 v -1.685547 h -5.15039 v -3.892578 h 3.97461 v -1.658203 h -3.97461 v -3.554688 h 5.06836 v -1.650391 z m 17.68945,0 v 1.75 h 2.75391 v 10.691407 h 2.05859 V 69.699037 h 2.78125 v -1.75 z m 8.88672,0 v 12.441407 h 2.0586 v -5.195313 h 1.93359 l 1.94141,5.195313 h 2.23242 l -2.35938,-5.623047 c 1.26997,-0.638021 1.9043,-1.722655 1.9043,-3.253906 0,-1.148439 -0.3227,-2.030816 -0.9668,-2.644532 -0.6441,-0.613716 -1.64301,-0.919922 -2.99804,-0.919922 z m 10.05274,0 v 7.720704 c 0,1.54948 0.15494,2.626735 0.46484,3.234375 0.30989,0.601563 0.76562,1.039062 1.36719,1.3125 0.60764,0.267361 1.32031,0.402344 2.14062,0.402344 1.05729,0 1.89953,-0.217014 2.52539,-0.648438 0.63195,-0.431424 1.03299,-0.974609 1.20313,-1.630859 0.17621,-0.656251 0.26367,-1.591362 0.26367,-2.806641 v -7.583985 h -1.84961 v 7.683594 c 0,1.069445 -0.0601,1.785807 -0.18164,2.150391 -0.12153,0.358508 -0.32942,0.639323 -0.62109,0.839844 -0.29167,0.194444 -0.69814,0.291015 -1.22071,0.291015 -0.55295,0 -0.99414,-0.118489 -1.32226,-0.355468 -0.32205,-0.243056 -0.528,-0.567492 -0.61914,-0.97461 -0.0912,-0.413195 -0.13672,-1.051215 -0.13672,-1.914062 v -7.720704 z m 19.42968,0 v 1.75 h 2.75196 v 10.691407 h 2.06054 V 69.699037 h 2.7793 v -1.75 z m 8.88477,0 v 12.441407 h 2.06055 V 67.949037 Z m 4.84961,0 v 12.441407 h 3.81836 c 1.65885,0 2.77994,-0.340929 3.36328,-1.021485 0.58941,-0.686632 0.88477,-1.488714 0.88477,-2.40625 0,-1.61632 -0.74566,-2.657117 -2.23438,-3.125 1.23351,-0.4375 1.85156,-1.34722 1.85156,-2.726562 0,-0.753473 -0.17144,-1.391492 -0.51172,-1.914063 -0.34028,-0.528646 -0.75586,-0.867621 -1.24804,-1.019531 -0.49219,-0.15191 -1.21224,-0.228516 -2.16016,-0.228516 z m 10.57031,0 v 12.441407 h 6.46289 v -1.740235 h -4.40234 V 67.949037 Z m 8.0293,0 v 12.441407 h 7.20898 v -1.685547 h -5.14843 v -3.892578 h 3.97265 v -1.658203 h -3.97265 v -3.554688 h 5.0664 v -1.650391 z m -59.75781,1.595704 h 1.5957 c 1.35503,0 2.0332,0.64887 2.0332,1.949218 0,0.625868 -0.16775,1.134548 -0.50195,1.523438 -0.32813,0.388889 -0.84397,0.582031 -1.54883,0.582031 h -1.57812 z m 43.17187,0 h 1.50391 c 0.69878,0 1.21463,0.136718 1.54883,0.410156 0.3342,0.267362 0.50195,0.713976 0.50195,1.339844 0,0.534722 -0.14584,0.972221 -0.4375,1.3125 -0.29167,0.334201 -0.89692,0.5 -1.81445,0.5 h -1.30274 z m -80.62695,0.05469 h 0.85547 c 2.27864,0 3.41796,1.523869 3.41796,4.574219 0,1.385418 -0.26974,2.495659 -0.81054,3.328125 -0.5408,0.826389 -1.41037,1.238281 -2.60742,1.238281 h -0.85547 z m 80.62695,5.103516 h 1.48633 c 0.99045,0 1.6467,0.205946 1.96875,0.61914 0.32205,0.413195 0.48242,0.881727 0.48242,1.404297 0,1.342883 -0.7602,2.013672 -2.2793,2.013672 h -1.6582 z m -98.43555,13.779297 v 12.441406 h 6.46289 v -1.740234 h -4.40234 V 88.482241 Z m 8.0293,0 v 12.441406 h 2.05859 V 88.482241 Z m 4.84766,0 v 12.441406 h 2.06054 v -5.423828 h 3.88282 v -1.648437 h -3.88282 v -3.71875 h 4.84766 v -1.650391 z m 8.34765,0 v 12.441406 h 7.20899 V 99.2381 h -5.14844 v -3.892578 h 3.97266 v -1.658203 h -3.97266 v -3.554687 h 5.06641 v -1.650391 z m 8.98633,0 v 12.441406 h 6.46289 v -1.740234 h -4.40234 V 88.482241 Z m 8.0293,0 v 12.441406 h 2.05859 V 88.482241 Z m 4.7832,0 v 12.441406 h 1.72266 v -9.96289 l 4.59375,9.96289 h 1.92383 V 88.482241 h -1.72266 v 8.96875 l -4.09375,-8.96875 z m 10.95508,0 v 12.441406 h 2.06055 v -4.083984 l 1.46679,-2.085938 2.7793,6.169922 h 2.23437 l -3.75585,-7.875 3.20898,-4.566406 h -2.17969 l -3.7539,5.933594 v -5.933594 z m -35.83399,20.304686 c -1.60417,0 -2.79448,0.59614 -3.57226,1.78711 -0.7717,1.18489 -1.1582,2.79448 -1.1582,4.83008 0,1.93229 0.39192,3.46354 1.17578,4.59375 0.78386,1.12413 1.87218,1.6875 3.26367,1.6875 1.36718,0 2.3661,-0.57249 2.99805,-1.71485 l 0.27343,1.57813 h 1.09375 v -6.47266 h -4.15625 v 1.65039 h 2.23438 c 0,2.16927 -0.71094,3.25391 -2.13281,3.25391 -1.71355,0 -2.57032,-1.58594 -2.57032,-4.75781 0,-3.15365 0.83486,-4.73047 2.50586,-4.73047 0.50435,0 0.94184,0.15863 1.3125,0.47461 0.37066,0.31596 0.66602,1.00868 0.88477,2.07812 l 1.85937,-0.46484 c -0.4375,-2.52778 -1.7756,-3.79297 -4.01172,-3.79297 z m 44.12891,0 c -1.47656,0 -2.60677,0.55968 -3.39062,1.67773 -0.78386,1.11806 -1.17579,2.72591 -1.17579,4.82227 0,1.94444 0.37001,3.49566 1.11133,4.65625 0.74133,1.16058 1.86784,1.74219 3.38086,1.74219 2.32726,0 3.68533,-1.38368 4.07422,-4.14844 l -1.89453,-0.26367 c -0.13368,0.875 -0.35981,1.54578 -0.67578,2.01367 -0.30989,0.4618 -0.78385,0.69336 -1.42188,0.69336 -1.59201,0 -2.38672,-1.52583 -2.38672,-4.57617 0,-3.27518 0.79471,-4.91211 2.38672,-4.91211 1.19098,0 1.89106,0.94249 2.09766,2.82617 l 1.91406,-0.2832 c -0.39496,-2.8316 -1.7348,-4.24805 -4.01953,-4.24805 z m -63.54102,0.22851 3.20899,12.44141 2.23242,0.0273 3.28125,-12.46875 h -1.82226 l -2.36915,9.92579 -2.36132,-9.92579 z m 10.25391,0 v 12.44141 h 2.05859 v -12.44141 z m 15.74805,0 v 12.44141 h 2.05859 v -12.44141 z m 4.84765,0 v 12.44141 h 6.4629 v -1.74023 h -4.40235 v -10.70118 z m 10.36133,0 -3.59961,12.44141 h 1.96875 l 0.76563,-3.11719 h 3.63672 l 0.7832,3.11719 h 2.08789 l -3.33594,-12.44141 z m 7.22657,0 v 12.44141 h 1.72265 v -9.96289 l 4.59375,9.96289 h 1.92383 v -12.44141 h -1.72266 v 8.96875 l -4.09179,-8.96875 z m 21.20898,0 v 12.44141 h 7.20898 v -1.68555 h -5.15039 v -3.89257 h 3.97461 v -1.65821 h -3.97461 v -3.55469 h 5.06836 v -1.65039 z m -27.48633,2.00586 1.41211,5.69532 h -2.81641 z"
       style="font-size:18.6667px;line-height:1.1;font-family:'Franklin Gothic Medium Cond';-inkscape-font-specification:'Franklin Gothic Medium Cond, Normal';letter-spacing:0.4px;white-space:pre;display:inline;fill:#856404"
       transform="matrix(0.26458333,0,0,0.26458333,-13.417449,-9.1818203)"
       inkscape:label="text" />
  </g>
</svg>
