<?xml version="1.0" encoding="UTF-8" standalone="no"?>
<!-- Created with Inkscape (http://www.inkscape.org/) -->

<svg
   width="92mm"
   height="62mm"
   viewBox="0 0 92.000001 61.999999"
   version="1.1"
   id="svg1"
   sodipodi:docname="poppy-wallet.svg"
   inkscape:version="1.3.1 (91b66b0783, 2023-11-16)"
   xmlns:inkscape="http://www.inkscape.org/namespaces/inkscape"
   xmlns:sodipodi="http://sodipodi.sourceforge.net/DTD/sodipodi-0.dtd"
   xmlns="http://www.w3.org/2000/svg"
   xmlns:svg="http://www.w3.org/2000/svg">
  <sodipodi:namedview
     id="namedview1"
     pagecolor="#ffffff"
     bordercolor="#000000"
     borderopacity="0.25"
     inkscape:showpageshadow="2"
     inkscape:pageopacity="0.0"
     inkscape:pagecheckerboard="0"
     inkscape:deskcolor="#d1d1d1"
     inkscape:document-units="mm"
     inkscape:zoom="1.0252604"
     inkscape:cx="196.53543"
     inkscape:cy="-19.507239"
     inkscape:window-width="1620"
     inkscape:window-height="1010"
     inkscape:window-x="-6"
     inkscape:window-y="-6"
     inkscape:window-maximized="1"
     inkscape:current-layer="layer1" />
  <defs
     id="defs1">
    <inkscape:path-effect
       effect="fill_between_many"
       method="originald"
       linkedpaths="#path10,0,1"
       id="path-effect39"
       is_visible="true"
       lpeversion="0"
       join="true"
       close="true"
       autoreverse="true" />
  </defs>
  <g
     inkscape:label="Layer 1"
     inkscape:groupmode="layer"
     id="layer1">
    <path
       id="rect1"
       style="fill:#fed1aa;stroke:#000000;stroke-width:0.1;stroke-linecap:round;stroke-linejoin:round;paint-order:fill markers stroke"
       d="M 86.508931 0.96583252 C 86.341582 0.9661182 86.171543 0.97723402 85.999919 0.99993896 L 6.0001506 11.583272 C 3.2540922 11.946555 0.99993896 13.813502 0.99993896 16.583484 L 0.9994222 25.116296 C 0.99942196 25.116814 0.99942087 25.11733 0.9994222 25.117847 C 1.0001333 25.393252 1.2235321 25.616365 1.4991333 25.616524 L 2.0500041 25.616524 C 2.6040011 25.616524 3.049943 26.062468 3.049943 26.616463 L 3.049943 47.616732 C 3.049943 48.170727 2.6040011 48.616671 2.0500041 48.616671 L 1.5012004 48.616671 C 1.2250818 48.616831 1.0013633 48.84078 1.0014893 49.116899 L 0.99993896 56.000199 C 0.99993896 58.770187 3.2301668 60.999894 6.0001506 60.999894 L 85.999919 60.999894 C 88.769901 60.999894 91.00013 58.770187 91.00013 56.000199 L 91.00013 49.084859 C 90.98376 48.823634 90.766827 48.616825 90.501453 48.616671 L 89.950065 48.616671 C 89.396071 48.616671 88.950126 48.170726 88.950126 47.616732 L 88.950126 26.616463 C 88.950126 26.062469 89.396071 25.616524 89.950065 25.616524 L 90.501453 25.616524 C 90.777051 25.616365 91.000453 25.393249 91.001164 25.117847 L 91.00013 6.0001506 C 91.00013 3.4032912 89.019239 0.96154734 86.508931 0.96583252 z " />
    <g
       id="g21"
       transform="matrix(0.38177119,0.06371826,-0.06371826,0.38177119,40.78983,-3.4736998)">
      <path
         id="path39"
         style="display:inline;fill:#ac560e;stroke-width:0.752359"
         d="m 104.29176,8.8695513 c -1.21517,-0.024558 -2.42468,0.064614 -3.64043,0.2347863 -1.066176,0.1085547 -2.127385,0.2436735 -3.189469,0.3786451 -0.949442,0.1324941 -1.887858,0.2986924 -2.799887,0.5686443 -0.781132,0.210703 -1.579232,0.404892 -2.283296,0.777642 -0.426881,0.231204 -0.846679,0.471803 -1.245835,0.734199 -0.398965,0.262621 -0.777914,0.547176 -1.124523,0.867215 -0.780617,0.753036 -1.382099,1.60711 -1.858028,2.532436 -0.660172,1.220895 -1.091887,2.514766 -1.365694,3.84208 -0.101208,0.501709 -0.204616,1.01324 -0.23404,1.522714 -0.120497,-0.01412 -0.241815,-0.02666 -0.363897,-0.03121 -1.227375,0.02212 -2.450353,0.194925 -3.656123,0.388144 -0.539062,0.0977 -1.077417,0.19947 -1.591169,0.375931 -0.456752,0.155467 -0.932072,0.270343 -1.375685,0.454642 -0.573553,0.261362 -1.108389,0.574641 -1.541228,0.998854 -0.398162,0.376915 -0.789214,0.762835 -1.11453,1.190219 -0.401422,0.46337 -0.798531,0.929192 -1.218711,1.380212 -0.63394,0.669178 -1.290468,1.327835 -1.796664,2.077793 -0.437183,0.615267 -0.802398,1.26544 -1.254384,1.872861 -0.459465,0.697187 -0.899322,1.406547 -1.188739,2.17279 -0.247266,0.753952 -0.310274,1.541532 -0.226905,2.322074 0.148436,0.897427 0.426919,1.829042 1.298624,2.40622 0.303174,0.118333 0.612615,0.212846 0.927587,0.285 -0.09503,0.02937 -0.189001,0.06285 -0.272581,0.11127 -0.275621,0.168474 -0.501242,0.391937 -0.730655,0.603928 -0.398411,0.488949 -0.680063,0.914195 -0.570823,1.539004 0.177316,0.835326 0.467027,1.650378 0.665011,2.482221 0.287199,1.062875 0.504495,2.165706 1.105969,3.136363 0.190703,0.249636 0.336547,0.4641 0.573683,0.684 0.355,0.329244 0.81738,0.555251 1.188739,0.868573 0.424339,0.343151 0.777091,0.746709 1.190166,1.100644 0.38257,0.318666 0.734424,0.666448 1.153061,0.951356 0.350586,0.23129 0.725362,0.406602 1.16448,0.477716 0.670373,0.12498 1.356682,0.180949 2.023571,0.324362 0.704016,0.148172 1.427968,0.253814 2.092064,0.515711 0.612951,0.258743 1.181825,0.577737 1.71818,0.943219 0.605306,0.375633 1.192837,0.79348 1.932234,0.951357 1.520372,0.280729 3.084011,-0.152362 4.593701,-0.370501 1.165941,-0.212067 2.314656,-0.48495 3.472033,-0.728786 1.574753,-0.325065 3.162336,-0.603191 4.723564,-0.975785 0.946979,-0.212625 1.887099,-0.443046 2.809869,-0.726078 0.92351,-0.265001 1.85163,-0.531618 2.80846,-0.692143 0.96176,-0.148481 1.92559,-0.278111 2.89693,-0.370498 1.23122,-0.135874 2.46815,-0.289356 3.63757,-0.667715 1.05915,-0.33131 2.10662,-0.69094 3.15522,-1.04636 0.70958,-0.260503 1.39351,-0.56728 2.0464,-0.920146 0.21761,-0.117646 0.43161,-0.241251 0.6422,-0.369117 0.75888,-0.460237 1.4807,-0.959026 2.07494,-1.581073 0.67312,-0.711794 1.25469,-1.465542 1.5926,-2.347862 0.36752,-1.0228 0.63158,-2.075014 0.84482,-3.129575 0.2139,-1.299839 0.30105,-2.61424 -0.0542,-3.904512 -0.0696,-0.280902 -0.19458,-0.809105 -0.28541,-1.089788 -0.11949,-0.369244 -0.28567,-0.723806 -0.44667,-1.080285 0.34468,-0.259008 0.52007,-0.48338 0.73779,-0.901148 0.3081,-0.550528 0.64403,-1.093969 0.86338,-1.677431 0.21934,-0.697646 0.49268,-1.379532 0.75062,-2.066937 0.27119,-0.818979 0.58601,-1.635712 0.67786,-2.489004 0.0649,-0.792716 -0.0157,-1.578068 -0.18695,-2.358717 -0.2751,-1.238663 -0.61959,-2.466904 -1.08028,-3.664289 -0.38185,-0.968177 -0.78958,-1.947297 -1.47986,-2.787583 -0.41836,-0.527052 -0.87628,-1.041395 -1.44989,-1.449425 -0.39168,-0.260512 -0.80316,-0.49816 -1.30005,-0.571359 -0.56809,-0.0727 -1.12949,-0.181594 -1.6982,-0.252429 -0.72634,-0.134405 -1.4291,-0.333157 -2.07066,-0.666361 -0.8617,-0.488765 -1.66342,-1.044146 -2.4631,-1.605504 -0.94285,-0.5429679 -1.95879,-0.9563585 -3.08959,-1.1019995 -1.29134,-0.1823248 -2.5922,-0.2806773 -3.89444,-0.3854302 -0.40677,-0.034693 -0.81365,-0.0556 -1.2187,-0.063788 z" />
      <path
         id="path125"
         style="display:inline;fill:#5b2d07;stroke-width:0.16982"
         d="m 109.05385,17.419652 a 0.64590671,0.64590671 0 0 0 -0.45394,0.196264 c -3.17191,3.265194 -4.44187,6.556223 -4.89993,9.028142 -0.0784,0.423263 -0.13171,0.822384 -0.16822,1.196275 -0.80549,0.06971 -1.56883,0.395132 -2.35517,0.580781 -0.0247,0.125028 -0.044,0.250076 -0.0614,0.375172 -0.44748,-1.144428 -1.256229,-2.696357 -2.695622,-4.81047 a 0.64590502,0.64590502 0 0 0 -0.898542,-0.169561 0.64590502,0.64590502 0 0 0 -0.169561,0.898542 c 1.906745,2.800532 2.625427,4.528522 2.869195,5.49005 0.10495,0.413979 0.12095,0.677421 0.11615,0.83312 -0.31795,-0.432247 -0.652793,-0.874963 -1.006684,-1.328453 -2.661921,-3.411086 -6.279733,-7.285089 -10.30319,-9.090893 a 0.64590502,0.64590502 0 0 0 -0.493998,-0.01335 0.64590502,0.64590502 0 0 0 -0.360485,0.340458 0.64590502,0.64590502 0 0 0 0.325772,0.853147 c 2.177465,0.977289 4.322518,2.701232 6.252409,4.639573 -0.382774,0.130246 -0.742122,0.285611 -0.979985,0.57277 -0.263841,0.318517 0.09736,0.79847 0.229642,1.178919 0.09211,0.264934 0.617528,1.071072 0.917234,1.526052 0.0015,0.0083 0.0042,0.01718 0.0053,0.02537 0.09362,0.14593 0.179943,0.295811 0.280377,0.437922 0.04279,0.06055 0.105079,0.134733 0.15621,0.201605 0.165632,0.244712 0.333011,0.492589 0.530047,0.77838 -0.208051,0.04215 -0.439158,0.0415 -0.631516,0.114821 -0.08996,0.02015 -0.176715,0.04716 -0.259015,0.08144 -1.074512,-0.823816 -2.662605,-1.683685 -5.01608,-2.424594 a 0.64590502,0.64590502 0 0 0 -0.809088,0.4219 0.64590502,0.64590502 0 0 0 0.421901,0.809089 c 2.279877,0.71774 3.734515,1.52898 4.66494,2.253697 -0.02387,0.105455 -0.03518,0.212118 -0.03071,0.320431 -0.0063,0.149065 -4.82e-4,0.297955 0.01602,0.441928 0.0032,0.02752 0.01602,0.05804 0.02403,0.08678 -0.08251,-0.03774 -0.167966,-0.07643 -0.26035,-0.114821 -1.255635,-0.521822 -3.455251,-1.099689 -7.423317,-1.465972 a 0.64590502,0.64590502 0 0 0 -0.703613,0.583452 0.64590502,0.64590502 0 0 0 0.583452,0.700942 c 2.935171,0.270939 4.844989,0.662538 6.06549,1.029385 -0.04461,-8.77e-4 -0.08888,-0.0047 -0.133513,-0.0053 -0.345064,0.02487 -0.810889,0.0361 -1.24434,0.10147 -0.320535,-0.05351 -0.641974,-0.104606 -0.963963,-0.152205 -0.721396,-0.07821 -1.452678,-0.151704 -2.180265,-0.09479 -0.17745,0.01385 -0.359423,0.0203 -0.528711,0.07076 -0.23682,0.07053 -0.640319,0.06394 -0.678246,0.288388 -0.04647,0.274971 -0.03113,0.551087 0.0093,0.82778 -0.789563,-0.01603 -1.627579,-0.01222 -2.515383,0.01869 -2.456718,0.08555 -5.283125,0.373429 -8.458041,0.98399 a 0.64591002,0.64591002 0 0 0 -0.514025,0.755683 0.64591002,0.64591002 0 0 0 0.755683,0.512689 c 4.366626,-0.839736 8.042919,-1.049774 10.976095,-0.971974 0.002,0.01514 0.0062,0.03026 0.008,0.0454 0.334466,0.110964 0.663439,0.239514 1.004016,0.333782 1.222156,0.338265 2.519105,0.470789 3.77975,0.643532 0.08704,0.547091 0.153274,0.950137 0.220297,1.232324 -2.232687,0.400022 -4.468409,1.016624 -6.219031,1.996018 a 0.64590502,0.64590502 0 0 0 -0.249669,0.878515 0.64590502,0.64590502 0 0 0 0.878515,0.248333 c 1.932427,-1.081105 4.786221,-1.73664 7.476722,-2.109503 -1.961965,0.977959 -3.991588,2.352775 -5.722363,4.285764 a 0.64590502,0.64590502 0 0 0 0.0494,0.911893 0.64590502,0.64590502 0 0 0 0.911893,-0.05073 c 2.911002,-3.251108 6.802489,-4.822993 9.550177,-5.570158 1.620749,-0.07261 2.703639,-0.05474 2.703639,-0.05474 a 0.64590502,0.64590502 0 0 0 0.54607,-0.30441 c 1.09382,-0.198781 2.15886,-0.533842 3.16559,-0.977314 0.39353,-0.173352 0.7691,-0.379245 1.15355,-0.568765 2.06158,-1.095571 3.76637,-2.617011 5.454,-4.130889 0.32187,-0.266197 0.64464,-0.541902 0.988,-0.793066 0.23295,-0.09905 0.98425,-0.420904 1.03339,-0.493998 0.0235,-0.03499 0.0437,-0.07099 0.0654,-0.10681 1.29522,-0.33741 2.82896,-0.655218 4.63423,-0.911893 a 0.64590502,0.64590502 0 0 0 0.54874,-0.730316 0.64590502,0.64590502 0 0 0 -0.73032,-0.548738 v -0.0013 c -1.43687,0.204297 -2.71039,0.448948 -3.83849,0.711624 -0.56935,-0.253159 -1.10602,-0.582862 -1.71164,-0.751678 -0.14749,-0.04109 -0.2898,0.09644 -0.42724,0.160216 -0.34441,0.159825 -0.66821,0.353092 -0.97731,0.563424 -0.76447,0.314233 -1.54083,0.605047 -2.31378,0.901212 -0.0535,0.02089 -0.10674,0.043 -0.16022,0.06409 0.0617,-0.221422 0.11724,-0.445141 0.15888,-0.672905 0.0243,-0.336763 0.0697,-1.025489 -0.21228,-1.392539 1.02775,-0.772616 2.43449,-1.499114 4.24838,-1.731662 a 0.64590502,0.64590502 0 0 0 0.55808,-0.722305 0.64590502,0.64590502 0 0 0 -0.7223,-0.558084 c -2.66693,0.341913 -4.57801,1.636669 -5.78378,2.775733 -0.19789,0.03306 -0.39292,0.07337 -0.58212,0.120162 -0.10247,0.02533 -0.35406,0.293163 -0.5928,0.5701 -0.0313,-0.02139 -0.0643,-0.04126 -0.10013,-0.05741 -0.33373,-0.15037 -0.71147,-0.167937 -1.09214,-0.177572 -0.0119,-0.625763 0.0262,-1.463113 0.21496,-2.482005 0.41805,-2.256017 1.56443,-5.282913 4.55546,-8.361912 a 0.64590671,0.64590671 0 0 0 -0.0147,-0.913228 0.64590671,0.64590671 0 0 0 -0.45928,-0.181578 z M 94.435523,28.158094 c 0.006,0.0014 0.06791,0.06122 0.09212,0.08144 -0.01376,0.0045 -0.02763,0.0088 -0.04139,0.01335 -0.03399,-0.05258 -0.06559,-0.09828 -0.05074,-0.09479 z m 6.942667,0.82778 c 0.002,-7.05e-4 0.003,0.0028 0.005,0.0093 0.0208,0.05288 0.0379,0.106668 0.0561,0.160215 -0.003,-1.82e-4 -0.005,1.86e-4 -0.008,0 -0.0531,-0.004 -0.0649,-0.164628 -0.0534,-0.169561 z m 12.29254,2.814452 c 0.007,-0.0026 0.006,0.02267 -0.001,0.02003 -0.007,-0.0028 -0.0141,-0.0065 -0.0214,-0.0093 0.008,-0.0034 0.015,-0.0073 0.0227,-0.01068 z" />
      <path
         id="path141"
         style="fill:#fed1aa;stroke-width:0.16982"
         d="m 100.49434,28.766913 c -0.44331,0.0013 -0.867691,0.411326 -0.591464,0.921239 0.303904,0.561016 0.137604,0.253637 0.498004,0.918568 0.49966,0.913319 1.00363,1.825634 1.52205,2.730339 -0.44676,-0.364411 -0.88466,-0.738398 -1.3111,-1.122843 -0.676211,-0.60917 -1.621486,0.262673 -0.945272,0.871839 0.855052,0.769718 1.749142,1.501432 2.679602,2.194952 0.27483,0.197998 0.56176,0.191533 0.77705,0.07877 0.0245,0.03962 0.0488,0.07925 0.0734,0.118827 0.3756,0.590302 1.17503,0.334529 1.2657,-0.166891 0.39922,0.273919 1.10318,0.07879 1.07745,-0.551409 -0.0131,-0.879742 0.0742,-1.757257 0.1709,-2.631539 0.0129,-0.107668 0.0257,-0.215428 0.0387,-0.323101 0.10356,-0.861405 -1.23292,-0.994912 -1.33647,-0.133513 -0.0133,0.111228 -0.0267,0.222555 -0.0401,0.333783 -0.079,0.716213 -0.14972,1.433937 -0.1709,2.153562 -0.007,-0.04781 -0.0188,-0.09677 -0.0374,-0.148199 -0.20144,-0.554627 -0.38257,-1.115394 -0.57411,-1.672916 -0.15634,-0.454966 -0.6142,-0.548604 -0.94794,-0.403209 -0.34966,-0.623351 -0.69469,-1.248081 -1.03739,-1.874521 -0.35814,-0.660793 -0.19363,-0.356481 -0.49667,-0.915899 -0.14469,-0.267098 -0.38195,-0.378514 -0.61416,-0.377841 z m -4.984038,3.320465 c -0.586335,0.01069 -0.955735,0.758905 -0.311085,1.146876 0.468138,0.281362 0.949105,0.54594 1.417907,0.826445 0.568499,0.341056 1.129206,0.690575 1.690273,1.0414 -0.35866,-0.05509 -0.717191,-0.109201 -1.076114,-0.162885 -0.938243,-0.140327 -1.155872,1.069297 -0.217626,1.209627 0.972468,0.145443 1.944294,0.290017 2.910581,0.467295 0.469802,0.08456 0.769622,-0.178614 0.831782,-0.481982 0.34658,-0.233477 0.43585,-0.766225 -0.0881,-1.046741 -1.106371,-0.680712 -2.197417,-1.381649 -3.31245,-2.050758 -0.467606,-0.281124 -0.948027,-0.543514 -1.415237,-0.82511 -0.148767,-0.08953 -0.294603,-0.126632 -0.429911,-0.124167 z m 8.687688,2.276395 c -0.001,0.07778 -0.003,0.155831 -0.003,0.233648 -0.0174,-0.02842 -0.0347,-0.057 -0.0521,-0.08545 0.0245,-0.04573 0.0439,-0.09489 0.0547,-0.148199 z" />
    </g>
  </g>
</svg>
