<?xml version="1.0" encoding="UTF-8" standalone="no"?>
<!-- Created with Inkscape (http://www.inkscape.org/) -->

<svg
   width="92mm"
   height="62mm"
   viewBox="0 0 92.000001 61.999999"
   version="1.1"
   id="svg1"
   sodipodi:docname="poppy-wallet.svg"
   inkscape:version="1.3.1 (91b66b0783, 2023-11-16)"
   xmlns:inkscape="http://www.inkscape.org/namespaces/inkscape"
   xmlns:sodipodi="http://sodipodi.sourceforge.net/DTD/sodipodi-0.dtd"
   xmlns="http://www.w3.org/2000/svg"
   xmlns:svg="http://www.w3.org/2000/svg">
  <sodipodi:namedview
     id="namedview1"
     pagecolor="#ffffff"
     bordercolor="#000000"
     borderopacity="0.25"
     inkscape:showpageshadow="2"
     inkscape:pageopacity="0.0"
     inkscape:pagecheckerboard="0"
     inkscape:deskcolor="#d1d1d1"
     inkscape:document-units="mm"
     inkscape:zoom="11.599497"
     inkscape:cx="280.22766"
     inkscape:cy="39.312049"
     inkscape:window-width="1620"
     inkscape:window-height="1010"
     inkscape:window-x="-6"
     inkscape:window-y="-6"
     inkscape:window-maximized="1"
     inkscape:current-layer="layer1" />
  <defs
     id="defs1">
    <inkscape:path-effect
       effect="fill_between_many"
       method="originald"
       linkedpaths="#path10,0,1"
       id="path-effect39"
       is_visible="true"
       lpeversion="0"
       join="true"
       close="true"
       autoreverse="true" />
  </defs>
  <g
     inkscape:label="Layer 1"
     inkscape:groupmode="layer"
     id="layer1">
    <path
       id="rect1"
       style="fill:#fed1aa;stroke:#000000;stroke-width:0.1;stroke-linecap:round;stroke-linejoin:round;paint-order:fill markers stroke"
       d="M 86.508931 0.96583252 C 86.341582 0.9661182 86.171543 0.97723402 85.999919 0.99993896 L 6.0001506 11.583272 C 3.2540922 11.946555 0.99993896 13.813502 0.99993896 16.583484 L 0.9994222 25.116296 C 0.99942196 25.116814 0.99942087 25.11733 0.9994222 25.117847 C 1.0001333 25.393252 1.2235321 25.616365 1.4991333 25.616524 L 2.0500041 25.616524 C 2.6040011 25.616524 3.049943 26.062468 3.049943 26.616463 L 3.049943 47.616732 C 3.049943 48.170727 2.6040011 48.616671 2.0500041 48.616671 L 1.5012004 48.616671 C 1.2250818 48.616831 1.0013633 48.84078 1.0014893 49.116899 L 0.99993896 56.000199 C 0.99993896 58.770187 3.2301668 60.999894 6.0001506 60.999894 L 85.999919 60.999894 C 88.769901 60.999894 91.00013 58.770187 91.00013 56.000199 L 91.00013 49.084859 C 90.98376 48.823634 90.766827 48.616825 90.501453 48.616671 L 89.950065 48.616671 C 89.396071 48.616671 88.950126 48.170726 88.950126 47.616732 L 88.950126 26.616463 C 88.950126 26.062469 89.396071 25.616524 89.950065 25.616524 L 90.501453 25.616524 C 90.777051 25.616365 91.000453 25.393249 91.001164 25.117847 L 91.00013 6.0001506 C 91.00013 3.4032912 89.019239 0.96154734 86.508931 0.96583252 z " />
    <g
       id="g21"
       transform="matrix(0.38177119,0.06371826,-0.06371826,0.38177119,40.78983,-3.4736998)">
      <path
         id="path39"
         style="display:inline;fill:#ac560e;stroke-width:0.752359"
         d="m 96.048379,9.7161564 c -0.467287,0.091855 -0.930891,0.200728 -1.386905,0.3357036 -0.781131,0.210703 -1.578275,0.404781 -2.282338,0.77753 -0.426881,0.231204 -0.846743,0.472096 -1.245899,0.734492 -0.398964,0.262621 -0.778318,0.547219 -1.124927,0.867258 -0.780616,0.753035 -1.382386,1.606083 -1.858314,2.531408 -0.660172,1.220894 -1.092323,2.514801 -1.36613,3.842114 -0.101207,0.501708 -0.203549,1.014306 -0.232973,1.523779 -0.120497,-0.01412 -0.241846,-0.02675 -0.363928,-0.0313 -1.227374,0.02212 -2.450471,0.195024 -3.65624,0.388242 -0.539061,0.0977 -1.077712,0.198799 -1.591464,0.37526 -0.456751,0.155467 -0.931632,0.269929 -1.375244,0.454228 -0.573553,0.261361 -1.108658,0.574837 -1.541497,0.999049 -0.398161,0.376915 -0.789002,0.762967 -1.114317,1.190351 -0.401422,0.463369 -0.799013,0.930095 -1.219192,1.381114 -0.63394,0.669177 -1.289887,1.327085 -1.796082,2.077042 -0.437183,0.615266 -0.802872,1.265588 -1.254857,1.873009 -0.459465,0.697186 -0.899085,1.407018 -1.188502,2.17326 -0.247265,0.753952 -0.310453,1.540878 -0.227084,2.321419 0.148436,0.897426 0.427372,1.829276 1.299076,2.406453 0.303174,0.118333 0.612455,0.212976 0.927427,0.28513 -0.09503,0.02937 -0.189006,0.06205 -0.272586,0.110468 -0.275621,0.168474 -0.502242,0.392004 -0.731655,0.603995 -0.39841,0.488948 -0.679352,0.914632 -0.570112,1.53944 0.177316,0.835326 0.466772,1.650701 0.664756,2.482543 0.287199,1.062874 0.505273,2.165 1.106746,3.135656 0.190703,0.249635 0.3359,0.464131 0.573036,0.684031 0.354999,0.329244 0.817399,0.556261 1.188758,0.869582 0.424338,0.343151 0.777492,0.745458 1.190566,1.099392 0.38257,0.318666 0.733704,0.666554 1.152341,0.951462 0.350586,0.23129 0.726285,0.407116 1.165402,0.47823 0.670373,0.12498 1.3567,0.180756 2.023588,0.324169 0.704015,0.148172 1.428019,0.253874 2.092114,0.515771 0.61295,0.258743 1.18184,0.578168 1.718194,0.94365 0.605305,0.375633 1.192587,0.793407 1.931983,0.951283 1.52037,0.280729 3.083574,-0.15188 4.593263,-0.370019 1.16594,-0.212067 2.31463,-0.485897 3.472006,-0.729733 1.574752,-0.325065 3.162497,-0.6026 4.723724,-0.975194 0.946977,-0.212625 1.886587,-0.443038 2.809357,-0.726069 0.92351,-0.265001 1.85275,-0.531743 2.80958,-0.692268 0.96176,-0.148481 1.92436,-0.278561 2.8957,-0.370948 1.23122,-0.135874 2.46854,-0.289735 3.63796,-0.668093 1.05914,-0.33131 2.10682,-0.689654 3.15542,-1.045074 0.70958,-0.260502 1.39302,-0.56794 2.04591,-0.920805 0.21761,-0.117646 0.43178,-0.240592 0.64237,-0.368458 0.75888,-0.460236 1.48072,-0.960101 2.07496,-1.582147 0.67312,-0.711793 1.25464,-1.465312 1.59255,-2.347631 0.36752,-1.022799 0.63153,-2.075177 0.84477,-3.129737 0.2139,-1.299837 0.3019,-2.614073 -0.0534,-3.904344 -0.0696,-0.280902 -0.1952,-0.8086 -0.28603,-1.089283 -0.11949,-0.369243 -0.28592,-0.723548 -0.44692,-1.080027 0.34468,-0.259007 0.52111,-0.483862 0.73883,-0.90163 0.3081,-0.550527 0.6431,-1.094107 0.86245,-1.677569 0.21934,-0.697645 0.49357,-1.379082 0.75151,-2.066487 0.27119,-0.818978 0.58494,-1.636582 0.67679,-2.489873 0.0649,-0.792715 -0.0152,-1.577332 -0.18645,-2.35798 -0.2751,-1.238662 -0.61918,-2.466599 -1.07987,-3.663983 -0.38185,-0.968176 -0.79018,-1.947387 -1.48046,-2.787673 -0.41836,-0.527051 -0.87582,-1.042054 -1.44943,-1.450083 -0.39168,-0.260512 -0.80309,-0.497627 -1.29998,-0.570826 -0.56809,-0.0727 -1.13023,-0.181634 -1.69894,-0.252469 -0.72634,-0.134404 -1.42842,-0.333803 -2.06998,-0.667007 -0.8617,-0.488765 -1.66384,-1.044335 -2.46352,-1.605693 -0.94285,-0.542967 -1.95927,-0.9561697 -3.09007,-1.1018106 -1.29134,-0.1823246 -2.59145,-0.2808855 -3.89369,-0.3856383 -0.40677,-0.034693 -0.81425,-0.054967 -1.2193,-0.063155 -1.21517,-0.024558 -2.42407,0.06508 -3.63982,0.2352518 -1.066171,0.1085545 -2.127511,0.2430678 -3.189594,0.3780392 -0.47472,0.066247 -0.946199,0.141351 -1.413487,0.2332062 z M 100.33024,28.78568 c 0.0531,-0.01223 0.10833,-0.01887 0.16329,-0.01913 l 10e-4,-2.2e-4 c 0.2318,-2.57e-4 0.46959,0.111445 0.61401,0.378048 0.30304,0.559417 0.13857,0.255261 0.49671,0.916054 0.3427,0.626439 0.68744,1.251548 1.0371,1.874898 0.33374,-0.145395 0.79086,-0.05131 0.9472,0.403652 0.19154,0.557522 0.3727,1.117347 0.57414,1.671973 0.0186,0.05143 0.0312,0.10012 0.0382,0.14793 0.0212,-0.719624 0.0908,-1.43728 0.16983,-2.153493 0.0134,-0.111227 0.0272,-0.221753 0.0405,-0.332981 0.10355,-0.861398 1.44009,-0.728477 1.33653,0.132927 -0.013,0.107673 -0.0252,0.215436 -0.0381,0.323104 -0.0967,0.874281 -0.18436,1.75181 -0.17126,2.631551 0.0257,0.630198 -0.67815,0.825972 -1.07737,0.552054 -0.0907,0.501419 -0.89062,0.756967 -1.26622,0.166665 -0.0246,-0.03958 -0.0482,-0.07955 -0.0727,-0.119168 -0.21529,0.112763 -0.50307,0.119377 -0.7779,-0.07862 -0.93046,-0.693519 -1.8246,-1.425266 -2.679647,-2.194984 -0.676213,-0.609165 0.26939,-1.480337 0.945597,-0.871168 0.42644,0.384445 0.8641,0.758221 1.31086,1.122631 -0.51842,-0.904704 -1.0214,-1.817496 -1.52106,-2.730814 -0.3604,-0.66493 -0.19456,-0.357452 -0.498462,-0.918468 -0.241698,-0.446173 0.05293,-0.816113 0.427372,-0.902437 z m -4.926664,3.311533 c 0.03476,-0.0062 0.07003,-0.009 0.106672,-0.0097 0.135308,-0.0025 0.280811,0.03504 0.429578,0.124574 0.467209,0.281596 0.947879,0.54385 1.415485,0.824974 1.115031,0.669108 2.205602,1.369481 3.311969,2.050193 0.52395,0.280515 0.43462,0.813049 0.088,1.046526 -0.0622,0.303368 -0.36065,0.566978 -0.830455,0.482418 -0.966286,-0.177278 -1.938567,-0.321633 -2.911034,-0.467076 -0.938245,-0.140329 -0.720561,-1.350226 0.217681,-1.209899 0.358923,0.05368 0.717556,0.107747 1.076216,0.162837 -0.561067,-0.350824 -1.122721,-0.700495 -1.691219,-1.04155 -0.468802,-0.280505 -0.948884,-0.544709 -1.417022,-0.82607 -0.604359,-0.363723 -0.317258,-1.044814 0.204089,-1.137245 z m 8.793664,2.266897 c -0.0108,0.05331 -0.0292,0.10266 -0.0537,0.14839 0.0174,0.02845 0.0346,0.05629 0.052,0.08471 0,-0.07782 0.002,-0.155543 0.003,-0.233323 z" />
      <path
         id="path125"
         style="display:inline;fill:#5b2d07;stroke-width:0.16982"
         d="m 88.532766,20.605428 a 0.64590502,0.64590502 0 0 0 -0.360111,0.340298 0.64590502,0.64590502 0 0 0 0.325045,0.852659 c 2.177463,0.977288 4.322577,2.701868 6.252466,4.640207 -0.382774,0.130246 -0.741388,0.285066 -0.979251,0.572225 -0.263841,0.318516 0.09714,0.799498 0.229421,1.179946 0.09211,0.264934 0.618128,1.070293 0.917833,1.525273 0.0015,0.0083 0.0031,0.01683 0.0042,0.02502 0.09362,0.14593 0.17996,0.297032 0.280394,0.439143 0.04279,0.06055 0.105633,0.134368 0.156764,0.20124 0.165632,0.244712 0.333439,0.491974 0.530475,0.777765 -0.208051,0.04215 -0.439538,0.04162 -0.631896,0.11494 -0.08996,0.02015 -0.177562,0.04699 -0.259862,0.08127 -1.074511,-0.823815 -2.661419,-1.682913 -5.014892,-2.423822 a 0.64590502,0.64590502 0 0 0 -0.809396,0.422053 0.64590502,0.64590502 0 0 0 0.421832,0.80808 c 2.279875,0.717739 3.733897,1.528858 4.664321,2.253574 -0.02387,0.105455 -0.03491,0.212155 -0.03044,0.320468 -0.0063,0.149065 -8.16e-4,0.298742 0.01569,0.442715 0.0032,0.02752 0.01725,0.05774 0.02526,0.08648 -0.08251,-0.03774 -0.169059,-0.07634 -0.261443,-0.114735 -1.255634,-0.521822 -3.454677,-1.099337 -7.422739,-1.465619 a 0.64590502,0.64590502 0 0 0 -0.704003,0.583136 0.64590502,0.64590502 0 0 0 0.584014,0.70115 c 2.935168,0.270938 4.844789,0.66207 6.065289,1.028917 -0.04461,-8.77e-4 -0.08882,-0.0042 -0.133453,-0.0048 -0.345064,0.02487 -0.811276,0.03544 -1.244727,0.100813 -0.320535,-0.05351 -0.641404,-0.10429 -0.963393,-0.151889 -0.721395,-0.07821 -1.452668,-0.151895 -2.180254,-0.09498 -0.17745,0.01385 -0.360335,0.02034 -0.529623,0.0708 -0.236819,0.07053 -0.639365,0.06456 -0.677292,0.289009 -0.04647,0.274971 -0.03102,0.550138 0.0094,0.826831 -0.789562,-0.01603 -1.628031,-0.01168 -2.515834,0.01923 -2.456715,0.08555 -5.283277,0.373389 -8.45819,0.98395 a 0.64591002,0.64591002 0 0 0 -0.514101,0.755835 0.64591002,0.64591002 0 0 0 0.755615,0.512784 c 4.366622,-0.839735 8.043273,-1.050253 10.976446,-0.972453 0.002,0.01514 0.0059,0.03095 0.0077,0.04609 0.334466,0.110964 0.663904,0.238913 1.00448,0.333181 1.222155,0.338265 2.519188,0.471485 3.779832,0.644228 0.08704,0.547091 0.153411,0.949343 0.220434,1.23153 -2.232685,0.400021 -4.46894,1.017009 -6.21956,1.996402 a 0.64590502,0.64590502 0 0 0 -0.250022,0.878252 0.64590502,0.64590502 0 0 0 0.879349,0.248485 c 1.932425,-1.081104 4.785199,-1.737085 7.475697,-2.109948 -1.961963,0.977958 -3.991549,2.353281 -5.722322,4.286268 a 0.64590502,0.64590502 0 0 0 0.04937,0.912205 0.64590502,0.64590502 0 0 0 0.911986,-0.05069 c 2.910999,-3.251105 6.803413,-4.823799 9.551098,-5.570963 1.620747,-0.07261 2.703497,-0.05461 2.703497,-0.05461 a 0.64590502,0.64590502 0 0 0 0.54625,-0.303684 c 1.09382,-0.198781 2.15859,-0.53422 3.16532,-0.977691 0.39353,-0.173352 0.76864,-0.379233 1.15309,-0.568753 2.06157,-1.09557 3.76694,-2.616709 5.45457,-4.130585 0.32187,-0.266197 0.64506,-0.541874 0.98842,-0.793038 0.23295,-0.09905 0.98368,-0.421442 1.03282,-0.494536 0.0235,-0.03499 0.043,-0.07109 0.0647,-0.106908 1.29522,-0.33741 2.82892,-0.654846 4.63419,-0.911521 a 0.64590502,0.64590502 0 0 0 0.54944,-0.730601 0.64590502,0.64590502 0 0 0 -0.73038,-0.548128 l -2.2e-4,-0.0013 c -1.43687,0.204296 -2.70981,0.448264 -3.83791,0.71094 -0.56935,-0.253159 -1.10616,-0.58234 -1.71178,-0.751156 -0.14749,-0.04109 -0.29076,0.09567 -0.4282,0.159451 -0.34441,0.159825 -0.66752,0.353332 -0.97662,0.563664 -0.76447,0.314233 -1.5414,0.605826 -2.31435,0.90199 -0.0535,0.02089 -0.10652,0.04216 -0.16,0.06325 0.0617,-0.221422 0.11822,-0.444582 0.15986,-0.672346 0.0243,-0.336763 0.0685,-1.025371 -0.21345,-1.39242 1.02775,-0.772615 2.43556,-1.500011 4.24944,-1.732559 a 0.64590502,0.64590502 0 0 0 0.55757,-0.722482 0.64590502,0.64590502 0 0 0 -0.72248,-0.557568 c -2.66693,0.341912 -4.5777,1.63732 -5.78347,2.776383 -0.19788,0.03306 -0.39308,0.0734 -0.58228,0.120196 -0.10247,0.02533 -0.35377,0.293005 -0.59251,0.569942 -0.0313,-0.02139 -0.0645,-0.04155 -0.10032,-0.0577 -0.33373,-0.15037 -0.71157,-0.168125 -1.09224,-0.17776 -0.0119,-0.625762 0.0264,-1.462975 0.21519,-2.481866 0.41805,-2.256015 1.56376,-5.283005 4.55478,-8.362001 a 0.64590671,0.64590671 0 0 0 -0.0143,-0.912652 0.64590671,0.64590671 0 0 0 -0.45945,-0.181856 0.64590671,0.64590671 0 0 0 -0.45321,0.196112 c -3.1719,3.265191 -4.44183,6.555449 -4.89989,9.027366 -0.0784,0.423262 -0.132,0.822389 -0.16851,1.19628 -0.80549,0.06971 -1.56936,0.39567 -2.3557,0.581319 -0.0247,0.125028 -0.0431,0.250472 -0.0605,0.375568 -0.44748,-1.144427 -1.257318,-2.697236 -2.696709,-4.811347 a 0.64590502,0.64590502 0 0 0 -0.898647,-0.169463 0.64590502,0.64590502 0 0 0 -0.169463,0.898646 c 1.350743,1.983904 2.097983,3.421573 2.509829,4.437812 0.102462,-0.232622 0.36403,-0.384513 0.63271,-0.385796 l 0.001,-2.2e-4 c 0.2318,-2.57e-4 0.46959,0.111445 0.61401,0.378048 0.30304,0.559417 0.13857,0.255261 0.49671,0.916054 0.3427,0.626439 0.68744,1.251548 1.0371,1.874898 0.33374,-0.145395 0.79086,-0.05131 0.9472,0.403652 0.19154,0.557522 0.3727,1.117347 0.57414,1.671973 0.0186,0.05143 0.0312,0.10012 0.0382,0.14793 0.0212,-0.719624 0.0908,-1.43728 0.16983,-2.153493 0.0134,-0.111227 0.0272,-0.221753 0.0405,-0.332981 0.10355,-0.861398 1.44009,-0.728477 1.33653,0.132927 -0.013,0.107673 -0.0252,0.215436 -0.0381,0.323104 -0.0967,0.874281 -0.18436,1.75181 -0.17126,2.631551 0.0257,0.630198 -0.67815,0.825972 -1.07737,0.552054 -0.0907,0.501419 -0.89062,0.756967 -1.26622,0.166665 -0.0246,-0.03958 -0.0482,-0.07955 -0.0727,-0.119168 -0.21529,0.112763 -0.50307,0.119377 -0.7779,-0.07862 -0.93046,-0.693519 -1.8246,-1.425266 -2.679649,-2.194984 -0.676213,-0.609165 0.26939,-1.480337 0.945599,-0.871168 0.42644,0.384445 0.8641,0.758221 1.31086,1.122631 -0.51842,-0.904704 -1.0214,-1.817496 -1.52106,-2.730814 -0.11591,-0.213852 -0.12018,-0.22146 -0.1603,-0.295402 0.0782,0.343556 0.1,0.587589 0.0957,0.727161 -0.31795,-0.432246 -0.653017,-0.875535 -1.006907,-1.329024 -2.661919,-3.411083 -6.279911,-7.284374 -10.303364,-9.090177 a 0.64590502,0.64590502 0 0 0 -0.493645,-0.01372 z m 5.903478,7.553189 c 0.006,0.0014 0.06778,0.06053 0.09199,0.08075 -0.01376,0.0045 -0.0286,0.0093 -0.04236,0.01384 -0.03399,-0.05258 -0.06448,-0.09808 -0.04963,-0.09459 z m 6.941246,0.827222 0.001,-2.2e-4 c 0.002,-7.05e-4 0.002,0.0036 0.004,0.0101 0.0208,0.05288 0.0382,0.106231 0.0564,0.159778 -0.003,-1.82e-4 -0.005,1.88e-4 -0.008,2e-6 -0.0531,-0.004 -0.0655,-0.164723 -0.054,-0.169656 z m -5.973914,3.111374 c 0.03476,-0.0062 0.07003,-0.009 0.106672,-0.0097 0.135308,-0.0025 0.280811,0.03504 0.429578,0.124574 0.467209,0.281596 0.947879,0.54385 1.415485,0.824974 1.115031,0.669108 2.205602,1.369481 3.311969,2.050193 0.52395,0.280515 0.43462,0.813049 0.088,1.046526 -0.0622,0.303368 -0.36065,0.566978 -0.830455,0.482418 -0.966286,-0.177278 -1.938567,-0.321633 -2.911034,-0.467076 -0.938245,-0.140329 -0.720561,-1.350226 0.217681,-1.209899 0.358923,0.05368 0.717556,0.107747 1.076216,0.162837 -0.561067,-0.350824 -1.122721,-0.700495 -1.691219,-1.04155 -0.468802,-0.280505 -0.948884,-0.544709 -1.417022,-0.82607 -0.604359,-0.363723 -0.317258,-1.044814 0.204089,-1.137245 z m 18.267304,-0.296982 c 0.007,-0.0026 0.006,0.02305 -6.5e-4,0.02041 -0.007,-0.0028 -0.0147,-0.0071 -0.022,-0.0099 0.008,-0.0034 0.0149,-0.0072 0.0226,-0.01054 z m -9.47364,2.563879 c -0.0108,0.05331 -0.0292,0.10266 -0.0537,0.14839 0.0174,0.02845 0.0346,0.05629 0.052,0.08471 0,-0.07782 0.002,-0.155543 0.003,-0.233323 z" />
    </g>
  </g>
</svg>
