<?xml version="1.0" encoding="UTF-8" standalone="no"?>
<!-- Created with Inkscape (http://www.inkscape.org/) -->

<svg
   width="166mm"
   height="130mm"
   viewBox="0 0 166 130"
   version="1.1"
   id="svg1"
   inkscape:version="1.3.1 (91b66b0783, 2023-11-16)"
   sodipodi:docname="petal-wallet.svg"
   xmlns:inkscape="http://www.inkscape.org/namespaces/inkscape"
   xmlns:sodipodi="http://sodipodi.sourceforge.net/DTD/sodipodi-0.dtd"
   xmlns="http://www.w3.org/2000/svg"
   xmlns:svg="http://www.w3.org/2000/svg">
  <sodipodi:namedview
     id="namedview1"
     pagecolor="#ffffff"
     bordercolor="#000000"
     borderopacity="0.25"
     inkscape:showpageshadow="2"
     inkscape:pageopacity="0.0"
     inkscape:pagecheckerboard="0"
     inkscape:deskcolor="#d1d1d1"
     inkscape:document-units="mm"
     inkscape:zoom="0.95119155"
     inkscape:cx="307.50904"
     inkscape:cy="272.81571"
     inkscape:window-width="1620"
     inkscape:window-height="1010"
     inkscape:window-x="-6"
     inkscape:window-y="-6"
     inkscape:window-maximized="1"
     inkscape:current-layer="layer6" />
  <defs
     id="defs1">
    <inkscape:path-effect
       effect="taper_stroke"
       start_shape="center | center"
       end_shape="center | center"
       id="path-effect34"
       is_visible="true"
       lpeversion="1"
       stroke_width="1.5"
       subpath="1"
       attach_start="0.75"
       end_offset="0"
       start_smoothing="1"
       end_smoothing="1"
       jointype="extrapolated"
       miter_limit="100" />
    <inkscape:path-effect
       effect="taper_stroke"
       start_shape="center | center"
       end_shape="center | center"
       id="path-effect33"
       is_visible="true"
       lpeversion="1"
       stroke_width="1.5"
       subpath="1"
       attach_start="0.75"
       end_offset="0"
       start_smoothing="1"
       end_smoothing="1"
       jointype="extrapolated"
       miter_limit="100" />
    <inkscape:path-effect
       effect="taper_stroke"
       start_shape="center | center"
       end_shape="center | center"
       id="path-effect32"
       is_visible="true"
       lpeversion="1"
       stroke_width="1.5"
       subpath="1"
       attach_start="0.75"
       end_offset="0"
       start_smoothing="1"
       end_smoothing="1"
       jointype="extrapolated"
       miter_limit="100" />
  </defs>
  <g
     inkscape:groupmode="layer"
     id="layer6"
     inkscape:label="OUTER"
     transform="translate(0,-1.0583333)">
    <path
       d="m 162.94688,47.058172 c 0,-24.82319 -14.19944,-44.9996677 -16.99994,-44.9998387 h -13.74593 c -0.41388,9.4e-5 -0.74944,0.328465 -0.74982,0.733289 v 5.17e-4 1.2226635 H 108.45104 V 2.7921393 c -3.9e-4,-0.404825 -0.33594,-0.733712 -0.74983,-0.733806 h -6.75411 c -3.323921,0 -6.000151,2.6182645 -6.000151,5.8699255 V 86.188601 c 0,3.25166 2.67623,5.86992 6.000151,5.86992 h 6.75411 c 0.41407,-9e-5 0.74973,-0.328219 0.74983,-0.73329 v -1.22318 h 9.15758 13.84257 v 1.22267 5.1e-4 c 9e-5,0.40507 0.33576,0.7332 0.74982,0.73329 h 13.74593 c 2.80111,-1.7e-4 16.99994,-20.17832 16.99994,-45.000349 z"
       style="display:inline;fill:#657b83;stroke:#93a1a1;stroke-width:0;stroke-linecap:round;stroke-linejoin:round;paint-order:stroke markers fill"
       id="path28"
       sodipodi:nodetypes="zccscccccssssccccccsccz"
       inkscape:label="inner" />
    <g
       id="g41"
       inkscape:label="side 2"
       transform="rotate(180,46.653482,35.764483)">
      <path
         d="m 85.999918,0.9415446 c 2.76157,-1.1687e-4 5.000329,2.2386419 5.000212,5.0002116 v 8.0584228 3.872632 13.873055 c -9.4e-5,0.414066 -0.328223,0.749728 -0.733289,0.749825 H 89.04366 v 13.842566 9.15758 h 1.223181 c 0.405067,9.7e-5 0.733195,0.33576 0.733289,0.749825 v 6.75411 c 0,3.323938 -2.618251,6.000151 -5.869926,6.000151 H 6.869865 c -3.251674,0 -5.86992604,-2.676213 -5.86992604,-6.000151 v -6.75411 C 1.000033,55.831597 1.328676,55.495934 1.733744,55.495837 H 2.956409 V 32.495691 H 1.733744 C 1.328677,32.495594 1.000033,32.159932 0.99993896,31.745866 V 17.999935 C 1.000074,15.790991 2.790751,14.000314 4.999695,14.000179 c 41.000374,0 41.000374,-13.0586344 81.000223,-13.0586344 z"
         style="display:inline;fill:#93a1a1;stroke:#93a1a1;stroke-width:0;stroke-linecap:round;stroke-linejoin:round;paint-order:stroke markers fill"
         id="path29"
         sodipodi:nodetypes="cccccccccccssssccccccccc"
         inkscape:label="right" />
      <path
         id="path31"
         style="fill:#b58900;fill-opacity:1;fill-rule:nonzero;stroke:none;stroke-width:1.42303;stroke-linecap:round;stroke-linejoin:round;stroke-dasharray:none;stroke-opacity:1;paint-order:stroke markers fill"
         inkscape:label="lines"
         d="M 87.952267,6.0766317 C 78.169478,6.2246813 70.566065,7.0718901 64.14065,8.3007853 59.026849,9.2794769 54.191748,10.629385 50.023344,11.926921 c -4.747104,1.477117 -8.972075,2.905946 -12.823894,4.009057 -8.396119,2.407546 -16.026929,3.456292 -20.741101,3.981153 -4.717515,0.525231 -8.9822152,0.77389 -10.8654046,0.8847 -0.1075944,0.0063 -0.085748,0.0068 -0.188361,0.01292 v 0.542603 c 0.084576,7.09e-4 0.1153464,0.003 0.2032438,0.0036 2.0631252,0.014 6.0119658,-0.02145 10.9486558,-0.430981 4.801278,-0.398302 12.442889,-1.297483 21.017364,-3.662826 4.493233,-1.241012 7.572033,-2.304159 12.884355,-3.93361 C 54.597585,12.06438 59.389975,10.735839 64.422029,9.7740804 70.749177,8.563979 78.25924,7.7241623 87.952267,7.5762817 Z m 0,6.3432823 c -9.772813,0.11526 -17.366109,0.774233 -23.781386,1.72961 -8.412954,1.255543 -22.063285,4.864453 -26.932363,5.955709 -14.706957,3.297827 -30.2833957,3.811994 -31.6637121,3.885034 -0.097231,0.0051 -0.077081,0.0059 -0.1702225,0.01085 v 0.545186 c 0.075787,0.0011 0.1029373,0.0031 0.1813846,0.0041 2.169039,0.02841 16.247075,0.26426 31.948811,-3.093351 7.38652,-1.580214 16.115943,-4.227805 26.857019,-5.823934 6.337205,-0.943749 13.857626,-1.598399 23.560469,-1.71359 z m 0,6.360852 c -9.717811,0.08468 -17.365997,0.538042 -23.750225,1.21853 -8.407298,0.897542 -21.960427,3.474795 -26.922597,4.277258 -14.569134,2.357007 -30.6070419,2.849167 -31.7185918,2.901632 -0.089278,0.0042 -0.070453,0.0052 -0.1562698,0.0093 v 0.547253 c 0.068806,0.0014 0.093182,0.0033 0.1641763,0.0047 2.2521917,0.04303 16.0641613,0.312653 31.9250913,-2.094446 7.386036,-1.121294 16.181871,-3.017196 26.866786,-4.154268 6.32746,-0.674437 13.924172,-1.125601 23.59163,-1.210262 z"
         transform="matrix(1.1111089,0,0,1,-6.0050807,0)" />
    </g>
    <g
       id="g42"
       inkscape:label="side 1"
       transform="translate(1.5875,61.12095)">
      <path
         d="m 85.999918,0.9415446 c 2.76157,-1.1687e-4 5.000329,2.2386419 5.000212,5.0002116 v 8.0584228 3.872632 13.873055 c -9.4e-5,0.414066 -0.328223,0.749728 -0.733289,0.749825 H 89.04366 v 13.842566 9.15758 h 1.223181 c 0.405067,9.7e-5 0.733195,0.33576 0.733289,0.749825 v 6.75411 c 0,3.323938 -2.618251,6.000151 -5.869926,6.000151 H 6.869865 c -3.251674,0 -5.86992604,-2.676213 -5.86992604,-6.000151 v -6.75411 C 1.000033,55.831597 1.328676,55.495934 1.733744,55.495837 H 2.956409 V 32.495691 H 1.733744 C 1.328677,32.495594 1.000033,32.159932 0.99993896,31.745866 V 17.999935 C 1.000074,15.790991 2.790751,14.000314 4.999695,14.000179 c 41.000374,0 41.000374,-13.0586344 81.000223,-13.0586344 z"
         style="display:inline;fill:#93a1a1;stroke:#93a1a1;stroke-width:0;stroke-linecap:round;stroke-linejoin:round;paint-order:stroke markers fill"
         id="path41"
         sodipodi:nodetypes="cccccccccccssssccccccccc"
         inkscape:label="right" />
      <path
         id="path42"
         style="fill:#b58900;fill-opacity:1;fill-rule:nonzero;stroke:none;stroke-width:1.42303;stroke-linecap:round;stroke-linejoin:round;stroke-dasharray:none;stroke-opacity:1;paint-order:stroke markers fill"
         inkscape:label="lines"
         d="M 87.952267,6.0766317 C 78.169478,6.2246813 70.566065,7.0718901 64.14065,8.3007853 59.026849,9.2794769 54.191748,10.629385 50.023344,11.926921 c -4.747104,1.477117 -8.972075,2.905946 -12.823894,4.009057 -8.396119,2.407546 -16.026929,3.456292 -20.741101,3.981153 -4.717515,0.525231 -8.9822152,0.77389 -10.8654046,0.8847 -0.1075944,0.0063 -0.085748,0.0068 -0.188361,0.01292 v 0.542603 c 0.084576,7.09e-4 0.1153464,0.003 0.2032438,0.0036 2.0631252,0.014 6.0119658,-0.02145 10.9486558,-0.430981 4.801278,-0.398302 12.442889,-1.297483 21.017364,-3.662826 4.493233,-1.241012 7.572033,-2.304159 12.884355,-3.93361 C 54.597585,12.06438 59.389975,10.735839 64.422029,9.7740804 70.749177,8.563979 78.25924,7.7241623 87.952267,7.5762817 Z m 0,6.3432823 c -9.772813,0.11526 -17.366109,0.774233 -23.781386,1.72961 -8.412954,1.255543 -22.063285,4.864453 -26.932363,5.955709 -14.706957,3.297827 -30.2833957,3.811994 -31.6637121,3.885034 -0.097231,0.0051 -0.077081,0.0059 -0.1702225,0.01085 v 0.545186 c 0.075787,0.0011 0.1029373,0.0031 0.1813846,0.0041 2.169039,0.02841 16.247075,0.26426 31.948811,-3.093351 7.38652,-1.580214 16.115943,-4.227805 26.857019,-5.823934 6.337205,-0.943749 13.857626,-1.598399 23.560469,-1.71359 z m 0,6.360852 c -9.717811,0.08468 -17.365997,0.538042 -23.750225,1.21853 -8.407298,0.897542 -21.960427,3.474795 -26.922597,4.277258 -14.569134,2.357007 -30.6070419,2.849167 -31.7185918,2.901632 -0.089278,0.0042 -0.070453,0.0052 -0.1562698,0.0093 v 0.547253 c 0.068806,0.0014 0.093182,0.0033 0.1641763,0.0047 2.2521917,0.04303 16.0641613,0.312653 31.9250913,-2.094446 7.386036,-1.121294 16.181871,-3.017196 26.866786,-4.154268 6.32746,-0.674437 13.924172,-1.125601 23.59163,-1.210262 z"
         transform="matrix(1.1111089,0,0,1,-6.0050807,0)" />
    </g>
  </g>
  <g
     inkscape:label="GUIDES"
     inkscape:groupmode="layer"
     id="layer1"
     style="display:none;opacity:0.518">
    <rect
       style="fill:#859900;stroke-width:2;stroke-linecap:round;stroke-linejoin:round;paint-order:stroke markers fill"
       id="rect1"
       width="78"
       height="66"
       x="8"
       y="2"
       inkscape:label="folded bill" />
    <rect
       style="fill:#d33682;stroke-width:2;stroke-linecap:round;stroke-linejoin:round;paint-order:stroke markers fill"
       id="rect2"
       width="86"
       height="54"
       x="4"
       y="14"
       inkscape:label="credit card" />
  </g>
</svg>
