<?xml version="1.0" encoding="UTF-8" standalone="no"?>
<!-- Created with Inkscape (http://www.inkscape.org/) -->

<svg
   width="159mm"
   height="159mm"
   viewBox="0 0 159 159"
   version="1.1"
   id="svg1"
   inkscape:version="1.3.1 (91b66b0783, 2023-11-16)"
   sodipodi:docname="4-star-pattern.svg"
   xmlns:inkscape="http://www.inkscape.org/namespaces/inkscape"
   xmlns:sodipodi="http://sodipodi.sourceforge.net/DTD/sodipodi-0.dtd"
   xmlns="http://www.w3.org/2000/svg"
   xmlns:svg="http://www.w3.org/2000/svg">
  <sodipodi:namedview
     id="namedview1"
     pagecolor="#ffffff"
     bordercolor="#000000"
     borderopacity="0.25"
     inkscape:showpageshadow="2"
     inkscape:pageopacity="0.0"
     inkscape:pagecheckerboard="0"
     inkscape:deskcolor="#d1d1d1"
     inkscape:document-units="mm"
     inkscape:zoom="0.62270623"
     inkscape:cx="309.13453"
     inkscape:cy="281.83434"
     inkscape:current-layer="layer1" />
  <defs
     id="defs1" />
  <g
     inkscape:label="Layer 1"
     inkscape:groupmode="layer"
     id="layer1">
    <path
       d="M 5.0002116,0 C 2.2386447,-1.1686566e-4 -1.1686566e-4,2.2386447 0,5.0002116 V 153.88828 c -1.1686636e-4,2.76158 2.2386281,5.00033 5.0002116,5.00021 H 153.88828 c 2.76158,1.2e-4 5.00033,-2.23863 5.00021,-5.00021 V 5.0002116 C 158.88861,2.2386391 156.64985,-1.1686589e-4 153.88828,0 Z"
       style="fill:#81b4fe;stroke-width:18;stroke-linecap:round;stroke-linejoin:round;paint-order:fill markers stroke"
       id="path41"
       inkscape:label="cut" />
    <path
       id="path37"
       style="fill:#450ba5;stroke-width:0.999999;stroke-linecap:round;stroke-linejoin:round;paint-order:fill markers stroke"
       d="m 35.000024,15.555733 c -10.77171,0 -19.444291,8.672581 -19.444291,19.444291 0,10.771715 8.672581,19.444292 19.444291,19.444292 10.771715,0 19.444292,-8.672578 19.444292,-19.444292 0,-10.771711 -8.672577,-19.444291 -19.444292,-19.444291 z m 44.444316,0 c -10.771711,0 -19.444291,8.672581 -19.444291,19.444291 0,10.771715 8.67258,19.444292 19.444291,19.444292 10.771714,0 19.444808,-8.672578 19.444808,-19.444292 0,-10.771711 -8.673094,-19.444291 -19.444808,-19.444291 z m 44.44432,0 c -10.77172,0 -19.4443,8.672581 -19.4443,19.444291 0,10.771715 8.67258,19.444292 19.4443,19.444292 10.7717,0 19.4448,-8.672578 19.4448,-19.444292 0,-10.771711 -8.6731,-19.444291 -19.4448,-19.444291 z M 35.000024,60.000049 c -10.77171,0 -19.444291,8.67258 -19.444291,19.444291 0,10.771714 8.672581,19.444808 19.444291,19.444808 10.771715,0 19.444292,-8.673095 19.444292,-19.444808 0,-10.771712 -8.672577,-19.444291 -19.444292,-19.444291 z m 44.444316,0 c -10.771711,0 -19.444291,8.67258 -19.444291,19.444291 0,10.771714 8.67258,19.444808 19.444291,19.444808 10.771714,0 19.444808,-8.673095 19.444808,-19.444808 0,-10.771712 -8.673094,-19.444291 -19.444808,-19.444291 z m 44.44432,0 c -10.77172,0 -19.4443,8.67258 -19.4443,19.444291 0,10.771714 8.67258,19.444808 19.4443,19.444808 10.7717,0 19.4448,-8.673095 19.4448,-19.444808 0,-10.771712 -8.6731,-19.444291 -19.4448,-19.444291 z M 35.000024,104.44436 c -10.77171,0 -19.444291,8.67258 -19.444291,19.4443 0,10.7717 8.672581,19.4448 19.444291,19.4448 10.771715,0 19.444292,-8.6731 19.444292,-19.4448 0,-10.77172 -8.672577,-19.4443 -19.444292,-19.4443 z m 44.444316,0 c -10.771711,0 -19.444291,8.67258 -19.444291,19.4443 0,10.7717 8.67258,19.4448 19.444291,19.4448 10.771714,0 19.444808,-8.6731 19.444808,-19.4448 0,-10.77172 -8.673094,-19.4443 -19.444808,-19.4443 z m 44.44432,0 c -10.77172,0 -19.4443,8.67258 -19.4443,19.4443 0,10.7717 8.67258,19.4448 19.4443,19.4448 10.7717,0 19.4448,-8.6731 19.4448,-19.4448 0,-10.77172 -8.6731,-19.4443 -19.4448,-19.4443 z"
       inkscape:label="circles" />
    <path
       id="path42"
       style="color:#000000;fill:#05285b;stroke-linecap:round;stroke-linejoin:round;-inkscape-stroke:none;paint-order:fill markers stroke"
       d="M 34.999931 8.9999674 C 32.925283 8.999709 31.223029 10.702867 31.2229 12.777515 C 31.222642 14.852431 32.925016 16.55687 34.999931 16.556612 C 37.07458 16.556485 38.777736 14.852163 38.777478 12.777515 C 38.777349 10.703135 37.074313 9.0000945 34.999931 8.9999674 z M 79.443213 8.9999674 C 77.368834 9.0000945 75.666309 10.703136 75.666182 12.777515 C 75.665923 14.852161 77.368567 16.556485 79.443213 16.556612 A 1.0001 1.0001 0 0 0 79.44528 16.556612 C 81.519927 16.556485 83.223086 14.852161 83.222827 12.777515 C 83.222653 10.703136 81.51966 9.0000945 79.44528 8.9999674 A 1.0001 1.0001 0 0 0 79.443213 8.9999674 z M 123.88856 8.9999674 C 121.81418 9.0000945 120.11165 10.70314 120.11153 12.777515 C 120.11127 14.852154 121.81391 16.556485 123.88856 16.556612 C 125.96347 16.55687 127.66636 14.852423 127.66611 12.777515 C 127.66598 10.702871 125.9632 8.999709 123.88856 8.9999674 z M 34.999931 19.199345 A 1.0001 1.0001 0 0 0 33.999992 20.185331 C 33.999878 27.8266 27.8266 33.999878 20.185331 33.999992 A 1.0001 1.0001 0 0 0 20.185331 35.99987 C 27.8266 35.999985 33.999878 42.173261 33.999992 49.81453 A 1.0001 1.0001 0 0 0 35.99987 49.81453 C 35.999985 42.173261 42.173261 35.999985 49.81453 35.99987 A 1.0001 1.0001 0 0 0 49.81453 33.999992 C 42.173261 33.999878 35.999985 27.8266 35.99987 20.185331 A 1.0001 1.0001 0 0 0 34.999931 19.199345 z M 79.44528 19.199345 A 1.0001 1.0001 0 0 0 78.445341 20.185331 C 78.445228 27.826526 72.270325 33.999878 64.62913 33.999992 A 1.0001 1.0001 0 0 0 64.62913 35.99987 C 72.270325 35.999985 78.445228 42.173336 78.445341 49.81453 A 1.0001 1.0001 0 0 0 80.445219 49.81453 C 80.445333 42.173147 86.618495 35.999718 94.25988 35.99987 A 1.0001 1.0001 0 0 0 94.25988 33.999992 C 86.618495 34.000145 80.445333 27.826715 80.445219 20.185331 A 1.0001 1.0001 0 0 0 79.44528 19.199345 z M 123.88856 19.199345 A 1.0001 1.0001 0 0 0 122.88862 20.185331 C 122.8885 27.826376 116.715 33.999878 109.07396 33.999992 A 1.0001 1.0001 0 0 0 109.07396 35.99987 C 116.715 35.999985 122.8885 42.173486 122.88862 49.81453 A 1.0001 1.0001 0 0 0 124.8885 49.81453 C 124.88861 42.173297 131.06194 35.999718 138.70316 35.99987 A 1.0001 1.0001 0 0 0 138.70316 33.999992 C 131.06194 34.000145 124.88861 27.826565 124.8885 20.185331 A 1.0001 1.0001 0 0 0 123.88856 19.199345 z M 12.777515 31.2229 C 10.702865 31.223029 8.999709 32.925281 8.9999674 34.999931 C 9.0000945 37.074315 10.703133 38.777349 12.777515 38.777478 C 14.852166 38.777736 16.556485 37.074582 16.556612 34.999931 C 16.55687 32.925013 14.852433 31.222642 12.777515 31.2229 z M 57.222864 31.2229 C 55.147949 31.222642 53.442991 32.925016 53.44325 34.999931 C 53.443377 37.074578 55.148217 38.777736 57.222864 38.777478 C 59.297243 38.777349 60.999767 37.074311 60.999894 34.999931 C 61.000152 32.925284 59.297511 31.223029 57.222864 31.2229 z M 101.66615 31.2229 C 99.591498 31.223029 97.888341 32.925289 97.888599 34.999931 C 97.888726 37.074306 99.591765 38.777349 101.66615 38.777478 C 103.74051 38.777349 105.44512 37.074308 105.44524 34.999931 C 105.44551 32.925283 103.74077 31.223029 101.66615 31.2229 z M 146.11149 31.2229 C 144.03686 31.223029 142.3337 32.92529 142.33395 34.999931 C 142.33409 37.0743 144.03712 38.777349 146.11149 38.777478 C 148.18586 38.777349 149.88841 37.074308 149.88853 34.999931 C 149.88879 32.92529 148.18613 31.223029 146.11149 31.2229 z M 34.999931 53.44325 C 32.925014 53.442991 31.222642 55.147948 31.2229 57.222864 C 31.223029 59.297513 32.925282 61.000152 34.999931 60.999894 C 37.074313 60.999767 38.777349 59.297245 38.777478 57.222864 C 38.777736 55.148215 37.074581 53.443377 34.999931 53.44325 z M 79.443213 53.44325 C 77.368567 53.443377 75.665923 55.148219 75.666182 57.222864 C 75.666309 59.297243 77.368835 60.999767 79.443213 60.999894 A 1.0001 1.0001 0 0 0 79.44528 60.999894 C 81.519659 60.999767 83.2227 59.297243 83.222827 57.222864 C 83.223086 55.148219 81.519927 53.443377 79.44528 53.44325 A 1.0001 1.0001 0 0 0 79.443213 53.44325 z M 123.88856 53.44325 C 121.81392 53.443377 120.11127 55.148227 120.11153 57.222864 C 120.11165 59.297237 121.81418 60.999767 123.88856 60.999894 C 125.9632 61.000152 127.66598 59.297507 127.66611 57.222864 C 127.66636 55.147957 125.96347 53.442991 123.88856 53.44325 z M 34.999931 63.644694 A 1.0001 1.0001 0 0 0 33.999992 64.62913 C 33.999878 72.270437 27.826638 78.445228 20.185331 78.445341 A 1.0001 1.0001 0 0 0 20.185331 80.445219 C 27.826828 80.445333 34.000145 86.618383 33.999992 94.25988 A 1.0001 1.0001 0 0 0 35.99987 94.25988 C 35.999718 86.618383 42.173034 80.445333 49.81453 80.445219 A 1.0001 1.0001 0 0 0 49.81453 78.445341 C 42.173224 78.445228 35.999985 72.270437 35.99987 64.62913 A 1.0001 1.0001 0 0 0 34.999931 63.644694 z M 79.44528 63.644694 A 1.0001 1.0001 0 0 0 78.445341 64.62913 C 78.445228 72.270268 72.270268 78.445228 64.62913 78.445341 A 1.0001 1.0001 0 0 0 64.62913 80.445219 C 72.270457 80.445333 78.445494 86.618553 78.445341 94.25988 A 1.0001 1.0001 0 0 0 80.445219 94.25988 C 80.445067 86.618363 86.618363 80.445067 94.25988 80.445219 A 1.0001 1.0001 0 0 0 94.25988 78.445341 C 86.618553 78.445494 80.445333 72.270457 80.445219 64.62913 A 1.0001 1.0001 0 0 0 79.44528 63.644694 z M 123.88856 63.644694 A 1.0001 1.0001 0 0 0 122.88862 64.62913 C 122.8885 72.270119 116.71494 78.445228 109.07396 78.445341 A 1.0001 1.0001 0 0 0 109.07396 80.445219 C 116.71513 80.445333 122.88877 86.618702 122.88862 94.25988 A 1.0001 1.0001 0 0 0 124.8885 94.25988 C 124.88834 86.618514 131.06181 80.445067 138.70316 80.445219 A 1.0001 1.0001 0 0 0 138.70316 78.445341 C 131.062 78.445494 124.88861 72.270307 124.8885 64.62913 A 1.0001 1.0001 0 0 0 123.88856 63.644694 z M 12.777515 75.666182 C 10.703133 75.666309 9.0000945 77.368832 8.9999674 79.443213 A 1.0001 1.0001 0 0 0 8.9999674 79.44528 C 9.0000945 81.519662 10.703133 83.2227 12.777515 83.222827 C 14.852164 83.223086 16.556485 81.51993 16.556612 79.44528 A 1.0001 1.0001 0 0 0 16.556612 79.444763 A 1.0001 1.0001 0 0 0 16.556612 79.444246 A 1.0001 1.0001 0 0 0 16.556612 79.44373 A 1.0001 1.0001 0 0 0 16.556612 79.443213 C 16.556485 77.368564 14.852164 75.665923 12.777515 75.666182 z M 57.222864 75.666182 C 55.14822 75.665923 53.443377 77.368568 53.44325 79.443213 A 1.0001 1.0001 0 0 0 53.44325 79.44528 C 53.443377 81.519925 55.14822 83.223086 57.222864 83.222827 C 59.297241 83.222653 60.999767 81.519658 60.999894 79.44528 A 1.0001 1.0001 0 0 0 60.999894 79.444763 A 1.0001 1.0001 0 0 0 60.999894 79.444246 A 1.0001 1.0001 0 0 0 60.999894 79.44373 A 1.0001 1.0001 0 0 0 60.999894 79.443213 C 60.999767 77.368836 59.297241 75.666309 57.222864 75.666182 z M 101.66615 75.666182 C 99.591766 75.666309 97.888726 77.368837 97.888599 79.443213 A 1.0001 1.0001 0 0 0 97.888599 79.44528 C 97.888726 81.519657 99.591766 83.2227 101.66615 83.222827 C 103.74051 83.2227 105.44512 81.519655 105.44524 79.44528 A 1.0001 1.0001 0 0 0 105.44524 79.444763 A 1.0001 1.0001 0 0 0 105.44524 79.444246 A 1.0001 1.0001 0 0 0 105.44524 79.44373 A 1.0001 1.0001 0 0 0 105.44524 79.443213 C 105.44512 77.368839 103.74051 75.666309 101.66615 75.666182 z M 146.11149 75.666182 C 144.03712 75.666309 142.33409 77.368846 142.33395 79.443213 A 1.0001 1.0001 0 0 0 142.33395 79.44528 C 142.33409 81.519648 144.03712 83.2227 146.11149 83.222827 C 148.18586 83.2227 149.88841 81.519656 149.88853 79.44528 A 1.0001 1.0001 0 0 0 149.88853 79.444763 A 1.0001 1.0001 0 0 0 149.88853 79.444246 A 1.0001 1.0001 0 0 0 149.88853 79.44373 A 1.0001 1.0001 0 0 0 149.88853 79.443213 C 149.88841 77.368838 148.18586 75.666309 146.11149 75.666182 z M 34.999931 97.888599 C 32.925299 97.888341 31.223029 99.591509 31.2229 101.66615 C 31.223029 103.74077 32.925297 105.44551 34.999931 105.44524 C 37.074298 105.44512 38.777349 103.7405 38.777478 101.66615 C 38.777349 99.591776 37.074296 97.888726 34.999931 97.888599 z M 79.443213 97.888599 C 77.368837 97.888726 75.666309 99.591762 75.666182 101.66615 C 75.666309 103.74051 77.368835 105.44512 79.443213 105.44524 A 1.0001 1.0001 0 0 0 79.44528 105.44524 C 81.519659 105.44512 83.2227 103.74051 83.222827 101.66615 C 83.2227 99.591762 81.519657 97.888726 79.44528 97.888599 A 1.0001 1.0001 0 0 0 79.443213 97.888599 z M 123.88856 97.888599 C 121.81419 97.888726 120.11165 99.591766 120.11153 101.66615 C 120.11165 103.74051 121.81418 105.44512 123.88856 105.44524 C 125.9632 105.44551 127.66598 103.74077 127.66611 101.66615 C 127.66598 99.591498 125.9632 97.888341 123.88856 97.888599 z M 34.999931 108.08798 A 1.0001 1.0001 0 0 0 33.999992 109.07396 C 33.999878 116.71476 27.826132 122.8885 20.185331 122.88862 A 1.0001 1.0001 0 0 0 20.185331 124.8885 C 27.826321 124.88861 34.000145 131.06218 33.999992 138.70316 A 1.0001 1.0001 0 0 0 35.99987 138.70316 C 35.999718 131.06218 42.173541 124.88861 49.81453 124.8885 A 1.0001 1.0001 0 0 0 49.81453 122.88862 C 42.173729 122.8885 35.999985 116.71476 35.99987 109.07396 A 1.0001 1.0001 0 0 0 34.999931 108.08798 z M 79.44528 108.08798 A 1.0001 1.0001 0 0 0 78.445341 109.07396 C 78.445228 116.71483 72.270006 122.8885 64.62913 122.88862 A 1.0001 1.0001 0 0 0 64.62913 124.8885 C 72.270194 124.88861 78.445494 131.06211 78.445341 138.70316 A 1.0001 1.0001 0 0 0 80.445219 138.70316 C 80.445067 131.06191 86.618626 124.88834 94.25988 124.8885 A 1.0001 1.0001 0 0 0 94.25988 122.88862 C 86.618816 122.88877 80.445333 116.71501 80.445219 109.07396 A 1.0001 1.0001 0 0 0 79.44528 108.08798 z M 123.88856 108.08798 A 1.0001 1.0001 0 0 0 122.88862 109.07396 C 122.8885 116.71488 116.71488 122.8885 109.07396 122.88862 A 1.0001 1.0001 0 0 0 109.07396 124.8885 C 116.71507 124.88861 122.88877 131.06205 122.88862 138.70316 A 1.0001 1.0001 0 0 0 124.8885 138.70316 C 124.88834 131.06185 131.06185 124.88834 138.70316 124.8885 A 1.0001 1.0001 0 0 0 138.70316 122.88862 C 131.06205 122.88877 124.88861 116.71507 124.8885 109.07396 A 1.0001 1.0001 0 0 0 123.88856 108.08798 z M 12.777515 120.11153 C 10.703147 120.11165 9.0000945 121.81419 8.9999674 123.88856 C 8.999709 125.9632 10.702881 127.66598 12.777515 127.66611 C 14.852413 127.66636 16.55687 125.96346 16.556612 123.88856 C 16.556485 121.81392 14.852143 120.11127 12.777515 120.11153 z M 57.222864 120.11153 C 55.148232 120.11127 53.443377 121.81392 53.44325 123.88856 C 53.442991 125.96346 55.147962 127.66636 57.222864 127.66611 C 59.297502 127.66598 61.000152 125.96319 60.999894 123.88856 C 60.999767 121.81419 59.297232 120.11165 57.222864 120.11153 z M 101.66615 120.11153 C 99.591769 120.11165 97.888726 121.81419 97.888599 123.88856 C 97.888341 125.9632 99.5915 127.66598 101.66615 127.66611 C 103.74077 127.66598 105.44551 125.9632 105.44524 123.88856 C 105.44512 121.81419 103.7405 120.11165 101.66615 120.11153 z M 146.11149 120.11153 C 144.03711 120.11165 142.33409 121.81418 142.33395 123.88856 C 142.3337 125.96321 144.03684 127.66598 146.11149 127.66611 C 148.18614 127.66598 149.88879 125.96321 149.88853 123.88856 C 149.88841 121.81417 148.18588 120.11165 146.11149 120.11153 z M 34.999931 142.33395 C 32.925297 142.3337 31.223029 144.03687 31.2229 146.11149 C 31.223029 148.18613 32.925301 149.88879 34.999931 149.88853 C 37.074302 149.88841 38.777349 148.18585 38.777478 146.11149 C 38.777349 144.03713 37.074294 142.33409 34.999931 142.33395 z M 79.443213 142.33395 C 77.368849 142.33409 75.666309 144.03713 75.666182 146.11149 C 75.666309 148.18586 77.368841 149.88841 79.443213 149.88853 A 1.0001 1.0001 0 0 0 79.44528 149.88853 C 81.519653 149.88841 83.2227 148.18586 83.222827 146.11149 C 83.2227 144.03713 81.519645 142.33409 79.44528 142.33395 A 1.0001 1.0001 0 0 0 79.443213 142.33395 z M 123.88856 142.33395 C 121.81419 142.33409 120.11165 144.03713 120.11153 146.11149 C 120.11165 148.18586 121.81418 149.88841 123.88856 149.88853 C 125.9632 149.88879 127.66598 148.18613 127.66611 146.11149 C 127.66598 144.03686 125.9632 142.3337 123.88856 142.33395 z " />
  </g>
</svg>
