<?xml version="1.0" encoding="UTF-8" standalone="no"?>
<!-- Created with Inkscape (http://www.inkscape.org/) -->

<svg
   width="2.75in"
   height="1.25in"
   viewBox="0 0 69.85 31.75"
   version="1.1"
   id="svg1"
   xml:space="preserve"
   inkscape:version="1.3.1 (91b66b0783, 2023-11-16)"
   sodipodi:docname="food-golem-notches--laser.svg"
   inkscape:export-filename="food-golem--white-blob.png"
   inkscape:export-xdpi="300"
   inkscape:export-ydpi="300"
   xmlns:inkscape="http://www.inkscape.org/namespaces/inkscape"
   xmlns:sodipodi="http://sodipodi.sourceforge.net/DTD/sodipodi-0.dtd"
   xmlns="http://www.w3.org/2000/svg"
   xmlns:svg="http://www.w3.org/2000/svg"><sodipodi:namedview
     id="namedview1"
     pagecolor="#ffffff"
     bordercolor="#000000"
     borderopacity="0.25"
     inkscape:showpageshadow="2"
     inkscape:pageopacity="0.0"
     inkscape:pagecheckerboard="0"
     inkscape:deskcolor="#d1d1d1"
     inkscape:document-units="in"
     inkscape:zoom="2"
     inkscape:cx="111"
     inkscape:cy="58.5"
     inkscape:window-width="1620"
     inkscape:window-height="1010"
     inkscape:window-x="-6"
     inkscape:window-y="-6"
     inkscape:window-maximized="1"
     inkscape:current-layer="g94"
     showguides="false" /><defs
     id="defs1"><inkscape:path-effect
       effect="taper_stroke"
       start_shape="center | center"
       end_shape="center | center"
       id="path-effect95"
       is_visible="true"
       lpeversion="1"
       stroke_width="0.88406038"
       subpath="1"
       attach_start="0.2"
       end_offset="2.7165484"
       start_smoothing="0.5"
       end_smoothing="0.5"
       jointype="extrapolated"
       miter_limit="100" /><inkscape:path-effect
       effect="taper_stroke"
       start_shape="center | center"
       end_shape="center | center"
       id="path-effect81"
       is_visible="true"
       lpeversion="1"
       stroke_width="0.88406038"
       subpath="1"
       attach_start="0.2"
       end_offset="2.7165484"
       start_smoothing="0.5"
       end_smoothing="0.5"
       jointype="extrapolated"
       miter_limit="100" /><inkscape:path-effect
       effect="taper_stroke"
       start_shape="center | center"
       end_shape="center | center"
       id="path-effect57"
       is_visible="true"
       lpeversion="1"
       stroke_width="0.88406038"
       subpath="1"
       attach_start="0.2"
       end_offset="2.7165484"
       start_smoothing="0.5"
       end_smoothing="0.5"
       jointype="extrapolated"
       miter_limit="100" /><inkscape:path-effect
       effect="taper_stroke"
       start_shape="center | center"
       end_shape="center | center"
       id="path-effect45"
       is_visible="true"
       lpeversion="1"
       stroke_width="0.88406038"
       subpath="1"
       attach_start="0.2"
       end_offset="2.7165484"
       start_smoothing="0.5"
       end_smoothing="0.5"
       jointype="extrapolated"
       miter_limit="100" /><inkscape:path-effect
       effect="taper_stroke"
       start_shape="center | center"
       end_shape="center | center"
       id="path-effect35"
       is_visible="true"
       lpeversion="1"
       stroke_width="1.905"
       subpath="1"
       attach_start="3.1695003"
       end_offset="0.17620279"
       start_smoothing="0.5"
       end_smoothing="0.5"
       jointype="extrapolated"
       miter_limit="100" /><inkscape:path-effect
       effect="skeletal"
       id="path-effect34"
       is_visible="true"
       lpeversion="1"
       pattern="M 0,0 H 1"
       copytype="single_stretched"
       prop_scale="1"
       scale_y_rel="false"
       spacing="1.8"
       normal_offset="1.4"
       tang_offset="0"
       prop_units="false"
       vertical_pattern="false"
       hide_knot="false"
       fuse_tolerance="0" /><inkscape:path-effect
       effect="taper_stroke"
       start_shape="center | center"
       end_shape="center | center"
       id="path-effect11"
       is_visible="true"
       lpeversion="1"
       stroke_width="2"
       subpath="1"
       attach_start="0.4"
       end_offset="20"
       start_smoothing="0.7"
       end_smoothing="0.5"
       jointype="extrapolated"
       miter_limit="100" /><inkscape:path-effect
       effect="taper_stroke"
       start_shape="center | center"
       end_shape="center | center"
       id="path-effect9"
       is_visible="true"
       lpeversion="1"
       stroke_width="2"
       subpath="1"
       attach_start="0.4"
       end_offset="20"
       start_smoothing="0.7"
       end_smoothing="0.5"
       jointype="extrapolated"
       miter_limit="100" /><inkscape:path-effect
       effect="skeletal"
       id="path-effect8"
       is_visible="true"
       lpeversion="1"
       pattern="M 0,0 H 1"
       copytype="single_stretched"
       prop_scale="1"
       scale_y_rel="false"
       spacing="0"
       normal_offset="0"
       tang_offset="0"
       prop_units="false"
       vertical_pattern="false"
       hide_knot="false"
       fuse_tolerance="0" /><inkscape:path-effect
       effect="lattice2"
       gridpoint0="24.804687,19.239959"
       gridpoint1="61.714062,19.239959"
       gridpoint2="24.804687,21.46046"
       gridpoint3="61.714062,21.46046"
       gridpoint4="34.032031,19.239959"
       gridpoint5="52.486718,19.239959"
       gridpoint6="34.032031,21.46046"
       gridpoint7="52.486718,21.46046"
       gridpoint8x9="43.259374,19.239959"
       gridpoint10x11="43.259374,21.46046"
       gridpoint12="24.804687,19.795084"
       gridpoint13="61.714062,19.795084"
       gridpoint14="24.804687,20.905335"
       gridpoint15="61.714062,20.905335"
       gridpoint16="34.032031,19.795084"
       gridpoint17="52.486718,19.795084"
       gridpoint18="34.032031,20.905335"
       gridpoint19="52.486718,20.905335"
       gridpoint20x21="43.259374,19.795084"
       gridpoint22x23="43.259374,20.905335"
       gridpoint24x26="24.804687,20.350209"
       gridpoint25x27="61.714062,20.350209"
       gridpoint28x30="34.032031,20.350209"
       gridpoint29x31="52.486718,20.350209"
       gridpoint32x33x34x35="43.86,20.350209"
       id="path-effect7"
       is_visible="true"
       lpeversion="1"
       horizontal_mirror="false"
       vertical_mirror="false"
       perimetral="false"
       live_update="true" /><inkscape:path-effect
       effect="sketch"
       id="path-effect6"
       is_visible="true"
       lpeversion="1"
       nbiter_approxstrokes="5"
       parallel_offset="4.8;1"
       strokelength="49.146758"
       strokelength_rdm="0.3;1"
       strokeoverlap="0.081911263"
       strokeoverlap_rdm="0.3;1"
       ends_tolerance="0.1;1"
       tremble_size="2.1;1"
       tremble_frequency="1"
       nbtangents="5"
       tgt_places_rdmness="1;1"
       tgtlength="1"
       tgtlength_rdm="0.3;1"
       tgtscale="9.7" /><inkscape:path-effect
       effect="roughen"
       id="path-effect5"
       is_visible="true"
       lpeversion="1.2"
       global_randomize="2.9;1"
       displace_x="0.05;1"
       displace_y="0.41;1"
       method="segments"
       max_segment_size="7"
       segments="26"
       handles="rand"
       shift_nodes="true"
       fixed_displacement="true"
       spray_tool_friendly="true" /><inkscape:path-effect
       effect="curvestitching"
       id="path-effect4"
       is_visible="true"
       lpeversion="1"
       count="5"
       startpoint_edge_variation="0;1"
       startpoint_spacing_variation="0;1"
       endpoint_edge_variation="0;1"
       endpoint_spacing_variation="0;1"
       strokepath="M0,0 L1,0"
       prop_scale="1"
       scale_y_rel="false" /><inkscape:path-effect
       effect="simplify"
       id="path-effect3"
       is_visible="true"
       lpeversion="1.3"
       threshold="24.196372"
       steps="5.7699115"
       smooth_angles="86.017699"
       helper_size="10"
       simplify_individual_paths="false"
       simplify_just_coalesce="false" /><inkscape:path-effect
       effect="taper_stroke"
       start_shape="center | center"
       end_shape="center | center"
       id="path-effect2"
       is_visible="true"
       lpeversion="1"
       stroke_width="0.1"
       subpath="1"
       attach_start="0.2"
       end_offset="30"
       start_smoothing="0.6"
       end_smoothing="0"
       jointype="extrapolated"
       miter_limit="1000" /><inkscape:path-effect
       effect="taper_stroke"
       start_shape="center | center"
       end_shape="center | center"
       id="path-effect1"
       is_visible="true"
       lpeversion="1"
       stroke_width="1.25"
       subpath="1"
       attach_start="0.5"
       end_offset="10"
       start_smoothing="1"
       end_smoothing="0.8"
       jointype="extrapolated"
       miter_limit="50" /><inkscape:path-effect
       effect="powerstroke"
       id="path-effect98"
       is_visible="true"
       lpeversion="1.3"
       scale_width="0.5"
       interpolator_type="CentripetalCatmullRom"
       interpolator_beta="1"
       start_linecap_type="zerowidth"
       end_linecap_type="zerowidth"
       offset_points="0.2,0.63499999 | 2.5,0.63499999 | 4.8,0.63499999"
       linejoin_type="round"
       miter_limit="4"
       not_jump="false"
       sort_points="true"
       message="&lt;b&gt;Ctrl + click&lt;/b&gt; on existing node and move it" /><inkscape:path-effect
       effect="powerstroke"
       id="path-effect88"
       is_visible="true"
       lpeversion="1.3"
       scale_width="0.5"
       interpolator_type="CentripetalCatmullRom"
       interpolator_beta="1"
       start_linecap_type="zerowidth"
       end_linecap_type="zerowidth"
       offset_points="0.2,0.63499999 | 2.5,0.63499999 | 4.8,0.63499999"
       linejoin_type="round"
       miter_limit="4"
       not_jump="false"
       sort_points="true"
       message="&lt;b&gt;Ctrl + click&lt;/b&gt; on existing node and move it" /><inkscape:path-effect
       effect="offset"
       id="path-effect87"
       is_visible="true"
       lpeversion="1.2"
       linejoin_type="round"
       unit="mm"
       offset="0"
       miter_limit="4"
       attempt_force_join="false"
       update_on_knot_move="true" /><inkscape:path-effect
       effect="rough_hatches"
       id="path-effect70"
       is_visible="true"
       lpeversion="1.2"
       direction="19.734572,14.285855 , 0.412,0"
       dist_rdm="1;1"
       growth="0"
       do_bend="true"
       bender="19.734572,19.285855 , 5,0"
       bottom_edge_variation="0.027215883;1"
       top_edge_variation="0.027215883;1"
       bottom_tgt_variation="0;1"
       top_tgt_variation="0;1"
       scale_bf="2"
       scale_bb="0.7"
       scale_tf="0.7"
       scale_tb="0.6"
       top_smth_variation="0;1"
       bottom_smth_variation="0;1"
       fat_output="true"
       stroke_width_top="0.4"
       stroke_width_bottom="0.4"
       front_thickness="0.3"
       back_thickness="0.05" /><inkscape:path-effect
       effect="bend_path"
       id="path-effect69"
       is_visible="true"
       lpeversion="1"
       bendpath="m 18.910572,19.285855 h 1.648"
       prop_scale="3"
       scale_y_rel="false"
       vertical="false"
       hide_knot="false" /><rect
       x="12.852029"
       y="18.506922"
       width="68.886871"
       height="34.957516"
       id="rect3" /><rect
       x="177.35799"
       y="10.281623"
       width="72.485443"
       height="74.541763"
       id="rect2" /><rect
       x="12.852029"
       y="18.506922"
       width="69.400955"
       height="88.936035"
       id="rect4" /><rect
       x="177.35799"
       y="10.281623"
       width="72.485443"
       height="74.541763"
       id="rect6" /><rect
       x="12.852029"
       y="18.506922"
       width="147.54129"
       height="31.358948"
       id="rect11" /><rect
       x="12.852029"
       y="18.506922"
       width="149.08353"
       height="33.929356"
       id="rect12" /><rect
       x="177.35799"
       y="10.281623"
       width="147.02721"
       height="37.013844"
       id="rect13" /><rect
       x="177.35799"
       y="10.281623"
       width="72.485443"
       height="74.541763"
       id="rect14" /><rect
       x="177.35799"
       y="10.281623"
       width="147.02721"
       height="37.013844"
       id="rect31" /><rect
       x="177.35799"
       y="10.281623"
       width="72.485443"
       height="74.541763"
       id="rect32" /><rect
       x="12.852029"
       y="18.506922"
       width="147.54129"
       height="31.358948"
       id="rect33" /><rect
       x="12.852029"
       y="18.506922"
       width="149.08353"
       height="33.929356"
       id="rect34" /><rect
       x="177.35799"
       y="10.281623"
       width="154.6609"
       height="44.811905"
       id="rect50" /><rect
       x="177.35799"
       y="10.281623"
       width="72.485443"
       height="74.541763"
       id="rect51" /><rect
       x="12.852029"
       y="18.506922"
       width="219.31531"
       height="17.493082"
       id="rect52" /><rect
       x="12.852029"
       y="18.506922"
       width="149.08353"
       height="33.929356"
       id="rect53" /><inkscape:path-effect
       effect="fill_between_many"
       method="originald"
       linkedpaths="#path75,0,1|#path76,0,1"
       id="path-effect77"
       is_visible="true"
       lpeversion="0"
       join="true"
       close="true"
       autoreverse="true" /><inkscape:path-effect
       effect="fill_between_many"
       method="originald"
       linkedpaths="#path72,0,1|#path73,0,1"
       id="path-effect78"
       is_visible="true"
       lpeversion="0"
       join="true"
       close="true"
       autoreverse="true" /><rect
       x="177.35799"
       y="10.281623"
       width="154.6609"
       height="44.811905"
       id="rect92" /><rect
       x="177.35799"
       y="10.281623"
       width="72.485443"
       height="74.541763"
       id="rect93" /><rect
       x="12.852029"
       y="18.506922"
       width="219.31531"
       height="17.493082"
       id="rect94" /><rect
       x="177.35799"
       y="10.281623"
       width="220.76466"
       height="34.821472"
       id="rect107" /><rect
       x="177.35799"
       y="10.281623"
       width="19.278044"
       height="22.10549"
       id="rect108" /><rect
       x="12.852029"
       y="18.506922"
       width="214.68858"
       height="41.654896"
       id="rect109" /><mask
       maskUnits="userSpaceOnUse"
       id="mask22"><path
         style="display:inline;fill:#ffffff;fill-opacity:1;stroke-width:0.0254;stroke-linecap:round;stroke-linejoin:round;paint-order:markers stroke fill"
         d="m 13.559896,7.3421875 3.075781,2.7450515 0.09922,5.060157 7.242969,1.488281 0.595312,5.78776 41.374218,0.264584 L 66.11276,4.8617187 14.519011,4.5971354 Z"
         id="path22" /></mask><rect
       x="177.35799"
       y="10.281623"
       width="220.76466"
       height="34.821472"
       id="rect96" /><rect
       x="177.35799"
       y="10.281623"
       width="19.278044"
       height="22.10549"
       id="rect97" /></defs><g
     inkscape:groupmode="layer"
     id="layer1"
     inkscape:label="CUT"><path
       id="rect95"
       style="fill:#fed1aa;fill-opacity:1;stroke:#5b2d07;stroke-width:0.127;stroke-linecap:round;stroke-linejoin:round;stroke-dasharray:none;stroke-opacity:1;paint-order:fill markers stroke"
       d="m 10.795207,3.175 c -3.2969736,0 -5.9887297,3.4161702 -7.0548669,8.281149 L 3.6452555,12.7 c -0.053628,0.70153 0.5666294,1.270207 1.2702067,1.270207 H 5.268929 5.6559855 c 0.7035783,0 1.2702067,0.56611 1.2702067,1.26969 v 1.270206 c 0,0.70358 -0.5666284,1.26969 -1.2702067,1.26969 H 5.268929 4.9154622 c -0.7035763,0 -1.2702067,0.566631 -1.2702067,1.270207 v 1.187008 l 0.022221,0.171566 C 4.731744,25.27955 7.4956603,28.575 10.795207,28.575 h 48.259586 c 3.299547,0 6.01232,-3.373476 7.07653,-8.244448 l 0.01451,-0.09354 V 19.05 c 0,-0.703575 -0.566631,-1.270207 -1.270206,-1.270207 H 64.52216 64.135103 c -0.703577,0 -1.270206,-0.56611 -1.270206,-1.26969 v -1.270206 c 0,-0.70358 0.566629,-1.26969 1.270206,-1.26969 h 0.387057 0.353467 c 0.703576,0 1.270206,-0.566631 1.270206,-1.270207 v -1.270207 c 0,-0.102898 -0.01225,-0.202485 -0.03514,-0.298173 h 0.01344 C 65.00041,6.4609263 62.26819,3.175 59.054793,3.175 Z"
       sodipodi:nodetypes="scsscsssscssccssccsscsssscsssccss" /></g><g
     inkscape:label="LIGHT"
     inkscape:groupmode="layer"
     id="g56"
     style="display:inline"><path
       style="display:inline;fill:#fea75f;fill-opacity:1;fill-rule:nonzero;stroke:none;stroke-width:0.88406;stroke-linecap:round;stroke-linejoin:round;stroke-dasharray:none;stroke-opacity:1;paint-order:markers stroke fill"
       d="m 46.447314,-9.4805467 c 0.01577,-0.1755588 -0.294436,-0.4020491 -0.372594,-0.4589237 0,0 0,0 0,0 -0.01195,-0.0087 -0.02011,-0.00842 -0.02011,-0.00842 0,0 -0.0078,-0.00262 -0.02171,0.00244 0,0 0,0 0,0 -0.09577,0.034698 -0.448539,0.1854279 -0.466188,0.3867694 -0.01058,0.1192963 -0.02136,0.2602892 -0.03073,0.4208321 -0.145587,2.4727346 0.24251,4.923211 1.139698,7.1238197 0.401842,0.9833694 0.885416,1.87238544 1.234343,2.76191928 0.54098,1.38817072 0.896663,2.69565022 0.888178,3.99512102 -0.0073,1.5015177 -0.218132,2.9349682 -0.05182,4.1767873 0,3e-7 0,6e-7 1e-6,10e-7 0.445905,3.2132177 2.514654,4.3485977 2.514654,4.3485977 0,0 -1.961099,-1.302786 -2.195963,-4.3831173 0,-5e-7 0,-8e-7 0,-1.2e-6 C 48.967741,7.6930157 49.25215,6.3223827 49.328813,4.7575446 49.394058,3.363701 49.08243,1.9516499 48.565068,0.50347273 48.22596,-0.45095265 47.765532,-1.3642956 47.410184,-2.3033333 c -0.798783,-2.1051944 -1.127424,-4.4336327 -0.991642,-6.78302 0.0088,-0.1512427 0.01894,-0.283338 0.02877,-0.3941934 z"
       id="path49"
       transform="matrix(0.37466656,1.6826564,1.6826564,-0.37466656,22.183653,-60.482705)"
       inkscape:label="dash line"
       inkscape:path-effect="#path-effect57"
       inkscape:original-d="m 46.054611,-9.9478885 c 0,0 -0.578167,3.8120881 0.988321,7.7892067 0.41381,1.0506101 2.098301,4.0713711 2.020575,6.9089591 -0.07773,2.837588 -1.075517,5.3957327 2.197533,8.5181187"
       sodipodi:nodetypes="cssc" /></g><g
     inkscape:label="MED"
     inkscape:groupmode="layer"
     id="g80"
     style="display:inline"><path
       style="color:#000000;display:inline;fill:#ac560e;stroke-linecap:round;stroke-linejoin:round;-inkscape-stroke:none;paint-order:markers stroke fill"
       d="M 17.540727,5.506838 C 17.419168,5.483828 17.29508,5.466625 17.169201,5.456019 15.154997,5.2861541 13.387244,6.811995 13.220899,8.8636286 c -0.125261,1.5892884 0.756023,3.0836034 2.192252,3.7176904 -1.548952,1.096036 -2.169761,0.816486 -2.698264,0.511916 -0.551863,-0.318026 -0.87855,-0.893596 -0.87855,-0.893596 -0.376681,-0.745142 -1.275108,-1.038205 -2.0065154,-0.654199 -0.7313719,0.383889 -1.0184141,1.299109 -0.6412907,2.043955 0,0 0.6328542,1.322513 2.0594131,2.144636 0.967298,0.557437 2.405144,0.510825 3.936526,0.04355 0.01797,0.364093 0.03709,0.670423 0.05348,1.063108 0.03771,0.90393 0.04364,1.205079 0.06419,1.819623 -0.452576,0.03372 -0.499802,-0.09833 -1.052004,0.100972 -1.496173,0.539966 -3.169547,2.122534 -3.559783,4.867012 -0.118388,0.829189 0.445729,1.599045 1.259824,1.719577 0.814989,0.120303 1.570994,-0.456126 1.687822,-1.286433 0.262613,-1.847065 0.92862,-2.19472 1.607175,-2.439617 0.678578,-0.244932 1.33607,-0.147342 1.33607,-0.147342 0.444772,0.07981 0.9008,-0.05015 1.240406,-0.353384 0.08277,0.539232 0.257572,1.296794 0.639732,2.054813 0.350197,0.694599 0.935284,1.465014 1.889708,1.862875 0.954444,0.397811 2.124858,0.302018 3.265785,-0.223363 0.748895,-0.345598 1.080905,-1.243889 0.742162,-2.006927 -0.338616,-0.763421 -1.220271,-1.103141 -1.969869,-0.758469 -0.636186,0.292966 -0.823776,0.216836 -0.908975,0.181322 -0.08517,-0.03555 -0.221796,-0.148771 -0.369197,-0.441176 -0.294837,-0.584794 -0.388132,-1.55663 -0.388132,-1.55663 -7.21e-4,-0.01103 -0.0012,-0.02188 -0.0019,-0.03283 0,0 -0.112497,-1.690696 -0.215213,-3.377931 -0.03543,-0.581568 -0.0614,-1.083497 -0.08906,-1.592727 0.28474,0.05985 0.815342,0.04909 0.975098,0.126688 0.401074,0.194718 0.493036,0.355253 0.574144,0.547252 0.162217,0.383971 0.05059,0.96418 0.05059,0.96418 -0.242726,0.800572 0.197836,1.650104 0.983832,1.897272 0.785968,0.247238 1.620043,-0.201492 1.862687,-1.002095 0,0 0.509991,-1.47106 -0.160877,-3.059135 -0.335453,-0.794033 -1.025922,-1.599642 -2.027841,-2.086134 -0.906469,-0.440138 -2.030467,-0.648196 -3.437278,-0.620112 0.735121,-0.635729 1.194043,-1.541348 1.277148,-2.5199657 0.156205,-1.9231687 -1.150118,-3.6259844 -2.973518,-3.9711971 z m 0.268245,3.0644791 a 0.52169768,0.53138291 0 0 1 0.434879,0.5367082 0.52169768,0.53138291 0 0 1 -0.533501,0.51857 0.52169768,0.53138291 0 0 1 -0.509616,-0.5435044 0.52169768,0.53138291 0 0 1 0.534095,-0.5189767 0.52169768,0.53138291 0 0 1 0.07413,0.00727 z m -3.143883,-0.07398 a 0.52169768,0.53138291 0 0 1 0.435467,0.5362973 0.52169768,0.53138291 0 0 1 -0.533496,0.5185719 0.52169768,0.53138291 0 0 1 -0.50962,-0.5435027 0.52169768,0.53138291 0 0 1 0.533504,-0.5185694 0.52169768,0.53138291 0 0 1 0.07416,0.00715 z m 3.102405,1.6181139 a 0.22344285,0.22759103 0 0 1 0.150261,0.21883 c -0.0085,0.370401 -0.25597,0.677321 -0.588116,0.873044 -0.332178,0.195719 -0.763894,0.301776 -1.234727,0.290669 -0.470961,-0.01103 -0.897236,-0.137758 -1.220252,-0.348949 -0.323031,-0.211213 -0.556144,-0.528901 -0.547698,-0.899396 a 0.22344285,0.22759103 0 0 1 0.227208,-0.221254 l 3.144284,0.07459 a 0.22344285,0.22759103 0 0 1 0.06905,0.01252 z m -0.836866,3.536447 a 0.52169768,0.53138291 0 0 1 0.424289,0.467666 0.52169768,0.53138291 0 0 1 -0.465074,0.58325 0.52169768,0.53138291 0 0 1 -0.572619,-0.473711 0.52169768,0.53138291 0 0 1 0.46458,-0.583346 0.52169768,0.53138291 0 0 1 0.148812,0.0063 z m -4.892982,-0.766691 a 0.14896187,0.15172733 0 0 1 0.04768,0.02769 l 0.256102,0.21864 c 0.171507,0.146526 0.171464,0.387492 0.08108,0.571499 -0.04518,0.092 -0.121127,0.177581 -0.227703,0.221159 -0.106607,0.04357 -0.238479,0.03713 -0.365849,-0.01834 -0.26015,-0.113261 -0.424694,-0.128279 -0.510949,-0.112146 -0.08623,0.01603 -0.107351,0.04452 -0.130633,0.101529 -0.04654,0.114085 -0.0076,0.333868 -0.0076,0.333868 a 0.14896187,0.15172733 0 0 1 0.0022,0.0046 c 0,0 0.05201,0.216905 0.03364,0.425657 -0.0092,0.104365 -0.03056,0.232477 -0.151293,0.308849 -0.06035,0.03818 -0.139136,0.04814 -0.208968,0.03492 -0.06512,-0.01227 -0.128175,-0.0442 -0.195312,-0.08635 0,0 -0.0024,-0.0025 -0.0024,-0.0025 -0.003,-0.0017 -0.465103,-0.274963 -0.7473594,-0.698906 -0.00286,-0.0017 -0.00405,-6.84e-4 -0.00667,-0.0023 l 0.00262,-0.0027 c -0.021064,-0.03206 -0.037595,-0.01817 -0.056361,-0.05241 a 0.14896187,0.15172733 0 0 1 0.2088344,-0.205481 c 0.189195,0.118485 0.303019,0.137284 0.338276,0.131668 0.03525,-0.0056 0.03468,-0.0099 0.04961,-0.06144 0.02991,-0.102632 -0.0064,-0.322477 -0.0064,-0.322477 a 0.14896187,0.15172733 0 0 1 -0.0042,-0.01652 c 0,0 -0.0369,-0.200294 0.07281,-0.385442 0.05484,-0.09257 0.166156,-0.179064 0.304668,-0.193522 0.138516,-0.01447 0.294476,0.02752 0.492087,0.130442 0.165346,0.08603 0.275245,0.100826 0.339068,0.09211 0.06385,-0.0088 0.09342,-0.03506 0.123293,-0.07628 0.05973,-0.08249 0.07169,-0.227143 0.07169,-0.227143 a 0.14896187,0.15172733 0 0 1 0.08983,-0.135679 0.14896187,0.15172733 0 0 1 0.107892,-0.0028 z m 12.315673,2.816943 c 0.143922,0.02727 0.303867,0.116824 0.453754,0.30079 a 0.13045657,0.13287848 0 0 1 0.0041,0.0045 c 0.09467,0.130083 0.08129,0.280405 0.05918,0.426468 -0.02203,0.146081 -0.05135,0.282044 -0.160255,0.38087 a 0.13045657,0.13287848 0 0 1 -0.215592,-0.07934 c -0.03108,-0.205497 -0.112267,-0.321962 -0.182339,-0.345446 -0.035,-0.012 -0.07905,-0.01188 -0.154135,0.02474 -0.07505,0.03646 -0.175687,0.111273 -0.289409,0.237841 -0.09677,0.107698 -0.20195,0.170226 -0.306995,0.186787 -0.105032,0.01656 -0.199713,-0.01379 -0.270948,-0.05572 -0.106849,-0.06281 -0.174445,-0.153338 -0.201528,-0.194867 l -4.01e-4,-6.01e-4 c -0.0063,-0.0062 -0.124193,-0.124148 -0.239132,-0.169812 -0.05894,-0.02346 -0.103904,-0.0272 -0.141926,-0.01006 -0.03801,0.01723 -0.0881,0.0631 -0.134785,0.199599 a 0.13045657,0.13287848 0 0 1 -0.239067,0.0175 c 0,0 0.0027,-0.08732 -0.0042,-0.104935 l -0.0044,6e-5 c 0.0011,-0.0033 0.0038,-0.0038 0.0048,-0.007 -0.02974,-0.07546 -0.101468,-0.19828 -0.01311,-0.425303 a 0.13045657,0.13287848 0 0 1 0.0075,-0.01369 c 0,0 0.08668,-0.177515 0.251772,-0.29963 0.08256,-0.06105 0.194091,-0.111709 0.320986,-0.09771 0.126885,0.0141 0.251481,0.0921 0.36334,0.232856 0.09983,0.125588 0.183425,0.175615 0.243057,0.192543 0.05963,0.01686 0.102898,0.0058 0.149243,-0.01785 0.0927,-0.04729 0.164168,-0.1567 0.164168,-0.1567 a 0.13045657,0.13287848 0 0 1 0.0093,-0.01647 c 0,0 0.106499,-0.140436 0.29118,-0.198257 0.06927,-0.02166 0.149985,-0.0276 0.236342,-0.01127 z m -7.250084,-0.353256 a 0.52169768,0.53138291 0 0 1 0.424291,0.467666 0.52169768,0.53138291 0 0 1 -0.465077,0.583248 0.52169768,0.53138291 0 0 1 -0.572614,-0.473708 0.52169768,0.53138291 0 0 1 0.465073,-0.58325 0.52169768,0.53138291 0 0 1 0.148335,0.0059 z m 0.172609,1.696992 a 0.52169768,0.53138291 0 0 1 0.424784,0.467765 0.52169768,0.53138291 0 0 1 -0.465078,0.583249 0.52169768,0.53138291 0 0 1 -0.573113,-0.473802 0.52169768,0.53138291 0 0 1 0.465079,-0.583253 0.52169768,0.53138291 0 0 1 0.148328,0.0059 z m 5.150543,5.310188 a 0.22344285,0.22759103 0 0 1 0.171336,0.09633 c 0.74643,1.088402 0.336048,2.343748 0.336048,2.343748 a 0.22344285,0.22759103 0 0 1 -0.17063,0.152816 l -0.510787,0.101856 a 0.22344285,0.22759103 0 0 1 -0.223674,-0.35773 c 0,-10e-7 0.125796,-0.17261 0.174015,-0.49746 0.04832,-0.324815 0.01406,-0.781478 -0.374946,-1.34635 l 0.0027,5.54e-4 c -3.23e-4,-4.63e-4 -0.03675,-0.08466 -0.03684,-0.08517 -1.08e-4,-5.04e-4 -5.67e-4,-0.0927 -5.33e-4,-0.09323 1.04e-4,-5.37e-4 0.02157,-0.06683 0.02195,-0.06738 2.93e-4,-5.65e-4 0.01802,-0.02869 0.02632,-0.0388 0.03318,-0.04013 0.0539,-0.04753 0.06981,-0.05694 0.0318,-0.01899 0.05245,-0.02864 0.07649,-0.03781 0.04807,-0.01844 0.100535,-0.0338 0.154756,-0.0497 0.108473,-0.03185 0.216909,-0.05797 0.216909,-0.05797 a 0.22344285,0.22759103 0 0 1 0.06704,-0.0068 z M 11.44646,22.265524 a 0.22344285,0.22759103 0 0 1 0.152878,0.101625 c 0,0 0.108449,0.177176 0.383985,0.338392 0.275483,0.161177 0.702644,0.29558 1.364668,0.141835 5.33e-4,-2.3e-4 0.09813,-10e-5 0.09862,-6.8e-5 4.56e-4,1.08e-4 0.09502,0.04663 0.09542,0.0469 3.89e-4,3.22e-4 0.05069,0.05861 0.05099,0.05917 3.14e-4,5.37e-4 0.01762,0.03448 0.02191,0.04717 0.01722,0.05092 0.01445,0.06893 0.01437,0.08705 -7.7e-5,0.03625 -0.005,0.05944 -0.009,0.08612 -0.0082,0.05333 -0.02034,0.111673 -0.03402,0.171735 -0.02717,0.120181 -0.05801,0.239233 -0.05801,0.239233 a 0.22344285,0.22759103 0 0 1 -0.166092,0.164158 c -1.271517,0.292585 -2.257877,-0.569561 -2.257877,-0.569561 a 0.22344285,0.22759103 0 0 1 -0.0678,-0.241872 l 0.162736,-0.519019 a 0.22344285,0.22759103 0 0 1 0.184761,-0.154233 0.22344285,0.22759103 0 0 1 0.06245,0.0012 z"
       id="path70"
       inkscape:label="running ginger" /><path
       id="path77"
       style="display:inline;fill:#ac560e;fill-opacity:1;stroke:none;stroke-width:0.333172;stroke-linecap:round;stroke-linejoin:round;stroke-dasharray:none;stroke-opacity:1;paint-order:markers stroke fill"
       inkscape:label="cookie bg"
       d="m 54.892774,4.1997437 c -0.28916,7.805e-4 -0.58133,0.023232 -0.874882,0.06873 -0.09802,0.015196 -0.195814,0.032851 -0.294039,0.053227 -0.17866,0.037246 -0.353629,0.082184 -0.525033,0.1348754 -0.171566,0.052725 -0.339158,0.1130086 -0.502811,0.1803509 -0.163506,0.067282 -0.323039,0.1417054 -0.478007,0.2227254 -0.154969,0.08102 -0.305345,0.168612 -0.451135,0.2625162 -0.218686,0.1408564 -0.426466,0.2955755 -0.622701,0.4630208 -1.02e-4,8.65e-5 -4.16e-4,-8.65e-5 -5.17e-4,0 -0.130718,0.1115553 -0.256249,0.2291105 -0.376205,0.3513999 -0.06002,0.061188 -0.118495,0.1233529 -0.1757,0.1870686 -8.3e-5,9.35e-5 8.4e-5,4.233e-4 0,5.168e-4 -0.05711,0.063622 -0.113204,0.1282677 -0.167431,0.1943034 -8.3e-5,1.008e-4 8.3e-5,4.159e-4 0,5.168e-4 -0.16283,0.1983164 -0.312668,0.4071221 -0.448035,0.6252848 -7.6e-5,1.227e-4 7.6e-5,3.941e-4 0,5.168e-4 -0.135343,0.2181625 -0.256526,0.4454487 -0.362252,0.6805786 -6.3e-5,1.418e-4 6.4e-5,3.747e-4 0,5.167e-4 -0.03519,0.07828 -0.06902,0.1572464 -0.100769,0.2371949 -5.8e-5,1.476e-4 5.9e-5,3.691e-4 0,5.167e-4 -0.06354,0.1600485 -0.120228,0.3232823 -0.169498,0.4893758 -4.7e-5,1.575e-4 4.6e-5,3.593e-4 0,5.168e-4 -0.0246,0.082968 -0.04781,0.1668303 -0.06873,0.2511475 -0.04193,0.1689571 -0.07617,0.3404466 -0.102836,0.5141805 -0.01333,0.086867 -0.02471,0.1740983 -0.03411,0.2619995 -1.8e-5,1.701e-4 1.9e-5,3.466e-4 0,5.167e-4 -0.0094,0.087733 -0.01685,0.1759271 -0.02222,0.2645831 -1.1e-5,1.72e-4 1e-5,3.45e-4 0,5.17e-4 -1.87e-4,0.0031 -3.35e-4,0.0062 -5.17e-4,0.0093 -0.01028,0.174466 -0.0129,0.3507157 -0.0072,0.5281327 6e-6,1.73e-4 -5e-6,3.44e-4 0,5.17e-4 0.0029,0.09019 0.0079,0.181019 0.01499,0.271818 0.147251,-0.07272 0.306251,-0.128527 0.473873,-0.163297 0.04352,-0.009 0.08661,-0.01549 0.129191,-0.01964 0.08516,-0.0083 0.168195,-0.0072 0.249597,0.0021 0.122101,0.01395 0.24028,0.04627 0.353984,0.0925 0.07581,0.03083 0.149592,0.06814 0.221692,0.11007 0.144193,0.08384 0.28082,0.187035 0.410311,0.299724 1.01e-4,8.8e-5 4.15e-4,-8.9e-5 5.16e-4,0 0.06464,0.05627 0.12761,0.115088 0.188619,0.174666 0.0611,0.05967 0.120293,0.120473 0.177767,0.180867 0.130992,-0.08096 0.38245,-0.179739 0.634587,-0.2651 h -0.03359 V 10.20664 h 0.409278 V 8.9064331 c -0.07441,0.019293 -0.17639,0.028939 -0.305925,0.028939 -0.04134,0 -0.07579,-0.00207 -0.103353,-0.0062 v -0.636655 c 0.01654,0.00138 0.03376,0.00207 0.05168,0.00207 0.180523,0 0.347955,-0.03514 0.502295,-0.10542 0.157096,-0.071658 0.269406,-0.1564076 0.33693,-0.254248 h 0.432015 v 2.2716959 h 0.396875 v 0.661458 H 53.32495 c 0.897407,0.266993 1.404413,0.755071 1.908927,1.641244 0.05366,0.258422 0.07827,0.67407 0.05943,1.003556 -0.0031,0.05489 -0.0073,0.107098 -0.01292,0.156063 -0.0056,0.04916 -0.0124,0.09448 -0.02067,0.135392 0.139914,0.09018 0.269733,0.17125 0.387056,0.257349 0.01911,0.01402 0.03901,0.028 0.05736,0.04237 0.0438,0.03426 0.08549,0.06949 0.12454,0.10697 0.07792,0.07478 0.145638,0.157784 0.201021,0.255798 0.05538,0.09801 0.09808,0.211118 0.126091,0.346232 0.03033,0.146139 0.04353,0.291614 0.04082,0.435116 -0.0027,0.143502 -0.02093,0.284776 -0.05374,0.421679 0.618698,-0.135417 1.191419,-0.366337 1.708939,-0.671793 0.131862,-0.07782 0.261179,-0.159127 0.385507,-0.246497 1.97e-4,-1.38e-4 3.19e-4,-3.78e-4 5.16e-4,-5.16e-4 0.0198,-0.01392 0.03879,-0.02874 0.0584,-0.04289 0.167717,-0.121097 0.327843,-0.251282 0.480591,-0.388607 0.105381,-0.09473 0.208067,-0.191681 0.305924,-0.293522 0.06418,-0.06679 0.126757,-0.13497 0.187586,-0.204639 0.02755,-0.03155 0.05377,-0.064 0.08062,-0.09612 0.09147,-0.109435 0.179923,-0.22174 0.263033,-0.337447 0.05387,-0.075 0.10582,-0.150954 0.156063,-0.22841 0.05017,-0.07733 0.09824,-0.155492 0.144694,-0.235127 0.185923,-0.318679 0.341706,-0.655154 0.464571,-1.005107 0.03071,-0.08745 0.05924,-0.175536 0.08578,-0.264583 0.05314,-0.178255 0.09795,-0.359301 0.133842,-0.54312 0.01793,-0.09182 0.03353,-0.183984 0.04703,-0.276985 0.02701,-0.18617 0.04508,-0.37427 0.05374,-0.564307 8.6e-5,-0.0019 -8.5e-5,-0.0038 0,-0.0057 0.0084,-0.187843 0.0077,-0.3774137 -0.0026,-0.5679247 -0.01038,-0.19276 -0.03027,-0.3864773 -0.06046,-0.5808427 -0.01507,-0.097099 -0.03255,-0.194167 -0.05271,-0.2914551 -0.01915,-0.092297 -0.0408,-0.1835689 -0.06408,-0.2738851 -0.0076,-0.029542 -0.01624,-0.058526 -0.02429,-0.08785 -0.01677,-0.061099 -0.03409,-0.1217647 -0.05271,-0.1819011 -0.01014,-0.032748 -0.02084,-0.065212 -0.03152,-0.097668 -0.01843,-0.055994 -0.03735,-0.1118035 -0.05736,-0.1669149 -0.01186,-0.032655 -0.02428,-0.064813 -0.03669,-0.097152 -0.02074,-0.054073 -0.04235,-0.1075395 -0.0646,-0.1607137 -0.01414,-0.033809 -0.02815,-0.067847 -0.04289,-0.1012858 -0.02099,-0.047606 -0.04293,-0.09475 -0.06511,-0.1415934 -0.01661,-0.035059 -0.03286,-0.070279 -0.05013,-0.1049032 -0.02955,-0.059274 -0.06054,-0.1177235 -0.09198,-0.1756999 -0.01017,-0.018755 -0.02012,-0.03771 -0.03049,-0.056327 -0.08906,-0.1599551 -0.184995,-0.3146617 -0.287837,-0.4640543 -0.01129,-0.016396 -0.02318,-0.032312 -0.03462,-0.048576 -0.03924,-0.05576 -0.07933,-0.1106592 -0.120407,-0.1648478 -0.01969,-0.025977 -0.03984,-0.051388 -0.05994,-0.076998 -0.03316,-0.04224 -0.06651,-0.084347 -0.100769,-0.1255737 -0.02391,-0.028765 -0.04843,-0.057002 -0.07286,-0.085266 -0.03864,-0.044701 -0.0779,-0.088862 -0.117822,-0.1322917 -0.01601,-0.017414 -0.03185,-0.034987 -0.04806,-0.052193 -0.04633,-0.049182 -0.09365,-0.097228 -0.141594,-0.144694 -0.01723,-0.017058 -0.03424,-0.034326 -0.05168,-0.05116 -0.042,-0.040551 -0.085,-0.080143 -0.128158,-0.1193725 -0.02533,-0.023027 -0.05024,-0.046681 -0.07596,-0.069246 -0.06401,-0.056153 -0.129,-0.1110867 -0.195337,-0.1643311 -1.06e-4,-8.54e-5 -4.1e-4,8.54e-5 -5.17e-4,0 -0.06871,-0.055141 -0.138715,-0.1087715 -0.209806,-0.1607137 -0.02454,-0.017926 -0.0496,-0.035171 -0.07441,-0.05271 -0.04432,-0.031331 -0.08867,-0.06242 -0.133842,-0.092501 -0.03471,-0.023114 -0.07022,-0.044815 -0.10542,-0.067179 -0.03797,-0.024128 -0.07568,-0.048584 -0.114205,-0.07183 -0.0348,-0.020993 -0.07019,-0.041229 -0.10542,-0.061495 -0.04612,-0.026529 -0.09268,-0.052248 -0.139526,-0.077515 -0.02888,-0.015578 -0.05767,-0.031416 -0.08682,-0.046509 -0.0447,-0.023145 -0.09008,-0.045187 -0.135392,-0.067179 -0.03707,-0.017991 -0.07415,-0.036017 -0.111621,-0.053227 -0.04495,-0.020649 -0.09041,-0.040434 -0.135909,-0.059945 -0.03345,-0.014342 -0.06652,-0.029171 -0.100252,-0.042891 -0.08047,-0.032736 -0.161381,-0.063872 -0.243396,-0.093018 -0.08229,-0.029244 -0.165349,-0.056096 -0.249081,-0.081649 -0.03011,-0.00919 -0.06066,-0.017651 -0.09095,-0.026355 -0.05416,-0.015564 -0.108604,-0.030958 -0.163298,-0.044959 -0.03736,-0.00956 -0.07506,-0.018049 -0.112654,-0.026872 -0.04754,-0.01116 -0.09524,-0.022071 -0.143144,-0.032039 -0.04255,-0.00885 -0.08533,-0.016903 -0.128158,-0.024805 -0.04364,-0.00805 -0.08735,-0.01568 -0.131258,-0.022738 -0.04175,-0.00671 -0.08359,-0.012804 -0.125574,-0.018604 -0.04864,-0.00672 -0.09731,-0.012599 -0.146244,-0.018087 -0.0413,-0.00463 -0.08253,-0.00969 -0.124023,-0.013436 -0.05213,-0.0047 -0.104685,-0.00808 -0.157097,-0.011369 -0.03516,-0.00221 -0.07014,-0.00515 -0.10542,-0.00672 -0.08999,-0.00399 -0.180109,-0.00593 -0.270784,-0.00568 z m 0.205672,3.7351725 h 0.485759 l -0.706934,2.9786298 h -0.479557 z m 2.22002,0 h 0.432015 v 2.2716958 h 0.396875 v 0.661458 h -1.719792 v -0.661458 h 0.409277 V 8.9064331 c -0.07441,0.019293 -0.176389,0.028939 -0.305924,0.028939 -0.04134,0 -0.07579,-0.00207 -0.103353,-0.0062 v -0.636655 c 0.01654,0.00138 0.03376,0.00207 0.05168,0.00207 0.180523,0 0.347955,-0.03514 0.502295,-0.10542 0.157097,-0.071658 0.269407,-0.1564076 0.336931,-0.254248 z" /></g><g
     inkscape:label="DARK"
     inkscape:groupmode="layer"
     id="g94"
     style="display:inline"><path
       style="color:#000000;display:inline;fill:none;stroke:#5b2d07;stroke-width:0.127;stroke-linecap:round;stroke-linejoin:round;stroke-dasharray:none;stroke-opacity:1;paint-order:markers stroke fill"
       d="M 17.540727,5.506838 C 17.419168,5.483828 17.29508,5.466625 17.169201,5.456019 15.154997,5.2861541 13.387244,6.811995 13.220899,8.8636286 c -0.125261,1.5892884 0.756023,3.0836034 2.192252,3.7176904 -1.548952,1.096036 -2.169761,0.816486 -2.698264,0.511916 -0.551863,-0.318026 -0.87855,-0.893596 -0.87855,-0.893596 -0.376681,-0.745142 -1.275108,-1.038205 -2.0065154,-0.654199 -0.7313719,0.383889 -1.0184141,1.299109 -0.6412907,2.043955 0,0 0.6328542,1.322513 2.0594131,2.144636 0.967298,0.557437 2.405144,0.510825 3.936526,0.04355 0.01797,0.364093 0.03709,0.670423 0.05348,1.063108 0.03771,0.90393 0.04364,1.205079 0.06419,1.819623 -0.452576,0.03372 -0.499802,-0.09833 -1.052004,0.100972 -1.496173,0.539966 -3.169547,2.122534 -3.559783,4.867012 -0.118388,0.829189 0.445729,1.599045 1.259824,1.719577 0.814989,0.120303 1.570994,-0.456126 1.687822,-1.286433 0.262613,-1.847065 0.92862,-2.19472 1.607175,-2.439617 0.678578,-0.244932 1.33607,-0.147342 1.33607,-0.147342 0.444772,0.07981 0.9008,-0.05015 1.240406,-0.353384 0.08277,0.539232 0.257572,1.296794 0.639732,2.054813 0.350197,0.694599 0.935284,1.465014 1.889708,1.862875 0.954444,0.397811 2.124858,0.302018 3.265785,-0.223363 0.748895,-0.345598 1.080905,-1.243889 0.742162,-2.006927 -0.338616,-0.763421 -1.220271,-1.103141 -1.969869,-0.758469 -0.636186,0.292966 -0.823776,0.216836 -0.908975,0.181322 -0.08517,-0.03555 -0.221796,-0.148771 -0.369197,-0.441176 -0.294837,-0.584794 -0.388132,-1.55663 -0.388132,-1.55663 -7.21e-4,-0.01103 -0.0012,-0.02188 -0.0019,-0.03283 0,0 -0.112497,-1.690696 -0.215213,-3.377931 -0.03543,-0.581568 -0.0614,-1.083497 -0.08906,-1.592727 0.28474,0.05985 0.815342,0.04909 0.975098,0.126688 0.401074,0.194718 0.493036,0.355253 0.574144,0.547252 0.162217,0.383971 0.05059,0.96418 0.05059,0.96418 -0.242726,0.800572 0.197836,1.650104 0.983832,1.897272 0.785968,0.247238 1.620043,-0.201492 1.862687,-1.002095 0,0 0.509991,-1.47106 -0.160877,-3.059135 -0.335453,-0.794033 -1.025922,-1.599642 -2.027841,-2.086134 -0.906469,-0.440138 -2.030467,-0.648196 -3.437278,-0.620112 0.735121,-0.635729 1.194043,-1.541348 1.277148,-2.5199657 0.156205,-1.9231687 -1.150118,-3.6259844 -2.973518,-3.9711971 z m 0.268245,3.0644791 a 0.52169768,0.53138291 0 0 1 0.434879,0.5367082 0.52169768,0.53138291 0 0 1 -0.533501,0.51857 0.52169768,0.53138291 0 0 1 -0.509616,-0.5435044 0.52169768,0.53138291 0 0 1 0.534095,-0.5189767 0.52169768,0.53138291 0 0 1 0.07413,0.00727 z m -3.143883,-0.07398 a 0.52169768,0.53138291 0 0 1 0.435467,0.5362973 0.52169768,0.53138291 0 0 1 -0.533496,0.5185719 0.52169768,0.53138291 0 0 1 -0.50962,-0.5435027 0.52169768,0.53138291 0 0 1 0.533504,-0.5185694 0.52169768,0.53138291 0 0 1 0.07416,0.00715 z m 3.102405,1.6181139 a 0.22344285,0.22759103 0 0 1 0.150261,0.21883 c -0.0085,0.370401 -0.25597,0.677321 -0.588116,0.873044 -0.332178,0.195719 -0.763894,0.301776 -1.234727,0.290669 -0.470961,-0.01103 -0.897236,-0.137758 -1.220252,-0.348949 -0.323031,-0.211213 -0.556144,-0.528901 -0.547698,-0.899396 a 0.22344285,0.22759103 0 0 1 0.227208,-0.221254 l 3.144284,0.07459 a 0.22344285,0.22759103 0 0 1 0.06905,0.01252 z m -0.836866,3.536447 a 0.52169768,0.53138291 0 0 1 0.424289,0.467666 0.52169768,0.53138291 0 0 1 -0.465074,0.58325 0.52169768,0.53138291 0 0 1 -0.572619,-0.473711 0.52169768,0.53138291 0 0 1 0.46458,-0.583346 0.52169768,0.53138291 0 0 1 0.148812,0.0063 z m -4.892982,-0.766691 a 0.14896187,0.15172733 0 0 1 0.04768,0.02769 l 0.256102,0.21864 c 0.171507,0.146526 0.171464,0.387492 0.08108,0.571499 -0.04518,0.092 -0.121127,0.177581 -0.227703,0.221159 -0.106607,0.04357 -0.238479,0.03713 -0.365849,-0.01834 -0.26015,-0.113261 -0.424694,-0.128279 -0.510949,-0.112146 -0.08623,0.01603 -0.107351,0.04452 -0.130633,0.101529 -0.04654,0.114085 -0.0076,0.333868 -0.0076,0.333868 a 0.14896187,0.15172733 0 0 1 0.0022,0.0046 c 0,0 0.05201,0.216905 0.03364,0.425657 -0.0092,0.104365 -0.03056,0.232477 -0.151293,0.308849 -0.06035,0.03818 -0.139136,0.04814 -0.208968,0.03492 -0.06512,-0.01227 -0.128175,-0.0442 -0.195312,-0.08635 0,0 -0.0024,-0.0025 -0.0024,-0.0025 -0.003,-0.0017 -0.465103,-0.274963 -0.7473594,-0.698906 -0.00286,-0.0017 -0.00405,-6.84e-4 -0.00667,-0.0023 l 0.00262,-0.0027 c -0.021064,-0.03206 -0.037595,-0.01817 -0.056361,-0.05241 a 0.14896187,0.15172733 0 0 1 0.2088344,-0.205481 c 0.189195,0.118485 0.303019,0.137284 0.338276,0.131668 0.03525,-0.0056 0.03468,-0.0099 0.04961,-0.06144 0.02991,-0.102632 -0.0064,-0.322477 -0.0064,-0.322477 a 0.14896187,0.15172733 0 0 1 -0.0042,-0.01652 c 0,0 -0.0369,-0.200294 0.07281,-0.385442 0.05484,-0.09257 0.166156,-0.179064 0.304668,-0.193522 0.138516,-0.01447 0.294476,0.02752 0.492087,0.130442 0.165346,0.08603 0.275245,0.100826 0.339068,0.09211 0.06385,-0.0088 0.09342,-0.03506 0.123293,-0.07628 0.05973,-0.08249 0.07169,-0.227143 0.07169,-0.227143 a 0.14896187,0.15172733 0 0 1 0.08983,-0.135679 0.14896187,0.15172733 0 0 1 0.107892,-0.0028 z m 12.315673,2.816943 c 0.143922,0.02727 0.303867,0.116824 0.453754,0.30079 a 0.13045657,0.13287848 0 0 1 0.0041,0.0045 c 0.09467,0.130083 0.08129,0.280405 0.05918,0.426468 -0.02203,0.146081 -0.05135,0.282044 -0.160255,0.38087 a 0.13045657,0.13287848 0 0 1 -0.215592,-0.07934 c -0.03108,-0.205497 -0.112267,-0.321962 -0.182339,-0.345446 -0.035,-0.012 -0.07905,-0.01188 -0.154135,0.02474 -0.07505,0.03646 -0.175687,0.111273 -0.289409,0.237841 -0.09677,0.107698 -0.20195,0.170226 -0.306995,0.186787 -0.105032,0.01656 -0.199713,-0.01379 -0.270948,-0.05572 -0.106849,-0.06281 -0.174445,-0.153338 -0.201528,-0.194867 l -4.01e-4,-6.01e-4 c -0.0063,-0.0062 -0.124193,-0.124148 -0.239132,-0.169812 -0.05894,-0.02346 -0.103904,-0.0272 -0.141926,-0.01006 -0.03801,0.01723 -0.0881,0.0631 -0.134785,0.199599 a 0.13045657,0.13287848 0 0 1 -0.239067,0.0175 c 0,0 0.0027,-0.08732 -0.0042,-0.104935 l -0.0044,6e-5 c 0.0011,-0.0033 0.0038,-0.0038 0.0048,-0.007 -0.02974,-0.07546 -0.101468,-0.19828 -0.01311,-0.425303 a 0.13045657,0.13287848 0 0 1 0.0075,-0.01369 c 0,0 0.08668,-0.177515 0.251772,-0.29963 0.08256,-0.06105 0.194091,-0.111709 0.320986,-0.09771 0.126885,0.0141 0.251481,0.0921 0.36334,0.232856 0.09983,0.125588 0.183425,0.175615 0.243057,0.192543 0.05963,0.01686 0.102898,0.0058 0.149243,-0.01785 0.0927,-0.04729 0.164168,-0.1567 0.164168,-0.1567 a 0.13045657,0.13287848 0 0 1 0.0093,-0.01647 c 0,0 0.106499,-0.140436 0.29118,-0.198257 0.06927,-0.02166 0.149985,-0.0276 0.236342,-0.01127 z m -7.250084,-0.353256 a 0.52169768,0.53138291 0 0 1 0.424291,0.467666 0.52169768,0.53138291 0 0 1 -0.465077,0.583248 0.52169768,0.53138291 0 0 1 -0.572614,-0.473708 0.52169768,0.53138291 0 0 1 0.465073,-0.58325 0.52169768,0.53138291 0 0 1 0.148335,0.0059 z m 0.172609,1.696992 a 0.52169768,0.53138291 0 0 1 0.424784,0.467765 0.52169768,0.53138291 0 0 1 -0.465078,0.583249 0.52169768,0.53138291 0 0 1 -0.573113,-0.473802 0.52169768,0.53138291 0 0 1 0.465079,-0.583253 0.52169768,0.53138291 0 0 1 0.148328,0.0059 z m 5.150543,5.310188 a 0.22344285,0.22759103 0 0 1 0.171336,0.09633 c 0.74643,1.088402 0.336048,2.343748 0.336048,2.343748 a 0.22344285,0.22759103 0 0 1 -0.17063,0.152816 l -0.510787,0.101856 a 0.22344285,0.22759103 0 0 1 -0.223674,-0.35773 c 0,-10e-7 0.125796,-0.17261 0.174015,-0.49746 0.04832,-0.324815 0.01406,-0.781478 -0.374946,-1.34635 l 0.0027,5.54e-4 c -3.23e-4,-4.63e-4 -0.03675,-0.08466 -0.03684,-0.08517 -1.08e-4,-5.04e-4 -5.67e-4,-0.0927 -5.33e-4,-0.09323 1.04e-4,-5.37e-4 0.02157,-0.06683 0.02195,-0.06738 2.93e-4,-5.65e-4 0.01802,-0.02869 0.02632,-0.0388 0.03318,-0.04013 0.0539,-0.04753 0.06981,-0.05694 0.0318,-0.01899 0.05245,-0.02864 0.07649,-0.03781 0.04807,-0.01844 0.100535,-0.0338 0.154756,-0.0497 0.108473,-0.03185 0.216909,-0.05797 0.216909,-0.05797 a 0.22344285,0.22759103 0 0 1 0.06704,-0.0068 z M 11.44646,22.265524 a 0.22344285,0.22759103 0 0 1 0.152878,0.101625 c 0,0 0.108449,0.177176 0.383985,0.338392 0.275483,0.161177 0.702644,0.29558 1.364668,0.141835 5.33e-4,-2.3e-4 0.09813,-10e-5 0.09862,-6.8e-5 4.56e-4,1.08e-4 0.09502,0.04663 0.09542,0.0469 3.89e-4,3.22e-4 0.05069,0.05861 0.05099,0.05917 3.14e-4,5.37e-4 0.01762,0.03448 0.02191,0.04717 0.01722,0.05092 0.01445,0.06893 0.01437,0.08705 -7.7e-5,0.03625 -0.005,0.05944 -0.009,0.08612 -0.0082,0.05333 -0.02034,0.111673 -0.03402,0.171735 -0.02717,0.120181 -0.05801,0.239233 -0.05801,0.239233 a 0.22344285,0.22759103 0 0 1 -0.166092,0.164158 c -1.271517,0.292585 -2.257877,-0.569561 -2.257877,-0.569561 a 0.22344285,0.22759103 0 0 1 -0.0678,-0.241872 l 0.162736,-0.519019 a 0.22344285,0.22759103 0 0 1 0.184761,-0.154233 0.22344285,0.22759103 0 0 1 0.06245,0.0012 z"
       id="path95"
       inkscape:label="ginger outline" /><path
       style="color:#000000;-inkscape-font-specification:'Rockwell Condensed, Condensed';display:inline;fill:#5b2d07;stroke-linecap:round;stroke-linejoin:round;-inkscape-stroke:none;paint-order:markers stroke fill"
       d="m 27.842973,24.662755 -0.07648,0.706933 h 0.198437 v 0.376204 h -0.833023 v -0.376204 h 0.194303 l 0.34313,-2.362645 h -0.217041 v -0.376204 h 1.153417 v 0.376204 h -0.21704 l 0.343131,2.362645 h 0.194303 v 0.376204 h -0.833023 v -0.376204 h 0.198437 l -0.07648,-0.706933 z m 0.02894,-0.378272 h 0.314192 l -0.132291,-1.386994 h -0.04961 z m 2.095994,0.04754 v 1.037662 h 0.23151 v 0.376204 h -0.934309 v -0.376204 h 0.262516 v -2.362642 h -0.262516 v -0.376204 h 0.77928 q 0.394807,0 0.62425,0.23151 0.229444,0.23151 0.229444,0.613916 0,0.494026 -0.37207,0.733804 l 0.338997,1.159619 h 0.186035 v 0.376204 h -0.525033 l -0.384473,-1.426269 q -0.06821,0.0124 -0.173632,0.0124 z m 0,-1.324983 v 0.948779 q 0.250113,0 0.359667,-0.113688 0.109554,-0.115756 0.109554,-0.365869 0,-0.264583 -0.111621,-0.365869 -0.109554,-0.103353 -0.3576,-0.103353 z m 2.978627,-0.376204 v 1.138948 h -0.328662 v -0.810286 h -0.262516 v 2.410187 h 0.245979 v 0.376204 h -0.932242 v -0.376204 h 0.24598 v -2.410187 h -0.262516 v 0.810286 h -0.330729 v -1.138948 z m 0.380337,3.115053 v -0.376204 h 0.237712 V 23.007043 H 33.32687 v -0.376204 h 0.917773 v 0.376204 h -0.239778 v 2.362645 h 0.239778 v 0.376204 z m 1.302245,0 v -0.376204 h 0.225309 v -2.362642 h -0.225309 v -0.376204 h 1.438671 v 0.909504 h -0.376204 v -0.5333 h -0.396875 v 0.944645 h 0.324528 v 0.376204 h -0.324528 v 1.041796 h 0.258382 v 0.376204 z m 2.261359,-1.083137 -0.07648,0.706933 h 0.198438 v 0.376204 h -0.833027 v -0.376201 h 0.194304 l 0.343131,-2.362645 H 36.4998 v -0.376204 h 1.153417 v 0.376204 h -0.217041 l 0.343131,2.362645 h 0.194304 v 0.376204 h -0.833024 v -0.376204 h 0.198438 l -0.07648,-0.706933 z m 0.02894,-0.378272 h 0.314193 l -0.132292,-1.386994 h -0.04961 z m 2.399851,0.3514 0.38654,0.107487 q -0.0041,0.489892 -0.177767,0.773079 -0.173633,0.281119 -0.475423,0.281119 -0.37207,0 -0.551904,-0.388606 -0.179834,-0.390674 -0.179834,-1.18649 0,-1.643309 0.634586,-1.643309 0.223242,0 0.338998,0.202571 h 0.0083 v -0.150895 h 0.376204 v 1.01079 h -0.376204 q 0,-0.316259 -0.07235,-0.483691 -0.07235,-0.167431 -0.206706,-0.167431 -0.09922,0 -0.144694,0.08062 -0.04341,0.08062 -0.05994,0.320393 -0.01654,0.237712 -0.01654,0.775146 0,0.740006 0.04961,0.979785 0.05168,0.239778 0.208772,0.239778 0.134359,0 0.196371,-0.173633 0.06201,-0.173632 0.06201,-0.576708 z m 2.474266,-2.005044 v 1.138948 H 41.46487 v -0.810286 h -0.262516 v 2.410187 h 0.24598 v 0.376204 h -0.932243 v -0.376204 h 0.24598 v -2.410187 h -0.262516 v 0.810286 h -0.330729 v -1.138948 z m 3.055107,2.005044 0.38654,0.107487 q -0.0041,0.489892 -0.177767,0.773079 -0.173633,0.281119 -0.475423,0.281119 -0.37207,0 -0.551904,-0.388606 -0.179833,-0.390674 -0.179833,-1.18649 0,-1.643309 0.634586,-1.643309 0.223242,0 0.338997,0.202571 h 0.0083 v -0.150895 h 0.376204 v 1.01079 H 44.8321 q 0,-0.316259 -0.07235,-0.483691 -0.07235,-0.167431 -0.206706,-0.167431 -0.09922,0 -0.144693,0.08062 -0.04341,0.08062 -0.05995,0.320393 -0.01654,0.237712 -0.01654,0.775146 0,0.740006 0.04961,0.979785 0.05168,0.239778 0.208772,0.239778 0.134359,0 0.196371,-0.173633 0.06201,-0.173632 0.06201,-0.576708 z m 1.527553,-0.303857 v 1.037662 h 0.23151 v 0.376204 H 45.67339 v -0.376204 h 0.262516 V 23.007043 H 45.67339 v -0.376204 h 0.77928 q 0.394807,0 0.62425,0.23151 0.229444,0.23151 0.229444,0.613916 0,0.494026 -0.37207,0.733804 l 0.338997,1.159619 h 0.186035 v 0.376204 h -0.525032 l -0.384473,-1.426269 q -0.06821,0.0124 -0.173632,0.0124 z m 0,-1.324983 v 0.948779 q 0.250113,0 0.359667,-0.113688 0.109554,-0.115756 0.109554,-0.365869 0,-0.264583 -0.111621,-0.365869 -0.109554,-0.103353 -0.3576,-0.103353 z m 1.422134,2.738849 v -0.376204 h 0.229444 v -2.362642 h -0.229444 v -0.376204 h 1.434537 v 0.909504 h -0.376204 v -0.5333 h -0.388607 v 0.944645 h 0.31626 v 0.376204 h -0.31626 v 1.041796 h 0.388607 v -0.580843 h 0.376204 v 0.957047 z m 2.561082,-1.083137 -0.07648,0.706933 h 0.198437 v 0.376204 h -0.833023 v -0.376204 h 0.194303 l 0.343131,-2.362645 h -0.217041 v -0.376204 h 1.153417 v 0.376204 h -0.217041 l 0.343132,2.362645 h 0.194303 v 0.376204 h -0.833024 v -0.376204 h 0.198438 l -0.07648,-0.706933 z m 0.02894,-0.378272 h 0.314192 l -0.132292,-1.386994 h -0.04961 z m 2.916614,-1.653644 v 1.138948 H 52.976296 V 22.959501 H 52.71378 v 2.410187 h 0.245979 v 0.376204 h -0.932242 v -0.376204 h 0.24598 v -2.410187 h -0.262516 v 0.810286 h -0.330729 v -1.138948 z m 0.359668,0.376204 v -0.376204 h 0.841292 v 0.376204 h -0.165364 v 1.998843 q 0,0.225309 0.05788,0.318326 0.05788,0.09095 0.19637,0.09095 0.142627,0 0.198438,-0.09302 0.05581,-0.09302 0.05581,-0.316259 v -1.998837 h -0.16123 v -0.376204 h 0.771012 v 0.376204 H 55.22732 v 1.980239 q 0,0.423747 -0.190169,0.61805 -0.190169,0.192236 -0.471288,0.192236 -0.307992,0 -0.485758,-0.186035 -0.177767,-0.186035 -0.177767,-0.479557 v -2.124933 z m 2.836,1.324983 v 1.037662 h 0.23151 v 0.376204 h -0.934309 v -0.376204 h 0.262516 v -2.362642 h -0.262516 v -0.376204 h 0.77928 q 0.394808,0 0.624251,0.23151 0.229443,0.23151 0.229443,0.613916 0,0.494026 -0.37207,0.733804 l 0.338997,1.159619 h 0.186035 v 0.376204 h -0.525036 l -0.384472,-1.426269 q -0.06821,0.0124 -0.173633,0.0124 z m 0,-1.324983 v 0.948779 q 0.250114,0 0.359668,-0.113688 0.109554,-0.115756 0.109554,-0.365869 0,-0.264583 -0.111621,-0.365869 Q 56.748677,23.00704 56.50063,23.00704 Z m 1.422135,2.738849 v -0.376204 h 0.229443 v -2.362642 h -0.229443 v -0.376204 h 1.434536 v 0.909504 h -0.376204 v -0.5333 h -0.388606 v 0.944645 h 0.316259 v 0.376204 h -0.316259 v 1.041796 h 0.388606 v -0.580843 h 0.376204 v 0.957047 z"
       id="path86"
       inkscape:label="artifact creature" /><g
       id="g91"
       style="font-weight:bold;font-size:6.35px;font-family:Rockwell;-inkscape-font-specification:'Rockwell, Bold';text-align:end;letter-spacing:0.264583px;word-spacing:0px;text-orientation:upright;text-anchor:end;fill:#fd933a;stroke:#622c00;stroke-width:0.254;stroke-linecap:round;stroke-linejoin:round;paint-order:markers stroke fill"
       inkscape:label="FOOD GOLEM"
       transform="translate(-1.5458464,-0.19843695)"
       aria-label="FOOD&#10;GOLEM"><path
         style="color:#000000;font-weight:bold;font-size:6.35px;font-family:Rockwell;-inkscape-font-specification:'Rockwell, Bold';text-align:end;letter-spacing:0.264583px;word-spacing:0px;text-orientation:upright;text-anchor:end;display:inline;fill:#5b2d07;stroke:none;stroke-width:0.254;stroke-linecap:butt;stroke-linejoin:miter;-inkscape-stroke:none;paint-order:markers stroke fill"
         d="m 31.480969,15.76191 v -0.728638 h 2.021582 q 0,0.784448 -0.285254,1.243335 -0.282153,0.458887 -0.824756,0.722437 -0.539502,0.263549 -1.212329,0.263549 -1.168921,0 -1.795239,-0.626318 -0.623218,-0.626318 -0.623218,-1.5906 0,-0.669727 0.310059,-1.181324 0.310058,-0.514697 0.834057,-0.775146 0.523999,-0.260449 1.137915,-0.260449 0.868164,0 1.351856,0.421679 v -0.353466 h 0.731738 v 1.531689 H 32.395642 Q 32.28092,14.041085 31.939856,13.817843 31.598791,13.5946 31.208117,13.5946 q -0.514697,0 -0.877466,0.365869 -0.362768,0.362769 -0.362768,1.007691 0,0.737939 0.36897,1.125513 0.368969,0.384472 0.89917,0.384472 0.390673,0 0.648022,-0.189136 0.257349,-0.189135 0.356567,-0.527099 z m 5.290632,-2.933154 q 1.116211,0 1.754932,0.644921 0.641821,0.644922 0.641821,1.571998 0,0.930175 -0.641821,1.575097 -0.641821,0.641821 -1.754932,0.641821 -1.156518,0 -1.776635,-0.660424 -0.620117,-0.663526 -0.620117,-1.556494 0,-0.923975 0.63562,-1.568897 0.63872,-0.648022 1.761132,-0.648022 z m 0,0.787548 q -0.496093,0 -0.843359,0.372071 -0.344165,0.37207 -0.344165,1.091406 0,0.63562 0.341064,1.016992 0.341065,0.381372 0.84646,0.381372 0.496094,0 0.84336,-0.37207 0.347265,-0.375171 0.347265,-1.079004 0,-0.629419 -0.331762,-1.020093 -0.331763,-0.390674 -0.858863,-0.390674 z m 3.154329,3.593579 v -0.728637 h 0.617017 v -2.85564 H 39.92593 v -0.728637 h 2.368848 v 0.728637 h -0.629419 v 2.85564 H 42.9397 v -1.333252 h 0.840259 v 2.061889 z m 4.400765,0 v -0.728637 h 0.517798 v -2.85564 h -0.517798 v -0.728637 h 3.801318 v 1.367358 h -0.824755 v -0.638721 h -1.336353 v 0.995288 h 1.079004 v 0.728638 h -1.079004 v 1.131714 h 1.336353 v -0.644922 h 0.824755 v 1.373559 z m 4.462777,0 v -0.728637 h 0.558105 v -2.85564 h -0.558105 v -0.728637 h 2.161108 l 0.948779,2.530078 0.95188,-2.530078 h 2.204517 v 0.728637 H 54.49765 v 2.85564 h 0.558106 v 0.728637 h -2.17041 v -0.728637 h 0.520898 v -2.85564 h -0.102319 l -1.336353,3.584277 H 51.502484 L 50.150629,13.625606 H 50.04831 v 2.85564 h 0.564306 v 0.728637 z"
         id="path90"
         inkscape:label="GOLEM" /><path
         style="color:#000000;font-weight:bold;font-size:6.35px;font-family:Rockwell;-inkscape-font-specification:'Rockwell, Bold';text-align:end;letter-spacing:0.264583px;word-spacing:0px;text-orientation:upright;text-anchor:end;display:inline;fill:#5b2d07;stroke:none;stroke-width:0.254;stroke-linecap:butt;stroke-linejoin:miter;-inkscape-stroke:none;paint-order:markers stroke fill"
         d="m 28.616027,11.494884 v -0.728638 h 0.617017 V 7.9106062 H 28.616027 V 7.1819686 h 3.86023 V 8.5121199 H 31.651501 V 7.9106062 h -1.296045 v 0.9983887 h 0.933276 v 0.7286377 h -0.933276 v 1.1286134 h 0.663526 v 0.728638 z m 6.896737,-4.3811283 q 1.116211,0 1.754931,0.6449218 0.641822,0.6449219 0.641822,1.5719971 0,0.9301754 -0.641822,1.5750974 -0.641821,0.641821 -1.754931,0.641821 -1.156519,0 -1.776636,-0.660424 -0.620117,-0.663526 -0.620117,-1.5564944 0,-0.9239746 0.63562,-1.5688965 0.638721,-0.6480224 1.761133,-0.6480224 z m 0,0.7875488 q -0.496094,0 -0.84336,0.3720703 -0.344165,0.3720703 -0.344165,1.0914062 0,0.63562 0.341065,1.016992 0.341064,0.381372 0.84646,0.381372 0.496093,0 0.843359,-0.37207 0.347266,-0.375171 0.347266,-1.0790039 0,-0.629419 -0.331763,-1.0200928 -0.331763,-0.3906738 -0.858862,-0.3906738 z m 5.687507,-0.7875488 q 1.116211,0 1.754932,0.6449218 0.641821,0.6449219 0.641821,1.5719971 0,0.9301754 -0.641821,1.5750974 -0.641821,0.641821 -1.754932,0.641821 -1.156518,0 -1.776635,-0.660424 -0.620118,-0.663526 -0.620118,-1.5564944 0,-0.9239746 0.635621,-1.5688965 0.63872,-0.6480224 1.761132,-0.6480224 z m 0,0.7875488 q -0.496093,0 -0.843359,0.3720703 -0.344165,0.3720703 -0.344165,1.0914062 0,0.63562 0.341064,1.016992 0.341065,0.381372 0.84646,0.381372 0.496094,0 0.84336,-0.37207 0.347265,-0.375171 0.347265,-1.0790039 0,-0.629419 -0.331762,-1.0200928 -0.331763,-0.3906738 -0.858863,-0.3906738 z m 3.126424,3.5935795 v -0.728638 h 0.654224 V 7.9106062 H 44.326695 V 7.1819686 h 2.043286 q 0.644922,0 1.038696,0.080615 0.393775,0.077515 0.753443,0.3503662 0.359668,0.269751 0.576709,0.7255371 0.217041,0.4557861 0.217041,1.010791 0,0.449585 -0.151929,0.8588621 -0.151929,0.406177 -0.378271,0.657325 -0.223243,0.248046 -0.536402,0.396875 -0.313159,0.145727 -0.576709,0.189135 -0.260449,0.04341 -0.809253,0.04341 z m 1.773535,-0.728638 h 0.269751 q 0.489893,0 0.775147,-0.127124 0.288354,-0.127124 0.461987,-0.446485 0.173633,-0.3224605 0.173633,-0.8402583 0,-0.4929932 -0.176734,-0.8371582 Q 47.430382,8.1710555 47.129625,8.0408309 46.831968,7.9106062 46.369981,7.9106062 H 46.10023 Z"
         id="path88"
         inkscape:label="FOOD" /></g><path
       id="path92"
       style="display:inline;fill:#5b2d07;stroke-width:1.09465;stroke-linecap:round;stroke-linejoin:round;paint-order:markers stroke fill"
       d="m 53.756409,5.2208711 a 0.93731049,0.93731049 0 0 0 -0.132825,0.018038 0.93731049,0.93731049 0 0 0 -0.727088,1.1079417 0.93731049,0.93731049 0 0 0 1.107942,0.7276053 0.93731049,0.93731049 0 0 0 0.727605,-1.1084608 0.93731049,0.93731049 0 0 0 -0.975651,-0.7451734 z m 3.571358,1.1616868 a 0.46184269,0.44345871 78.284153 0 0 -0.06254,0.00822 0.46184269,0.44345871 78.284153 0 0 -0.340548,0.5420849 0.46184269,0.44345871 78.284153 0 0 0.528134,0.3622524 0.46184269,0.44345871 78.284153 0 0 0.340548,-0.5420866 0.46184269,0.44345871 78.284153 0 0 -0.465606,-0.3705187 z m -6.641453,1.2397258 a 0.46184269,0.44345871 78.284153 0 0 -0.06254,0.00769 0.46184269,0.44345871 78.284153 0 0 -0.340548,0.5426025 0.46184269,0.44345871 78.284153 0 0 0.527617,0.3622523 A 0.46184269,0.44345871 78.284153 0 0 51.15139,7.992226 0.46184269,0.44345871 78.284153 0 0 50.686303,7.6222231 Z m 8.672338,1.8743036 a 0.46184269,0.44345871 78.284153 0 0 -0.06254,0.0082 0.46184269,0.44345871 78.284153 0 0 -0.340548,0.5420857 0.46184269,0.44345871 78.284153 0 0 0.528132,0.362251 0.46184269,0.44345871 78.284153 0 0 0.340548,-0.5420847 0.46184269,0.44345871 78.284153 0 0 -0.465605,-0.37052 z m -1.907376,2.2257037 a 0.93731049,0.93731049 0 0 0 -0.132283,0.0181 0.93731049,0.93731049 0 0 0 -0.727605,1.107943 0.93731049,0.93731049 0 0 0 1.107943,0.727605 0.93731049,0.93731049 0 0 0 0.727603,-1.10846 0.93731049,0.93731049 0 0 0 -0.975649,-0.745174 z"
       inkscape:label="chips" /><path
       id="path94"
       style="display:inline;fill:none;stroke:#5b2d07;stroke-width:0.127;stroke-linecap:round;stroke-linejoin:round;stroke-dasharray:none;stroke-opacity:1;paint-order:markers stroke fill"
       d="m 49.123186,10.455954 c -0.228445,-2.9110793 1.74196,-5.5384266 4.60053,-6.134368 3.137769,-0.6508951 6.209109,1.3650448 6.860123,4.5027895 0.645004,3.1132245 -1.335404,6.1657545 -4.44122,6.8455375 0.06562,-0.273807 0.07398,-0.564774 0.01332,-0.857052 -0.112048,-0.540456 -0.462419,-0.728647 -0.896298,-1.008288 0.06591,-0.326259 0.04596,-0.95095 -0.02559,-1.295513 -0.635707,-1.11661 -1.273498,-1.601978 -2.69412,-1.80818 -0.296666,0.06156 -0.96655,0.281011 -1.211317,0.432301 -0.4598,-0.483154 -1.035272,-0.984503 -1.731624,-0.840094 -0.167622,0.03477 -0.326635,0.09015 -0.473886,0.162866 z"
       sodipodi:nodetypes="cccccccccscc"
       inkscape:label="cookie outline" /></g></svg>
