<?xml version="1.0" encoding="UTF-8" standalone="no"?>
<!-- Created with Inkscape (http://www.inkscape.org/) -->

<svg
   width="7.75in"
   height="1in"
   viewBox="0 0 196.84999 25.4"
   version="1.1"
   id="svg1"
   inkscape:version="1.3.1 (91b66b0783, 2023-11-16)"
   sodipodi:docname="seedling-stick-template.svg"
   xml:space="preserve"
   xmlns:inkscape="http://www.inkscape.org/namespaces/inkscape"
   xmlns:sodipodi="http://sodipodi.sourceforge.net/DTD/sodipodi-0.dtd"
   xmlns="http://www.w3.org/2000/svg"
   xmlns:svg="http://www.w3.org/2000/svg"><sodipodi:namedview
     id="namedview1"
     pagecolor="#ffffff"
     bordercolor="#000000"
     borderopacity="0.25"
     inkscape:showpageshadow="2"
     inkscape:pageopacity="0.0"
     inkscape:pagecheckerboard="0"
     inkscape:deskcolor="#d1d1d1"
     inkscape:document-units="in"
     inkscape:zoom="0.6877385"
     inkscape:cx="371.50749"
     inkscape:cy="-190.47938"
     inkscape:window-width="1620"
     inkscape:window-height="1010"
     inkscape:window-x="-6"
     inkscape:window-y="-6"
     inkscape:window-maximized="1"
     inkscape:current-layer="g1" /><defs
     id="defs1" /><g
     inkscape:label="Layer 1"
     inkscape:groupmode="layer"
     id="layer1"><g
       id="g1"
       inkscape:label="template"><path
         id="rect1"
         style="fill:#fcfc80;stroke-width:10;stroke-linecap:round;stroke-linejoin:round;paint-order:fill markers stroke"
         d="m 6.3499998,3.1750001 c -1.7589482,0 -3.1749999,1.4160517 -3.1749999,3.1749999 v 12.7 c 0,1.758948 1.4160517,3.174999 3.1749999,3.174999 H 159.94527 v -5.16e-4 C 166.87451,22.283763 193.675,14.906104 193.675,12.7 c 0,-2.206106 -26.80049,-9.5837638 -33.72973,-9.5244831 v -5.168e-4 z"
         inkscape:label="cut" /><path
         style="fill:#440800;stroke-width:0.178109"
         d="m 27.131186,13.689703 c -0.380197,2.570306 -2.125135,4.730154 -4.45466,5.513882 -1.206009,0.405741 -2.595227,0.431138 -3.840658,0.07021 -0.423382,-0.122697 -1.277564,-0.502276 -1.522051,-0.676367 -0.07105,-0.05059 -0.230538,-0.107184 -0.354417,-0.125761 -0.219346,-0.03289 -0.224586,-0.03085 -0.200407,0.07795 0.0508,0.228622 0.121202,0.85664 0.121202,1.081194 0,0.629018 -0.319828,-0.0999 -0.414101,-0.943769 l -0.03358,-0.300601 -0.322414,-0.08992 c -0.177328,-0.04946 -0.328374,-0.08303 -0.335659,-0.0746 -0.0073,0.0084 -0.04804,0.44666 -0.09055,0.973863 -0.07297,0.904705 -0.124173,1.172568 -0.213579,1.117312 -0.101748,-0.06288 -0.09066,-1.120991 0.02101,-2.005174 l 0.02678,-0.212062 -0.224528,-0.09425 c -0.123492,-0.05184 -0.241012,-0.101279 -0.261155,-0.109859 -0.05908,-0.02518 -0.130352,0.20509 -0.303866,0.981667 -0.08976,0.401737 -0.185679,0.751637 -0.213152,0.777556 -0.08584,0.08098 -0.0065,-0.898078 0.115344,-1.423315 l 0.111516,-0.480822 -0.356559,-0.232994 c -0.474468,-0.310045 -1.014658,-0.777557 -1.275487,-1.103884 -0.210907,-0.263869 -0.21347,-0.265321 -0.471246,-0.266819 -0.317807,-0.0018 -0.354825,0.02108 -0.396087,0.245459 -0.0525,0.285453 -0.267302,0.489845 -0.584133,0.555811 -0.406934,0.08473 -1.7687593,0.0296 -2.2516503,-0.09115 -0.9494898,-0.237433 -1.3273524,-0.609287 -1.06825,-1.051275 0.2501491,-0.426714 1.7446523,-1.064065 2.7042393,-1.153256 0.491288,-0.04566 0.624513,-0.0034 0.769565,0.244105 0.118235,0.20175 0.216527,0.252342 0.33894,0.174448 0.03935,-0.02504 0.02221,-0.113483 -0.06151,-0.317369 -0.339625,-0.827078 -0.469237,-1.971666 -0.327711,-2.893978 0.06208,-0.404546 0.258142,-1.082272 0.427217,-1.47674 0.0298,-0.06953 0.0096,-0.08248 -0.128914,-0.08248 -0.137181,0 -0.173683,0.02274 -0.221409,0.137968 -0.107508,0.259541 -0.209725,0.310462 -0.607341,0.302553 C 10.80268,10.728698 10.181911,10.583388 9.5994409,10.355088 9.0336637,10.13333 8.6997341,9.9406297 8.4510505,9.6923877 8.2589661,9.5006427 8.246881,9.4737137 8.2709116,9.2909537 8.3223769,8.8995373 8.8145138,8.623576 9.7643768,8.4535068 c 0.4757322,-0.08518 1.7968092,-0.078664 2.0481982,0.010092 0.217751,0.076884 0.390061,0.3027901 0.432263,0.5667099 l 0.02852,0.178344 0.287752,0.01388 0.287752,0.01387 0.519461,-0.5229429 c 0.317123,-0.3192493 0.680076,-0.6284017 0.931802,-0.7936832 0.226788,-0.1489062 0.411903,-0.2952903 0.411368,-0.3253 -5.35e-4,-0.030008 -0.05333,-0.309033 -0.117312,-0.6200558 -0.115704,-0.5623999 -0.160459,-1.3112783 -0.07308,-1.2228849 0.02434,0.024625 0.117696,0.3734639 0.207457,0.7752014 0.08976,0.4017368 0.185719,0.7881264 0.213239,0.8586414 l 0.05004,0.128208 0.249097,-0.1166183 c 0.230046,-0.1076975 0.24844,-0.1283171 0.240514,-0.2695818 -0.0047,-0.084132 -0.03101,-0.4749722 -0.05843,-0.8685376 -0.04832,-0.6937713 -0.03085,-1.1234967 0.04766,-1.1720206 0.08902,-0.055014 0.140328,0.2139445 0.213209,1.1175423 0.04252,0.5272027 0.08178,0.9639469 0.08724,0.9705422 0.0055,0.00659 0.07168,-0.00826 0.147159,-0.033037 0.07548,-0.024769 0.227361,-0.068093 0.337514,-0.096278 0.185918,-0.04757 0.20028,-0.062645 0.20028,-0.2102185 0,-0.4241075 0.252058,-1.2982572 0.374347,-1.2982572 0.08154,0 0.03857,0.813352 -0.06887,1.3031926 -0.02071,0.094457 -0.0084,0.099677 0.177781,0.075078 0.110028,-0.014534 0.275655,-0.073921 0.368066,-0.1319588 1.524674,-0.9575529 3.529195,-1.1980373 5.288535,-0.6344702 0.939681,0.3010074 1.823492,0.8508685 2.577151,1.6033714 0.966883,0.9654038 1.593721,2.1370675 1.888733,3.5303628 0.126775,0.598732 0.161026,1.787301 0.06936,2.406987 z m -0.777548,-2.16128 C 26.111717,10.543054 25.730866,9.8657277 25.009196,9.1373847 24.231825,8.3528252 23.514007,7.9554213 22.488028,7.7415985 c -0.643039,-0.1340145 -1.635104,-0.099266 -2.23842,0.078405 -2.274042,0.6696842 -3.753781,2.7590195 -3.637939,5.1366285 0.176635,3.625378 3.918564,5.889599 7.096039,4.293775 1.470447,-0.738503 2.475481,-2.141189 2.736976,-3.819887 0.06882,-0.441776 0.0207,-1.446929 -0.09104,-1.902097 z m -6.257185,5.034849 c -0.136337,-0.0017 -0.454299,-0.165118 -0.64204,-0.329957 -0.189449,-0.166339 -0.327917,-0.401296 -0.380743,-0.646059 -0.07136,-0.330663 0.22509,-0.945309 0.551756,-1.143967 0.21416,-0.130238 0.250584,-0.06131 0.159406,0.301669 -0.15136,0.60257 -0.08846,0.970034 0.250336,1.462457 0.16202,0.235488 0.183012,0.357385 0.06128,0.355857 z m -0.08302,-7.3268473 c -0.304307,0.451562 -0.383732,0.9296543 -0.235578,1.4180323 0.133596,0.440386 0.05766,0.511513 -0.249677,0.233854 -0.2077,-0.187646 -0.407937,-0.537357 -0.453002,-0.791162 -0.0683,-0.3846733 0.181356,-0.8329333 0.596485,-1.0710053 0.255628,-0.1465988 0.509879,-0.1891061 0.503911,-0.084249 -0.0018,0.032402 -0.07481,0.164938 -0.162139,0.29453 z m -0.551388,2.8039173 c -0.206754,0.442012 -0.223741,0.777832 -0.06079,1.201678 0.131761,0.342712 0.19445,0.589057 0.149899,0.589057 -0.183157,0 -0.650104,-0.391893 -0.783574,-0.657625 -0.250248,-0.498239 -0.08328,-1.044615 0.43365,-1.41908 0.195519,-0.141634 0.415372,-0.184322 0.408142,-0.07925 -0.0023,0.0324 -0.06853,0.196745 -0.147331,0.365217 z m -3.895664,3.414586 c -0.275396,-0.606281 -1.052117,-0.703175 -1.450444,-0.180941 -0.184445,0.241821 -0.208057,0.667829 -0.05192,0.936752 0.352982,0.607958 1.284765,0.517525 1.521914,-0.147709 0.08748,-0.245405 0.08309,-0.382144 -0.01955,-0.608102 z m -0.563097,0.560142 c -0.116892,0.105792 -0.317698,0.09823 -0.432191,-0.01626 -0.19342,-0.193419 -0.06338,-0.518371 0.207429,-0.518371 0.09028,0 0.187516,0.03598 0.232951,0.08617 0.103512,0.114384 0.09919,0.351273 -0.0082,0.448451 z m 0.5834,-6.6757333 c -0.202048,-0.5665131 -0.923543,-0.738087 -1.361457,-0.323756 -0.191293,0.180993 -0.266758,0.349888 -0.266758,0.597016 0,0.277743 0.09119,0.4921513 0.275142,0.6469393 0.454311,0.382279 1.084074,0.233114 1.333458,-0.3158373 0.101736,-0.223956 0.1062,-0.361561 0.01961,-0.604362 z m -0.533285,0.467311 c -0.163614,0.2450343 -0.576555,0.118284 -0.576555,-0.176967 0,-0.266807 0.283886,-0.406104 0.507885,-0.24921 0.105552,0.07393 0.144103,0.313205 0.06866,0.426177 z m -0.0362,2.2430573 c -0.194241,-0.654075 -0.516761,-0.231034 -0.513806,0.673945 0.0022,0.669451 0.198265,1.088401 0.397208,0.848688 0.190407,-0.229425 0.254004,-1.059935 0.116592,-1.522633 z"
         id="path1"
         inkscape:label="totoro" /><text
         xml:space="preserve"
         style="font-style:normal;font-variant:normal;font-weight:normal;font-stretch:normal;font-size:7.05556px;line-height:1;font-family:'Hicked Demo';-inkscape-font-specification:'Hicked Demo, Normal';font-variant-ligatures:normal;font-variant-caps:normal;font-variant-numeric:normal;font-variant-east-asian:normal;letter-spacing:0px;word-spacing:0px;text-orientation:upright;fill:#440800;stroke-width:10;stroke-linecap:round;stroke-linejoin:round;paint-order:fill markers stroke"
         x="103.99172"
         y="14.670595"
         id="text1"
         inkscape:label="(paren text)"><tspan
           sodipodi:role="line"
           id="tspan1"
           style="font-style:normal;font-variant:normal;font-weight:normal;font-stretch:normal;font-size:7.05556px;font-family:'Hicked Demo';-inkscape-font-specification:'Hicked Demo, Normal';font-variant-ligatures:normal;font-variant-caps:normal;font-variant-numeric:normal;font-variant-east-asian:normal;stroke-width:10"
           x="103.99172"
           y="14.670595">(PURPLE)</tspan></text><text
         xml:space="preserve"
         style="font-style:normal;font-variant:normal;font-weight:normal;font-stretch:normal;font-size:11.2889px;line-height:1;font-family:'Hicked Demo';-inkscape-font-specification:'Hicked Demo, Normal';font-variant-ligatures:normal;font-variant-caps:normal;font-variant-numeric:normal;font-variant-east-asian:normal;text-align:center;letter-spacing:0px;word-spacing:0px;text-orientation:upright;text-anchor:middle;fill:#fcfc80;fill-opacity:1;stroke-width:10;stroke-linecap:round;stroke-linejoin:round;paint-order:fill markers stroke"
         x="32.808334"
         y="16.651115"
         id="text2"
         inkscape:label="main text"><tspan
           sodipodi:role="line"
           id="tspan2"
           style="font-style:normal;font-variant:normal;font-weight:normal;font-stretch:normal;font-size:11.2889px;line-height:1;font-family:'Hicked Demo';-inkscape-font-specification:'Hicked Demo, Normal';font-variant-ligatures:normal;font-variant-caps:normal;font-variant-numeric:normal;font-variant-east-asian:normal;text-align:start;text-anchor:start;fill:#440800;stroke-width:10"
           x="32.808334"
           y="16.651115">TOMATILLO</tspan></text></g></g></svg>
