<?xml version="1.0" encoding="UTF-8" standalone="no"?>
<!-- Created with Inkscape (http://www.inkscape.org/) -->

<svg
   width="96mm"
   height="96mm"
   viewBox="0 0 96 96"
   version="1.1"
   id="svg1"
   inkscape:version="1.3.1 (91b66b0783, 2023-11-16)"
   sodipodi:docname="line-truchet.svg"
   xmlns:inkscape="http://www.inkscape.org/namespaces/inkscape"
   xmlns:sodipodi="http://sodipodi.sourceforge.net/DTD/sodipodi-0.dtd"
   xmlns="http://www.w3.org/2000/svg"
   xmlns:svg="http://www.w3.org/2000/svg">
  <sodipodi:namedview
     id="namedview1"
     pagecolor="#ffffff"
     bordercolor="#000000"
     borderopacity="0.25"
     inkscape:showpageshadow="2"
     inkscape:pageopacity="0.0"
     inkscape:pagecheckerboard="0"
     inkscape:deskcolor="#d1d1d1"
     inkscape:document-units="mm"
     inkscape:zoom="1"
     inkscape:cx="241.5"
     inkscape:cy="38.5"
     inkscape:current-layer="layer2" />
  <defs
     id="defs1" />
  <g
     inkscape:groupmode="layer"
     id="layer2"
     inkscape:label="BUILD SHAPES"
     style="display:inline">
    <g
       id="g7"
       inkscape:label="double line arcs"
       style="display:none">
      <rect
         style="font-variation-settings:'wdth' 99.8, 'wght' 700;fill:#4d1230;stroke-width:12.7;stroke-linecap:round;stroke-linejoin:round;stroke-dashoffset:134.173;paint-order:markers fill stroke"
         id="rect2"
         width="48"
         height="48"
         x="0"
         y="0" />
      <path
         id="path3"
         style="font-variation-settings:'wdth' 99.8, 'wght' 700;fill:none;stroke:#d6a206;stroke-width:7;stroke-linecap:round;stroke-linejoin:round;stroke-dasharray:none;stroke-dashoffset:134.173;paint-order:markers fill stroke"
         d="M 24.000085,48.000171 C 24.000132,34.74527 13.254901,24.000038 0,24.000085"
         sodipodi:nodetypes="cc"
         inkscape:label="lower arc" />
      <path
         id="circle3"
         style="font-variation-settings:'wdth' 99.8, 'wght' 700;fill:none;stroke:#d6a206;stroke-width:7;stroke-linecap:round;stroke-linejoin:round;stroke-dasharray:none;stroke-dashoffset:134.173;paint-order:markers fill stroke"
         d="m 24.000085,0 c -4.7e-5,13.254901 10.745185,24.000132 24.000086,24.000085"
         sodipodi:nodetypes="cc"
         inkscape:label="upper arc" />
      <path
         style="font-variation-settings:'wdth' 99.8, 'wght' 700;fill:#250657;stroke:#d6a206;stroke-width:7;stroke-linecap:round;stroke-linejoin:round;stroke-dasharray:none;stroke-dashoffset:134.173;paint-order:markers fill stroke"
         d="M 47.999999,47.999999 0,0"
         id="path4"
         inkscape:label="line" />
      <path
         id="path5"
         style="font-variation-settings:'wdth' 99.8, 'wght' 700;fill:none;stroke:#4d1230;stroke-width:2;stroke-linecap:round;stroke-linejoin:round;stroke-dasharray:none;stroke-dashoffset:134.173;paint-order:markers fill stroke"
         d="M 24.000085,48.000171 C 24.000132,34.74527 13.254901,24.000038 0,24.000085"
         sodipodi:nodetypes="cc"
         inkscape:label="lower arc" />
      <path
         id="path6"
         style="font-variation-settings:'wdth' 99.8, 'wght' 700;fill:none;stroke:#4d1230;stroke-width:2;stroke-linecap:round;stroke-linejoin:round;stroke-dasharray:none;stroke-dashoffset:134.173;paint-order:markers fill stroke"
         d="m 24.000085,0 c -4.7e-5,13.254901 10.745185,24.000132 24.000086,24.000085"
         sodipodi:nodetypes="cc"
         inkscape:label="upper arc" />
      <path
         style="font-variation-settings:'wdth' 99.8, 'wght' 700;fill:#a8cbfe;stroke:#4d1230;stroke-width:2;stroke-linecap:round;stroke-linejoin:round;stroke-dasharray:none;stroke-dashoffset:134.173;paint-order:markers fill stroke"
         d="M 47.999999,47.999999 0,0"
         id="path7"
         inkscape:label="line" />
    </g>
  </g>
  <g
     inkscape:groupmode="layer"
     id="layer3"
     inkscape:label="SINGLE/DOUBLE LINES"
     style="display:none">
    <rect
       style="font-variation-settings:'wdth' 99.8, 'wght' 700;display:inline;fill:#281845;stroke-width:25.4;stroke-linecap:round;stroke-linejoin:round;stroke-dashoffset:134.173;paint-order:markers fill stroke"
       id="rect38"
       width="96"
       height="96"
       x="0"
       y="0" />
    <path
       id="path60"
       style="font-variation-settings:'wdth' 99.8, 'wght' 700;display:inline;fill:#d6a206;stroke-width:12.7;stroke-linecap:round;stroke-linejoin:round;stroke-dashoffset:134.173;paint-order:markers fill stroke"
       d="m 6.0001506,0 c 0,1.1172479 -0.3058361,2.156429 -0.8304403,3.0489095 C 4.6546422,3.9251666 3.9251666,4.6546422 3.0489095,5.1697103 2.1564344,5.6943114 1.1172412,6.0001506 0,6.0001506 v 1.49965 1.5001668 c 1.9373208,0 3.7311273,-0.6253958 5.2033,-1.6758667 L 40.675553,42.796871 c -1.050261,1.472091 -1.67535,3.266184 -1.67535,5.2033 h 1.499651 1.500166 c 0,-1.117217 0.305348,-2.156443 0.829924,-3.04891 0.515087,-0.876322 1.244995,-1.60623 2.121317,-2.121317 0.892461,-0.524573 1.931699,-0.829924 3.04891,-0.829924 v -1.500166 -1.499651 c -1.937112,0 -3.731212,0.625091 -5.2033,1.67535 L 7.3241007,5.2033 C 8.37458,3.7311155 8.9999674,1.9373363 8.9999674,0 H 7.4998006 Z M 20.500041,0 c -5.4e-5,15.146405 12.353725,27.500184 27.50013,27.50013 V 25.000024 C 34.204869,25.000073 23.000097,13.795302 23.000146,0 Z m 4.499983,0 c -4.5e-5,12.71442 10.285727,23.000191 23.000147,23.000146 V 20.500041 C 36.636852,20.500081 27.50009,11.363318 27.50013,0 Z m 14.000179,0 c 0,4.9527709 4.047197,8.9999674 8.999968,8.9999674 V 7.4998006 6.0001506 C 44.668712,6.0001506 42.00002,3.3314588 42.00002,0 H 40.499854 Z M 0,20.500041 v 2.500105 c 13.795302,-4.9e-5 25.000073,11.204723 25.000024,25.000025 H 27.50013 C 27.500184,32.853766 15.146405,20.499987 0,20.500041 Z m 0,4.499983 v 2.500106 c 11.363318,-4e-5 20.500081,9.136722 20.500041,20.500041 h 2.500105 C 23.000191,35.285751 12.71442,24.999979 0,25.000024 Z m 0,14.000179 v 1.499651 1.500166 c 3.3314588,0 6.0001506,2.668692 6.0001506,6.000151 h 1.49965 1.5001668 C 8.9999674,43.0474 4.9527709,39.000203 0,39.000203 Z" />
    <path
       id="path61"
       style="font-variation-settings:'wdth' 99.8, 'wght' 700;display:inline;fill:#d6a206;stroke-width:12.7;stroke-linecap:round;stroke-linejoin:round;stroke-dashoffset:134.173;paint-order:markers fill stroke"
       d="m 54.000151,0 c 0,1.1172479 -0.305837,2.156429 -0.830441,3.0489095 C 52.654642,3.9251666 51.925167,4.6546422 51.048909,5.1697103 50.156434,5.6943114 49.117241,6.0001506 48,6.0001506 v 1.49965 1.5001668 c 1.937321,0 3.731127,-0.6253958 5.2033,-1.6758667 L 88.675553,42.796871 c -1.050261,1.472091 -1.67535,3.266184 -1.67535,5.2033 h 1.499651 1.500166 c 0,-1.117217 0.305348,-2.156443 0.829924,-3.04891 0.515087,-0.876322 1.244995,-1.60623 2.121317,-2.121317 0.892461,-0.524573 1.931699,-0.829924 3.04891,-0.829924 v -1.500166 -1.499651 c -1.937112,0 -3.731212,0.625091 -5.2033,1.67535 L 55.324101,5.2033 C 56.37458,3.7311155 56.999967,1.9373363 56.999967,0 h -1.500166 z m 14.49989,0 c -5.4e-5,15.146405 12.353725,27.500184 27.50013,27.50013 V 25.000024 C 82.204869,25.000073 71.000097,13.795302 71.000146,0 Z m 4.499983,0 c -4.5e-5,12.71442 10.285727,23.000191 23.000147,23.000146 V 20.500041 C 84.636852,20.500081 75.50009,11.363318 75.50013,0 Z m 14.000179,0 c 0,4.9527709 4.047197,8.9999674 8.999968,8.9999674 V 7.4998006 6.0001506 C 92.668712,6.0001506 90.00002,3.3314588 90.00002,0 H 88.499854 Z M 48,20.500041 v 2.500105 c 13.795302,-4.9e-5 25.000073,11.204723 25.000024,25.000025 H 75.50013 C 75.500184,32.853766 63.146405,20.499987 48,20.500041 Z m 0,4.499983 v 2.500106 c 11.363318,-4e-5 20.500081,9.136722 20.500041,20.500041 h 2.500105 C 71.000191,35.285751 60.71442,24.999979 48,25.000024 Z m 0,14.000179 v 1.499651 1.500166 c 3.331459,0 6.000151,2.668692 6.000151,6.000151 h 1.49965 1.500166 C 56.999967,43.0474 52.952771,39.000203 48,39.000203 Z" />
    <path
       id="path62"
       style="font-variation-settings:'wdth' 99.8, 'wght' 700;display:inline;fill:#d6a206;stroke-width:12.7;stroke-linecap:round;stroke-linejoin:round;stroke-dashoffset:134.173;paint-order:markers fill stroke"
       d="m 0,89.999849 c 1.117248,0 2.156429,0.305837 3.048909,0.830441 0.876258,0.515068 1.605733,1.244543 2.120801,2.120801 C 5.694311,93.843566 6.000151,94.882759 6.000151,96 h 1.49965 1.500166 c 0,-1.937321 -0.625395,-3.731127 -1.675866,-5.2033 l 35.47277,-35.472253 c 1.472091,1.050261 3.266184,1.67535 5.2033,1.67535 V 55.500146 53.99998 c -1.117217,0 -2.156443,-0.305348 -3.04891,-0.829924 -0.876322,-0.515087 -1.60623,-1.244995 -2.121317,-2.121317 -0.524573,-0.892461 -0.829924,-1.931699 -0.829924,-3.04891 h -1.500166 -1.499651 c 0,1.937112 0.625091,3.731212 1.67535,5.2033 L 5.2033,88.675899 C 3.731115,87.62542 1.937336,87.000033 0,87.000033 v 1.500166 z m 0,-14.49989 c 15.146405,5.4e-5 27.500184,-12.353725 27.50013,-27.50013 H 25.000024 C 25.000073,61.795131 13.795302,72.999903 0,72.999854 Z m 0,-4.499983 c 12.71442,4.5e-5 23.000191,-10.285727 23.000146,-23.000147 H 20.500041 C 20.500081,59.363148 11.363318,68.49991 0,68.49987 Z M 0,56.999797 c 4.952771,0 8.999967,-4.047197 8.999967,-8.999968 H 7.499801 6.000151 C 6.000151,51.331288 3.331459,53.99998 0,53.99998 v 1.500166 z M 20.500041,96 h 2.500105 C 23.000097,82.204698 34.204869,70.999927 48.000171,70.999976 V 68.49987 C 32.853766,68.499816 20.499987,80.853595 20.500041,96 Z m 4.499983,0 h 2.500106 c -4e-5,-11.363318 9.136722,-20.500081 20.500041,-20.500041 V 72.999854 C 35.285751,72.999809 24.999979,83.28558 25.000024,96 Z m 14.000179,0 h 1.499651 1.500166 c 0,-3.331459 2.668692,-6.000151 6.000151,-6.000151 v -1.49965 -1.500166 c -4.952771,0 -8.999968,4.047196 -8.999968,8.999967 z" />
    <path
       id="path63"
       style="font-variation-settings:'wdth' 99.8, 'wght' 700;display:inline;fill:#d6a206;stroke-width:12.7;stroke-linecap:round;stroke-linejoin:round;stroke-dashoffset:134.173;paint-order:markers fill stroke"
       d="m 54.000151,48.000171 c 0,1.117248 -0.305837,2.156429 -0.830441,3.048909 -0.515068,0.876258 -1.244543,1.605733 -2.120801,2.120801 C 50.156434,53.694482 49.117241,54.000322 48,54.000322 v 1.49965 1.500166 c 1.937321,0 3.731127,-0.625395 5.2033,-1.675866 l 35.472253,35.47277 c -1.050261,1.472091 -1.67535,3.266184 -1.67535,5.2033 h 1.499651 1.500166 c 0,-1.117217 0.305348,-2.156443 0.829924,-3.04891 0.515087,-0.876322 1.244995,-1.60623 2.121317,-2.121317 0.892461,-0.524573 1.931699,-0.829924 3.04891,-0.829924 v -1.500166 -1.499651 c -1.937112,0 -3.731212,0.625091 -5.2033,1.67535 L 55.324101,53.203471 c 1.050479,-1.472185 1.675866,-3.265964 1.675866,-5.2033 h -1.500166 z m 14.49989,0 c -5.4e-5,15.146405 12.353725,27.500184 27.50013,27.50013 V 73.000195 C 82.204869,73.000244 71.000097,61.795473 71.000146,48.000171 Z m 4.499983,0 c -4.5e-5,12.71442 10.285727,23.000191 23.000147,23.000146 V 68.500212 C 84.636852,68.500252 75.50009,59.363489 75.50013,48.000171 Z m 14.000179,0 c 0,4.952771 4.047197,8.999967 8.999968,8.999967 v -1.500166 -1.49965 c -3.331459,0 -6.000151,-2.668692 -6.000151,-6.000151 H 88.499854 Z M 48,68.500212 v 2.500105 c 13.795302,-4.9e-5 25.000073,11.204723 25.000024,25.000025 H 75.50013 C 75.500184,80.853937 63.146405,68.500158 48,68.500212 Z m 0,4.499983 v 2.500106 c 11.363318,-4e-5 20.500081,9.136722 20.500041,20.500041 h 2.500105 C 71.000191,83.285922 60.71442,73.00015 48,73.000195 Z m 0,14.000179 v 1.499651 1.500166 c 3.331459,0 6.000151,2.668692 6.000151,6.000151 h 1.49965 1.500166 c 0,-4.952771 -4.047196,-8.999968 -8.999967,-8.999968 z" />
  </g>
  <g
     inkscape:label="DOUBLE LINES"
     inkscape:groupmode="layer"
     id="layer1"
     style="display:inline">
    <path
       id="path29"
       style="font-variation-settings:'wdth' 99.8, 'wght' 700;fill:#250657;stroke:#c8a9fa;stroke-width:0;stroke-linecap:round;stroke-linejoin:round;stroke-dashoffset:134.173;paint-order:markers fill stroke"
       d="m 0,0 v 4.4999837 c 0.88550811,0 1.7049712,-0.2539617 2.3977865,-0.6878133 L 3.4690389,4.8834229 4.5371908,5.9515747 22.585701,24.000085 42.048596,43.46298 43.116748,44.531132 44.188,45.602384 c -0.433852,0.692817 -0.687813,1.512277 -0.687813,2.397787 h 4.499984 v -4.499984 c -0.885508,0 -1.704971,0.253962 -2.397787,0.687813 L 44.531132,43.116748 43.46298,42.048596 25.414469,24.000085 5.9515747,4.5371908 4.8834229,3.4690389 3.8121704,2.3977865 C 4.246023,1.7049702 4.4999837,0.88551011 4.4999837,0 Z m 7.5003174,0 c 0,0.76994723 -0.1182158,1.5136678 -0.3364136,2.2143351 L 28.949654,24.000085 45.785836,40.836267 c 0.700662,-0.218196 1.444394,-0.336413 2.214335,-0.336413 V 27.50013 c -4.856268,1.8e-5 -9.42235,-1.275167 -13.389364,-3.500045 C 26.205262,19.285873 20.500004,10.289734 20.500041,0 Z M 23.000146,0 c -4.1e-5,11.368174 7.612266,20.971002 18.009754,24.000085 2.219594,0.646634 4.563463,0.999948 6.990271,0.999939 V 24.000085 23.000146 C 35.286031,23.000191 24.999979,12.71414 25.000024,0 Z m 4.499984,0 c -4e-5,11.363115 9.136927,20.500081 20.500041,20.500041 V 7.5003174 C 43.875839,7.5003174 40.50037,4.1243319 40.50037,0 Z m 16.000057,0 c 0,2.5030375 1.996947,4.4999837 4.499984,4.4999837 V 0 Z M 2.2143351,7.1639038 C 1.5136728,7.3820996 0.76994123,7.5003174 0,7.5003174 V 20.500041 c 4.8562681,-1.8e-5 9.4223496,1.275167 13.389364,3.500044 8.405545,4.714213 14.110803,13.710352 14.110766,24.000086 h 12.999724 c 0,-0.769947 0.118215,-1.513668 0.336413,-2.214335 L 19.050517,24.000085 Z M 0,23.000146 v 0.999939 0.999939 c 12.71414,-4.5e-5 23.000191,10.286007 23.000146,23.000147 h 1.999878 C 25.000065,36.631997 17.387759,27.029168 6.990271,24.000085 4.7706772,23.353452 2.4268076,23.000137 0,23.000146 Z m 0,4.499984 v 12.999724 c 4.1243321,0 7.4998006,3.375985 7.4998006,7.500317 H 20.500041 C 20.500081,36.637056 11.363114,27.50009 0,27.50013 Z m 0,16.000057 v 4.499984 H 4.4999837 C 4.4999837,45.497133 2.503036,43.500187 0,43.500187 Z" />
    <path
       id="path30"
       style="font-variation-settings:'wdth' 99.8, 'wght' 700;fill:#250657;stroke:#c8a9fa;stroke-width:0;stroke-linecap:round;stroke-linejoin:round;stroke-dashoffset:134.173;paint-order:markers fill stroke"
       d="m 47.999829,0 v 4.4999837 c 0.885508,0 1.704971,-0.2539617 2.397786,-0.6878133 l 1.071253,1.0712525 1.068152,1.0681518 18.04851,18.0485103 19.462895,19.462895 1.068152,1.068152 1.071252,1.071252 c -0.433852,0.692817 -0.687813,1.512277 -0.687813,2.397787 H 96 v -4.499984 c -0.885508,0 -1.704971,0.253962 -2.397787,0.687813 L 92.530961,43.116748 91.462809,42.048596 73.414298,24.000085 53.951404,4.5371908 52.883252,3.4690389 51.811999,2.3977865 C 52.245852,1.7049702 52.499813,0.88551011 52.499813,0 Z m 7.500317,0 c 0,0.76994723 -0.118215,1.5136678 -0.336413,2.2143351 L 76.949483,24.000085 93.785665,40.836267 C 94.486327,40.618071 95.230059,40.499854 96,40.499854 V 27.50013 C 91.143732,27.500148 86.57765,26.224963 82.610636,24.000085 74.205091,19.285873 68.499833,10.289734 68.49987,0 Z m 15.499829,0 c -4.1e-5,11.368174 7.612266,20.971002 18.009754,24.000085 2.219594,0.646634 4.563463,0.999948 6.990271,0.999939 V 24.000085 23.000146 C 83.28586,23.000191 72.999808,12.71414 72.999853,0 Z m 4.499984,0 C 75.499919,11.363115 84.636886,20.500081 96,20.500041 V 7.5003174 C 91.875668,7.5003174 88.500199,4.1243319 88.500199,0 Z m 16.000057,0 c 0,2.5030375 1.996947,4.4999837 4.499984,4.4999837 V 0 Z M 50.214164,7.1639038 C 49.513502,7.3820996 48.76977,7.5003174 47.999829,7.5003174 V 20.500041 c 4.856268,-1.8e-5 9.42235,1.275167 13.389364,3.500044 8.405545,4.714213 14.110803,13.710352 14.110766,24.000086 h 12.999724 c 0,-0.769947 0.118215,-1.513668 0.336413,-2.214335 L 67.050346,24.000085 Z M 47.999829,23.000146 v 0.999939 0.999939 c 12.71414,-4.5e-5 23.000191,10.286007 23.000146,23.000147 h 1.999878 C 72.999894,36.631997 65.387588,27.029168 54.9901,24.000085 52.770506,23.353452 50.426637,23.000137 47.999829,23.000146 Z m 0,4.499984 v 12.999724 c 4.124332,0 7.499801,3.375985 7.499801,7.500317 H 68.49987 C 68.49991,36.637056 59.362943,27.50009 47.999829,27.50013 Z m 0,16.000057 v 4.499984 h 4.499984 c 0,-2.503038 -1.996948,-4.499984 -4.499984,-4.499984 z" />
    <path
       id="path31"
       style="font-variation-settings:'wdth' 99.8, 'wght' 700;fill:#250657;stroke:#c8a9fa;stroke-width:0;stroke-linecap:round;stroke-linejoin:round;stroke-dashoffset:134.173;paint-order:markers fill stroke"
       d="m 47.999829,96 h 4.499984 c 0,-0.885508 -0.253962,-1.704971 -0.687814,-2.397786 l 1.071253,-1.071253 1.068152,-1.068152 18.04851,-18.04851 L 91.462809,53.951404 92.530961,52.883252 93.602213,51.812 C 94.29503,52.245852 95.11449,52.499813 96,52.499813 v -4.499984 h -4.499984 c 0,0.885508 0.253962,1.704971 0.687813,2.397787 L 91.116577,51.468868 90.048425,52.53702 71.999914,70.585531 52.53702,90.048425 51.468868,91.116577 50.397615,92.18783 c -0.692816,-0.433853 -1.512276,-0.687814 -2.397786,-0.687814 z m 0,-7.500317 c 0.769947,0 1.513668,0.118215 2.214335,0.336413 L 71.999914,67.050346 88.836096,50.214164 C 88.6179,49.513502 88.499683,48.76977 88.499683,47.999829 H 75.499959 c 1.8e-5,4.856268 -1.275167,9.42235 -3.500045,13.389364 -4.714212,8.405545 -13.710351,14.110803 -24.000085,14.110766 z m 0,-15.499829 c 11.368174,4.1e-5 20.971002,-7.612266 24.000085,-18.009754 0.646634,-2.219594 0.999948,-4.563463 0.999939,-6.990271 h -0.999939 -0.999939 c 4.5e-5,12.71414 -10.286006,23.000192 -23.000146,23.000147 z m 0,-4.499984 c 11.363115,4e-5 20.500081,-9.136927 20.500041,-20.500041 H 55.500146 c 0,4.124332 -3.375985,7.499801 -7.500317,7.499801 z m 0,-16.000057 c 2.503037,0 4.499984,-1.996947 4.499984,-4.499984 h -4.499984 z m 7.163904,41.285852 C 55.381929,94.486327 55.500146,95.230059 55.500146,96 H 68.49987 c -1.8e-5,-4.856268 1.275167,-9.42235 3.500044,-13.389364 C 76.714127,74.205091 85.710266,68.499833 96,68.49987 V 55.500146 c -0.769947,0 -1.513668,-0.118215 -2.214335,-0.336413 L 71.999914,76.949483 Z M 70.999975,96 h 0.999939 0.999939 C 72.999808,83.28586 83.28586,72.999809 96,72.999854 V 70.999976 C 84.631826,70.999935 75.028997,78.612241 71.999914,89.009729 71.353281,91.229323 70.999966,93.573192 70.999975,96 Z m 4.499984,0 h 12.999724 c 0,-4.124332 3.375985,-7.499801 7.500317,-7.499801 V 75.499959 C 84.636885,75.499919 75.499919,84.636886 75.499959,96 Z m 16.000057,0 H 96 v -4.499984 c -2.503038,0 -4.499984,1.996948 -4.499984,4.499984 z" />
    <path
       id="path32"
       style="font-variation-settings:'wdth' 99.8, 'wght' 700;fill:#250657;stroke:#c8a9fa;stroke-width:0;stroke-linecap:round;stroke-linejoin:round;stroke-dashoffset:134.173;paint-order:markers fill stroke"
       d="m -3.42e-4,96 h 4.499984 c 0,-0.885508 -0.253962,-1.704971 -0.687814,-2.397786 L 4.883081,92.530961 5.951233,91.462809 23.999743,73.414299 43.462638,53.951404 44.53079,52.883252 45.602042,51.812 c 0.692817,0.433852 1.512277,0.687813 2.397787,0.687813 v -4.499984 h -4.499984 c 0,0.885508 0.253962,1.704971 0.687813,2.397787 L 43.116406,51.468868 42.048254,52.53702 23.999743,70.585531 4.536849,90.048425 3.468697,91.116577 2.397444,92.18783 C 1.704628,91.753977 0.885168,91.500016 -3.42e-4,91.500016 Z m 0,-7.500317 c 0.769947,0 1.513668,0.118215 2.214335,0.336413 L 23.999743,67.050346 40.835925,50.214164 C 40.617729,49.513502 40.499512,48.76977 40.499512,47.999829 H 27.499788 c 1.8e-5,4.856268 -1.275167,9.42235 -3.500045,13.389364 -4.714212,8.405545 -13.710351,14.110803 -24.000085,14.110766 z m 0,-15.499829 c 11.368174,4.1e-5 20.971002,-7.612266 24.000085,-18.009754 0.646634,-2.219594 0.999948,-4.563463 0.999939,-6.990271 h -0.999939 -0.999939 c 4.5e-5,12.71414 -10.286006,23.000192 -23.000146,23.000147 z m 0,-4.499984 c 11.363115,4e-5 20.500081,-9.136927 20.500041,-20.500041 H 7.499975 c 0,4.124332 -3.375985,7.499801 -7.500317,7.499801 z m 0,-16.000057 c 2.503037,0 4.499984,-1.996947 4.499984,-4.499984 H -3.42e-4 Z M 7.163562,93.785665 C 7.381758,94.486327 7.499975,95.230059 7.499975,96 h 12.999724 c -1.8e-5,-4.856268 1.275167,-9.42235 3.500044,-13.389364 C 28.713956,74.205091 37.710095,68.499833 47.999829,68.49987 V 55.500146 c -0.769947,0 -1.513668,-0.118215 -2.214335,-0.336413 L 23.999743,76.949483 Z M 22.999804,96 h 0.999939 0.999939 C 24.999637,83.28586 35.285689,72.999809 47.999829,72.999854 V 70.999976 C 36.631655,70.999935 27.028826,78.612241 23.999743,89.009729 23.35311,91.229323 22.999795,93.573192 22.999804,96 Z m 4.499984,0 h 12.999724 c 0,-4.124332 3.375985,-7.499801 7.500317,-7.499801 V 75.499959 C 36.636714,75.499919 27.499748,84.636886 27.499788,96 Z m 16.000057,0 h 4.499984 v -4.499984 c -2.503038,0 -4.499984,1.996948 -4.499984,4.499984 z" />
  </g>
</svg>
