<?xml version="1.0" encoding="UTF-8" standalone="no"?>
<!-- Created with Inkscape (http://www.inkscape.org/) -->

<svg
   width="2.75in"
   height="1.25in"
   viewBox="0 0 69.85 31.75"
   version="1.1"
   id="svg1"
   xml:space="preserve"
   inkscape:version="1.3.1 (91b66b0783, 2023-11-16)"
   sodipodi:docname="food-golem-notches.svg"
   inkscape:export-filename="food-golem--white-blob.png"
   inkscape:export-xdpi="300"
   inkscape:export-ydpi="300"
   xmlns:inkscape="http://www.inkscape.org/namespaces/inkscape"
   xmlns:sodipodi="http://sodipodi.sourceforge.net/DTD/sodipodi-0.dtd"
   xmlns="http://www.w3.org/2000/svg"
   xmlns:svg="http://www.w3.org/2000/svg"><sodipodi:namedview
     id="namedview1"
     pagecolor="#ffffff"
     bordercolor="#000000"
     borderopacity="0.25"
     inkscape:showpageshadow="2"
     inkscape:pageopacity="0.0"
     inkscape:pagecheckerboard="0"
     inkscape:deskcolor="#d1d1d1"
     inkscape:document-units="in"
     inkscape:zoom="2"
     inkscape:cx="146.75"
     inkscape:cy="-53"
     inkscape:window-width="1620"
     inkscape:window-height="1010"
     inkscape:window-x="-6"
     inkscape:window-y="-6"
     inkscape:window-maximized="1"
     inkscape:current-layer="g107"
     showguides="false" /><defs
     id="defs1"><inkscape:path-effect
       effect="powerstroke"
       id="path-effect98"
       is_visible="true"
       lpeversion="1.3"
       scale_width="0.5"
       interpolator_type="CentripetalCatmullRom"
       interpolator_beta="1"
       start_linecap_type="zerowidth"
       end_linecap_type="zerowidth"
       offset_points="0.2,0.63499999 | 2.5,0.63499999 | 4.8,0.63499999"
       linejoin_type="round"
       miter_limit="4"
       not_jump="false"
       sort_points="true"
       message="&lt;b&gt;Ctrl + click&lt;/b&gt; on existing node and move it" /><inkscape:path-effect
       effect="powerstroke"
       id="path-effect88"
       is_visible="true"
       lpeversion="1.3"
       scale_width="0.5"
       interpolator_type="CentripetalCatmullRom"
       interpolator_beta="1"
       start_linecap_type="zerowidth"
       end_linecap_type="zerowidth"
       offset_points="0.2,0.63499999 | 2.5,0.63499999 | 4.8,0.63499999"
       linejoin_type="round"
       miter_limit="4"
       not_jump="false"
       sort_points="true"
       message="&lt;b&gt;Ctrl + click&lt;/b&gt; on existing node and move it" /><inkscape:path-effect
       effect="offset"
       id="path-effect87"
       is_visible="true"
       lpeversion="1.2"
       linejoin_type="round"
       unit="mm"
       offset="0"
       miter_limit="4"
       attempt_force_join="false"
       update_on_knot_move="true" /><inkscape:path-effect
       effect="rough_hatches"
       id="path-effect70"
       is_visible="true"
       lpeversion="1.2"
       direction="19.734572,14.285855 , 0.412,0"
       dist_rdm="1;1"
       growth="0"
       do_bend="true"
       bender="19.734572,19.285855 , 5,0"
       bottom_edge_variation="0.027215883;1"
       top_edge_variation="0.027215883;1"
       bottom_tgt_variation="0;1"
       top_tgt_variation="0;1"
       scale_bf="2"
       scale_bb="0.7"
       scale_tf="0.7"
       scale_tb="0.6"
       top_smth_variation="0;1"
       bottom_smth_variation="0;1"
       fat_output="true"
       stroke_width_top="0.4"
       stroke_width_bottom="0.4"
       front_thickness="0.3"
       back_thickness="0.05" /><inkscape:path-effect
       effect="bend_path"
       id="path-effect69"
       is_visible="true"
       lpeversion="1"
       bendpath="m 18.910572,19.285855 h 1.648"
       prop_scale="3"
       scale_y_rel="false"
       vertical="false"
       hide_knot="false" /><marker
       style="overflow:visible"
       id="ArrowTriangleStylized"
       refX="0"
       refY="0"
       orient="auto-start-reverse"
       inkscape:stockid="Stylized triangle arrow"
       markerWidth="0.5"
       markerHeight="0.5"
       viewBox="0 0 1 1"
       inkscape:isstock="true"
       inkscape:collect="always"
       preserveAspectRatio="none"><path
         transform="scale(0.5)"
         style="fill:context-stroke;fill-rule:evenodd;stroke:context-stroke;stroke-width:1pt"
         d="m 6,0 c -3,1 -7,3 -9,5 0,0 0,-4 2,-5 -2,-1 -2,-5 -2,-5 2,2 6,4 9,5 z"
         id="path4" /></marker><rect
       x="12.852029"
       y="18.506922"
       width="68.886871"
       height="34.957516"
       id="rect3" /><rect
       x="177.35799"
       y="10.281623"
       width="72.485443"
       height="74.541763"
       id="rect2" /><rect
       x="12.852029"
       y="18.506922"
       width="69.400955"
       height="88.936035"
       id="rect4" /><rect
       x="177.35799"
       y="10.281623"
       width="72.485443"
       height="74.541763"
       id="rect6" /><rect
       x="12.852029"
       y="18.506922"
       width="147.54129"
       height="31.358948"
       id="rect11" /><rect
       x="12.852029"
       y="18.506922"
       width="149.08353"
       height="33.929356"
       id="rect12" /><rect
       x="177.35799"
       y="10.281623"
       width="147.02721"
       height="37.013844"
       id="rect13" /><rect
       x="177.35799"
       y="10.281623"
       width="72.485443"
       height="74.541763"
       id="rect14" /><rect
       x="177.35799"
       y="10.281623"
       width="147.02721"
       height="37.013844"
       id="rect31" /><rect
       x="177.35799"
       y="10.281623"
       width="72.485443"
       height="74.541763"
       id="rect32" /><rect
       x="12.852029"
       y="18.506922"
       width="147.54129"
       height="31.358948"
       id="rect33" /><rect
       x="12.852029"
       y="18.506922"
       width="149.08353"
       height="33.929356"
       id="rect34" /><rect
       x="177.35799"
       y="10.281623"
       width="154.6609"
       height="44.811905"
       id="rect50" /><rect
       x="177.35799"
       y="10.281623"
       width="72.485443"
       height="74.541763"
       id="rect51" /><rect
       x="12.852029"
       y="18.506922"
       width="219.31531"
       height="17.493082"
       id="rect52" /><rect
       x="12.852029"
       y="18.506922"
       width="149.08353"
       height="33.929356"
       id="rect53" /><inkscape:path-effect
       effect="fill_between_many"
       method="originald"
       linkedpaths="#path75,0,1|#path76,0,1"
       id="path-effect77"
       is_visible="true"
       lpeversion="0"
       join="true"
       close="true"
       autoreverse="true" /><inkscape:path-effect
       effect="fill_between_many"
       method="originald"
       linkedpaths="#path72,0,1|#path73,0,1"
       id="path-effect78"
       is_visible="true"
       lpeversion="0"
       join="true"
       close="true"
       autoreverse="true" /><rect
       x="177.35799"
       y="10.281623"
       width="154.6609"
       height="44.811905"
       id="rect92" /><rect
       x="177.35799"
       y="10.281623"
       width="72.485443"
       height="74.541763"
       id="rect93" /><rect
       x="12.852029"
       y="18.506922"
       width="219.31531"
       height="17.493082"
       id="rect94" /><rect
       x="177.35799"
       y="10.281623"
       width="220.76466"
       height="34.821472"
       id="rect107" /><rect
       x="177.35799"
       y="10.281623"
       width="19.278044"
       height="22.10549"
       id="rect108" /><rect
       x="12.852029"
       y="18.506922"
       width="214.68858"
       height="41.654896"
       id="rect109" /><mask
       maskUnits="userSpaceOnUse"
       id="mask22"><path
         style="display:inline;fill:#ffffff;fill-opacity:1;stroke-width:0.0254;stroke-linecap:round;stroke-linejoin:round;paint-order:markers stroke fill"
         d="m 13.559896,7.3421875 3.075781,2.7450515 0.09922,5.060157 7.242969,1.488281 0.595312,5.78776 41.374218,0.264584 L 66.11276,4.8617187 14.519011,4.5971354 Z"
         id="path22" /></mask><rect
       x="177.35799"
       y="10.281623"
       width="220.76466"
       height="34.821472"
       id="rect96" /><rect
       x="177.35799"
       y="10.281623"
       width="19.278044"
       height="22.10549"
       id="rect97" /></defs><g
     inkscape:label="original"
     inkscape:groupmode="layer"
     id="g107"
     style="display:none"><path
       id="path82"
       style="color:#000000;display:inline;fill:#e183b2;stroke-linecap:round;stroke-linejoin:round;-inkscape-stroke:none;paint-order:markers fill stroke"
       d="M 10.527523,3.4922933 C 9.6976349,3.4921418 8.9610087,3.7493455 8.4041382,4.2302327 5.8584311,6.4310938 4.5198251,9.5098352 3.9413615,12.779065 a 0.95259524,0.95259524 0 0 0 0.9374105,1.119311 h 0.8381917 c 0.5713157,-1e-6 1.0779704,0.506653 1.0779704,1.077971 v 1.777669 c 0,0.571318 -0.5078423,1.080038 -1.0779704,1.080038 H 4.8767049 a 0.95259524,0.95259524 0 0 0 -0.9374105,1.117244 c 0.5759235,3.276811 1.9142187,6.364908 4.4648438,8.57002 0.5574249,0.482171 1.2941328,0.738231 2.1233848,0.738456 h 48.794954 c 0.829251,-2.25e-4 1.56581,-0.256602 2.122868,-0.738456 2.702708,-2.336596 4.196497,-5.623838 4.681368,-9.191171 a 0.95259524,0.95259524 0 0 0 -0.943095,-1.082104 h -1.046964 c -0.57132,0 -1.080038,-0.507842 -1.080038,-1.077971 v -1.777669 c 0,-0.570128 0.509906,-1.080037 1.080038,-1.080037 h 0.732255 a 0.95259524,0.95259524 0 0 0 0.931726,-1.152385 C 65.157128,9.148017 63.860526,6.3085746 61.492371,4.2400513 a 0.95259524,0.95259524 0 0 0 -0.0021,-0.00155 C 60.932515,3.7519384 60.193526,3.4920037 59.357617,3.4922933 Z"
       inkscape:label="cut" /><g
       id="g85"
       inkscape:label="ginger"
       transform="rotate(3.767388,8.0561072,13.464986)"><path
         id="path107"
         style="display:inline;fill:#ffffff;fill-opacity:1;stroke:none;stroke-width:0.381;stroke-linecap:round;stroke-linejoin:round;stroke-dasharray:none;stroke-opacity:1;paint-order:markers stroke fill"
         inkscape:label="ginger shadow"
         d="m 15.710152,4.8674032 c -1.698054,-0.028623 -3.097642,1.3250105 -3.125907,3.0230712 -0.01888,1.3151965 0.801065,2.4966786 2.039669,2.9393556 -1.239337,0.987762 -1.774849,0.79153 -2.234489,0.569991 -0.47996,-0.231325 -0.784965,-0.68678 -0.784965,-0.68678 -0.356228,-0.592594 -1.125278,-0.7843709 -1.717725,-0.427881 -0.5924241,0.356394 -0.7839443,1.125916 -0.4273641,1.718242 0,0 0.6026111,1.053581 1.8432981,1.651578 0.841266,0.40547 2.044469,0.287815 3.303158,-0.181384 0.03481,0.298724 0.06729,0.549433 0.102319,0.871782 0.08061,0.74202 0.101914,0.989733 0.152446,1.494482 -0.377643,0.05275 -0.424231,-0.05348 -0.876433,0.141077 -1.225224,0.527098 -2.542846,1.922599 -2.721281,4.203361 -0.05432,0.689115 0.460674,1.291382 1.149801,1.345654 0.689862,0.05403 1.29219,-0.461919 1.345138,-1.151868 0.120071,-1.534976 0.659758,-1.857971 1.215429,-2.097029 0.55569,-0.23909 1.112594,-0.195337 1.112594,-0.195337 0.377253,0.04114 0.752298,-0.09079 1.020609,-0.359151 0.09863,0.439319 0.286505,1.053339 0.648023,1.656229 0.331281,0.552452 0.863347,1.154036 1.685168,1.428854 0.821834,0.274774 1.798295,0.131677 2.726449,-0.363803 0.60919,-0.325839 0.838534,-1.084017 0.513147,-1.693436 -0.325302,-0.609743 -1.083089,-0.840331 -1.69292,-0.515214 -0.517543,0.276291 -0.678531,0.224003 -0.751892,0.199471 -0.07334,-0.02456 -0.194389,-0.110566 -0.33383,-0.343132 -0.278911,-0.465115 -0.409794,-1.259871 -0.409794,-1.259871 -0.0012,-0.009 -0.0018,-0.01788 -0.0031,-0.02687 0,0 -0.186217,-1.385586 -0.363802,-2.768823 -0.06123,-0.476785 -0.110431,-0.888718 -0.16123,-1.30638 0.24199,0.03354 0.686599,-0.0044 0.824756,0.05064 0.346841,0.138144 0.432666,0.265524 0.51108,0.419095 0.156826,0.307125 0.09457,0.79065 0.09457,0.79065 -0.160122,0.67242 0.255163,1.347334 0.927592,1.507401 0.672413,0.160129 1.347867,-0.255148 1.507919,-0.927592 0,0 0.347826,-1.239164 -0.300757,-2.509407 -0.324287,-0.635119 -0.946876,-1.26043 -1.813326,-1.605587 -0.783903,-0.312269 -1.738056,-0.421186 -2.916101,-0.320394 0.581915,-0.5639118 0.917676,-1.334915 0.93431,-2.1450885 0.02679,-1.591754 -1.160788,-2.9212185 -2.708362,-3.10472 -0.103172,-0.012229 -0.208072,-0.019406 -0.314193,-0.021187 z" /><path
         id="path83"
         style="display:inline;fill:#84420a;fill-opacity:1;stroke:#ffffff;stroke-width:0.381;stroke-linecap:round;stroke-linejoin:round;stroke-dasharray:none;stroke-opacity:1;paint-order:markers stroke fill"
         inkscape:label="running ginger"
         d="m 16.024564,4.8885689 c -0.103172,-0.012229 -0.208147,-0.01954 -0.314268,-0.021321 -1.698058,-0.028623 -3.097558,1.3250325 -3.125823,3.0230966 -0.01888,1.3151991 0.801051,2.4966435 2.039657,2.9393205 -1.239339,0.987764 -1.775023,0.791917 -2.234665,0.570378 -0.47996,-0.231325 -0.785076,-0.68709 -0.785076,-0.68709 -0.356228,-0.592596 -1.125417,-0.7842383 -1.7178653,-0.427747 -0.5924253,0.356394 -0.7834913,1.125641 -0.4269103,1.717967 0,0 0.6023176,1.053736 1.8430086,1.651735 0.841268,0.40547 2.044331,0.287713 3.303022,-0.181486 0.03481,0.298724 0.06744,0.549836 0.102472,0.872185 0.08061,0.742022 0.101918,0.989597 0.15245,1.494348 -0.377643,0.05275 -0.424398,-0.05335 -0.8766,0.141207 -1.225228,0.5271 -2.542519,1.922241 -2.720954,4.203007 -0.05432,0.689117 0.460408,1.291707 1.149537,1.345979 0.689864,0.05403 1.292507,-0.462215 1.345455,-1.152164 0.120073,-1.53498 0.659656,-1.857938 1.215329,-2.096998 0.55569,-0.23909 1.112268,-0.195057 1.112268,-0.195057 0.377255,0.04114 0.752576,-0.09102 1.020889,-0.359388 0.09863,0.439321 0.28626,1.053285 0.647778,1.656177 0.331281,0.552452 0.86362,1.154345 1.685443,1.429163 0.821836,0.274776 1.798001,0.131301 2.726157,-0.364179 0.609192,-0.325841 0.838881,-1.083634 0.513494,-1.693055 -0.325302,-0.609743 -1.082957,-0.840719 -1.69279,-0.515602 -0.517543,0.276291 -0.678959,0.223979 -0.75232,0.199447 -0.07334,-0.02456 -0.194034,-0.11022 -0.333475,-0.342786 -0.278911,-0.465117 -0.409815,-1.25997 -0.409815,-1.25997 -0.0012,-0.009 -0.0022,-0.01793 -0.0035,-0.02692 0,0 -0.185967,-1.385551 -0.363552,-2.76879 -0.06123,-0.476785 -0.110209,-0.888533 -0.161008,-1.306197 0.24199,0.03354 0.686302,-0.0046 0.824459,0.05045 0.346843,0.138146 0.432652,0.265219 0.511066,0.418792 0.156828,0.307125 0.09468,0.790909 0.09468,0.790909 -0.160124,0.672422 0.255325,1.347423 0.927756,1.507492 0.672413,0.160129 1.347437,-0.255311 1.507489,-0.927755 0,0 0.347872,-1.239116 -0.300713,-2.509361 C 22.203352,11.429235 21.580747,10.804189 20.714295,10.459032 19.93039,10.146763 18.976673,10.03755 17.798626,10.138342 18.380543,9.5744286 18.716247,8.8035975 18.732881,7.9934224 18.759671,6.4016652 17.572055,5.0720519 16.024477,4.88855 Z m 0.391027,2.5078324 a 0.4383754,0.4383754 0 0 1 0.393727,0.4178012 0.4383754,0.4383754 0 0 1 -0.419216,0.4563361 0.4383754,0.4383754 0 0 1 -0.456759,-0.4192689 0.4383754,0.4383754 0 0 1 0.419691,-0.4567042 0.4383754,0.4383754 0 0 1 0.06255,0.00185 z m -2.640063,0.1126794 a 0.4383754,0.4383754 0 0 1 0.394197,0.4174311 0.4383754,0.4383754 0 0 1 -0.419212,0.4563369 0.4383754,0.4383754 0 0 1 -0.456761,-0.4192672 0.4383754,0.4383754 0 0 1 0.419217,-0.4563362 0.4383754,0.4383754 0 0 1 0.06256,0.00181 z m 2.688986,1.1607236 a 0.18775596,0.18775596 0 0 1 0.137851,0.171841 C 16.615384,9.1470199 16.424457,9.4133415 16.15657,9.5927961 15.888659,9.7722497 15.532427,9.8833908 15.137044,9.9002427 14.74156,9.9171607 14.377271,9.836381 14.094985,9.6803644 13.812684,9.5243309 13.600006,9.2756866 13.587003,8.9702309 A 0.18775596,0.18775596 0 0 1 13.765518,8.7755525 L 16.40595,8.6633464 a 0.18775596,0.18775596 0 0 1 0.05857,0.0065 z M 15.954521,11.62717 a 0.4383754,0.4383754 0 0 1 0.381105,0.36155 0.4383754,0.4383754 0 0 1 -0.358336,0.505803 0.4383754,0.4383754 0 0 1 -0.505801,-0.358337 0.4383754,0.4383754 0 0 1 0.357916,-0.505855 0.4383754,0.4383754 0 0 1 0.125117,-0.003 z m -4.144179,-0.360983 a 0.12517062,0.12517062 0 0 1 0.04147,0.02016 l 0.226586,0.165842 c 0.151746,0.111149 0.164771,0.309512 0.09897,0.465974 -0.0329,0.07823 -0.09193,0.15287 -0.178935,0.194627 -0.08702,0.04176 -0.197944,0.04374 -0.307748,0.0051 -0.224266,-0.07887 -0.363047,-0.08215 -0.434495,-0.06411 -0.07143,0.01796 -0.0876,0.04258 -0.104027,0.09079 -0.03284,0.09649 0.01173,0.275256 0.01173,0.275256 a 0.12517062,0.12517062 0 0 1 0.0021,0.0037 c 0,0 0.05536,0.175683 0.05128,0.348538 -0.0021,0.08643 -0.01302,0.193061 -0.110113,0.262595 -0.04853,0.03476 -0.114052,0.04732 -0.173321,0.04028 -0.05527,-0.0065 -0.109868,-0.02931 -0.168445,-0.06031 0,0 -0.0021,-0.002 -0.0021,-0.002 -0.0026,-0.0012 -0.40488,-0.200667 -0.664523,-0.534068 -0.0025,-0.0012 -0.0034,-3.41e-4 -0.0057,-0.0015 l 0.0021,-0.0023 c -0.0194,-0.02523 -0.03251,-0.01287 -0.0501,-0.04002 a 0.12517062,0.12517062 0 0 1 0.163966,-0.18068 c 0.165056,0.08708 0.261514,0.09628 0.290772,0.08971 0.02926,-0.0065 0.02853,-0.01014 0.03827,-0.05331 0.01951,-0.08614 -0.02283,-0.265107 -0.02283,-0.265107 a 0.12517062,0.12517062 0 0 1 -0.0044,-0.01337 c 0,0 -0.0418,-0.162842 0.04015,-0.321311 0.04096,-0.07923 0.12961,-0.156578 0.244965,-0.176126 0.115357,-0.01956 0.248401,0.0064 0.419671,0.08021 0.1433,0.06168 0.236249,0.0678 0.289291,0.0571 0.05306,-0.01076 0.07643,-0.03402 0.09924,-0.06961 0.04561,-0.07119 0.04779,-0.190938 0.04779,-0.190938 a 0.12517062,0.12517062 0 0 1 0.06797,-0.11665 0.12517062,0.12517062 0 0 1 0.09031,-0.0083 z m 10.479021,1.638903 c 0.122153,0.01451 0.261117,0.0794 0.396764,0.222555 a 0.10962087,0.10962087 0 0 1 0.0037,0.0035 c 0.08643,0.101856 0.08335,0.226339 0.07273,0.347797 -0.01056,0.121469 -0.02777,0.23501 -0.113724,0.322375 a 0.10962087,0.10962087 0 0 1 -0.18507,-0.05342 c -0.03719,-0.167446 -0.111588,-0.258837 -0.171611,-0.274299 -0.02999,-0.0079 -0.06692,-0.0054 -0.127897,0.02887 -0.06095,0.03416 -0.141277,0.101303 -0.229769,0.211766 -0.0753,0.094 -0.160102,0.151279 -0.247281,0.170711 -0.08717,0.01943 -0.168202,-3.3e-4 -0.230201,-0.0309 -0.093,-0.0458 -0.154579,-0.116594 -0.179539,-0.149286 l -3.68e-4,-4.73e-4 c -0.0055,-0.0047 -0.110863,-0.09534 -0.209709,-0.126583 -0.0507,-0.01605 -0.0886,-0.01666 -0.119546,-4.35e-4 -0.03093,0.01628 -0.07045,0.0568 -0.102194,0.171749 a 0.10962087,0.10962087 0 0 1 -0.199503,0.0276 c 0,0 -0.0025,-0.07203 -0.0093,-0.08615 l -0.0037,2.93e-4 c 7.22e-4,-0.0028 0.0029,-0.0033 0.0037,-0.0061 -0.02903,-0.06047 -0.09582,-0.157619 -0.03404,-0.349381 a 0.10962087,0.10962087 0 0 1 0.0055,-0.01169 c 0,0 0.06306,-0.150914 0.194861,-0.260553 0.06591,-0.05481 0.156685,-0.102677 0.263841,-0.09816 0.107153,0.0046 0.215851,0.06193 0.317271,0.171624 0.09052,0.09787 0.163316,0.134437 0.214233,0.145079 0.05091,0.01059 0.08659,-8.92e-4 0.124169,-0.02293 0.07517,-0.04405 0.129156,-0.138059 0.129156,-0.138059 a 0.10962087,0.10962087 0 0 1 0.007,-0.01408 c 0,0 0.08168,-0.121485 0.233399,-0.17928 0.0569,-0.02165 0.124262,-0.03099 0.197556,-0.0223 z m -6.098129,0.109494 a 0.4383754,0.4383754 0 0 1 0.381105,0.361552 0.4383754,0.4383754 0 0 1 -0.358337,0.505801 0.4383754,0.4383754 0 0 1 -0.505799,-0.358337 0.4383754,0.4383754 0 0 1 0.358335,-0.505801 0.4383754,0.4383754 0 0 1 0.124696,-0.0033 z m 0.236713,1.387414 a 0.4383754,0.4383754 0 0 1 0.381525,0.361606 0.4383754,0.4383754 0 0 1 -0.358339,0.5058 0.4383754,0.4383754 0 0 1 -0.506221,-0.358385 0.4383754,0.4383754 0 0 1 0.35834,-0.505805 0.4383754,0.4383754 0 0 1 0.124689,-0.0033 z m 4.606421,4.086913 a 0.18775596,0.18775596 0 0 1 0.148881,0.06984 c 0.684856,0.854747 0.40881,1.910791 0.40881,1.910791 a 0.18775596,0.18775596 0 0 1 -0.134784,0.135218 l -0.42276,0.112049 A 0.18775596,0.18775596 0 0 1 20.827581,20.43468 c 0,-1e-6 0.09612,-0.149035 0.118942,-0.41911 0.02291,-0.270052 -0.03058,-0.64408 -0.38736,-1.087598 l 0.0022,3.13e-4 c -2.95e-4,-3.63e-4 -0.0354,-0.06766 -0.03551,-0.06808 -1.17e-4,-4.09e-4 -0.0055,-0.07628 -0.0055,-0.07671 5.9e-5,-4.48e-4 0.01447,-0.0562 0.01475,-0.05667 2.16e-4,-4.81e-4 0.01356,-0.02461 0.01998,-0.03339 0.02564,-0.03487 0.04261,-0.04211 0.05545,-0.05072 0.02564,-0.01738 0.04243,-0.02647 0.06209,-0.03536 0.0393,-0.01782 0.08246,-0.03338 0.127063,-0.04947 0.08923,-0.03221 0.178731,-0.05969 0.178731,-0.05969 a 0.18775596,0.18775596 0 0 1 0.05584,-0.0093 z m -9.211253,0.531686 a 0.18775596,0.18775596 0 0 1 0.133693,0.07522 c 0,0 0.100534,0.139861 0.340303,0.257359 0.239721,0.11747 0.605167,0.204525 1.15192,0.04141 4.35e-4,-2.18e-4 0.08229,-0.0055 0.08269,-0.0055 3.88e-4,6.3e-5 0.08219,0.03314 0.08255,0.03334 3.43e-4,2.43e-4 0.04567,0.04545 0.04595,0.04589 2.92e-4,4.25e-4 0.01665,0.02742 0.02093,0.03763 0.0172,0.04096 0.01585,0.05594 0.01677,0.07086 0.0019,0.02985 -9.82e-4,0.0492 -0.0029,0.07139 -0.004,0.04435 -0.011,0.09305 -0.01922,0.143248 -0.01628,0.100422 -0.03567,0.200136 -0.03567,0.200136 a 0.18775596,0.18775596 0 0 1 -0.130364,0.144304 C 12.459516,20.446931 11.58575,19.791681 11.58575,19.791681 a 0.18775596,0.18775596 0 0 1 -0.06996,-0.195362 l 0.108317,-0.436236 a 0.18775596,0.18775596 0 0 1 0.146555,-0.137164 0.18775596,0.18775596 0 0 1 0.05242,-0.0025 z" /></g><g
       id="g106"
       inkscape:label="food text"
       transform="translate(5.2485779,4.3293614)"
       style="display:inline"><text
         xml:space="preserve"
         transform="matrix(0.26458333,0,0,0.26458333,-40.404717,15.463162)"
         id="text103"
         style="font-style:normal;font-variant:normal;font-weight:normal;font-stretch:condensed;font-size:14.6667px;line-height:1.15;font-family:'Rockwell Condensed';-inkscape-font-specification:'Rockwell Condensed, Condensed';font-variant-ligatures:normal;font-variant-caps:normal;font-variant-numeric:normal;font-variant-east-asian:normal;text-align:start;letter-spacing:0px;word-spacing:-1px;text-orientation:upright;white-space:pre;shape-inside:url(#rect107);display:inline;fill:#ffffff;fill-opacity:1;stroke:none;stroke-width:14.4;stroke-linecap:round;stroke-linejoin:round;paint-order:markers stroke fill"
         x="-35.328125"
         y="0"
         inkscape:label="text"><tspan
           x="177.35742"
           y="22.479818"
           id="tspan50"
           style="font-style:normal;font-variant:normal;font-weight:normal;font-stretch:condensed;font-size:14.6667px;line-height:1.15;font-family:'Rockwell Condensed';-inkscape-font-specification:'Rockwell Condensed, Condensed';font-variant-ligatures:normal;font-variant-caps:normal;font-variant-numeric:normal;font-variant-east-asian:normal;letter-spacing:0px;word-spacing:-1px;fill:#ffffff;fill-opacity:1">    ,     , sacrifice this food: gain 3 life</tspan></text><g
         id="g104"
         inkscape:label="(2)"
         style="display:inline"
         transform="translate(-40.466223,11.680227)"><circle
           style="display:inline;fill:#ffffff;fill-opacity:1;stroke:none;stroke-width:2.74415;stroke-linecap:round;stroke-linejoin:round;paint-order:markers stroke fill"
           id="circle103"
           cx="48.696148"
           cy="8.7823296"
           r="1.905"
           inkscape:label="2 circle" /><text
           xml:space="preserve"
           transform="matrix(0.26458333,0,0,0.26458333,1.0468624,4.5603581)"
           id="text104"
           style="font-style:normal;font-variant:normal;font-weight:bold;font-stretch:condensed;font-size:13.3333px;line-height:1;font-family:'Rockwell Condensed';-inkscape-font-specification:'Rockwell Condensed, Bold Condensed';font-variant-ligatures:normal;font-variant-caps:normal;font-variant-numeric:normal;font-variant-east-asian:normal;text-align:start;letter-spacing:0px;word-spacing:0px;text-orientation:upright;white-space:pre;shape-inside:url(#rect108);display:inline;fill:#e183b2;fill-opacity:1;stroke:none;stroke-width:14.4;stroke-linecap:round;stroke-linejoin:round;paint-order:markers stroke fill"
           x="-35.328125"
           y="0"
           inkscape:label="2"><tspan
             x="177.35742"
             y="20.813156"
             id="tspan52"
             style="font-style:normal;font-variant:normal;font-weight:bold;font-stretch:condensed;font-size:13.3333px;font-family:'Rockwell Condensed';-inkscape-font-specification:'Rockwell Condensed, Bold Condensed';font-variant-ligatures:normal;font-variant-caps:normal;font-variant-numeric:normal;font-variant-east-asian:normal">2</tspan></text></g><g
         id="g105"
         inkscape:label="(T)"
         transform="translate(-40.99538,11.680227)"
         style="display:inline"><circle
           style="display:inline;fill:#ffffff;fill-opacity:1;stroke:none;stroke-width:2.74415;stroke-linecap:round;stroke-linejoin:round;paint-order:markers stroke fill"
           id="circle104"
           cx="54.516987"
           cy="8.7823296"
           r="1.905"
           inkscape:label="tap circle" /><path
           style="fill:none;stroke:#e183b2;stroke-width:0.508;stroke-linecap:square;stroke-linejoin:bevel;stroke-dasharray:none;stroke-opacity:1;marker-end:url(#ArrowTriangleStylized);paint-order:normal"
           d="m 54.004556,9.8107833 c 0,0 -1.346504,-2.8372729 1.202233,-1.3465019"
           id="path104"
           inkscape:label="tap symbol" /></g></g><g
       id="g84"
       inkscape:label="creature text"
       transform="translate(1.0583333,-2.1166667)"><text
         xml:space="preserve"
         style="font-style:normal;font-variant:normal;font-weight:bold;font-stretch:condensed;font-size:4.58611px;line-height:1;font-family:'Rockwell Condensed';-inkscape-font-specification:'Rockwell Condensed, Bold Condensed';font-variant-ligatures:normal;font-variant-caps:normal;font-variant-numeric:normal;font-variant-east-asian:normal;text-align:start;letter-spacing:0px;word-spacing:0px;text-orientation:upright;text-anchor:start;display:inline;fill:#ffffff;fill-opacity:1;stroke:none;stroke-width:3.81;stroke-linecap:round;stroke-linejoin:round;paint-order:markers stroke fill"
         x="51.734768"
         y="19.370655"
         id="text102"
         inkscape:label="P/T"><tspan
           sodipodi:role="line"
           id="tspan102"
           style="font-style:normal;font-variant:normal;font-weight:bold;font-stretch:condensed;font-size:4.23333px;font-family:'Rockwell Condensed';-inkscape-font-specification:'Rockwell Condensed, Bold Condensed';font-variant-ligatures:normal;font-variant-caps:normal;font-variant-numeric:normal;font-variant-east-asian:normal;text-align:start;letter-spacing:0px;text-anchor:start;fill:#ffffff;fill-opacity:1;stroke:none;stroke-width:3.81"
           x="51.734768"
           y="19.370655">1/1</tspan></text><text
         xml:space="preserve"
         style="font-style:normal;font-variant:normal;font-weight:normal;font-stretch:condensed;font-size:4.58611px;line-height:1;font-family:'Rockwell Condensed';-inkscape-font-specification:'Rockwell Condensed, Condensed';font-variant-ligatures:normal;font-variant-caps:normal;font-variant-numeric:normal;font-variant-east-asian:normal;text-align:start;letter-spacing:0px;word-spacing:-0.529167px;text-orientation:upright;text-anchor:start;fill:#ffffff;fill-opacity:1;stroke:none;stroke-width:6.35;stroke-linecap:round;stroke-linejoin:round;stroke-dasharray:none;stroke-opacity:1;paint-order:markers fill stroke"
         x="25.170298"
         y="19.585199"
         id="text78"><tspan
           sodipodi:role="line"
           style="font-style:normal;font-variant:normal;font-weight:normal;font-stretch:normal;font-size:4.58611px;font-family:'Rockwell Condensed';-inkscape-font-specification:'Rockwell Condensed, Normal';font-variant-ligatures:normal;font-variant-caps:normal;font-variant-numeric:normal;font-variant-east-asian:normal;text-align:start;text-anchor:start;stroke-width:6.35"
           x="25.170298"
           y="19.585199"
           id="tspan79">Artifact Creature</tspan></text><text
         xml:space="preserve"
         style="font-style:normal;font-variant:normal;font-weight:bold;font-stretch:condensed;font-size:7.05556px;line-height:1;font-family:'Rockwell Condensed';-inkscape-font-specification:'Rockwell Condensed, Bold Condensed';font-variant-ligatures:normal;font-variant-caps:normal;font-variant-numeric:normal;font-variant-east-asian:normal;text-align:start;letter-spacing:0px;word-spacing:-0.529167px;text-orientation:upright;text-anchor:start;display:inline;fill:#ffffff;fill-opacity:1;stroke:none;stroke-width:6.35;stroke-linecap:round;stroke-linejoin:round;stroke-dasharray:none;stroke-opacity:1;paint-order:markers fill stroke"
         x="25.066946"
         y="14.026588"
         id="text77"
         inkscape:label="text77"><tspan
           sodipodi:role="line"
           id="tspan77"
           style="font-style:normal;font-variant:normal;font-weight:bold;font-stretch:condensed;font-size:7.05556px;font-family:'Rockwell Condensed';-inkscape-font-specification:'Rockwell Condensed, Bold Condensed';font-variant-ligatures:normal;font-variant-caps:normal;font-variant-numeric:normal;font-variant-east-asian:normal;text-align:start;text-anchor:start;fill:#ffffff;fill-opacity:1;stroke:none;stroke-width:6.35;stroke-opacity:1"
           x="25.066946"
           y="14.026588">Food Golem</tspan></text></g><path
       style="fill:#ffffff;fill-opacity:1;fill-rule:nonzero;stroke:none;stroke-width:0.889;stroke-linecap:round;stroke-linejoin:round;stroke-dasharray:none;stroke-opacity:1;paint-order:markers fill stroke"
       d="m 28.764883,20.72007 c 0.03908,0.04101 0.167138,0.154749 0.439424,0.05416 0.04171,-0.01541 0.08882,-0.03543 0.145523,-0.06096 0.155425,-0.06999 0.567732,-0.277776 1.032827,-0.411535 0.379905,-0.109259 0.897777,-0.204943 1.519466,-0.147612 0.546112,0.05036 1.214679,0.222195 1.978348,0.659174 0.811693,0.465085 1.601414,0.723814 2.345272,0.830659 0.712445,0.102332 1.35453,0.0613 1.898678,-0.04509 0.534722,-0.104548 0.963643,-0.269973 1.259511,-0.411638 0.298876,-0.143105 0.460785,-0.260558 0.469893,-0.275156 l -0.191027,0.05801 c 0,-0.0073 0.212371,-0.155849 0.554058,-0.328825 a 0.01253188,0.10366075 69.988727 0 0 0.143812,-0.03351 c 0.355518,-0.180824 0.830407,-0.376939 1.377412,-0.508568 0.535185,-0.128784 1.192869,-0.208815 1.903016,-0.116617 0.661958,0.08594 1.385121,0.323356 2.108296,0.832899 0.784765,0.551933 1.531319,0.857034 2.222711,0.988639 0.68306,0.130019 1.289691,0.08636 1.796225,-0.03156 0.510429,-0.118825 0.914173,-0.311821 1.188328,-0.471197 0.28713,-0.166919 0.438897,-0.298369 0.457684,-0.309998 l -0.292361,0.113965 c 0,0.0045 0.194388,-0.159244 0.490377,-0.346928 a 0.02434221,0.17041846 65.735309 0 0 0.233864,-0.06766 c 0.32633,-0.207167 0.729049,-0.416203 1.18305,-0.567096 0.602435,-0.200226 1.150852,-0.251326 1.653344,-0.215516 0.134197,0.0096 0.259822,0.02487 0.377036,0.04296 0.216133,0.03337 0.418908,0.07664 0.608336,0.126362 0.509159,0.133652 0.93565,0.3186 1.160198,0.45557 -0.167825,-0.184216 -0.478434,-0.571779 -0.968485,-0.884046 -0.18427,-0.117419 -0.398057,-0.227306 -0.641055,-0.312659 -0.131783,-0.04629 -0.277246,-0.08777 -0.435385,-0.120684 -0.595212,-0.123894 -1.275575,-0.107209 -2.002192,0.101634 -0.543761,0.156286 -1.023871,0.394725 -1.402574,0.632779 l 0.233863,-0.06766 c -0.295989,0.186134 -0.490377,0.354489 -0.490377,0.358966 a 0.04734573,0.2827937 59.199236 0 0 -0.292361,0.113965 c 0.01879,-0.01163 -0.08406,0.09485 -0.305086,0.238113 -0.211835,0.137306 -0.533246,0.307559 -0.945797,0.418936 -0.406874,0.109844 -0.904568,0.163079 -1.477968,0.06929 -0.580939,-0.09502 -1.240021,-0.341074 -1.960277,-0.831092 -0.830621,-0.566117 -1.662758,-0.825302 -2.420033,-0.913754 -0.807386,-0.09431 -1.543874,0.0037 -2.13094,0.145012 -0.602271,0.144927 -1.121625,0.353343 -1.516473,0.542343 l 0.143812,-0.03351 c -0.341687,0.163821 -0.554058,0.299699 -0.554058,0.292368 l -0.191027,0.05801 c 0.0091,-0.0146 -0.127843,0.06903 -0.388085,0.176632 -0.258777,0.106997 -0.633515,0.234797 -1.098097,0.310159 -0.471715,0.07652 -1.023543,0.09698 -1.634083,-0.0036 -0.636166,-0.104832 -1.32102,-0.338568 -2.038159,-0.758565 -0.868839,-0.508171 -1.658777,-0.723529 -2.331999,-0.783886 -0.763653,-0.06846 -1.396044,0.06077 -1.852515,0.215408 -0.594561,0.201412 -0.984196,0.474887 -1.164002,0.63182 -0.0548,0.04783 -0.09828,0.09148 -0.131987,0.130285 -0.228189,0.262681 -0.09638,0.43104 -0.06796,0.46086 z"
       id="path87"
       sodipodi:nodetypes="cscscc"
       inkscape:path-effect="#path-effect88"
       inkscape:original-d="m 28.764883,20.72007 c 0,0 2.198291,-2.094865 5.332026,-0.280633 3.133736,1.814232 5.565889,0.187089 5.565889,0.187089 0,0 3.241953,-2.198292 6.282143,-0.09354 3.040192,2.104748 5.177038,0.140317 5.177038,0.140317 0,0 2.853102,-2.494253 5.706205,-0.140317" /></g><g
     inkscape:label="laser layers"
     inkscape:groupmode="layer"
     id="g96"
     style="display:inline"><path
       id="path88"
       style="color:#000000;display:inline;fill:#e183b2;stroke-linecap:round;stroke-linejoin:round;-inkscape-stroke:none;paint-order:markers fill stroke"
       d="M 10.527523,3.4922933 C 9.6976349,3.4921418 8.9610087,3.7493455 8.4041382,4.2302327 5.8584311,6.4310938 4.5198251,9.5098352 3.9413615,12.779065 a 0.95259524,0.95259524 0 0 0 0.9374105,1.119311 h 0.8381917 c 0.5713157,-1e-6 1.0779704,0.506653 1.0779704,1.077971 v 1.777669 c 0,0.571318 -0.5078423,1.080038 -1.0779704,1.080038 H 4.8767049 a 0.95259524,0.95259524 0 0 0 -0.9374105,1.117244 c 0.5759235,3.276811 1.9142187,6.364908 4.4648438,8.57002 0.5574249,0.482171 1.2941328,0.738231 2.1233848,0.738456 h 48.794954 c 0.829251,-2.25e-4 1.56581,-0.256602 2.122868,-0.738456 2.702708,-2.336596 4.196497,-5.623838 4.681368,-9.191171 a 0.95259524,0.95259524 0 0 0 -0.943095,-1.082104 h -1.046964 c -0.57132,0 -1.080038,-0.507842 -1.080038,-1.077971 v -1.777669 c 0,-0.570128 0.509906,-1.080037 1.080038,-1.080037 h 0.732255 a 0.95259524,0.95259524 0 0 0 0.931726,-1.152385 C 65.157128,9.148017 63.860526,6.3085746 61.492371,4.2400513 a 0.95259524,0.95259524 0 0 0 -0.0021,-0.00155 C 60.932515,3.7519384 60.193526,3.4920037 59.357617,3.4922933 Z"
       inkscape:label="cut" /><path
       id="text90"
       style="font-stretch:condensed;font-size:14.6667px;line-height:1.15;font-family:'Rockwell Condensed';-inkscape-font-specification:'Rockwell Condensed, Condensed';letter-spacing:0px;word-spacing:-1px;text-orientation:upright;white-space:pre;display:inline;fill:#ffffff;stroke-width:14.4;stroke-linecap:round;stroke-linejoin:round;paint-order:markers stroke fill"
       inkscape:label="food text"
       d="m 183.81501,11.695566 a 7.2000001,7.2000001 0 0 0 -7.19922,7.199218 7.2000001,7.2000001 0 0 0 7.19922,7.201172 7.2000001,7.2000001 0 0 0 7.20117,-7.201172 7.2000001,7.2000001 0 0 0 -7.20117,-7.199218 z m 20.00195,0 a 7.2000001,7.2000001 0 0 0 -7.20117,7.199218 7.2000001,7.2000001 0 0 0 7.20117,7.201172 7.2000001,7.2000001 0 0 0 7.19922,-7.201172 7.2000001,7.2000001 0 0 0 -7.19922,-7.199218 z m 35.14844,0 c -0.23872,0 -0.44532,0.0829 -0.61719,0.25 -0.1671,0.1671 -0.25,0.373697 -0.25,0.617187 0,0.238715 0.0829,0.443359 0.25,0.615235 0.17187,0.167101 0.37847,0.25 0.61719,0.25 0.24348,0 0.44813,-0.0829 0.61523,-0.25 0.1671,-0.171876 0.25,-0.37652 0.25,-0.615235 0,-0.24349 -0.0829,-0.450087 -0.25,-0.617187 -0.1671,-0.167102 -0.37175,-0.25 -0.61523,-0.25 z m 4.55468,0 c -0.59202,0 -1.04926,0.204643 -1.36914,0.615234 -0.31987,0.410591 -0.47851,0.96506 -0.47851,1.662109 v 1.167969 h -0.70899 v 1.246094 h 0.70899 v 5.033203 h -0.70899 v 1.246094 h 3.07813 v -1.246094 h -1.02344 v -5.033203 h 0.95313 v -1.246094 h -0.95313 v -1.167969 c 0,-0.401042 0.0245,-0.684462 0.0723,-0.851562 0.0477,-0.167101 0.15928,-0.251953 0.33593,-0.251953 0.2053,0 0.35873,0.146267 0.45899,0.4375 l 0.043,0.121094 1.23047,-0.400391 c -0.27691,-0.888022 -0.82227,-1.332031 -1.63868,-1.332031 z m 2.47071,0 c -0.23872,0 -0.44532,0.0829 -0.61719,0.25 -0.1671,0.1671 -0.25,0.373697 -0.25,0.617187 0,0.238715 0.0829,0.443359 0.25,0.615235 0.17187,0.167101 0.37847,0.25 0.61719,0.25 0.24348,0 0.44813,-0.0829 0.61523,-0.25 0.1671,-0.171876 0.25,-0.37652 0.25,-0.615235 0,-0.24349 -0.0829,-0.450087 -0.25,-0.617187 -0.1671,-0.167102 -0.37175,-0.25 -0.61523,-0.25 z m 26.36328,0 c -0.23872,0 -0.44336,0.0829 -0.61524,0.25 -0.1671,0.1671 -0.25,0.373697 -0.25,0.617187 0,0.238715 0.0829,0.443359 0.25,0.615235 0.17188,0.167101 0.37652,0.25 0.61524,0.25 0.24349,0 0.45009,-0.0829 0.61719,-0.25 0.1671,-0.171876 0.25,-0.37652 0.25,-0.615235 0,-0.24349 -0.0829,-0.450087 -0.25,-0.617187 -0.1671,-0.167102 -0.3737,-0.25 -0.61719,-0.25 z m 13.0293,0 c -0.59202,0 -1.04731,0.204643 -1.36719,0.615234 -0.31988,0.410591 -0.48047,0.96506 -0.48047,1.662109 v 1.167969 h -0.70898 v 1.246094 h 0.70898 v 5.033203 h -0.70898 v 1.246094 h 3.08007 v -1.246094 h -1.02343 v -5.033203 h 0.95117 v -1.246094 h -0.95117 v -1.167969 c 0,-0.401042 0.0226,-0.684462 0.0703,-0.851562 0.0477,-0.167101 0.16124,-0.251953 0.33789,-0.251953 0.20529,0 0.35677,0.146267 0.45703,0.4375 l 0.043,0.121094 1.23242,-0.400391 c -0.27691,-0.888022 -0.82421,-1.332031 -1.64062,-1.332031 z m 33.86328,0 c -0.23872,0 -0.44532,0.0829 -0.61719,0.25 -0.16711,0.1671 -0.25,0.373697 -0.25,0.617187 0,0.238715 0.0829,0.443359 0.25,0.615235 0.17187,0.167101 0.37847,0.25 0.61719,0.25 0.24349,0 0.44813,-0.0829 0.61523,-0.25 0.1671,-0.171876 0.25,-0.37652 0.25,-0.615235 0,-0.24349 -0.0829,-0.450087 -0.25,-0.617187 -0.1671,-0.167102 -0.37174,-0.25 -0.61523,-0.25 z m 13.62304,0 c -0.69227,0 -1.18337,0.246527 -1.4746,0.738281 -0.28646,0.486979 -0.42969,1.296222 -0.42969,2.427734 h 1.21679 c 0,-0.930991 0.0603,-1.49566 0.17969,-1.691406 0.12414,-0.200521 0.28885,-0.300781 0.49414,-0.300781 0.30556,0 0.5102,0.124782 0.61524,0.373047 0.1098,0.243489 0.16406,0.687499 0.16406,1.332031 0,0.529949 -0.0328,0.913629 -0.0996,1.152344 -0.0621,0.238715 -0.17252,0.395182 -0.33008,0.466797 -0.15278,0.07161 -0.39627,0.107421 -0.73047,0.107421 v 1.173829 c 0.44879,0 0.76389,0.14019 0.94532,0.421875 0.18142,0.27691 0.27343,0.795572 0.27343,1.554687 0,1.0408 -0.0562,1.671007 -0.16601,1.890625 -0.10982,0.219618 -0.28277,0.330078 -0.52149,0.330078 -0.3151,0 -0.52582,-0.164713 -0.63086,-0.49414 -0.10026,-0.334203 -0.15039,-0.971571 -0.15039,-1.91211 h -1.30273 c 0,1.255644 0.1658,2.166232 0.5,2.734375 0.33898,0.563369 0.86176,0.845703 1.56836,0.845703 0.69227,0 1.22525,-0.289496 1.59765,-0.867187 0.3724,-0.582466 0.5586,-1.402994 0.5586,-2.462891 0,-1.480037 -0.4757,-2.350694 -1.42578,-2.613281 v -0.0293 c 0.84028,-0.229166 1.26172,-0.991318 1.26172,-2.285156 0,-0.916668 -0.1862,-1.626735 -0.5586,-2.132813 -0.36762,-0.506077 -0.88628,-0.759765 -1.55469,-0.759765 z m 11.26758,0 c -0.23871,0 -0.44335,0.0829 -0.61523,0.25 -0.1671,0.1671 -0.25195,0.373697 -0.25195,0.617187 0,0.238715 0.0849,0.443359 0.25195,0.615235 0.17188,0.167101 0.37652,0.25 0.61523,0.25 0.24349,0 0.44813,-0.0829 0.61524,-0.25 0.1671,-0.171876 0.25195,-0.37652 0.25195,-0.615235 0,-0.24349 -0.0849,-0.450087 -0.25195,-0.617187 -0.16711,-0.167102 -0.37175,-0.25 -0.61524,-0.25 z m 4.55469,0 c -0.59202,0 -1.04731,0.204643 -1.36719,0.615234 -0.31988,0.410591 -0.48047,0.96506 -0.48047,1.662109 v 1.167969 h -0.70898 v 1.246094 h 0.70898 v 5.033203 h -0.70898 v 1.246094 h 3.08008 v -1.246094 h -1.02539 v -5.033203 h 0.95312 v -1.246094 h -0.95312 v -1.167969 c 0,-0.401042 0.0245,-0.684462 0.0723,-0.851562 0.0477,-0.167101 0.15929,-0.251953 0.33594,-0.251953 0.20529,0 0.35872,0.146267 0.45898,0.4375 l 0.043,0.121094 1.23243,-0.400391 c -0.27691,-0.888022 -0.82422,-1.332031 -1.64063,-1.332031 z m -83.16992,0.179687 v 1.246094 h 0.55859 v 8.298828 h -0.55859 v 1.246094 h 2.46289 v -1.246094 h -0.5586 v -4.839844 c 0.25304,-0.243489 0.47396,-0.365234 0.66016,-0.365234 0.29601,0 0.44336,0.257812 0.44336,0.773437 v 5.677735 h 1.90625 v -1.246094 h -0.55859 V 17.1233 c 0,-1.437068 -0.45834,-2.154297 -1.375,-2.154297 -0.33898,0 -0.699,0.164713 -1.07618,0.494141 v -3.587891 z m 33.00976,0 v 1.246094 h 0.86719 v 2.519531 h -0.0352 c -0.31987,-0.448785 -0.70551,-0.671875 -1.15429,-0.671875 -0.60634,0 -1.03711,0.309027 -1.29492,0.929688 -0.25304,0.62066 -0.38086,1.665146 -0.38086,3.130859 0,1.193578 0.14626,2.111327 0.4375,2.755859 0.296,0.644533 0.71853,0.966797 1.26757,0.966797 0.27214,0 0.49111,-0.07161 0.65821,-0.214843 0.1671,-0.14323 0.32356,-0.351996 0.46679,-0.628907 h 0.0352 v 0.757813 h 1.99024 v -1.246094 h -0.64454 v -9.544922 z m 41.36524,0 v 1.246094 h 0.53125 v 8.298828 h -0.53125 v 1.246094 h 2.32031 v -1.246094 h -0.44336 v -9.544922 z m -76.10742,1.052735 c -0.43924,0.362847 -0.88933,0.689235 -1.34766,0.980468 v 1.232422 h -0.6582 v 1.246094 h 0.6582 v 4.417969 c 0,0.682726 0.1135,1.179904 0.33789,1.490234 0.22917,0.305556 0.59136,0.457031 1.08789,0.457031 0.41059,0 0.76563,-0.05122 1.06641,-0.15625 v -1.175781 c -0.21485,0.08594 -0.39497,0.128906 -0.54297,0.128906 -0.40105,0 -0.60156,-0.247612 -0.60156,-0.74414 v -4.417969 h 0.89453 v -1.246094 h -0.89453 z m -80.03907,1.083984 c 0.72917,0 1.3201,0.232858 1.77149,0.697266 0.45138,0.460067 0.67578,1.072052 0.67578,1.835937 0,0.481769 -0.0812,0.91146 -0.2461,1.289063 -0.16058,0.377602 -0.35937,0.703126 -0.59375,0.976562 -0.23003,0.269096 -0.53754,0.583118 -0.92382,0.943359 -0.49479,0.464408 -0.86437,0.868057 -1.10743,1.210938 -0.23871,0.34288 -0.35894,0.750002 -0.36328,1.21875 h 1.88086 v -1.425781 h 1.40039 v 2.720703 h -4.83203 c 0,-0.776907 0.0751,-1.427954 0.22266,-1.953125 0.14757,-0.529511 0.32986,-0.967233 0.54687,-1.314453 0.22136,-0.347221 0.50933,-0.734811 0.86524,-1.160157 0.3993,-0.477428 0.69227,-0.895618 0.8789,-1.255859 0.19098,-0.364582 0.28711,-0.815323 0.28711,-1.353516 0,-0.711802 -0.19531,-1.068359 -0.58593,-1.068359 -0.42535,0 -0.63868,0.377608 -0.63868,1.132813 0,0.221353 0.013,0.434679 0.0391,0.638671 l -1.62696,-0.0918 c -0.009,-0.04774 -0.0137,-0.199003 -0.0137,-0.455079 0,-0.785586 0.21333,-1.414064 0.63867,-1.882812 0.42969,-0.468748 1.00413,-0.703125 1.72461,-0.703125 z m 22.75391,0.05078 0.19922,0.753906 c 0.31695,1.210157 1.47086,3.009866 2.44336,4.119141 l 0.63672,0.722656 -0.9375,-0.199218 c -1.44359,-0.303915 -3.58869,-0.426321 -4.79883,-0.109375 l -0.7461,0.191406 0.39063,-0.664063 c 0,0 0.25467,-0.443933 0.6582,-0.878906 0.0664,-0.07156 0.14099,-0.138526 0.2207,-0.201172 -1.49631,-0.708328 -2.39741,-0.823787 -2.69335,-0.751953 -0.18864,0.04578 -0.19102,0.05814 -0.25977,0.199219 -0.0687,0.14108 -0.13079,0.4508 -0.11719,0.849609 0.055,1.59524 1.24805,4.273438 1.24805,4.273438 l 0.41211,0.871094 -1.73438,0.820312 -0.41406,-0.863281 c 0,0 -1.35034,-2.677238 -1.43164,-5.035157 -0.0203,-0.589479 0.035,-1.192463 0.31055,-1.757812 0.27557,-0.565348 0.83845,-1.057404 1.52734,-1.224609 1.11912,-0.271631 2.40122,0.04891 4.17774,0.958984 0.015,-0.138358 0.0416,-0.2725 0.082,-0.398438 0.18132,-0.564939 0.43554,-1.003906 0.43554,-1.003906 z m 18.50195,0.90625 c -0.52994,0 -0.97504,0.157552 -1.33789,0.472656 -0.36285,0.310331 -0.59201,0.748263 -0.6875,1.316407 l 1.2461,0.351562 c 0.0477,-0.644532 0.29231,-0.966797 0.73632,-0.966797 0.21485,0 0.3826,0.06858 0.50196,0.207032 0.12412,0.13368 0.18554,0.448784 0.18554,0.945312 v 1.296875 c -0.29123,-0.353299 -0.6493,-0.529297 -1.07422,-0.529297 -0.5204,0 -0.94705,0.204644 -1.28125,0.615235 -0.3342,0.410591 -0.50195,0.997828 -0.50195,1.761718 0,0.687501 0.15039,1.246093 0.45117,1.675782 0.30078,0.424913 0.6875,0.636718 1.16016,0.636718 0.51085,0 0.91796,-0.243489 1.21875,-0.730468 h 0.0273 v 0.644531 h 1.9336 v -1.246094 h -0.58594 v -4.367187 c 0,-0.649306 -0.18923,-1.157769 -0.56641,-1.525391 -0.37716,-0.372396 -0.85286,-0.558594 -1.42578,-0.558594 z m 30.17188,0 c -0.7066,0 -1.22635,0.329426 -1.56055,0.988281 -0.3342,0.658855 -0.50195,1.662542 -0.50195,3.013672 0,1.346356 0.16775,2.330512 0.50195,2.951172 0.3342,0.615886 0.85807,0.923828 1.57422,0.923828 0.44401,0 0.83789,-0.174913 1.18164,-0.523437 0.34375,-0.348525 0.59744,-0.843749 0.75977,-1.488281 l -1.18946,-0.4375 c -0.0668,0.797309 -0.30729,1.195312 -0.72265,1.195312 -0.24827,0 -0.42427,-0.161675 -0.5293,-0.486328 -0.10503,-0.329428 -0.1582,-0.830728 -0.1582,-1.503906 V 19.27955 h 2.6289 v -1.146484 c 0,-1.026477 -0.1862,-1.808159 -0.55859,-2.347657 -0.36763,-0.544271 -0.84332,-0.816406 -1.42578,-0.816407 z m 33.42773,0 c -0.6875,0 -1.19596,0.315103 -1.52539,0.945313 -0.32942,0.630208 -0.49414,1.625649 -0.49414,2.986328 0,1.341581 0.16363,2.333983 0.48828,2.978515 0.32466,0.644533 0.83421,0.966797 1.53125,0.966797 1.36068,0 2.04102,-1.310544 2.04102,-3.93164 0,-2.630646 -0.68034,-3.945313 -2.04102,-3.945313 z m 5.04883,0 c -0.6875,0 -1.19596,0.315103 -1.52539,0.945313 -0.32943,0.630208 -0.49414,1.625649 -0.49414,2.986328 0,1.341581 0.16363,2.333983 0.48828,2.978515 0.32465,0.644533 0.8342,0.966797 1.53125,0.966797 1.36068,0 2.04102,-1.310544 2.04102,-3.93164 0,-2.630646 -0.68034,-3.945313 -2.04102,-3.945313 z m 21.16602,0 c -0.52996,0 -0.977,0.157552 -1.33985,0.472656 -0.36284,0.310331 -0.59201,0.748263 -0.6875,1.316407 l 1.2461,0.351562 c 0.0477,-0.644532 0.29426,-0.966797 0.73828,-0.966797 0.21484,0 0.38064,0.06858 0.5,0.207032 0.12413,0.13368 0.1875,0.448784 0.1875,0.945312 v 1.296875 c -0.29124,-0.353299 -0.64931,-0.529297 -1.07422,-0.529297 -0.5204,0 -0.949,0.204644 -1.2832,0.615235 -0.33421,0.410591 -0.5,0.997828 -0.5,1.761718 0,0.687501 0.15038,1.246093 0.45117,1.675782 0.30078,0.424913 0.6875,0.636718 1.16015,0.636718 0.51086,0 0.91601,-0.243489 1.2168,-0.730468 h 0.0293 v 0.644531 h 1.93359 v -1.246094 h -0.58789 v -4.367187 c 0,-0.649306 -0.18923,-1.157769 -0.56641,-1.525391 -0.37716,-0.372396 -0.8509,-0.558594 -1.42382,-0.558594 z m 37.12304,0 c -0.7066,0 -1.2283,0.329426 -1.5625,0.988281 -0.3342,0.658855 -0.5,1.662542 -0.5,3.013672 0,1.346356 0.1658,2.330512 0.5,2.951172 0.3342,0.615886 0.86003,0.923828 1.57618,0.923828 0.44401,0 0.83789,-0.174913 1.18164,-0.523437 0.34375,-0.348525 0.59744,-0.843749 0.75976,-1.488281 l -1.18945,-0.4375 c -0.0668,0.797309 -0.3073,1.195312 -0.72266,1.195312 -0.24826,0 -0.42621,-0.161675 -0.53125,-0.486328 -0.10504,-0.329428 -0.15625,-0.830728 -0.15625,-1.503906 V 19.27955 h 2.62696 v -1.146484 c 0,-1.026477 -0.1862,-1.808159 -0.5586,-2.347657 -0.36762,-0.544271 -0.84136,-0.816406 -1.42383,-0.816407 z m -132.46484,0.08594 c -0.38194,0 -0.70421,0.187283 -0.9668,0.564453 -0.25781,0.377171 -0.38672,0.845703 -0.38672,1.404297 0,0.458334 0.10026,0.863498 0.30078,1.216797 0.2053,0.348525 0.54601,0.709635 1.02344,1.082031 0.40104,0.315104 0.6773,0.565754 0.83008,0.751953 0.15755,0.186198 0.23633,0.468532 0.23633,0.845703 0,0.439236 -0.15039,0.658203 -0.45117,0.658203 -0.39628,0 -0.60504,-0.501301 -0.62891,-1.503906 h -1.24609 v 2.591797 h 1.24609 v -0.558594 h 0.0273 c 0.27214,0.429688 0.60049,0.644531 0.98243,0.644531 0.40581,0 0.74349,-0.186197 1.01562,-0.558593 0.27214,-0.372397 0.4082,-0.845052 0.4082,-1.417969 0,-0.558594 -0.1085,-1.018012 -0.32812,-1.38086 -0.21485,-0.367622 -0.59028,-0.743055 -1.125,-1.125 -0.3724,-0.267361 -0.62305,-0.496527 -0.75196,-0.6875 -0.12413,-0.195746 -0.18554,-0.446397 -0.18554,-0.751953 0,-0.410591 0.14431,-0.615234 0.43554,-0.615234 0.20053,0 0.34267,0.09418 0.42383,0.285156 0.0812,0.186198 0.1211,0.55447 0.1211,1.103516 h 1.24609 v -2.462891 h -1.24609 v 0.558594 h -0.0293 c -0.24349,-0.429688 -0.55967,-0.644531 -0.95117,-0.644531 z m 10.57031,0 c -0.60156,0 -1.04448,0.304903 -1.32617,0.916015 -0.27691,0.606338 -0.41406,1.587455 -0.41406,2.94336 0,1.422744 0.16579,2.435546 0.5,3.037109 0.3342,0.596789 0.88563,0.894531 1.65429,0.894531 0.56814,0 1.02952,-0.207682 1.38282,-0.623046 0.3533,-0.42014 0.54254,-1.01454 0.5664,-1.783204 l -1.20312,-0.515625 c 0,0.639758 -0.0562,1.079644 -0.16602,1.31836 -0.10981,0.233941 -0.30317,0.349609 -0.58008,0.349609 -0.26736,0 -0.45768,-0.15039 -0.57226,-0.451172 -0.10981,-0.305555 -0.16406,-0.856987 -0.16406,-1.654297 V 18.34205 c 0,-0.773438 0.044,-1.317707 0.13476,-1.632812 0.0955,-0.319879 0.28776,-0.480469 0.57422,-0.480469 0.26259,0 0.44878,0.121744 0.55859,0.365234 0.11458,0.24349 0.17188,0.669053 0.17188,1.275391 h 1.24609 v -2.728516 h -1.24609 v 0.615235 h -0.0293 c -0.25304,-0.467883 -0.61523,-0.701172 -1.08789,-0.701171 z m 6.91016,0 c -0.44401,0 -0.78472,0.101345 -1.02344,0.30664 -0.23394,0.205296 -0.47331,0.620659 -0.7168,1.246094 H 235.19 v -1.466797 h -2.02539 v 1.246094 h 0.67187 v 5.033203 h -0.67187 v 1.246094 h 2.78515 V 21.420176 H 235.19 V 18.4983 c 0,-1.346356 0.59027,-2.019531 1.76953,-2.019531 z m 12.86133,0 c -0.60156,0 -1.04254,0.304903 -1.32422,0.916015 -0.27692,0.606338 -0.41602,1.587455 -0.41602,2.94336 0,1.422744 0.16775,2.435546 0.50195,3.037109 0.3342,0.596789 0.88564,0.894531 1.6543,0.894531 0.56814,0 1.02951,-0.207682 1.38281,-0.623046 0.35331,-0.42014 0.54059,-1.01454 0.56446,-1.783204 l -1.20313,-0.515625 c 0,0.639758 -0.0542,1.079644 -0.16406,1.31836 -0.10981,0.233941 -0.30317,0.349609 -0.58008,0.349609 -0.26736,0 -0.45768,-0.15039 -0.57226,-0.451172 -0.10981,-0.305555 -0.16602,-0.856987 -0.16602,-1.654297 V 18.34205 c 0,-0.773438 0.046,-1.317707 0.13672,-1.632812 0.0955,-0.319879 0.2858,-0.480469 0.57226,-0.480469 0.26259,0 0.44878,0.121744 0.5586,0.365234 0.11458,0.24349 0.17187,0.669053 0.17187,1.275391 h 1.2461 v -2.728516 h -1.2461 v 0.615235 h -0.0273 c -0.25304,-0.467883 -0.61719,-0.701172 -1.08984,-0.701172 z m 25.88476,0 c -0.38194,0 -0.70421,0.187283 -0.9668,0.564453 -0.25781,0.377171 -0.38671,0.845703 -0.38671,1.404297 0,0.458334 0.10026,0.863498 0.30078,1.216797 0.20529,0.348525 0.54795,0.709635 1.02539,1.082031 0.40104,0.315104 0.6773,0.565754 0.83008,0.751953 0.15755,0.186198 0.23632,0.468532 0.23632,0.845703 0,0.439236 -0.15039,0.658203 -0.45117,0.658203 -0.39627,0 -0.60699,-0.501301 -0.63086,-1.503906 h -1.24609 v 2.591797 h 1.24609 v -0.558594 h 0.0293 c 0.27214,0.429688 0.59853,0.644531 0.98047,0.644531 0.40582,0 0.74544,-0.186197 1.01758,-0.558593 0.27214,-0.372397 0.4082,-0.845052 0.4082,-1.417969 0,-0.558594 -0.11046,-1.018012 -0.33008,-1.38086 -0.21485,-0.367622 -0.59028,-0.743055 -1.125,-1.125 -0.3724,-0.267361 -0.62305,-0.496527 -0.75195,-0.6875 -0.12414,-0.195746 -0.18555,-0.446397 -0.18555,-0.751953 0,-0.410591 0.14627,-0.615234 0.4375,-0.615234 0.20053,0 0.34072,0.09418 0.42188,0.285156 0.0812,0.186198 0.12109,0.55447 0.12109,1.103516 h 1.24609 v -2.462891 h -1.24609 v 0.558594 h -0.0273 c -0.24349,-0.429688 -0.56163,-0.644531 -0.95313,-0.644531 z m 33.33594,0 c -0.56815,0 -0.98655,0.287543 -1.25391,0.865234 -0.26736,0.572917 -0.40039,1.545788 -0.40039,2.916016 0,2.554256 0.55968,3.830078 1.68164,3.830078 0.24349,0 0.44705,-0.06142 0.60938,-0.185547 0.1671,-0.124132 0.34201,-0.327691 0.52344,-0.609375 h 0.0273 v 0.738281 c 0,0.997831 -0.41537,1.496094 -1.24609,1.496094 -0.29601,0 -0.6122,-0.09722 -0.95118,-0.292969 l -0.64453,0.9375 c 0.49176,0.310331 1.04319,0.466797 1.6543,0.466797 0.80686,0 1.43099,-0.253688 1.875,-0.759765 0.44879,-0.501303 0.67383,-1.214409 0.67383,-2.140625 v -5.929688 h 0.63086 v -1.246094 h -1.99219 v 0.558594 c -0.38671,-0.429688 -0.78168,-0.644531 -1.1875,-0.644531 z m 15.23828,0 c -0.44879,0 -0.82834,0.229166 -1.13867,0.6875 h -0.0352 v -0.601563 h -1.93359 v 1.246094 h 0.58789 v 5.033203 h -0.55859 v 1.246094 h 2.46289 v -1.246094 h -0.5586 v -4.576172 c 0,-0.03819 0.0675,-0.138455 0.20117,-0.300781 0.13846,-0.162327 0.29709,-0.242188 0.47852,-0.242188 0.16235,0 0.27281,0.06142 0.33008,0.185547 0.0621,0.119358 0.0937,0.331163 0.0937,0.636719 v 5.542969 h 1.9043 v -1.246094 h -0.5586 V 16.91627 c 0,-0.58724 -0.11458,-1.042535 -0.34375,-1.367188 -0.22439,-0.329427 -0.53537,-0.49414 -0.93164,-0.49414 z m -86.49023,0.08594 v 1.246094 h 0.54492 v 5.033203 h -0.54492 v 1.246094 h 2.32031 v -1.246094 h -0.42188 v -6.279297 z m 7.02539,0 v 1.246094 h 0.54492 v 5.033203 h -0.54492 v 1.246094 h 2.32031 v -1.246094 h -0.42188 v -6.279297 z m 26.36523,0 v 1.246094 h 0.54492 v 5.033203 h -0.54492 v 1.246094 h 2.32031 v -1.246094 h -0.42187 v -6.279297 z m 30.99024,0 v 1.775391 h 1.4746 v -1.775391 z m 15.90039,0 v 1.246094 h 0.54492 v 5.033203 h -0.54492 v 1.246094 h 2.32031 v -1.246094 h -0.42188 v -6.279297 z m 24.89257,0 v 1.246094 h 0.54297 v 5.033203 h -0.54297 v 1.246094 h 2.32032 v -1.246094 h -0.42383 v -6.279297 z m -87.79882,1.001953 c 0.42968,0 0.64453,0.468532 0.64453,1.404297 v 0.658203 h -1.27539 V 17.88307 c 0,-0.606338 0.043,-1.047309 0.1289,-1.324219 0.0907,-0.27691 0.25846,-0.416016 0.50196,-0.416016 z m 43.49609,0 c 0.26737,0 0.4566,0.140191 0.56641,0.421875 0.11458,0.27691 0.17187,0.72092 0.17187,1.332032 v 1.189453 c 0,0.997831 -0.0471,1.65256 -0.14258,1.96289 -0.0955,0.305557 -0.29491,0.457032 -0.5957,0.457032 -0.46788,0 -0.70117,-0.466579 -0.70117,-1.402344 v -1.705078 c 0,-0.845054 0.046,-1.432292 0.13672,-1.761719 0.0955,-0.329428 0.28277,-0.494141 0.56445,-0.494141 z m 53.26758,0 c 0.42969,0 0.64453,0.468532 0.64453,1.404297 v 0.658203 h -1.27344 V 17.88307 c 0,-0.606338 0.043,-1.047309 0.12891,-1.324219 0.0907,-0.27691 0.25651,-0.416016 0.5,-0.416016 z m -63.32227,0.07227 c 0.2435,0 0.40712,0.179036 0.48828,0.537109 0.0859,0.358074 0.12891,1.074218 0.12891,2.148438 0,0.97396 -0.0358,1.665581 -0.10742,2.076172 -0.0668,0.410591 -0.23763,0.615234 -0.50977,0.615234 -0.16232,0 -0.28407,-0.06142 -0.36523,-0.185547 -0.0812,-0.128906 -0.13954,-0.38368 -0.17774,-0.765625 -0.0382,-0.381945 -0.0586,-0.968098 -0.0586,-1.755859 0,-1.078995 0.0419,-1.792101 0.12305,-2.140625 0.0812,-0.353299 0.2398,-0.529297 0.47851,-0.529297 z m 5.04883,0 c 0.24349,0 0.40711,0.179036 0.48828,0.537109 0.0859,0.358074 0.12891,1.074218 0.12891,2.148438 0,0.97396 -0.0358,1.665581 -0.10742,2.076172 -0.0668,0.410591 -0.23764,0.615234 -0.50977,0.615234 -0.16233,0 -0.28407,-0.06142 -0.36523,-0.185547 -0.0812,-0.128906 -0.13954,-0.38368 -0.17774,-0.765625 -0.0382,-0.381945 -0.0586,-0.968098 -0.0586,-1.755859 0,-1.078995 0.0419,-1.792101 0.12304,-2.140625 0.0812,-0.353299 0.2398,-0.529297 0.47852,-0.529297 z m 15.85156,0.01367 c 0.30556,0 0.50304,0.182074 0.59375,0.544922 0.0955,0.358073 0.14453,1.075302 0.14453,2.154297 v 0.789062 c 0,1.136286 -0.24652,1.703125 -0.73828,1.703125 -0.25781,0 -0.43988,-0.183159 -0.54492,-0.550781 -0.10503,-0.367622 -0.15625,-1.059244 -0.15625,-2.076172 0,-0.916668 0.043,-1.574436 0.12891,-1.970703 0.0859,-0.396268 0.27625,-0.59375 0.57226,-0.59375 z m -84.52734,2.951172 c 0.24826,0 0.47135,0.115667 0.67187,0.349609 v 1.654297 c -0.20529,0.262587 -0.42839,0.394531 -0.67187,0.394531 -0.51085,0 -0.76758,-0.393879 -0.76758,-1.18164 0,-0.811634 0.25673,-1.216797 0.76758,-1.216797 z m 89.8125,0 c 0.24827,0 0.47331,0.115667 0.67383,0.349609 v 1.654297 c -0.2053,0.262587 -0.43034,0.394531 -0.67383,0.394531 -0.51085,0 -0.76563,-0.393879 -0.76563,-1.18164 0,-0.811634 0.25478,-1.216797 0.76563,-1.216797 z m -121.41016,1.710937 v 1.775391 h 0.58594 c 0,0.97396 -0.24045,1.538628 -0.72266,1.691406 v 0.730469 c 0.52995,-0.09071 0.93099,-0.348524 1.20313,-0.773438 0.27214,-0.420139 0.4082,-0.970484 0.4082,-1.648437 v -1.775391 z m 20.17969,0 v 1.775391 h 0.58594 c 0,0.97396 -0.24045,1.538628 -0.72266,1.691406 v 0.730469 c 0.52995,-0.09071 0.93099,-0.348524 1.20313,-0.773438 0.27213,-0.420139 0.4082,-0.970484 0.4082,-1.648437 v -1.775391 z m 88.60938,0 v 1.775391 h 1.4746 v -1.775391 z"
       transform="matrix(0.26458333,0,0,0.26458333,-35.15614,19.792523)" /><path
       id="text93"
       style="font-weight:bold;font-stretch:condensed;font-size:4.23333px;line-height:1;font-family:'Rockwell Condensed';-inkscape-font-specification:'Rockwell Condensed, Bold Condensed';letter-spacing:0px;word-spacing:0px;text-orientation:upright;display:inline;fill:#ffffff;stroke-width:3.81;stroke-linecap:round;stroke-linejoin:round;paint-order:markers stroke fill"
       inkscape:label="artifact creature 1/1"
       d="m 30.349569,16.15457 c -0.07464,0 -0.13849,0.02629 -0.192237,0.07855 -0.05225,0.05225 -0.07855,0.116099 -0.07855,0.192236 0,0.07464 0.0263,0.139007 0.07855,0.192753 0.05374,0.05225 0.117593,0.07855 0.192237,0.07855 0.07613,0 0.140499,-0.0263 0.192753,-0.07855 0.05225,-0.05374 0.07855,-0.11811 0.07855,-0.192753 0,-0.07613 -0.0263,-0.139983 -0.07855,-0.192236 -0.05225,-0.05225 -0.116617,-0.07855 -0.192753,-0.07855 z m 1.424202,0 c -0.185116,0 -0.327341,0.06436 -0.427364,0.192753 -0.100023,0.128387 -0.150378,0.301389 -0.150378,0.519348 v 0.364835 h -0.221692 v 0.389641 h 0.221692 v 1.574581 h -0.221692 v 0.38964 h 0.963248 v -0.38964 h -0.320393 v -1.574581 h 0.297656 v -0.389641 h -0.297656 v -0.364835 c 0,-0.125399 0.0073,-0.214397 0.02222,-0.266651 0.01493,-0.05225 0.05019,-0.07803 0.10542,-0.07803 0.0642,0 0.111797,0.04536 0.143144,0.136426 l 0.01344,0.03824 0.385506,-0.125573 C 32.200332,16.293407 32.029053,16.15457 31.773771,16.15457 Z m 6.524666,0 c -0.458312,0 -0.687296,0.593418 -0.687296,1.780253 0,0.574756 0.06494,1.003039 0.19482,1.285192 0.12988,0.28066 0.329179,0.421163 0.597896,0.421163 0.21796,0 0.389813,-0.101343 0.515214,-0.304374 0.125388,-0.204524 0.189237,-0.483864 0.192237,-0.837675 l -0.418579,-0.116272 c 0,0.291111 -0.02239,0.499367 -0.06718,0.624768 -0.04479,0.125402 -0.115353,0.188103 -0.21239,0.188103 -0.11346,0 -0.189023,-0.08676 -0.226343,-0.259933 -0.03583,-0.173173 -0.05374,-0.526985 -0.05374,-1.061434 0,-0.388147 0.0061,-0.668061 0.01809,-0.839742 0.01195,-0.173175 0.03325,-0.289046 0.0646,-0.347265 0.03284,-0.05822 0.08544,-0.08733 0.157097,-0.08733 0.09703,0 0.171505,0.06046 0.223759,0.181385 0.05225,0.120922 0.07855,0.295589 0.07855,0.523999 h 0.40721 V 16.21038 h -0.40721 v 0.163814 h -0.0093 c -0.0836,-0.146301 -0.20619,-0.219624 -0.36742,-0.219624 z m -12.702583,0.05581 v 0.407727 h 0.235127 l -0.371553,2.559534 h -0.21084 v 0.407727 h 0.902787 v -0.407727 h -0.214974 l 0.08268,-0.765845 h 0.403076 l 0.08268,0.765845 h -0.214974 v 0.407727 H 27.19265 V 19.177641 H 26.981816 L 26.610262,16.618107 H 26.84539 V 16.21038 Z m 27.108423,0.155029 c -0.177767,0.19017 -0.382406,0.308681 -0.613916,0.355534 v 0.432015 c 0.08957,-0.01378 0.168809,-0.03514 0.237711,-0.06408 v 1.837614 h -0.237711 v 0.444418 h 1.087272 v -0.444418 h -0.231511 v -2.561084 z m 4.274674,0 c -0.177767,0.19017 -0.382406,0.308681 -0.613916,0.355534 v 0.432015 c 0.08957,-0.01378 0.16881,-0.03514 0.237712,-0.06408 v 1.837614 h -0.237712 v 0.444418 h 1.087272 v -0.444418 h -0.23151 v -2.561084 z m -1.680518,0.03307 -1.527555,3.032373 h 0.47749 l 1.53169,-3.032373 z M 26.19375,16.499251 h 0.05374 l 0.143144,1.502751 H 26.05009 Z m 3.197738,0.04031 c -0.137345,0.113458 -0.277848,0.215893 -0.421163,0.306958 v 0.384989 h -0.206189 v 0.389641 h 0.206189 v 1.381827 c 0,0.213482 0.03525,0.368567 0.10542,0.465605 0.07166,0.09554 0.184771,0.143661 0.340031,0.143661 0.128386,0 0.239778,-0.01676 0.333829,-0.04961 V 19.19573 c -0.06718,0.02687 -0.123735,0.04031 -0.170015,0.04031 -0.125401,0 -0.188102,-0.0778 -0.188102,-0.233061 v -1.381827 h 0.279569 v -0.389641 h -0.279569 z m 6.597013,0 c -0.137344,0.113458 -0.277847,0.215893 -0.421163,0.306958 v 0.384989 h -0.206189 v 0.389641 h 0.206189 v 1.381827 c 0,0.213482 0.03525,0.368569 0.10542,0.465605 0.07166,0.09554 0.184772,0.143661 0.340031,0.143661 0.128387,0 0.239779,-0.01676 0.33383,-0.04961 V 19.19573 c -0.06718,0.02687 -0.123736,0.04031 -0.170016,0.04031 -0.125402,0 -0.188102,-0.0778 -0.188102,-0.233061 v -1.381827 h 0.279569 v -0.389641 h -0.279569 z m 8.591207,0 c -0.137344,0.113458 -0.27733,0.215893 -0.420646,0.306958 v 0.384989 h -0.206189 v 0.389641 h 0.206189 v 1.381827 c 0,0.213482 0.03474,0.368569 0.104903,0.465605 0.07166,0.09554 0.185288,0.143661 0.340548,0.143661 0.128387,0 0.239779,-0.01676 0.333829,-0.04961 V 19.19573 c -0.06718,0.02687 -0.124252,0.04031 -0.170532,0.04031 -0.125401,0 -0.188102,-0.0778 -0.188102,-0.233061 v -1.381827 h 0.280086 v -0.389641 h -0.280086 z m -11.741919,0.638204 c -0.165709,0 -0.305637,0.04927 -0.419096,0.147794 -0.113456,0.09704 -0.185114,0.234727 -0.214974,0.412378 l 0.38964,0.109554 c 0.01493,-0.201537 0.09216,-0.302307 0.230994,-0.302307 0.06718,0 0.11926,0.02182 0.15658,0.06511 0.03881,0.0418 0.05839,0.14033 0.05839,0.295589 v 0.405143 c -0.09107,-0.110473 -0.203031,-0.165881 -0.335897,-0.165881 -0.162723,0 -0.296508,0.06437 -0.401009,0.192753 -0.104501,0.128387 -0.15658,0.312011 -0.15658,0.550871 0,0.214973 0.04703,0.38964 0.141077,0.523999 0.09405,0.132865 0.214975,0.199471 0.362769,0.199471 0.159738,0 0.286288,-0.07614 0.380338,-0.22841 h 0.0093 v 0.201538 h 0.604614 v -0.38964 h -0.183968 v -1.366325 c 0,-0.203031 -0.0588,-0.362023 -0.176733,-0.476974 -0.117937,-0.116444 -0.266307,-0.174666 -0.445451,-0.174666 z m 8.544181,0 c -0.220946,0 -0.383325,0.103008 -0.487825,0.309025 -0.104502,0.206016 -0.157097,0.520611 -0.157097,0.943095 0,0.420989 0.05259,0.72835 0.157097,0.922424 0.1045,0.192581 0.268545,0.288871 0.492476,0.288871 0.138837,0 0.261999,-0.05432 0.369487,-0.163297 0.107484,-0.108979 0.186434,-0.264584 0.237194,-0.466122 l -0.371553,-0.136425 c -0.0209,0.249309 -0.09646,0.374137 -0.226343,0.374137 -0.07763,0 -0.132525,-0.05093 -0.165364,-0.152445 -0.03284,-0.103008 -0.04961,-0.259761 -0.04961,-0.470256 v -0.100769 h 0.822172 v -0.358118 c 0,-0.320967 -0.05822,-0.566144 -0.174666,-0.734839 -0.114951,-0.170187 -0.263837,-0.255281 -0.445968,-0.255281 z m 1.625741,0 c -0.165709,0 -0.305121,0.04927 -0.418579,0.147794 -0.113456,0.09704 -0.185114,0.234727 -0.214974,0.412378 l 0.38964,0.109554 c 0.01493,-0.201537 0.09164,-0.302307 0.230477,-0.302307 0.06718,0 0.119776,0.02182 0.157096,0.06511 0.03881,0.0418 0.05788,0.14033 0.05788,0.295589 v 0.405143 c -0.09107,-0.110473 -0.203032,-0.165881 -0.335897,-0.165881 -0.162723,0 -0.295991,0.06437 -0.400492,0.192753 -0.104502,0.128387 -0.157097,0.312011 -0.157097,0.550871 0,0.214973 0.04703,0.38964 0.141077,0.523999 0.09405,0.132865 0.214974,0.199471 0.362769,0.199471 0.159737,0 0.286804,-0.07614 0.380855,-0.22841 h 0.0088 v 0.201538 h 0.604614 v -0.38964 h -0.183451 v -1.366325 c 0,-0.203031 -0.0588,-0.362023 -0.176734,-0.476974 -0.117936,-0.116444 -0.266822,-0.174666 -0.445967,-0.174666 z m 5.871476,0 c -0.220945,0 -0.383324,0.103008 -0.487826,0.309025 -0.104501,0.206016 -0.157096,0.520611 -0.157096,0.943095 0,0.420989 0.05259,0.72835 0.157096,0.922424 0.104502,0.192581 0.268546,0.288871 0.492477,0.288871 0.138837,0 0.261999,-0.05432 0.369486,-0.163297 0.107485,-0.108979 0.186435,-0.264584 0.237195,-0.466122 l -0.371553,-0.136425 c -0.0209,0.249309 -0.09646,0.374137 -0.226343,0.374137 -0.07763,0 -0.132525,-0.05093 -0.165365,-0.152445 -0.03284,-0.103008 -0.04961,-0.259761 -0.04961,-0.470256 v -0.100769 h 0.822172 v -0.358118 c 0,-0.320967 -0.05822,-0.566144 -0.174666,-0.734839 -0.114952,-0.170187 -0.263838,-0.255281 -0.445967,-0.255281 z m -20.325374,0.02687 c -0.138838,0 -0.245234,0.03244 -0.319877,0.09663 -0.07315,0.06419 -0.14814,0.194073 -0.224276,0.38964 h -0.0088 v -0.459404 h -0.63407 v 0.389641 h 0.21084 v 1.574581 h -0.21084 v 0.38964 h 0.871265 v -0.38964 H 28.00086 v -0.91364 c 0,-0.42099 0.184198,-0.631486 0.552938,-0.631486 z m 5.860107,0 c -0.188102,0 -0.325849,0.09572 -0.413928,0.286804 -0.08659,0.189595 -0.130225,0.496382 -0.130225,0.920357 0,0.444876 0.05259,0.761194 0.157097,0.949296 0.104501,0.186609 0.276928,0.280086 0.517281,0.280086 0.177652,0 0.321542,-0.06494 0.432015,-0.19482 0.11047,-0.131372 0.169266,-0.317235 0.176733,-0.557588 l -0.375688,-0.161231 c 0,0.200045 -0.01734,0.337218 -0.05168,0.411861 -0.03434,0.07315 -0.0948,0.110071 -0.181384,0.110071 -0.0836,0 -0.143491,-0.04703 -0.179318,-0.141077 -0.03433,-0.09554 -0.05116,-0.267971 -0.05116,-0.517281 v -0.358634 c 0,-0.241845 0.01401,-0.412033 0.04237,-0.510563 0.02986,-0.100023 0.08975,-0.149862 0.179318,-0.149862 0.08211,0 0.140333,0.03807 0.174666,0.114205 0.03583,0.07614 0.05374,0.20883 0.05374,0.398425 h 0.38964 v -0.853178 h -0.38964 v 0.192753 h -0.0093 c -0.07912,-0.146301 -0.192753,-0.219624 -0.340548,-0.219624 z m 6.166549,0 c -0.138837,0 -0.245233,0.03244 -0.319877,0.09663 -0.07315,0.06419 -0.148139,0.194073 -0.224276,0.38964 h -0.0088 v -0.459404 h -0.63407 v 0.389641 h 0.21084 v 1.574581 h -0.21084 v 0.38964 h 0.871265 v -0.38964 h -0.237195 v -0.91364 c 0,-0.42099 0.184198,-0.631486 0.552938,-0.631486 z m 7.497217,0 c -0.138838,0 -0.245234,0.03244 -0.319878,0.09663 -0.07315,0.06419 -0.148139,0.194073 -0.224275,0.38964 h -0.0088 v -0.459404 h -0.63407 v 0.389641 h 0.21084 v 1.574581 h -0.21084 v 0.38964 h 0.871265 v -0.38964 h -0.237195 v -0.91364 c 0,-0.42099 0.184198,-0.631486 0.552938,-0.631486 z m -18.09502,0.02687 v 0.389641 h 0.170015 v 1.574581 h -0.170015 v 0.38964 h 0.725537 v -0.38964 h -0.132292 v -1.964222 z m 15.143778,0 v 0.389641 h 0.192237 v 1.408699 c 0,0.388147 0.133211,0.582394 0.398942,0.582394 0.14033,0 0.259588,-0.07166 0.358118,-0.214974 h 0.0088 v 0.188102 h 0.609265 v -0.38964 h -0.188103 v -1.964222 h -0.626835 v 0.389641 h 0.205673 v 1.43092 c 0,0.01194 -0.0213,0.04329 -0.0646,0.09405 -0.0418,0.05076 -0.09049,0.07648 -0.145728,0.07648 -0.05225,0 -0.08808,-0.01901 -0.107487,-0.05633 -0.01791,-0.03881 -0.02687,-0.104903 -0.02687,-0.198954 V 17.2315 Z m -3.748608,0.313676 c 0.134359,0 0.201538,0.14613 0.201538,0.438733 v 0.206189 h -0.398942 v -0.100769 c 0,-0.189594 0.01343,-0.327858 0.04031,-0.414445 0.02836,-0.08659 0.08096,-0.129708 0.157096,-0.129708 z m 7.497217,0 c 0.134358,0 0.201538,0.14613 0.201538,0.438733 v 0.206189 h -0.398942 v -0.100769 c 0,-0.189594 0.01343,-0.327858 0.04031,-0.414445 0.02836,-0.08659 0.08096,-0.129708 0.157096,-0.129708 z m -16.046566,0.949296 c 0.07763,0 0.14814,0.03692 0.21084,0.110071 v 0.517281 c -0.06419,0.08211 -0.134703,0.12299 -0.21084,0.12299 -0.159737,0 -0.239262,-0.123163 -0.239262,-0.369486 0,-0.253789 0.07953,-0.380856 0.239262,-0.380856 z m 10.170439,0 c 0.07763,0 0.147623,0.03692 0.210323,0.110071 v 0.517281 c -0.06419,0.08211 -0.134187,0.12299 -0.210323,0.12299 -0.159737,0 -0.239779,-0.123163 -0.239779,-0.369486 0,-0.253789 0.08004,-0.380856 0.239779,-0.380856 z"
       transform="translate(1.5875,-2.1166667)" /><path
       d="m 25.242646,14.026588 v -0.740696 h 0.430637 V 9.8132339 h -0.430637 v -0.740696 h 3.386531 V 10.646948 H 27.747232 V 9.8132339 h -0.895725 v 1.3125821 h 0.664904 v 0.740696 h -0.664904 v 1.41938 h 0.471978 v 0.740696 z m 4.557864,0.09991 q -0.640788,0 -1.050755,-0.509874 -0.409966,-0.51332 -0.409966,-1.319473 0,-0.802707 0.406521,-1.312582 0.406522,-0.513319 1.0542,-0.513319 0.633898,0 1.04042,0.513319 0.409966,0.509875 0.409966,1.312582 0,0.806153 -0.409966,1.319473 -0.406522,0.509874 -1.04042,0.509874 z m 0,-2.866321 q -0.206706,0 -0.299723,0.251492 -0.08957,0.251492 -0.08957,0.785482 0,0.533991 0.08957,0.785483 0.09302,0.251492 0.299723,0.251492 0.378961,0 0.378961,-1.036975 0,-1.036974 -0.378961,-1.036974 z m 3.379641,2.866321 q -0.640788,0 -1.050755,-0.509874 -0.409967,-0.51332 -0.409967,-1.319473 0,-0.802707 0.406522,-1.312582 0.406521,-0.513319 1.0542,-0.513319 0.633898,0 1.040419,0.513319 0.409967,0.509875 0.409967,1.312582 0,0.806153 -0.409967,1.319473 -0.406521,0.509874 -1.040419,0.509874 z m 0,-2.866321 q -0.206706,0 -0.299724,0.251492 -0.08957,0.251492 -0.08957,0.785482 0,0.533991 0.08957,0.785483 0.09302,0.251492 0.299724,0.251492 0.378961,0 0.378961,-1.036975 0,-1.036974 -0.378961,-1.036974 z m 4.936825,2.766413 h -1.367704 v -0.275607 q -0.279053,0.323839 -0.658014,0.323839 -0.478868,0 -0.740696,-0.482314 -0.258382,-0.482314 -0.258382,-1.384929 0,-0.881945 0.285943,-1.288467 0.285943,-0.406521 0.706245,-0.406521 0.420302,0 0.651123,0.368625 h 0.01378 V 9.8132339 h -0.33073 v -0.740696 h 1.360814 v 4.2133541 h 0.33762 z m -1.367704,-1.271241 v -0.7028 q 0,-0.389296 -0.06201,-0.551215 -0.05857,-0.16192 -0.220486,-0.16192 -0.179145,0 -0.241157,0.196371 -0.06201,0.192925 -0.06201,0.761366 0,0.599447 0.05168,0.819934 0.05512,0.217041 0.244602,0.217041 0.151584,0 0.220486,-0.130914 0.0689,-0.134359 0.0689,-0.447863 z m 5.720241,-0.303168 h -0.33073 v -0.740696 h 1.502063 q 0,0.685574 -0.09302,1.102431 -0.09302,0.413412 -0.306613,0.70969 -0.213596,0.296279 -0.52021,0.440973 -0.303169,0.141249 -0.68902,0.141249 -0.795817,0 -1.254015,-0.654569 -0.458198,-0.658014 -0.458198,-1.874133 0,-1.226455 0.37207,-1.901694 0.372071,-0.6786842 1.043865,-0.6786842 0.451308,0 0.771702,0.4444176 h 0.01378 V 9.0725379 h 0.788928 v 1.6880981 h -0.788928 q -0.01033,-0.468533 -0.144694,-0.699355 -0.130914,-0.2342667 -0.3514,-0.2342667 -0.265272,0 -0.341064,0.3066137 -0.07235,0.303169 -0.07235,1.302247 0,0.792372 0.03445,1.178223 0.0379,0.382406 0.127469,0.52021 0.08957,0.137804 0.265273,0.137804 0.420302,0 0.430637,-0.819933 z m 3.035131,1.674317 q -0.640788,0 -1.050755,-0.509874 -0.409966,-0.51332 -0.409966,-1.319473 0,-0.802707 0.406521,-1.312582 0.406522,-0.513319 1.0542,-0.513319 0.633898,0 1.04042,0.513319 0.409966,0.509875 0.409966,1.312582 0,0.806153 -0.409966,1.319473 -0.406522,0.509874 -1.04042,0.509874 z m 0,-2.866321 q -0.206706,0 -0.299723,0.251492 -0.08957,0.251492 -0.08957,0.785482 0,0.533991 0.08957,0.785483 0.09302,0.251492 0.299723,0.251492 0.378961,0 0.378961,-1.036975 0,-1.036974 -0.378961,-1.036974 z m 1.77078,2.766413 v -0.740696 h 0.385851 V 9.8132339 h -0.385851 v -0.740696 h 1.415935 v 4.2133541 h 0.341065 v 0.740696 z m 3.813722,-1.078315 0.854385,0.316949 q -0.158475,0.413412 -0.485759,0.637343 -0.327284,0.223931 -0.757922,0.223931 -1.302247,0 -1.302247,-1.870688 0,-0.881945 0.347955,-1.333253 0.3514,-0.451307 0.985298,-0.451307 0.551216,0 0.906061,0.423747 0.354845,0.423747 0.354845,1.233345 v 0.323839 h -1.57441 q 0,0.575331 0.06546,0.754476 0.0689,0.179145 0.254938,0.179145 0.158474,0 0.237711,-0.106798 0.07924,-0.110243 0.113688,-0.330729 z m -0.671794,-1.009414 h 0.544326 v -0.16881 q 0,-0.592556 -0.268718,-0.592556 -0.158474,0 -0.217041,0.18259 -0.05857,0.179145 -0.05857,0.578776 z m 1.946482,2.087729 v -0.740696 h 0.347955 V 11.311851 H 52.363834 V 10.56771 h 1.378039 v 0.368626 h 0.02067 q 0.341064,-0.423747 0.754476,-0.423747 0.482314,0 0.747586,0.465088 0.261828,-0.241157 0.471979,-0.3514 0.210151,-0.113688 0.444417,-0.113688 0.409967,0 0.654569,0.320394 0.248047,0.320394 0.248047,0.906061 v 1.546848 h 0.368625 v 0.740696 h -1.398709 v -2.166966 q 0,-0.296278 -0.0689,-0.427192 -0.0689,-0.130914 -0.234267,-0.130914 -0.165365,0 -0.337619,0.179145 v 1.805231 h 0.289388 v 0.740696 h -1.319473 v -2.166966 q 0,-0.299724 -0.0689,-0.427192 -0.0689,-0.130914 -0.227376,-0.130914 -0.18259,0 -0.34451,0.179145 v 1.805231 h 0.289388 v 0.740696 z"
       id="text95"
       style="font-weight:bold;font-stretch:condensed;font-size:7.05556px;line-height:1;font-family:'Rockwell Condensed';-inkscape-font-specification:'Rockwell Condensed, Bold Condensed';letter-spacing:0px;word-spacing:-0.529167px;text-orientation:upright;display:inline;fill:#ffffff;stroke-width:6.35;stroke-linecap:round;stroke-linejoin:round;paint-order:markers fill stroke"
       inkscape:label="food golem"
       aria-label="Food Golem"
       transform="translate(1.5875,-2.1166667)" /><path
       id="path89"
       style="display:inline;fill:#ffffff;fill-opacity:1;stroke:none;stroke-width:0.381;stroke-linecap:round;stroke-linejoin:round;stroke-dasharray:none;stroke-opacity:1;paint-order:markers stroke fill"
       inkscape:label="ginger shadow"
       d="m 17.316858,5.3888986 c -1.692504,-0.1401334 -3.178009,1.1186137 -3.317786,2.8111477 -0.105255,1.3111139 0.635287,2.5439177 1.842128,3.0670217 -1.30156,0.904196 -1.823022,0.673202 -2.267112,0.421941 -0.463723,-0.262362 -0.738143,-0.736873 -0.738143,-0.736873 -0.316521,-0.61472 -1.071309,-0.856614 -1.685899,-0.539821 -0.614561,0.316698 -0.85623,1.071973 -0.539339,1.686448 0,0 0.532082,1.0909 1.730796,1.769125 0.812806,0.45987 2.02114,0.421527 3.307938,0.03604 0.01511,0.300366 0.03104,0.552667 0.04482,0.876621 0.03168,0.745713 0.03666,0.994291 0.05392,1.501269 -0.380293,0.02782 -0.4198,-0.08124 -0.883809,0.08319 -1.25721,0.445455 -2.663677,1.751365 -2.991586,4.015474 -0.09948,0.684056 0.374827,1.31886 1.058899,1.418295 0.684821,0.09924 1.319748,-0.376017 1.417916,-1.060996 0.220668,-1.523769 0.780412,-1.810606 1.350589,-2.012636 0.570199,-0.202061 1.123025,-0.121811 1.123025,-0.121811 0.373735,0.06584 0.756638,-0.04116 1.042002,-0.291315 0.06955,0.44485 0.216675,1.069888 0.537798,1.695229 0.294266,0.573025 0.785655,1.208269 1.587643,1.536492 0.802003,0.32818 1.785757,0.249551 2.744461,-0.183873 0.629283,-0.285107 0.907948,-1.026578 0.623307,-1.65606 -0.284536,-0.629799 -1.025534,-0.90968 -1.655409,-0.625335 -0.534579,0.241688 -0.691783,0.178935 -0.763374,0.149636 -0.07157,-0.02933 -0.186704,-0.1231 -0.310563,-0.364325 -0.247747,-0.482436 -0.326127,-1.284075 -0.326127,-1.284075 -6.06e-4,-0.0091 -6.21e-4,-0.01796 -0.0013,-0.02701 0,0 -0.09477,-1.394828 -0.181088,-2.786744 -0.02977,-0.479778 -0.0518,-0.894053 -0.07504,-1.314151 0.239263,0.04937 0.685404,0.04072 0.819646,0.104722 0.337015,0.160635 0.414285,0.293379 0.482439,0.451771 0.136307,0.316766 0.04241,0.795155 0.04241,0.795155 -0.203958,0.660446 0.166084,1.361188 0.826542,1.565092 0.660439,0.203964 1.361719,-0.166034 1.565609,-0.826508 0,0 0.428495,-1.213632 -0.135224,-2.523746 -0.281855,-0.655054 -0.862012,-1.319922 -1.703911,-1.721264 -0.761691,-0.363101 -1.706626,-0.534476 -2.888748,-0.511307 0.61771,-0.524458 1.003405,-1.2717332 1.073237,-2.0790629 0.131319,-1.586554 -0.966339,-2.9911766 -2.498511,-3.2759663 -0.102146,-0.018982 -0.206347,-0.033036 -0.312122,-0.041786 z" /><path
       id="path90"
       style="display:inline;fill:#84420a;fill-opacity:1;stroke:none;stroke-width:0.381;stroke-linecap:round;stroke-linejoin:round;stroke-dasharray:none;stroke-opacity:1;paint-order:markers stroke fill"
       inkscape:label="running ginger"
       d="m 17.6292,5.4306774 c -0.102146,-0.018982 -0.206414,-0.033174 -0.312188,-0.041924 -1.692508,-0.1401336 -3.177927,1.1186412 -3.317704,2.8111786 -0.105256,1.3111165 0.635276,2.543882 1.842119,3.066986 -1.301563,0.904198 -1.823221,0.673576 -2.267314,0.422315 -0.463723,-0.262362 -0.738233,-0.73719 -0.738233,-0.73719 -0.316521,-0.614721 -1.071456,-0.85649 -1.686048,-0.539696 -0.614562,0.316698 -0.85576,1.071728 -0.538868,1.686204 0,0 0.531779,1.091034 1.730497,1.769262 0.812808,0.45987 2.021009,0.421416 3.307809,0.03593 0.01511,0.300366 0.03117,0.553079 0.04494,0.877034 0.03168,0.745715 0.03667,0.994155 0.05393,1.501135 -0.380293,0.02782 -0.419976,-0.08112 -0.883984,0.0833 -1.257214,0.445456 -2.663327,1.751029 -2.991237,4.015142 -0.09948,0.684058 0.37454,1.319167 1.058614,1.418602 0.684823,0.09924 1.320084,-0.376291 1.418252,-1.06127 0.220671,-1.523774 0.780308,-1.81058 1.350488,-2.012612 0.570199,-0.202062 1.122681,-0.121553 1.122681,-0.121553 0.373736,0.06584 0.75693,-0.04138 1.042296,-0.291533 0.06955,0.444852 0.216435,1.069818 0.537558,1.695161 0.294266,0.573025 0.785906,1.208595 1.587896,1.536818 0.802006,0.328182 1.785489,0.249157 2.744195,-0.184267 0.629285,-0.285109 0.908269,-1.026173 0.623628,-1.655657 -0.284535,-0.6298 -1.025377,-0.910059 -1.655254,-0.625714 -0.534578,0.241688 -0.692208,0.178883 -0.763799,0.149584 -0.07157,-0.02933 -0.186373,-0.122731 -0.310231,-0.363957 -0.247748,-0.482438 -0.326142,-1.284174 -0.326142,-1.284174 -6.06e-4,-0.0091 -0.001,-0.01804 -0.0017,-0.02709 0,0 -0.09453,-1.394776 -0.18084,-2.786694 -0.02977,-0.479778 -0.05159,-0.893854 -0.07484,-1.313954 0.239263,0.04937 0.685121,0.0405 0.819362,0.104513 0.337017,0.160637 0.414291,0.293074 0.482445,0.451467 0.136309,0.316766 0.04251,0.795421 0.04251,0.795421 -0.20396,0.660448 0.166239,1.361288 0.8267,1.565194 0.660438,0.203964 1.3613,-0.166225 1.56519,-0.826699 0,0 0.428538,-1.213582 -0.135183,-2.523697 C 23.36489,12.363186 22.784699,11.698582 21.942799,11.29724 21.181106,10.934139 20.236626,10.762497 19.054502,10.785666 19.672214,10.261207 20.05784,9.5140996 20.127672,8.7067682 20.258992,7.120211 19.161306,5.7154375 17.629129,5.4306471 Z m 0.225402,2.5281058 a 0.4383754,0.4383754 0 0 1 0.365424,0.4427686 0.4383754,0.4383754 0 0 1 -0.448294,0.4278049 0.4383754,0.4383754 0 0 1 -0.428223,-0.4483746 0.4383754,0.4383754 0 0 1 0.448792,-0.4281411 0.4383754,0.4383754 0 0 1 0.06229,0.00596 z m -2.641761,-0.061032 a 0.4383754,0.4383754 0 0 1 0.365917,0.4424302 0.4383754,0.4383754 0 0 1 -0.44829,0.427806 0.4383754,0.4383754 0 0 1 -0.428226,-0.4483731 0.4383754,0.4383754 0 0 1 0.448295,-0.427805 0.4383754,0.4383754 0 0 1 0.06231,0.00592 z m 2.606908,1.3348977 a 0.18775596,0.18775596 0 0 1 0.126262,0.1805273 c -0.0071,0.3055702 -0.215087,0.5587712 -0.494186,0.7202358 -0.279124,0.161463 -0.641888,0.248957 -1.037524,0.239794 -0.395741,-0.0091 -0.753935,-0.113646 -1.02536,-0.287873 -0.271439,-0.1742451 -0.46732,-0.4363263 -0.460224,-0.7419763 a 0.18775596,0.18775596 0 0 1 0.19092,-0.1825282 l 2.642099,0.061529 a 0.18775596,0.18775596 0 0 1 0.05802,0.010334 z m -0.703207,2.9174651 a 0.4383754,0.4383754 0 0 1 0.356525,0.38581 0.4383754,0.4383754 0 0 1 -0.390796,0.481165 0.4383754,0.4383754 0 0 1 -0.481163,-0.390797 0.4383754,0.4383754 0 0 1 0.39038,-0.481244 0.4383754,0.4383754 0 0 1 0.125044,0.0052 z m -4.111505,-0.6325 a 0.12517062,0.12517062 0 0 1 0.04006,0.02284 l 0.215199,0.180372 c 0.144115,0.120879 0.144078,0.31967 0.06814,0.47147 -0.03797,0.0759 -0.101776,0.146499 -0.191336,0.182449 -0.08958,0.03595 -0.200391,0.03064 -0.307418,-0.01513 -0.2186,-0.09344 -0.356865,-0.105826 -0.429344,-0.09252 -0.07246,0.01323 -0.09021,0.03673 -0.109768,0.08376 -0.03911,0.09412 -0.0064,0.275432 -0.0064,0.275432 a 0.12517062,0.12517062 0 0 1 0.0019,0.0038 c 0,0 0.0437,0.17894 0.02827,0.351154 -0.0078,0.0861 -0.02568,0.191788 -0.12713,0.254792 -0.05071,0.0315 -0.116914,0.03972 -0.175593,0.02881 -0.05472,-0.01012 -0.107704,-0.03647 -0.164118,-0.07125 0,0 -0.002,-0.0021 -0.002,-0.0021 -0.0025,-0.0014 -0.39082,-0.226837 -0.627996,-0.576577 -0.0024,-0.0014 -0.0034,-5.64e-4 -0.0056,-0.0019 l 0.0022,-0.0022 c -0.0177,-0.02645 -0.03159,-0.01498 -0.04736,-0.04323 a 0.12517062,0.12517062 0 0 1 0.175483,-0.169516 c 0.158978,0.09774 0.254623,0.113255 0.284249,0.108622 0.02962,-0.0046 0.02914,-0.0082 0.04169,-0.05068 0.02513,-0.08467 -0.0054,-0.266034 -0.0054,-0.266034 a 0.12517062,0.12517062 0 0 1 -0.0035,-0.01363 c 0,0 -0.03101,-0.165237 0.06118,-0.317979 0.04608,-0.07637 0.139618,-0.147723 0.256008,-0.159649 0.116393,-0.01194 0.247444,0.02271 0.413494,0.107611 0.138938,0.07096 0.231284,0.08318 0.284914,0.07599 0.05365,-0.0073 0.0785,-0.02893 0.1036,-0.06294 0.05019,-0.06804 0.06023,-0.187385 0.06023,-0.187385 a 0.12517062,0.12517062 0 0 1 0.07549,-0.111932 0.12517062,0.12517062 0 0 1 0.09066,-0.0023 z m 10.34869,2.323896 c 0.120936,0.0225 0.255336,0.09638 0.381284,0.248143 a 0.10962087,0.10962087 0 0 1 0.0035,0.0037 c 0.07955,0.107315 0.0683,0.231326 0.04972,0.351824 -0.01852,0.120513 -0.04315,0.232678 -0.13466,0.314206 a 0.10962087,0.10962087 0 0 1 -0.18116,-0.06546 c -0.02611,-0.169527 -0.09434,-0.265609 -0.153217,-0.284982 -0.02941,-0.0099 -0.06642,-0.0098 -0.129517,0.0204 -0.06306,0.03008 -0.147628,0.0918 -0.243187,0.196212 -0.08131,0.08885 -0.169696,0.140432 -0.257964,0.154094 -0.08826,0.01366 -0.167816,-0.01138 -0.227673,-0.04596 -0.08979,-0.05181 -0.146584,-0.126499 -0.169342,-0.16076 l -3.36e-4,-4.96e-4 c -0.0052,-0.0051 -0.104359,-0.102419 -0.200939,-0.140089 -0.04953,-0.01935 -0.08731,-0.02244 -0.119259,-0.0083 -0.03193,0.01421 -0.07403,0.05205 -0.113258,0.164663 a 0.10962087,0.10962087 0 0 1 -0.200885,0.01443 c 0,0 0.0022,-0.07204 -0.0036,-0.08657 l -0.0037,4.9e-5 c 9.05e-4,-0.0027 0.0031,-0.0031 0.0041,-0.0058 -0.02499,-0.06225 -0.08526,-0.163575 -0.01101,-0.350863 a 0.10962087,0.10962087 0 0 1 0.0063,-0.0113 c 0,0 0.07284,-0.146445 0.21156,-0.247187 0.06937,-0.05036 0.163093,-0.09216 0.269721,-0.08061 0.106619,0.01163 0.211315,0.07598 0.305308,0.1921 0.08389,0.103606 0.15413,0.144877 0.204238,0.158842 0.0501,0.01391 0.08646,0.0048 0.125407,-0.01472 0.0779,-0.03902 0.137948,-0.129274 0.137948,-0.129274 a 0.10962087,0.10962087 0 0 1 0.0079,-0.01359 c 0,0 0.08949,-0.115855 0.244675,-0.163557 0.0582,-0.01786 0.126029,-0.02276 0.198594,-0.0093 z m -6.092145,-0.291426 a 0.4383754,0.4383754 0 0 1 0.356525,0.385811 0.4383754,0.4383754 0 0 1 -0.390797,0.481163 0.4383754,0.4383754 0 0 1 -0.481161,-0.390796 0.4383754,0.4383754 0 0 1 0.390795,-0.481164 0.4383754,0.4383754 0 0 1 0.124644,0.0049 z m 0.14504,1.399969 a 0.4383754,0.4383754 0 0 1 0.356941,0.385893 0.4383754,0.4383754 0 0 1 -0.390799,0.481162 0.4383754,0.4383754 0 0 1 -0.481579,-0.390872 0.4383754,0.4383754 0 0 1 0.3908,-0.481167 0.4383754,0.4383754 0 0 1 0.124637,0.0049 z m 4.327932,4.38075 a 0.18775596,0.18775596 0 0 1 0.143971,0.07947 c 0.627214,0.897899 0.282376,1.933523 0.282376,1.933523 a 0.18775596,0.18775596 0 0 1 -0.143378,0.12607 l -0.429208,0.08403 a 0.18775596,0.18775596 0 0 1 -0.18795,-0.295116 c 0,-1e-6 0.105705,-0.142398 0.146223,-0.41039 0.04061,-0.267963 0.01181,-0.644697 -0.315061,-1.110699 l 0.0022,4.57e-4 c -2.71e-4,-3.82e-4 -0.03088,-0.06984 -0.03096,-0.07027 -9e-5,-4.16e-4 -4.76e-4,-0.07648 -4.48e-4,-0.07691 8.8e-5,-4.43e-4 0.01813,-0.05513 0.01844,-0.05558 2.47e-4,-4.66e-4 0.01515,-0.02367 0.02213,-0.03201 0.02788,-0.03311 0.04529,-0.03922 0.05866,-0.04697 0.02673,-0.01566 0.04408,-0.02363 0.06428,-0.0312 0.04039,-0.0152 0.08448,-0.02789 0.130039,-0.04101 0.09115,-0.02628 0.182267,-0.04782 0.182267,-0.04782 a 0.18775596,0.18775596 0 0 1 0.05633,-0.0056 z m -9.226283,-0.0747 a 0.18775596,0.18775596 0 0 1 0.128462,0.08384 c 0,0 0.09113,0.146165 0.322658,0.279163 0.231484,0.132967 0.590421,0.243846 1.14671,0.117009 4.48e-4,-1.89e-4 0.08247,-8.2e-5 0.08287,-5.5e-5 3.83e-4,8.8e-5 0.07984,0.03847 0.08018,0.03869 3.27e-4,2.65e-4 0.04259,0.04835 0.04284,0.04881 2.63e-4,4.43e-4 0.01481,0.02845 0.01841,0.03892 0.01447,0.042 0.01214,0.05686 0.01208,0.07181 -6.6e-5,0.02991 -0.0042,0.04903 -0.0076,0.07105 -0.0069,0.04399 -0.01709,0.09213 -0.02859,0.141676 -0.02284,0.09914 -0.04874,0.19736 -0.04874,0.19736 a 0.18775596,0.18775596 0 0 1 -0.139564,0.135426 c -1.068419,0.241367 -1.897243,-0.469878 -1.897243,-0.469878 a 0.18775596,0.18775596 0 0 1 -0.05697,-0.199537 l 0.136746,-0.428176 a 0.18775596,0.18775596 0 0 1 0.155251,-0.127238 0.18775596,0.18775596 0 0 1 0.05247,9.5e-4 z" /><g
       id="g90"
       inkscape:label="ginger"
       transform="rotate(3.767388,8.0561072,13.464986)" /><path
       style="fill:none;fill-opacity:1;stroke:#ffffff;stroke-width:1.651;stroke-linecap:round;stroke-linejoin:round;stroke-dasharray:none;stroke-opacity:1;paint-order:markers fill stroke"
       d="m 24.804687,19.777604 c 0,0 2.612761,-1.554427 7.375261,0.429948 4.762499,1.984375 5.159374,1.686719 8.433593,0.297656 3.274219,-1.389062 5.093229,-1.653646 7.672917,-0.165365 2.579687,1.488282 5.886979,2.14974 7.739062,0.231511 1.852083,-1.918229 4.861719,-1.091406 6.019271,-0.198438"
       id="path102" /></g></svg>
