<?xml version="1.0" encoding="UTF-8" standalone="no"?>
<!-- Created with Inkscape (http://www.inkscape.org/) -->

<svg
   width="1.75in"
   height="1.75in"
   viewBox="0 0 44.450001 44.45"
   version="1.1"
   id="svg1"
   inkscape:version="1.3.1 (91b66b0783, 2023-11-16)"
   sodipodi:docname="palestine-pin.svg"
   xmlns:inkscape="http://www.inkscape.org/namespaces/inkscape"
   xmlns:sodipodi="http://sodipodi.sourceforge.net/DTD/sodipodi-0.dtd"
   xmlns="http://www.w3.org/2000/svg"
   xmlns:svg="http://www.w3.org/2000/svg">
  <sodipodi:namedview
     id="namedview1"
     pagecolor="#ffffff"
     bordercolor="#000000"
     borderopacity="0.25"
     inkscape:showpageshadow="2"
     inkscape:pageopacity="0.0"
     inkscape:pagecheckerboard="0"
     inkscape:deskcolor="#d1d1d1"
     inkscape:document-units="in"
     inkscape:zoom="3.8904364"
     inkscape:cx="70.043556"
     inkscape:cy="94.847971"
     inkscape:window-width="1620"
     inkscape:window-height="1010"
     inkscape:window-x="-6"
     inkscape:window-y="-6"
     inkscape:window-maximized="1"
     inkscape:current-layer="g12" />
  <defs
     id="defs1">
    <mask
       maskUnits="userSpaceOnUse"
       id="mask9">
      <circle
         style="fill:#ffffff;fill-opacity:1;stroke:none;stroke-width:1.016;stroke-linecap:round;stroke-linejoin:round;paint-order:markers stroke fill"
         id="circle9"
         cx="22.225"
         cy="22.225"
         r="19.050001" />
    </mask>
    <mask
       maskUnits="userSpaceOnUse"
       id="mask10">
      <circle
         style="fill:#ffffff;fill-opacity:1;stroke:none;stroke-width:1.016;stroke-linecap:round;stroke-linejoin:round;paint-order:markers stroke fill"
         id="circle10"
         cx="22.225"
         cy="22.225"
         r="19.050001" />
    </mask>
    <mask
       maskUnits="userSpaceOnUse"
       id="mask11">
      <circle
         style="fill:#ffffff;fill-opacity:1;stroke:none;stroke-width:1.016;stroke-linecap:round;stroke-linejoin:round;paint-order:markers stroke fill"
         id="circle11"
         cx="22.225"
         cy="22.225"
         r="19.050001" />
    </mask>
    <mask
       maskUnits="userSpaceOnUse"
       id="mask12">
      <circle
         style="fill:#ffffff;fill-opacity:1;stroke:none;stroke-width:1.016;stroke-linecap:round;stroke-linejoin:round;paint-order:markers stroke fill"
         id="circle13"
         cx="22.225"
         cy="22.225"
         r="19.050001" />
    </mask>
    <mask
       maskUnits="userSpaceOnUse"
       id="mask14">
      <circle
         style="display:inline;fill:#ffffff;fill-opacity:1;stroke:none;stroke-width:1.016;stroke-linecap:round;stroke-linejoin:round;paint-order:markers stroke fill"
         id="circle15"
         cx="22.225"
         cy="22.225"
         r="19.050001"
         transform="rotate(-45)" />
    </mask>
    <mask
       maskUnits="userSpaceOnUse"
       id="mask44">
      <circle
         style="display:inline;fill:#ffffff;fill-opacity:1;stroke:none;stroke-width:1.016;stroke-linecap:round;stroke-linejoin:round;paint-order:markers stroke fill"
         id="circle45"
         cx="22.225"
         cy="22.225"
         r="19.050001"
         transform="rotate(-45)" />
    </mask>
    <mask
       maskUnits="userSpaceOnUse"
       id="mask45">
      <circle
         style="display:inline;fill:#ffffff;fill-opacity:1;stroke:none;stroke-width:1.016;stroke-linecap:round;stroke-linejoin:round;paint-order:markers stroke fill"
         id="circle46"
         cx="22.225"
         cy="22.225"
         r="19.050001" />
    </mask>
    <mask
       maskUnits="userSpaceOnUse"
       id="mask46">
      <circle
         style="display:inline;fill:#ffffff;fill-opacity:1;stroke:none;stroke-width:1.016;stroke-linecap:round;stroke-linejoin:round;paint-order:markers stroke fill"
         id="circle47"
         cx="22.225"
         cy="22.225"
         r="19.050001" />
    </mask>
    <mask
       maskUnits="userSpaceOnUse"
       id="mask47">
      <circle
         style="display:inline;fill:#ffffff;fill-opacity:1;stroke:none;stroke-width:1.016;stroke-linecap:round;stroke-linejoin:round;paint-order:markers stroke fill"
         id="circle48"
         cx="22.225"
         cy="22.225"
         r="19.050001" />
    </mask>
    <mask
       maskUnits="userSpaceOnUse"
       id="mask48">
      <circle
         style="display:inline;fill:#ffffff;fill-opacity:1;stroke:none;stroke-width:1.016;stroke-linecap:round;stroke-linejoin:round;paint-order:markers stroke fill"
         id="circle49"
         cx="22.225"
         cy="22.225"
         r="19.050001" />
    </mask>
  </defs>
  <g
     inkscape:label="RAW"
     inkscape:groupmode="layer"
     id="layer1"
     style="display:none">
    <rect
       style="fill:#228c3a;fill-opacity:1;stroke:none;stroke-width:1.016;stroke-linecap:round;stroke-linejoin:round;paint-order:markers stroke fill"
       id="rect3"
       width="15.24"
       height="38.100002"
       x="0.63500011"
       y="6.6247535"
       mask="url(#mask10)" />
    <rect
       style="fill:#000000;fill-opacity:1;stroke:none;stroke-width:1.016;stroke-linecap:round;stroke-linejoin:round;paint-order:markers stroke fill"
       id="rect4"
       width="15.24"
       height="38.100002"
       x="28.575001"
       y="6.6247535"
       mask="url(#mask9)" />
    <rect
       style="fill:#ffffff;fill-opacity:1;stroke:#000000;stroke-width:2.54;stroke-linecap:round;stroke-linejoin:round;stroke-dasharray:none;stroke-opacity:1;paint-order:markers stroke fill"
       id="rect2"
       width="12.7"
       height="38.100002"
       x="15.875"
       y="6.6247535"
       mask="url(#mask11)" />
    <rect
       style="display:inline;fill:#b92d3a;fill-opacity:1;stroke:#000000;stroke-width:2.54;stroke-linecap:round;stroke-linejoin:round;stroke-dasharray:none;stroke-opacity:1;paint-order:markers stroke fill"
       id="rect1"
       width="25.4"
       height="25.4"
       x="6.0372176"
       y="-25.393679"
       transform="rotate(45)"
       mask="url(#mask14)" />
    <circle
       style="fill:none;fill-opacity:1;stroke:#000000;stroke-width:2.54;stroke-linecap:round;stroke-linejoin:round;stroke-dasharray:none;stroke-opacity:1;paint-order:markers stroke fill"
       id="circle8"
       cx="22.225"
       cy="22.225"
       r="19.050001"
       mask="url(#mask12)" />
  </g>
  <g
     inkscape:label="flat shapes"
     inkscape:groupmode="layer"
     id="g18"
     style="display:none">
    <rect
       style="display:inline;fill:#2a2a2a;fill-opacity:1;stroke:#272727;stroke-width:2.66887;stroke-linecap:round;stroke-linejoin:round;stroke-dasharray:none;stroke-opacity:1;paint-order:markers stroke fill"
       id="rect33"
       width="44.450001"
       height="44.450001"
       x="0"
       y="0"
       mask="url(#mask48)"
       inkscape:label="bg" />
    <path
       id="path53"
       style="color:#000000;fill:#228c3a;stroke-linecap:round;stroke-linejoin:round;-inkscape-stroke:none;paint-order:markers stroke fill"
       inkscape:label="green"
       d="m 8.3767498,11.232389 a 0.31753175,0.31753175 0 0 0 -0.2304769,0.12299 c -2.3197219,3.003114 -3.7031331,6.771787 -3.7031332,10.869104 1e-7,6.659916 3.6457406,12.452741 9.0531943,15.498279 a 0.31753175,0.31753175 0 0 0 0.47439,-0.277502 V 17.677991 16.802592 a 0.31753175,0.31753175 0 0 0 -0.09354,-0.222725 L 8.6211793,11.324373 a 0.31753175,0.31753175 0 0 0 -0.2444295,-0.09198 z" />
    <path
       id="path55"
       style="color:#000000;fill:#000000;stroke-linecap:round;stroke-linejoin:round;-inkscape-stroke:none;paint-order:markers stroke fill"
       inkscape:label="black"
       d="m 36.072217,11.232389 a 0.31753175,0.31753175 0 0 0 -0.243913,0.09354 l -5.25601,5.253943 a 0.31753175,0.31753175 0 0 0 -0.09198,0.224792 V 37.44526 a 0.31753175,0.31753175 0 0 0 0.47284,0.277502 c 5.40746,-3.045542 9.052677,-8.83838 9.052677,-15.498279 0,-4.096777 -1.381882,-7.866172 -3.701066,-10.869104 a 0.31753175,0.31753175 0 0 0 -0.232544,-0.12299 z" />
    <path
       id="path57"
       style="color:#000000;fill:#ffffff;stroke-linecap:round;stroke-linejoin:round;-inkscape-stroke:none;paint-order:markers stroke fill"
       inkscape:label="white"
       d="m 28.624093,18.712553 a 0.31753175,0.31753175 0 0 0 -0.274402,0.09043 l -4.777486,4.776969 c -0.746647,0.746438 -1.946729,0.746438 -2.693376,0 L 16.099793,18.80092 a 0.31753175,0.31753175 0 0 0 -0.345716,-0.06873 0.31753175,0.31753175 0 0 0 -0.197404,0.293006 v 19.470646 a 0.31753175,0.31753175 0 0 0 0.203089,0.297139 c 2.003025,0.779674 4.182278,1.212846 6.464721,1.212846 2.282781,0 4.46148,-0.432971 6.464722,-1.212846 A 0.31753175,0.31753175 0 0 0 28.89281,38.495842 V 19.027263 a 0.31753175,0.31753175 0 0 0 -0.268717,-0.31471 z" />
    <path
       id="path51"
       style="color:#000000;fill:#b92d3a;stroke-linecap:round;stroke-linejoin:round;-inkscape-stroke:none;paint-order:markers stroke fill"
       inkscape:label="red"
       d="m 18.857223,-12.572213 c -3.478522,3.4785234 -5.218267,8.0290467 -5.216559,12.57805952 a 0.31753175,0.31753175 0 0 0 0.316443,0.31863539 h 17.480367 a 0.31753175,0.31753175 0 0 0 0.316443,-0.31863539 l 0.0018,-17.47853952 a 0.31753175,0.31753175 0 0 0 -0.31827,-0.316078 c -4.549139,-0.0018 -9.101625,1.737933 -12.580251,5.216558 z"
       transform="rotate(45)" />
  </g>
  <g
     inkscape:label="outline"
     inkscape:groupmode="layer"
     id="g12"
     style="display:inline">
    <path
       id="circle12"
       style="display:inline;fill:#fd933a;fill-opacity:1;stroke:none;stroke-width:1.016;stroke-linecap:round;stroke-linejoin:round;paint-order:markers stroke fill"
       d="M 22.225 3.175 A 19.050001 19.050001 0 0 0 3.175 22.225 A 19.050001 19.050001 0 0 0 22.225 41.275 A 19.050001 19.050001 0 0 0 41.275 22.225 A 19.050001 19.050001 0 0 0 22.225 3.175 z M 22.223967 4.4441732 C 27.143481 4.4441739 31.592761 6.433094 34.808212 9.6510906 A 0.31753175 0.31753175 0 0 1 34.809762 10.099642 L 22.449276 22.457544 A 0.31753175 0.31753175 0 0 1 22.000208 22.459094 L 9.6397218 10.098609 A 0.31753175 0.31753175 0 0 1 9.6412721 9.6495403 C 12.856699 6.431698 17.304598 4.4441742 22.223967 4.4441732 z M 8.3767498 11.232389 A 0.31753175 0.31753175 0 0 1 8.6211793 11.324373 L 13.877189 16.579867 A 0.31753175 0.31753175 0 0 1 13.970724 16.802592 L 13.970724 17.677991 L 13.970724 37.44526 A 0.31753175 0.31753175 0 0 1 13.496334 37.722762 C 8.0889019 34.67724 4.4431398 28.884375 4.4431397 22.224483 C 4.4431398 18.127186 5.8265602 14.358481 8.1462729 11.355379 A 0.31753175 0.31753175 0 0 1 8.3767498 11.232389 z M 36.072217 11.232389 A 0.31753175 0.31753175 0 0 1 36.304761 11.355379 C 38.623939 14.358302 40.005827 18.127721 40.005827 22.224483 C 40.005827 28.884364 36.360592 34.677232 30.95315 37.722762 A 0.31753175 0.31753175 0 0 1 30.48031 37.44526 L 30.48031 16.804659 A 0.31753175 0.31753175 0 0 1 30.572294 16.579867 L 35.828304 11.325924 A 0.31753175 0.31753175 0 0 1 36.072217 11.232389 z M 28.624093 18.712553 A 0.31753175 0.31753175 0 0 1 28.89281 19.027263 L 28.89281 38.495842 A 0.31753175 0.31753175 0 0 1 28.689205 38.792981 C 26.685967 39.572856 24.50726 40.005827 22.224483 40.005827 C 19.942046 40.005827 17.762783 39.572655 15.759762 38.792981 A 0.31753175 0.31753175 0 0 1 15.556673 38.495842 L 15.556673 19.025196 A 0.31753175 0.31753175 0 0 1 15.754077 18.73219 A 0.31753175 0.31753175 0 0 1 16.099793 18.80092 L 20.878829 23.579956 C 21.625474 24.326394 22.82556 24.326394 23.572205 23.579956 L 28.349691 18.802987 A 0.31753175 0.31753175 0 0 1 28.624093 18.712553 z "
       inkscape:label="outline" />
    <circle
       style="display:inline;fill:none;fill-opacity:1;stroke:#000000;stroke-width:0.0254;stroke-linecap:round;stroke-linejoin:round;stroke-dasharray:none;stroke-opacity:1;paint-order:markers stroke fill"
       id="circle14"
       cx="22.225"
       cy="22.225"
       r="19.050001"
       mask="none"
       inkscape:label="cut" />
  </g>
</svg>
