<?xml version="1.0" encoding="UTF-8" standalone="no"?>
<!-- Created with Inkscape (http://www.inkscape.org/) -->

<svg
   width="1.75in"
   height="1.75in"
   viewBox="0 0 44.450001 44.45"
   version="1.1"
   id="svg1"
   inkscape:version="1.3.1 (91b66b0783, 2023-11-16)"
   sodipodi:docname="palestine-pin.svg"
   xmlns:inkscape="http://www.inkscape.org/namespaces/inkscape"
   xmlns:sodipodi="http://sodipodi.sourceforge.net/DTD/sodipodi-0.dtd"
   xmlns="http://www.w3.org/2000/svg"
   xmlns:svg="http://www.w3.org/2000/svg">
  <sodipodi:namedview
     id="namedview1"
     pagecolor="#ffffff"
     bordercolor="#000000"
     borderopacity="0.25"
     inkscape:showpageshadow="2"
     inkscape:pageopacity="0.0"
     inkscape:pagecheckerboard="0"
     inkscape:deskcolor="#d1d1d1"
     inkscape:document-units="in"
     inkscape:zoom="3.8904364"
     inkscape:cx="70.043556"
     inkscape:cy="94.847971"
     inkscape:window-width="1620"
     inkscape:window-height="1010"
     inkscape:window-x="-6"
     inkscape:window-y="-6"
     inkscape:window-maximized="1"
     inkscape:current-layer="g12" />
  <defs
     id="defs1">
    <mask
       maskUnits="userSpaceOnUse"
       id="mask9">
      <circle
         style="fill:#ffffff;fill-opacity:1;stroke:none;stroke-width:1.016;stroke-linecap:round;stroke-linejoin:round;paint-order:markers stroke fill"
         id="circle9"
         cx="22.225"
         cy="22.225"
         r="19.050001" />
    </mask>
    <mask
       maskUnits="userSpaceOnUse"
       id="mask10">
      <circle
         style="fill:#ffffff;fill-opacity:1;stroke:none;stroke-width:1.016;stroke-linecap:round;stroke-linejoin:round;paint-order:markers stroke fill"
         id="circle10"
         cx="22.225"
         cy="22.225"
         r="19.050001" />
    </mask>
    <mask
       maskUnits="userSpaceOnUse"
       id="mask11">
      <circle
         style="fill:#ffffff;fill-opacity:1;stroke:none;stroke-width:1.016;stroke-linecap:round;stroke-linejoin:round;paint-order:markers stroke fill"
         id="circle11"
         cx="22.225"
         cy="22.225"
         r="19.050001" />
    </mask>
    <mask
       maskUnits="userSpaceOnUse"
       id="mask12">
      <circle
         style="fill:#ffffff;fill-opacity:1;stroke:none;stroke-width:1.016;stroke-linecap:round;stroke-linejoin:round;paint-order:markers stroke fill"
         id="circle13"
         cx="22.225"
         cy="22.225"
         r="19.050001" />
    </mask>
    <mask
       maskUnits="userSpaceOnUse"
       id="mask14">
      <circle
         style="display:inline;fill:#ffffff;fill-opacity:1;stroke:none;stroke-width:1.016;stroke-linecap:round;stroke-linejoin:round;paint-order:markers stroke fill"
         id="circle15"
         cx="22.225"
         cy="22.225"
         r="19.050001"
         transform="rotate(-45)" />
    </mask>
    <mask
       maskUnits="userSpaceOnUse"
       id="mask44">
      <circle
         style="display:inline;fill:#ffffff;fill-opacity:1;stroke:none;stroke-width:1.016;stroke-linecap:round;stroke-linejoin:round;paint-order:markers stroke fill"
         id="circle45"
         cx="22.225"
         cy="22.225"
         r="19.050001"
         transform="rotate(-45)" />
    </mask>
    <mask
       maskUnits="userSpaceOnUse"
       id="mask45">
      <circle
         style="display:inline;fill:#ffffff;fill-opacity:1;stroke:none;stroke-width:1.016;stroke-linecap:round;stroke-linejoin:round;paint-order:markers stroke fill"
         id="circle46"
         cx="22.225"
         cy="22.225"
         r="19.050001" />
    </mask>
    <mask
       maskUnits="userSpaceOnUse"
       id="mask46">
      <circle
         style="display:inline;fill:#ffffff;fill-opacity:1;stroke:none;stroke-width:1.016;stroke-linecap:round;stroke-linejoin:round;paint-order:markers stroke fill"
         id="circle47"
         cx="22.225"
         cy="22.225"
         r="19.050001" />
    </mask>
    <mask
       maskUnits="userSpaceOnUse"
       id="mask47">
      <circle
         style="display:inline;fill:#ffffff;fill-opacity:1;stroke:none;stroke-width:1.016;stroke-linecap:round;stroke-linejoin:round;paint-order:markers stroke fill"
         id="circle48"
         cx="22.225"
         cy="22.225"
         r="19.050001" />
    </mask>
    <mask
       maskUnits="userSpaceOnUse"
       id="mask48">
      <circle
         style="display:inline;fill:#ffffff;fill-opacity:1;stroke:none;stroke-width:1.016;stroke-linecap:round;stroke-linejoin:round;paint-order:markers stroke fill"
         id="circle49"
         cx="22.225"
         cy="22.225"
         r="19.050001" />
    </mask>
  </defs>
  <g
     inkscape:label="outline"
     inkscape:groupmode="layer"
     id="g12"
     style="display:inline">
    <path
       id="circle12"
       style="display:inline;fill:#fd933a;fill-opacity:1;stroke:none;stroke-width:1.016;stroke-linecap:round;stroke-linejoin:round;paint-order:markers stroke fill"
       d="M 22.225 3.175 A 19.050001 19.050001 0 0 0 3.175 22.225 A 19.050001 19.050001 0 0 0 22.225 41.275 A 19.050001 19.050001 0 0 0 41.275 22.225 A 19.050001 19.050001 0 0 0 22.225 3.175 z M 22.223967 4.4441732 C 27.143481 4.4441739 31.592761 6.433094 34.808212 9.6510906 A 0.31753175 0.31753175 0 0 1 34.809762 10.099642 L 22.449276 22.457544 A 0.31753175 0.31753175 0 0 1 22.000208 22.459094 L 9.6397218 10.098609 A 0.31753175 0.31753175 0 0 1 9.6412721 9.6495403 C 12.856699 6.431698 17.304598 4.4441742 22.223967 4.4441732 z M 8.3767498 11.232389 A 0.31753175 0.31753175 0 0 1 8.6211793 11.324373 L 13.877189 16.579867 A 0.31753175 0.31753175 0 0 1 13.970724 16.802592 L 13.970724 17.677991 L 13.970724 37.44526 A 0.31753175 0.31753175 0 0 1 13.496334 37.722762 C 8.0889019 34.67724 4.4431398 28.884375 4.4431397 22.224483 C 4.4431398 18.127186 5.8265602 14.358481 8.1462729 11.355379 A 0.31753175 0.31753175 0 0 1 8.3767498 11.232389 z M 36.072217 11.232389 A 0.31753175 0.31753175 0 0 1 36.304761 11.355379 C 38.623939 14.358302 40.005827 18.127721 40.005827 22.224483 C 40.005827 28.884364 36.360592 34.677232 30.95315 37.722762 A 0.31753175 0.31753175 0 0 1 30.48031 37.44526 L 30.48031 16.804659 A 0.31753175 0.31753175 0 0 1 30.572294 16.579867 L 35.828304 11.325924 A 0.31753175 0.31753175 0 0 1 36.072217 11.232389 z M 28.624093 18.712553 A 0.31753175 0.31753175 0 0 1 28.89281 19.027263 L 28.89281 38.495842 A 0.31753175 0.31753175 0 0 1 28.689205 38.792981 C 26.685967 39.572856 24.50726 40.005827 22.224483 40.005827 C 19.942046 40.005827 17.762783 39.572655 15.759762 38.792981 A 0.31753175 0.31753175 0 0 1 15.556673 38.495842 L 15.556673 19.025196 A 0.31753175 0.31753175 0 0 1 15.754077 18.73219 A 0.31753175 0.31753175 0 0 1 16.099793 18.80092 L 20.878829 23.579956 C 21.625474 24.326394 22.82556 24.326394 23.572205 23.579956 L 28.349691 18.802987 A 0.31753175 0.31753175 0 0 1 28.624093 18.712553 z "
       inkscape:label="outline" />
    <circle
       style="display:inline;fill:none;fill-opacity:1;stroke:#000000;stroke-width:0.0254;stroke-linecap:round;stroke-linejoin:round;stroke-dasharray:none;stroke-opacity:1;paint-order:markers stroke fill"
       id="circle14"
       cx="22.225"
       cy="22.225"
       r="19.050001"
       mask="none"
       inkscape:label="cut" />
  </g>
</svg>
