<?xml version="1.0" encoding="UTF-8" standalone="no"?>
<!-- Created with Inkscape (http://www.inkscape.org/) -->

<svg
   width="2.25in"
   height="1.75in"
   viewBox="0 0 57.150001 44.45"
   version="1.1"
   id="svg1"
   inkscape:version="1.3.1 (91b66b0783, 2023-11-16)"
   sodipodi:docname="artifact-counter.svg"
   xmlns:inkscape="http://www.inkscape.org/namespaces/inkscape"
   xmlns:sodipodi="http://sodipodi.sourceforge.net/DTD/sodipodi-0.dtd"
   xmlns="http://www.w3.org/2000/svg"
   xmlns:svg="http://www.w3.org/2000/svg">
  <sodipodi:namedview
     id="namedview1"
     pagecolor="#ffffff"
     bordercolor="#000000"
     borderopacity="0.25"
     inkscape:showpageshadow="2"
     inkscape:pageopacity="0.0"
     inkscape:pagecheckerboard="false"
     inkscape:deskcolor="#d1d1d1"
     inkscape:document-units="in"
     inkscape:zoom="3.8904364"
     inkscape:cx="115.79678"
     inkscape:cy="77.369212"
     inkscape:window-width="1620"
     inkscape:window-height="1010"
     inkscape:window-x="-6"
     inkscape:window-y="-6"
     inkscape:window-maximized="1"
     inkscape:current-layer="layer1" />
  <defs
     id="defs1">
    <inkscape:path-effect
       effect="ruler"
       id="path-effect8"
       is_visible="true"
       lpeversion="1"
       unit="mm"
       mark_distance="20"
       mark_length="12"
       minor_mark_length="7"
       major_mark_steps="6"
       shift="1"
       offset="24"
       mark_dir="right"
       border_marks="both" />
    <inkscape:path-effect
       effect="gears"
       id="path-effect7"
       is_visible="true"
       lpeversion="1"
       teeth="10"
       phi="1"
       min_radius="1.5" />
    <inkscape:path-effect
       effect="vonkoch"
       id="path-effect6"
       is_visible="true"
       lpeversion="1"
       ref_path="M 3.1749995,19.05 H 60.325001"
       generator="M 3.1749995,34.925 H 22.225 m 19.05,0 h 19.050001"
       similar_only="false"
       nbgenerations="0"
       drawall="true"
       maxComplexity="10000" />
    <inkscape:path-effect
       effect="rough_hatches"
       id="path-effect5"
       is_visible="true"
       lpeversion="1.2"
       direction="31.75,14.05 , 14.2875,0"
       dist_rdm="75;1"
       growth="0"
       do_bend="true"
       bender="31.75,19.05 , 5,0"
       bottom_edge_variation="3.175;1"
       top_edge_variation="3.175;1"
       bottom_tgt_variation="0;1"
       top_tgt_variation="0;1"
       scale_bf="1"
       scale_bb="1"
       scale_tf="1"
       scale_tb="1"
       top_smth_variation="0;1"
       bottom_smth_variation="0;1"
       fat_output="true"
       stroke_width_top="1"
       stroke_width_bottom="1"
       front_thickness="1"
       back_thickness="0.25" />
    <inkscape:path-effect
       effect="knot"
       id="path-effect4"
       is_visible="true"
       lpeversion="1"
       switcher_size="15"
       interruption_width="3.5"
       prop_to_stroke_width="true"
       add_stroke_width="inkscape_1.0_and_up"
       both="false"
       inverse_width="false"
       add_other_stroke_width="inkscape_1.0_and_up"
       crossing_points_vector="" />
    <inkscape:path-effect
       effect="offset"
       id="path-effect3"
       is_visible="true"
       lpeversion="1.2"
       linejoin_type="miter"
       unit="mm"
       offset="0"
       miter_limit="4"
       attempt_force_join="false"
       update_on_knot_move="true" />
  </defs>
  <g
     inkscape:label="Layer 1"
     inkscape:groupmode="layer"
     id="layer1">
    <path
       style="color:#000000;display:none;fill:#d56a11;stroke-linecap:round;stroke-linejoin:round;-inkscape-stroke:none;paint-order:markers stroke fill"
       d="M 7.3025002,4.7625008 H 49.8475 c 1.40716,0 2.54,1.1328399 2.54,2.5399999 V 37.1475 c 0,1.40716 -1.13284,2.54 -2.54,2.54 H 7.3025002 c -1.4071599,0 -2.5399999,-1.13284 -2.5399999,-2.54 V 7.3025007 c 0,-1.40716 1.13284,-2.5399999 2.5399999,-2.5399999 z"
       id="path28"
       inkscape:label="bg" />
    <text
       xml:space="preserve"
       style="font-style:normal;font-variant:normal;font-weight:normal;font-stretch:normal;font-size:7.40833px;line-height:1;font-family:VALORANT;-inkscape-font-specification:'VALORANT, Normal';font-variant-ligatures:normal;font-variant-caps:normal;font-variant-numeric:normal;font-variant-east-asian:normal;text-align:center;letter-spacing:-0.926042px;word-spacing:0px;writing-mode:lr-tb;text-orientation:upright;text-anchor:middle;display:none;fill:#ffffff;fill-opacity:1;stroke:#cfc8b3;stroke-width:0.762;stroke-linecap:round;stroke-linejoin:round;stroke-dasharray:none;stroke-opacity:1;paint-order:stroke markers fill"
       x="28.527639"
       y="35.855427"
       id="text10"><tspan
         sodipodi:role="line"
         id="tspan10"
         style="font-style:normal;font-variant:normal;font-weight:normal;font-stretch:normal;font-size:7.40833px;font-family:VALORANT;-inkscape-font-specification:'VALORANT, Normal';font-variant-ligatures:normal;font-variant-caps:normal;font-variant-numeric:normal;font-variant-east-asian:normal;text-align:center;letter-spacing:-0.926042px;text-anchor:middle;fill:#ffffff;fill-opacity:1;stroke:none;stroke-width:0.762"
         x="28.064617"
         y="35.855427">A R T I FA C T S</tspan></text>
    <path
       id="path29"
       style="color:#000000;fill:#d56a11;stroke-linecap:round;stroke-linejoin:round;-inkscape-stroke:none;paint-order:markers stroke fill"
       inkscape:label="bg with text"
       d="M 7.3023967 4.7625 C 5.8952396 4.7625 4.7625 5.8952395 4.7625 7.3023967 L 4.7625 37.147604 C 4.7625 38.55476 5.8952396 39.6875 7.3023967 39.6875 L 49.847604 39.6875 C 51.25476 39.6875 52.3875 38.55476 52.3875 37.147604 L 52.3875 7.3023967 C 52.3875 5.8952395 51.25476 4.7625 49.847604 4.7625 L 7.3023967 4.7625 z M 20.951176 7.6739503 A 1.9051905 1.9051905 0 0 1 20.953243 7.6739503 L 36.193657 7.6739503 C 38.547065 7.6734788 40.122642 10.401906 38.94336 12.439551 L 31.324186 25.634611 A 1.9051905 1.9051905 0 0 1 31.322119 25.636678 C 30.144447 27.668605 27.006071 27.668605 25.828398 25.636678 A 1.9051905 1.9051905 0 0 1 25.826331 25.634611 L 18.207158 12.439551 C 17.029161 10.404127 18.59945 7.6780303 20.951176 7.6739503 z M 22.054468 11.48457 L 28.576034 22.777421 L 35.095533 11.48457 L 22.054468 11.48457 z M 28.029297 23.72465 C 28.028597 23.725921 28.025877 23.725517 28.025163 23.726717 L 28.025163 23.730335 L 28.029297 23.72465 z M 37.669536 30.566093 C 38.069584 30.571027 38.437501 30.652473 38.773344 30.810523 C 39.114127 30.968567 39.408 31.185585 39.654944 31.462163 C 39.669758 31.481916 39.674864 31.504125 39.66993 31.528825 C 39.66993 31.553518 39.659711 31.573433 39.639958 31.588253 L 39.054981 32.084347 C 39.035227 32.09916 39.013018 32.106568 38.988318 32.106568 C 38.963625 32.101634 38.94371 32.089637 38.92889 32.069877 C 38.765907 31.882201 38.573398 31.734116 38.351148 31.62546 C 38.128898 31.511866 37.889149 31.457224 37.632329 31.462163 C 37.400201 31.467096 37.18037 31.518925 36.972937 31.617709 C 36.765506 31.711547 36.585508 31.842528 36.432402 32.010449 C 36.279297 32.173432 36.158015 32.363647 36.069117 32.580957 C 35.980217 32.798268 35.935791 33.030611 35.935791 33.277556 C 35.935791 33.524498 35.983029 33.756326 36.076868 33.973637 C 36.170707 34.190948 36.296579 34.381162 36.454623 34.544145 C 36.612667 34.707128 36.795477 34.835296 37.00291 34.929134 C 37.210342 35.018034 37.43247 35.062976 37.669536 35.062976 C 37.916479 35.058043 38.148824 35.001105 38.366134 34.892444 C 38.583445 34.783789 38.770846 34.635705 38.92889 34.448027 C 38.943704 34.428274 38.963618 34.418055 38.988318 34.418055 C 39.013012 34.413121 39.035221 34.420529 39.054981 34.440275 L 39.639958 34.936886 C 39.659711 34.951699 39.66993 34.971614 39.66993 34.996314 C 39.674864 35.021007 39.669758 35.043223 39.654944 35.062976 C 39.403061 35.344493 39.10408 35.56662 38.758358 35.729602 C 38.412636 35.887647 38.035022 35.963985 37.625094 35.959046 C 37.254678 35.959046 36.90668 35.890112 36.580713 35.751823 C 36.259687 35.608596 35.980621 35.416085 35.743555 35.174081 C 35.506489 34.927137 35.320865 34.637855 35.187517 34.30695 C 35.054167 33.976046 34.987529 33.620642 34.987529 33.240349 C 34.987529 32.860055 35.05698 32.506947 35.195268 32.180982 C 35.338496 31.855015 35.528709 31.570842 35.765776 31.328837 C 36.007781 31.086833 36.291438 30.899431 36.617403 30.766081 C 36.943369 30.627792 37.294181 30.561155 37.669536 30.566093 z M 47.056043 30.566093 C 47.441276 30.566093 47.774465 30.635027 48.055982 30.773316 C 48.342437 30.906666 48.55716 31.062154 48.700387 31.239954 C 48.73496 31.284407 48.732659 31.32424 48.693152 31.35881 L 48.182072 31.89211 C 48.162319 31.911864 48.137292 31.921566 48.107658 31.921566 C 48.082965 31.921566 48.060756 31.909052 48.040996 31.884359 C 47.996549 31.834972 47.940128 31.785956 47.87098 31.736564 C 47.806774 31.687178 47.729919 31.642753 47.64102 31.603239 C 47.55706 31.558786 47.465913 31.52406 47.367135 31.49937 C 47.268357 31.474676 47.166992 31.462163 47.063278 31.462163 C 46.939805 31.462163 46.826446 31.482077 46.72273 31.52159 C 46.623953 31.556164 46.539694 31.602885 46.470549 31.66215 C 46.401405 31.721417 46.347279 31.790868 46.307768 31.86989 C 46.268255 31.948912 46.24834 32.032655 46.24834 32.121554 C 46.24834 32.264782 46.295061 32.388357 46.3889 32.492074 C 46.482739 32.59579 46.623937 32.667537 46.811613 32.707048 L 47.537667 32.847608 C 47.774734 32.892054 47.982053 32.963801 48.159851 33.062582 C 48.342591 33.156421 48.49297 33.269779 48.611504 33.403129 C 48.734974 33.536479 48.828935 33.687376 48.89314 33.855298 C 48.957347 34.018281 48.989258 34.190874 48.989258 34.373613 C 48.989258 34.571168 48.947644 34.76649 48.863685 34.959107 C 48.784662 35.151723 48.663382 35.324317 48.500399 35.477421 C 48.342355 35.630527 48.14755 35.754103 47.915422 35.847941 C 47.683295 35.936841 47.416226 35.981267 47.114954 35.981267 C 46.902582 35.981267 46.702667 35.959057 46.514991 35.914604 C 46.332252 35.870157 46.164251 35.813219 46.011145 35.744072 C 45.86298 35.669989 45.732516 35.591355 45.618921 35.507394 C 45.505327 35.418494 45.411368 35.331939 45.337285 35.247978 C 45.302711 35.213405 45.302711 35.174088 45.337285 35.129639 L 45.803923 34.529159 C 45.818736 34.504466 45.838651 34.492469 45.863351 34.492469 C 45.892984 34.487535 45.917495 34.494943 45.937248 34.514689 C 46.006393 34.578896 46.082731 34.645534 46.166691 34.714677 C 46.250652 34.778884 46.342315 34.838118 46.441093 34.892444 C 46.539871 34.946771 46.645826 34.991196 46.75942 35.025769 C 46.873015 35.060343 46.994296 35.077446 47.122705 35.077446 C 47.394344 35.077446 47.601662 35.018212 47.74489 34.899679 C 47.888117 34.781146 47.959864 34.627953 47.959864 34.440275 C 47.959864 34.29211 47.905221 34.163941 47.796566 34.055286 C 47.69285 33.941691 47.537361 33.864837 47.329928 33.825326 L 46.603874 33.677531 C 46.189009 33.59357 45.858114 33.423273 45.61117 33.166451 C 45.364225 32.909631 45.24065 32.583327 45.24065 32.188216 C 45.24065 31.95609 45.287888 31.741366 45.381726 31.543811 C 45.480504 31.346257 45.611485 31.175959 45.774467 31.032731 C 45.942389 30.889505 46.134899 30.775628 46.35221 30.691667 C 46.57446 30.607706 46.809099 30.566093 47.056043 30.566093 z M 14.140739 30.654977 L 18.052128 30.654977 C 18.076822 30.654977 18.096736 30.664679 18.111556 30.684432 C 18.131309 30.699252 18.141012 30.719167 18.141012 30.74386 L 18.141012 31.832683 C 18.141012 31.901827 18.118802 31.963356 18.074349 32.017684 L 16.903878 33.551441 L 18.578194 35.736837 C 18.593008 35.76153 18.593008 35.786041 18.578194 35.810734 C 18.568314 35.830488 18.551211 35.840707 18.526518 35.840707 L 17.58549 35.840707 C 17.486712 35.840707 17.405265 35.800873 17.341061 35.721851 L 15.718421 33.610869 C 15.683847 33.571355 15.683847 33.534334 15.718421 33.499764 L 17.17828 31.595488 L 15.000118 31.595488 L 15.000118 35.751823 C 15.000118 35.81109 14.96769 35.840707 14.903483 35.840707 L 14.140739 35.840707 C 14.116046 35.840707 14.093836 35.833299 14.074076 35.818486 C 14.059256 35.798733 14.051856 35.776517 14.051856 35.751823 L 14.051856 30.74386 C 14.051856 30.719167 14.059256 30.699252 14.074076 30.684432 C 14.09383 30.664679 14.116039 30.654977 14.140739 30.654977 z M 19.237586 30.654977 L 22.452893 30.654977 C 22.551671 30.654977 22.633118 30.694294 22.697323 30.773316 L 23.24561 31.492135 C 23.265363 31.516828 23.267664 31.541339 23.252844 31.566032 C 23.242964 31.585785 23.22305 31.595488 23.193417 31.595488 L 21.541838 31.595488 L 21.541838 35.751823 C 21.541838 35.81109 21.511703 35.840707 21.452438 35.840707 L 20.689693 35.840707 C 20.630427 35.840707 20.60081 35.81109 20.60081 35.751823 L 20.60081 31.595488 L 19.237586 31.595488 C 19.212892 31.595488 19.190683 31.58808 19.170923 31.573267 C 19.156103 31.553514 19.148702 31.531304 19.148702 31.506604 L 19.148702 30.74386 C 19.148702 30.719167 19.156103 30.699252 19.170923 30.684432 C 19.190676 30.664679 19.212886 30.654977 19.237586 30.654977 z M 40.558765 30.654977 L 43.774073 30.654977 C 43.87285 30.654977 43.954296 30.694294 44.018502 30.773316 L 44.566789 31.492135 C 44.586542 31.516828 44.588844 31.541339 44.574024 31.566032 C 44.564144 31.585785 44.544229 31.595488 44.514596 31.595488 L 42.8625 31.595488 L 42.8625 35.751823 C 42.8625 35.81109 42.832884 35.840707 42.773617 35.840707 L 42.010873 35.840707 C 41.951606 35.840707 41.921989 35.81109 41.921989 35.751823 L 41.921989 31.595488 L 40.558765 31.595488 C 40.534072 31.595488 40.511856 31.58808 40.492102 31.573267 C 40.477289 31.553514 40.469882 31.531304 40.469882 31.506604 L 40.469882 30.74386 C 40.469882 30.719167 40.477289 30.699252 40.492102 30.684432 C 40.511856 30.664679 40.534072 30.654977 40.558765 30.654977 z M 11.969812 30.669446 L 12.673645 30.669446 C 12.732912 30.669446 12.762529 30.699063 12.762529 30.75833 L 12.762529 35.766293 C 12.762529 35.825559 12.732912 35.855176 12.673645 35.855176 L 11.969812 35.855176 C 11.871034 35.855176 11.789588 35.815859 11.725383 35.736837 L 10.443807 34.062521 L 9.1549968 35.736837 C 9.0907917 35.815859 9.009345 35.855176 8.9105673 35.855176 L 7.9695395 35.855176 C 7.9448448 35.855176 7.9249281 35.845474 7.9101116 35.825721 C 7.8952949 35.801027 7.8981064 35.776517 7.917863 35.751823 L 11.725383 30.788302 C 11.789589 30.70928 11.871036 30.669446 11.969812 30.669446 z M 24.149431 30.669446 L 24.912175 30.669446 C 24.976381 30.669446 25.00881 30.699063 25.00881 30.75833 L 25.00881 35.766293 C 25.00881 35.825559 24.976381 35.855176 24.912175 35.855176 L 24.149431 35.855176 C 24.124737 35.855176 24.102528 35.847769 24.082768 35.832955 C 24.067955 35.813202 24.060547 35.790986 24.060547 35.766293 L 24.060547 30.75833 C 24.060547 30.733636 24.067955 30.714238 24.082768 30.699418 C 24.102521 30.679665 24.124731 30.669446 24.149431 30.669446 z M 26.386503 30.669446 L 29.816785 30.669446 C 29.846418 30.669446 29.866333 30.68196 29.876213 30.706653 C 29.891026 30.726406 29.888208 30.748616 29.868461 30.773316 L 29.320174 31.492135 C 29.255968 31.571157 29.174521 31.610474 29.075745 31.610474 L 27.245882 31.610474 L 27.245882 32.795931 L 29.097966 32.795931 C 29.157232 32.795931 29.186849 32.825548 29.186849 32.884815 L 29.186849 33.640324 C 29.186849 33.704531 29.157232 33.736442 29.097966 33.736442 L 27.245882 33.736442 L 27.245882 35.766293 C 27.245882 35.825559 27.213971 35.855693 27.149764 35.855693 L 26.386503 35.855693 C 26.36181 35.855693 26.339594 35.848285 26.319841 35.833472 C 26.305027 35.813719 26.29762 35.790986 26.29762 35.766293 L 26.29762 30.75833 C 26.29762 30.733636 26.305027 30.714238 26.319841 30.699418 C 26.339594 30.679665 26.36181 30.669446 26.386503 30.669446 z M 33.113225 30.669446 L 33.817058 30.669446 C 33.876324 30.669446 33.905941 30.699063 33.905941 30.75833 L 33.905941 35.766293 C 33.905941 35.825559 33.876324 35.855176 33.817058 35.855176 L 33.113225 35.855176 C 33.014447 35.855176 32.933 35.815859 32.868795 35.736837 L 31.58722 34.062521 L 30.298409 35.736837 C 30.234203 35.815859 30.152756 35.855176 30.05398 35.855176 L 29.112952 35.855176 C 29.088259 35.855176 29.068344 35.845474 29.053524 35.825721 C 29.038711 35.801027 29.04153 35.776517 29.061275 35.751823 L 32.868795 30.788302 C 32.933002 30.70928 33.014448 30.669446 33.113225 30.669446 z M 11.822018 32.269865 L 11.058757 33.262569 L 11.822018 34.255274 L 11.822018 32.269865 z M 32.96543 32.269865 L 32.202169 33.262569 L 32.96543 34.255274 L 32.96543 32.269865 z " />
    <path
       style="color:#000000;fill:#000000;stroke-linecap:round;stroke-linejoin:round;-inkscape-stroke:none;paint-order:stroke markers fill"
       d="m 20.953761,9.5797773 a 1.2701279,1.2701279 0 0 0 -1.097092,1.9063417 l 7.619691,13.196096 a 1.2701279,1.2701279 0 0 0 2.197797,0 L 37.293848,11.486119 A 1.2701279,1.2701279 0 0 0 36.192624,9.5797773 Z"
       id="path31"
       inkscape:label="dice hole" />
    <path
       id="path26"
       style="color:#000000;fill:none;stroke-linecap:round;stroke-linejoin:round;paint-order:markers stroke fill;stroke:#858585;stroke-opacity:1;stroke-width:0.254;stroke-dasharray:none"
       d="M 7.3029135 1.5880168 C 4.1917284 1.5880168 1.5880168 4.1917284 1.5880168 7.3029135 L 1.5880168 37.148637 C 1.5880168 40.259823 4.1917284 42.863534 7.3029135 42.863534 L 49.847604 42.863534 C 52.958789 42.863534 55.5625 40.259823 55.5625 37.148637 L 55.5625 7.3029135 C 55.5625 4.1917284 52.958789 1.5880168 49.847604 1.5880168 L 7.3029135 1.5880168 z "
       inkscape:label="cut" />
  </g>
</svg>
