<?xml version="1.0" encoding="UTF-8" standalone="no"?>
<!-- Created with Inkscape (http://www.inkscape.org/) -->

<svg
   width="3.5in"
   height="5in"
   viewBox="0 0 88.9 127.00001"
   version="1.1"
   id="svg1"
   inkscape:version="1.3.1 (91b66b0783, 2023-11-16)"
   sodipodi:docname="command-zone-holder.svg"
   xml:space="preserve"
   xmlns:inkscape="http://www.inkscape.org/namespaces/inkscape"
   xmlns:sodipodi="http://sodipodi.sourceforge.net/DTD/sodipodi-0.dtd"
   xmlns="http://www.w3.org/2000/svg"
   xmlns:svg="http://www.w3.org/2000/svg"><sodipodi:namedview
     id="namedview1"
     pagecolor="#ffffff"
     bordercolor="#000000"
     borderopacity="0.25"
     inkscape:showpageshadow="2"
     inkscape:pageopacity="0.0"
     inkscape:pagecheckerboard="0"
     inkscape:deskcolor="#d1d1d1"
     inkscape:document-units="in"
     inkscape:zoom="1.6083333"
     inkscape:cx="184.97409"
     inkscape:cy="168.49741"
     inkscape:window-width="1620"
     inkscape:window-height="1010"
     inkscape:window-x="-6"
     inkscape:window-y="-6"
     inkscape:window-maximized="1"
     inkscape:current-layer="layer2" /><defs
     id="defs1" /><g
     inkscape:groupmode="layer"
     id="layer2"
     inkscape:label="backing"><rect
       style="fill:#d56a11;fill-opacity:1;stroke:#925531;stroke-width:0.128721;stroke-linecap:round;stroke-linejoin:round;stroke-dasharray:none;stroke-opacity:1;paint-order:fill markers stroke"
       id="rect8"
       width="88.771286"
       height="126.87128"
       x="0.064360186"
       y="0.064360186"
       rx="3.1704032"
       ry="3.1717823"
       inkscape:label="cut" /><path
       id="rect9"
       style="fill:#fed1aa;fill-opacity:1;stroke:none;stroke-width:0.128721;stroke-linecap:round;stroke-linejoin:round;stroke-dasharray:none;stroke-opacity:1;paint-order:fill markers stroke"
       d="M 0.52658287 14.605311 L 0.58135989 14.636833 L 0.61649986 18.239197 C 0.63680248 20.316286 0.70344066 21.841045 0.77359622 21.841045 C 0.84050998 21.841045 1.8963977 21.256747 3.1202231 20.542416 L 5.3454104 19.243787 L 5.3805503 15.611451 L 5.3903689 14.605311 L 0.52658287 14.605311 z M 6.2368289 14.605311 C 6.2183847 15.658006 6.205823 17.006415 6.205823 18.731157 C 6.2058204 22.115598 6.2373341 24.884787 6.2761029 24.884787 C 6.3148738 24.884787 7.3865357 24.283284 8.6578698 23.547918 L 10.969357 22.211048 L 10.969357 18.733741 C 10.969357 16.111427 10.928749 15.224065 10.803992 15.123625 C 10.746296 15.077178 10.204101 14.770215 9.9291101 14.605311 L 6.2368289 14.605311 z M 12.778032 14.605311 L 11.829769 15.162383 L 11.794629 18.679997 L 11.759489 22.197612 L 14.044105 23.534998 C 15.300788 24.27057 16.371408 24.875086 16.423288 24.878586 C 16.475166 24.882081 16.52109 22.115598 16.52509 18.731157 C 16.527516 16.676149 16.517206 15.553765 16.501319 14.605311 L 12.778032 14.605311 z M 17.342611 14.605311 L 17.35243 15.618686 L 17.38757 19.25774 L 19.571416 20.542933 C 20.772346 21.249736 21.828233 21.830627 21.918043 21.834327 C 22.042885 21.83944 22.08957 20.993238 22.11648 18.241265 L 22.15162 14.641484 L 22.214149 14.605311 L 17.342611 14.605311 z M 23.84144 14.605311 L 22.883875 15.158248 L 22.881808 18.809189 L 22.879741 22.460129 L 25.294581 23.866761 C 26.622883 24.640364 27.781038 25.275228 27.868068 25.277528 C 27.955112 25.279874 29.130557 24.64195 30.480311 23.859526 L 32.934425 22.436874 L 32.934942 18.797303 L 32.935459 15.158248 L 31.978928 14.605311 L 23.84144 14.605311 z M 33.610353 14.605311 L 33.66513 14.636833 L 33.70027 18.239197 C 33.719635 20.220441 33.785294 21.841045 33.846514 21.841045 C 33.90775 21.841045 34.964153 21.256158 36.193658 20.540866 L 38.428664 19.24017 L 38.463804 15.605766 L 38.473622 14.605311 L 33.610353 14.605311 z M 39.317498 14.605311 C 39.300875 15.541736 39.289076 16.624218 39.289076 18.721855 C 39.289076 22.111632 39.32267 24.884787 39.36349 24.884787 C 39.404313 24.884787 40.475976 24.28397 41.745257 23.549468 L 44.053127 22.214149 L 44.048993 18.686199 L 44.044859 15.158248 L 43.076959 14.605311 L 39.317498 14.605311 z M 45.823045 14.605311 L 44.855145 15.158248 L 44.851011 18.686199 L 44.846877 22.213632 L 47.129942 23.543267 C 48.385458 24.274536 49.45712 24.875803 49.511708 24.879103 C 49.566288 24.882434 49.610927 22.111632 49.610927 18.721855 C 49.610927 16.624218 49.599541 15.541734 49.583022 14.605311 L 45.823045 14.605311 z M 50.407261 14.605311 L 50.407778 15.614551 L 50.409845 19.260841 L 52.62418 20.541899 C 53.841959 21.246481 54.911486 21.82716 55.001296 21.83226 C 55.126206 21.839298 55.17333 20.994833 55.20025 18.239197 L 55.23539 14.636833 L 55.290167 14.605311 L 50.407261 14.605311 z M 56.923143 14.605311 L 55.967645 15.158248 L 55.965062 18.806088 L 55.962995 22.453927 L 57.981476 23.620781 C 59.091427 24.262458 60.177964 24.897778 60.396316 25.032582 C 60.614668 25.167379 60.867272 25.278395 60.957522 25.279595 C 61.047764 25.280823 62.222831 24.64195 63.568732 23.859526 L 66.015611 22.436874 L 66.016128 18.797303 L 66.016128 15.158248 L 65.058564 14.605311 L 56.923143 14.605311 z M 66.685855 14.605311 L 66.748383 14.641484 L 66.783523 18.241265 C 66.802889 20.221124 66.863785 21.841045 66.918915 21.841045 C 66.974043 21.841045 68.030447 21.258856 69.266059 20.547067 L 71.512434 19.253089 L 71.547574 15.616618 L 71.557392 14.605311 L 66.685855 14.605311 z M 72.372846 14.605311 L 72.372846 18.659844 C 72.372846 22.083742 72.40546 24.884787 72.44571 24.884787 C 72.485963 24.884787 73.559039 24.280181 74.830061 23.5412 L 77.141031 22.197612 L 77.105891 18.682581 L 77.070234 15.167033 L 76.105952 14.605311 L 72.372846 14.605311 z M 78.945055 14.605311 L 77.996793 15.162383 L 77.961653 18.685165 L 77.926513 22.208464 L 80.211128 23.539649 C 81.467818 24.271871 82.540909 24.874269 82.595479 24.878069 C 82.650057 24.881944 82.694697 22.115598 82.694697 18.731157 C 82.694697 16.689221 82.682785 15.55698 82.665758 14.605311 L 78.945055 14.605311 z M 83.491031 14.605311 L 83.492065 15.619202 L 83.495682 19.260841 L 85.708467 20.539832 L 85.708984 20.539832 C 86.926227 21.243221 87.995783 21.823376 88.085583 21.829676 C 88.210554 21.838375 88.25707 20.996266 88.28402 18.239197 L 88.31916 14.636833 L 88.373937 14.605311 L 83.491031 14.605311 z M 10.969357 23.159311 L 10.33167 23.525697 C 9.9806695 23.727324 7.6875441 25.053015 5.2363731 26.471253 L 0.77979739 29.049908 L 0.77979739 31.21515 L 0.77979739 33.380393 L 1.2097453 33.129245 C 1.4462922 32.991195 3.7394206 31.664924 6.3050418 30.181621 L 10.969357 27.484628 L 10.969357 25.32197 L 10.969357 23.159311 z M 11.763624 23.159311 L 11.763624 25.32507 L 11.763624 27.49083 L 16.82533 30.420367 C 19.609302 32.031619 21.90193 33.350771 21.92011 33.351971 C 21.93833 33.353214 21.953183 32.385848 21.953183 31.202231 L 21.953183 29.050424 L 17.495057 26.471253 C 15.043075 25.052857 12.750463 23.727324 12.400277 23.525697 L 11.763624 23.159311 z M 44.053127 23.159311 L 43.392185 23.536549 C 43.028653 23.744172 40.736737 25.070369 38.298956 26.483656 L 33.866668 29.053525 L 33.865118 31.2167 L 33.863567 33.380393 L 34.293515 33.129245 C 34.530062 32.991195 36.822673 31.664924 39.388295 30.181621 L 44.053127 27.484628 L 44.053127 25.32197 L 44.053127 23.159311 z M 44.846877 23.159311 L 44.846877 25.32197 L 44.846877 27.485145 L 49.9091 30.417266 C 52.693071 32.029935 54.98568 33.350671 55.00388 33.351971 C 55.02207 33.353359 55.036256 32.386514 55.035403 31.203781 L 55.033852 29.053525 L 50.601564 26.483656 C 48.163785 25.070369 45.871869 23.744172 45.508335 23.536549 L 44.846877 23.159311 z M 77.136897 23.159311 L 76.499726 23.525697 C 76.149539 23.727324 73.856926 25.052857 71.404947 26.471253 L 66.946821 29.050424 L 66.946821 31.21515 L 66.946821 33.380393 L 67.376769 33.129762 C 67.613315 32.992007 69.906444 31.66684 72.472065 30.184722 L 77.136897 27.489796 L 77.136897 25.324553 L 77.136897 23.159311 z M 77.930647 23.159311 L 77.930647 25.32197 L 77.930647 27.485145 L 82.992354 30.417266 C 85.776326 32.029935 88.068933 33.350671 88.087133 33.351971 C 88.105353 33.353359 88.120206 32.386006 88.120206 31.202231 L 88.120206 29.049908 L 83.66363 26.471253 C 81.212459 25.053015 78.919846 23.727324 78.568851 23.525697 L 77.930647 23.159311 z M 32.954062 23.429062 C 32.890732 23.429062 31.833948 24.013 30.605368 24.726657 L 28.371396 26.024252 L 28.335739 28.33884 L 28.299566 30.652911 L 30.585214 31.993397 C 31.84235 32.730642 32.915502 33.338519 32.970082 33.344219 C 33.024652 33.349799 33.069301 31.120933 33.069301 28.39155 C 33.069301 25.662164 33.017382 23.429062 32.954062 23.429062 z M 66.039382 23.429062 C 65.976978 23.429062 64.920192 24.014506 63.690689 24.729758 L 61.455166 26.029937 L 61.418992 28.348658 L 61.382819 30.66738 L 63.668468 31.999082 C 64.925617 32.731681 65.999262 33.336369 66.053852 33.342669 C 66.108442 33.34902 66.153071 31.120933 66.153071 28.39155 C 66.153071 25.662164 66.101782 23.429062 66.039382 23.429062 z M 22.846668 23.431129 C 22.792088 23.430113 22.74745 25.667466 22.74745 28.402919 C 22.74745 31.138368 22.797929 33.356594 22.859587 33.332334 C 22.92124 33.308073 23.994363 32.699255 25.244455 31.979445 L 27.517185 30.670481 L 27.481011 28.357443 L 27.445354 26.043889 L 25.195362 24.738543 C 23.958041 24.020563 22.901248 23.432123 22.846668 23.431129 z M 55.929922 23.431646 C 55.875332 23.430246 55.830703 25.667466 55.830703 28.402919 C 55.830703 31.138368 55.881538 33.356594 55.943358 33.332334 C 56.005169 33.308073 57.078314 32.69585 58.328225 31.971693 L 60.600955 30.654978 L 60.564781 28.351759 L 60.528608 26.04854 L 58.279132 24.741126 C 57.041812 24.022287 55.984522 23.432946 55.929922 23.431646 z M 44.846877 28.433924 L 44.846877 37.849371 L 44.846877 47.264817 L 45.616856 46.827118 C 46.040289 46.586358 47.11172 45.972344 47.997589 45.46286 L 49.608343 44.536301 L 49.608343 37.853505 L 49.60886 31.170708 L 47.997072 30.244667 C 47.110703 29.73518 46.039452 29.118945 45.616339 28.875758 L 44.846877 28.433924 z M 10.903211 28.457696 L 8.7322839 29.716017 C 7.5380235 30.408236 6.484736 31.037818 6.3918582 31.114898 C 6.1438467 31.320733 6.1197941 44.367546 6.3670535 44.570408 C 6.4602701 44.646886 7.5189519 45.278161 8.7198815 45.973423 L 10.903211 47.237429 L 10.938351 42.545725 C 10.957471 39.965163 10.957471 35.739539 10.938351 33.1556 L 10.903211 28.457696 z M 43.986981 28.458729 L 41.640354 29.814719 L 39.294244 31.170708 L 39.294244 37.853505 L 39.294244 44.536301 L 41.640354 45.885573 L 43.986981 47.234328 L 44.021604 42.544175 C 44.040714 39.964538 44.040714 35.739782 44.021604 33.156117 L 43.986981 28.458729 z M 77.070234 28.466997 L 74.886905 29.731003 C 73.685973 30.426254 72.629191 31.057038 72.538211 31.132468 C 72.409913 31.238806 72.372846 32.747437 72.372846 37.853505 C 72.372846 42.959581 72.409929 44.468724 72.538211 44.575059 C 72.62919 44.650472 73.685973 45.27932 74.886905 45.97239 L 77.070234 47.232261 L 77.105374 42.543141 C 77.124484 39.963982 77.124484 35.741601 77.105374 33.160251 L 77.070234 28.466997 z M 11.862842 28.497486 C 11.808262 28.467064 11.763624 32.67728 11.763624 37.853505 C 11.763624 43.029732 11.808252 47.239363 11.862842 47.207973 C 11.91743 47.176573 12.765935 46.690744 13.748515 46.128452 C 14.731091 45.566163 15.758643 44.96228 16.03158 44.786415 L 16.527674 44.466538 L 16.527674 37.86074 L 16.527674 31.254941 L 16.163872 31.003794 C 15.893205 30.816815 13.017191 29.140808 11.862842 28.497486 z M 78.029866 28.499037 C 77.975276 28.46795 77.930647 32.675914 77.930647 37.850404 C 77.930646 46.769649 77.942607 47.252322 78.162157 47.134593 C 78.818696 46.782528 82.386861 44.690056 82.529333 44.573508 C 82.65765 44.468548 82.694697 42.959057 82.694697 37.84627 L 82.694697 31.254941 L 82.330895 30.999659 C 82.035064 30.792266 80.976071 30.176931 78.029866 28.499037 z M 5.4115562 31.643031 L 3.9227581 32.513779 C 3.1039428 32.992815 2.0596211 33.600612 1.6019695 33.864084 L 0.76997887 34.342608 L 0.80821943 35.330661 L 0.84594323 36.318715 L 3.0297893 37.602874 C 4.2307187 38.30908 5.2577466 38.892436 5.3123374 38.899436 C 5.3669194 38.906487 5.4115562 37.27653 5.4115562 35.277435 L 5.4115562 31.643031 z M 38.495326 31.643031 L 36.542991 32.775778 C 35.469434 33.398771 34.425105 34.006361 34.222202 34.126084 C 33.864246 34.337295 33.854533 34.373052 33.891473 35.336346 L 33.929713 36.32905 L 36.113043 37.607525 C 37.31397 38.310509 38.341001 38.891519 38.395591 38.898919 C 38.450181 38.906293 38.495326 37.276549 38.495326 35.277435 L 38.495326 31.643031 z M 83.488447 31.643031 L 83.488447 35.287253 L 83.488447 38.931992 L 84.249641 38.498944 C 84.668146 38.260815 85.695177 37.666906 86.532189 37.179127 L 88.05406 36.291843 L 88.092301 35.317226 L 88.130541 34.342608 L 87.298551 33.863567 C 86.840898 33.600138 85.796063 32.992816 84.977245 32.513779 L 83.488447 31.643031 z M 17.321424 31.647165 L 17.321424 35.283119 L 17.321424 38.919073 L 17.685743 38.72942 C 17.885898 38.625134 18.912929 38.03381 19.968291 37.415289 L 21.887037 36.29081 L 21.925278 35.317226 C 21.962147 34.374709 21.951707 34.336777 21.594548 34.127117 C 21.391646 34.008008 20.347319 33.401262 19.27376 32.778879 L 17.321424 31.647165 z M 71.578579 31.647165 L 69.626761 32.778879 C 68.553204 33.401262 67.508877 34.008008 67.305972 34.127117 C 66.947998 34.33726 66.938293 34.373245 66.975243 35.335312 L 67.012967 36.326466 L 69.196813 37.608559 C 70.397739 38.313526 71.424771 38.894786 71.479361 38.900986 C 71.533951 38.907108 71.578579 37.277908 71.578579 35.280018 L 71.578579 31.647165 z M 50.405194 31.648715 L 50.405194 35.283636 L 50.405194 38.919073 L 50.768996 38.72942 C 50.969151 38.625134 51.996695 38.03381 53.052061 37.415289 L 54.970807 36.29081 L 55.009048 35.307407 L 55.047288 34.324004 L 52.725983 32.986618 L 50.405194 31.648715 z M 60.594753 31.653366 L 58.246059 33.018658 L 55.896849 34.384466 L 55.862226 38.444683 C 55.832303 41.915042 55.854675 42.499416 56.016738 42.462526 C 56.12109 42.438787 57.191467 41.853274 58.395404 41.16183 L 60.584418 39.905059 L 60.589586 35.779213 L 60.594753 31.653366 z M 27.409698 31.766538 C 27.353803 31.766538 26.297015 32.3555 25.061004 33.075502 L 22.813595 34.384466 L 22.775355 38.445717 C 22.742563 41.946909 22.764205 42.500753 22.930384 42.463043 C 23.036401 42.438986 24.108211 41.853274 25.312151 41.16183 L 27.501165 39.905059 L 27.506332 35.83554 C 27.509212 33.597443 27.465576 31.766538 27.409698 31.766538 z M 61.463434 31.766538 C 61.422594 31.766538 61.390638 33.597443 61.392638 35.83554 L 61.395738 39.905059 L 63.675186 41.247096 C 64.928764 41.98544 65.999262 42.596003 66.053852 42.603603 C 66.108442 42.611294 66.153071 40.776987 66.153071 38.527366 L 66.153071 34.437176 L 63.845201 33.101857 C 62.575919 32.367354 61.504254 31.766538 61.463434 31.766538 z M 28.470615 31.802711 C 28.340453 31.751775 28.305806 32.608128 28.3068 35.821588 L 28.307834 39.905059 L 30.353187 41.078114 C 31.478061 41.723283 32.504786 42.33142 32.634702 42.42997 C 32.764617 42.5285 32.916529 42.611121 32.972149 42.613421 C 33.027719 42.615736 33.057525 40.766932 33.038295 38.505145 L 33.003155 34.392734 L 30.819825 33.130279 C 29.618897 32.435752 28.561595 31.838311 28.470615 31.802711 z M 21.953183 37.200832 L 20.001364 38.333579 C 18.927806 38.95657 17.885899 39.562684 17.685743 39.680784 L 17.321424 39.895758 L 17.321424 41.979868 L 17.321424 44.064496 L 18.810222 43.193231 C 19.629036 42.714193 20.671462 42.10839 21.12636 41.846543 L 21.953183 41.370086 L 21.953183 39.285459 L 21.953183 37.200832 z M 54.970807 37.239072 L 52.687742 38.564573 L 50.405194 39.889556 L 50.405194 41.974184 L 50.405194 44.058294 L 52.55545 42.804624 C 53.738185 42.115294 54.781789 41.505124 54.874689 41.448634 C 55.002623 41.370847 55.035217 40.848193 55.007497 39.292694 L 54.970807 37.239072 z M 88.05406 37.244757 L 85.771512 38.56819 L 83.488447 39.891623 L 83.488447 41.974701 L 83.488447 44.058294 L 85.63922 42.804624 C 86.821954 42.115294 87.865559 41.505124 87.958459 41.448634 C 88.086394 41.370857 88.118471 40.848408 88.090751 39.295277 L 88.05406 37.244757 z M 0.86506351 37.324338 C 0.81813661 37.324338 0.77979739 38.235401 0.77979739 39.349021 L 0.77979739 41.373704 L 3.0628623 42.712123 C 4.3183793 43.448214 5.3602863 44.055612 5.3784833 44.061912 C 5.3966813 44.068182 5.4115562 43.13441 5.4115562 41.986586 L 5.4115562 39.899375 L 3.1812013 38.612115 C 1.9544189 37.903959 0.91199031 37.324338 0.86506351 37.324338 z M 33.946766 37.324338 C 33.900918 37.324338 33.863567 38.235401 33.863567 39.349021 L 33.863567 41.373704 L 36.146116 42.712123 C 37.401631 43.448214 38.443537 44.055612 38.461737 44.061912 C 38.479927 44.068182 38.494533 43.135512 38.493776 41.98917 L 38.492226 39.905059 L 36.261354 38.614699 C 35.034232 37.905058 33.992606 37.324338 33.946766 37.324338 z M 67.036738 37.324338 C 66.987368 37.324338 66.946821 38.233391 66.946821 39.34437 L 66.946821 41.364402 L 69.229369 42.707989 L 69.229886 42.707989 C 70.485121 43.446791 71.52732 44.05623 71.545507 44.062428 C 71.563717 44.068464 71.577768 43.135512 71.577029 41.98917 L 71.575996 39.905059 L 69.351325 38.614699 C 68.127702 37.905058 67.086088 37.324338 67.036738 37.324338 z M 27.43812 40.897247 C 27.397867 40.897247 26.326203 41.501498 25.056353 42.239801 L 22.74745 43.581838 L 22.74745 51.752399 L 22.74745 59.92296 L 25.029998 61.250011 C 26.285512 61.980104 27.357701 62.582747 27.412281 62.588947 C 27.466851 62.595138 27.5115 57.717035 27.5115 51.748781 C 27.5115 45.780527 27.47837 40.897247 27.43812 40.897247 z M 28.418938 40.919468 C 28.356242 40.895127 28.30525 45.775417 28.30525 51.809243 L 28.30525 62.74346 L 28.868007 62.418415 C 29.177336 62.239446 30.234123 61.624632 31.2167 61.05209 L 33.003155 60.01081 L 33.037261 51.807692 L 33.071368 43.604059 L 30.801739 42.283726 C 29.553571 41.557531 28.481418 40.943728 28.418938 40.919468 z M 61.501158 40.919468 C 61.439337 40.895207 61.38902 45.763609 61.38902 51.737929 C 61.38902 57.712247 61.41331 62.600316 61.44328 62.600316 C 61.473247 62.600316 62.545425 61.997803 63.825564 61.261379 L 66.153071 59.922443 L 66.153071 51.757566 L 66.153071 43.593206 L 63.883442 42.278558 C 62.63515 41.555337 61.562978 40.943728 61.501158 40.919468 z M 60.542043 40.932387 C 60.51204 40.902384 59.439284 41.48433 58.158209 42.225331 L 55.828636 43.572536 L 55.862742 51.794257 L 55.896849 60.015461 L 58.212987 61.361632 L 60.528608 62.707803 L 60.562714 51.847483 C 60.581334 45.874287 60.572053 40.962397 60.542043 40.932387 z M 0.77979739 42.346254 L 0.77979739 47.45757 L 0.77979739 52.568886 L 1.2097453 52.315155 C 1.4462923 52.175731 2.4897186 51.569429 3.5284669 50.967434 L 5.4172406 49.872927 L 5.3815839 47.423981 L 5.3454104 44.975551 L 3.4266644 43.850555 C 2.3713023 43.231833 1.3437545 42.640195 1.1435995 42.535907 L 0.77979739 42.346254 z M 33.863567 42.346254 L 33.863567 47.449302 C 33.863567 52.269291 33.876331 52.544988 34.095078 52.425226 C 34.222451 52.355489 35.249481 51.764024 36.377626 51.111094 L 38.42918 49.924086 L 38.42918 47.449819 L 38.42918 44.975551 L 36.509918 43.850555 C 35.454558 43.231761 34.427523 42.640195 34.22737 42.535907 L 33.863567 42.346254 z M 66.946821 42.347804 L 66.946821 47.458087 L 66.946821 52.568886 L 67.376769 52.315155 C 67.613315 52.175731 68.656741 51.569429 69.69549 50.967434 L 71.584264 49.872927 L 71.548607 47.417263 L 71.512434 44.962115 L 69.725979 43.916701 C 68.743402 43.341925 67.716368 42.753948 67.443431 42.609804 L 66.946821 42.347804 z M 54.970807 42.349871 L 52.720815 43.660903 L 50.47134 44.971417 L 50.47134 47.452403 L 50.47134 49.933388 L 52.720815 51.238735 L 54.970807 52.544082 L 55.006464 50.037775 C 55.026204 48.659294 55.026204 46.365855 55.006464 44.940928 L 54.970807 42.349871 z M 21.887037 42.351422 L 19.637562 43.656768 L 17.38757 44.962115 L 17.38757 47.448268 L 17.38757 49.934422 L 19.637562 51.242869 L 21.887037 52.5508 L 21.92321 50.041392 C 21.94296 48.661075 21.94296 46.365953 21.92321 44.941445 L 21.887037 42.351422 z M 88.05406 42.351422 L 85.804585 43.656768 L 83.554593 44.962115 L 83.554593 47.447752 L 83.554593 49.933388 L 85.804585 51.238735 L 88.05406 52.544082 L 88.090234 50.037775 C 88.109994 48.659294 88.109994 46.365953 88.090234 44.941445 L 88.05406 42.351422 z M 16.457394 45.529006 C 16.418825 45.529006 15.347163 46.137333 14.075627 46.880861 L 11.763624 48.232717 L 11.763624 64.293753 C 11.763624 73.127332 11.814091 80.335123 11.875761 80.310863 C 11.937415 80.286602 13.009073 79.678394 14.257528 78.959525 L 16.527674 77.652628 L 16.527674 61.591075 C 16.527674 52.7571 16.495964 45.529006 16.457394 45.529006 z M 72.442609 45.529006 C 72.404039 45.529006 72.372846 52.755972 72.372846 61.589008 L 72.372846 77.64901 L 74.655394 78.979678 C 75.910911 79.711339 76.982571 80.314899 77.037161 80.321199 C 77.091751 80.327548 77.136897 73.110414 77.136897 64.2829 L 77.136897 48.232717 L 74.824893 46.880861 C 73.553355 46.137333 72.481189 45.529006 72.442609 45.529006 z M 82.624417 45.529006 C 82.585846 45.529006 81.514184 46.137333 80.24265 46.880861 L 77.930647 48.232717 L 77.930647 64.293753 C 77.930647 73.127332 77.979131 80.335123 78.038651 80.310863 C 78.098176 80.286602 79.170354 79.678296 80.420934 78.959008 L 82.694697 77.651077 L 82.694697 61.590041 C 82.694697 52.756484 82.662987 45.529006 82.624417 45.529006 z M 6.3215782 45.551227 C 6.2552061 45.52604 6.205823 52.398369 6.205823 61.570404 L 6.205823 77.633507 L 8.4883711 78.971927 C 9.7438893 79.708016 10.815538 80.315415 10.870138 80.321715 C 10.924718 80.327987 10.969357 73.108292 10.969357 64.27825 L 10.969357 48.223415 L 8.7038618 46.909283 C 7.4576935 46.18648 6.385508 45.575487 6.3215782 45.551227 z M 39.405348 45.551227 C 39.338969 45.52604 39.289076 52.398385 39.289076 61.570921 L 39.289076 77.635058 L 41.571624 78.973994 C 42.82714 79.710297 43.899338 80.317049 43.953908 80.322749 C 44.008498 80.328328 44.053127 73.108292 44.053127 64.27825 L 44.053127 48.223415 L 41.787115 46.909283 C 40.540947 46.18648 39.469288 45.575487 39.405348 45.551227 z M 49.495172 45.551227 C 49.431235 45.575489 48.359059 46.18648 47.112888 46.909283 L 44.846877 48.223415 L 44.846877 64.289102 C 44.846877 73.462559 44.896779 80.336043 44.963149 80.310863 C 45.027088 80.286602 46.099264 79.675092 47.345432 78.95229 L 49.610927 77.638158 L 49.610927 61.572471 C 49.610927 52.399014 49.561562 45.526047 49.495172 45.551227 z M 17.321424 50.831525 L 17.321424 61.467568 L 17.321424 72.104129 L 19.637562 70.760025 L 21.953183 69.415921 L 21.953183 61.470669 L 21.953183 53.525417 L 21.12636 53.049477 C 20.671462 52.787631 19.629036 52.181311 18.810222 51.702273 L 17.321424 50.831525 z M 71.578579 50.837209 L 69.262958 52.172011 L 66.946821 53.506814 L 66.946821 61.47532 L 66.946821 69.444343 L 69.229886 70.775011 C 70.485402 71.506669 71.527327 72.110231 71.545507 72.116531 C 71.563727 72.12288 71.578579 67.33761 71.578579 61.482555 L 71.578579 50.837209 z M 50.405194 50.843927 L 50.405194 61.473253 L 50.405194 72.102579 L 52.718748 70.758991 L 55.032302 69.415404 L 55.034886 61.472219 L 55.036953 53.529551 L 52.720815 52.186997 L 50.405194 50.843927 z M 83.488447 50.843927 L 83.488447 61.474286 L 83.488447 72.104129 L 85.804585 70.760025 L 88.120206 69.415921 L 88.120206 61.472736 L 88.120206 53.529551 L 85.804585 52.186997 L 83.488447 50.843927 z M 38.42918 50.852195 L 36.146116 52.179763 L 33.863567 53.50733 L 33.863567 61.469119 L 33.863567 69.43039 L 36.146116 70.755891 L 38.42918 72.080874 L 38.463287 66.734947 C 38.482297 63.794802 38.482297 59.018371 38.463287 56.120608 L 38.42918 50.852195 z M 5.3454104 50.853229 L 3.0628623 52.18338 L 0.77979739 53.513532 L 0.77979739 61.473253 L 0.77979739 69.432457 L 2.7977622 70.598278 C 3.9077119 71.239461 4.9352597 71.838634 5.080827 71.929462 C 5.3436432 72.093458 5.3456996 72.056792 5.3800336 66.741665 C 5.3990526 63.797796 5.3990526 59.019035 5.3800336 56.121641 L 5.3454104 50.853229 z M 22.858037 63.261774 C 22.802267 63.261774 22.757826 64.512476 22.758818 66.040933 C 22.759898 67.569387 22.808559 68.819575 22.867339 68.819575 C 23.12571 68.819575 27.445354 66.200687 27.445354 66.044033 C 27.445354 65.889484 23.112831 63.261774 22.858037 63.261774 z M 32.947861 63.261774 C 32.676982 63.261774 28.37169 65.86196 28.34194 66.043517 C 28.320971 66.171473 29.077915 66.684387 30.524236 67.523013 C 31.742098 68.229169 32.812956 68.809873 32.903936 68.813373 C 33.031213 68.818247 33.069301 68.179297 33.069301 66.040933 C 33.069301 64.442578 33.017711 63.261774 32.947861 63.261774 z M 66.039899 63.261774 C 65.773085 63.261774 61.45536 65.863356 61.42571 66.041966 C 61.404084 66.172307 62.188342 66.697821 63.739781 67.591743 C 65.030632 68.335517 66.101798 68.946049 66.119998 68.948249 C 66.138218 68.950507 66.153071 67.671926 66.153071 66.107079 C 66.153071 64.542231 66.101919 63.261774 66.039899 63.261774 z M 55.929922 63.263841 C 55.875332 63.262823 55.830703 64.512476 55.830703 66.040933 C 55.830702 67.569387 55.882621 68.819575 55.945941 68.819575 C 56.209756 68.819575 60.528608 66.210173 60.528608 66.050751 C 60.528608 65.898563 56.189012 63.268641 55.929922 63.263841 z M 61.109451 67.033637 C 60.975159 66.982698 59.95849 67.498121 58.363365 68.4258 L 55.830703 69.899095 L 55.830703 72.176476 L 55.830703 74.454373 L 58.378351 75.937487 C 59.779435 76.753303 60.949213 77.420927 60.978193 77.421117 C 61.007172 77.42131 62.183491 76.758345 63.591987 75.947822 L 66.153071 74.47401 L 66.153071 72.194563 L 66.153071 69.914598 L 63.737714 68.514684 C 62.409411 67.744729 61.226725 67.078117 61.109451 67.033637 z M 28.028781 67.035187 C 27.898485 66.985773 26.85482 67.51532 25.283212 68.427867 L 22.74745 69.900129 L 22.74745 72.185261 L 22.74745 74.47091 L 25.294581 75.942654 C 26.695666 76.752271 27.928142 77.383916 28.033432 77.346186 C 28.138714 77.30846 29.315035 76.642044 30.647226 75.86514 L 33.069301 74.452306 L 33.069301 72.183711 L 33.069301 69.914598 L 30.654461 68.514684 C 29.326161 67.744728 28.144407 67.079047 28.028781 67.035187 z M 55.036953 70.385371 L 54.209613 70.848908 C 53.754717 71.10412 52.727683 71.694274 51.927065 72.159939 L 50.47134 73.006399 L 50.43465 75.096711 L 50.398476 77.187023 L 50.832041 76.931741 C 51.070479 76.791198 52.114113 76.184064 53.15128 75.582986 L 55.036953 74.490547 L 55.036953 72.437959 L 55.036953 70.385371 z M 21.904607 70.408108 C 21.877671 70.408108 20.850122 70.992062 19.621542 71.705704 L 17.38757 73.002782 L 17.351396 75.095161 L 17.314706 77.187023 L 17.748271 76.931741 C 17.986707 76.791198 19.030344 76.184064 20.06751 75.582986 L 21.953183 74.490547 L 21.953183 72.449327 C 21.953183 71.32666 21.931547 70.408108 21.904607 70.408108 z M 88.073181 70.408108 C 88.047169 70.408108 87.019617 70.993058 85.790116 71.708287 L 83.55511 73.008983 L 83.51842 75.097745 L 83.481729 77.187023 L 83.915295 76.931741 C 84.153728 76.791198 85.197367 76.184064 86.234533 75.582986 L 88.120206 74.490547 L 88.120206 72.449327 C 88.120206 71.32666 88.099191 70.408108 88.073181 70.408108 z M 33.978806 70.496475 C 33.865555 70.538361 33.863567 70.931239 33.863567 72.443643 L 33.863567 74.488479 L 36.146116 75.815014 L 38.428664 77.141548 L 38.465354 75.141153 C 38.485524 74.041023 38.455748 73.096646 38.399208 73.042056 C 38.307832 72.95384 34.819646 70.910293 34.133318 70.542984 C 34.066823 70.507402 34.016556 70.482513 33.978806 70.496475 z M 67.062059 70.496475 C 66.948807 70.538361 66.946821 70.931239 66.946821 72.443643 L 66.946821 74.488479 L 69.229886 75.815014 L 71.512434 77.141548 L 71.549124 75.141153 C 71.569294 74.041023 71.539518 73.096646 71.482978 73.042056 C 71.391602 72.95384 67.902898 70.910293 67.216572 70.542984 C 67.150076 70.507402 67.09981 70.482513 67.062059 70.496475 z M 0.87901615 70.500609 C 0.78405029 70.574011 0.78402692 71.003456 0.80976973 72.462763 L 0.84594323 74.530337 L 3.0959352 75.83 L 5.3454104 77.129662 L 5.3821006 75.135468 C 5.4022546 74.038594 5.3725026 73.09695 5.3159548 73.04309 C 5.2272563 72.958609 1.6687959 70.87499 1.0082072 70.520763 C 0.9529305 70.49112 0.91067143 70.476142 0.87901615 70.500609 z M 22.378997 75.180427 L 19.847885 76.648038 L 17.31729 78.115648 L 17.35243 81.764521 L 17.38757 85.413911 L 19.571416 86.698071 C 20.772344 87.404508 21.82913 87.988666 21.92011 87.995666 C 22.048606 88.005625 22.086742 87.203131 22.090642 84.402087 L 22.09581 80.796105 L 24.534937 79.406526 C 25.876622 78.6423 26.976099 77.980988 26.978199 77.936848 C 26.980263 77.892726 25.946051 77.254335 24.680148 76.51833 L 22.378997 75.180427 z M 66.529275 75.184561 L 64.223473 76.51988 C 62.955531 77.254359 61.920221 77.891871 61.922321 77.936331 C 61.924381 77.980793 63.023381 78.6423 64.365066 79.406526 L 66.80471 80.796105 L 66.809361 84.402087 L 66.809878 84.402087 C 66.81263 86.385441 66.859178 88.006784 66.913748 88.005484 C 66.968337 88.004086 68.025637 87.414886 69.262958 86.696004 L 71.512434 85.389107 L 71.547574 81.752119 L 71.582714 78.115648 L 69.055736 76.650105 L 66.529275 75.184561 z M 0.33072918 75.264143 C 0.3198963 75.264441 0.10052331 75.394751 0.064595543 75.410387 L 0.064595543 80.468476 L 0.64027102 80.796105 L 0.64388837 84.402087 C 0.64594783 86.385441 0.69213388 88.00751 0.74672448 88.006518 C 0.80131223 88.0055 1.858616 87.417124 3.0959352 86.699104 L 5.3454104 85.393757 L 5.3805503 81.752636 L 5.4156903 78.111514 L 2.9465903 76.685761 C 1.5884976 75.901682 0.41124862 75.261943 0.33072918 75.264143 z M 88.569274 75.264143 C 88.488751 75.261926 87.312024 75.901682 85.95393 76.685761 L 83.484313 78.111514 L 83.519453 81.761421 L 83.554593 85.410811 L 85.738439 86.699104 C 87.796192 87.912893 88.274195 88.14433 88.236995 87.908849 C 88.228315 87.854262 88.229942 86.231635 88.240612 84.302868 L 88.260249 80.796105 L 88.835408 80.468476 L 88.835408 75.410387 C 88.79949 75.394756 88.580105 75.264441 88.569274 75.264143 z M 33.517335 75.281196 C 33.363652 75.234423 28.832251 77.807363 28.838551 77.937881 C 28.840613 77.981433 29.940126 78.6423 31.281813 79.406526 L 33.72094 80.796105 L 33.726108 84.402087 C 33.728859 86.385441 33.775916 88.00751 33.830494 88.006518 C 33.885083 88.0055 34.941868 87.417124 36.179188 86.699104 L 38.42918 85.393757 L 38.46432 81.752119 L 38.49946 78.110998 L 36.079453 76.717801 C 34.748499 75.95152 33.595385 75.304956 33.517335 75.281196 z M 55.380084 75.281713 C 55.300512 75.305764 54.147401 75.954658 52.817967 76.723485 L 50.40106 78.121333 L 50.4362 81.770723 L 50.47134 85.420112 L 52.717714 86.71409 L 52.718231 86.71409 C 53.953841 87.425881 55.010625 88.008068 55.066925 88.008068 C 55.123214 88.008068 55.171712 86.385441 55.174412 84.402087 L 55.179063 80.796105 L 57.618708 79.406526 C 58.96039 78.6423 60.059869 77.981441 60.061969 77.937881 C 60.068214 77.806066 55.535749 75.234663 55.380084 75.281713 z M 27.908375 78.479967 C 27.828668 78.479967 26.664487 79.117513 25.321453 79.896418 L 22.879741 81.312353 L 22.879741 84.962776 L 22.879741 88.612683 L 24.434685 89.501 C 25.28989 89.989768 26.37643 90.623024 26.849525 90.90815 C 27.322621 91.193294 27.765661 91.431633 27.833961 91.437833 C 27.902269 91.443945 29.07757 90.808973 30.445688 90.02655 L 32.932875 88.603898 L 32.934942 84.958125 L 32.937009 81.312353 L 30.495297 79.896418 C 29.152263 79.117513 27.988095 78.479967 27.908375 78.479967 z M 60.992145 78.479967 C 60.912441 78.479967 59.748256 79.117515 58.405223 79.896418 L 55.963511 81.312353 L 55.964545 84.958125 L 55.965578 88.603898 L 58.379385 90.016214 C 59.707038 90.793071 60.852077 91.433267 60.923415 91.438867 C 60.994756 91.444433 62.170011 90.808974 63.535142 90.02655 L 66.017162 88.603898 L 66.018712 84.958125 L 66.020779 81.312353 L 63.579067 79.896418 C 62.236033 79.117515 61.071865 78.479967 60.992145 78.479967 z M 39.289076 78.597273 L 39.289076 84.835652 C 39.289076 88.266761 39.340284 91.054366 39.402764 91.030106 C 39.465249 91.005845 40.536912 90.391726 41.784531 89.665848 L 44.053127 88.346032 L 44.051576 84.835652 L 44.050026 81.325272 L 42.439788 80.39923 C 41.55392 79.889744 40.482489 79.275733 40.059055 79.034972 L 39.289076 78.597273 z M 49.610927 78.597273 L 48.840948 79.034972 C 48.417517 79.275733 47.346598 79.889744 46.460732 80.39923 L 44.849977 81.325272 L 44.848427 84.834102 L 44.846877 88.342932 L 47.129942 89.686519 C 48.385458 90.425484 49.45712 91.034758 49.511708 91.040958 C 49.566298 91.046994 49.610927 88.249842 49.610927 84.8248 L 49.610927 78.597273 z M 72.372846 78.597273 L 72.372846 84.835652 L 72.37233 84.835652 C 72.37233 88.266761 72.423164 91.054366 72.484984 91.030106 C 72.546798 91.005845 73.618458 90.394238 74.866751 89.671016 L 77.13638 88.355851 L 77.135346 84.84082 L 77.133796 81.325272 L 75.523042 80.39923 C 74.637173 79.889744 73.565742 79.275733 73.142308 79.034972 L 72.372846 78.597273 z M 82.694697 78.597273 L 81.930403 79.034972 C 81.510107 79.275733 80.438857 79.889744 79.549669 80.39923 L 77.932714 81.325272 L 77.93168 84.838753 L 77.930647 88.352233 L 80.213195 89.690653 C 81.468714 90.426742 82.540889 91.034141 82.595479 91.040441 C 82.650057 91.046711 82.694697 88.249842 82.694697 84.8248 L 82.694697 78.597273 z M 6.3463829 78.745067 C 6.2617108 78.745067 6.2130268 80.929807 6.2084068 84.910066 C 6.2044456 88.33594 6.252186 91.055553 6.3158938 91.030623 C 6.3789521 91.005946 7.4515676 90.394238 8.6997277 89.671016 L 10.969357 88.355851 L 10.966773 84.84082 L 10.964189 81.325272 L 8.7209151 80.034911 C 7.4870933 79.325271 6.4185187 78.745067 6.3463829 78.745067 z M 16.388148 78.745067 C 16.311394 78.745067 15.240158 79.325271 14.007931 80.034911 L 11.767758 81.325272 L 11.765691 84.838753 L 11.763624 88.352233 L 14.046172 89.690653 C 15.301688 90.426742 16.373875 91.034141 16.428455 91.040441 C 16.483045 91.046711 16.527674 88.282616 16.527674 84.89818 C 16.527674 80.67183 16.483998 78.745067 16.388148 78.745067 z M 44.053127 89.305664 L 43.623179 89.555777 C 43.386633 89.693532 41.094021 91.019218 38.528399 92.501334 L 33.863567 95.195743 L 33.863567 97.361503 L 33.863567 99.526745 L 34.501771 99.159843 C 34.852771 98.958211 37.145378 97.63304 39.596551 96.214803 L 44.053127 93.636149 L 44.053127 91.470906 L 44.053127 89.305664 z M 44.846877 89.305664 L 44.846877 91.470389 L 44.846877 93.635115 L 49.9091 96.571887 C 52.693073 98.187203 54.98568 99.51196 55.00388 99.51486 C 55.0221 99.518293 55.036953 98.54789 55.036953 97.358402 L 55.036953 95.195743 L 50.372121 92.501334 C 47.806502 91.019218 45.513889 89.693532 45.277341 89.555777 L 44.846877 89.305664 z M 11.763107 89.324784 L 11.765174 91.478658 L 11.767241 93.632531 L 16.827397 96.567236 L 21.887037 99.501941 L 21.924761 97.361503 C 21.953811 95.725748 21.922632 95.195215 21.792469 95.114095 C 21.37755 94.855497 12.45382 89.686309 12.127426 89.51547 L 11.763107 89.324784 z M 77.092455 89.331502 C 77.068161 89.331502 75.177225 90.421815 72.890644 91.75461 C 70.604059 93.087404 68.331597 94.40272 67.840306 94.677429 L 66.946821 95.17714 L 66.946821 97.359953 L 66.946821 99.543282 L 67.588642 99.168111 C 67.941669 98.961946 70.23401 97.632014 72.682388 96.212736 L 77.133796 93.632531 L 77.135346 91.482275 C 77.136106 90.299541 77.116745 89.331502 77.092455 89.331502 z M 10.870138 89.368192 C 10.81555 89.397001 8.5229391 90.723317 5.7753583 92.315299 L 0.77979739 95.209696 L 0.77979739 97.376489 L 0.77979739 99.543282 L 1.4216187 99.168111 C 1.7746491 98.961946 4.0671264 97.632016 6.5158816 96.212736 L 10.968323 93.632531 L 10.96884 91.474007 C 10.96922 90.286976 10.924738 89.339392 10.870138 89.368192 z M 78.029866 89.368192 C 77.975276 89.339382 77.931614 90.286977 77.932714 91.474007 L 77.934781 93.632531 L 82.994421 96.572404 C 85.777244 98.189289 88.068943 99.514927 88.087133 99.516927 C 88.105353 99.519468 88.120206 98.551309 88.120206 97.365637 L 88.120206 95.209696 L 83.124645 92.315299 C 80.377064 90.723317 78.084454 89.396992 78.029866 89.368192 z M 22.862688 89.596085 C 22.799366 89.596085 22.74745 91.834493 22.74745 94.569942 C 22.747451 97.305393 22.794239 99.523667 22.851319 99.499357 C 22.9084 99.475113 23.980568 98.859834 25.23412 98.131998 L 27.51305 96.808565 L 27.479461 94.500179 L 27.445354 92.191276 L 25.211382 90.89368 C 23.982801 90.180023 22.926008 89.596085 22.862688 89.596085 z M 55.943874 89.596085 C 55.881848 89.596085 55.830703 91.829189 55.830703 94.558573 C 55.830703 97.287957 55.852028 99.521061 55.877728 99.521061 C 55.903426 99.521061 56.72218 99.055991 57.697256 98.487016 C 58.672333 97.918035 59.724663 97.310397 60.035614 97.137227 L 60.600955 96.822518 L 60.564781 94.501729 L 60.528608 92.18094 L 58.292568 90.888513 C 57.062679 90.177725 56.005894 89.596085 55.943874 89.596085 z M 32.87448 89.619856 C 32.76711 89.64339 31.697561 90.228072 30.497881 90.919519 L 28.316619 92.176806 L 28.310935 94.498112 L 28.30525 96.819934 L 30.190923 97.902038 C 31.228089 98.497106 32.255637 99.100568 32.473988 99.243042 C 32.692337 99.385547 32.915492 99.506759 32.970082 99.511759 C 33.024662 99.517068 33.069301 97.283993 33.069301 94.549271 C 33.069301 90.23551 33.04385 89.582756 32.87448 89.619856 z M 65.964452 89.619856 C 65.860742 89.64339 64.790495 90.228072 63.586302 90.919519 L 61.396772 92.176806 L 61.394705 94.492427 L 61.392638 96.808565 L 63.673635 98.152152 C 64.928062 98.89124 65.999252 99.501759 66.053852 99.508659 C 66.108432 99.515606 66.153071 97.283993 66.153071 94.549271 C 66.153071 90.31421 66.125057 89.583416 65.964452 89.619856 z M 11.870594 94.64694 C 11.811845 94.622678 11.763624 98.83856 11.763624 104.01536 L 11.763624 113.42771 L 12.325863 113.09956 C 12.635192 112.91908 13.692496 112.30444 14.675074 111.73375 L 16.461528 110.69609 L 16.495118 104.01174 L 16.528708 97.327913 L 14.252877 96.009647 C 13.001205 95.284472 11.929354 94.6712 11.870594 94.64694 z M 44.960565 94.64694 C 44.897967 94.622634 44.846877 98.82882 44.846877 104.01536 L 44.847394 113.42771 L 45.409633 113.10214 C 45.718963 112.92317 46.77575 112.30835 47.758327 111.73582 L 49.544781 110.69454 L 49.579405 104.01329 L 49.613511 97.332047 L 47.343882 96.011714 C 46.095602 95.285455 45.023045 94.6712 44.960565 94.64694 z M 78.03555 94.64694 C 77.97775 94.622678 77.930647 98.83856 77.930647 104.01536 L 77.930647 113.42771 L 78.492886 113.10214 C 78.802216 112.92317 79.859518 112.30835 80.842097 111.73582 L 82.628551 110.69454 L 82.662658 104.01433 L 82.697281 97.333598 L 80.418867 96.012231 C 79.165901 95.285499 78.09334 94.6712 78.03555 94.64694 z M 44.005584 94.665543 C 43.978437 94.638399 42.905341 95.228156 41.621234 95.976058 L 39.286492 97.335665 L 39.321116 104.01743 L 39.355222 110.69919 L 41.67136 112.04536 L 43.986981 113.39153 L 44.021087 104.05308 C 44.039767 98.916936 44.032724 94.692683 44.005584 94.665543 z M 77.092455 94.668644 C 77.067034 94.643221 75.993937 95.232629 74.708104 95.978125 L 72.370262 97.333081 L 72.404369 104.01484 L 72.438992 110.69661 L 74.754613 112.04174 L 77.070751 113.38688 L 77.104341 104.05102 C 77.123021 98.916167 77.117885 94.694074 77.092455 94.668644 z M 10.925949 94.669161 C 10.900935 94.644147 9.8275803 95.234416 8.5405643 95.980709 L 6.2001386 97.337732 L 6.2363121 104.01743 L 6.2719688 110.69661 L 8.5875899 112.04174 L 10.903211 113.38688 L 10.937317 104.05102 C 10.955997 98.916167 10.950967 94.694181 10.925949 94.669161 z M 83.488447 97.770263 L 83.488447 101.43567 L 83.488447 105.10108 L 83.918912 104.8427 C 84.15546 104.70064 85.197367 104.09582 86.234533 103.4986 L 88.120206 102.41287 L 88.120206 101.44291 L 88.120206 100.47346 L 86.102241 99.312288 C 84.992291 98.673656 83.950383 98.065649 83.78662 97.960949 L 83.488447 97.770263 z M 17.321424 97.779565 L 17.321424 101.44032 L 17.321424 105.10108 L 17.751889 104.84218 C 17.988433 104.69984 19.030345 104.09333 20.06751 103.49446 L 21.953183 102.40564 L 21.953183 101.44032 L 21.953183 100.47449 L 20.06751 99.385669 C 19.030345 98.786807 17.988433 98.180292 17.751889 98.037947 L 17.321424 97.779565 z M 50.405194 97.779565 L 50.405194 101.44032 L 50.405194 105.10108 L 50.835142 104.8427 C 51.071687 104.70064 52.114113 104.09582 53.15128 103.4986 L 55.036953 102.41287 L 55.036953 101.44342 L 55.036953 100.47449 L 53.15128 99.385669 C 52.114113 98.786807 51.071687 98.180292 50.835142 98.037947 L 50.405194 97.779565 z M 71.512434 97.828658 L 69.224201 99.153642 L 66.936485 100.47811 L 66.974726 101.47185 L 67.012967 102.46558 L 69.262958 103.76835 L 71.512434 105.07111 L 71.549124 103.29654 C 71.569354 102.32061 71.569354 100.6913 71.549124 99.675574 L 71.512434 97.828658 z M 5.3454104 97.833309 L 3.0571779 99.157259 L 0.76946211 100.48121 L 0.80770267 101.4734 L 0.84594323 102.46558 L 3.0959352 103.76835 L 5.3454104 105.07111 L 5.3821006 103.29654 C 5.4023236 102.32061 5.4023236 100.69209 5.3821006 99.677641 L 5.3454104 97.833309 z M 38.428664 97.833309 L 36.140948 99.157259 L 33.852715 100.48121 L 33.891473 101.4734 L 33.929713 102.46558 L 36.179188 103.76835 L 38.428664 105.07111 L 38.465871 103.29654 C 38.486091 102.32061 38.486091 100.69209 38.465871 99.677641 L 38.428664 97.833309 z M 27.445354 97.836409 L 25.129216 99.18258 L 22.813595 100.52927 L 22.778455 104.59104 C 22.759207 106.82487 22.7948 108.65229 22.85752 108.65229 C 22.98421 108.65229 27.234327 106.20354 27.406597 106.03126 C 27.466387 105.97147 27.499754 104.10319 27.480494 101.87957 L 27.445354 97.836409 z M 60.528608 97.836409 L 58.212987 99.18258 L 55.896849 100.52927 L 55.862226 104.59104 C 55.842866 106.83835 55.878504 108.65229 55.942324 108.65229 C 56.073696 108.65229 60.303875 106.21723 60.482099 106.03901 C 60.546159 105.97494 60.583006 104.10319 60.563748 101.87957 L 60.528608 97.836409 z M 28.404469 97.935111 C 28.349869 97.934094 28.307835 99.764464 28.310935 102.00256 L 28.317136 106.07208 L 30.527854 107.35366 C 31.743806 108.05865 32.813973 108.64002 32.906003 108.64402 C 33.038151 108.65072 33.065945 107.80053 33.038295 104.60034 L 33.003155 100.54787 L 30.75368 99.242525 C 29.516358 98.524501 28.459049 97.936104 28.404469 97.935111 z M 61.488239 97.935111 C 61.433659 97.934094 61.391171 99.764464 61.393671 102.00256 L 61.397805 106.07208 L 63.610073 107.35366 C 64.826704 108.05873 65.897226 108.64002 65.989256 108.64402 C 66.121401 108.65057 66.149198 107.80046 66.121548 104.60034 L 66.086925 100.54787 L 63.836933 99.242525 C 62.599612 98.524501 61.542819 97.936104 61.488239 97.935111 z M 55.036953 103.32858 L 54.739297 103.51875 C 54.575534 103.62346 53.533109 104.23195 52.423159 104.87061 L 50.405194 106.03178 L 50.405194 108.06989 C 50.405194 109.19091 50.44307 110.10801 50.48891 110.10801 C 50.534743 110.10801 51.575858 109.5273 52.802981 108.81765 L 55.034369 107.52729 L 55.035403 105.42819 L 55.036953 103.32858 z M 21.953183 103.33737 L 21.523235 103.59626 C 21.286687 103.73859 20.24478 104.34513 19.207614 104.94399 L 17.321424 106.03281 L 17.321424 108.07041 L 17.321941 108.07041 C 17.321941 109.19113 17.3593 110.10801 17.40514 110.10801 C 17.450974 110.10801 18.492607 109.5273 19.719727 108.81765 L 21.950599 107.52729 L 21.952149 105.43233 L 21.953183 103.33737 z M 88.120206 103.33737 L 87.690258 103.59626 C 87.45371 103.7386 86.411803 104.34512 85.374637 104.94399 L 83.488447 106.03281 L 83.488447 108.12725 L 83.488447 110.22222 L 85.800968 108.87501 L 88.112971 107.52729 L 88.116589 105.43233 L 88.120206 103.33737 z M 0.77979739 103.36785 L 0.78289798 105.44783 L 0.78599857 107.52729 L 2.9993002 108.8161 C 4.2167781 109.52477 5.2577466 110.10546 5.3123374 110.10646 C 5.3669184 110.10744 5.4115562 109.19752 5.4115562 108.08488 L 5.4115562 106.06226 L 4.5842165 105.58581 C 4.1293184 105.32394 3.0874105 104.71817 2.2685955 104.23912 L 0.77979739 103.36785 z M 33.863567 103.36785 L 33.865118 105.44783 L 33.866668 107.52729 L 36.08152 108.81403 C 37.299813 109.52167 38.341519 110.10239 38.396107 110.10439 C 38.450697 110.1064 38.495326 109.19785 38.495326 108.0854 L 38.495326 106.06278 L 38.131524 105.84781 C 37.931368 105.72971 36.888944 105.12361 35.815386 104.5006 L 33.863567 103.36785 z M 66.947337 103.36785 L 66.948371 105.44783 L 66.949921 107.52729 L 69.164773 108.81403 L 69.16529 108.81403 C 70.383585 109.52167 71.424771 110.10239 71.479361 110.10439 C 71.533941 110.1064 71.579096 109.19785 71.579096 108.0854 L 71.579096 106.06278 L 71.214777 105.84781 C 71.014623 105.72971 69.972716 105.12361 68.899156 104.5006 L 66.947337 103.36785 z M 28.376047 107.0653 C 28.337287 107.0653 28.30525 111.94853 28.30525 117.91684 C 28.30525 122.87699 28.33237 125.65447 28.360027 126.93541 L 31.600656 126.93541 L 33.069301 126.08482 L 33.069301 117.91219 L 33.069301 109.73956 L 30.757814 108.40217 C 29.486479 107.66678 28.414827 107.0653 28.376047 107.0653 z M 61.462917 107.0653 C 61.422097 107.0653 61.38902 111.95062 61.38902 117.92149 C 61.38902 122.92894 61.392946 125.49436 61.42106 126.93541 L 64.557302 126.93541 L 66.086925 126.04399 L 66.121031 117.89048 L 66.155138 109.73749 L 63.846235 108.40114 C 62.576402 107.6663 61.503757 107.0653 61.462917 107.0653 z M 60.495535 107.06789 C 60.440949 107.0693 59.384159 107.65846 58.146841 108.37737 L 55.896849 109.68478 L 55.862742 117.88428 L 55.828636 126.08327 L 57.287462 126.93541 L 60.512071 126.93541 C 60.55388 125.66169 60.594753 122.881 60.594753 117.91684 C 60.594753 111.94853 60.550115 107.0669 60.495535 107.06789 z M 27.451039 107.09321 C 27.416908 107.05909 26.344157 107.63912 25.067205 108.38254 L 22.745383 109.73439 L 22.779489 117.89203 L 22.813595 126.05019 L 24.343735 126.93541 L 27.451039 126.93541 L 27.478944 117.94216 C 27.497564 112.00913 27.485159 107.12721 27.451039 107.09321 z M 0.837675 108.52103 C 0.80598416 108.52103 0.77979739 110.82076 0.77979739 113.63131 L 0.77979739 118.74108 L 1.0774537 118.54832 C 1.2412171 118.44213 2.2846555 117.83132 3.3961753 117.1913 L 5.4172406 116.02755 L 5.3815839 113.57292 L 5.3454104 111.11829 L 3.1202231 109.81966 C 1.8963969 109.10536 0.86936614 108.52103 0.837675 108.52103 z M 33.920928 108.52103 C 33.889228 108.52103 33.863567 110.82076 33.863567 113.63131 L 33.863567 118.74108 L 34.161224 118.54832 C 34.324987 118.44213 35.368425 117.83132 36.479945 117.1913 L 38.501011 116.02755 L 38.464837 113.57292 L 38.42918 111.11829 L 36.203993 109.81966 C 34.980167 109.10536 33.952618 108.52103 33.920928 108.52103 z M 67.004698 108.52103 C 66.973008 108.52103 66.946821 110.82076 66.946821 113.63131 L 66.946821 118.74108 L 67.244477 118.55142 C 67.408241 118.44716 68.451685 117.83605 69.563199 117.19285 L 71.584264 116.02341 L 71.548607 113.57085 L 71.512434 111.11829 L 69.287246 109.81966 C 68.063422 109.10536 67.036388 108.52103 67.004698 108.52103 z M 21.905641 108.56185 C 21.877767 108.53397 20.850058 109.09798 19.621542 109.81501 L 17.38757 111.11829 L 17.351913 113.5786 L 17.31574 116.03892 L 19.601388 117.367 L 21.887037 118.69509 L 21.92166 113.65353 C 21.94074 110.88081 21.933519 108.58975 21.905641 108.56185 z M 54.989411 108.56185 C 54.961535 108.53397 53.933315 109.09798 52.704795 109.81501 L 50.47134 111.11829 L 50.435166 113.57757 L 50.39951 116.03633 L 52.288283 117.12877 C 53.327028 117.72972 54.355582 118.32936 54.573932 118.46099 L 54.970807 118.70025 L 55.00543 113.65612 C 55.02452 110.882 55.017291 108.58975 54.989411 108.56185 z M 88.072664 108.56185 C 88.044789 108.53397 87.017084 109.09798 85.788565 109.81501 L 83.55511 111.11829 L 83.518936 113.5786 L 83.482763 116.0384 L 85.768412 117.37062 L 88.05406 118.70284 L 88.088683 113.65767 C 88.107763 110.88274 88.100544 108.58975 88.072664 108.56185 z M 6.2900556 111.69655 C 6.2436676 111.69655 6.205823 116.34123 6.205823 122.0184 L 6.205823 126.93541 L 10.969357 126.93541 L 10.969357 123.3563 L 10.969357 114.37183 L 8.6718224 113.03393 C 7.4081072 112.29822 6.3364434 111.69655 6.2900556 111.69655 z M 16.45326 111.69655 C 16.412437 111.69655 15.340776 112.29736 14.071493 113.03186 L 11.763624 114.36718 L 11.763624 123.35372 L 11.763624 126.93541 L 16.527674 126.93541 L 16.527674 122.0184 C 16.527674 116.34123 16.49409 111.69655 16.45326 111.69655 z M 39.373309 111.69655 C 39.326939 111.69655 39.289076 116.34123 39.289076 122.0184 L 39.289076 126.93541 L 44.053127 126.93541 L 44.053127 123.3563 L 44.053127 114.37183 L 41.755592 113.03393 C 40.491879 112.29824 39.419699 111.69655 39.373309 111.69655 z M 49.526695 111.69655 C 49.480308 111.69655 48.408645 112.29824 47.144928 113.03393 L 44.846877 114.37183 L 44.846877 123.3563 L 44.846877 126.93541 L 49.610927 126.93541 L 49.610927 122.0184 C 49.610927 116.34123 49.573085 111.69655 49.526695 111.69655 z M 72.446744 111.69655 C 72.405904 111.69655 72.37233 116.34124 72.37233 122.0184 L 72.37233 126.93541 L 77.13638 126.93541 L 77.13638 123.35372 L 77.13638 114.36718 L 74.829027 113.03186 C 73.559747 112.29738 72.487564 111.69655 72.446744 111.69655 z M 82.610465 111.69655 C 82.564077 111.69655 81.491899 112.29821 80.228181 113.03393 L 77.930647 114.37183 L 77.930647 123.3563 L 77.930647 126.93541 L 82.694697 126.93541 L 82.694697 122.0184 C 82.694697 116.34124 82.656855 111.69655 82.610465 111.69655 z M 5.3454104 116.99751 L 3.0628623 118.32818 L 0.77979739 119.65885 L 0.77979739 125.75254 C 1.3601093 126.46953 2.2367669 126.93541 3.2349448 126.93541 L 5.3893353 126.93541 L 5.3795168 124.66888 L 5.3454104 116.99751 z M 71.512434 116.99751 L 69.229886 118.32818 L 66.946821 119.65885 L 66.946821 125.99955 L 66.946821 126.93541 L 71.556359 126.93541 L 71.54654 124.66888 L 71.512434 116.99751 z M 38.42918 117.00578 L 36.146116 118.33593 L 33.863567 119.66609 L 33.863567 126.00317 L 33.863567 126.93541 L 38.473105 126.93541 L 38.463287 124.67302 L 38.42918 117.00578 z M 50.47134 117.01922 L 50.437233 124.68025 L 50.427415 126.93541 L 55.036953 126.93541 L 55.036953 126.00782 L 55.036953 119.67487 L 52.753888 118.3473 L 50.47134 117.01922 z M 83.554593 117.01922 L 83.520487 124.68025 L 83.510668 126.93541 L 85.665059 126.93541 C 86.663237 126.93541 87.539895 126.46953 88.120206 125.75254 L 88.120206 119.67487 L 85.837658 118.3473 L 83.554593 117.01922 z M 17.38757 117.02852 L 17.353463 124.68438 L 17.343645 126.93541 L 21.953183 126.93541 L 21.953183 126.00678 L 21.953183 119.67332 L 19.670635 118.35092 L 17.38757 117.02852 z " /></g><g
     inkscape:label="cutout"
     inkscape:groupmode="layer"
     id="layer1"
     style="display:inline"><path
       id="rect1"
       style="font-variation-settings:'wdth' 95.1, 'wght' 600;fill:#000000;stroke:none;stroke-width:0.126909;stroke-linecap:round;stroke-linejoin:round;paint-order:fill markers stroke;fill-opacity:1"
       inkscape:label="cut"
       d="M 3.2385621,0 C 1.4796156,0 0.06356201,1.4160536 0.06356201,3.1750001 V 123.825 c 0,1.75895 1.41605359,3.175 3.17500009,3.175 H 85.661441 c 1.758948,0 3.175,-1.41605 3.175,-3.175 V 3.1750001 C 88.836441,1.4160536 87.420389,0 85.661441,0 Z M 5.8652753,4.7325279 H 8.951392 a 0.06350635,0.06350635 0 0 1 0.042891,0.01757 l 1.236101,1.1482504 a 0.06350635,0.06350635 0 0 1 0.01964,0.047026 v 1.1461833 a 0.06350635,0.06350635 0 0 1 -0.0646,0.064596 H 8.3338586 A 0.06350635,0.06350635 0 0 1 8.2713301,7.0915571 V 6.0079023 H 6.5448204 v 5.6130947 h 1.7265097 v -1.083655 a 0.06350635,0.06350635 0 0 1 0.062528,-0.0646 h 1.8515669 a 0.06350635,0.06350635 0 0 1 0.0646,0.0646 v 1.146183 a 0.06350635,0.06350635 0 0 1 -0.01964,0.04703 l -1.2361011,1.14825 a 0.06350635,0.06350635 0 0 1 -0.042891,0.01757 H 5.8652753 a 0.06350635,0.06350635 0 0 1 -0.042891,-0.01757 l -1.2345501,-1.14825 a 0.06350635,0.06350635 0 0 1 -0.021187,-0.04703 V 5.9453738 a 0.06350635,0.06350635 0 0 1 0.021187,-0.047026 l 1.2345497,-1.14825 a 0.06350635,0.06350635 0 0 1 0.042891,-0.01757 z m 6.7908007,0 h 3.086116 a 0.06350635,0.06350635 0 0 1 0.04289,0.01757 l 1.236617,1.1482504 a 0.06350635,0.06350635 0 0 1 0.01912,0.047026 v 5.7381517 a 0.06350635,0.06350635 0 0 1 -0.01912,0.04703 l -1.236617,1.14825 a 0.06350635,0.06350635 0 0 1 -0.04289,0.01757 h -3.086116 a 0.06350635,0.06350635 0 0 1 -0.04289,-0.01757 l -1.234033,-1.14825 a 0.06350635,0.06350635 0 0 1 -0.0217,-0.04703 V 5.9453738 a 0.06350635,0.06350635 0 0 1 0.0217,-0.047026 l 1.234033,-1.1482504 a 0.06350635,0.06350635 0 0 1 0.04289,-0.017569 z m 4.93975,0 h 2.468583 a 0.06350635,0.06350635 0 0 1 0.06253,0.064596 v 1.6991212 l 1.789038,1.6582967 1.789038,-1.6582967 V 4.7971234 a 0.06350635,0.06350635 0 0 1 0.06253,-0.064596 h 1.853634 a 0.06350635,0.06350635 0 0 1 0.06253,0.064596 v 6.8238736 h 0.554488 a 0.06350635,0.06350635 0 0 1 0.06253,0.06253 v 1.14825 a 0.06350635,0.06350635 0 0 1 -0.06253,0.0646 h -2.470651 a 0.06350635,0.06350635 0 0 1 -0.06253,-0.0646 V 8.9648278 l -1.746147,1.6169552 a 0.06350635,0.06350635 0 0 1 -0.08578,0 L 20.126938,8.9627608 v 3.8690142 a 0.06350635,0.06350635 0 0 1 -0.06253,0.0646 h -1.851566 a 0.06350635,0.06350635 0 0 1 -0.0646,-0.0646 V 6.0079023 h -0.552421 a 0.06350635,0.06350635 0 0 1 -0.0646,-0.062528 V 4.7971234 a 0.06350635,0.06350635 0 0 1 0.0646,-0.064596 z m 8.642367,0 h 2.468583 a 0.06350635,0.06350635 0 0 1 0.0646,0.064596 v 1.6991212 l 1.786971,1.6582967 1.789555,-1.6582967 V 4.7971234 a 0.06350635,0.06350635 0 0 1 0.06408,-0.064596 h 1.851567 a 0.06350635,0.06350635 0 0 1 0.06253,0.064596 v 6.8238736 h 0.555004 a 0.06350635,0.06350635 0 0 1 0.06408,0.06253 v 1.14825 a 0.06350635,0.06350635 0 0 1 -0.06408,0.0646 h -2.4691 a 0.06350635,0.06350635 0 0 1 -0.06408,-0.0646 V 8.9648278 l -1.744597,1.6169552 a 0.06350635,0.06350635 0 0 1 -0.08785,0 L 28.771372,8.9648278 v 3.8669472 a 0.06350635,0.06350635 0 0 1 -0.0646,0.0646 h -1.851567 a 0.06350635,0.06350635 0 0 1 -0.06408,-0.0646 V 6.0079023 h -0.552938 a 0.06350635,0.06350635 0 0 1 -0.0646,-0.062528 V 4.7971234 a 0.06350635,0.06350635 0 0 1 0.0646,-0.064596 z m 10.49445,0 h 3.087667 a 0.06350635,0.06350635 0 0 1 0.04289,0.01757 l 1.23455,1.1482504 a 0.06350635,0.06350635 0 0 1 0.01964,0.047026 v 5.6756237 h 0.554488 a 0.06350635,0.06350635 0 0 1 0.06459,0.06253 v 1.14825 a 0.06350635,0.06350635 0 0 1 -0.06459,0.0646 h -2.468584 a 0.06350635,0.06350635 0 0 1 -0.0646,-0.0646 V 9.4511031 h -1.724443 v 3.3806719 a 0.06350635,0.06350635 0 0 1 -0.06459,0.0646 h -1.851567 a 0.06350635,0.06350635 0 0 1 -0.06253,-0.0646 V 9.4511031 h -0.554489 a 0.06350635,0.06350635 0 0 1 -0.06253,-0.062528 V 8.2403242 a 0.06350635,0.06350635 0 0 1 0.06253,-0.062528 h 0.554489 V 5.9453738 a 0.06350635,0.06350635 0 0 1 0.01964,-0.047026 l 1.234033,-1.1482504 a 0.06350635,0.06350635 0 0 1 0.04341,-0.01757 z m 4.939234,0 h 2.468583 a 0.06350635,0.06350635 0 0 1 0.0646,0.064596 v 1.6991212 l 1.724443,1.5973185 V 4.7971234 a 0.06350635,0.06350635 0 0 1 0.0646,-0.064596 h 1.851566 a 0.06350635,0.06350635 0 0 1 0.06253,0.064596 v 6.8238736 h 0.554488 a 0.06350635,0.06350635 0 0 1 0.06253,0.06253 v 1.14825 a 0.06350635,0.06350635 0 0 1 -0.06253,0.0646 h -2.468583 a 0.06350635,0.06350635 0 0 1 -0.0646,-0.0646 V 10.564213 L 44.205055,8.9648278 v 3.8669472 a 0.06350635,0.06350635 0 0 1 -0.0646,0.0646 h -1.851567 a 0.06350635,0.06350635 0 0 1 -0.06253,-0.0646 V 6.0079023 H 41.67187 a 0.06350635,0.06350635 0 0 1 -0.0646,-0.062528 V 4.7971234 a 0.06350635,0.06350635 0 0 1 0.0646,-0.064596 z m 6.7908,0 h 4.93975 a 0.06350635,0.06350635 0 0 1 0.04289,0.01757 l 1.23455,1.1482504 a 0.06350635,0.06350635 0 0 1 0.01912,0.047026 v 5.7381517 a 0.06350635,0.06350635 0 0 1 -0.01912,0.04703 l -1.23455,1.14825 a 0.06350635,0.06350635 0 0 1 -0.04289,0.01757 H 49.08021 a 0.06350635,0.06350635 0 0 1 -0.06253,-0.0646 V 6.0079023 h -0.555005 a 0.06350635,0.06350635 0 0 1 -0.06408,-0.062528 V 4.7971234 a 0.06350635,0.06350635 0 0 1 0.06408,-0.064596 z m 9.876917,0 h 5.556767 a 0.06350635,0.06350635 0 0 1 0.0646,0.064596 v 2.2944337 a 0.06350635,0.06350635 0 0 1 -0.0217,0.047026 l -3.683496,3.4256304 v 1.056784 h 1.724959 v -1.083655 a 0.06350635,0.06350635 0 0 1 0.06408,-0.0646 h 1.851567 a 0.06350635,0.06350635 0 0 1 0.0646,0.0646 v 2.294433 a 0.06350635,0.06350635 0 0 1 -0.0646,0.0646 h -5.556767 a 0.06350635,0.06350635 0 0 1 -0.06201,-0.0646 V 9.9668339 a 0.06350635,0.06350635 0 0 1 0.01912,-0.047026 L 61.980715,6.4962446 V 6.0079023 h -1.724959 v 1.0836548 a 0.06350635,0.06350635 0 0 1 -0.06253,0.064596 h -1.853633 a 0.06350635,0.06350635 0 0 1 -0.06201,-0.064596 V 4.7971234 a 0.06350635,0.06350635 0 0 1 0.06201,-0.064596 z m 8.027417,0 h 3.086117 a 0.06350635,0.06350635 0 0 1 0.04289,0.01757 l 1.23455,1.1482504 a 0.06350635,0.06350635 0 0 1 0.02119,0.047026 v 5.7381517 a 0.06350635,0.06350635 0 0 1 -0.02119,0.04703 l -1.23455,1.14825 a 0.06350635,0.06350635 0 0 1 -0.04289,0.01757 h -3.086117 a 0.06350635,0.06350635 0 0 1 -0.04496,-0.01757 l -1.234034,-1.14825 a 0.06350635,0.06350635 0 0 1 -0.01964,-0.04703 V 5.9453738 a 0.06350635,0.06350635 0 0 1 0.01964,-0.047026 l 1.234034,-1.1482504 a 0.06350635,0.06350635 0 0 1 0.04496,-0.017569 z m 4.937683,0 h 2.470651 a 0.06350635,0.06350635 0 0 1 0.06253,0.064596 v 1.6991212 l 1.724443,1.5973185 V 4.7971234 a 0.06350635,0.06350635 0 0 1 0.0646,-0.064596 h 1.851567 a 0.06350635,0.06350635 0 0 1 0.0646,0.064596 v 6.8238736 h 0.552421 a 0.06350635,0.06350635 0 0 1 0.06459,0.06253 v 1.14825 a 0.06350635,0.06350635 0 0 1 -0.06459,0.0646 h -2.468584 a 0.06350635,0.06350635 0 0 1 -0.0646,-0.0646 V 10.564213 L 73.837873,8.9627608 v 3.8690142 a 0.06350635,0.06350635 0 0 1 -0.06253,0.0646 h -1.853634 a 0.06350635,0.06350635 0 0 1 -0.06253,-0.0646 V 6.0079023 H 71.30469 A 0.06350635,0.06350635 0 0 1 71.24216,5.9453743 V 4.7971234 a 0.06350635,0.06350635 0 0 1 0.06253,-0.064596 z m 6.790801,0 h 6.173783 a 0.06350635,0.06350635 0 0 1 0.0646,0.064596 v 2.2944337 a 0.06350635,0.06350635 0 0 1 -0.0646,0.064596 h -1.851566 a 0.06350635,0.06350635 0 0 1 -0.06408,-0.064596 V 6.0079023 h -1.72496 v 2.1698934 h 2.406572 a 0.06350635,0.06350635 0 0 1 0.06253,0.062528 v 1.1482504 a 0.06350635,0.06350635 0 0 1 -0.06253,0.062528 h -2.406572 v 2.1698939 h 1.72496 v -1.083655 a 0.06350635,0.06350635 0 0 1 0.06408,-0.0646 h 1.851566 a 0.06350635,0.06350635 0 0 1 0.0646,0.0646 v 2.294433 a 0.06350635,0.06350635 0 0 1 -0.0646,0.0646 h -5.55625 a 0.06350635,0.06350635 0 0 1 -0.06253,-0.0646 V 6.0079023 h -0.555005 a 0.06350635,0.06350635 0 0 1 -0.06253,-0.062528 V 4.7971234 a 0.06350635,0.06350635 0 0 1 0.06253,-0.064596 z M 13.336137,6.0079023 v 5.6130947 h 1.72651 V 6.0079023 Z m 24.078118,0 v 2.1698934 h 1.724443 V 6.0079023 Z m 13.581601,0 v 5.6130947 h 1.724959 V 6.0079023 Z m 16.051217,0 v 5.6130947 h 1.724443 V 6.0079023 Z M 7.9375003,17.208253 H 80.962503 c 1.758946,0 3.175,1.416054 3.175,3.175 v 98.425007 c 0,1.75893 -1.416054,3.175 -3.175,3.175 H 7.9375003 c -1.7589465,0 -3.1750001,-1.41607 -3.1750001,-3.175 V 20.383253 c 0,-1.758946 1.4160536,-3.175 3.1750001,-3.175 z" /></g></svg>
