<?xml version="1.0" encoding="UTF-8" standalone="no"?>
<!-- Created with Inkscape (http://www.inkscape.org/) -->

<svg
   width="8.5in"
   height="11in"
   viewBox="0 0 215.9 279.4"
   version="1.1"
   id="svg1"
   xml:space="preserve"
   inkscape:version="1.3.2 (091e20e, 2023-11-25, custom)"
   sodipodi:docname="crow-token.svg"
   xmlns:inkscape="http://www.inkscape.org/namespaces/inkscape"
   xmlns:sodipodi="http://sodipodi.sourceforge.net/DTD/sodipodi-0.dtd"
   xmlns="http://www.w3.org/2000/svg"
   xmlns:svg="http://www.w3.org/2000/svg"><sodipodi:namedview
     id="namedview1"
     pagecolor="#505050"
     bordercolor="#eeeeee"
     borderopacity="1"
     inkscape:showpageshadow="0"
     inkscape:pageopacity="0"
     inkscape:pagecheckerboard="0"
     inkscape:deskcolor="#505050"
     inkscape:document-units="in"
     inkscape:zoom="0.47811549"
     inkscape:cx="305.36555"
     inkscape:cy="505.10809"
     inkscape:current-layer="layer1" /><defs
     id="defs1" /><g
     inkscape:label="Layer 1"
     inkscape:groupmode="layer"
     id="layer1"><path
       id="rect10"
       style="display:inline;fill:#b50000;stroke:none;stroke-width:4;stroke-linecap:round;stroke-linejoin:round;stroke-dasharray:none;paint-order:fill markers stroke"
       inkscape:label="BASE"
       d="M 1.9998779,0 C 0.89187904,0 0,0.89187904 0,1.9998779 V 86.900122 C 0,88.008121 0.89187904,88.9 1.9998779,88.9 H 61.500122 C 62.608121,88.9 63.5,88.008121 63.5,86.900122 V 1.9998779 C 63.5,0.89187904 62.608121,0 61.500122,0 Z" /><path
       id="path22"
       style="display:inline;fill:#0e232e;stroke-width:4;stroke-linecap:round;stroke-linejoin:round;paint-order:fill markers stroke"
       inkscape:label="MIDDLE"
       d="M 1.9998779,0 C 0.89188132,0 0,0.89188132 0,1.9998779 V 86.900122 C 0,88.008119 0.89188132,88.9 1.9998779,88.9 H 61.500122 C 62.608119,88.9 63.5,88.008119 63.5,86.900122 V 1.9998779 C 63.5,0.89188132 62.608119,0 61.500122,0 Z m 6.8900187,6.35 h 3.6829794 v 8.509041 c 0,0.934624 0.388633,1.480645 1.152901,1.651062 H 8.8898966 C 7.4827411,16.510103 6.35,15.377361 6.35,13.970207 V 8.8898966 C 6.35,7.4827411 7.4827411,6.35 8.8898966,6.35 Z m 10.0882734,0 h 5.141288 v 8.509041 c 0,0.934624 0.388633,1.480645 1.152901,1.651062 h -6.533968 c 3.494445,-0.566855 4.00153,-4.849518 1.068669,-5.862691 C 21.58306,9.8002838 21.606273,6.8163357 18.97817,6.35 Z m 7.560262,0 h 3.540869 v 8.509041 c 0,0.934624 0.388633,1.480645 1.152901,1.651062 H 27.691333 V 8.001062 C 27.691333,7.0664381 27.3027,6.5204169 26.538432,6.35 Z m 9.905338,0 h 4.910295 v 8.509041 c 0,0.934624 0.388633,1.480645 1.152901,1.651062 h -4.220931 c 0.691548,-0.170376 0.846108,-0.716374 0.437183,-1.651062 L 37.522257,12.128975 C 39.857642,10.392415 39.211701,6.8577695 36.44377,6.35 Z m 10.220565,0 h 7.945768 C 56.01726,6.35 57.15,7.4827411 57.15,8.8898966 v 5.0803104 c 0,1.407154 -1.13274,2.539896 -2.539897,2.539896 h -7.945768 c 2.584141,-0.353776 4.262789,-2.295568 4.262789,-5.08031 0,-2.7847412 -1.678648,-4.7260988 -4.262789,-5.079793 z m -1.745113,1.55236 c 1.690136,0.1567546 2.421558,1.6743594 2.421558,3.527433 0,1.850688 -0.729349,3.393013 -2.41484,3.555856 V 8.001062 c 0,-0.035082 -0.0056,-0.064697 -0.0067,-0.098702 z M 16.144751,8.143689 h 0.143144 c 1.757358,0 1.571498,1.7007003 0.07131,1.7435628 h -0.214457 z m 17.506425,0 h 0.485758 c 1.75736,0 1.571498,3.043254 0.07131,3.086117 h -0.557072 z m -17.506425,3.600814 h 0.400492 c 2.228846,0.04286 2.057185,2.971911 -0.05736,2.971911 h -0.343131 z m 18.214909,1.336869 1.506885,3.428731 h -2.215369 v -3.42253 h 0.399976 c 0.106283,0.0014 0.205909,-0.0038 0.308508,-0.0062 z m 21.486027,12.215792 v 5.17e-4 c 0.555123,0.0018 0.901187,0.483964 0.179834,0.589111 -4.984801,0.726596 -10.791007,1.922094 -13.964006,2.603975 0.01934,-0.145883 0.02997,-0.294053 0.02997,-0.444934 v -10e-4 -5.17e-4 c -1.6e-4,-0.333826 -0.04941,-0.663772 -0.143661,-0.979785 3.170613,-0.436439 8.752993,-1.187936 13.784172,-1.761133 0.03861,-0.0044 0.07668,-0.0063 0.113688,-0.0062 z m -18.6986,1.632975 3.543453,0.134876 c 0,0 0.148119,0.5849 0.148311,0.980302 -3e-6,1.137797 -0.897976,2.059789 -2.005562,2.059822 -1.107594,-3e-5 -2.00556,-0.922022 -2.005563,-2.059822 3e-6,-0.395335 0.111122,-0.782717 0.319361,-1.115178 z m -1.029395,11.111467 c 1.475606,5.38e-4 1.004901,5.306622 -2.3797,7.635193 -1.939217,1.33417 -4.476998,1.773535 -7.175272,1.773535 H 9.6190511 c -0.4362555,2.04e-4 -0.7898138,-0.363167 -0.7896159,-0.81132 1.527e-4,-0.447901 0.3536085,-0.810491 0.7896159,-0.810287 L 26.56272,46.328438 c 2.523896,0.07448 4.764428,-0.44489 6.296773,-1.499133 3.609771,-2.483498 3.258199,-6.787699 3.258199,-6.787699 z M 8.8898966,72.389897 H 19.195211 c -3.847287,1.073081 -3.550212,5.200199 -0.919324,5.200199 0.918468,0 1.48363,-0.678011 1.48363,-1.087789 -0.720643,-0.480429 -0.607989,-2.444812 1.016993,-2.444812 0.706513,0 1.173055,0.565357 1.173055,1.427303 0,2.58584 -5.637899,4.380451 -5.637899,7.065202 H 8.8898966 C 7.4827411,82.55 6.35,81.41726 6.35,80.010103 v -5.08031 c 0,-1.407154 1.1327411,-2.539896 2.5398966,-2.539896 z m 14.1371214,0 h 9.322945 L 27.629838,82.55 h -2.161625 v -0.141077 c 0,-1.130421 -0.565599,-1.69602 -1.696021,-1.69602 h -2.018998 c 1.373986,-1.30479 3.715019,-2.440201 3.715019,-5.228105 0,-1.145422 -0.632478,-2.535598 -2.441195,-3.094901 z m 12.823507,0 h 5.077209 c -3.847286,1.073081 -3.550212,5.200199 -0.919323,5.200199 0.918467,0 1.48363,-0.678011 1.48363,-1.087789 -0.720644,-0.480429 -0.607472,-2.444812 1.017509,-2.444812 0.706513,0 1.172538,0.565357 1.172538,1.427303 0,2.58584 -5.637899,4.380451 -5.637899,7.065202 h -6.912756 z m 8.909017,0 h 9.850561 c 1.407157,0 2.539897,1.132742 2.539897,2.539896 v 5.08031 C 57.15,81.41726 56.01726,82.55 54.610103,82.55 h -7.409367 v -0.141077 c 0,-1.130421 -0.565598,-1.69602 -1.69602,-1.69602 h -2.018998 c 1.373984,-1.30479 3.715018,-2.440201 3.715018,-5.228105 0,-1.145422 -0.632478,-2.535598 -2.441194,-3.094901 z" /><path
       d="M 1.9998779,0 C 0.89188018,0 0,0.89188018 0,1.9998779 V 86.900122 C 0,88.00812 0.89188018,88.9 1.9998779,88.9 H 61.500122 C 62.60812,88.9 63.5,88.00812 63.5,86.900122 V 1.9998779 C 63.5,0.89188018 62.60812,0 61.500122,0 Z M 8.8898966,6.35 H 54.610103 C 56.017262,6.35 57.15,7.4827381 57.15,8.8898966 v 5.0803104 c 0,1.407158 -1.132738,2.539896 -2.539897,2.539896 H 8.8898966 C 7.4827381,16.510103 6.35,15.377365 6.35,13.970207 V 8.8898966 C 6.35,7.4827381 7.4827381,6.35 8.8898966,6.35 Z M 43.175142,23.817151 c 4.588622,0.03191 8.764109,0.833352 11.395687,1.477429 0.908774,0.222421 0.489766,0.635064 -0.224792,1.017509 l -10.720276,5.737634 c 0,14.074172 -1.157979,18.80824 -9.373588,18.875334 l -27.3352825,0.0031 C 6.1511844,50.835616 6.2364217,50.27078 6.8269735,49.956641 L 30.834294,37.185844 c 0,-9.394132 0.66531,-11.891482 5.934004,-12.848311 2.15024,-0.3905 4.321108,-0.534887 6.406844,-0.520382 z m -8.922969,28.107845 -3.102136,5.892147 5.530928,2.77089 c 1.35295,0.408295 2.627794,1.381185 3.007569,3.056144 0.08158,0.35983 -0.136027,0.719665 -0.486276,0.803569 -0.350332,0.08392 -0.70078,-0.139806 -0.782381,-0.499711 -0.311949,-1.376068 -1.451581,-2.03074 -2.712496,-2.210718 -0.630463,-0.08998 -1.269897,-0.03917 -1.754931,0.107487 -0.485039,0.146653 -0.775698,0.394526 -0.848527,0.542086 -0.162695,0.329627 -0.554554,0.461226 -0.875399,0.294039 -0.320922,-0.167226 -0.449151,-0.570045 -0.286288,-0.899687 0.242,-0.489821 0.643132,-0.85145 1.144117,-1.034562 0.455583,-0.166514 0.270421,-0.303705 -0.0067,-0.4377 -0.715292,-0.345811 -1.986899,-0.907112 -2.668055,-1.374076 -0.698152,-0.478616 -2.041337,-1.389053 -1.437638,-2.614311 l 1.850533,-4.384228 z m -6.532418,0.01499 -3.011702,6.409428 4.547009,6.605282 h 2.981213 c 0.359583,0 0.651078,0.299298 0.651123,0.668693 4.9e-5,0.369457 -0.291478,0.669209 -0.651123,0.669209 h -2.942456 -0.623218 -3.145544 c -0.359714,0 -0.651169,-0.299682 -0.651123,-0.669209 4.5e-5,-0.369462 0.291473,-0.668693 0.651123,-0.668693 h 1.472778 c 0.56099,0 0.54099,-0.191728 0.180868,-0.638721 -0.908439,-1.127568 -2.513174,-3.755427 -3.538802,-5.183146 -1.354115,-1.884985 -0.863225,-3.289406 -0.45682,-4.246253 l 0.995805,-2.937805 z M 8.8898966,72.389897 H 54.610103 c 1.407159,0 2.539897,1.132738 2.539897,2.539896 v 5.08031 C 57.15,81.417262 56.017262,82.55 54.610103,82.55 H 8.8898966 C 7.4827381,82.55 6.35,81.417262 6.35,80.010103 v -5.08031 c 0,-1.407158 1.1327381,-2.539896 2.5398966,-2.539896 z"
       style="display:inline;fill:#ff9900;stroke-width:4;stroke-linecap:round;stroke-linejoin:round;paint-order:fill markers stroke"
       id="path18"
       inkscape:label="TOP" /></g></svg>
