<?xml version="1.0" encoding="UTF-8" standalone="no"?>
<!-- Created with Inkscape (http://www.inkscape.org/) -->

<svg
   width="66mm"
   height="92mm"
   viewBox="0 0 66 92"
   version="1.1"
   id="svg1"
   inkscape:version="1.3.1 (91b66b0783, 2023-11-16)"
   sodipodi:docname="dihada-token.svg"
   xmlns:inkscape="http://www.inkscape.org/namespaces/inkscape"
   xmlns:sodipodi="http://sodipodi.sourceforge.net/DTD/sodipodi-0.dtd"
   xmlns="http://www.w3.org/2000/svg"
   xmlns:svg="http://www.w3.org/2000/svg">
  <sodipodi:namedview
     id="namedview1"
     pagecolor="#999999"
     bordercolor="#000000"
     borderopacity="0.25"
     inkscape:showpageshadow="2"
     inkscape:pageopacity="0.0"
     inkscape:pagecheckerboard="false"
     inkscape:deskcolor="#444444"
     inkscape:document-units="mm"
     inkscape:zoom="2.8284271"
     inkscape:cx="143.3659"
     inkscape:cy="137.35549"
     inkscape:window-width="1620"
     inkscape:window-height="1010"
     inkscape:window-x="-6"
     inkscape:window-y="-6"
     inkscape:window-maximized="1"
     inkscape:current-layer="layer4"
     showguides="true"
     showgrid="false" />
  <defs
     id="defs1">
    <rect
       x="162.96371"
       y="64.774223"
       width="129.04063"
       height="64.68602"
       id="rect2" />
    <rect
       x="162.96371"
       y="64.774223"
       width="129.04063"
       height="64.68602"
       id="rect4" />
    <rect
       x="162.96371"
       y="64.774223"
       width="129.04063"
       height="64.68602"
       id="rect3" />
    <rect
       x="162.96371"
       y="64.774223"
       width="129.04063"
       height="64.68602"
       id="rect16" />
  </defs>
  <g
     inkscape:groupmode="layer"
     id="layer2"
     inkscape:label="RAW"
     style="display:none">
    <rect
       style="fill:#ffe9a6;stroke:none;stroke-width:0.15;stroke-linecap:round;stroke-linejoin:round"
       id="rect1"
       width="63.5"
       height="25.4"
       x="3.175"
       y="3.1750002"
       rx="3.175"
       ry="3.175"
       inkscape:label="cut" />
    <rect
       style="display:inline;fill:#ffe9a6;stroke:#000000;stroke-width:0.508;stroke-linecap:round;stroke-linejoin:round;stroke-dasharray:none"
       id="rect5"
       width="60.325001"
       height="22.225"
       x="4.7624998"
       y="4.7624998"
       rx="2.54"
       ry="2.54"
       inkscape:label="border" />
    <path
       id="rect6"
       style="display:inline;fill:#000000;fill-opacity:1;stroke:none;stroke-width:0.15;stroke-linecap:round;stroke-linejoin:round"
       inkscape:label="inset"
       d="M 7.3023966,4.7625 C 5.8952381,4.7625 4.7625,5.8952381 4.7625,7.3023966 V 24.447603 c 0,1.407159 1.1327381,2.539897 2.5398966,2.539897 H 26.789062 V 4.7625 Z" />
    <text
       xml:space="preserve"
       id="text4"
       style="font-style:normal;font-variant:normal;font-weight:normal;font-stretch:normal;font-size:18.6667px;line-height:1.1;font-family:'Franklin Gothic Medium Cond';-inkscape-font-specification:'Franklin Gothic Medium Cond, Normal';font-variant-ligatures:normal;font-variant-caps:normal;font-variant-numeric:normal;font-variant-east-asian:normal;letter-spacing:0.4px;white-space:pre;shape-inside:url(#rect4);display:inline;fill:#856404"
       transform="matrix(0.26458333,0,0,0.26458333,-13.417449,-9.1818204)"
       inkscape:label="raw font"><tspan
         x="162.96289"
         y="80.390288"
         id="tspan4">INDESTRUCTIBLE
</tspan><tspan
         x="162.96289"
         y="100.92366"
         id="tspan5">LIFELINK
</tspan><tspan
         x="162.96289"
         y="121.45703"
         id="tspan6">VIGILANCE</tspan></text>
    <g
       id="g14"
       inkscape:label="crown"
       style="display:inline"
       transform="matrix(0.85326598,0,0,0.85326598,-7.563926,-6.4579529)">
      <path
         id="path4"
         style="color:#000000;fill:#856404;stroke-width:0.860652;stroke-linecap:round;stroke-linejoin:round;-inkscape-stroke:none"
         d="m 18.729969,31.866996 c 0,0.226912 0.150779,0.414083 0.317352,0.5398 0.166574,0.125718 0.364636,0.216829 0.596524,0.3015 0.463777,0.169343 1.071923,0.304883 1.816298,0.419845 1.488751,0.229922 3.505941,0.36832 5.735224,0.36832 2.229287,0 4.246475,-0.138398 5.735225,-0.36832 0.744375,-0.114962 1.354428,-0.250502 1.818207,-0.419845 0.231888,-0.08467 0.429951,-0.175782 0.596523,-0.3015 0.166573,-0.125717 0.34802,-0.303228 0.317352,-0.5398 0,0 -0.06335,-0.382327 -0.280544,-0.23025 -0.217197,0.152077 -0.401434,0.227696 -0.633323,0.312368 -0.463779,0.169342 -1.073832,0.303276 -1.818207,0.418235 -1.488749,0.229923 -3.505938,0.36832 -5.735225,0.36832 -2.229283,0 -4.246474,-0.138397 -5.735224,-0.36832 -0.744377,-0.114959 -1.352521,-0.248893 -1.816298,-0.418235 -0.231889,-0.08467 -0.372924,-0.15128 -0.596048,-0.302707 -0.223123,-0.151427 -0.317836,0.151791 -0.317836,0.220589 z"
         sodipodi:nodetypes="ssssssssczssssszs"
         inkscape:label="backring" />
      <path
         id="path13"
         style="display:inline;fill:#856404;fill-opacity:1;stroke:#d6a206;stroke-width:0;stroke-linejoin:round;stroke-dasharray:none;stroke-opacity:1"
         inkscape:label="crown back"
         d="m 21.604883,20.870561 c -0.49697,1.285476 -1.256161,2.199111 -1.99471,2.83962 0.210678,0.0634 0.428499,0.115981 0.653706,0.150379 0.979374,0.149588 2.074875,-0.0024 3.22461,-0.824239 0.103375,-0.07389 0.206949,-0.155531 0.311092,-0.240813 -0.803759,-0.410698 -1.599454,-1.01783 -2.194698,-1.924947 z m 11.181229,0 c -0.594984,0.906723 -1.390339,1.513734 -2.193664,1.924431 0.104327,0.08546 0.208569,0.167302 0.312126,0.241329 1.149691,0.821812 2.245293,0.973826 3.224609,0.824239 0.224662,-0.03432 0.441474,-0.08718 0.65164,-0.150379 -0.738582,-0.640513 -1.497718,-1.554092 -1.994711,-2.83962 z" />
      <path
         id="path11"
         style="color:#000000;fill:#ffe9a6;fill-opacity:1;stroke-width:1.02284;stroke-linecap:round;stroke-linejoin:round;-inkscape-stroke:none"
         d="m 17.881423,30.930092 c 0,-0.291303 0.165886,-0.531589 0.349151,-0.692981 0.183265,-0.161393 0.401174,-0.278359 0.656299,-0.387057 0.51025,-0.217397 1.179336,-0.3914 1.998301,-0.538985 1.637933,-0.295168 3.857256,-0.472839 6.309927,-0.472839 2.452673,0 4.671994,0.177671 6.309926,0.472839 0.818965,0.147585 1.490149,0.321588 2.000401,0.538985 0.255125,0.108698 0.473035,0.225664 0.656298,0.387057 0.183265,0.161392 0.382893,0.389276 0.349153,0.692981 0,0 -0.0697,0.490821 -0.308655,0.295588 -0.238963,-0.195232 -0.441661,-0.29231 -0.696788,-0.401009 -0.510251,-0.217397 -1.181435,-0.389337 -2.000401,-0.536918 -1.63793,-0.295169 -3.857252,-0.47284 -6.309925,-0.47284 -2.452671,0 -4.671996,0.177671 -6.309927,0.47284 -0.818968,0.147581 -1.488051,0.319521 -1.998301,0.536918 -0.255126,0.108699 -0.410294,0.194209 -0.655774,0.388607 -0.245482,0.194398 -0.349685,-0.194865 -0.349685,-0.283186 z"
         sodipodi:nodetypes="ssssssssczssssszs"
         inkscape:label="front ring" />
      <path
         id="path12"
         style="display:inline;fill:#ffe9a6;fill-opacity:1;stroke:#d6a206;stroke-width:0;stroke-linejoin:round;stroke-dasharray:none;stroke-opacity:1"
         inkscape:label="crown"
         d="m 27.19679,18.850529 c -0.922159,1.98799 -1.900579,3.387959 -2.893364,4.276742 l -5.17e-4,5.16e-4 c -0.08353,0.07476 -0.167482,0.145947 -0.251147,0.213941 -0.0028,0.0023 -0.006,0.005 -0.0088,0.0072 -10e-4,8.33e-4 -0.0021,0.0018 -0.0031,0.0026 -0.08557,0.0692 -0.171096,0.134569 -0.256832,0.195854 -0.625963,0.447451 -1.253054,0.717774 -1.859834,0.855245 -0.151696,0.03437 -0.302319,0.06007 -0.451136,0.07855 -0.148815,0.01848 -0.296048,0.02959 -0.441316,0.03359 -0.290535,0.008 -0.573122,-0.01164 -0.845427,-0.05323 -0.09768,-0.01492 -0.193036,-0.03217 -0.286287,-0.05116 -0.07895,-0.01608 -0.155651,-0.03401 -0.231511,-0.05271 -0.01308,-0.0032 -0.0268,-0.006 -0.03979,-0.0093 -0.0876,-0.02224 -0.173294,-0.046 -0.256832,-0.07131 -0.08421,-0.02551 -0.166302,-0.05242 -0.246497,-0.08061 -1.025324,-0.360423 -1.717999,-0.929825 -2.128552,-1.30328 0.250654,2.141648 0.823478,4.540328 1.046964,6.68383 1.47017,-1.268256 5.074043,-1.546395 9.153447,-1.547709 4.069133,2.6e-4 7.702516,0.525584 9.183935,1.459859 0.427822,-2.751762 0.981138,-5.957878 1.015959,-6.59598 -0.410347,0.373381 -1.104213,0.943324 -2.130619,1.303797 -0.0078,0.0027 -0.01596,0.005 -0.02377,0.0078 -0.07216,0.02501 -0.145282,0.04953 -0.220659,0.07235 -6.9e-4,2.09e-4 -0.0014,3.09e-4 -0.0021,5.17e-4 -0.0093,0.0028 -0.01908,0.005 -0.02842,0.0078 -0.07182,0.02133 -0.144837,0.04192 -0.219625,0.06098 -0.04298,0.0109 -0.08781,0.0204 -0.131775,0.03049 -0.04931,0.01137 -0.09773,0.02331 -0.148311,0.03359 -0.09324,0.01895 -0.188636,0.03624 -0.286287,0.05116 -0.272292,0.04159 -0.554891,0.06122 -0.845427,0.05323 -0.145269,-0.004 -0.292497,-0.01511 -0.441317,-0.03359 -0.148817,-0.01848 -0.299436,-0.04418 -0.451135,-0.07855 -0.530944,-0.120287 -1.077557,-0.342223 -1.625224,-0.695565 -0.07824,-0.05048 -0.156368,-0.103748 -0.234611,-0.15968 -0.08571,-0.06126 -0.171353,-0.126642 -0.256832,-0.195854 -0.0037,-0.003 -0.0072,-0.0063 -0.01085,-0.0093 -0.08394,-0.06828 -0.167863,-0.139886 -0.251664,-0.214974 -0.992048,-0.888873 -1.968651,-2.289007 -2.890779,-4.276742 z" />
    </g>
  </g>
  <g
     inkscape:label="EXPORT"
     inkscape:groupmode="layer"
     id="layer1"
     style="display:none">
    <rect
       style="display:inline;fill:#ffe9a6;stroke:none;stroke-width:0.15;stroke-linecap:round;stroke-linejoin:round"
       id="rect7"
       width="63.5"
       height="25.4"
       x="3.175"
       y="3.1750002"
       rx="3.175"
       ry="3.175"
       inkscape:label="cut" />
    <path
       id="path21"
       style="color:#000000;display:inline;fill:#000000;stroke-linecap:round;stroke-linejoin:round;-inkscape-stroke:none"
       inkscape:label="inset"
       d="m 7.3029134,4.5077352 c -1.543473,0 -2.7951782,1.2517052 -2.7951782,2.7951782 V 24.447087 c 0,1.543471 1.2517052,2.795178 2.7951782,2.795178 H 62.547087 c 1.543471,0 2.794661,-1.251707 2.794661,-2.795178 V 7.3029134 c 0,-1.543473 -1.25119,-2.7951782 -2.794661,-2.7951782 z M 26.789062,5.0157145 h 35.758025 c 1.270826,0 2.286682,1.0163692 2.286682,2.2871989 V 24.447087 c 0,1.270826 -1.015856,2.287198 -2.286682,2.287198 H 26.789062 Z M 15.641939,9.6268026 c 0.78682,1.6960654 1.620553,2.8904284 2.467033,3.6488724 0.0715,0.06407 0.142834,0.125191 0.214457,0.183452 0.0031,0.0026 0.0061,0.0057 0.0093,0.0083 0.07294,0.05906 0.145975,0.114644 0.219108,0.166915 0.06676,0.04773 0.133229,0.09335 0.199988,0.136426 0.467305,0.301494 0.933959,0.490608 1.386995,0.593245 0.12944,0.02933 0.258009,0.05141 0.38499,0.06718 0.126983,0.01577 0.252768,0.02501 0.376721,0.02842 0.247904,0.0068 0.489066,-0.01 0.721403,-0.04548 0.08332,-0.01273 0.164354,-0.02724 0.243913,-0.04341 0.04316,-0.0088 0.08453,-0.01872 0.126607,-0.02842 0.03751,-0.0086 0.07598,-0.01705 0.112655,-0.02635 0.06381,-0.01626 0.125787,-0.03399 0.187068,-0.05219 0.008,-0.0024 0.01635,-0.0038 0.02429,-0.0062 5.98e-4,-1.78e-4 0.0015,-3.39e-4 0.0021,-5.17e-4 0.06432,-0.01947 0.126531,-0.04067 0.188103,-0.06201 0.0067,-0.0024 0.0135,-0.0044 0.02015,-0.0067 0.875797,-0.307579 1.467842,-0.793484 1.817977,-1.112077 -0.02971,0.544471 -0.501568,3.280098 -0.866614,5.628081 -1.264043,-0.797185 -4.364164,-1.245697 -7.836214,-1.245919 -3.480813,0.0011 -6.5559309,0.238691 -7.8103757,1.320849 -0.1906928,-1.828975 -0.6796112,-3.875617 -0.8934855,-5.703011 0.3503106,0.318657 0.9415534,0.804541 1.8164266,1.112077 0.068428,0.02405 0.1384696,0.04696 0.2103231,0.06873 0.07128,0.0216 0.144362,0.04148 0.219108,0.06046 0.011084,0.0028 0.022429,0.0055 0.03359,0.0083 0.064729,0.01596 0.1305555,0.03124 0.1979208,0.04496 0.079568,0.0162 0.1605658,0.03068 0.2439127,0.04341 0.2323484,0.03549 0.473499,0.0523 0.721403,0.04548 0.123952,-0.0034 0.249742,-0.01265 0.376721,-0.02842 0.12698,-0.01577 0.255552,-0.03785 0.384989,-0.06718 0.517745,-0.117299 1.052871,-0.347877 1.586984,-0.729671 0.07315,-0.05229 0.146094,-0.108386 0.219108,-0.167432 8.53e-4,-6.82e-4 0.0017,-0.0014 0.0026,-0.0021 0.0024,-0.0019 0.0048,-0.0042 0.0072,-0.0062 0.07139,-0.05802 0.143184,-0.118628 0.214457,-0.182418 l 5.17e-4,-5.17e-4 c 0.847109,-0.758367 1.681737,-1.95259 2.468583,-3.6488724 z m -4.771285,1.7234094 c 0.507901,0.774009 1.186937,1.291842 1.872754,1.642277 -0.08886,0.07277 -0.17741,0.142624 -0.265617,0.205672 -0.981026,0.701244 -1.915589,0.830954 -2.7512529,0.703316 -0.1921609,-0.02935 -0.3778249,-0.07406 -0.5575887,-0.128158 0.6301769,-0.546521 1.2776596,-1.32626 1.7017046,-2.423107 z m 9.540503,0 c 0.424067,1.096892 1.072018,1.876582 1.702222,2.423107 -0.179327,0.05393 -0.364342,0.09887 -0.556039,0.128158 -0.835614,0.127637 -1.770264,-0.0021 -2.751253,-0.703316 -0.08836,-0.06317 -0.177632,-0.132752 -0.26665,-0.205672 0.685447,-0.350434 1.364043,-0.868604 1.87172,-1.642277 z m -4.770251,6.798551 c 2.092778,0 3.986062,0.151736 5.38365,0.403593 0.698795,0.125929 1.271493,0.274423 1.706873,0.45992 0.217689,0.09275 0.403801,0.192502 0.560173,0.330213 0.156372,0.137709 0.326962,0.332037 0.298173,0.591178 0,0 -0.05966,0.418766 -0.26355,0.252181 -0.203899,-0.166585 -0.377105,-0.249349 -0.594796,-0.342098 -0.435379,-0.185497 -1.008077,-0.332444 -1.706873,-0.45837 -1.397586,-0.251857 -3.290872,-0.403076 -5.38365,-0.403076 -2.092777,0 -3.986579,0.151219 -5.384168,0.403076 -0.6987956,0.125926 -1.2699439,0.272873 -1.705322,0.45837 -0.2176899,0.09275 -0.3496797,0.16589 -0.559139,0.331763 -0.209461,0.165873 -0.2986898,-0.166485 -0.2986898,-0.241846 0,-0.248559 0.1417995,-0.453469 0.2981731,-0.591178 0.1563734,-0.137711 0.3419667,-0.237465 0.5596557,-0.330213 0.4353781,-0.185497 1.006529,-0.333991 1.705322,-0.45992 1.39759,-0.251857 3.291391,-0.403593 5.384168,-0.403593 z m 7.07657,2.357996 c 0.112786,0.01116 0.148312,0.226342 0.148312,0.226342 0.02617,0.201859 -0.128654,0.35317 -0.270785,0.460437 -0.14213,0.107271 -0.311151,0.185103 -0.509013,0.257349 -0.395723,0.144495 -0.91618,0.260025 -1.551326,0.358118 -1.270296,0.196184 -2.991591,0.314192 -4.893758,0.314192 -1.902164,0 -3.623465,-0.118008 -4.893758,-0.314192 C 10.111998,21.710912 9.593095,21.595382 9.1973714,21.450887 8.9995101,21.37864 8.8304897,21.300809 8.6883586,21.193538 8.5462279,21.086271 8.4175741,20.926717 8.4175741,20.733101 c 0,-0.0587 0.080919,-0.317309 0.2713012,-0.188102 0.1903834,0.129208 0.3106339,0.186136 0.5084961,0.258382 0.3957236,0.144494 0.9146256,0.258477 1.5497766,0.356568 1.270292,0.196185 2.991594,0.314192 4.893758,0.314192 1.902167,0 3.623463,-0.118007 4.893758,-0.314192 0.635146,-0.09809 1.155603,-0.212074 1.551326,-0.356568 0.197863,-0.07225 0.355209,-0.136888 0.540536,-0.26665 0.03475,-0.02433 0.06492,-0.03255 0.09095,-0.02997 z" />
    <path
       id="path19"
       style="color:#000000;display:inline;fill:#856404;stroke-width:0.860652;stroke-linecap:round;stroke-linejoin:round;-inkscape-stroke:none"
       inkscape:label="crown shadow"
       d="m 21.604729,20.87059 c -0.496969,1.285475 -1.255794,2.199295 -1.994343,2.839804 0.210678,0.0634 0.428269,0.115798 0.653476,0.150196 0.979373,0.149588 2.074646,-0.0024 3.22438,-0.824263 0.103374,-0.07389 0.207151,-0.15576 0.311294,-0.241042 -0.803758,-0.410697 -1.599563,-1.017579 -2.194807,-1.924695 z m 11.18116,0 c -0.594984,0.906722 -1.390272,1.513999 -2.193596,1.924695 0.104327,0.08546 0.208949,0.167015 0.312506,0.241042 1.14969,0.821811 2.245064,0.97385 3.224379,0.824263 0.224662,-0.03432 0.441493,-0.087 0.651659,-0.150196 -0.738581,-0.640513 -1.497956,-1.554277 -1.994948,-2.839804 z m 2.702931,10.731176 c -0.0305,-0.003 -0.06587,0.0066 -0.106591,0.03513 -0.217197,0.152077 -0.401602,0.227834 -0.63349,0.312506 -0.463779,0.169342 -1.07373,0.302926 -1.818105,0.417885 -1.488747,0.229923 -3.50604,0.368224 -5.735325,0.368224 -2.229281,0 -4.246577,-0.138301 -5.735326,-0.368224 -0.744376,-0.114959 -1.35251,-0.248543 -1.816287,-0.417885 -0.231889,-0.08467 -0.372817,-0.151389 -0.595941,-0.302816 -0.223123,-0.151427 -0.317956,0.151652 -0.317956,0.22045 0,0.226912 0.150778,0.4139 0.31735,0.539617 0.166574,0.125718 0.364659,0.216934 0.596547,0.301604 0.463777,0.169343 1.071913,0.304741 1.816287,0.419703 1.48875,0.229922 3.506045,0.368223 5.735326,0.368223 2.229285,0 4.246577,-0.138301 5.735325,-0.368223 0.744375,-0.114962 1.354326,-0.25036 1.818105,-0.419703 0.231887,-0.08467 0.429974,-0.175886 0.596546,-0.301604 0.166573,-0.125717 0.348019,-0.303045 0.317351,-0.539617 0,0 -0.04164,-0.252189 -0.173816,-0.265266 z"
       transform="matrix(0.85326598,0,0,0.85326598,-7.5639261,-6.4579529)" />
    <path
       id="path17"
       d="m 203.30928,67.720522 c -1.14237,0 -2.05925,0.337239 -2.75196,1.011719 -0.68663,0.674479 -1.03125,1.507594 -1.03125,2.498047 0,0.650174 0.15495,1.229816 0.46485,1.740234 0.3099,0.510417 0.68359,0.896918 1.12109,1.158203 0.44357,0.261285 1.16363,0.580295 2.16016,0.957031 0.94184,0.358507 1.53255,0.695746 1.76953,1.011719 0.23698,0.315972 0.35547,0.658637 0.35547,1.029297 0,0.504341 -0.17318,0.930989 -0.51953,1.277344 -0.34028,0.340278 -0.84158,0.509765 -1.50391,0.509765 -1.35504,0 -2.19358,-0.765624 -2.51562,-2.296875 l -1.8418,0.519532 c 0.54687,2.321182 1.96875,3.482422 4.26562,3.482422 1.33074,0 2.36437,-0.368272 3.09961,-1.103516 0.74132,-0.735243 1.11133,-1.624782 1.11133,-2.669922 0,-0.644098 -0.14214,-1.209201 -0.42773,-1.695313 -0.27952,-0.492187 -0.64779,-0.884114 -1.10352,-1.175781 -0.45573,-0.291667 -1.10655,-0.599826 -1.95117,-0.921875 -0.99045,-0.376736 -1.65213,-0.697483 -1.98633,-0.964844 -0.32813,-0.273437 -0.49219,-0.63802 -0.49219,-1.09375 0,-0.413195 0.14584,-0.777777 0.4375,-1.09375 0.29775,-0.322049 0.71702,-0.484375 1.25782,-0.484375 0.58334,0 1.04275,0.158637 1.37695,0.47461 0.34028,0.309896 0.61372,0.792969 0.82031,1.449219 l 1.75781,-0.611329 c -0.55902,-2.00521 -1.8496,-3.007812 -3.87304,-3.007812 z m 38.91406,0 c -1.47657,0 -2.60677,0.559677 -3.39062,1.677734 -0.78386,1.118056 -1.17579,2.72591 -1.17579,4.822266 0,1.944446 0.37197,3.495659 1.11329,4.65625 0.74132,1.160591 1.86784,1.742188 3.38085,1.742188 2.32726,0 3.68533,-1.383679 4.07422,-4.148438 l -1.89648,-0.263672 c -0.13368,0.875001 -0.35786,1.54579 -0.67383,2.013672 -0.3099,0.461806 -0.78385,0.693359 -1.42187,0.693359 -1.59202,0 -2.38868,-1.525822 -2.38868,-4.576172 0,-3.275176 0.79666,-4.912109 2.38868,-4.912109 1.19097,0 1.8891,0.94249 2.0957,2.826172 l 1.91406,-0.283203 c -0.39496,-2.8316 -1.73481,-4.248047 -4.01953,-4.248047 z m -78.06641,0.228515 v 12.441407 h 2.06055 V 67.949037 Z m 4.78321,0 v 12.441407 h 1.72265 v -9.962891 l 4.59375,9.962891 h 1.92383 V 67.949037 h -1.72266 v 8.968751 l -4.09179,-8.968751 z m 10.96484,0 v 12.441407 h 2.95312 c 1.42188,0 2.51563,-0.291666 3.28125,-0.875 0.77171,-0.583334 1.34224,-1.348957 1.7129,-2.296875 0.37673,-0.953994 0.5664,-2.038628 0.5664,-3.253906 0,-1.154515 -0.20964,-2.20638 -0.6289,-3.154297 -0.4132,-0.947918 -1.02757,-1.660591 -1.8418,-2.140625 -0.80816,-0.480036 -1.8891,-0.720704 -3.24414,-0.720704 z m 10.88086,0 v 12.441407 h 7.21094 v -1.685547 h -5.15039 v -3.892578 h 3.97461 v -1.658203 h -3.97461 v -3.554688 h 5.06836 v -1.650391 z m 17.68945,0 v 1.75 h 2.75391 v 10.691407 h 2.05859 V 69.699037 h 2.78125 v -1.75 z m 8.88672,0 v 12.441407 h 2.0586 v -5.195313 h 1.93359 l 1.94141,5.195313 h 2.23242 l -2.35938,-5.623047 c 1.26997,-0.638021 1.9043,-1.722655 1.9043,-3.253906 0,-1.148439 -0.3227,-2.030816 -0.9668,-2.644532 -0.6441,-0.613716 -1.64301,-0.919922 -2.99804,-0.919922 z m 10.05274,0 v 7.720704 c 0,1.54948 0.15494,2.626735 0.46484,3.234375 0.30989,0.601563 0.76562,1.039062 1.36719,1.3125 0.60764,0.267361 1.32031,0.402344 2.14062,0.402344 1.05729,0 1.89953,-0.217014 2.52539,-0.648438 0.63195,-0.431424 1.03299,-0.974609 1.20313,-1.630859 0.17621,-0.656251 0.26367,-1.591362 0.26367,-2.806641 v -7.583985 h -1.84961 v 7.683594 c 0,1.069445 -0.0601,1.785807 -0.18164,2.150391 -0.12153,0.358508 -0.32942,0.639323 -0.62109,0.839844 -0.29167,0.194444 -0.69814,0.291015 -1.22071,0.291015 -0.55295,0 -0.99414,-0.118489 -1.32226,-0.355468 -0.32205,-0.243056 -0.528,-0.567492 -0.61914,-0.97461 -0.0912,-0.413195 -0.13672,-1.051215 -0.13672,-1.914062 v -7.720704 z m 19.42968,0 v 1.75 h 2.75196 v 10.691407 h 2.06054 V 69.699037 h 2.7793 v -1.75 z m 8.88477,0 v 12.441407 h 2.06055 V 67.949037 Z m 4.84961,0 v 12.441407 h 3.81836 c 1.65885,0 2.77994,-0.340929 3.36328,-1.021485 0.58941,-0.686632 0.88477,-1.488714 0.88477,-2.40625 0,-1.61632 -0.74566,-2.657117 -2.23438,-3.125 1.23351,-0.4375 1.85156,-1.34722 1.85156,-2.726562 0,-0.753473 -0.17144,-1.391492 -0.51172,-1.914063 -0.34028,-0.528646 -0.75586,-0.867621 -1.24804,-1.019531 -0.49219,-0.15191 -1.21224,-0.228516 -2.16016,-0.228516 z m 10.57031,0 v 12.441407 h 6.46289 v -1.740235 h -4.40234 V 67.949037 Z m 8.0293,0 v 12.441407 h 7.20898 v -1.685547 h -5.14843 v -3.892578 h 3.97265 v -1.658203 h -3.97265 v -3.554688 h 5.0664 v -1.650391 z m -59.75781,1.595704 h 1.5957 c 1.35503,0 2.0332,0.64887 2.0332,1.949218 0,0.625868 -0.16775,1.134548 -0.50195,1.523438 -0.32813,0.388889 -0.84397,0.582031 -1.54883,0.582031 h -1.57812 z m 43.17187,0 h 1.50391 c 0.69878,0 1.21463,0.136718 1.54883,0.410156 0.3342,0.267362 0.50195,0.713976 0.50195,1.339844 0,0.534722 -0.14584,0.972221 -0.4375,1.3125 -0.29167,0.334201 -0.89692,0.5 -1.81445,0.5 h -1.30274 z m -80.62695,0.05469 h 0.85547 c 2.27864,0 3.41796,1.523869 3.41796,4.574219 0,1.385418 -0.26974,2.495659 -0.81054,3.328125 -0.5408,0.826389 -1.41037,1.238281 -2.60742,1.238281 h -0.85547 z m 80.62695,5.103516 h 1.48633 c 0.99045,0 1.6467,0.205946 1.96875,0.61914 0.32205,0.413195 0.48242,0.881727 0.48242,1.404297 0,1.342883 -0.7602,2.013672 -2.2793,2.013672 h -1.6582 z m -98.43555,13.779297 v 12.441406 h 6.46289 v -1.740234 h -4.40234 V 88.482241 Z m 8.0293,0 v 12.441406 h 2.05859 V 88.482241 Z m 4.84766,0 v 12.441406 h 2.06054 v -5.423828 h 3.88282 v -1.648437 h -3.88282 v -3.71875 h 4.84766 v -1.650391 z m 8.34765,0 v 12.441406 h 7.20899 V 99.2381 h -5.14844 v -3.892578 h 3.97266 v -1.658203 h -3.97266 v -3.554687 h 5.06641 v -1.650391 z m 8.98633,0 v 12.441406 h 6.46289 v -1.740234 h -4.40234 V 88.482241 Z m 8.0293,0 v 12.441406 h 2.05859 V 88.482241 Z m 4.7832,0 v 12.441406 h 1.72266 v -9.96289 l 4.59375,9.96289 h 1.92383 V 88.482241 h -1.72266 v 8.96875 l -4.09375,-8.96875 z m 10.95508,0 v 12.441406 h 2.06055 v -4.083984 l 1.46679,-2.085938 2.7793,6.169922 h 2.23437 l -3.75585,-7.875 3.20898,-4.566406 h -2.17969 l -3.7539,5.933594 v -5.933594 z m -35.83399,20.304686 c -1.60417,0 -2.79448,0.59614 -3.57226,1.78711 -0.7717,1.18489 -1.1582,2.79448 -1.1582,4.83008 0,1.93229 0.39192,3.46354 1.17578,4.59375 0.78386,1.12413 1.87218,1.6875 3.26367,1.6875 1.36718,0 2.3661,-0.57249 2.99805,-1.71485 l 0.27343,1.57813 h 1.09375 v -6.47266 h -4.15625 v 1.65039 h 2.23438 c 0,2.16927 -0.71094,3.25391 -2.13281,3.25391 -1.71355,0 -2.57032,-1.58594 -2.57032,-4.75781 0,-3.15365 0.83486,-4.73047 2.50586,-4.73047 0.50435,0 0.94184,0.15863 1.3125,0.47461 0.37066,0.31596 0.66602,1.00868 0.88477,2.07812 l 1.85937,-0.46484 c -0.4375,-2.52778 -1.7756,-3.79297 -4.01172,-3.79297 z m 44.12891,0 c -1.47656,0 -2.60677,0.55968 -3.39062,1.67773 -0.78386,1.11806 -1.17579,2.72591 -1.17579,4.82227 0,1.94444 0.37001,3.49566 1.11133,4.65625 0.74133,1.16058 1.86784,1.74219 3.38086,1.74219 2.32726,0 3.68533,-1.38368 4.07422,-4.14844 l -1.89453,-0.26367 c -0.13368,0.875 -0.35981,1.54578 -0.67578,2.01367 -0.30989,0.4618 -0.78385,0.69336 -1.42188,0.69336 -1.59201,0 -2.38672,-1.52583 -2.38672,-4.57617 0,-3.27518 0.79471,-4.91211 2.38672,-4.91211 1.19098,0 1.89106,0.94249 2.09766,2.82617 l 1.91406,-0.2832 c -0.39496,-2.8316 -1.7348,-4.24805 -4.01953,-4.24805 z m -63.54102,0.22851 3.20899,12.44141 2.23242,0.0273 3.28125,-12.46875 h -1.82226 l -2.36915,9.92579 -2.36132,-9.92579 z m 10.25391,0 v 12.44141 h 2.05859 v -12.44141 z m 15.74805,0 v 12.44141 h 2.05859 v -12.44141 z m 4.84765,0 v 12.44141 h 6.4629 v -1.74023 h -4.40235 v -10.70118 z m 10.36133,0 -3.59961,12.44141 h 1.96875 l 0.76563,-3.11719 h 3.63672 l 0.7832,3.11719 h 2.08789 l -3.33594,-12.44141 z m 7.22657,0 v 12.44141 h 1.72265 v -9.96289 l 4.59375,9.96289 h 1.92383 v -12.44141 h -1.72266 v 8.96875 l -4.09179,-8.96875 z m 21.20898,0 v 12.44141 h 7.20898 v -1.68555 h -5.15039 v -3.89257 h 3.97461 v -1.65821 h -3.97461 v -3.55469 h 5.06836 v -1.65039 z m -27.48633,2.00586 1.41211,5.69532 h -2.81641 z"
       style="font-size:18.6667px;line-height:1.1;font-family:'Franklin Gothic Medium Cond';-inkscape-font-specification:'Franklin Gothic Medium Cond, Normal';letter-spacing:0.4px;white-space:pre;display:inline;fill:#856404"
       transform="matrix(0.26458333,0,0,0.26458333,-13.417449,-9.1818203)"
       inkscape:label="text" />
  </g>
  <g
     inkscape:groupmode="layer"
     id="layer3"
     inkscape:label="SIMPLER"
     style="display:none">
    <path
       id="rect8"
       style="display:inline;fill:#fed1aa;stroke-width:0.15;stroke-linecap:round;stroke-linejoin:round"
       inkscape:label="cut"
       d="M 6.3499999,3.1750002 H 63.5 c 1.75895,0 3.175,1.41605 3.175,3.1749999 V 25.4 c 0,1.75895 -1.41605,3.175 -3.175,3.175 H 6.3499999 C 4.5910499,28.575 3.175,27.15895 3.175,25.4 V 6.3500001 c 0,-1.7589499 1.4160499,-3.1749999 3.1749999,-3.1749999 z" />
    <path
       id="path49"
       style="display:inline;fill:#5b2d07;fill-opacity:1;stroke-width:0.384748"
       d="m 53.729537,14.825452 c -0.05434,0.0024 -0.108799,0.0236 -0.161747,0.06563 -0.707744,0.561848 -0.957085,1.923835 -0.520899,2.845304 0.01792,0.03786 -0.04674,0.03393 -0.220141,-0.01344 -0.766646,-0.209451 -1.822895,0.401075 -1.914095,1.106393 -0.0193,0.149289 -0.03345,0.145703 0.379305,0.08733 0.706994,-0.09997 1.492161,0.483238 1.623156,1.205611 0.268547,1.480896 -1.499476,2.30821 -2.704744,1.265556 -0.295071,-0.25526 -0.309817,-0.295438 -0.139526,-0.377238 0.68118,-0.327193 0.319713,-1.332735 -0.479041,-1.332735 -0.884293,0 -1.125406,1.028556 -0.322461,1.375626 0.303039,0.130987 0.302888,0.129337 0.06046,0.583944 -0.550153,1.031667 -2.209771,1.016979 -2.740918,-0.02429 -0.259536,-0.508799 -0.139197,-1.007692 0.343131,-1.420585 0.305477,-0.261499 0.301179,-0.317322 -0.03772,-0.467155 -0.644981,-0.285154 -1.51274,-0.128665 -1.847432,0.333313 -0.124462,0.171806 -0.124355,0.171787 -0.216524,-0.09767 -0.201251,-0.588382 -1.033484,-1.088717 -1.762167,-1.059367 -0.107841,0.0043 -0.236581,-0.0073 -0.28577,-0.02584 -0.14299,-0.05379 -0.106381,0.04129 0.134875,0.352434 1.240279,1.599562 2.294432,3.859232 2.660303,5.700944 0.0451,0.22702 0.09508,0.469098 0.110587,0.538468 0.0282,0.126124 0.02832,0.126091 8.047054,0.126091 4.410305,0 8.013797,-0.0152 8.008297,-0.03411 -0.07693,-0.260942 0.658845,-2.680944 1.056266,-3.474206 0.62761,-1.252722 0.991189,-1.868818 1.576132,-2.670122 0.418638,-0.573502 0.422922,-0.536894 -0.05994,-0.500744 -0.961352,0.07196 -1.585066,0.475607 -1.7632,1.139982 -0.0334,0.12457 -0.03373,0.124591 -0.242362,-0.07855 -0.408016,-0.397277 -1.217345,-0.513061 -1.799891,-0.257349 -0.336101,0.147536 -0.344602,0.202236 -0.06356,0.424264 0.905127,0.715064 0.551696,1.953787 -0.639754,2.241723 -0.678079,0.163874 -1.512037,-0.253393 -1.777152,-0.889351 -0.13892,-0.333244 -0.138147,-0.337214 0.04392,-0.373104 0.649411,-0.128016 0.740011,-1.149216 0.122473,-1.380794 -0.939856,-0.352447 -1.691228,0.793336 -0.82889,1.264005 0.561561,0.306504 -1.126131,1.024472 -1.842782,0.783932 -1.779936,-0.597426 -1.040581,-3.227524 0.802018,-2.853056 0.21867,0.04445 0.219411,0.04427 0.197921,-0.077 -0.138461,-0.780874 -1.422626,-1.45986 -2.056205,-1.087272 -0.105181,0.06185 -0.104686,0.05794 0.01654,-0.311609 0.314585,-0.959029 -0.230216,-2.658473 -0.755509,-2.634981 z m -0.03824,6.782015 0.558106,0.730704 v 1.460376 l -0.558106,0.730705 -0.557588,-0.730705 v -1.460376 z"
       inkscape:label="crown" />
    <path
       id="path8"
       d="m 7.4388224,6.68538 v 5.044653 h 0.629419 V 6.68538 Z m 4.1578856,0 v 5.044653 h 1.051099 c 0.167432,0 0.303857,-0.02894 0.409277,-0.08682 0.105418,-0.05788 0.1881,-0.128158 0.248047,-0.21084 0.05994,-0.08268 0.102317,-0.165365 0.127124,-0.248047 0.02687,-0.08269 0.04238,-0.151932 0.04651,-0.207739 0.0062,-0.05788 0.0093,-0.64699 0.0093,-1.767334 0,-1.1224109 -0.0031,-1.7115234 -0.0093,-1.767334 -0.0041,-0.057878 -0.01964,-0.1281576 -0.04651,-0.2108398 C 13.407452,7.148401 13.365078,7.0657185 13.305131,6.9830363 13.245186,6.9003538 13.162504,6.8300737 13.057084,6.7721965 12.951664,6.7143192 12.815239,6.68538 12.647807,6.68538 Z m 21.679297,0 v 5.044653 h 0.629419 V 6.68538 Z m 1.447974,0 v 5.044653 h 1.051098 c 0.297657,0 0.516765,-0.09922 0.657325,-0.297656 0.103355,-0.14056 0.162266,-0.293522 0.176733,-0.458887 l 0.0062,-0.08371 V 9.4169963 c -0.0124,-0.1074869 -0.03307,-0.2015382 -0.06201,-0.2821534 -0.02894,-0.080615 -0.07855,-0.1612305 -0.148828,-0.2418457 0.07028,-0.082682 0.119888,-0.1632975 0.148828,-0.2418457 0.02894,-0.080615 0.04651,-0.1477948 0.05271,-0.2015381 0.0062,-0.05581 0.0093,-0.2232424 0.0093,-0.5022949 0,-0.2811194 -0.0021,-0.4495849 -0.0062,-0.5053955 C 36.594666,7.2765586 36.535755,7.1235961 36.432402,6.9830363 36.291842,6.784599 36.072734,6.68538 35.775077,6.68538 Z M 9.7270549,6.68848 c -0.297656,0 -0.5167645,0.098185 -0.6573243,0.2945557 C 8.9684449,7.1256632 8.9105684,7.2786254 8.8960978,7.441923 l -0.0093,0.086816 v 4.201294 H 9.5193156 V 7.5287394 C 9.531718,7.3881797 9.6009645,7.3178996 9.7270549,7.3178996 h 0.2108398 c 0.1281573,0 0.1984373,0.07028 0.2108403,0.2108398 v 4.2012936 h 0.629418 V 7.5287394 C 10.76782,7.4150514 10.75025,7.3168659 10.725444,7.2341838 10.661364,7.0274782 10.536307,6.8745157 10.350273,6.775297 10.242785,6.7174198 10.105326,6.6884806 9.9378947,6.6884806 Z m 4.5795651,0 v 5.041552 h 1.891358 V 11.100614 H 14.936039 V 9.209257 h 1.051099 V 8.5798381 H 14.936039 V 7.3178996 h 1.261939 v -0.629419 z m 3.550171,0 c -0.297656,0 -0.516764,0.098185 -0.657324,0.2945557 -0.101289,0.1426269 -0.159166,0.2955894 -0.173633,0.4588867 -0.0062,0.057878 -0.0093,0.2966231 -0.0093,0.7162354 0,0.2563148 0.12299,0.533301 0.36897,0.830957 0.10542,0.1281574 0.214974,0.2521811 0.328662,0.3720703 0.241846,0.2542478 0.403076,0.4557863 0.483692,0.6046143 0.05375,0.099219 0.08061,0.1974036 0.08061,0.2945556 l -0.0031,0.651123 c -0.0041,0.04134 -0.0186,0.07958 -0.04341,0.114721 -0.03514,0.04961 -0.08992,0.07441 -0.164331,0.07441 h -0.21084 c -0.07441,0 -0.129191,-0.02481 -0.164331,-0.07441 -0.02481,-0.03514 -0.03927,-0.07338 -0.04341,-0.114721 l -0.0031,-0.861963 h -0.629419 c 0,0.56017 0.0031,0.869195 0.0093,0.927075 0.01447,0.163297 0.07235,0.31626 0.173633,0.458887 0.14056,0.19637 0.359668,0.294555 0.657324,0.294555 h 0.21084 c 0.297656,0 0.517798,-0.09819 0.660425,-0.294555 0.101288,-0.142627 0.159166,-0.29559 0.173633,-0.458887 0.0041,-0.05788 0.0062,-0.296623 0.0062,-0.716235 0,-0.2811194 -0.142627,-0.601514 -0.427881,-0.9611816 C 18.36012,9.1482789 18.239197,9.0046182 18.11724,8.8681925 17.987016,8.7214317 17.875394,8.5881062 17.782377,8.468217 17.691427,8.3483277 17.645951,8.2449747 17.645951,8.1581584 v -0.629419 c 0.0124,-0.1405597 0.08268,-0.2108398 0.21084,-0.2108398 h 0.21084 c 0.12816,0 0.19844,0.07028 0.21084,0.2108398 V 8.3689982 H 18.90789 V 7.5287394 C 18.89756,7.4129843 18.87999,7.3137654 18.85518,7.2310832 18.7911,7.0264447 18.666044,6.8734822 18.480009,6.7721965 18.372522,6.7163855 18.235062,6.6884805 18.067631,6.6884805 Z m 1.869653,0 v 0.629419 h 0.629419 v 4.412133 h 0.629419 V 7.3178996 h 0.63252 v -0.629419 z m 2.709913,0 v 5.041552 h 0.632519 V 7.3178996 h 0.418579 c 0.04134,0 0.07545,0.00723 0.10232,0.021704 0.02687,0.014469 0.04754,0.032039 0.06201,0.05271 0.01447,0.020671 0.02481,0.041341 0.03101,0.062012 0.0083,0.020671 0.0124,0.038241 0.0124,0.05271 0.0021,0.014469 0.0031,0.2315108 0.0031,0.6511231 0,0.4216793 -0.001,0.6397543 -0.0031,0.6542236 0,0.012402 -0.0041,0.028939 -0.0124,0.049609 -0.0062,0.02067 -0.01654,0.042374 -0.03101,0.065112 -0.01447,0.020671 -0.03514,0.038241 -0.06201,0.05271 -0.02687,0.012403 -0.06098,0.018604 -0.10232,0.018604 h -0.21084 l 0.42168,2.7316157 h 0.629419 L 23.983549,9.4914103 c 0.08475,-0.062012 0.150898,-0.1322918 0.198437,-0.2108398 0.04754,-0.078548 0.08165,-0.1550294 0.10232,-0.2294434 0.02067,-0.074414 0.03307,-0.1364259 0.03721,-0.1860351 0.0041,-0.049609 0.0062,-0.2852544 0.0062,-0.7069336 0,-0.4196121 -0.0031,-0.6573242 -0.0093,-0.7131348 -0.0041,-0.057878 -0.01963,-0.1281577 -0.04651,-0.2108398 -0.0248,-0.084749 -0.06718,-0.1684653 -0.127124,-0.2511475 C 24.086902,6.9003543 24.004222,6.8311076 23.896736,6.775297 23.791316,6.71742 23.654889,6.688481 23.487458,6.688481 Z m 2.709912,0 c 0,2.8008577 0.0021,4.23023 0.0062,4.28811 0.01447,0.163297 0.07338,0.31626 0.176733,0.458887 0.14056,0.19637 0.359669,0.294555 0.657325,0.294555 h 0.210839 c 0.297656,0 0.516765,-0.09819 0.657325,-0.294555 0.101288,-0.142627 0.159166,-0.29559 0.173632,-0.458887 0.0062,-0.05788 0.0093,-1.4872503 0.0093,-4.28811 h -0.629419 l -0.0031,4.222998 c -0.0041,0.04134 -0.0186,0.07958 -0.04341,0.114721 -0.03514,0.04961 -0.08992,0.07441 -0.164331,0.07441 h -0.210839 c -0.07441,0 -0.129192,-0.02481 -0.164332,-0.07441 -0.02481,-0.03514 -0.03927,-0.07338 -0.04341,-0.114721 l -0.0031,-4.222998 z m 3.550171,0 c -0.297656,0 -0.516765,0.098185 -0.657325,0.2945557 -0.101282,0.1426269 -0.159159,0.2955894 -0.173632,0.4588867 -0.0062,0.057878 -0.0093,0.6469901 -0.0093,1.767334 0,1.1203416 0.0021,1.7094536 0.0062,1.7673336 0.0062,0.05788 0.0217,0.128158 0.04651,0.21084 0.02687,0.08268 0.07028,0.165365 0.130224,0.248047 0.05995,0.08268 0.142627,0.15296 0.248047,0.21084 0.10542,0.05581 0.241846,0.08371 0.409278,0.08371 h 0.210839 c 0.297657,0 0.517799,-0.09819 0.660425,-0.294555 0.101289,-0.142627 0.159166,-0.29559 0.173633,-0.458887 l 0.0062,-0.08682 V 10.049506 H 29.11812 v 0.840259 c -0.0124,0.140559 -0.08268,0.210839 -0.21084,0.210839 h -0.21084 c -0.07441,0 -0.129191,-0.02481 -0.164331,-0.07441 -0.02481,-0.03514 -0.03927,-0.07338 -0.04341,-0.114721 V 9.209257 c 0,-1.1410146 0.0041,-1.725993 0.0124,-1.7549316 0.02894,-0.09095 0.09405,-0.1364258 0.195337,-0.1364258 h 0.210839 c 0.12816,0 0.19844,0.07028 0.21084,0.2108398 v 0.8402588 h 0.629419 V 7.5287394 C 29.737205,7.4150514 29.719635,7.3168659 29.694828,7.2341838 29.63075,7.0274782 29.505693,6.8745157 29.319657,6.775297 29.212171,6.7174198 29.074711,6.6884806 28.907279,6.6884806 Z m 1.869653,0 v 0.629419 h 0.629419 v 4.412133 h 0.629419 V 7.3178996 h 0.632519 v -0.629419 z m 6.867798,0 c 0,2.8008577 0.0021,4.23023 0.0062,4.28811 0.01447,0.163297 0.07338,0.31626 0.176733,0.458887 0.14056,0.19637 0.359668,0.294555 0.657325,0.294555 h 1.051098 V 11.100614 H 38.27415 c -0.07441,0 -0.129192,-0.02481 -0.164331,-0.07441 -0.02481,-0.03514 -0.03928,-0.07338 -0.04341,-0.114721 l -0.0031,-4.2229984 z m 2.709912,0 v 5.041553 H 42.03516 V 11.100614 H 40.773222 V 9.209257 H 41.82432 V 8.5798381 H 40.773222 V 7.3178996 H 42.03516 V 6.6884806 Z M 12.226127,7.317899 h 0.42168 c 0.04134,0 0.07545,0.00723 0.102319,0.021704 0.02687,0.012402 0.04754,0.029972 0.06201,0.05271 0.01447,0.020671 0.02481,0.041341 0.03101,0.062012 0.0062,0.020671 0.0093,0.038241 0.0093,0.05271 0.0021,0.012402 0.0031,0.5798108 0.0031,1.7022217 0,1.1203463 -0.001,1.6877553 -0.0031,1.7022223 0,0.01447 -0.0031,0.03204 -0.0093,0.05271 -0.0062,0.02067 -0.01654,0.04134 -0.03101,0.06201 -0.01447,0.02067 -0.03514,0.03824 -0.06201,0.05271 -0.02687,0.0124 -0.06098,0.0186 -0.102319,0.0186 h -0.42168 z m 23.127271,0 h 0.421679 c 0.04134,0 0.07545,0.00723 0.10232,0.021704 0.02687,0.012402 0.04754,0.028939 0.06201,0.049609 0.01447,0.02067 0.02481,0.042374 0.03101,0.065112 0.0062,0.020671 0.01034,0.038241 0.0124,0.05271 0.0021,0.012402 0.0031,0.1591638 0.0031,0.4402832 0,0.2790525 -10e-4,0.4258139 -0.0031,0.4402832 -0.0021,0.014469 -0.0062,0.032039 -0.0124,0.05271 -0.0062,0.020671 -0.01654,0.041341 -0.03101,0.062012 -0.01447,0.020671 -0.03514,0.038241 -0.06201,0.05271 -0.02687,0.014469 -0.06098,0.021704 -0.10232,0.021704 h -0.421679 z m 0,1.8913574 h 0.421679 c 0.07441,0 0.129191,0.023771 0.164331,0.071314 0.02481,0.037207 0.03927,0.075448 0.04341,0.1147217 l 0.0031,0.7565429 c 0,0.491962 -10e-4,0.745177 -0.0031,0.759644 -0.0021,0.0124 -0.0062,0.02997 -0.0124,0.05271 -0.0062,0.02067 -0.01654,0.04134 -0.03101,0.06201 -0.01447,0.02067 -0.03514,0.03824 -0.06201,0.05271 -0.02687,0.0124 -0.06098,0.0186 -0.10232,0.0186 H 35.353399 Z M 10.148735,13.352672 v 5.044654 h 0.629418 v -5.044654 z m 9.577709,0 v 5.044654 h 0.629419 v -5.044654 z m -12.2876216,0.0031 c 0,2.800857 0.00207,4.23023 0.0062,4.28811 0.014469,0.163297 0.073381,0.31626 0.1767334,0.458887 0.1405597,0.19637 0.3596682,0.294556 0.6573242,0.294556 H 9.3301799 V 17.767908 H 8.2790812 c -0.074414,0 -0.1291911,-0.02481 -0.164331,-0.07441 -0.024805,-0.03514 -0.039275,-0.07338 -0.043408,-0.114722 l -0.0031,-4.222998 z m 4.1578856,0 v 5.041553 h 0.629419 V 15.87655 h 1.051099 v -0.629419 h -1.051099 v -1.261938 h 1.261939 v -0.629419 z m 2.709912,0 v 5.041553 h 1.891358 V 17.767908 H 14.936039 V 15.87655 h 1.051099 v -0.629419 h -1.051099 v -1.261938 h 1.261939 v -0.629419 z m 2.709912,0 c 0,2.800857 0.0021,4.23023 0.0062,4.28811 0.01447,0.163297 0.07338,0.31626 0.176733,0.458887 0.14056,0.19637 0.359668,0.294556 0.657324,0.294556 h 1.051099 v -0.629419 h -1.051099 c -0.07441,0 -0.129191,-0.02481 -0.164331,-0.07441 -0.02481,-0.03514 -0.03927,-0.07338 -0.04341,-0.114722 l -0.0031,-4.222998 z m 4.998145,0 c -0.297656,0 -0.516764,0.09818 -0.657324,0.294556 -0.101288,0.142626 -0.159166,0.295589 -0.173633,0.458886 l -0.0093,0.08682 v 4.201294 h 0.63252 v -4.201294 c 0.0124,-0.14056 0.08165,-0.21084 0.207739,-0.21084 h 0.21084 c 0.128159,0 0.19844,0.07028 0.21084,0.21084 v 4.201294 h 0.629419 v -4.201294 c -0.01033,-0.113689 -0.0279,-0.211874 -0.05271,-0.294556 -0.06408,-0.206706 -0.189136,-0.359668 -0.375171,-0.458887 -0.107487,-0.05788 -0.244947,-0.08682 -0.412378,-0.08682 z m 1.869653,0 v 5.041553 h 0.629419 V 15.87655 h 0.42168 c 0.126092,0 0.195339,0.07028 0.207739,0.21084 v 2.309937 h 0.63252 c 0,-1.53996 -0.0031,-2.336812 -0.0093,-2.390552 -0.01654,-0.157097 -0.08372,-0.304891 -0.201538,-0.443384 0.117818,-0.14056 0.184998,-0.289388 0.201538,-0.446484 l 0.0093,-0.08061 v -1.680518 h -0.63252 v 1.680518 l -0.0124,0.07441 c -0.02894,0.09095 -0.09405,0.136425 -0.195337,0.136425 h -0.42168 v -1.891357 z m -13.735595,6.664193 v 5.044653 h 0.629418 v -5.044653 z m 2.288232,0 c -0.297656,0 -0.517798,0.09922 -0.660425,0.297656 -0.101288,0.14056 -0.159166,0.293522 -0.173633,0.458887 -0.0041,0.05788 -0.0062,0.646989 -0.0062,1.767334 0,1.120341 0.0021,1.709454 0.0062,1.767334 0.0062,0.05581 0.0217,0.125057 0.04651,0.207739 0.02687,0.08268 0.06924,0.166398 0.127124,0.251147 0.05995,0.08268 0.142627,0.15296 0.248047,0.21084 0.107487,0.05581 0.244947,0.08372 0.412378,0.08372 h 0.21084 c 0.297656,0 0.516764,-0.09922 0.657324,-0.297656 0.101288,-0.14056 0.159166,-0.293523 0.173633,-0.458887 0.0062,-0.05581 0.0093,-0.64389 0.0093,-1.764233 h -0.840259 v 0.629419 h 0.207739 v 1.072802 c -0.0041,0.04134 -0.0186,0.07958 -0.04341,0.114722 -0.03514,0.04961 -0.08992,0.07441 -0.164331,0.07441 h -0.21084 c -0.07441,0 -0.129191,-0.02481 -0.164331,-0.07441 -0.02481,-0.03514 -0.03927,-0.07338 -0.04341,-0.114722 l -0.0031,-1.702221 c 0,-1.141014 0.0052,-1.725992 0.0155,-1.754932 0.02687,-0.09095 0.09198,-0.136426 0.195337,-0.136426 h 0.21084 c 0.12816,0 0.197406,0.07028 0.207739,0.21084 v 0.840259 h 0.63252 v -0.840259 c -0.01033,-0.115755 -0.02894,-0.214974 -0.05581,-0.297656 -0.06201,-0.204639 -0.187069,-0.357601 -0.375171,-0.458887 -0.10542,-0.05788 -0.241845,-0.08682 -0.409277,-0.08682 z m 1.869653,0 v 5.044653 h 0.629419 v -5.044653 z m -6.8677976,0.0031 V 23.3841 c 0,0.37207 0.2108403,0.932244 0.6325196,1.680518 H 8.7007609 C 9.1203732,24.316344 9.3301799,23.75617 9.3301799,23.3841 V 20.023065 H 8.7007609 V 23.3841 c 0,0.270784 -0.1054202,0.595313 -0.3162598,0.973584 C 8.1757285,23.979415 8.071342,23.654886 8.071342,23.384102 v -3.361035 z m 8.3157716,0 c 0,2.800858 0.0021,4.230231 0.0062,4.288111 0.01447,0.163297 0.07338,0.31626 0.176733,0.458886 0.14056,0.196371 0.359669,0.294556 0.657325,0.294556 h 1.051098 v -0.629419 h -1.051098 c -0.07441,0 -0.129191,-0.02481 -0.164331,-0.07441 -0.02481,-0.03514 -0.03927,-0.07338 -0.04341,-0.114722 l -0.0031,-4.222998 z m 3.550171,0 c -0.297656,0 -0.517798,0.09818 -0.660425,0.294556 -0.101289,0.142627 -0.159166,0.295589 -0.173633,0.458887 l -0.0062,0.08682 v 4.201294 h 0.629419 v -2.102197 h 0.629419 v 2.102197 h 0.632519 v -4.201294 c -0.01033,-0.115755 -0.02894,-0.214974 -0.05581,-0.297656 -0.06201,-0.204639 -0.187069,-0.357601 -0.375171,-0.458887 -0.10542,-0.05581 -0.241846,-0.08372 -0.409277,-0.08372 z m 2.709912,0 c -0.297656,0 -0.516764,0.09818 -0.657324,0.294556 -0.101288,0.142627 -0.159166,0.295589 -0.173633,0.458887 l -0.0093,0.08682 v 4.201294 h 0.63252 v -4.201294 c 0.0124,-0.14056 0.08165,-0.21084 0.207739,-0.21084 h 0.21084 c 0.128159,0 0.19844,0.07028 0.21084,0.21084 v 4.201294 h 0.629419 v -4.201294 c -0.01033,-0.113688 -0.0279,-0.211874 -0.05271,-0.294556 -0.06408,-0.206705 -0.189136,-0.359668 -0.375171,-0.458886 -0.107487,-0.05788 -0.244947,-0.08682 -0.412378,-0.08682 z m 2.709912,0 c -0.297656,0 -0.516764,0.09818 -0.657324,0.294556 -0.101289,0.142627 -0.159166,0.295589 -0.173633,0.458887 -0.0062,0.05788 -0.0093,0.646989 -0.0093,1.767334 0,1.120341 0.0021,1.709454 0.0062,1.767334 0.0062,0.05788 0.0217,0.128157 0.04651,0.210839 0.02687,0.08268 0.07028,0.165365 0.130225,0.248047 0.05994,0.08268 0.142627,0.15296 0.248047,0.21084 0.10542,0.05581 0.241846,0.08372 0.409277,0.08372 h 0.21084 c 0.297656,0 0.517797,-0.09819 0.660425,-0.294556 0.101288,-0.142626 0.159166,-0.295589 0.173632,-0.458886 l 0.0062,-0.08682 v -0.840259 h -0.629419 v 0.840259 c -0.0124,0.14056 -0.08268,0.21084 -0.21084,0.21084 h -0.21084 c -0.07441,0 -0.129191,-0.02481 -0.164331,-0.07441 -0.02481,-0.03514 -0.03927,-0.07338 -0.04341,-0.114722 v -1.702221 c 0,-1.141014 0.0041,-1.725992 0.0124,-1.754932 0.02894,-0.09095 0.09405,-0.136426 0.195337,-0.136426 h 0.21084 c 0.12816,0 0.19844,0.07028 0.21084,0.21084 v 0.840259 h 0.629419 v -0.840259 c -0.01033,-0.113688 -0.0279,-0.211874 -0.05271,-0.294556 -0.06408,-0.206705 -0.189136,-0.359668 -0.375171,-0.458886 -0.107487,-0.05788 -0.244947,-0.08682 -0.412378,-0.08682 z m 1.869653,0 V 25.06462 H 28.4856 V 24.435201 H 27.223661 V 22.543844 H 28.27476 V 21.914425 H 27.223661 V 20.652486 H 28.4856 v -0.629419 z m -7.289477,0.629419 h 0.21084 c 0.126092,0 0.195339,0.07028 0.207739,0.21084 v 1.469678 h -0.629419 v -1.469678 c 0.0124,-0.14056 0.08268,-0.21084 0.21084,-0.21084 z"
       style="font-stretch:condensed;font-size:6.35px;line-height:1.05;font-family:'Matth condensed';-inkscape-font-specification:'Matth condensed, Condensed';letter-spacing:0.198437px;word-spacing:0px;text-orientation:upright;fill:#5b2d07;stroke-width:0.0254;stroke-linecap:round;stroke-linejoin:round;paint-order:fill markers stroke"
       inkscape:label="abilities" />
    <path
       d="m -15.238648,64.037437 h -0.700732 v -3.363099 h 0.700732 q 0.167432,0 0.272852,0.05788 0.105419,0.05788 0.165364,0.140559 0.05995,0.08268 0.08475,0.165365 0.02687,0.08268 0.03101,0.14056 0.0062,0.05581 0.0062,1.178221 0,1.120344 -0.0062,1.178222 -0.0041,0.05581 -0.03101,0.138493 -0.0248,0.08268 -0.08475,0.165364 -0.05994,0.08268 -0.165364,0.14056 -0.10542,0.05788 -0.272852,0.05788 z m 0,-0.421679 q 0.04134,0 0.06821,-0.0124 0.02687,-0.01447 0.04134,-0.03514 0.01447,-0.02067 0.02067,-0.04134 0.0062,-0.02067 0.0062,-0.03514 0.0021,-0.01447 0.0021,-1.134814 0,-1.122411 -0.0021,-1.134813 0,-0.01447 -0.0062,-0.03514 -0.0062,-0.02067 -0.02067,-0.04134 -0.01447,-0.02274 -0.04134,-0.03514 -0.02687,-0.01447 -0.06821,-0.01447 h -0.281119 v 2.519741 z m 1.591633,0.421679 h -0.419613 v -3.363099 h 0.419613 z m 1.872752,0 h -0.419612 v -1.680516 h -0.42168 v 1.680516 h -0.419612 v -3.361032 h 0.419612 v 1.260904 h 0.42168 v -1.260904 h 0.419612 z m 1.8727515,0 h -0.4216795 v -1.401463 h -0.419612 v 1.401463 h -0.419612 v -2.80086 l 0.0041,-0.05788 q 0.01447,-0.163298 0.115755,-0.305925 0.142627,-0.19637 0.440283,-0.19637 h 0.140559 q 0.167432,0 0.272852,0.05581 0.188102,0.101285 0.2501135,0.305924 0.026872,0.08268 0.037207,0.198437 z m -0.4216795,-1.821076 v -0.979784 q -0.0124,-0.14056 -0.138493,-0.14056 h -0.140559 q -0.128158,0 -0.14056,0.14056 v 0.979784 z m 1.7342596,1.821076 h -0.7007318 v -3.363099 h 0.7007318 q 0.1674315,0 0.2728514,0.05788 0.1054198,0.05788 0.1653644,0.140559 0.059945,0.08268 0.084749,0.165365 0.026872,0.08268 0.031006,0.14056 0.0062,0.05581 0.0062,1.178221 0,1.120344 -0.0062,1.178222 -0.00413,0.05581 -0.031006,0.138493 -0.024805,0.08268 -0.084749,0.165364 -0.059945,0.08268 -0.1653644,0.14056 -0.1054199,0.05788 -0.2728514,0.05788 z m 0,-0.421679 q 0.041341,0 0.068213,-0.0124 0.026872,-0.01447 0.041341,-0.03514 0.014469,-0.02067 0.020671,-0.04134 0.0062,-0.02067 0.0062,-0.03514 0.00207,-0.01447 0.00207,-1.134814 0,-1.122411 -0.00207,-1.134813 0,-0.01447 -0.0062,-0.03514 -0.0062,-0.02067 -0.020671,-0.04134 -0.014469,-0.02274 -0.041341,-0.03514 -0.026872,-0.01447 -0.068213,-0.01447 h -0.2811195 v 2.519741 z m 2.4329243,0.421679 h -0.4216793 v -1.401463 h -0.4196123 v 1.401463 H -7.416911 v -2.80086 l 0.00413,-0.05788 q 0.014469,-0.163298 0.1157551,-0.305925 0.1426269,-0.19637 0.4402829,-0.19637 h 0.1405597 q 0.1674315,0 0.2728514,0.05581 0.188102,0.101285 0.2501137,0.305924 0.026872,0.08268 0.037207,0.198437 z m -0.4216793,-1.821076 v -0.979784 q -0.012402,-0.14056 -0.1384928,-0.14056 h -0.1405597 q -0.1281575,0 -0.1405598,0.14056 v 0.979784 z"
       id="text7"
       style="font-stretch:condensed;font-size:4.23333px;line-height:1.05;font-family:'Matth condensed';-inkscape-font-specification:'Matth condensed, Condensed';text-align:end;letter-spacing:0.198437px;word-spacing:0px;text-orientation:upright;text-anchor:end;fill:#5b2d07;stroke-width:0.0254;stroke-linecap:round;stroke-linejoin:round;paint-order:fill markers stroke"
       inkscape:label="dihada"
       transform="rotate(-90)"
       aria-label="DIHADA" />
  </g>
  <g
     inkscape:groupmode="layer"
     id="layer4"
     inkscape:label="ICONS">
    <rect
       style="display:inline;fill:#b58900;stroke:none;stroke-width:2;stroke-linecap:round;stroke-linejoin:round;stroke-dasharray:none;stroke-dashoffset:134.173;paint-order:stroke markers fill"
       id="rect12"
       width="64"
       height="32"
       x="1"
       y="40"
       rx="3"
       ry="3"
       inkscape:label="btm cut" />
    <g
       id="g9"
       transform="translate(-0.91560571,38.732452)"
       inkscape:label="btm engravings"
       style="display:inline">
      <g
         id="g11"
         inkscape:label="contents"
         transform="translate(0,0.2645264)">
        <path
           d="m 12.155981,22.391113 c -0.218076,0.0035 -0.430293,0.04542 -0.628384,0.118856 -0.53025,0.196576 -0.944908,0.595929 -1.337903,0.970483 C 9.7992375,23.078208 9.3824964,22.674165 8.8517913,22.502217 8.2065132,22.293148 7.4435825,22.402042 6.8069548,22.990043 c -0.00403,0.0032 -0.00799,0.0065 -0.011885,0.0098 -0.5301735,0.530175 -0.6432287,1.254651 -0.4981608,1.930115 0.1450677,0.675465 0.5165917,1.339718 0.9704834,1.943034 0.4538916,0.603316 0.9923775,1.142791 1.5001668,1.545125 0.5077893,0.402334 0.9341819,0.692895 1.4102498,0.711068 0.01566,9.84e-4 0.03137,9.84e-4 0.04703,0 0.226507,-0.01963 0.415461,-0.111979 0.634586,-0.236678 0.219124,-0.124699 0.457086,-0.291538 0.706934,-0.49196 0.499698,-0.400844 1.043196,-0.934777 1.505851,-1.533239 0.462654,-0.598462 0.847794,-1.2581 1.004073,-1.931666 0.156278,-0.673565 0.04998,-1.40161 -0.484209,-1.935799 -0.0014,-0.0012 -0.0027,-0.0024 -0.0041,-0.0036 -0.324008,-0.316921 -0.680149,-0.496405 -1.035079,-0.568441 -0.133098,-0.02701 -0.266028,-0.03876 -0.396875,-0.03669 z m 1.189592,2.376599 c -0.117706,0.507312 -0.44636,1.096443 -0.867131,1.640727 -0.420771,0.544284 -0.929458,1.046134 -1.380794,1.408183 -0.225667,0.181024 -0.437563,0.326035 -0.609264,0.423746 -0.155016,0.08822 -0.265284,0.119811 -0.297657,0.127641 l 0.0124,-3.892785 c 2.379772,-2.66743 3.383405,-0.746054 3.142444,0.292488 z"
           style="color:#000000;fill:#002b36;stroke-linecap:round;stroke-linejoin:round;stroke-dashoffset:134.173;-inkscape-stroke:none;paint-order:stroke markers fill"
           id="path1"
           inkscape:label="heart" />
        <path
           id="path2"
           style="color:#000000;fill:#002b36;stroke-width:1.15094;stroke-linecap:round;stroke-linejoin:round;stroke-dashoffset:134.173;-inkscape-stroke:none;paint-order:stroke markers fill"
           d="m 10.18966,13.443203 c -0.07768,0 -0.155585,0.01555 -0.2283913,0.04698 l -2.7424682,1.186559 c -0.2103373,0.09138 -0.3463161,0.299413 -0.3461541,0.528747 0,0.922488 0.088161,2.086938 0.5370742,3.099923 0.4489137,1.012987 1.385606,1.887789 2.7787494,1.887789 1.393142,0 2.331426,-0.874816 2.780532,-1.887789 0.449106,-1.012972 0.539454,-2.177359 0.539454,-3.099923 -2.25e-4,-0.22987 -0.137317,-0.438044 -0.348533,-0.528747 L 10.417454,13.49019 c -0.07281,-0.03143 -0.150115,-0.04698 -0.227794,-0.04698 z m -0.0011,0.857654 2.685964,1.109445 c -0.01415,0.410169 -0.0747,0.831496 -0.170699,1.311254 L 10.188504,15.632539 7.675021,16.720962 C 7.5798076,16.24122 7.5201697,15.81997 7.5060727,15.410302 Z"
           sodipodi:nodetypes="scccssscccsccccccc"
           inkscape:label="shield" />
        <path
           d="M 10.190552,4.8761 C 8.6471431,4.864806 7.1038227,5.8520069 6.1370522,7.875917 8.0705937,11.862986 12.310508,11.891991 14.244049,7.867132 13.277279,5.8971669 11.733959,4.8873938 10.190552,4.8761 Z m 0,1.0650513 c 1.058315,0 1.935798,0.8754149 1.935798,1.9337322 0,1.0583173 -0.877483,1.9357982 -1.935798,1.9357982 -1.058318,0 -1.9357996,-0.8774809 -1.9357996,-1.9357982 0,-1.0583173 0.8774816,-1.9337322 1.9357996,-1.9337322 z m 0,0.8743653 C 9.605025,6.8155953 9.130461,7.2903903 9.130668,7.875917 9.130747,8.4612419 9.605227,8.935722 10.190552,8.9358007 10.775875,8.935722 11.250356,8.461242 11.250434,7.875917 11.25064,7.2903902 10.776077,6.8155953 10.190552,6.8155166 Z"
           style="color:#000000;fill:#002b36;stroke-linecap:round;stroke-linejoin:round;stroke-dashoffset:134.173;-inkscape-stroke:none;paint-order:stroke markers fill"
           id="path3"
           inkscape:label="eye" />
        <path
           d="m 16.293936,28.275709 v -4.995336 h 0.67028 v 4.35328 h 1.255889 v 0.642056 z m 2.896306,0 v -4.995336 h 0.670278 v 4.995336 z m 2.480022,-4.360336 v 1.234723 h 1.305279 v 0.635 h -1.305279 v 2.490613 h -0.670278 v -4.995336 h 2.08139 v 0.635 z m 2.388301,4.360336 v -4.995336 h 2.14489 v 0.635 h -1.474612 v 1.234723 h 1.38289 v 0.642056 h -1.38289 v 1.848557 h 1.516946 v 0.635 z m 3.192645,0 v -4.995336 h 0.670278 v 4.35328 h 1.25589 v 0.642056 z m 2.896306,0 v -4.995336 h 0.670278 v 4.995336 z m 3.192633,-5.03767 q 0.395112,0 0.656167,0.141111 0.268112,0.134056 0.430391,0.338667 0.162277,0.204612 0.225777,0.451556 0.07056,0.246945 0.07056,0.465667 v 3.647725 H 34.052762 V 24.63504 q 0,-0.119944 -0.04233,-0.246944 -0.04233,-0.134056 -0.134055,-0.246945 -0.08467,-0.112889 -0.218723,-0.183445 -0.134055,-0.07761 -0.3175,-0.08467 -0.183444,0.0071 -0.3175,0.08467 -0.134056,0.07056 -0.225778,0.183445 -0.08467,0.105833 -0.134055,0.239889 -0.04233,0.134056 -0.04233,0.254 v 3.647725 H 31.950204 V 24.63504 q 0,-0.218722 0.07761,-0.465667 0.07761,-0.246944 0.23989,-0.451556 0.169334,-0.204611 0.430389,-0.338667 0.268112,-0.141111 0.642056,-0.141111 z m 3.199694,1.658057 1.368778,-1.615723 h 0.853723 l -1.982612,2.328334 2.08139,2.667002 h -0.832555 l -1.488723,-1.919112 v 1.919112 h -0.670279 v -4.995336 h 0.670279 z"
           id="path5"
           style="-inkscape-font-specification:'GOLDLEAF BOLD PERSONAL USE, Normal';fill:#002b36;stroke-width:0.2;stroke-linecap:square;stroke-dashoffset:134.173;paint-order:stroke markers fill"
           aria-label="LIFELINK" />
        <path
           d="m 16.293936,19.31587 v -4.995336 h 0.670278 V 19.31587 Z M 19.48657,14.2782 q 0.395112,0 0.656167,0.141112 0.268112,0.134055 0.430389,0.338666 0.162279,0.204612 0.225778,0.451556 0.07056,0.246945 0.07056,0.465667 v 3.647725 h -0.670278 v -3.647725 q 0,-0.119944 -0.04233,-0.246944 -0.04233,-0.134056 -0.134055,-0.246945 -0.08467,-0.112889 -0.218723,-0.183445 -0.134055,-0.07761 -0.3175,-0.08467 -0.183444,0.0071 -0.3175,0.08467 -0.134056,0.07056 -0.225777,0.183445 -0.08467,0.105833 -0.134056,0.239889 -0.04233,0.134056 -0.04233,0.254 v 3.647725 h -0.670279 v -3.647725 q 0,-0.218722 0.07761,-0.465667 0.07761,-0.246944 0.239889,-0.451556 0.169334,-0.204611 0.43039,-0.338666 Q 19.112626,14.2782 19.48657,14.2782 Z m 5.161138,2.540002 q 0,0.635 -0.148167,1.107723 -0.141111,0.472722 -0.395111,0.783167 -0.246945,0.303389 -0.585612,0.458612 -0.331611,0.148166 -0.712611,0.148166 h -0.790223 v -4.995336 h 0.797278 q 0.381,0 0.712612,0.155222 0.338667,0.148167 0.585611,0.458611 0.246945,0.310445 0.388056,0.783168 0.148167,0.465667 0.148167,1.100667 z m -1.961445,-1.862668 v 3.725336 h 0.09878 q 0.254,0 0.472722,-0.112889 0.218723,-0.112889 0.381001,-0.338667 0.162278,-0.232833 0.254,-0.578556 0.09172,-0.352778 0.09172,-0.832556 v -0.02117 q -0.0071,-0.458611 -0.105833,-0.804334 -0.09172,-0.345722 -0.254,-0.5715 -0.162278,-0.232833 -0.381001,-0.345722 -0.211667,-0.119945 -0.458612,-0.119945 z m 3.051535,4.360336 v -4.995336 h 2.14489 v 0.635 h -1.474612 v 1.234723 h 1.38289 v 0.642056 h -1.38289 v 1.848557 h 1.516946 v 0.635 z m 5.859647,-1.382889 q 0,0.430389 -0.112889,0.719667 -0.112889,0.282222 -0.303389,0.451555 -0.183444,0.169334 -0.423334,0.23989 -0.239889,0.07055 -0.493889,0.07055 h -0.02117 q -0.416278,0 -0.762001,-0.225778 -0.345722,-0.225778 -0.613834,-0.649111 l 0.550334,-0.373945 q 0.183445,0.310445 0.402167,0.465667 0.225778,0.148167 0.416278,0.148167 0.127,0 0.246945,-0.03528 0.127,-0.04233 0.225778,-0.134056 0.09878,-0.09878 0.155222,-0.261055 0.0635,-0.169334 0.0635,-0.416278 0,-0.381001 -0.239889,-0.663223 -0.239889,-0.282223 -0.663223,-0.522112 -0.211667,-0.119944 -0.395111,-0.239889 -0.183445,-0.127 -0.324556,-0.275166 -0.134056,-0.155223 -0.211667,-0.352778 -0.07761,-0.197556 -0.07761,-0.472723 0,-0.289278 0.09172,-0.508 0.09172,-0.225778 0.246945,-0.373945 0.155222,-0.148167 0.352778,-0.225778 0.204611,-0.07761 0.423334,-0.07761 0.239889,0 0.416278,0.05644 0.183444,0.05645 0.3175,0.155223 0.141111,0.09878 0.239889,0.239889 0.105833,0.134055 0.1905,0.296333 l -0.451556,0.437445 q -0.112889,-0.176389 -0.204611,-0.282222 -0.09172,-0.105834 -0.176389,-0.162278 -0.07761,-0.0635 -0.155222,-0.08467 -0.07761,-0.02117 -0.162278,-0.02117 -0.197556,0 -0.338667,0.148167 -0.134056,0.148167 -0.127,0.409223 0,0.225777 0.141111,0.359833 0.141111,0.134056 0.324556,0.261056 l 0.0635,0.04233 q 0.02822,0.01411 0.04233,0.02822 0.02117,0.01411 0.03528,0.02822 0.01411,0.01411 0.03528,0.02822 0.02117,0.0071 0.03528,0.02117 0.254,0.162277 0.479778,0.338666 0.225778,0.176389 0.395111,0.381001 0.169333,0.204611 0.268111,0.458611 0.09878,0.254 0.09878,0.571501 z m 2.480031,-2.977447 v 4.360336 h -0.670279 v -4.360336 h -0.924278 v -0.635 h 2.518835 v 0.635 z m 2.614088,1.876779 v 2.483557 h -0.670278 v -4.995336 h 0.980723 q 0.225777,0 0.472721,0.05644 0.246945,0.04939 0.451556,0.1905 0.211667,0.141112 0.345722,0.388056 0.134056,0.239889 0.134056,0.620889 0,0.522112 -0.211667,0.797279 -0.211666,0.275167 -0.529167,0.381 l 0.959557,2.561172 H 37.90512 l -0.917223,-2.483557 z m 0.430389,-0.642056 q 0.127,0 0.232834,-0.02822 0.112889,-0.02822 0.197555,-0.09878 0.08467,-0.07761 0.134056,-0.197556 0.04939,-0.119944 0.04939,-0.303389 v -0.01411 q 0,-0.183444 -0.07056,-0.296333 -0.07055,-0.119945 -0.176389,-0.183445 -0.105833,-0.0635 -0.239889,-0.08467 -0.134055,-0.02822 -0.268111,-0.02822 h -0.289278 v 1.234723 z m 3.975812,3.203224 q -0.373944,0 -0.642056,-0.134055 -0.261055,-0.134056 -0.430389,-0.338667 -0.162278,-0.204611 -0.239889,-0.4445 -0.07761,-0.246945 -0.07761,-0.465667 v -3.647725 h 0.670278 v 3.647725 q 0,0.119944 0.04233,0.254 0.04233,0.134055 0.127,0.246944 0.09172,0.105834 0.225778,0.176389 0.141111,0.07056 0.324555,0.07056 0.1905,0 0.324556,-0.07056 0.134056,-0.07055 0.218722,-0.176389 0.08467,-0.112889 0.127001,-0.246944 0.04233,-0.134056 0.04233,-0.254 v -3.647725 h 0.670278 v 3.647725 q 0,0.218722 -0.07055,0.465667 -0.0635,0.239889 -0.225778,0.4445 -0.162278,0.204611 -0.43039,0.338667 -0.261055,0.134055 -0.656166,0.134055 z m 5.605638,-1.008945 q -0.148167,0.289278 -0.324556,0.486834 -0.169333,0.1905 -0.352778,0.3175 -0.183445,0.119945 -0.366889,0.169334 -0.183445,0.05644 -0.352778,0.05644 -0.423334,0 -0.74789,-0.197556 -0.324554,-0.197555 -0.543278,-0.543278 -0.218722,-0.352778 -0.331611,-0.8255 -0.112889,-0.479778 -0.112889,-1.030112 0,-0.557389 0.112889,-1.030112 0.112889,-0.479778 0.331611,-0.8255 0.218723,-0.345723 0.536223,-0.543278 0.324556,-0.197556 0.747889,-0.197556 h 0.0071 q 0.324556,0 0.68439,0.211667 0.366889,0.204611 0.656167,0.719667 l -0.564445,0.331611 q -0.1905,-0.338667 -0.395111,-0.479778 -0.204611,-0.148167 -0.381,-0.148167 -0.268111,0 -0.472723,0.155223 -0.197555,0.148166 -0.331611,0.416278 -0.134056,0.261055 -0.197556,0.620889 -0.0635,0.359834 -0.0635,0.769056 v 0.02822 q 0,0.395112 0.07056,0.74789 0.07056,0.345722 0.204611,0.613833 0.134056,0.261056 0.331611,0.416278 0.197556,0.155223 0.458612,0.155223 0.197555,0 0.416278,-0.176389 0.225778,-0.176389 0.423333,-0.543278 z m 2.494141,-3.429002 v 4.360336 h -0.670277 v -4.360336 h -0.924279 v -0.635 h 2.518835 v 0.635 z m 1.936755,4.360336 v -4.995336 h 0.670278 v 4.995336 z m 4.272132,-1.453445 q 0,0.437445 -0.134056,0.719667 -0.127,0.282222 -0.331611,0.4445 -0.197556,0.162278 -0.437445,0.225778 -0.239889,0.0635 -0.451555,0.0635 h -1.107723 v -4.995336 h 0.980722 q 0.225778,0 0.458612,0.04939 0.239889,0.04939 0.430389,0.183444 0.1905,0.134056 0.310445,0.373945 0.127001,0.239889 0.127001,0.620889 0,0.381 -0.119946,0.606778 -0.112889,0.225778 -0.296332,0.359834 0.225778,0.204611 0.395111,0.550334 0.176389,0.345722 0.176389,0.797278 z m -0.670278,0.02117 q 0,-0.246945 -0.0635,-0.437445 -0.0635,-0.197556 -0.169334,-0.331611 -0.09878,-0.141112 -0.218722,-0.211667 -0.119944,-0.07761 -0.232833,-0.07761 h -0.437445 v 1.855612 h 0.388056 q 0.331612,0 0.529167,-0.183445 0.204611,-0.1905 0.204611,-0.613833 z m -0.148167,-2.32128 q 0,-0.1905 -0.05644,-0.310444 -0.05644,-0.119945 -0.155223,-0.183445 -0.09172,-0.07056 -0.218722,-0.09172 -0.119945,-0.02117 -0.254,-0.02117 h -0.289278 v 1.234723 h 0.310444 q 0.119945,0 0.23989,-0.02822 0.119944,-0.02822 0.211666,-0.09878 0.09878,-0.07056 0.155223,-0.1905 0.05644,-0.127 0.05644,-0.310445 z m 1.922642,3.753558 v -4.995336 h 0.670279 v 4.35328 h 1.255889 v 0.642056 z m 2.896307,0 v -4.995336 h 2.14489 v 0.635 h -1.474612 v 1.234723 h 1.382891 v 0.642056 h -1.382891 v 1.848557 h 1.516946 v 0.635 z"
           id="path6"
           style="-inkscape-font-specification:'GOLDLEAF BOLD PERSONAL USE, Normal';fill:#002b36;stroke-width:0.2;stroke-linecap:square;stroke-dashoffset:134.173;paint-order:stroke markers fill"
           aria-label="INDESTRUCTIBLE" />
        <path
           d="M 18.057826,10.373672 H 17.465159 L 16.293936,5.378335 h 0.670278 l 0.811389,3.5136689 0.81139,-3.5136689 h 0.670278 z m 2.247196,0 V 5.378335 H 20.9753 v 4.995337 z m 2.409467,-2.5047243 q 0,0.4374447 0.0635,0.7972783 0.0635,0.3598336 0.1905,0.6208893 0.127,0.2540001 0.310445,0.3951113 0.183444,0.1340557 0.430389,0.1340557 0.296334,0 0.508,-0.1552223 V 7.8901144 h -0.712611 v -0.642056 h 1.368778 v 2.6811128 q -0.211666,0.2187228 -0.508,0.3739448 -0.296333,0.148167 -0.635,0.148167 h -0.02117 q -0.395111,0 -0.705556,-0.176389 Q 22.700377,10.091449 22.48871,9.7598378 22.277044,9.4282265 22.164154,8.9484484 22.058321,8.4686703 22.058321,7.8689477 q 0,-0.5573893 0.09878,-1.0301118 0.105833,-0.4727225 0.303389,-0.818445 0.204611,-0.3457224 0.493889,-0.5432781 0.296334,-0.1975557 0.684389,-0.1975557 h 0.01411 q 0.148166,0 0.310444,0.049389 0.162278,0.049389 0.324556,0.1622778 0.162278,0.1058334 0.310445,0.289278 0.148166,0.176389 0.275166,0.4303892 L 24.337267,6.5566135 Q 24.153822,6.2108911 23.977433,6.0627243 23.801044,5.9145575 23.652878,5.9145575 q -0.239889,0 -0.416277,0.1552224 -0.17639,0.1481667 -0.296335,0.416278 -0.112889,0.2610557 -0.169333,0.6208893 -0.05645,0.352778 -0.05645,0.7620005 z m 3.291412,2.5047243 V 5.378335 h 0.670278 v 4.995337 z m 1.816799,0 V 5.378335 h 0.670278 v 4.3532806 h 1.25589 v 0.6420564 z m 4.272141,-5.0376704 q 0.395111,0 0.656166,0.1411112 0.268112,0.1340557 0.43039,0.3386669 0.162278,0.2046112 0.225778,0.4515558 0.07056,0.2469447 0.07056,0.465667 V 10.380727 H 32.807453 V 7.8830588 h -1.43228 V 10.380727 H 30.704895 V 6.7330025 q 0,-0.2187223 0.07761,-0.465667 0.07761,-0.2469446 0.239889,-0.4515558 0.169334,-0.2046112 0.43039,-0.3386669 0.268111,-0.1411112 0.642057,-0.1411112 z m -0.719668,1.9050012 h 1.43228 V 6.7330025 q 0,-0.1199445 -0.04233,-0.2469446 -0.04233,-0.1340556 -0.134056,-0.2469446 -0.08467,-0.112889 -0.218722,-0.1834446 -0.134056,-0.077611 -0.317501,-0.084667 -0.183444,0.00706 -0.317499,0.084667 -0.134057,0.070556 -0.225778,0.1834446 -0.08467,0.1058334 -0.134056,0.239889 -0.04233,0.1340557 -0.04233,0.2540002 z m 4.624925,-1.9050012 q 0.395111,0 0.656166,0.1411112 0.268111,0.1340557 0.430389,0.3386669 0.162278,0.2046112 0.225778,0.4515558 0.07055,0.2469447 0.07055,0.465667 V 10.380727 H 36.712709 V 6.7330025 q 0,-0.1199445 -0.04233,-0.2469446 -0.04233,-0.1340556 -0.134056,-0.2469446 -0.08467,-0.112889 -0.218722,-0.1834446 -0.134056,-0.077611 -0.3175,-0.084667 -0.183445,0.00706 -0.317501,0.084667 -0.134055,0.070556 -0.225778,0.1834446 -0.08467,0.1058334 -0.134056,0.239889 -0.04233,0.1340557 -0.04233,0.2540002 V 10.380727 H 34.610151 V 6.7330025 q 0,-0.2187223 0.07761,-0.465667 0.07761,-0.2469446 0.239891,-0.4515558 0.169333,-0.2046112 0.430389,-0.3386669 0.26811,-0.1411112 0.642055,-0.1411112 z m 5.605635,4.106336 q -0.148167,0.289278 -0.324556,0.4868336 -0.169333,0.1904998 -0.352778,0.3174998 -0.183444,0.119945 -0.366889,0.169334 -0.183444,0.05644 -0.352778,0.05644 -0.423333,0 -0.747889,-0.197555 Q 39.136288,10.077338 38.917566,9.7316156 38.698843,9.3788376 38.585954,8.906115 38.473065,8.4263369 38.473065,7.8760033 q 0,-0.5573893 0.112889,-1.0301118 0.112889,-0.4797781 0.331612,-0.8255006 0.218722,-0.3457224 0.536222,-0.5432781 0.324556,-0.1975557 0.74789,-0.1975557 h 0.0071 q 0.324556,0 0.68439,0.2116668 0.366889,0.2046113 0.656167,0.7196672 L 40.98489,6.5425024 q -0.1905,-0.3386669 -0.395112,-0.4797781 -0.204611,-0.1481668 -0.381,-0.1481668 -0.268111,0 -0.472722,0.1552224 -0.197556,0.1481667 -0.331612,0.416278 -0.134055,0.2610557 -0.197555,0.6208893 -0.0635,0.3598336 -0.0635,0.7690561 v 0.028222 q 0,0.3951114 0.07056,0.7478894 0.07056,0.3457224 0.204611,0.6138337 0.134056,0.2610557 0.331612,0.416278 0.197555,0.1552224 0.458611,0.1552224 0.197556,0 0.416278,-0.176389 0.225778,-0.176389 0.423334,-0.5432782 z m 1.090089,0.9313344 V 5.378335 h 2.144891 v 0.6350004 h -1.474612 v 1.234723 h 1.38289 v 0.642056 h -1.38289 v 1.8485567 h 1.516946 v 0.6350009 z"
           id="path7"
           style="-inkscape-font-specification:'GOLDLEAF BOLD PERSONAL USE,  weight=275 Condensed';fill:#002b36;stroke-width:0.2;stroke-linecap:square;stroke-dashoffset:134.173;paint-order:stroke markers fill"
           aria-label="VIGILANCE" />
      </g>
      <path
         id="path9"
         style="color:#000000;fill:#002b36;stroke-linecap:round;stroke-linejoin:round;stroke-dashoffset:134.173;-inkscape-stroke:none;paint-order:stroke markers fill"
         d="m 3.9997559,40.749967 c -1.2594705,0 -2.2499919,0.990522 -2.2499919,2.249992 v 25.999964 c 0,1.25947 0.9905214,2.249992 2.2499919,2.249992 H 61.999833 c 1.259471,0 2.249992,-0.990522 2.249992,-2.249992 V 42.999959 c 0,-1.25947 -0.990521,-2.249992 -2.249992,-2.249992 z m 0,0.500228 H 61.999833 c 0.997316,0 1.750281,0.752448 1.750281,1.749764 v 25.999964 c 0,0.997316 -0.752965,1.75028 -1.750281,1.75028 H 3.9997559 c -0.9973153,0 -1.749764,-0.752964 -1.749764,-1.75028 V 42.999959 c 0,-0.997316 0.7524487,-1.749764 1.749764,-1.749764 z"
         sodipodi:nodetypes="ssssssssssssssssss"
         transform="translate(0.91560571,-38.732451)"
         inkscape:label="border" />
    </g>
    <rect
       style="display:inline;fill:#b58900;stroke:none;stroke-width:3.53861;stroke-linecap:round;stroke-linejoin:round;stroke-dasharray:none;stroke-dashoffset:134.173;paint-order:stroke markers fill"
       id="rect9"
       width="64"
       height="32"
       x="1"
       y="1"
       rx="3"
       ry="3"
       inkscape:label="top cut" />
    <g
       id="g20"
       transform="translate(-0.91560571,-0.26749)"
       inkscape:label="top engravings"
       style="display:inline">
      <g
         id="g10"
         transform="translate(0,0.2645264)"
         inkscape:label="contents">
        <path
           d="m 12.155981,22.391113 c -0.218076,0.0035 -0.430293,0.04542 -0.628384,0.118856 -0.53025,0.196576 -0.944908,0.595929 -1.337903,0.970483 C 9.7992375,23.078208 9.3824964,22.674165 8.8517913,22.502217 8.2065132,22.293148 7.4435825,22.402042 6.8069548,22.990043 c -0.00403,0.0032 -0.00799,0.0065 -0.011885,0.0098 -0.5301735,0.530175 -0.6432287,1.254651 -0.4981608,1.930115 0.1450677,0.675465 0.5165917,1.339718 0.9704834,1.943034 0.4538916,0.603316 0.9923775,1.142791 1.5001668,1.545125 0.5077893,0.402334 0.9341819,0.692895 1.4102498,0.711068 0.01566,9.84e-4 0.03137,9.84e-4 0.04703,0 0.226507,-0.01963 0.415461,-0.111979 0.634586,-0.236678 0.219124,-0.124699 0.457086,-0.291538 0.706934,-0.49196 0.499698,-0.400844 1.043196,-0.934777 1.505851,-1.533239 0.462654,-0.598462 0.847794,-1.2581 1.004073,-1.931666 0.156278,-0.673565 0.04998,-1.40161 -0.484209,-1.935799 -0.0014,-0.0012 -0.0027,-0.0024 -0.0041,-0.0036 -0.324008,-0.316921 -0.680149,-0.496405 -1.035079,-0.568441 -0.133098,-0.02701 -0.266028,-0.03876 -0.396875,-0.03669 z m 1.189592,2.376599 c -0.117706,0.507312 -0.44636,1.096443 -0.867131,1.640727 -0.420771,0.544284 -0.929458,1.046134 -1.380794,1.408183 -0.225667,0.181024 -0.437563,0.326035 -0.609264,0.423746 -0.155016,0.08822 -0.265284,0.119811 -0.297657,0.127641 l 0.0124,-3.892785 c 2.379772,-2.66743 3.383405,-0.746054 3.142444,0.292488 z"
           style="color:#000000;fill:#002b36;stroke-linecap:round;stroke-linejoin:round;stroke-dashoffset:134.173;-inkscape-stroke:none;paint-order:stroke markers fill"
           id="path10"
           inkscape:label="heart" />
        <path
           id="path15"
           style="color:#000000;fill:#002b36;stroke-width:1.15094;stroke-linecap:round;stroke-linejoin:round;stroke-dashoffset:134.173;-inkscape-stroke:none;paint-order:stroke markers fill"
           d="m 10.18966,13.443203 c -0.07768,0 -0.155585,0.01555 -0.2283913,0.04698 l -2.7424682,1.186559 c -0.2103373,0.09138 -0.3463161,0.299413 -0.3461541,0.528747 0,0.922488 0.088161,2.086938 0.5370742,3.099923 0.4489137,1.012987 1.385606,1.887789 2.7787494,1.887789 1.393142,0 2.331426,-0.874816 2.780532,-1.887789 0.449106,-1.012972 0.539454,-2.177359 0.539454,-3.099923 -2.25e-4,-0.22987 -0.137317,-0.438044 -0.348533,-0.528747 L 10.417454,13.49019 c -0.07281,-0.03143 -0.150115,-0.04698 -0.227794,-0.04698 z m -0.0011,0.857654 2.685964,1.109445 c -0.01415,0.410169 -0.0747,0.831496 -0.170699,1.311254 L 10.188504,15.632539 7.675021,16.720962 C 7.5798076,16.24122 7.5201697,15.81997 7.5060727,15.410302 Z"
           sodipodi:nodetypes="scccssscccsccccccc"
           inkscape:label="shield" />
        <path
           d="M 10.190552,4.8761 C 8.6471431,4.864806 7.1038227,5.8520069 6.1370522,7.875917 8.0705937,11.862986 12.310508,11.891991 14.244049,7.867132 13.277279,5.8971669 11.733959,4.8873938 10.190552,4.8761 Z m 0,1.0650513 c 1.058315,0 1.935798,0.8754149 1.935798,1.9337322 0,1.0583173 -0.877483,1.9357982 -1.935798,1.9357982 -1.058318,0 -1.9357996,-0.8774809 -1.9357996,-1.9357982 0,-1.0583173 0.8774816,-1.9337322 1.9357996,-1.9337322 z m 0,0.8743653 C 9.605025,6.8155953 9.130461,7.2903903 9.130668,7.875917 9.130747,8.4612419 9.605227,8.935722 10.190552,8.9358007 10.775875,8.935722 11.250356,8.461242 11.250434,7.875917 11.25064,7.2903902 10.776077,6.8155953 10.190552,6.8155166 Z"
           style="color:#000000;fill:#002b36;stroke-linecap:round;stroke-linejoin:round;stroke-dashoffset:134.173;-inkscape-stroke:none;paint-order:stroke markers fill"
           id="path18"
           inkscape:label="eye" />
        <path
           d="m 16.293936,28.275709 v -4.995336 h 0.67028 v 4.35328 h 1.255889 v 0.642056 z m 2.896306,0 v -4.995336 h 0.670278 v 4.995336 z m 2.480022,-4.360336 v 1.234723 h 1.305279 v 0.635 h -1.305279 v 2.490613 h -0.670278 v -4.995336 h 2.08139 v 0.635 z m 2.388301,4.360336 v -4.995336 h 2.14489 v 0.635 h -1.474612 v 1.234723 h 1.38289 v 0.642056 h -1.38289 v 1.848557 h 1.516946 v 0.635 z m 3.192645,0 v -4.995336 h 0.670278 v 4.35328 h 1.25589 v 0.642056 z m 2.896306,0 v -4.995336 h 0.670278 v 4.995336 z m 3.192633,-5.03767 q 0.395112,0 0.656167,0.141111 0.268112,0.134056 0.430391,0.338667 0.162277,0.204612 0.225777,0.451556 0.07056,0.246945 0.07056,0.465667 v 3.647725 H 34.052762 V 24.63504 q 0,-0.119944 -0.04233,-0.246944 -0.04233,-0.134056 -0.134055,-0.246945 -0.08467,-0.112889 -0.218723,-0.183445 -0.134055,-0.07761 -0.3175,-0.08467 -0.183444,0.0071 -0.3175,0.08467 -0.134056,0.07056 -0.225778,0.183445 -0.08467,0.105833 -0.134055,0.239889 -0.04233,0.134056 -0.04233,0.254 v 3.647725 H 31.950204 V 24.63504 q 0,-0.218722 0.07761,-0.465667 0.07761,-0.246944 0.23989,-0.451556 0.169334,-0.204611 0.430389,-0.338667 0.268112,-0.141111 0.642056,-0.141111 z m 3.199694,1.658057 1.368778,-1.615723 h 0.853723 l -1.982612,2.328334 2.08139,2.667002 h -0.832555 l -1.488723,-1.919112 v 1.919112 h -0.670279 v -4.995336 h 0.670279 z"
           id="text8"
           style="-inkscape-font-specification:'GOLDLEAF BOLD PERSONAL USE, Normal';fill:#002b36;stroke-width:0.2;stroke-linecap:square;stroke-dashoffset:134.173;paint-order:stroke markers fill"
           aria-label="LIFELINK" />
        <path
           d="m 16.293936,19.31587 v -4.995336 h 0.670278 V 19.31587 Z M 19.48657,14.2782 q 0.395112,0 0.656167,0.141112 0.268112,0.134055 0.430389,0.338666 0.162279,0.204612 0.225778,0.451556 0.07056,0.246945 0.07056,0.465667 v 3.647725 h -0.670278 v -3.647725 q 0,-0.119944 -0.04233,-0.246944 -0.04233,-0.134056 -0.134055,-0.246945 -0.08467,-0.112889 -0.218723,-0.183445 -0.134055,-0.07761 -0.3175,-0.08467 -0.183444,0.0071 -0.3175,0.08467 -0.134056,0.07056 -0.225777,0.183445 -0.08467,0.105833 -0.134056,0.239889 -0.04233,0.134056 -0.04233,0.254 v 3.647725 h -0.670279 v -3.647725 q 0,-0.218722 0.07761,-0.465667 0.07761,-0.246944 0.239889,-0.451556 0.169334,-0.204611 0.43039,-0.338666 Q 19.112626,14.2782 19.48657,14.2782 Z m 5.161138,2.540002 q 0,0.635 -0.148167,1.107723 -0.141111,0.472722 -0.395111,0.783167 -0.246945,0.303389 -0.585612,0.458612 -0.331611,0.148166 -0.712611,0.148166 h -0.790223 v -4.995336 h 0.797278 q 0.381,0 0.712612,0.155222 0.338667,0.148167 0.585611,0.458611 0.246945,0.310445 0.388056,0.783168 0.148167,0.465667 0.148167,1.100667 z m -1.961445,-1.862668 v 3.725336 h 0.09878 q 0.254,0 0.472722,-0.112889 0.218723,-0.112889 0.381001,-0.338667 0.162278,-0.232833 0.254,-0.578556 0.09172,-0.352778 0.09172,-0.832556 v -0.02117 q -0.0071,-0.458611 -0.105833,-0.804334 -0.09172,-0.345722 -0.254,-0.5715 -0.162278,-0.232833 -0.381001,-0.345722 -0.211667,-0.119945 -0.458612,-0.119945 z m 3.051535,4.360336 v -4.995336 h 2.14489 v 0.635 h -1.474612 v 1.234723 h 1.38289 v 0.642056 h -1.38289 v 1.848557 h 1.516946 v 0.635 z m 5.859647,-1.382889 q 0,0.430389 -0.112889,0.719667 -0.112889,0.282222 -0.303389,0.451555 -0.183444,0.169334 -0.423334,0.23989 -0.239889,0.07055 -0.493889,0.07055 h -0.02117 q -0.416278,0 -0.762001,-0.225778 -0.345722,-0.225778 -0.613834,-0.649111 l 0.550334,-0.373945 q 0.183445,0.310445 0.402167,0.465667 0.225778,0.148167 0.416278,0.148167 0.127,0 0.246945,-0.03528 0.127,-0.04233 0.225778,-0.134056 0.09878,-0.09878 0.155222,-0.261055 0.0635,-0.169334 0.0635,-0.416278 0,-0.381001 -0.239889,-0.663223 -0.239889,-0.282223 -0.663223,-0.522112 -0.211667,-0.119944 -0.395111,-0.239889 -0.183445,-0.127 -0.324556,-0.275166 -0.134056,-0.155223 -0.211667,-0.352778 -0.07761,-0.197556 -0.07761,-0.472723 0,-0.289278 0.09172,-0.508 0.09172,-0.225778 0.246945,-0.373945 0.155222,-0.148167 0.352778,-0.225778 0.204611,-0.07761 0.423334,-0.07761 0.239889,0 0.416278,0.05644 0.183444,0.05645 0.3175,0.155223 0.141111,0.09878 0.239889,0.239889 0.105833,0.134055 0.1905,0.296333 l -0.451556,0.437445 q -0.112889,-0.176389 -0.204611,-0.282222 -0.09172,-0.105834 -0.176389,-0.162278 -0.07761,-0.0635 -0.155222,-0.08467 -0.07761,-0.02117 -0.162278,-0.02117 -0.197556,0 -0.338667,0.148167 -0.134056,0.148167 -0.127,0.409223 0,0.225777 0.141111,0.359833 0.141111,0.134056 0.324556,0.261056 l 0.0635,0.04233 q 0.02822,0.01411 0.04233,0.02822 0.02117,0.01411 0.03528,0.02822 0.01411,0.01411 0.03528,0.02822 0.02117,0.0071 0.03528,0.02117 0.254,0.162277 0.479778,0.338666 0.225778,0.176389 0.395111,0.381001 0.169333,0.204611 0.268111,0.458611 0.09878,0.254 0.09878,0.571501 z m 2.480031,-2.977447 v 4.360336 h -0.670279 v -4.360336 h -0.924278 v -0.635 h 2.518835 v 0.635 z m 2.614088,1.876779 v 2.483557 h -0.670278 v -4.995336 h 0.980723 q 0.225777,0 0.472721,0.05644 0.246945,0.04939 0.451556,0.1905 0.211667,0.141112 0.345722,0.388056 0.134056,0.239889 0.134056,0.620889 0,0.522112 -0.211667,0.797279 -0.211666,0.275167 -0.529167,0.381 l 0.959557,2.561172 H 37.90512 l -0.917223,-2.483557 z m 0.430389,-0.642056 q 0.127,0 0.232834,-0.02822 0.112889,-0.02822 0.197555,-0.09878 0.08467,-0.07761 0.134056,-0.197556 0.04939,-0.119944 0.04939,-0.303389 v -0.01411 q 0,-0.183444 -0.07056,-0.296333 -0.07055,-0.119945 -0.176389,-0.183445 -0.105833,-0.0635 -0.239889,-0.08467 -0.134055,-0.02822 -0.268111,-0.02822 h -0.289278 v 1.234723 z m 3.975812,3.203224 q -0.373944,0 -0.642056,-0.134055 -0.261055,-0.134056 -0.430389,-0.338667 -0.162278,-0.204611 -0.239889,-0.4445 -0.07761,-0.246945 -0.07761,-0.465667 v -3.647725 h 0.670278 v 3.647725 q 0,0.119944 0.04233,0.254 0.04233,0.134055 0.127,0.246944 0.09172,0.105834 0.225778,0.176389 0.141111,0.07056 0.324555,0.07056 0.1905,0 0.324556,-0.07056 0.134056,-0.07055 0.218722,-0.176389 0.08467,-0.112889 0.127001,-0.246944 0.04233,-0.134056 0.04233,-0.254 v -3.647725 h 0.670278 v 3.647725 q 0,0.218722 -0.07055,0.465667 -0.0635,0.239889 -0.225778,0.4445 -0.162278,0.204611 -0.43039,0.338667 -0.261055,0.134055 -0.656166,0.134055 z m 5.605638,-1.008945 q -0.148167,0.289278 -0.324556,0.486834 -0.169333,0.1905 -0.352778,0.3175 -0.183445,0.119945 -0.366889,0.169334 -0.183445,0.05644 -0.352778,0.05644 -0.423334,0 -0.74789,-0.197556 -0.324554,-0.197555 -0.543278,-0.543278 -0.218722,-0.352778 -0.331611,-0.8255 -0.112889,-0.479778 -0.112889,-1.030112 0,-0.557389 0.112889,-1.030112 0.112889,-0.479778 0.331611,-0.8255 0.218723,-0.345723 0.536223,-0.543278 0.324556,-0.197556 0.747889,-0.197556 h 0.0071 q 0.324556,0 0.68439,0.211667 0.366889,0.204611 0.656167,0.719667 l -0.564445,0.331611 q -0.1905,-0.338667 -0.395111,-0.479778 -0.204611,-0.148167 -0.381,-0.148167 -0.268111,0 -0.472723,0.155223 -0.197555,0.148166 -0.331611,0.416278 -0.134056,0.261055 -0.197556,0.620889 -0.0635,0.359834 -0.0635,0.769056 v 0.02822 q 0,0.395112 0.07056,0.74789 0.07056,0.345722 0.204611,0.613833 0.134056,0.261056 0.331611,0.416278 0.197556,0.155223 0.458612,0.155223 0.197555,0 0.416278,-0.176389 0.225778,-0.176389 0.423333,-0.543278 z m 2.494141,-3.429002 v 4.360336 h -0.670277 v -4.360336 h -0.924279 v -0.635 h 2.518835 v 0.635 z m 1.936755,4.360336 v -4.995336 h 0.670278 v 4.995336 z m 4.272132,-1.453445 q 0,0.437445 -0.134056,0.719667 -0.127,0.282222 -0.331611,0.4445 -0.197556,0.162278 -0.437445,0.225778 -0.239889,0.0635 -0.451555,0.0635 h -1.107723 v -4.995336 h 0.980722 q 0.225778,0 0.458612,0.04939 0.239889,0.04939 0.430389,0.183444 0.1905,0.134056 0.310445,0.373945 0.127001,0.239889 0.127001,0.620889 0,0.381 -0.119946,0.606778 -0.112889,0.225778 -0.296332,0.359834 0.225778,0.204611 0.395111,0.550334 0.176389,0.345722 0.176389,0.797278 z m -0.670278,0.02117 q 0,-0.246945 -0.0635,-0.437445 -0.0635,-0.197556 -0.169334,-0.331611 -0.09878,-0.141112 -0.218722,-0.211667 -0.119944,-0.07761 -0.232833,-0.07761 h -0.437445 v 1.855612 h 0.388056 q 0.331612,0 0.529167,-0.183445 0.204611,-0.1905 0.204611,-0.613833 z m -0.148167,-2.32128 q 0,-0.1905 -0.05644,-0.310444 -0.05644,-0.119945 -0.155223,-0.183445 -0.09172,-0.07056 -0.218722,-0.09172 -0.119945,-0.02117 -0.254,-0.02117 h -0.289278 v 1.234723 h 0.310444 q 0.119945,0 0.23989,-0.02822 0.119944,-0.02822 0.211666,-0.09878 0.09878,-0.07056 0.155223,-0.1905 0.05644,-0.127 0.05644,-0.310445 z m 1.922642,3.753558 v -4.995336 h 0.670279 v 4.35328 h 1.255889 v 0.642056 z m 2.896307,0 v -4.995336 h 2.14489 v 0.635 h -1.474612 v 1.234723 h 1.382891 v 0.642056 h -1.382891 v 1.848557 h 1.516946 v 0.635 z"
           id="text6"
           style="-inkscape-font-specification:'GOLDLEAF BOLD PERSONAL USE, Normal';fill:#002b36;stroke-width:0.2;stroke-linecap:square;stroke-dashoffset:134.173;paint-order:stroke markers fill"
           aria-label="INDESTRUCTIBLE" />
        <path
           d="M 18.057826,10.373672 H 17.465159 L 16.293936,5.378335 h 0.670278 l 0.811389,3.5136689 0.81139,-3.5136689 h 0.670278 z m 2.247196,0 V 5.378335 H 20.9753 v 4.995337 z m 2.409467,-2.5047243 q 0,0.4374447 0.0635,0.7972783 0.0635,0.3598336 0.1905,0.6208893 0.127,0.2540001 0.310445,0.3951113 0.183444,0.1340557 0.430389,0.1340557 0.296334,0 0.508,-0.1552223 V 7.8901144 h -0.712611 v -0.642056 h 1.368778 v 2.6811128 q -0.211666,0.2187228 -0.508,0.3739448 -0.296333,0.148167 -0.635,0.148167 h -0.02117 q -0.395111,0 -0.705556,-0.176389 Q 22.700377,10.091449 22.48871,9.7598378 22.277044,9.4282265 22.164154,8.9484484 22.058321,8.4686703 22.058321,7.8689477 q 0,-0.5573893 0.09878,-1.0301118 0.105833,-0.4727225 0.303389,-0.818445 0.204611,-0.3457224 0.493889,-0.5432781 0.296334,-0.1975557 0.684389,-0.1975557 h 0.01411 q 0.148166,0 0.310444,0.049389 0.162278,0.049389 0.324556,0.1622778 0.162278,0.1058334 0.310445,0.289278 0.148166,0.176389 0.275166,0.4303892 L 24.337267,6.5566135 Q 24.153822,6.2108911 23.977433,6.0627243 23.801044,5.9145575 23.652878,5.9145575 q -0.239889,0 -0.416277,0.1552224 -0.17639,0.1481667 -0.296335,0.416278 -0.112889,0.2610557 -0.169333,0.6208893 -0.05645,0.352778 -0.05645,0.7620005 z m 3.291412,2.5047243 V 5.378335 h 0.670278 v 4.995337 z m 1.816799,0 V 5.378335 h 0.670278 v 4.3532806 h 1.25589 v 0.6420564 z m 4.272141,-5.0376704 q 0.395111,0 0.656166,0.1411112 0.268112,0.1340557 0.43039,0.3386669 0.162278,0.2046112 0.225778,0.4515558 0.07056,0.2469447 0.07056,0.465667 V 10.380727 H 32.807453 V 7.8830588 h -1.43228 V 10.380727 H 30.704895 V 6.7330025 q 0,-0.2187223 0.07761,-0.465667 0.07761,-0.2469446 0.239889,-0.4515558 0.169334,-0.2046112 0.43039,-0.3386669 0.268111,-0.1411112 0.642057,-0.1411112 z m -0.719668,1.9050012 h 1.43228 V 6.7330025 q 0,-0.1199445 -0.04233,-0.2469446 -0.04233,-0.1340556 -0.134056,-0.2469446 -0.08467,-0.112889 -0.218722,-0.1834446 -0.134056,-0.077611 -0.317501,-0.084667 -0.183444,0.00706 -0.317499,0.084667 -0.134057,0.070556 -0.225778,0.1834446 -0.08467,0.1058334 -0.134056,0.239889 -0.04233,0.1340557 -0.04233,0.2540002 z m 4.624925,-1.9050012 q 0.395111,0 0.656166,0.1411112 0.268111,0.1340557 0.430389,0.3386669 0.162278,0.2046112 0.225778,0.4515558 0.07055,0.2469447 0.07055,0.465667 V 10.380727 H 36.712709 V 6.7330025 q 0,-0.1199445 -0.04233,-0.2469446 -0.04233,-0.1340556 -0.134056,-0.2469446 -0.08467,-0.112889 -0.218722,-0.1834446 -0.134056,-0.077611 -0.3175,-0.084667 -0.183445,0.00706 -0.317501,0.084667 -0.134055,0.070556 -0.225778,0.1834446 -0.08467,0.1058334 -0.134056,0.239889 -0.04233,0.1340557 -0.04233,0.2540002 V 10.380727 H 34.610151 V 6.7330025 q 0,-0.2187223 0.07761,-0.465667 0.07761,-0.2469446 0.239891,-0.4515558 0.169333,-0.2046112 0.430389,-0.3386669 0.26811,-0.1411112 0.642055,-0.1411112 z m 5.605635,4.106336 q -0.148167,0.289278 -0.324556,0.4868336 -0.169333,0.1904998 -0.352778,0.3174998 -0.183444,0.119945 -0.366889,0.169334 -0.183444,0.05644 -0.352778,0.05644 -0.423333,0 -0.747889,-0.197555 Q 39.136288,10.077338 38.917566,9.7316156 38.698843,9.3788376 38.585954,8.906115 38.473065,8.4263369 38.473065,7.8760033 q 0,-0.5573893 0.112889,-1.0301118 0.112889,-0.4797781 0.331612,-0.8255006 0.218722,-0.3457224 0.536222,-0.5432781 0.324556,-0.1975557 0.74789,-0.1975557 h 0.0071 q 0.324556,0 0.68439,0.2116668 0.366889,0.2046113 0.656167,0.7196672 L 40.98489,6.5425024 q -0.1905,-0.3386669 -0.395112,-0.4797781 -0.204611,-0.1481668 -0.381,-0.1481668 -0.268111,0 -0.472722,0.1552224 -0.197556,0.1481667 -0.331612,0.416278 -0.134055,0.2610557 -0.197555,0.6208893 -0.0635,0.3598336 -0.0635,0.7690561 v 0.028222 q 0,0.3951114 0.07056,0.7478894 0.07056,0.3457224 0.204611,0.6138337 0.134056,0.2610557 0.331612,0.416278 0.197555,0.1552224 0.458611,0.1552224 0.197556,0 0.416278,-0.176389 0.225778,-0.176389 0.423334,-0.5432782 z m 1.090089,0.9313344 V 5.378335 h 2.144891 v 0.6350004 h -1.474612 v 1.234723 h 1.38289 v 0.642056 h -1.38289 v 1.8485567 h 1.516946 v 0.6350009 z"
           id="text5"
           style="-inkscape-font-specification:'GOLDLEAF BOLD PERSONAL USE,  weight=275 Condensed';fill:#002b36;stroke-width:0.2;stroke-linecap:square;stroke-dashoffset:134.173;paint-order:stroke markers fill"
           aria-label="VIGILANCE" />
      </g>
      <path
         id="path16"
         style="color:#000000;fill:#002b36;stroke-linecap:round;stroke-linejoin:round;stroke-dashoffset:134.173;-inkscape-stroke:none;paint-order:stroke markers fill"
         d="m 3.9997559,40.749967 c -1.2594705,0 -2.2499919,0.990522 -2.2499919,2.249992 v 25.999964 c 0,1.25947 0.9905214,2.249992 2.2499919,2.249992 H 61.999833 c 1.259471,0 2.249992,-0.990522 2.249992,-2.249992 V 42.999959 c 0,-1.25947 -0.990521,-2.249992 -2.249992,-2.249992 z m 0,0.500228 H 61.999833 c 0.997316,0 1.750281,0.752448 1.750281,1.749764 v 25.999964 c 0,0.997316 -0.752965,1.75028 -1.750281,1.75028 H 3.9997559 c -0.9973153,0 -1.749764,-0.752964 -1.749764,-1.75028 V 42.999959 c 0,-0.997316 0.7524487,-1.749764 1.749764,-1.749764 z"
         sodipodi:nodetypes="ssssssssssssssssss"
         transform="translate(0.91560571,-38.732451)"
         inkscape:label="border" />
    </g>
  </g>
</svg>
