<?xml version="1.0" encoding="UTF-8" standalone="no"?>
<!-- Created with Inkscape (http://www.inkscape.org/) -->

<svg
   width="92mm"
   height="66mm"
   viewBox="0 0 92 66"
   version="1.1"
   id="svg1"
   xml:space="preserve"
   inkscape:version="1.3.1 (91b66b0783, 2023-11-16)"
   sodipodi:docname="egg-food-token.svg"
   xmlns:inkscape="http://www.inkscape.org/namespaces/inkscape"
   xmlns:sodipodi="http://sodipodi.sourceforge.net/DTD/sodipodi-0.dtd"
   xmlns="http://www.w3.org/2000/svg"
   xmlns:svg="http://www.w3.org/2000/svg"><sodipodi:namedview
     id="namedview1"
     pagecolor="#ffffff"
     bordercolor="#000000"
     borderopacity="0.25"
     inkscape:showpageshadow="2"
     inkscape:pageopacity="0.0"
     inkscape:pagecheckerboard="0"
     inkscape:deskcolor="#d1d1d1"
     inkscape:document-units="mm"
     inkscape:zoom="0.70710678"
     inkscape:cx="181.72644"
     inkscape:cy="366.98842"
     inkscape:current-layer="layer1" /><defs
     id="defs1" /><g
     inkscape:label="Layer 1"
     inkscape:groupmode="layer"
     id="layer1"><path
       id="rect3"
       style="font-variation-settings:'wdth' 99.8, 'wght' 700;fill:#4f1319;stroke:none;stroke-width:3;stroke-dasharray:none;stroke-dashoffset:134.173;paint-order:stroke markers fill"
       d="M 2.9998169,0 C 1.3378203,0 0,1.3378203 0,2.9998169 V 62.999772 c 0,1.661996 1.3378203,3.000334 2.9998169,3.000334 H 42.999959 c 1.661998,0 2.999817,-1.338338 2.999817,-3.000334 0,1.661996 1.337821,3.000334 2.999817,3.000334 h 40.000143 c 1.661997,0 2.999816,-1.338338 2.999816,-3.000334 V 2.9998169 C 91.999552,1.3378203 90.661733,0 88.999736,0 H 48.999593 C 47.337597,0 45.999776,1.3378203 45.999776,2.9998169 45.999776,1.3378203 44.661957,0 42.999959,0 Z"
       inkscape:label="outer cut" /><path
       style="font-variation-settings:'wdth' 99.8, 'wght' 700;fill:none;stroke:#f2b6bc;stroke-width:1;stroke-dasharray:none;stroke-dashoffset:134.173;paint-order:stroke markers fill"
       d="M 45.999775,2.999817 V 62.99977"
       id="path8"
       inkscape:label="split cut" /><path
       style="-inkscape-font-specification:'Rayhound, Normal';fill:#d6a206;stroke-width:1.5;stroke-linecap:round;stroke-linejoin:round;stroke-dashoffset:134.173;paint-order:markers fill stroke"
       d="m 54.430959,54.360612 c 0,-0.846664 -0.423332,-1.269996 -1.269996,-1.269996 h -1.375829 v 6.34998 c 0,0.846664 0.423332,1.269996 1.269996,1.269996 h 1.375829 z m 1.756827,0.105833 c 0.846664,0 1.269996,-0.423332 1.269996,-1.269996 v -0.105833 h -4.783651 l 1.206496,1.375829 z m -0.603248,3.11149 c 0.846664,0 1.269996,-0.423332 1.269996,-1.269996 v -0.105833 h -4.783651 l 1.206496,1.375829 z m 3.714758,-0.677331 c 0,2.391826 1.598079,3.989904 3.989904,3.989904 2.381243,0 3.979321,-1.598078 3.979321,-3.989904 0,-2.391826 -1.598078,-3.989904 -3.979321,-3.989904 -2.391825,0 -3.989904,1.598078 -3.989904,3.989904 z m 2.783408,0 c 0,-1.513412 0.486832,-2.529409 1.206496,-2.529409 0.709081,0 1.195913,1.015997 1.195913,2.529409 0,1.513412 -0.486832,2.550575 -1.195913,2.550575 -0.719664,0 -1.206496,-1.037163 -1.206496,-2.550575 z m 7.408311,0 c 0,2.391826 1.598078,3.989904 3.989904,3.989904 2.381242,0 3.979321,-1.598078 3.979321,-3.989904 0,-2.391826 -1.598079,-3.989904 -3.979321,-3.989904 -2.391826,0 -3.989904,1.598078 -3.989904,3.989904 z m 2.783408,0 c 0,-1.513412 0.486831,-2.529409 1.206496,-2.529409 0.709081,0 1.195913,1.015997 1.195913,2.529409 0,1.513412 -0.486832,2.550575 -1.195913,2.550575 -0.719665,0 -1.206496,-1.037163 -1.206496,-2.550575 z m 8.773559,3.809988 c 0.687914,0 -0.359833,0 1.92616,0 2.275409,0 3.799405,-1.523995 3.799405,-3.809988 0,-2.285993 -1.523996,-3.809988 -3.799405,-3.809988 -2.285993,0 -1.672161,0 -2.899824,0 l 1.259413,1.18533 c 0.624414,0 0.04233,0 0.77258,0 1.407579,0 2.010827,1.174746 2.010827,2.624658 0,1.449912 -0.603248,2.645825 -2.010827,2.645825 -0.730247,0 -0.328082,0 -1.100663,0 0,0.0635 -0.02117,1.164163 0.04233,1.164163 z m 1.280579,-6.34998 c 0,-0.846664 -0.423332,-1.269996 -1.269996,-1.269996 h -1.375829 v 6.34998 c 0,0.846664 0.423332,1.269996 1.269996,1.269996 h 1.375829 z"
       id="text6"
       aria-label="FOOD"
       inkscape:label="text" /><path
       id="path1"
       style="color:#000000;fill:#d6a206;stroke-linecap:round;stroke-linejoin:round;stroke-dashoffset:134.173;-inkscape-stroke:none;paint-order:markers fill stroke"
       inkscape:label="egg"
       d="m 68.281104,5.1092489 c -3.500895,0.1253966 -6.657462,2.1318432 -9.173084,5.1573081 0.02798,0.180633 0.05388,0.360447 0.07958,0.539502 0.07561,0.526756 0.194029,1.033411 0.29869,1.420068 2.340582,-3.2144888 5.280758,-5.3191563 8.423775,-5.5991413 -0.2537,1.0167124 -0.899981,2.1101775 -1.844849,3.2545815 -1.010003,1.2232958 -2.338668,2.4863368 -3.754809,3.7682458 0.100376,0.03618 0.2016,0.0738 0.306958,0.120922 0.257542,0.115183 0.549453,0.270512 0.835607,0.581877 0.04606,0.05012 0.09007,0.107741 0.132809,0.167949 1.336741,-1.216249 2.607594,-2.439111 3.635437,-3.684013 1.038462,-1.2577638 1.851029,-2.5557938 2.166276,-3.9175905 1.134003,0.8036418 1.834617,1.6115277 2.206584,2.3962357 0.470131,0.9917938 0.475354,1.9811998 0.115238,3.1016198 -0.720232,2.240838 -3.051539,4.858391 -5.837887,7.474479 -2.786347,2.616089 -5.99569,5.256589 -8.416023,7.816577 -1.170778,1.238336 -2.157732,2.457052 -2.825151,3.68453 -0.117384,-0.955604 -0.180346,-1.956029 -0.180351,-3.002918 6e-6,-1.249677 0.09207,-2.506247 0.26045,-3.751192 0.179767,-0.711257 0.549492,-1.451337 1.054199,-2.210718 -0.107771,-0.07887 -0.201135,-0.161695 -0.272335,-0.240812 -0.25576,-0.284198 -0.368828,-0.533233 -0.465088,-0.76171 -0.192528,-0.456954 -0.291862,-0.877908 -0.402042,-1.299146 -0.07727,-0.295412 -0.170501,-0.570037 -0.261483,-0.821138 -0.509247,1.632851 -0.896613,3.329134 -1.132748,5.053955 -0.03203,0.141126 -0.06108,0.282678 -0.08371,0.425297 7.34e-4,0.04337 0.0052,0.0866 0.01343,0.129191 -0.136541,1.15353 -0.210833,2.316034 -0.210839,3.476273 1.2e-5,2.353396 0.299102,4.514232 0.84646,6.466789 0.02021,0.178238 0.04928,0.356154 0.09302,0.533301 0.03064,0.102339 0.08279,0.19695 0.152962,0.277502 0.787694,2.414416 1.972002,4.482513 3.47214,6.150013 0.968092,1.076096 2.067651,1.979786 3.2644,2.709395 0.04106,0.03066 0.07612,0.06325 0.118339,0.09353 0.03101,0.01422 0.06295,0.0263 0.0956,0.03617 1.407044,0.824697 2.945786,1.407893 4.571297,1.730643 1.011929,0.187511 2.034073,0.292272 3.063379,0.299207 4.318244,-1.09e-4 8.272284,-1.710615 11.113533,-4.868953 2.841248,-3.158338 4.56455,-7.741145 4.564579,-13.427605 C 84.305419,22.703037 82.602239,16.95073 79.815283,12.563057 77.682142,9.2047272 74.877343,6.6179752 71.675212,5.5862223 70.573925,5.2019831 69.432743,5.1275978 68.281104,5.1092489 Z m 4.332552,2.9610595 c 2.006234,1.5139248 3.380656,2.9725706 4.246252,4.3563226 1.14629,1.83247 1.43216,3.519356 1.160136,5.191415 -0.544047,3.344117 -3.528622,6.702899 -7.07037,9.845394 -3.541747,3.142496 -7.568104,6.051155 -10.048482,8.826334 -1.24019,1.387589 -2.134779,2.759346 -2.267562,4.236434 -0.0086,0.09595 -0.0031,0.191167 -0.0041,0.286804 -1.472453,-1.636726 -2.630867,-3.720288 -3.351733,-6.217191 -0.0583,-0.711728 0.145028,-1.495188 0.611332,-2.382284 0.562851,-1.070764 1.499285,-2.250448 2.658236,-3.476273 2.317903,-2.45165 5.512825,-5.088286 8.349878,-7.751982 2.837052,-2.663693 5.348104,-5.328438 6.241996,-8.109582 0.446946,-1.390572 0.453181,-2.847228 -0.189653,-4.2033608 -0.09679,-0.204196 -0.211671,-0.4039 -0.335896,-0.6020308 z M 56.850793,9.0583622 c -1.111092,2.59e-4 -0.578447,3.6062208 -1.749764,4.8746368 -0.961476,1.04118 -3.874984,0.765323 -3.875215,1.750281 2.31e-4,0.984923 2.873111,0.747626 3.875215,1.749764 1.002179,1.002213 1.01733,3.875044 1.749764,3.875216 0.732482,3.34e-4 0.740171,-2.842929 1.729094,-3.838525 1.006896,-1.01369 3.895655,-0.801497 3.895886,-1.786455 -2.31e-4,-0.984923 -2.913174,-0.709146 -3.874699,-1.750281 -1.171416,-1.268404 -0.638475,-4.8751438 -1.750281,-4.8746368 z m 22.644096,6.1179718 c 2.154701,3.683979 2.574092,6.982376 1.995744,9.976652 -0.725078,3.753931 -3.078593,7.082636 -5.816182,9.906373 -2.737588,2.823736 -5.830062,5.122574 -7.964889,6.880716 -1.067415,0.879072 -1.893565,1.588526 -2.377116,2.326473 -0.09691,0.147891 -0.179952,0.309513 -0.245463,0.479558 -1.224058,-0.316027 -2.379048,-0.804053 -3.448885,-1.447457 -1.249074,-0.934935 -1.591166,-1.740237 -1.510502,-2.637565 0.08363,-0.930267 0.750447,-2.095771 1.892391,-3.373438 2.283891,-2.555336 6.308335,-5.490899 9.926009,-8.700761 3.617673,-3.209863 6.90105,-6.711476 7.554578,-10.728544 0.142556,-0.876251 0.14032,-1.774392 -0.0057,-2.682007 z m 3.238562,11.256678 c 0.04679,0.6523 0.07183,1.305388 0.07183,1.956469 -2.7e-5,5.384649 -1.618458,9.576573 -4.17959,12.423531 -2.56113,2.846959 -6.072817,4.373278 -9.998356,4.373377 -0.682769,1.5e-5 -1.35172,-0.04932 -2.006596,-0.14056 0.285626,-0.410332 1.032755,-1.116736 2.041736,-1.947685 2.079467,-1.712549 5.241119,-4.057545 8.087878,-6.993888 2.617893,-2.700274 4.989898,-5.919353 5.983098,-9.671244 z" /><path
       style="-inkscape-font-specification:'Rayhound, Normal';fill:#d6a206;stroke-width:1.5;stroke-linecap:round;stroke-linejoin:round;stroke-dashoffset:134.173;paint-order:markers fill stroke"
       d="m 8.4311828,54.360612 c 0,-0.846664 -0.423332,-1.269996 -1.269996,-1.269996 h -1.375829 v 6.34998 c 0,0.846664 0.423332,1.269996 1.269996,1.269996 h 1.375829 z m 1.7568272,0.105833 c 0.846664,0 1.269996,-0.423332 1.269996,-1.269996 V 53.090616 H 6.6743548 l 1.206496,1.375829 z m -0.6032482,3.11149 c 0.8466642,0 1.2699962,-0.423332 1.2699962,-1.269996 V 56.202106 H 6.0711068 l 1.206496,1.375829 z M 13.29952,56.900604 c 0,2.391826 1.598079,3.989904 3.989904,3.989904 2.381243,0 3.979321,-1.598078 3.979321,-3.989904 0,-2.391826 -1.598078,-3.989904 -3.979321,-3.989904 -2.391825,0 -3.989904,1.598078 -3.989904,3.989904 z m 2.783408,0 c 0,-1.513412 0.486832,-2.529409 1.206496,-2.529409 0.709081,0 1.195913,1.015997 1.195913,2.529409 0,1.513412 -0.486832,2.550575 -1.195913,2.550575 -0.719664,0 -1.206496,-1.037163 -1.206496,-2.550575 z m 7.408311,0 c 0,2.391826 1.598078,3.989904 3.989904,3.989904 2.381242,0 3.979321,-1.598078 3.979321,-3.989904 0,-2.391826 -1.598079,-3.989904 -3.979321,-3.989904 -2.391826,0 -3.989904,1.598078 -3.989904,3.989904 z m 2.783408,0 c 0,-1.513412 0.486831,-2.529409 1.206496,-2.529409 0.709081,0 1.195913,1.015997 1.195913,2.529409 0,1.513412 -0.486832,2.550575 -1.195913,2.550575 -0.719665,0 -1.206496,-1.037163 -1.206496,-2.550575 z m 8.773559,3.809988 c 0.687914,0 -0.359833,0 1.92616,0 2.275409,0 3.799405,-1.523995 3.799405,-3.809988 0,-2.285993 -1.523996,-3.809988 -3.799405,-3.809988 -2.285993,0 -1.672161,0 -2.899824,0 l 1.259413,1.18533 c 0.624414,0 0.04233,0 0.77258,0 1.407579,0 2.010827,1.174746 2.010827,2.624658 0,1.449912 -0.603248,2.645825 -2.010827,2.645825 -0.730247,0 -0.328082,0 -1.100663,0 0,0.0635 -0.02117,1.164163 0.04233,1.164163 z m 1.280579,-6.34998 c 0,-0.846664 -0.423332,-1.269996 -1.269996,-1.269996 H 33.68296 v 6.34998 c 0,0.846664 0.423332,1.269996 1.269996,1.269996 h 1.375829 z"
       id="path5"
       aria-label="FOOD"
       inkscape:label="text" /><path
       id="path6"
       style="color:#000000;fill:#d6a206;stroke-linecap:round;stroke-linejoin:round;stroke-dashoffset:134.173;-inkscape-stroke:none;paint-order:markers fill stroke"
       inkscape:label="egg"
       d="m 22.281328,5.1092489 c -3.500895,0.1253966 -6.657463,2.1318432 -9.173084,5.1573081 0.02798,0.180633 0.05388,0.360447 0.07958,0.539502 0.07561,0.526756 0.194029,1.033411 0.298689,1.420068 2.340583,-3.2144888 5.280759,-5.3191563 8.423776,-5.5991413 -0.2537,1.0167124 -0.899981,2.1101775 -1.844849,3.2545815 -1.010003,1.2232958 -2.338668,2.4863368 -3.754809,3.7682458 0.100376,0.03618 0.2016,0.0738 0.306958,0.120922 0.257542,0.115183 0.549453,0.270512 0.835607,0.581877 0.04606,0.05012 0.09007,0.107741 0.132809,0.167949 1.336741,-1.216249 2.607594,-2.439111 3.635437,-3.684013 1.038462,-1.2577638 1.851029,-2.5557938 2.166276,-3.9175905 1.134003,0.8036418 1.834617,1.6115277 2.206584,2.3962357 0.470131,0.9917938 0.475354,1.9811998 0.115238,3.1016198 -0.720232,2.240838 -3.051539,4.858391 -5.837887,7.474479 -2.786347,2.616089 -5.99569,5.256589 -8.416023,7.816577 -1.170778,1.238336 -2.1577322,2.457052 -2.8251512,3.68453 -0.117384,-0.955604 -0.180346,-1.956029 -0.180351,-3.002918 6e-6,-1.249677 0.09207,-2.506247 0.26045,-3.751192 0.179767,-0.711257 0.549492,-1.451337 1.054199,-2.210718 -0.107771,-0.07887 -0.201135,-0.161695 -0.272335,-0.240812 -0.25576,-0.284198 -0.368828,-0.533233 -0.465088,-0.76171 -0.192528,-0.456954 -0.291862,-0.877908 -0.402042,-1.299146 -0.07727,-0.295412 -0.170501,-0.570037 -0.261483,-0.821138 -0.509247,1.632851 -0.896613,3.329134 -1.132748,5.053955 -0.03203,0.141126 -0.06108,0.282678 -0.08371,0.425297 7.34e-4,0.04337 0.0052,0.0866 0.01343,0.129191 -0.136541,1.15353 -0.210833,2.316034 -0.210839,3.476273 1.2e-5,2.353396 0.299102,4.514232 0.84646,6.466789 0.02021,0.178238 0.04928,0.356154 0.09302,0.533301 0.03064,0.102339 0.08279,0.19695 0.152962,0.277502 0.787694,2.414416 1.9720022,4.482513 3.4721402,6.150013 0.968092,1.076096 2.067651,1.979786 3.2644,2.709395 0.04106,0.03066 0.07612,0.06325 0.118339,0.09353 0.03101,0.01422 0.06295,0.0263 0.0956,0.03617 1.407044,0.824697 2.945786,1.407893 4.571297,1.730643 1.011929,0.187511 2.034073,0.292272 3.063379,0.299207 4.318244,-1.09e-4 8.272284,-1.710615 11.113533,-4.868953 2.841248,-3.158338 4.56455,-7.741145 4.564579,-13.427605 C 38.305643,22.703037 36.602463,16.95073 33.815507,12.563057 31.682366,9.2047272 28.877567,6.6179752 25.675436,5.5862223 24.574149,5.2019831 23.432967,5.1275978 22.281328,5.1092489 Z m 4.332552,2.9610595 c 2.006234,1.5139248 3.380656,2.9725706 4.246252,4.3563226 1.14629,1.83247 1.43216,3.519356 1.160136,5.191415 -0.544047,3.344117 -3.528622,6.702899 -7.07037,9.845394 -3.541747,3.142496 -7.568104,6.051155 -10.048482,8.826334 -1.24019,1.387589 -2.134779,2.759346 -2.267562,4.236434 -0.0086,0.09595 -0.0031,0.191167 -0.0041,0.286804 -1.472453,-1.636726 -2.6308672,-3.720288 -3.3517332,-6.217191 -0.0583,-0.711728 0.145028,-1.495188 0.611332,-2.382284 0.5628512,-1.070764 1.4992852,-2.250448 2.6582362,-3.476273 2.317903,-2.45165 5.512825,-5.088286 8.349878,-7.751982 2.837052,-2.663693 5.348104,-5.328438 6.241996,-8.109582 0.446946,-1.390572 0.453181,-2.847228 -0.189653,-4.2033608 -0.09679,-0.204196 -0.211671,-0.4039 -0.335896,-0.6020308 z M 10.851017,9.0583622 c -1.1110922,2.59e-4 -0.578447,3.6062208 -1.7497642,4.8746368 -0.961476,1.04118 -3.874984,0.765323 -3.875215,1.750281 2.31e-4,0.984923 2.873111,0.747626 3.875215,1.749764 1.0021792,1.002213 1.0173302,3.875044 1.7497642,3.875216 0.732482,3.34e-4 0.740171,-2.842929 1.729094,-3.838525 1.006896,-1.01369 3.895655,-0.801497 3.895886,-1.786455 -2.31e-4,-0.984923 -2.913174,-0.709146 -3.874699,-1.750281 -1.171416,-1.268404 -0.638475,-4.8751438 -1.750281,-4.8746368 z m 22.644096,6.1179718 c 2.154701,3.683979 2.574092,6.982376 1.995744,9.976652 -0.725078,3.753931 -3.078593,7.082636 -5.816182,9.906373 -2.737588,2.823736 -5.830062,5.122574 -7.964889,6.880716 -1.067415,0.879072 -1.893565,1.588526 -2.377116,2.326473 -0.09691,0.147891 -0.179952,0.309513 -0.245463,0.479558 -1.224058,-0.316027 -2.379048,-0.804053 -3.448885,-1.447457 -1.249074,-0.934935 -1.591166,-1.740237 -1.510502,-2.637565 0.08363,-0.930267 0.750447,-2.095771 1.892391,-3.373438 2.283891,-2.555336 6.308335,-5.490899 9.926009,-8.700761 3.617673,-3.209863 6.90105,-6.711476 7.554578,-10.728544 0.142556,-0.876251 0.14032,-1.774392 -0.0057,-2.682007 z m 3.238562,11.256678 c 0.04679,0.6523 0.07183,1.305388 0.07183,1.956469 -2.7e-5,5.384649 -1.618458,9.576573 -4.17959,12.423531 -2.56113,2.846959 -6.072817,4.373278 -9.998356,4.373377 -0.682769,1.5e-5 -1.35172,-0.04932 -2.006596,-0.14056 0.285626,-0.410332 1.032755,-1.116736 2.041736,-1.947685 2.079467,-1.712549 5.241119,-4.057545 8.087878,-6.993888 2.617893,-2.700274 4.989898,-5.919353 5.983098,-9.671244 z" /></g></svg>
