<?xml version="1.0" encoding="UTF-8" standalone="no"?>
<!-- Created with Inkscape (http://www.inkscape.org/) -->

<svg
   width="46mm"
   height="66mm"
   viewBox="0 0 46 66"
   version="1.1"
   id="svg1"
   sodipodi:docname="food-token.svg"
   inkscape:version="1.3.1 (91b66b0783, 2023-11-16)"
   xmlns:inkscape="http://www.inkscape.org/namespaces/inkscape"
   xmlns:sodipodi="http://sodipodi.sourceforge.net/DTD/sodipodi-0.dtd"
   xmlns="http://www.w3.org/2000/svg"
   xmlns:svg="http://www.w3.org/2000/svg">
  <sodipodi:namedview
     id="namedview1"
     pagecolor="#ffffff"
     bordercolor="#000000"
     borderopacity="0.25"
     inkscape:showpageshadow="2"
     inkscape:pageopacity="0.0"
     inkscape:pagecheckerboard="0"
     inkscape:deskcolor="#d1d1d1"
     inkscape:document-units="mm"
     inkscape:zoom="0.70710678"
     inkscape:cx="-79.903066"
     inkscape:cy="173.24116"
     inkscape:current-layer="layer2" />
  <defs
     id="defs1" />
  <g
     inkscape:label="Layer 1"
     inkscape:groupmode="layer"
     id="layer1"
     style="display:inline">
    <path
       id="rect1"
       style="fill:#250657;stroke:none;stroke-width:3;stroke-linecap:square;paint-order:stroke fill markers"
       inkscape:label="cut"
       d="M 6.0001506,0 C 2.6761539,0 0,2.6761539 0,6.0001506 V 59.999955 c 0,3.323997 2.6761539,6.000151 6.0001506,6.000151 H 40.000142 c 3.323997,0 5.999634,-2.676154 5.999634,-6.000151 V 6.0001506 C 45.999776,2.6761539 43.324139,0 40.000142,0 Z" />
    <path
       id="path69"
       style="fill:#d6a206;stroke-width:1;stroke-linecap:square;paint-order:stroke fill markers"
       inkscape:label="engraving"
       d="m 23.000146,3.9997559 c -2.393411,-1.26e-5 -4.590914,0.6969339 -6.558256,1.8918741 0.130542,0.5236695 0.278062,1.0542816 0.424264,1.4960328 1.845613,-1.1996249 3.899026,-1.8877518 6.132959,-1.8877401 6.160819,-3.28e-5 10.965754,5.1811183 13.755233,12.1367273 -0.502012,0.06712 -1.018946,0.130351 -1.550293,0.189652 -3.608206,0.402679 -7.84875,0.624819 -12.203907,0.626835 -2.231002,-9.44e-4 -4.416664,-0.06915 -6.519498,-0.179834 -0.02915,0.113991 -0.06509,0.220293 -0.09198,0.33228 -0.09753,0.406091 -0.190418,0.787484 -0.294556,1.152901 2.230987,0.125966 4.560511,0.191857 6.906038,0.195337 4.551771,-0.0053 8.993756,-0.245415 12.760462,-0.689881 0.521702,-0.05756 1.030055,-0.118775 1.523421,-0.183451 0.369983,1.056921 0.694179,2.146465 0.972034,3.258716 0.0494,0.197735 0.09668,0.396695 0.143144,0.595829 0.03669,0.158558 0.07265,0.317629 0.107487,0.476974 0.0191,0.08664 0.03871,0.1731 0.05736,0.259932 9.31e-4,0.0043 0.0022,0.0086 0.0031,0.01292 0.0014,0.0064 0.0028,0.01274 0.0041,0.01912 0.01239,0.05913 0.02387,0.118594 0.03617,0.177767 0.03309,0.160454 0.06267,0.322123 0.09405,0.483175 -0.477576,0.07499 -0.973144,0.146692 -1.485181,0.214457 -4.038642,0.560935 -9.047749,0.86902 -14.216187,0.874365 -5.168219,-0.0052 -10.17753,-0.313082 -14.2167028,-0.873848 -0.5139025,-0.06799 -1.0111477,-0.139711 -1.4903483,-0.214974 0.00234,-0.01197 0.0054,-0.02369 0.00775,-0.03566 0.2118223,-1.079956 0.4684825,-2.143972 0.7622273,-3.186368 4.465e-4,-0.0016 0.0011,-0.0031 0.00155,-0.0047 0.054798,-0.192918 0.1113139,-0.384963 0.168982,-0.576193 0.088412,-0.295375 0.1817792,-0.58759 0.2769856,-0.878499 0.066545,-0.201877 0.1342653,-0.40294 0.2041219,-0.602547 0.4934216,0.06468 1.0016601,0.125885 1.5234213,0.183451 0.665196,0.07804 1.353466,0.149965 2.061889,0.215491 -0.07319,-0.281391 -0.143114,-0.570868 -0.216007,-0.874365 -0.05362,-0.223265 -0.121607,-0.436113 -0.182935,-0.662492 -0.375933,-0.03682 -0.742852,-0.07623 -1.106392,-0.116789 -0.531353,-0.05929 -1.0482695,-0.122046 -1.5502928,-0.189136 0.3448703,-0.860132 0.7233847,-1.689876 1.1286128,-2.489253 -0.01522,-0.01014 -0.02965,-0.02281 -0.04496,-0.03256 -0.213875,-0.136074 -0.7542258,-0.32666 -1.3585734,-0.51573 -0.4561459,0.908435 -0.8751367,1.853063 -1.2547038,2.827734 -0.039185,0.100621 -0.077915,0.201585 -0.116272,0.302824 l -0.2997233,0.855762 c -0.6172636,1.763781 -1.1105332,3.607221 -1.4784627,5.492171 l -0.1932699,0.993221 c -0.029718,0.175468 -0.058274,0.351088 -0.085783,0.527099 -0.1968752,1.259687 -0.3402886,2.532287 -0.4221964,3.80597 -0.086894,1.35121 -0.1042383,2.704019 -0.055811,4.044197 0.017613,0.487396 0.043708,0.972969 0.080099,1.456242 l 0.043925,0.487826 c 0.1847958,2.0549 0.5456895,4.060329 1.09399,5.962943 l 0.1772502,0.618567 c 0.032105,0.101929 0.067516,0.202064 0.1007691,0.303341 0.3942756,1.200825 0.8664101,2.357234 1.427303,3.450435 0.063829,0.124406 0.1313468,0.246168 0.197404,0.36897 0.1193741,0.221915 0.2381213,0.444465 0.3648356,0.660941 0.9353757,1.597989 2.0962016,3.031595 3.4659386,4.242119 H 5.3686646 c -0.7557526,7.6e-5 -1.3688332,0.612638 -1.3689087,1.368392 v 6.950997 c 0,0.691531 0.1945139,1.457486 0.7487915,2.011763 0.5542775,0.554278 1.3181648,0.748275 2.0096964,0.748275 H 36.472709 c 1.551051,0 2.977864,-0.543457 3.982186,-1.549776 1.004323,-1.006319 1.545125,-2.434508 1.545125,-3.989938 0,-1.555429 -0.540802,-2.985169 -1.545125,-3.991487 -1.004322,-1.006319 -2.431135,-1.548226 -3.982186,-1.548226 h -2.487703 c 1.369577,-1.210538 2.530476,-2.644086 3.465938,-4.242119 0.126842,-0.216679 0.24587,-0.439327 0.365352,-0.661458 0.06613,-0.122929 0.133511,-0.244948 0.197404,-0.369486 0.561045,-1.093554 1.033502,-2.250245 1.42782,-3.451469 0.03143,-0.09576 0.06469,-0.190467 0.09509,-0.286804 l 0.181901,-0.635104 c 0.54816,-1.902336 0.909272,-3.906004 1.09399,-5.960876 l 0.04599,-0.51108 c 0.0355,-0.475612 0.06123,-0.953397 0.07855,-1.432988 0.0484,-1.340168 0.03064,-2.692992 -0.05633,-4.044197 -0.08202,-1.27434 -0.225681,-2.547585 -0.422713,-3.808037 -0.0271,-0.173344 -0.05499,-0.346525 -0.08423,-0.519348 L 40.177909,24.07605 C 39.809836,22.191111 39.316831,20.347563 38.699447,18.583879 L 38.393005,17.70693 C 38.357535,17.61348 38.321695,17.520285 38.285518,17.42736 37.558963,15.56103 36.693323,13.799354 35.689294,12.201322 32.691321,7.4297008 28.328389,3.9997275 23.000146,3.9997559 Z m -8.763289,0.6082316 c -0.465572,1.179e-4 -0.743352,3.2320409 -1.606103,4.6131551 -0.33099,0.5298618 -0.793032,0.9948934 -1.320333,1.3306684 -1.3174245,0.838895 -4.3488325,1.185464 -4.6064374,1.600419 0.1881081,0.303002 1.8530918,0.572134 3.2519978,1.020609 0.4974866,0.159493 0.9579796,0.341789 1.3089636,0.557072 0.01364,0.0084 0.03218,0.01478 0.04548,0.02326 0.391535,0.249321 0.747082,0.570311 1.03973,0.93586 0.101474,0.126757 0.195379,0.25838 0.280603,0.394808 0.406755,0.651144 0.681814,1.710355 0.909505,2.651518 0.138641,0.573066 0.260816,1.098455 0.381372,1.461409 0.101407,0.305305 0.2028,0.499682 0.315226,0.499711 0.106383,-2.8e-5 0.202697,-0.183122 0.29869,-0.45992 0.118695,-0.342268 0.23774,-0.837101 0.37207,-1.395264 0.232492,-0.966034 0.513985,-2.082106 0.93586,-2.757454 0.330987,-0.529866 0.790238,-0.998478 1.319816,-1.330668 1.381707,-0.866697 4.622617,-1.171024 4.628658,-1.592151 4.1e-5,-0.0029 -5.3e-4,-0.0059 -5.16e-4,-0.0088 -1.4e-5,-0.0029 5.57e-4,-0.0055 5.16e-4,-0.0083 C 21.785953,11.722833 18.545,11.41851 17.163293,10.551811 16.823182,10.338606 16.517071,10.064607 16.250171,9.7585775 16.101468,9.5880767 15.961901,9.4107272 15.843477,9.2211426 15.722721,9.027836 15.615287,8.7929473 15.515332,8.5410807 15.341398,8.1028037 15.194278,7.6023979 15.065747,7.1024089 14.740411,5.8368291 14.523882,4.6080596 14.236857,4.6079875 Z M 11.319206,20.627681 c -0.165332,0.01596 -0.326868,0.05927 -0.478007,0.128158 -0.593531,0.199069 -1.0010219,0.745828 -1.0221601,1.371493 0.018609,0.416802 0.2099781,0.807033 0.5281331,1.076936 0.26169,0.254692 0.607309,0.405177 0.972034,0.42323 0.270611,-0.0022 0.535606,-0.07754 0.766878,-0.218074 0.452472,-0.269077 0.730775,-0.755665 0.733289,-1.282092 -0.0025,-0.491186 -0.245346,-0.950046 -0.65009,-1.228349 -0.249275,-0.174574 -0.545765,-0.269196 -0.850077,-0.271302 z m 23.358781,0 c -0.292616,0.0076 -0.576625,0.100655 -0.817005,0.267684 -0.41837,0.27153 -0.674428,0.733282 -0.683162,1.231967 0.0024,0.526318 0.280502,1.01289 0.732772,1.282092 0.231415,0.140624 0.496605,0.215986 0.767395,0.218074 0.364467,-0.01804 0.709881,-0.168327 0.971517,-0.422713 0.318275,-0.270024 0.509665,-0.660472 0.528133,-1.077453 -0.002,-0.605306 -0.36766,-1.150116 -0.927075,-1.381311 -0.181246,-0.07662 -0.375811,-0.116832 -0.572575,-0.11834 z m -17.519344,0.499712 c -0.167183,0.01588 -0.330515,0.05973 -0.483175,0.129707 -0.590941,0.20085 -0.995779,0.746662 -1.016475,1.370459 0.01756,0.434582 0.222891,0.840157 0.562756,1.11156 0.257698,0.234395 0.588948,0.371791 0.936894,0.388607 0.307022,-0.0106 0.603407,-0.115228 0.849043,-0.299723 0.39717,-0.272411 0.639387,-0.718973 0.651123,-1.200444 -8.41e-4,-0.546236 -0.298574,-1.048858 -0.777213,-1.312064 -0.221264,-0.122665 -0.46997,-0.187371 -0.722953,-0.188102 z m 11.67939,0 c -0.244483,0.0045 -0.48416,0.06874 -0.698149,0.187068 -0.488353,0.256942 -0.796211,0.761301 -0.801501,1.313098 0.01169,0.481747 0.254129,0.928563 0.65164,1.200961 0.245416,0.184111 0.541397,0.288541 0.84801,0.299206 0.348058,-0.01655 0.679506,-0.153774 0.937411,-0.38809 0.33999,-0.27152 0.545344,-0.677314 0.562756,-1.112077 -0.002,-0.599989 -0.361387,-1.14109 -0.913639,-1.375626 -0.185134,-0.08057 -0.384632,-0.122924 -0.586528,-0.12454 z m -5.839954,0.24753 c -0.09341,0.01576 -0.185112,0.04033 -0.273885,0.07338 -0.693268,0.128292 -1.20364,0.72211 -1.226281,1.426787 0.01887,0.408934 0.204074,0.792403 0.51263,1.061433 0.263317,0.263662 0.615362,0.41988 0.987536,0.438217 0.372181,-0.01834 0.724219,-0.174555 0.987537,-0.438217 0.308556,-0.26903 0.493755,-0.652499 0.51263,-1.061433 -0.0022,-0.657466 -0.432246,-1.236917 -1.060917,-1.429371 -0.142081,-0.0453 -0.290129,-0.06916 -0.43925,-0.0708 z m 15.966468,4.466394 c 0.115385,0.735425 0.210502,1.473918 0.285254,2.215885 l -0.118856,0.01705 c -0.440195,0.06424 -0.903335,0.123358 -1.368909,0.181901 -4.206757,0.528984 -9.396112,0.824535 -14.76189,0.82579 C 17.634529,29.080843 12.444934,28.78634 8.2377401,28.257704 7.7722728,28.199224 7.3094632,28.140525 6.8693481,28.076319 l -0.1193725,-0.01757 c 0.074677,-0.741951 0.169429,-1.480475 0.2847371,-2.215885 l 0.01602,0.0026 c 0.4726918,0.07747 0.9673927,0.14939 1.469161,0.219108 4.1374483,0.574862 9.2128513,0.885675 14.4802523,0.888318 5.267262,-0.0029 10.342741,-0.314658 14.479737,-0.889868 0.501827,-0.06977 0.996446,-0.141613 1.469161,-0.219108 z m 0.421679,3.711401 c 0.0879,1.394555 0.09955,2.788843 0.03617,4.164087 l -0.363802,0.0646 c -0.366619,0.06486 -0.761176,0.123941 -1.152385,0.183968 -4.056287,0.622417 -9.369925,0.983984 -14.904516,0.987536 -5.53614,-0.0035 -10.85061,-0.364879 -14.9076134,-0.98754 -0.3905919,-0.05995 -0.784757,-0.119207 -1.1508342,-0.183968 l -0.3658691,-0.0646 c -0.0634,-1.374575 -0.051533,-2.768141 0.036174,-4.16202 l 0.038757,0.0062 c 0.4689546,0.06841 0.9598899,0.131878 1.4552084,0.193787 4.2815593,0.535141 9.4974663,0.826767 14.8926303,0.827856 5.395359,-0.0013 10.610942,-0.294413 14.892115,-0.829923 0.495384,-0.06197 0.98621,-0.125339 1.455208,-0.193787 z M 6.6838298,35.258313 c 0.4907885,0.0832 1.0027402,0.162465 1.5342732,0.237712 0.1747639,0.02804 0.3520727,0.0556 0.5317505,0.08268 v 1.432471 1.401981 0.453202 2.210201 C 8.3998892,41.03244 8.0571185,40.98659 7.7220093,40.939101 l -5.168e-4,-5.17e-4 C 7.3386636,39.60992 7.0515553,38.220884 6.856429,36.793103 6.849729,36.744223 6.843279,36.695313 6.836792,36.646342 6.7762102,36.187508 6.7260005,35.72436 6.6838298,35.25883 Z m 32.6321162,0 c -0.04217,0.466163 -0.09227,0.930072 -0.152962,1.389579 -0.0063,0.04725 -0.01265,0.09443 -0.01912,0.141594 -0.195246,1.429986 -0.486594,2.819145 -0.869714,4.149617 -0.333975,0.04728 -0.675521,0.09299 -1.024227,0.136943 v -2.207101 -0.453202 -1.404565 -1.432471 c 0.179852,-0.02708 0.357332,-0.05465 0.532267,-0.08268 0.531307,-0.07522 1.043164,-0.154551 1.533756,-0.237712 z M 10.25002,35.762675 c 0.955342,0.112496 1.958324,0.212361 2.999817,0.29869 V 38.0106 l 0.01964,3.564123 c -0.0065,-4.79e-4 -0.01318,-9.5e-4 -0.01964,-0.0016 -1.041044,-0.0855 -2.043997,-0.184495 -2.999817,-0.296106 v -1.561662 -2.520259 z m 25.499736,0 v 1.432471 2.520259 1.561662 c -0.955819,0.111611 -1.958772,0.210609 -2.999817,0.296106 v -1.544609 -2.518192 -1.449007 c 1.041494,-0.08633 2.044475,-0.186194 2.999817,-0.29869 z m -20.999752,0.413411 c 0.977476,0.06573 1.979963,0.119788 2.999817,0.161748 v 1.488798 2.494938 1.514636 c -1.019936,-0.04213 -2.022408,-0.09635 -2.999817,-0.162264 V 37.64008 Z m 16.499768,0 v 1.463994 2.510441 1.523421 c -0.977409,0.06591 -1.979881,0.120133 -2.999817,0.162264 v -1.514119 -2.495972 -1.488281 c 1.019855,-0.04196 2.022341,-0.09601 2.999817,-0.161748 z M 19.249988,36.39106 c 0.992062,0.02913 1.994366,0.04692 2.999817,0.05323 v 1.501717 2.494938 1.502751 c -1.004936,-0.0049 -2.00722,-0.02135 -2.999817,-0.04909 v -1.502233 -2.503724 z m 7.4998,0 v 1.497067 2.50424 1.502233 c -0.992596,0.02775 -1.994882,0.04415 -2.999816,0.04909 v -1.502751 -2.494938 -1.501717 c 1.005449,-0.0063 2.007754,-0.02409 2.999816,-0.05323 z M 8.2346395,42.526603 c 0.5473599,0.0782 1.110246,0.152004 1.6898193,0.220659 3.8646202,0.457794 8.3952802,0.704896 13.0756872,0.7059 4.680621,-0.0011 9.210824,-0.248104 13.075171,-0.7059 0.579708,-0.06868 1.14288,-0.142418 1.690336,-0.220659 -0.276799,0.764647 -0.590807,1.502191 -0.93896,2.211235 -0.584867,0.09453 -1.199074,0.181536 -1.832447,0.263033 -3.50039,0.450388 -7.680617,0.70113 -11.9941,0.702282 C 18.686994,45.702158 14.506652,45.451236 11.006047,45.000871 10.372774,44.919396 9.7584073,44.832322 9.1736003,44.737838 8.82546,44.028796 8.5114413,43.291247 8.2346395,42.526603 Z M 35.91202,46.393034 c -1.14141,1.841523 -2.574309,3.412534 -4.316533,4.606954 H 14.404806 c -1.741312,-1.19399 -3.173828,-2.764233 -4.314983,-4.604887 0.632078,0.08876 1.287839,0.170263 1.962155,0.244946 3.303417,0.365868 7.073276,0.562379 10.948168,0.563273 3.875361,-10e-4 7.645268,-0.198384 10.948686,-0.564823 0.674851,-0.07486 1.330668,-0.156545 1.963188,-0.245463 z m -18.963184,5.528345 c 1.359385,0 2.520066,0.460767 3.333647,1.275891 0.81358,0.815124 1.272274,1.977498 1.272274,3.342431 0,1.364931 -0.458694,2.527824 -1.272274,3.342949 -0.813581,0.815124 -1.974262,1.273824 -3.333647,1.273824 -1.364932,0 -2.527809,-0.458685 -3.342948,-1.273824 -0.81514,-0.815142 -1.275891,-1.978018 -1.275891,-3.342949 0,-1.364933 0.460751,-2.527292 1.275891,-3.342431 0.815139,-0.815141 1.978016,-1.275891 3.342948,-1.275891 z m 10.144084,0 c 1.359387,0 2.518516,0.460767 3.332096,1.275891 0.81358,0.815124 1.273824,1.977498 1.273824,3.342431 0,1.364931 -0.460244,2.527824 -1.273824,3.342949 -0.81358,0.815124 -1.972709,1.273824 -3.332096,1.273824 -1.36493,0 -2.527809,-0.458685 -3.342948,-1.273824 -0.815143,-0.815142 -1.275375,-1.978018 -1.275375,-3.342949 0,-1.364933 0.460232,-2.527292 1.275375,-3.342431 0.815139,-0.815141 1.978018,-1.275891 3.342948,-1.275891 z M 5.3686646,52.118783 h 0.9725504 0.532784 4.704106 c 0.138354,-6.22e-4 0.250912,0.111241 0.251147,0.249597 v 0.115755 c 0,0.505113 -0.131548,0.9284 -0.422196,1.219047 -0.290649,0.290648 -0.713417,0.420646 -1.218531,0.420646 H 8.5152425 v 1.400431 H 10.91923 c 0.138153,5.2e-4 0.249702,0.112995 0.249081,0.251148 v 0.115755 c 0,0.505114 -0.129998,0.928398 -0.420647,1.219047 -0.290647,0.290647 -0.714966,0.42013 -1.2200802,0.42013 H 8.5152425 v 3.180684 C 8.515007,60.848772 8.4033944,60.960385 8.2656453,60.96062 H 6.7582438 c -0.5051139,0 -0.9278817,-0.129997 -1.2185303,-0.420646 C 5.249065,60.249325 5.1190674,59.824489 5.1190674,59.319377 V 52.36838 c 2.355e-4,-0.137749 0.111848,-0.249362 0.2495972,-0.249597 z m 27.4990964,0 h 0.429431 1.077971 2.097546 c 1.301328,0 2.4106,0.438628 3.18947,1.219047 0.778871,0.78042 1.219047,1.895009 1.219047,3.201871 0,1.306861 -0.440176,2.419903 -1.219047,3.200322 -0.77887,0.780419 -1.888142,1.220597 -3.18947,1.220597 h -0.70745 -1.402499 -0.103352 c -0.505114,0 -0.92995,-0.129998 -1.220598,-0.420646 -0.290649,-0.290648 -0.420129,-0.715485 -0.420129,-1.220597 V 52.36838 c 2.34e-4,-0.137549 0.111534,-0.249078 0.24908,-0.249597 z m -15.918925,1.400948 c -0.51158,0 -0.925801,0.371923 -1.181323,0.906921 -0.255521,0.535 -0.388607,1.257824 -0.388607,2.113049 0,0.855226 0.133629,1.583666 0.388607,2.123902 0.254979,0.540234 0.667293,0.917773 1.181323,0.917773 0.51003,0 0.919317,-0.377889 1.172539,-0.917773 0.253218,-0.539886 0.386539,-1.268676 0.386539,-2.123902 0,-0.855225 -0.132782,-1.578399 -0.386539,-2.113049 -0.25376,-0.534649 -0.664996,-0.906921 -1.172539,-0.906921 z m 10.144084,0 c -0.511579,0 -0.925801,0.371923 -1.181323,0.906921 -0.255523,0.535 -0.390157,1.257824 -0.390157,2.113049 0,0.855226 0.135178,1.583666 0.390157,2.123902 0.254978,0.540234 0.667293,0.917773 1.181323,0.917773 0.510031,0 0.919318,-0.377889 1.172538,-0.917773 0.253222,-0.539886 0.386541,-1.268676 0.38654,-2.123902 1e-6,-0.855225 -0.134847,-1.578399 -0.388607,-2.113049 -0.253758,-0.534649 -0.662928,-0.906921 -1.170471,-0.906921 z m 8.667171,0.159163 c 9.12e-4,0.02745 0.0052,0.05126 0.0052,0.07958 v 5.664253 c 1.366812,-0.13206 1.95802,-1.382764 1.95802,-2.883544 0,-1.502617 -0.592808,-2.733024 -1.963188,-2.860291 z" />
    <path
       id="path70"
       style="-inkscape-font-specification:'Rayhound, Normal';display:inline;fill:#c8a9fa;stroke-width:1.09611;stroke-linecap:round;stroke-linejoin:round;paint-order:stroke fill markers"
       d="m 17.179733,53.072436 c -1.496123,0 -2.770767,0.505035 -3.664254,1.398523 -0.893487,0.893487 -1.398522,2.167563 -1.398522,3.663687 0,1.496121 0.505035,2.770765 1.398522,3.664254 0.893487,0.893487 2.168131,1.396256 3.664254,1.396256 1.490043,0 2.762279,-0.502786 3.654058,-1.396256 0.891778,-0.893471 1.394557,-2.168133 1.394557,-3.664254 0,-1.496124 -0.502779,-2.770217 -1.394557,-3.663687 -0.891779,-0.89347 -2.164015,-1.398523 -3.654058,-1.398523 z m 11.119075,0 c -1.496121,0 -2.770766,0.505035 -3.664253,1.398523 -0.89349,0.893487 -1.397957,2.167563 -1.397957,3.663687 0,1.496121 0.504467,2.770765 1.397957,3.664254 0.893487,0.893487 2.168132,1.396256 3.664253,1.396256 1.490045,0 2.760581,-0.502786 3.652359,-1.396256 0.891777,-0.893471 1.396256,-2.168133 1.396256,-3.664254 0,-1.496124 -0.504479,-2.770217 -1.396256,-3.663687 -0.891778,-0.89347 -2.162314,-1.398523 -3.652359,-1.398523 z M 4.4865408,53.288814 c -0.150989,2.58e-4 -0.2733289,0.122598 -0.2735871,0.273587 v 7.619087 c 0,0.553662 0.1424919,1.019329 0.4610763,1.337914 0.3185844,0.318585 0.7819854,0.461076 1.3356485,0.461076 h 1.6522844 c 0.1509889,-2.58e-4 0.2733289,-0.122598 0.273587,-0.273587 v -3.486393 h 1.1096418 c 0.5536632,0 1.0187643,-0.141927 1.3373473,-0.46051 0.318584,-0.318585 0.461077,-0.782552 0.461077,-1.336215 v -0.126881 c 6.81e-4,-0.151432 -0.121589,-0.274716 -0.273021,-0.275286 H 7.9355499 v -1.535033 h 1.8341093 c 0.5536628,0 1.0170638,-0.142493 1.3356488,-0.461077 0.318584,-0.318583 0.462775,-0.782552 0.462775,-1.336214 v -0.126881 c -2.58e-4,-0.151654 -0.123634,-0.274268 -0.275286,-0.273587 H 6.1365594 5.5525672 Z m 30.1421532,0 c -0.150766,5.69e-4 -0.272763,0.122818 -0.27302,0.273587 v 7.619087 c 0,0.553661 0.141925,1.01933 0.46051,1.337914 0.318583,0.318584 0.784251,0.461076 1.337914,0.461076 h 0.113286 1.537299 0.775446 c 1.426405,0 2.642292,-0.482485 3.496023,-1.337914 0.853733,-0.855429 1.336215,-2.075448 1.336215,-3.507918 0,-1.432472 -0.482482,-2.654187 -1.336215,-3.509618 -0.853731,-0.855429 -2.069618,-1.336213 -3.496023,-1.336214 H 36.280979 35.0994 Z m -17.448961,1.535599 c 0.556325,0 1.007086,0.408052 1.285236,0.994089 0.278148,0.586038 0.423691,1.378718 0.423691,2.316144 0,0.937426 -0.146134,1.736262 -0.423691,2.328039 -0.27756,0.591775 -0.726184,1.005984 -1.285236,1.005984 -0.563437,0 -1.01538,-0.413825 -1.294866,-1.005984 -0.279485,-0.592161 -0.425957,-1.390613 -0.425957,-2.328039 0,-0.937426 0.145876,-1.729722 0.425957,-2.316144 0.280082,-0.58642 0.734115,-0.994089 1.294866,-0.994089 z m 11.119075,0 c 0.556326,0 1.004822,0.408052 1.28297,0.994089 0.27815,0.586038 0.425959,1.378718 0.425958,2.316144 10e-7,0.937426 -0.146132,1.736262 -0.423692,2.328039 -0.277559,0.591775 -0.726183,1.005984 -1.285236,1.005984 -0.563436,0 -1.015379,-0.413825 -1.294865,-1.005984 -0.279486,-0.592161 -0.427657,-1.390613 -0.427657,-2.328039 0,-0.937426 0.147575,-1.729722 0.427657,-2.316144 0.280082,-0.58642 0.734115,-0.994089 1.294865,-0.994089 z m 9.500211,0.174461 c 1.502095,0.139499 2.151878,1.488165 2.151878,3.135206 0,1.645029 -0.64803,3.01594 -2.146214,3.160694 v -6.208669 c 0,-0.03104 -0.0047,-0.05714 -0.0057,-0.08723 z"
       inkscape:label="text outline"
       transform="matrix(0.9123136,0,0,0.9123136,1.2755324,3.5026732)" />
  </g>
  <g
     inkscape:groupmode="layer"
     id="layer2"
     inkscape:label="BUILD"
     style="display:none">
    <path
       id="path58"
       style="fill:#d6a206;stroke-width:1;stroke-linecap:square;paint-order:stroke fill markers"
       d="m -31.629817,4 c -2.393417,-1.26e-5 -4.59091,0.6969316 -6.558256,1.8918742 0.130542,0.5236705 0.278062,1.0542812 0.424264,1.4960332 1.845617,-1.1996273 3.899022,-1.8877523 6.132959,-1.8877406 6.160831,-3.28e-5 10.96575,5.1811032 13.755233,12.1367262 -0.502012,0.06712 -1.018944,0.130352 -1.550293,0.189653 -3.608212,0.402679 -7.848742,0.624819 -12.203907,0.626835 -2.231008,-9.44e-4 -4.41666,-0.06915 -6.519498,-0.179834 -0.02915,0.113991 -0.06509,0.220292 -0.09198,0.332279 -0.09753,0.406093 -0.190418,0.787485 -0.294556,1.152902 2.230991,0.125966 4.560505,0.191857 6.906038,0.195337 4.551779,-0.0053 8.993748,-0.245415 12.760462,-0.689881 0.521704,-0.05756 1.030053,-0.118775 1.523421,-0.183451 0.369983,1.056923 0.694179,2.146463 0.972034,3.258716 0.0494,0.197735 0.09668,0.396695 0.143144,0.595829 0.03669,0.158558 0.07265,0.317628 0.107487,0.476973 0.0191,0.08664 0.03871,0.173101 0.05736,0.259933 9.31e-4,0.0043 0.0022,0.0086 0.0031,0.01292 0.0014,0.0064 0.0028,0.01274 0.0041,0.01912 0.01239,0.05913 0.02387,0.118594 0.03617,0.177767 0.03309,0.160454 0.06267,0.322123 0.09405,0.483175 -0.477576,0.07499 -0.973142,0.146692 -1.485181,0.214457 -4.03865,0.560935 -9.047739,0.86902 -14.216187,0.874365 -5.168231,-0.0052 -10.177522,-0.31308 -14.216703,-0.873848 -0.513904,-0.06799 -1.011147,-0.139711 -1.490349,-0.214974 0.0023,-0.01197 0.0054,-0.02369 0.0078,-0.03566 0.211823,-1.079958 0.468482,-2.143969 0.762228,-3.186369 4.46e-4,-0.0016 0.0011,-0.0031 0.0016,-0.0047 0.0548,-0.192918 0.111314,-0.384962 0.168982,-0.576192 0.08841,-0.295377 0.181779,-0.58759 0.276985,-0.878499 0.06655,-0.201877 0.134265,-0.40294 0.204122,-0.602547 0.493423,0.06468 1.00166,0.125885 1.523422,0.183451 0.665198,0.07804 1.353464,0.149965 2.061889,0.215491 -0.07319,-0.281391 -0.143114,-0.570867 -0.216007,-0.874366 -0.05362,-0.223265 -0.121607,-0.436112 -0.182935,-0.662491 -0.375935,-0.03682 -0.742852,-0.07623 -1.106392,-0.116789 -0.531353,-0.05929 -1.048269,-0.122046 -1.550293,-0.189136 0.344871,-0.860134 0.723383,-1.689875 1.128613,-2.489254 -0.01522,-0.01014 -0.02965,-0.02281 -0.04496,-0.03256 -0.213875,-0.136076 -0.754225,-0.326659 -1.358574,-0.515731 -0.456147,0.908437 -0.875136,1.853062 -1.254704,2.827735 -0.03919,0.100621 -0.07792,0.201585 -0.116272,0.302824 l -0.299683,0.855816 c -0.617265,1.763785 -1.110533,3.607218 -1.478463,5.492172 l -0.19327,0.993221 c -0.02972,0.175468 -0.05827,0.351086 -0.08578,0.527099 -0.196875,1.259689 -0.340288,2.532284 -0.422196,3.805969 -0.08689,1.351214 -0.104239,2.704016 -0.05581,4.044198 0.01761,0.487396 0.04371,0.972967 0.0801,1.456242 l 0.04392,0.487825 c 0.184796,2.054904 0.545688,4.060326 1.09399,5.962944 l 0.17725,0.618567 c 0.0321,0.101929 0.06752,0.202064 0.100769,0.303341 0.394276,1.200827 0.866409,2.357232 1.427303,3.450435 0.06383,0.124406 0.131347,0.246168 0.197404,0.36897 0.119374,0.221915 0.238121,0.444463 0.364836,0.660941 2.845492,4.861216 7.738018,8.241898 14.451314,8.241874 6.714369,2.4e-5 11.605097,-3.380615 14.450798,-8.241874 0.126842,-0.216681 0.245868,-0.439327 0.365352,-0.661458 0.06613,-0.122929 0.133511,-0.244949 0.197404,-0.369487 0.561045,-1.093556 1.0335,-2.250243 1.42782,-3.451469 0.03143,-0.09576 0.06468,-0.190465 0.09508,-0.286804 l 0.181901,-0.635103 c 0.548162,-1.90234 0.909272,-3.906001 1.09399,-5.960877 l 0.04599,-0.511079 c 0.0355,-0.475612 0.06123,-0.953397 0.07855,-1.432988 0.0484,-1.340172 0.03064,-2.692989 -0.05633,-4.044198 -0.08202,-1.274342 -0.225679,-2.547582 -0.422713,-3.808036 -0.0271,-0.173346 -0.05499,-0.346525 -0.08423,-0.519348 l -0.195849,-1.000972 c -0.368075,-1.884943 -0.861076,-3.728484 -1.478462,-5.492172 l -0.306442,-0.876949 c -0.03547,-0.09345 -0.07131,-0.186644 -0.107487,-0.279569 C -17.071002,15.56127 -17.936638,13.7996 -18.940669,12.201566 -21.938648,7.4299344 -26.301564,3.9999716 -31.629817,4 Z m -8.763289,0.6082316 c -0.465574,1.179e-4 -0.74335,3.2320378 -1.606103,4.6131548 -0.33099,0.529863 -0.79303,0.9948926 -1.320333,1.3306676 -1.317427,0.838897 -4.348832,1.185465 -4.606438,1.60042 0.188109,0.303002 1.853089,0.572132 3.251998,1.020609 0.497487,0.159493 0.957978,0.341787 1.308964,0.557072 0.01364,0.0084 0.03218,0.01478 0.04548,0.02325 0.391537,0.249323 0.747082,0.570312 1.03973,0.935861 0.101476,0.126757 0.195379,0.25838 0.280603,0.394808 0.406757,0.651146 0.681814,1.710352 0.909505,2.651517 0.138641,0.573068 0.260816,1.098456 0.381372,1.46141 0.101407,0.305305 0.2028,0.499682 0.315226,0.499711 0.106383,-2.8e-5 0.202697,-0.183122 0.29869,-0.45992 0.118695,-0.342268 0.23774,-0.837101 0.37207,-1.395264 0.232492,-0.966036 0.513983,-2.082104 0.93586,-2.757454 0.330987,-0.529866 0.790236,-0.998477 1.319816,-1.330669 1.381709,-0.866699 4.622615,-1.171021 4.628658,-1.59215 4.1e-5,-0.0029 -5.3e-4,-0.0059 -5.16e-4,-0.0088 -1.4e-5,-0.0029 5.57e-4,-0.0055 5.16e-4,-0.0083 -0.006,-0.421129 -3.246949,-0.72545 -4.628658,-1.592151 -0.340113,-0.213205 -0.646226,-0.487153 -0.913126,-0.7931826 -0.148703,-0.170501 -0.28827,-0.34785 -0.406694,-0.537435 -0.120756,-0.193307 -0.22819,-0.428195 -0.328145,-0.680062 -0.173934,-0.438278 -0.321054,-0.938681 -0.449585,-1.438671 -0.325336,-1.2655822 -0.541865,-2.4943497 -0.82889,-2.4944218 z m -2.917651,16.0196934 c -0.165332,0.01596 -0.326868,0.05927 -0.478007,0.128158 -0.593531,0.199069 -1.001022,0.745827 -1.022161,1.371492 0.01861,0.416804 0.209979,0.807032 0.528134,1.076937 0.26169,0.254692 0.607309,0.405177 0.972034,0.42323 0.270613,-0.0022 0.535606,-0.07754 0.766878,-0.218074 0.452472,-0.269077 0.730775,-0.755664 0.733289,-1.282093 -0.0025,-0.491186 -0.245346,-0.950043 -0.65009,-1.228348 -0.249275,-0.174574 -0.545763,-0.269196 -0.850077,-0.271302 z m 23.358781,0 c -0.292616,0.0076 -0.576625,0.100653 -0.817005,0.267684 -0.418372,0.27153 -0.674428,0.733281 -0.683162,1.231966 0.0024,0.52632 0.280502,1.012891 0.732772,1.282093 0.231417,0.140624 0.496605,0.215986 0.767395,0.218074 0.364469,-0.01804 0.709881,-0.168327 0.971517,-0.422713 0.318277,-0.270024 0.509665,-0.660471 0.528133,-1.077454 -0.002,-0.605306 -0.367658,-1.150114 -0.927075,-1.381311 -0.181246,-0.07662 -0.375809,-0.116831 -0.572575,-0.118339 z m -17.519344,0.499711 c -0.167183,0.01588 -0.330515,0.05973 -0.483175,0.129708 -0.590943,0.20085 -0.995777,0.74666 -1.016475,1.370459 0.01756,0.434582 0.222891,0.840155 0.562756,1.11156 0.257698,0.234395 0.588948,0.371791 0.936894,0.388607 0.307024,-0.0106 0.603405,-0.115228 0.849043,-0.299723 0.39717,-0.272411 0.639387,-0.718973 0.651123,-1.200444 -8.41e-4,-0.546238 -0.298572,-1.048858 -0.777213,-1.312064 -0.221264,-0.122665 -0.469968,-0.187372 -0.722953,-0.188103 z m 11.67939,0 c -0.244483,0.0045 -0.48416,0.06874 -0.698149,0.187069 -0.488355,0.256942 -0.796211,0.761299 -0.801501,1.313098 0.01169,0.481747 0.254129,0.928562 0.65164,1.20096 0.245416,0.184111 0.541397,0.288542 0.84801,0.299207 0.348058,-0.01655 0.679506,-0.153774 0.937411,-0.38809 0.339992,-0.271522 0.545344,-0.677314 0.562756,-1.112077 -0.002,-0.599991 -0.361385,-1.14109 -0.913639,-1.375626 -0.185134,-0.08057 -0.384632,-0.122925 -0.586528,-0.124541 z m -5.839954,0.24753 c -0.09341,0.01576 -0.185112,0.04033 -0.273885,0.07338 -0.69327,0.128292 -1.20364,0.722109 -1.226281,1.426786 0.01887,0.408936 0.204074,0.792402 0.51263,1.061434 0.263317,0.263662 0.61536,0.419879 0.987536,0.438216 0.372181,-0.01834 0.724219,-0.174554 0.987537,-0.438216 0.308556,-0.269032 0.493755,-0.652498 0.51263,-1.061434 -0.0022,-0.657466 -0.432244,-1.236916 -1.060917,-1.42937 -0.142081,-0.0453 -0.290129,-0.06916 -0.43925,-0.0708 z m 15.966468,4.466394 c 0.115385,0.735427 0.210502,1.473917 0.285254,2.215886 l -0.118856,0.01705 c -0.440195,0.06424 -0.903335,0.123358 -1.368909,0.181901 -4.206765,0.528984 -9.396102,0.824535 -14.76189,0.82579 -5.365629,-0.0011 -10.555204,-0.295602 -14.762406,-0.82424 -0.465469,-0.05848 -0.928277,-0.117178 -1.368392,-0.181384 l -0.119373,-0.01757 c 0.07468,-0.741953 0.169429,-1.480473 0.284737,-2.215885 l 0.01602,0.0026 c 0.472693,0.07747 0.967392,0.14939 1.469161,0.219108 4.137457,0.574864 9.21284,0.885675 14.480253,0.888318 5.267272,-0.0029 10.342733,-0.314657 14.479737,-0.889869 0.501829,-0.06977 0.996446,-0.141611 1.469161,-0.219108 z m 0.421679,3.711402 c 0.0879,1.394557 0.09955,2.788841 0.03617,4.164087 l -0.363802,0.06459 c -0.366619,0.06486 -0.761176,0.123941 -1.152385,0.183968 -4.056295,0.622419 -9.369913,0.983985 -14.904516,0.987537 -5.536154,-0.0035 -10.850602,-0.364869 -14.907614,-0.987532 -0.390593,-0.05995 -0.784756,-0.119205 -1.150834,-0.183968 l -0.365869,-0.06459 c -0.0634,-1.374577 -0.05153,-2.768139 0.03617,-4.16202 l 0.03876,0.0057 c 0.468955,0.06841 0.959889,0.131878 1.455208,0.193787 4.281568,0.535143 9.497455,0.826767 14.892631,0.827856 5.395369,-0.0013 10.610934,-0.294411 14.892115,-0.829923 0.495386,-0.06197 0.986208,-0.125339 1.455208,-0.193787 z m -32.702397,5.705595 c 0.49079,0.0832 1.002739,0.162464 1.534273,0.237711 0.174765,0.02804 0.352073,0.0556 0.531751,0.08268 v 1.43247 1.401982 0.453202 2.210201 c -0.349965,-0.04412 -0.692734,-0.08997 -1.027844,-0.137459 -1.04e-4,-3.59e-4 -4.14e-4,-7.08e-4 -5.17e-4,-10e-4 -0.38283,-1.32867 -0.669937,-2.7177 -0.865064,-4.145483 -0.0067,-0.04888 -0.01315,-0.09779 -0.01964,-0.146761 -0.06058,-0.458834 -0.110791,-0.92198 -0.152962,-1.387512 z m 32.632117,0 c -0.04217,0.466163 -0.09227,0.93007 -0.152962,1.389579 -0.0063,0.04725 -0.01265,0.09443 -0.01912,0.141593 -0.195246,1.42999 -0.486592,2.819142 -0.869714,4.149618 -0.333975,0.04728 -0.675519,0.09299 -1.024227,0.136942 v -2.2071 -0.453202 -1.404566 -1.43247 c 0.179852,-0.02708 0.357332,-0.05465 0.532267,-0.08268 0.531309,-0.07522 1.043162,-0.15455 1.533756,-0.237711 z m -29.065926,0.504362 c 0.955344,0.112496 1.958322,0.212361 2.999817,0.29869 v 1.949235 l 0.01964,3.564123 c -0.0065,-4.79e-4 -0.01318,-10e-4 -0.01964,-0.0016 -1.041046,-0.0855 -2.043995,-0.184495 -2.999817,-0.296106 v -1.561612 -2.52026 z m 25.499736,0 v 1.43247 2.52026 1.561662 c -0.955821,0.111611 -1.95877,0.210609 -2.999817,0.296106 v -1.544609 -2.518192 -1.449007 c 1.041496,-0.08633 2.044473,-0.186194 2.999817,-0.29869 z m -20.999752,0.413411 c 0.977478,0.06573 1.979961,0.119787 2.999817,0.161747 v 1.488798 2.494939 1.514636 c -1.019938,-0.04213 -2.022406,-0.09635 -2.999817,-0.162264 v -4.033862 z m 16.499768,0 v 1.463994 2.510441 1.523421 c -0.977411,0.06591 -1.979879,0.120133 -2.999817,0.162264 v -1.51412 -2.495971 -1.488282 c 1.019857,-0.04196 2.022339,-0.09601 2.999817,-0.161747 z m -11.999784,0.214974 c 0.992064,0.02913 1.994364,0.04692 2.999817,0.05323 v 1.501717 2.494938 1.502751 c -1.004938,-0.0049 -2.007218,-0.02135 -2.999817,-0.04909 v -1.502234 -2.503723 z m 7.4998,0 v 1.497066 2.50424 1.502234 c -0.992598,0.02775 -1.99488,0.04415 -2.999816,0.04909 v -1.502751 -2.494938 -1.501717 c 1.005451,-0.0063 2.007752,-0.02409 2.999816,-0.05323 z m -18.515149,6.135543 c 0.547361,0.0782 1.110245,0.152003 1.689819,0.220658 3.864629,0.457796 8.395271,0.704896 13.075688,0.7059 4.680629,-0.0011 9.210816,-0.248102 13.075171,-0.7059 0.579708,-0.06868 1.142878,-0.142417 1.690336,-0.220658 -0.276801,0.764649 -0.590805,1.50219 -0.93896,2.211234 -0.584867,0.09453 -1.199074,0.181537 -1.832447,0.263034 -3.500398,0.45039 -7.680609,0.70113 -11.9941,0.702282 -4.313162,-9.95e-4 -8.493486,-0.251915 -11.994099,-0.702282 -0.633273,-0.08147 -1.247639,-0.16855 -1.832447,-0.263034 -0.348141,-0.709042 -0.662159,-1.446588 -0.938961,-2.211234 z m 27.677381,3.866431 c -2.651357,4.277637 -6.865261,7.106564 -12.912907,7.106543 -6.045493,2.1e-5 -10.258034,-2.828064 -12.90929,-7.104476 0.632078,0.08876 1.287839,0.170263 1.962155,0.244946 3.303425,0.365868 7.073268,0.562379 10.948168,0.563273 3.875367,-10e-4 7.645262,-0.198384 10.948686,-0.564823 0.674851,-0.07486 1.330668,-0.156545 1.963188,-0.245463 z"
       inkscape:label="egg" />
    <g
       id="text58"
       inkscape:label="text"
       transform="matrix(0.9123136,0,0,0.9123136,-53.354359,3.5026732)"
       style="stroke-width:1.09611">
      <path
         style="color:#000000;-inkscape-font-specification:'Rayhound, Normal';fill:#d6a206;stroke-width:1.09611;stroke-linecap:round;stroke-linejoin:round;-inkscape-stroke:none;paint-order:stroke fill markers"
         d="m 4.4863281,52.0625 c -0.8283928,8.3e-5 -1.4999172,0.671607 -1.5,1.5 v 7.619141 c 0,0.757999 0.2127598,1.597525 0.8203125,2.205078 0.6075528,0.607553 1.4451258,0.820312 2.203125,0.820312 H 38.580078 c 1.700132,0 3.26438,-0.596176 4.365234,-1.699219 1.100855,-1.103042 1.69336,-2.668115 1.69336,-4.373046 0,-1.704932 -0.592505,-3.271958 -1.69336,-4.375 C 41.844458,52.656723 40.28021,52.0625 38.580078,52.0625 Z"
         id="path59"
         sodipodi:nodetypes="ccssssssssc"
         inkscape:label="bg" />
      <path
         id="path66"
         style="-inkscape-font-specification:'Rayhound, Normal';fill:#250657;stroke-linecap:round;stroke-linejoin:round;paint-order:stroke fill markers"
         d="m 17.179733,53.072436 c -1.496123,0 -2.770767,0.505035 -3.664254,1.398523 -0.893487,0.893487 -1.398522,2.167563 -1.398522,3.663687 0,1.496121 0.505035,2.770765 1.398522,3.664254 0.893487,0.893487 2.168131,1.396256 3.664254,1.396256 1.490043,0 2.762279,-0.502786 3.654058,-1.396256 0.891778,-0.893471 1.394557,-2.168133 1.394557,-3.664254 0,-1.496124 -0.502779,-2.770217 -1.394557,-3.663687 -0.891779,-0.89347 -2.164015,-1.398523 -3.654058,-1.398523 z m 11.119075,0 c -1.496121,0 -2.770766,0.505035 -3.664253,1.398523 -0.89349,0.893487 -1.397957,2.167563 -1.397957,3.663687 0,1.496121 0.504467,2.770765 1.397957,3.664254 0.893487,0.893487 2.168132,1.396256 3.664253,1.396256 1.490045,0 2.760581,-0.502786 3.652359,-1.396256 0.891777,-0.893471 1.396256,-2.168133 1.396256,-3.664254 0,-1.496124 -0.504479,-2.770217 -1.396256,-3.663687 -0.891778,-0.89347 -2.162314,-1.398523 -3.652359,-1.398523 z M 4.4865408,53.288814 c -0.150989,2.58e-4 -0.2733289,0.122598 -0.2735871,0.273587 v 7.619087 c 0,0.553662 0.1424919,1.019329 0.4610763,1.337914 0.3185844,0.318585 0.7819854,0.461076 1.3356485,0.461076 h 1.6522844 c 0.1509889,-2.58e-4 0.2733289,-0.122598 0.273587,-0.273587 v -3.486393 h 1.1096418 c 0.5536632,0 1.0187643,-0.141927 1.3373473,-0.46051 0.318584,-0.318585 0.461077,-0.782552 0.461077,-1.336215 v -0.126881 c 6.81e-4,-0.151432 -0.121589,-0.274716 -0.273021,-0.275286 H 7.9355499 v -1.535033 h 1.8341093 c 0.5536628,0 1.0170638,-0.142493 1.3356488,-0.461077 0.318584,-0.318583 0.462775,-0.782552 0.462775,-1.336214 v -0.126881 c -2.58e-4,-0.151654 -0.123634,-0.274268 -0.275286,-0.273587 H 6.1365594 5.5525672 Z m 30.1421532,0 c -0.150766,5.69e-4 -0.272763,0.122818 -0.27302,0.273587 v 7.619087 c 0,0.553661 0.141925,1.01933 0.46051,1.337914 0.318583,0.318584 0.784251,0.461076 1.337914,0.461076 h 0.113286 1.537299 0.775446 c 1.426405,0 2.642292,-0.482485 3.496023,-1.337914 0.853733,-0.855429 1.336215,-2.075448 1.336215,-3.507918 0,-1.432472 -0.482482,-2.654187 -1.336215,-3.509618 -0.853731,-0.855429 -2.069618,-1.336213 -3.496023,-1.336214 H 36.280979 35.0994 Z m -17.448961,1.535599 c 0.556325,0 1.007086,0.408052 1.285236,0.994089 0.278148,0.586038 0.423691,1.378718 0.423691,2.316144 0,0.937426 -0.146134,1.736262 -0.423691,2.328039 -0.27756,0.591775 -0.726184,1.005984 -1.285236,1.005984 -0.563437,0 -1.01538,-0.413825 -1.294866,-1.005984 -0.279485,-0.592161 -0.425957,-1.390613 -0.425957,-2.328039 0,-0.937426 0.145876,-1.729722 0.425957,-2.316144 0.280082,-0.58642 0.734115,-0.994089 1.294866,-0.994089 z m 11.119075,0 c 0.556326,0 1.004822,0.408052 1.28297,0.994089 0.27815,0.586038 0.425959,1.378718 0.425958,2.316144 10e-7,0.937426 -0.146132,1.736262 -0.423692,2.328039 -0.277559,0.591775 -0.726183,1.005984 -1.285236,1.005984 -0.563436,0 -1.015379,-0.413825 -1.294865,-1.005984 -0.279486,-0.592161 -0.427657,-1.390613 -0.427657,-2.328039 0,-0.937426 0.147575,-1.729722 0.427657,-2.316144 0.280082,-0.58642 0.734115,-0.994089 1.294865,-0.994089 z m 9.500211,0.174461 c 1.502095,0.139499 2.151878,1.488165 2.151878,3.135206 0,1.645029 -0.64803,3.01594 -2.146214,3.160694 v -6.208669 c 0,-0.03104 -0.0047,-0.05714 -0.0057,-0.08723 z"
         inkscape:label="fill" />
    </g>
  </g>
</svg>
