<?xml version="1.0" encoding="UTF-8" standalone="no"?>
<!-- Created with Inkscape (http://www.inkscape.org/) -->

<svg
   width="46mm"
   height="66mm"
   viewBox="0 0 46 66"
   version="1.1"
   id="svg1"
   sodipodi:docname="food-token.svg"
   inkscape:version="1.3.1 (91b66b0783, 2023-11-16)"
   xmlns:inkscape="http://www.inkscape.org/namespaces/inkscape"
   xmlns:sodipodi="http://sodipodi.sourceforge.net/DTD/sodipodi-0.dtd"
   xmlns="http://www.w3.org/2000/svg"
   xmlns:svg="http://www.w3.org/2000/svg">
  <sodipodi:namedview
     id="namedview1"
     pagecolor="#ffffff"
     bordercolor="#000000"
     borderopacity="0.25"
     inkscape:showpageshadow="2"
     inkscape:pageopacity="0.0"
     inkscape:pagecheckerboard="0"
     inkscape:deskcolor="#d1d1d1"
     inkscape:document-units="mm"
     inkscape:zoom="2"
     inkscape:cx="122.75"
     inkscape:cy="85.25"
     inkscape:current-layer="layer3" />
  <defs
     id="defs1" />
  <g
     inkscape:label="ETCH"
     inkscape:groupmode="layer"
     id="layer1"
     style="display:none">
    <path
       id="rect1"
       style="display:inline;fill:#250657;stroke:none;stroke-width:3;stroke-linecap:square;paint-order:stroke fill markers"
       inkscape:label="cut"
       d="M 6.0001506,0 C 2.6761539,0 0,2.6761539 0,6.0001506 V 59.999955 c 0,3.323997 2.6761539,6.000151 6.0001506,6.000151 H 40.000142 c 3.323997,0 5.999634,-2.676154 5.999634,-6.000151 V 6.0001506 C 45.999776,2.6761539 43.324139,0 40.000142,0 Z" />
    <path
       id="path9"
       style="color:#000000;display:inline;fill:#d6a206;stroke-linecap:square;-inkscape-stroke:none;paint-order:stroke fill markers"
       d="m 5.3691813,50.49976 c -1.0258968,1.03e-4 -1.869034,0.84301 -1.8691365,1.869136 v 6.951514 c 0,0.785284 0.2187451,1.689459 0.894519,2.36523 0.675443,0.675447 1.5781273,0.89452 2.3631633,0.89452 H 36.472709 c 1.667827,0 3.227662,-0.587376 4.335653,-1.697571 1.108006,-1.110208 1.691886,-2.672096 1.691886,-4.343404 0,-1.671307 -0.583698,-3.233531 -1.691886,-4.343921 -1.108173,-1.110375 -2.668159,-1.695504 -4.335653,-1.695504 z m 11.5796547,1.421619 c 1.359385,0 2.520066,0.460767 3.333647,1.275891 0.81358,0.815124 1.272274,1.977498 1.272274,3.342431 0,1.364931 -0.458694,2.527824 -1.272274,3.342949 -0.813581,0.815124 -1.974262,1.273824 -3.333647,1.273824 -1.364932,0 -2.527809,-0.458685 -3.342948,-1.273824 -0.81514,-0.815142 -1.275891,-1.978018 -1.275891,-3.342949 0,-1.364933 0.460751,-2.527292 1.275891,-3.342431 0.815139,-0.815141 1.978016,-1.275891 3.342948,-1.275891 z m 10.144084,0 c 1.359387,0 2.518516,0.460767 3.332096,1.275891 0.81358,0.815124 1.273824,1.977498 1.273824,3.342431 0,1.364931 -0.460244,2.527824 -1.273824,3.342949 -0.81358,0.815124 -1.972709,1.273824 -3.332096,1.273824 -1.36493,0 -2.527809,-0.458685 -3.342948,-1.273824 -0.815143,-0.815142 -1.275375,-1.978018 -1.275375,-3.342949 0,-1.364933 0.460232,-2.527292 1.275375,-3.342431 0.815139,-0.815141 1.978018,-1.275891 3.342948,-1.275891 z M 5.3686646,52.118783 h 0.9725504 0.532784 4.704106 c 0.138354,-6.22e-4 0.250912,0.111241 0.251147,0.249597 v 0.115755 c 0,0.505113 -0.131548,0.9284 -0.422196,1.219047 -0.290649,0.290648 -0.713417,0.420646 -1.218531,0.420646 H 8.5152425 v 1.400431 H 10.91923 c 0.138153,5.2e-4 0.249702,0.112995 0.249081,0.251148 v 0.115755 c 0,0.505114 -0.129998,0.928398 -0.420647,1.219047 -0.290647,0.290647 -0.714966,0.42013 -1.2200802,0.42013 H 8.5152425 v 3.180684 C 8.515007,60.848772 8.4033944,60.960385 8.2656453,60.96062 H 6.7582438 c -0.5051139,0 -0.9278817,-0.129997 -1.2185303,-0.420646 C 5.249065,60.249325 5.1190674,59.824489 5.1190674,59.319377 V 52.36838 c 2.355e-4,-0.137749 0.111848,-0.249362 0.2495972,-0.249597 z m 27.4990964,0 h 0.429431 1.077971 2.097546 c 1.301328,0 2.4106,0.438628 3.18947,1.219047 0.778871,0.78042 1.219047,1.895009 1.219047,3.201871 0,1.306861 -0.440176,2.419903 -1.219047,3.200322 -0.77887,0.780419 -1.888142,1.220597 -3.18947,1.220597 h -0.70745 -1.402499 -0.103352 c -0.505114,0 -0.92995,-0.129998 -1.220598,-0.420646 -0.290649,-0.290648 -0.420129,-0.715485 -0.420129,-1.220597 V 52.36838 c 2.34e-4,-0.137549 0.111534,-0.249078 0.24908,-0.249597 z m -15.918925,1.400948 c -0.51158,0 -0.925801,0.371923 -1.181323,0.906921 -0.255521,0.535 -0.388607,1.257824 -0.388607,2.113049 0,0.855226 0.133629,1.583666 0.388607,2.123902 0.254979,0.540234 0.667293,0.917773 1.181323,0.917773 0.51003,0 0.919317,-0.377889 1.172539,-0.917773 0.253218,-0.539886 0.386539,-1.268676 0.386539,-2.123902 0,-0.855225 -0.132782,-1.578399 -0.386539,-2.113049 -0.25376,-0.534649 -0.664996,-0.906921 -1.172539,-0.906921 z m 10.144084,0 c -0.511579,0 -0.925801,0.371923 -1.181323,0.906921 -0.255523,0.535 -0.390157,1.257824 -0.390157,2.113049 0,0.855226 0.135178,1.583666 0.390157,2.123902 0.254978,0.540234 0.667293,0.917773 1.181323,0.917773 0.510031,0 0.919318,-0.377889 1.172538,-0.917773 0.253222,-0.539886 0.386541,-1.268676 0.38654,-2.123902 1e-6,-0.855225 -0.134847,-1.578399 -0.388607,-2.113049 -0.253758,-0.534649 -0.662928,-0.906921 -1.170471,-0.906921 z m 8.667171,0.159163 c 9.12e-4,0.02745 0.0052,0.05126 0.0052,0.07958 v 5.664253 c 1.366812,-0.13206 1.95802,-1.382764 1.95802,-2.883544 0,-1.502617 -0.592808,-2.733024 -1.963188,-2.860291 z"
       inkscape:label="text" />
    <path
       id="path4"
       style="display:inline;fill:#d6a206;stroke-linecap:square;paint-order:stroke fill markers"
       d="m 23.000146,3.9997559 c -2.393369,-1.26e-5 -4.590947,0.6969543 -6.558256,1.8918741 0.130541,0.5236607 0.278064,1.054289 0.424264,1.4960328 1.845581,-1.1996045 3.899063,-1.8877518 6.132959,-1.8877401 6.160715,-3.28e-5 10.9658,5.1812363 13.755233,12.1367273 -0.502005,0.06712 -1.018956,0.130352 -1.550293,0.189652 -3.608146,0.402673 -7.848823,0.624819 -12.203907,0.626835 -2.230962,-9.44e-4 -4.4167,-0.06915 -6.519498,-0.179834 -0.02915,0.11399 -0.06509,0.220294 -0.09198,0.33228 -0.09753,0.406083 -0.190419,0.787489 -0.294556,1.152901 2.23095,0.125964 4.560553,0.191857 6.906038,0.195337 4.551695,-0.0053 8.99382,-0.245421 12.760462,-0.689881 0.521692,-0.05756 1.030065,-0.118776 1.523421,-0.183451 0.369978,1.056903 0.694183,2.146484 0.972034,3.258716 0.0494,0.197732 0.09668,0.396698 0.143144,0.595829 0.03669,0.158556 0.07265,0.317631 0.107487,0.476974 0.0191,0.08664 0.03871,0.173101 0.05736,0.259932 9.31e-4,0.0043 0.0022,0.0086 0.0031,0.01292 0.0014,0.0064 0.0028,0.01274 0.0041,0.01912 0.01239,0.05913 0.02387,0.118595 0.03617,0.177767 0.03309,0.160452 0.06267,0.322125 0.09405,0.483175 -0.477569,0.07499 -0.973154,0.146693 -1.485181,0.214457 -4.038573,0.560927 -9.047836,0.869021 -14.216187,0.874365 -5.168129,-0.0052 -10.177599,-0.313092 -14.2167028,-0.873848 -0.5138938,-0.06799 -1.0111559,-0.139712 -1.4903483,-0.214974 0.00234,-0.01197 0.0054,-0.02369 0.00775,-0.03566 0.2118185,-1.079937 0.4684875,-2.143992 0.7622273,-3.186368 4.465e-4,-0.0016 0.0011,-0.0031 0.00155,-0.0047 0.054797,-0.192915 0.1113147,-0.384965 0.168982,-0.576193 0.088411,-0.295368 0.1817809,-0.587594 0.2769856,-0.878499 0.066544,-0.201874 0.1342666,-0.402943 0.2041219,-0.602547 0.4934132,0.06468 1.0016685,0.125886 1.5234213,0.183451 0.665184,0.07804 1.353479,0.149966 2.061889,0.215491 -0.07319,-0.281387 -0.143115,-0.570875 -0.216007,-0.874365 -0.05362,-0.223262 -0.121608,-0.436117 -0.182935,-0.662492 -0.375925,-0.03682 -0.742858,-0.07623 -1.106392,-0.116789 -0.531345,-0.05929 -1.0482781,-0.122047 -1.5502928,-0.189136 0.3448643,-0.860117 0.7233926,-1.68989 1.1286128,-2.489253 -0.01522,-0.01014 -0.02965,-0.02281 -0.04496,-0.03256 -0.213872,-0.13607 -0.7542363,-0.326665 -1.3585734,-0.51573 -0.4561383,0.908419 -0.8751432,1.85308 -1.2547038,2.827734 -0.039184,0.10062 -0.077916,0.201586 -0.116272,0.302824 L 7.2987395,18.585892 C 6.6814864,20.349642 6.1882,22.193145 5.8202768,24.078063 l -0.1932699,0.993221 c -0.029718,0.175465 -0.058274,0.351093 -0.085783,0.527099 -0.1968718,1.259667 -0.34029,2.532308 -0.4221964,3.80597 -0.086893,1.351185 -0.1042365,2.704043 -0.055811,4.044197 0.017613,0.487389 0.043708,0.972978 0.080099,1.456242 l 0.043925,0.487826 c 0.1847926,2.054865 0.545699,4.060362 1.09399,5.962943 l 0.1772502,0.618567 c 0.032104,0.101928 0.067516,0.202065 0.1007691,0.303341 0.3942688,1.200805 0.8664197,2.357253 1.427303,3.450435 0.063828,0.124404 0.1313478,0.24617 0.197404,0.36897 0.1193721,0.221912 0.2381234,0.444471 0.3648356,0.660941 0.5498433,0.93935 1.1892348,1.81112 1.8923906,2.62413 0.0016,0.0019 0.003,0.0038 0.0047,0.0057 0.0029,0.0039 0.0056,0.0076 0.0088,0.01137 0.0024,0.0028 0.0048,0.0055 0.0072,0.0083 0.0069,0.0079 0.01325,0.01636 0.02015,0.02429 0.04456,0.04212 0.103043,0.0664 0.164331,0.06821 h 1.345654 c 0.138158,6.3e-5 0.250177,-0.111956 0.250114,-0.250114 -0.0018,-0.05099 -0.01907,-0.100215 -0.04961,-0.141077 -0.0179,-0.01863 -0.03594,-0.03709 -0.05374,-0.05581 -0.763513,-0.802787 -1.449019,-1.690014 -2.048971,-2.657719 0.632069,0.08876 1.287849,0.170264 1.962155,0.244946 3.303359,0.365863 7.073343,0.562379 10.948168,0.563273 3.875297,-10e-4 7.645324,-0.19839 10.948686,-0.564823 0.674841,-0.07486 1.330677,-0.156546 1.963188,-0.245463 -0.605164,0.976355 -1.297399,1.870988 -2.069124,2.679423 -6.73e-4,7.05e-4 -0.0014,0.0014 -0.0021,0.0021 -0.04636,0.04655 -0.07254,0.109483 -0.07286,0.175183 -6.3e-5,0.138159 0.111955,0.250177 0.250114,0.250114 h 1.333768 c 0.06233,-0.0015 0.121858,-0.02616 0.166915,-0.06925 0.0055,-0.0064 0.01049,-0.01326 0.01602,-0.01964 0.0051,-0.0055 0.0099,-0.01117 0.01447,-0.01705 0.0023,-0.0029 0.0046,-0.0058 0.0067,-0.0088 0.704163,-0.813844 1.344418,-1.68672 1.894975,-2.62723 0.12684,-0.216673 0.245874,-0.43933 0.365352,-0.661458 0.06613,-0.122927 0.133512,-0.24495 0.197404,-0.369486 0.561037,-1.093536 1.03351,-2.250265 1.42782,-3.451469 0.03143,-0.09576 0.06469,-0.190471 0.09509,-0.286804 l 0.181901,-0.635104 c 0.54815,-1.902303 0.909275,-3.906039 1.09399,-5.960876 l 0.04599,-0.51108 c 0.0355,-0.475605 0.06123,-0.953404 0.07855,-1.432988 0.0484,-1.340144 0.03064,-2.693017 -0.05633,-4.044197 -0.08202,-1.274319 -0.225686,-2.547605 -0.422713,-3.808037 -0.0271,-0.173339 -0.05499,-0.346527 -0.08423,-0.519348 L 40.177909,24.07605 c -0.368065,-1.884907 -0.86109,-3.728518 -1.478462,-5.492171 L 38.393005,17.70693 C 38.357535,17.61348 38.321695,17.520284 38.285518,17.42736 37.558976,15.561062 36.693306,13.799328 35.689294,12.201322 32.691372,7.4297832 28.3283,3.9997275 23.000146,3.9997559 Z m -8.763289,0.6082316 c -0.465568,1.179e-4 -0.743359,3.2320506 -1.606103,4.6131551 -0.330989,0.5298579 -0.793037,0.9948944 -1.320333,1.3306684 -1.317416,0.838889 -4.3488344,1.185466 -4.6064374,1.600419 0.1881067,0.303 1.8531016,0.572139 3.2519978,1.020609 0.4974846,0.159493 0.9579836,0.341792 1.3089636,0.557072 0.01364,0.0084 0.03218,0.01478 0.04548,0.02326 0.391531,0.249317 0.747083,0.570313 1.03973,0.93586 0.101471,0.126756 0.195379,0.258381 0.280603,0.394808 0.406751,0.651139 0.681815,1.710361 0.909505,2.651518 0.13864,0.573061 0.260816,1.098457 0.381372,1.461409 0.101406,0.305304 0.202801,0.499682 0.315226,0.499711 0.106383,-2.8e-5 0.202697,-0.183123 0.29869,-0.45992 0.118694,-0.342266 0.237741,-0.837104 0.37207,-1.395264 0.232491,-0.966027 0.513989,-2.082112 0.93586,-2.757454 0.330986,-0.529864 0.790243,-0.998482 1.319816,-1.330668 1.381699,-0.866691 4.62262,-1.171028 4.628658,-1.592151 4.1e-5,-0.0029 -5.3e-4,-0.0059 -5.16e-4,-0.0088 -1.4e-5,-0.0029 5.57e-4,-0.0055 5.16e-4,-0.0083 -0.006,-0.421085 -3.246959,-0.725459 -4.628658,-1.592151 C 16.823182,10.338649 16.51707,10.064605 16.250171,9.7585775 16.101469,9.5880777 15.961901,9.4107258 15.843477,9.2211426 15.722722,9.0278373 15.615287,8.7929457 15.515332,8.5410807 15.341399,8.1028069 15.194277,7.6023944 15.065747,7.1024089 14.740413,5.8368378 14.523881,4.6080596 14.236857,4.6079875 Z M 11.319206,20.627681 c -0.08267,0.008 -0.164487,0.02301 -0.24443,0.04444 -0.07994,0.02143 -0.158008,0.04927 -0.233577,0.08372 -0.07419,0.02488 -0.145438,0.05521 -0.213424,0.09043 -0.06799,0.03522 -0.132788,0.07538 -0.193787,0.119889 -0.061,0.04451 -0.118336,0.09349 -0.171565,0.146244 -0.05323,0.05276 -0.102085,0.109037 -0.146761,0.168982 -0.04468,0.05995 -0.08507,0.123567 -0.1204065,0.189653 -0.035342,0.06609 -0.065726,0.135012 -0.09095,0.206189 -0.025224,0.07118 -0.045103,0.144407 -0.059428,0.219625 -0.014324,0.07522 -0.023196,0.152268 -0.025838,0.230477 0.00465,0.104199 0.019946,0.20651 0.045475,0.305924 0.025529,0.09941 0.061485,0.19614 0.1064534,0.287838 0.044968,0.0917 0.099292,0.178364 0.1622641,0.259415 0.06297,0.08105 0.134401,0.156284 0.21394,0.223759 0.06542,0.06367 0.135939,0.120843 0.21084,0.171049 0.0749,0.05021 0.154325,0.09333 0.236678,0.129191 0.08235,0.03586 0.168018,0.06464 0.255798,0.08527 0.08778,0.02063 0.177537,0.03321 0.268718,0.03772 0.135304,-0.0011 0.269441,-0.02068 0.398425,-0.05736 0.128984,-0.03668 0.252817,-0.09045 0.368453,-0.160714 0.113118,-0.06727 0.215131,-0.148097 0.304891,-0.239779 0.08976,-0.09168 0.167252,-0.194348 0.230477,-0.304891 0.06323,-0.110542 0.112214,-0.229099 0.145727,-0.35295 0.03351,-0.12385 0.05157,-0.252866 0.05219,-0.384472 -6.25e-4,-0.122797 -0.01603,-0.243746 -0.04548,-0.360185 -0.02944,-0.11644 -0.07287,-0.228379 -0.128674,-0.33383 -0.05581,-0.105451 -0.124399,-0.20421 -0.204122,-0.294039 -0.07972,-0.08983 -0.170632,-0.17072 -0.271818,-0.240295 -0.06232,-0.04364 -0.127732,-0.0823 -0.195337,-0.115755 -0.06761,-0.03345 -0.137629,-0.06188 -0.209289,-0.08475 -0.07166,-0.02287 -0.144624,-0.0403 -0.219108,-0.05219 -0.07448,-0.01189 -0.150266,-0.01808 -0.226343,-0.0186 z m 23.358781,0 c -0.292614,0.0076 -0.576627,0.100659 -0.817005,0.267684 -0.418364,0.271528 -0.674428,0.733286 -0.683162,1.231967 0.0024,0.526311 0.280506,1.012892 0.732772,1.282092 0.231411,0.140623 0.496607,0.215986 0.767395,0.218074 0.364461,-0.01804 0.709883,-0.168329 0.971517,-0.422713 0.31827,-0.270021 0.509665,-0.660478 0.528133,-1.077453 -0.002,-0.605301 -0.367668,-1.150121 -0.927075,-1.381311 -0.181245,-0.07662 -0.375815,-0.116832 -0.572575,-0.11834 z m -17.519344,0.499712 c -0.167181,0.01588 -0.330517,0.05973 -0.483175,0.129707 -0.590931,0.200848 -0.995782,0.746673 -1.016475,1.370459 0.01756,0.434577 0.222895,0.840163 0.562756,1.11156 0.257695,0.234392 0.588952,0.371791 0.936894,0.388607 0.307016,-0.0106 0.603413,-0.11523 0.849043,-0.299723 0.397165,-0.272408 0.639388,-0.718979 0.651123,-1.200444 -8.41e-4,-0.546226 -0.298582,-1.048862 -0.777213,-1.312064 -0.221261,-0.122664 -0.469976,-0.187371 -0.722953,-0.188102 z m 11.67939,0 c -0.24448,0.0045 -0.484162,0.06874 -0.698149,0.187068 -0.488345,0.256939 -0.796211,0.761309 -0.801501,1.313098 0.01169,0.481742 0.254133,0.928566 0.65164,1.200961 0.245413,0.184109 0.5414,0.288541 0.84801,0.299206 0.348054,-0.01655 0.679508,-0.153776 0.937411,-0.38809 0.339984,-0.271515 0.545344,-0.677318 0.562756,-1.112077 -0.002,-0.59998 -0.361396,-1.141093 -0.913639,-1.375626 -0.185132,-0.08057 -0.384634,-0.122924 -0.586528,-0.12454 z m -5.839954,0.24753 c -0.09341,0.01576 -0.185113,0.04033 -0.273885,0.07338 -0.693257,0.128291 -1.203641,0.722119 -1.226281,1.426787 0.01887,0.408926 0.204078,0.792409 0.51263,1.061433 0.263313,0.263659 0.615369,0.41988 0.987536,0.438217 0.372177,-0.01834 0.724222,-0.174558 0.987537,-0.438217 0.308552,-0.269024 0.493756,-0.652507 0.51263,-1.061433 -0.0022,-0.657458 -0.432256,-1.236919 -1.060917,-1.429371 -0.142079,-0.0453 -0.290131,-0.06916 -0.43925,-0.0708 z m 15.966468,4.466394 c 0.115383,0.735412 0.210503,1.473931 0.285254,2.215885 l -0.118856,0.01705 c -0.440189,0.06424 -0.903342,0.123359 -1.368909,0.181901 -4.206686,0.528976 -9.396202,0.824535 -14.76189,0.82579 -5.365524,-0.0011 -10.555283,-0.295613 -14.7624059,-0.824239 -0.4654595,-0.05848 -0.9282843,-0.11718 -1.368392,-0.181385 l -0.1193725,-0.01757 c 0.074676,-0.741937 0.169431,-1.480488 0.2847371,-2.215885 l 0.01602,0.0026 c 0.4726837,0.07747 0.9674012,0.149391 1.469161,0.219108 4.1373783,0.574851 9.2129423,0.885675 14.4802523,0.888318 5.267173,-0.0029 10.342811,-0.314669 14.479737,-0.889868 0.501817,-0.06977 0.996453,-0.141617 1.469161,-0.219108 z m 0.421679,3.711401 c 0.0879,1.394532 0.09955,2.788866 0.03617,4.164087 l -0.363802,0.0646 c -0.366614,0.06486 -0.761181,0.123942 -1.152385,0.183968 -4.056218,0.622405 -9.37002,0.983984 -14.904516,0.987536 C 17.46565,34.949409 12.15101,34.588022 8.0940756,33.965373 7.7034903,33.905423 7.3093126,33.846163 6.9432414,33.781405 l -0.3658691,-0.0646 c -0.063399,-1.374552 -0.051532,-2.768164 0.036174,-4.16202 l 0.038757,0.0062 c 0.4689468,0.06841 0.9598983,0.131879 1.4552084,0.193787 4.2814863,0.535131 9.4975593,0.826767 14.8926303,0.827856 5.395269,-0.0013 10.611014,-0.294423 14.892115,-0.829923 0.495374,-0.06197 0.986219,-0.12534 1.455208,-0.193787 z M 6.6838298,35.258313 c 0.4907801,0.0832 1.0027494,0.162466 1.5342732,0.237712 0.1747611,0.02804 0.3520758,0.0556 0.5317505,0.08268 v 1.432471 1.401981 0.453202 2.210201 C 8.3998953,41.032447 8.0571127,40.986591 7.7220093,40.939103 l -5.168e-4,-5.17e-4 C 7.3386702,39.609946 7.051552,38.220861 6.856429,36.793103 6.849729,36.744223 6.843279,36.695313 6.836792,36.646342 6.7762111,36.187515 6.7259996,35.724351 6.6838298,35.25883 Z m 32.6321162,0 c -0.04217,0.466156 -0.09227,0.930081 -0.152962,1.389579 -0.0063,0.04725 -0.01265,0.09443 -0.01912,0.141594 -0.195243,1.42996 -0.486602,2.819169 -0.869714,4.149617 -0.33397,0.04728 -0.675529,0.09299 -1.024227,0.136943 v -2.207101 -0.453202 -1.404565 -1.432471 c 0.179849,-0.02708 0.357335,-0.05465 0.532267,-0.08268 0.531297,-0.07522 1.043174,-0.154552 1.533756,-0.237712 z M 10.25002,35.762675 c 0.955326,0.112494 1.958342,0.212362 2.999817,0.29869 V 38.0106 l 0.01964,3.564123 c -0.0065,-4.79e-4 -0.01318,-8.5e-4 -0.01964,-0.0016 -1.041026,-0.0855 -2.044013,-0.184497 -2.999817,-0.296106 v -1.561662 -2.520259 z m 25.499736,0 v 1.432471 2.520259 1.561662 c -0.955803,0.111609 -1.95879,0.21061 -2.999817,0.296106 v -1.544609 -2.518192 -1.449007 c 1.041476,-0.08633 2.044491,-0.186196 2.999817,-0.29869 z m -20.999752,0.413411 c 0.977459,0.06573 1.97998,0.119788 2.999817,0.161748 v 1.488798 2.494938 1.514636 c -1.019919,-0.04213 -2.022425,-0.09635 -2.999817,-0.162264 V 37.64008 Z m 16.499768,0 v 1.463994 2.510441 1.523421 c -0.977392,0.06591 -1.979898,0.120134 -2.999817,0.162264 v -1.514119 -2.495972 -1.488281 c 1.019838,-0.04196 2.022358,-0.09601 2.999817,-0.161748 z M 19.249988,36.39106 c 0.992045,0.02913 1.994383,0.04692 2.999817,0.05323 v 1.501717 2.494938 1.502751 c -1.004919,-0.0049 -2.007237,-0.02135 -2.999817,-0.04909 v -1.502233 -2.503724 z m 7.4998,0 v 1.497067 2.50424 1.502233 c -0.992579,0.02775 -1.9949,0.04415 -2.999816,0.04909 v -1.502751 -2.494938 -1.501717 c 1.005431,-0.0063 2.007771,-0.02409 2.999816,-0.05323 z M 8.2346395,42.526603 c 0.5473505,0.0782 1.1102559,0.152005 1.6898193,0.220659 3.8645542,0.457785 8.3953612,0.704896 13.0756872,0.7059 4.680543,-0.0011 9.21089,-0.248113 13.075171,-0.7059 0.5797,-0.06868 1.142891,-0.142419 1.690336,-0.220659 -0.276792,0.764634 -0.590815,1.502201 -0.93896,2.211235 -0.584859,0.09453 -1.199083,0.181537 -1.832447,0.263033 -3.500329,0.450379 -7.680689,0.701131 -11.9941,0.702282 C 18.687069,45.702158 14.506591,45.451227 11.006047,45.000871 10.372783,44.919397 9.7583973,44.83232 9.1736003,44.737838 8.8254658,44.028806 8.5114365,43.291234 8.2346395,42.526603 Z"
       inkscape:label="egg"
       sodipodi:nodetypes="cccccccccccccsccscccccccccsccccccsccccccscccccssccccsssccccccccccccscscsccccccccssssccccsssccccccccscccccccsscssccscccscssccscssssssscssscssscscssscccsccsscccccccccccccccccccccccccccccscccccccsscccccsccccccscccccccsccccscscccccccccccccccscccccccccssccccccccccccccccccccccccccccccccccccccccccccccccccccsccscsccccscc" />
  </g>
  <g
     inkscape:groupmode="layer"
     id="layer3"
     inkscape:label="STAINED-GLASS"
     style="display:inline">
    <path
       d="M 6.0001506,0 C 2.6762004,0 0,2.6762004 0,6.0001506 V 59.999955 c 0,3.323951 2.6762004,6.000151 6.0001506,6.000151 H 40.000142 c 3.323951,0 5.999634,-2.6762 5.999634,-6.000151 V 6.0001506 C 45.999776,2.6762004 43.324093,0 40.000142,0 Z"
       style="display:inline;fill:#afecda;stroke-width:6.00001;stroke-linecap:round;stroke-linejoin:round;paint-order:fill markers stroke"
       id="path71"
       inkscape:label="cut"
       sodipodi:nodetypes="sssssssss" />
    <path
       d="M 6.0001506,0 C 2.6762004,0 0,2.6762004 0,6.0001506 V 59.999955 c 0,3.323951 2.6762004,6.000151 6.0001506,6.000151 H 40.000142 c 3.323951,0 5.999634,-2.6762 5.999634,-6.000151 V 6.0001506 C 45.999776,2.6762004 43.324093,0 40.000142,0 Z m 0,2.9998169 H 40.000142 c 1.71377,0 2.999817,1.2862541 2.999817,3.0003337 V 6.9995728 47.171281 c 0,1.661978 -1.337838,2.999817 -2.999817,2.999817 H 5.9996338 c -1.6619784,0 -2.9998169,-1.337839 -2.9998169,-2.999817 V 6.9995728 6.0001506 c 0,-1.7137686 1.2865651,-3.0003337 3.0003337,-3.0003337 z M 16.367476,53.170915 c 2.857463,0 4.77542,1.918175 4.77542,4.788338 0,2.870163 -1.917957,4.787821 -4.77542,4.787821 -2.870162,0 -4.787821,-1.917658 -4.787821,-4.787821 0,-2.870163 1.917659,-4.788338 4.787821,-4.788338 z m 11.118702,0 c 2.857462,0 4.775419,1.918175 4.775419,4.788338 0,2.870163 -1.917957,4.787821 -4.775419,4.787821 -2.870163,0 -4.787822,-1.917658 -4.787822,-4.787821 0,-2.870163 1.917659,-4.788338 4.787822,-4.788338 z M 3.6736776,53.386922 h 1.651062 5.1562744 v 0.127124 c 0,1.015987 -0.5079512,1.523938 -1.523938,1.523938 H 6.8486776 v 2.083077 h 2.9083496 v 0.126607 c 0,1.015987 -0.5079512,1.523938 -1.523938,1.523938 H 6.8486776 v 3.759461 h -1.651062 c -1.0159868,0 -1.523938,-0.507951 -1.523938,-1.523938 z m 30.1433794,0 h 0.470256 3.479374 c 2.730464,0 4.559412,1.829167 4.559412,4.572331 0,2.743164 -1.828948,4.571814 -4.559412,4.571814 h -2.31097 -0.114722 c -1.015986,0 -1.523938,-0.507951 -1.523938,-1.523938 z m 3.170349,1.451074 c 6.61e-4,0.02525 0.0047,0.04695 0.0047,0.07286 v 6.193937 c 1.491052,-0.149909 2.146639,-1.504175 2.146639,-3.145544 0,-1.64309 -0.656897,-2.976273 -2.15129,-3.121257 z m -20.61993,0.08578 c -0.863594,0 -1.447973,1.219387 -1.447973,3.035474 0,1.816087 0.584379,3.060278 1.447973,3.060278 0.850894,0 1.435055,-1.244191 1.435055,-3.060278 0,-1.816087 -0.584161,-3.035474 -1.435055,-3.035474 z m 11.118702,0 c -0.863596,0 -1.447457,1.219383 -1.447457,3.035474 0,1.816091 0.583861,3.060278 1.447457,3.060278 0.850895,0 1.435054,-1.244187 1.435054,-3.060278 0,-1.816091 -0.584159,-3.035474 -1.435054,-3.035474 z"
       style="fill:#0c4836;stroke-width:6.00001;stroke-linecap:round;stroke-linejoin:round;paint-order:fill markers stroke"
       id="path70"
       inkscape:label="border" />
    <path
       d="m 17.247009,5.3133708 c -1.973778,4.996e-4 -1.820332,3.1103745 -2.422074,4.0736531 -0.122085,0.1954382 -0.314482,0.3905396 -0.51108,0.5157308 -0.915195,0.5827653 -3.119457,0.4804813 -3.837492,1.6371093 -0.293988,0.473737 -0.293988,1.07294 0,1.546676 0.406471,0.654736 1.104671,0.877159 1.844849,1.039213 0.690063,0.151082 1.416768,0.250013 1.979724,0.595312 0.02062,0.01273 0.02092,0.01238 0.03772,0.02274 -0.0083,-0.0056 -0.01646,-0.01329 -0.02481,-0.0186 l -0.0015,-0.0015 c 0.172017,0.109683 0.132018,0.08527 0.02636,0.02015 0.136956,0.09122 0.272707,0.212305 0.380338,0.346749 0.513454,0.641355 0.575406,2.299391 1.118278,3.309875 0.111459,0.207467 0.23659,0.396861 0.397392,0.534335 0.199866,0.17087 0.652146,0.383606 1.012341,0.378271 0.852488,-0.01263 1.754677,-0.729331 2.36838,-0.965832 0.06321,-0.02419 0.128759,-0.03873 0.194304,-0.04961 0.237106,-0.03936 0.482369,0.0048 0.690397,0.133842 0.845607,0.526846 1.69141,1.553377 2.537313,2.079749 l 2.962609,-2.0875 c 0.25401,-0.13617 0.554451,-0.156127 0.824239,-0.05478 0.795905,0.12923 2.396753,1.297368 2.396753,1.297368 1.110142,-0.895122 1.873239,-1.663834 2.746603,-2.365519 0.815773,-0.655415 1.752587,1.667643 2.045353,2.631363 l -0.101803,-0.05684 -1.592956,-0.609782 c -1.017573,0.639824 -1.535077,1.279759 -2.552527,1.919779 -0.264275,0.167319 -0.591656,0.201373 -0.884701,0.09198 L 26.5467,19.901855 23.472469,22.048267 c -0.315794,0.169259 -0.698059,0.156631 -1.002006,-0.03307 l -2.605009,-2.123157 -2.109432,1.306669 c -0.257637,0.09889 -0.544723,0.08691 -0.793233,-0.03307 l -3.142672,-1.761649 -1.922652,0.797367 c 0,0 1.033013,-3.206522 1.823145,-2.824633 l 0.790132,0.381889 c -0.04576,-0.178858 -0.08773,-0.356811 -0.128157,-0.525033 -0.191135,-0.795387 -0.440458,-1.51334 -0.444418,-1.518253 -0.03682,-0.04599 -0.104467,-0.103913 -0.148828,-0.134876 -0.0036,-0.0023 -0.0067,-0.0043 -0.01137,-0.0072 -0.318895,-0.1956 -0.972285,-0.311764 -1.753381,-0.488343 -0.06467,-0.01462 -0.137648,-0.03888 -0.205155,-0.05581 -0.623008,1.201995 -1.158413,2.483008 -1.599903,3.819405 -0.192722,0.583375 -0.3564833,1.181902 -0.5141803,1.783354 -0.2289097,0.873053 -0.428726,1.758217 -0.5829101,2.657719 -0.1937729,1.130455 -0.3318595,2.275904 -0.40566,3.423563 -0.022869,0.355634 -0.027587,0.711311 -0.038757,1.067118 -0.1248102,3.975509 0.4842393,7.933011 2.1094314,11.279415 0.193163,0.397739 0.396482,0.789514 0.618567,1.168921 5.175775,8.842235 18.007619,8.847291 23.187732,-0.0021 0.221397,-0.378218 0.423844,-0.768901 0.6165,-1.165303 1.625999,-3.345616 2.236405,-7.301166 2.112016,-11.276315 -0.01118,-0.357335 -0.0163,-0.714587 -0.03927,-1.071769 -0.07383,-1.147127 -0.212026,-2.292045 -0.40566,-3.422013 C 36.671429,22.08948 36.400254,20.905629 36.061365,19.75535 35.945799,19.363127 35.822192,18.975359 35.691361,18.59163 35.1077,16.879727 34.372408,15.260158 33.490462,13.788822 33.413113,13.659784 33.337525,13.528988 33.257918,13.402283 30.90947,9.664337 27.369871,6.842077 23.000146,6.8419596 c -1.015693,-3.82e-5 -1.984332,0.1582692 -2.905765,0.4392497 0.222579,0.801378 0.377356,1.5034789 0.422713,1.5761312 0.06492,0.1196317 0.210047,0.2869555 0.415428,0.2588986 4.458211,-1.0201328 8.032122,1.5936769 10.502719,5.1547249 -4.557306,0.867506 -9.541389,0.711661 -11.449427,0.61185 0.0622,-0.05511 0.124081,-0.113644 0.187586,-0.153479 0.718456,-0.450666 2.897994,-0.554236 3.648356,-1.340486 0.572671,-0.600065 0.573256,-1.550614 0,-2.15129 C 23.073924,10.454116 20.888142,10.344889 20.1734,9.8965552 H 20.1718 C 19.998602,9.7879301 19.865877,9.6366074 19.772953,9.5187988 19.734012,9.4694292 19.682078,9.4078264 19.669084,9.3870239 19.426554,8.9987743 19.30418,8.3163319 19.137333,7.6196899 18.865692,6.4854959 18.475248,5.3136788 17.24856,5.3133708 Z m 0,0.9999389 h 0.0016 c 0.238088,5.98e-5 0.262348,0.029394 0.378271,0.1591634 0.115923,0.1297697 0.26296,0.4154265 0.380855,0.7932333 0.07729,0.2476772 0.13159,0.5229709 0.186552,0.8071859 0.112719,0.5828726 0.236536,1.2195277 0.626835,1.8443318 0.01206,0.019311 0.02516,0.037753 0.03721,0.056844 0.156381,0.2478619 0.32141,0.4805169 0.782382,0.7694619 0.0052,0.0014 0.01032,0.0028 0.0155,0.0041 0.710029,0.440189 1.398376,0.493009 2.088761,0.664559 0.695095,0.172721 1.29948,0.459238 1.353406,0.515731 0.209209,0.219217 0.208724,0.551787 0,0.770496 -0.05651,0.05922 -0.659244,0.343673 -1.353406,0.515731 -0.694163,0.172057 -1.387172,0.21882 -2.102714,0.667659 -0.344554,0.216128 -0.604784,0.483051 -0.821139,0.829407 -0.01924,0.0308 -0.03385,0.06123 -0.05168,0.09198 -0.406137,0.700746 -0.457672,1.387588 -0.622701,2.050521 -0.172271,0.692024 -0.449176,1.247073 -0.541569,1.324983 -0.04162,0.03509 -0.223207,0.134841 -0.356567,0.134876 h -0.0016 c -0.131745,-3.4e-5 -0.321781,-0.10441 -0.362252,-0.13901 -0.114608,-0.09798 -0.381221,-0.676396 -0.557071,-1.408183 -0.577839,-2.510502 -1.112451,-3.098347 -3.460752,-3.553234 -0.138735,-0.02613 -0.277141,-0.05106 -0.401009,-0.07906 -0.64302,-0.145364 -0.956635,-0.278793 -1.139982,-0.574125 -0.0947,-0.152604 -0.0947,-0.34039 0,-0.492993 0.110239,-0.177576 0.549321,-0.415758 1.241784,-0.591695 0.644208,-0.163677 1.384671,-0.224664 2.118217,-0.635104 0.05495,-0.03075 0.110023,-0.05862 0.164848,-0.09353 0.343791,-0.218921 0.607998,-0.48655 0.822172,-0.829407 0.02237,-0.035813 0.0363,-0.070461 0.05633,-0.1059367 0.238418,-0.4222293 0.325958,-0.8229721 0.423747,-1.2361002 0.106005,-0.4478391 0.201453,-0.9036739 0.321944,-1.2851929 0.120491,-0.381519 0.27156,-0.6744694 0.392741,-0.8108032 0.121181,-0.1363339 0.148453,-0.165823 0.379305,-0.1658814 z m 12.39976,9.3973593 c 0.133462,0 0.260322,0.02696 0.376721,0.07441 0.09131,0.03723 0.17612,0.08728 0.251665,0.148311 0.07554,0.06103 0.141813,0.133212 0.196887,0.213424 0.05507,0.08021 0.09878,0.168786 0.128674,0.26355 0.02989,0.09476 0.04599,0.195551 0.04599,0.30024 3e-5,0.05843 -0.0075,0.114842 -0.01705,0.170532 -0.08109,0.470794 -0.488897,0.829893 -0.982886,0.829924 -0.552411,-3.4e-5 -1.000191,-0.448045 -0.999939,-1.000456 3.4e-5,-0.552214 0.44773,-0.999905 0.999939,-0.999939 z m -6.646623,0.636137 c 0.552419,3.3e-5 1.000191,0.448037 0.999939,1.000456 -3.3e-5,0.552209 -0.447722,0.999905 -0.999939,0.999939 -0.552209,-3.4e-5 -0.999905,-0.44773 -0.999938,-0.999939 -2.52e-4,-0.552419 0.447527,-1.000423 0.999938,-1.000456 z m -9.085233,5.116483 c 0.552215,3.4e-5 0.999905,0.447724 0.999939,0.999939 -3.4e-5,0.552222 -0.447724,0.999906 -0.999939,0.999939 -0.267911,-1.6e-5 -0.509848,-0.106975 -0.689364,-0.278536 -0.190501,-0.182058 -0.310558,-0.437092 -0.310575,-0.721403 1.4e-5,-0.224481 0.07457,-0.430553 0.199988,-0.596346 0.06271,-0.0829 0.138016,-0.156017 0.223242,-0.216007 0.08523,-0.05999 0.180298,-0.1069 0.282153,-0.138493 0.0937,-0.02906 0.191301,-0.04909 0.294556,-0.04909 z m 18.521867,0 c 0.552205,3.4e-5 0.999905,0.447735 0.999939,0.999939 -2.6e-5,0.417949 -0.257032,0.775071 -0.621151,0.924492 -0.11697,0.048 -0.244527,0.07544 -0.378788,0.07545 -0.552212,-3.3e-5 -0.999905,-0.447726 -0.999939,-0.999939 3.2e-5,-0.528321 0.411115,-0.956751 0.930176,-0.993221 0.02347,-0.0016 0.04588,-0.0067 0.06976,-0.0067 z m -13.002844,0.742439 c 0.552616,-2.52e-4 1.000707,0.447833 1.000455,1.000456 -3.3e-5,0.552414 -0.448041,1.00019 -1.000455,0.999938 -0.552219,-3.3e-5 -0.999906,-0.447726 -0.999939,-0.999938 -2.52e-4,-0.552421 0.447518,-1.000423 0.999939,-1.000456 z m 7.328544,-0.0089 c 0.552616,-2.52e-4 1.000707,0.447833 1.000455,1.000456 -3.3e-5,0.552414 -0.448041,1.00019 -1.000455,0.999938 -0.552219,-3.3e-5 -0.999906,-0.447726 -0.999939,-0.999938 -2.52e-4,-0.552421 0.447518,-1.000423 0.999939,-1.000456 z m -15.742481,1.942259 c 5.60781,1.826557 18.624856,1.730794 23.959778,5.17e-4 0.409256,1.88258 0.330733,4.004972 0.330733,4.004972 -3.478168,2.299544 -21.068837,2.34138 -24.621236,-0.0021 -0.006,-0.0026 -0.01205,-0.0052 -0.01809,-0.0078 0.02747,-1.332276 0.14336,-2.673724 0.348816,-3.995622 z m 2.894914,6.20789 c 0.552224,3.4e-5 0.999905,0.447709 0.999939,0.999939 -3.4e-5,0.552224 -0.447715,0.999905 -0.999939,0.999939 -0.55223,-3.4e-5 -0.999905,-0.447715 -0.999939,-0.999939 3.4e-5,-0.55223 0.447709,-0.999905 0.999939,-0.999939 z m 18.521867,0 c 0.552213,3.4e-5 0.999905,0.447718 0.999939,0.999939 -3.4e-5,0.552213 -0.447726,0.999905 -0.999939,0.999939 -0.552221,-3.4e-5 -0.999905,-0.447726 -0.999939,-0.999939 3.4e-5,-0.552221 0.447718,-0.999905 0.999939,-0.999939 z m -12.348084,0.546737 c 0.552227,3.3e-5 0.999906,0.44772 0.999939,0.999938 -3.3e-5,0.552227 -0.447712,0.999906 -0.999939,0.999939 -0.55222,-3.3e-5 -0.999905,-0.447712 -0.999939,-0.999939 3.4e-5,-0.552218 0.447719,-0.999905 0.999939,-0.999938 z m 6.173784,0 c 0.552417,-2.52e-4 1.000422,0.447521 1.000455,0.999938 -3.3e-5,0.552426 -0.448038,1.000191 -1.000455,0.999939 -0.552224,-3.3e-5 -0.999906,-0.447715 -0.999939,-0.999939 3.3e-5,-0.552215 0.447715,-0.999905 0.999939,-0.999938 z m -15.394926,1.156001 c 0,0 1.762783,1.764145 2.634464,2.403247 l 3.663859,-1.380566 c 0.248748,-0.05989 0.510994,-0.02216 0.732772,0.10542 l 2.202966,1.77124 2.616895,-1.265328 c 0.170038,-0.04942 0.350155,-0.05283 0.521932,-0.0098 l 3.091801,1.265328 2.413806,-1.843588 c 0.249066,-0.138367 0.545332,-0.163933 0.814421,-0.07028 l 3.044775,1.560401 2.481502,-2.163465 c -0.183824,1.803959 -0.305285,2.507993 -1.688269,3.575493 -0.266979,0.206824 -0.620322,0.264937 -0.939477,0.154512 l -3.132626,-1.589856 -2.367297,1.816199 c -0.2213,0.122822 -0.480946,0.15717 -0.726571,0.09612 l -3.211173,-1.2953 -2.76934,1.308736 c -0.26165,0.07631 -0.543121,0.04253 -0.779281,-0.09353 l -2.226737,-1.783126 -3.726388,1.394519 c -0.286493,0.06898 -0.58884,0.0081 -0.826306,-0.166398 -1.569594,-0.821341 -1.615856,-2.147273 -1.825728,-3.78995 z m 5.620328,5.049821 c 0.552428,-2.51e-4 1.000423,0.44752 1.000456,0.999939 -3.3e-5,0.552426 -0.448028,1.000191 -1.000456,0.999939 -0.552217,-3.4e-5 -0.999905,-0.447715 -0.999938,-0.999939 3.3e-5,-0.552217 0.447721,-0.999905 0.999938,-0.999939 z m 12.659176,0 c 0.552222,3.4e-5 0.999905,0.447724 0.999939,0.999939 -3.4e-5,0.552222 -0.447717,0.999905 -0.999939,0.999939 -0.552417,2.52e-4 -1.000422,-0.447515 -1.000456,-0.999939 3.4e-5,-0.552417 0.448039,-1.00019 1.000456,-0.999939 z m -6.146912,0.363802 c 0.552225,3.4e-5 0.999906,0.447723 0.999939,0.999939 -3.3e-5,0.552224 -0.447714,0.999906 -0.999939,0.999939 -0.552216,-3.3e-5 -0.999905,-0.447715 -0.999938,-0.999939 3.3e-5,-0.552216 0.447722,-0.999905 0.999938,-0.999939 z m 10.033269,1.781515 c -4.294947,7.439066 -15.718626,7.530425 -20.06602,5.17e-4 0,0 3.999163,1.325866 10.117486,1.319052 6.118323,-0.0068 9.948534,-1.319569 9.948534,-1.319569 z"
       style="fill:#0c4836;stroke-linecap:round;stroke-linejoin:round;paint-order:stroke fill markers"
       id="path69"
       sodipodi:nodetypes="sscccsccccccssacscccccsccccccccccccczcccccscsssssssssscssssccccsccsscccscssscssssscccscsssscssssssccccsscscsssccscsssccccsscccccsccscsssssccscccccccccccccccsccccsscccccccccccccccccccccccccccccccccccccccccccccccccccccccccccccczc"
       inkscape:label="egg" />
  </g>
  <g
     inkscape:groupmode="layer"
     id="layer2"
     inkscape:label="BUILD"
     style="display:none">
    <path
       id="path58"
       style="fill:#d6a206;stroke-width:1;stroke-linecap:square;paint-order:stroke fill markers"
       d="m -31.629817,4 c -2.393417,-1.26e-5 -4.59091,0.6969316 -6.558256,1.8918742 0.130542,0.5236705 0.278062,1.0542812 0.424264,1.4960332 1.845617,-1.1996273 3.899022,-1.8877523 6.132959,-1.8877406 6.160831,-3.28e-5 10.96575,5.1811032 13.755233,12.1367262 -0.502012,0.06712 -1.018944,0.130352 -1.550293,0.189653 -3.608212,0.402679 -7.848742,0.624819 -12.203907,0.626835 -2.231008,-9.44e-4 -4.41666,-0.06915 -6.519498,-0.179834 -0.02915,0.113991 -0.06509,0.220292 -0.09198,0.332279 -0.09753,0.406093 -0.190418,0.787485 -0.294556,1.152902 2.230991,0.125966 4.560505,0.191857 6.906038,0.195337 4.551779,-0.0053 8.993748,-0.245415 12.760462,-0.689881 0.521704,-0.05756 1.030053,-0.118775 1.523421,-0.183451 0.369983,1.056923 0.694179,2.146463 0.972034,3.258716 0.0494,0.197735 0.09668,0.396695 0.143144,0.595829 0.03669,0.158558 0.07265,0.317628 0.107487,0.476973 0.0191,0.08664 0.03871,0.173101 0.05736,0.259933 9.31e-4,0.0043 0.0022,0.0086 0.0031,0.01292 0.0014,0.0064 0.0028,0.01274 0.0041,0.01912 0.01239,0.05913 0.02387,0.118594 0.03617,0.177767 0.03309,0.160454 0.06267,0.322123 0.09405,0.483175 -0.477576,0.07499 -0.973142,0.146692 -1.485181,0.214457 -4.03865,0.560935 -9.047739,0.86902 -14.216187,0.874365 -5.168231,-0.0052 -10.177522,-0.31308 -14.216703,-0.873848 -0.513904,-0.06799 -1.011147,-0.139711 -1.490349,-0.214974 0.0023,-0.01197 0.0054,-0.02369 0.0078,-0.03566 0.211823,-1.079958 0.468482,-2.143969 0.762228,-3.186369 4.46e-4,-0.0016 0.0011,-0.0031 0.0016,-0.0047 0.0548,-0.192918 0.111314,-0.384962 0.168982,-0.576192 0.08841,-0.295377 0.181779,-0.58759 0.276985,-0.878499 0.06655,-0.201877 0.134265,-0.40294 0.204122,-0.602547 0.493423,0.06468 1.00166,0.125885 1.523422,0.183451 0.665198,0.07804 1.353464,0.149965 2.061889,0.215491 -0.07319,-0.281391 -0.143114,-0.570867 -0.216007,-0.874366 -0.05362,-0.223265 -0.121607,-0.436112 -0.182935,-0.662491 -0.375935,-0.03682 -0.742852,-0.07623 -1.106392,-0.116789 -0.531353,-0.05929 -1.048269,-0.122046 -1.550293,-0.189136 0.344871,-0.860134 0.723383,-1.689875 1.128613,-2.489254 -0.01522,-0.01014 -0.02965,-0.02281 -0.04496,-0.03256 -0.213875,-0.136076 -0.754225,-0.326659 -1.358574,-0.515731 -0.456147,0.908437 -0.875136,1.853062 -1.254704,2.827735 -0.03919,0.100621 -0.07792,0.201585 -0.116272,0.302824 l -0.299683,0.855816 c -0.617265,1.763785 -1.110533,3.607218 -1.478463,5.492172 l -0.19327,0.993221 c -0.02972,0.175468 -0.05827,0.351086 -0.08578,0.527099 -0.196875,1.259689 -0.340288,2.532284 -0.422196,3.805969 -0.08689,1.351214 -0.104239,2.704016 -0.05581,4.044198 0.01761,0.487396 0.04371,0.972967 0.0801,1.456242 l 0.04392,0.487825 c 0.184796,2.054904 0.545688,4.060326 1.09399,5.962944 l 0.17725,0.618567 c 0.0321,0.101929 0.06752,0.202064 0.100769,0.303341 0.394276,1.200827 0.866409,2.357232 1.427303,3.450435 0.06383,0.124406 0.131347,0.246168 0.197404,0.36897 0.119374,0.221915 0.238121,0.444463 0.364836,0.660941 2.845492,4.861216 7.738018,8.241898 14.451314,8.241874 6.714369,2.4e-5 11.605097,-3.380615 14.450798,-8.241874 0.126842,-0.216681 0.245868,-0.439327 0.365352,-0.661458 0.06613,-0.122929 0.133511,-0.244949 0.197404,-0.369487 0.561045,-1.093556 1.0335,-2.250243 1.42782,-3.451469 0.03143,-0.09576 0.06468,-0.190465 0.09508,-0.286804 l 0.181901,-0.635103 c 0.548162,-1.90234 0.909272,-3.906001 1.09399,-5.960877 l 0.04599,-0.511079 c 0.0355,-0.475612 0.06123,-0.953397 0.07855,-1.432988 0.0484,-1.340172 0.03064,-2.692989 -0.05633,-4.044198 -0.08202,-1.274342 -0.225679,-2.547582 -0.422713,-3.808036 -0.0271,-0.173346 -0.05499,-0.346525 -0.08423,-0.519348 l -0.195849,-1.000972 c -0.368075,-1.884943 -0.861076,-3.728484 -1.478462,-5.492172 l -0.306442,-0.876949 c -0.03547,-0.09345 -0.07131,-0.186644 -0.107487,-0.279569 C -17.071002,15.56127 -17.936638,13.7996 -18.940669,12.201566 -21.938648,7.4299344 -26.301564,3.9999716 -31.629817,4 Z m -8.763289,0.6082316 c -0.465574,1.179e-4 -0.74335,3.2320378 -1.606103,4.6131548 -0.33099,0.529863 -0.79303,0.9948926 -1.320333,1.3306676 -1.317427,0.838897 -4.348832,1.185465 -4.606438,1.60042 0.188109,0.303002 1.853089,0.572132 3.251998,1.020609 0.497487,0.159493 0.957978,0.341787 1.308964,0.557072 0.01364,0.0084 0.03218,0.01478 0.04548,0.02325 0.391537,0.249323 0.747082,0.570312 1.03973,0.935861 0.101476,0.126757 0.195379,0.25838 0.280603,0.394808 0.406757,0.651146 0.681814,1.710352 0.909505,2.651517 0.138641,0.573068 0.260816,1.098456 0.381372,1.46141 0.101407,0.305305 0.2028,0.499682 0.315226,0.499711 0.106383,-2.8e-5 0.202697,-0.183122 0.29869,-0.45992 0.118695,-0.342268 0.23774,-0.837101 0.37207,-1.395264 0.232492,-0.966036 0.513983,-2.082104 0.93586,-2.757454 0.330987,-0.529866 0.790236,-0.998477 1.319816,-1.330669 1.381709,-0.866699 4.622615,-1.171021 4.628658,-1.59215 4.1e-5,-0.0029 -5.3e-4,-0.0059 -5.16e-4,-0.0088 -1.4e-5,-0.0029 5.57e-4,-0.0055 5.16e-4,-0.0083 -0.006,-0.421129 -3.246949,-0.72545 -4.628658,-1.592151 -0.340113,-0.213205 -0.646226,-0.487153 -0.913126,-0.7931826 -0.148703,-0.170501 -0.28827,-0.34785 -0.406694,-0.537435 -0.120756,-0.193307 -0.22819,-0.428195 -0.328145,-0.680062 -0.173934,-0.438278 -0.321054,-0.938681 -0.449585,-1.438671 -0.325336,-1.2655822 -0.541865,-2.4943497 -0.82889,-2.4944218 z m -2.917651,16.0196934 c -0.165332,0.01596 -0.326868,0.05927 -0.478007,0.128158 -0.593531,0.199069 -1.001022,0.745827 -1.022161,1.371492 0.01861,0.416804 0.209979,0.807032 0.528134,1.076937 0.26169,0.254692 0.607309,0.405177 0.972034,0.42323 0.270613,-0.0022 0.535606,-0.07754 0.766878,-0.218074 0.452472,-0.269077 0.730775,-0.755664 0.733289,-1.282093 -0.0025,-0.491186 -0.245346,-0.950043 -0.65009,-1.228348 -0.249275,-0.174574 -0.545763,-0.269196 -0.850077,-0.271302 z m 23.358781,0 c -0.292616,0.0076 -0.576625,0.100653 -0.817005,0.267684 -0.418372,0.27153 -0.674428,0.733281 -0.683162,1.231966 0.0024,0.52632 0.280502,1.012891 0.732772,1.282093 0.231417,0.140624 0.496605,0.215986 0.767395,0.218074 0.364469,-0.01804 0.709881,-0.168327 0.971517,-0.422713 0.318277,-0.270024 0.509665,-0.660471 0.528133,-1.077454 -0.002,-0.605306 -0.367658,-1.150114 -0.927075,-1.381311 -0.181246,-0.07662 -0.375809,-0.116831 -0.572575,-0.118339 z m -17.519344,0.499711 c -0.167183,0.01588 -0.330515,0.05973 -0.483175,0.129708 -0.590943,0.20085 -0.995777,0.74666 -1.016475,1.370459 0.01756,0.434582 0.222891,0.840155 0.562756,1.11156 0.257698,0.234395 0.588948,0.371791 0.936894,0.388607 0.307024,-0.0106 0.603405,-0.115228 0.849043,-0.299723 0.39717,-0.272411 0.639387,-0.718973 0.651123,-1.200444 -8.41e-4,-0.546238 -0.298572,-1.048858 -0.777213,-1.312064 -0.221264,-0.122665 -0.469968,-0.187372 -0.722953,-0.188103 z m 11.67939,0 c -0.244483,0.0045 -0.48416,0.06874 -0.698149,0.187069 -0.488355,0.256942 -0.796211,0.761299 -0.801501,1.313098 0.01169,0.481747 0.254129,0.928562 0.65164,1.20096 0.245416,0.184111 0.541397,0.288542 0.84801,0.299207 0.348058,-0.01655 0.679506,-0.153774 0.937411,-0.38809 0.339992,-0.271522 0.545344,-0.677314 0.562756,-1.112077 -0.002,-0.599991 -0.361385,-1.14109 -0.913639,-1.375626 -0.185134,-0.08057 -0.384632,-0.122925 -0.586528,-0.124541 z m -5.839954,0.24753 c -0.09341,0.01576 -0.185112,0.04033 -0.273885,0.07338 -0.69327,0.128292 -1.20364,0.722109 -1.226281,1.426786 0.01887,0.408936 0.204074,0.792402 0.51263,1.061434 0.263317,0.263662 0.61536,0.419879 0.987536,0.438216 0.372181,-0.01834 0.724219,-0.174554 0.987537,-0.438216 0.308556,-0.269032 0.493755,-0.652498 0.51263,-1.061434 -0.0022,-0.657466 -0.432244,-1.236916 -1.060917,-1.42937 -0.142081,-0.0453 -0.290129,-0.06916 -0.43925,-0.0708 z m 15.966468,4.466394 c 0.115385,0.735427 0.210502,1.473917 0.285254,2.215886 l -0.118856,0.01705 c -0.440195,0.06424 -0.903335,0.123358 -1.368909,0.181901 -4.206765,0.528984 -9.396102,0.824535 -14.76189,0.82579 -5.365629,-0.0011 -10.555204,-0.295602 -14.762406,-0.82424 -0.465469,-0.05848 -0.928277,-0.117178 -1.368392,-0.181384 l -0.119373,-0.01757 c 0.07468,-0.741953 0.169429,-1.480473 0.284737,-2.215885 l 0.01602,0.0026 c 0.472693,0.07747 0.967392,0.14939 1.469161,0.219108 4.137457,0.574864 9.21284,0.885675 14.480253,0.888318 5.267272,-0.0029 10.342733,-0.314657 14.479737,-0.889869 0.501829,-0.06977 0.996446,-0.141611 1.469161,-0.219108 z m 0.421679,3.711402 c 0.0879,1.394557 0.09955,2.788841 0.03617,4.164087 l -0.363802,0.06459 c -0.366619,0.06486 -0.761176,0.123941 -1.152385,0.183968 -4.056295,0.622419 -9.369913,0.983985 -14.904516,0.987537 -5.536154,-0.0035 -10.850602,-0.364869 -14.907614,-0.987532 -0.390593,-0.05995 -0.784756,-0.119205 -1.150834,-0.183968 l -0.365869,-0.06459 c -0.0634,-1.374577 -0.05153,-2.768139 0.03617,-4.16202 l 0.03876,0.0057 c 0.468955,0.06841 0.959889,0.131878 1.455208,0.193787 4.281568,0.535143 9.497455,0.826767 14.892631,0.827856 5.395369,-0.0013 10.610934,-0.294411 14.892115,-0.829923 0.495386,-0.06197 0.986208,-0.125339 1.455208,-0.193787 z m -32.702397,5.705595 c 0.49079,0.0832 1.002739,0.162464 1.534273,0.237711 0.174765,0.02804 0.352073,0.0556 0.531751,0.08268 v 1.43247 1.401982 0.453202 2.210201 c -0.349965,-0.04412 -0.692734,-0.08997 -1.027844,-0.137459 -1.04e-4,-3.59e-4 -4.14e-4,-7.08e-4 -5.17e-4,-10e-4 -0.38283,-1.32867 -0.669937,-2.7177 -0.865064,-4.145483 -0.0067,-0.04888 -0.01315,-0.09779 -0.01964,-0.146761 -0.06058,-0.458834 -0.110791,-0.92198 -0.152962,-1.387512 z m 32.632117,0 c -0.04217,0.466163 -0.09227,0.93007 -0.152962,1.389579 -0.0063,0.04725 -0.01265,0.09443 -0.01912,0.141593 -0.195246,1.42999 -0.486592,2.819142 -0.869714,4.149618 -0.333975,0.04728 -0.675519,0.09299 -1.024227,0.136942 v -2.2071 -0.453202 -1.404566 -1.43247 c 0.179852,-0.02708 0.357332,-0.05465 0.532267,-0.08268 0.531309,-0.07522 1.043162,-0.15455 1.533756,-0.237711 z m -29.065926,0.504362 c 0.955344,0.112496 1.958322,0.212361 2.999817,0.29869 v 1.949235 l 0.01964,3.564123 c -0.0065,-4.79e-4 -0.01318,-10e-4 -0.01964,-0.0016 -1.041046,-0.0855 -2.043995,-0.184495 -2.999817,-0.296106 v -1.561612 -2.52026 z m 25.499736,0 v 1.43247 2.52026 1.561662 c -0.955821,0.111611 -1.95877,0.210609 -2.999817,0.296106 v -1.544609 -2.518192 -1.449007 c 1.041496,-0.08633 2.044473,-0.186194 2.999817,-0.29869 z m -20.999752,0.413411 c 0.977478,0.06573 1.979961,0.119787 2.999817,0.161747 v 1.488798 2.494939 1.514636 c -1.019938,-0.04213 -2.022406,-0.09635 -2.999817,-0.162264 v -4.033862 z m 16.499768,0 v 1.463994 2.510441 1.523421 c -0.977411,0.06591 -1.979879,0.120133 -2.999817,0.162264 v -1.51412 -2.495971 -1.488282 c 1.019857,-0.04196 2.022339,-0.09601 2.999817,-0.161747 z m -11.999784,0.214974 c 0.992064,0.02913 1.994364,0.04692 2.999817,0.05323 v 1.501717 2.494938 1.502751 c -1.004938,-0.0049 -2.007218,-0.02135 -2.999817,-0.04909 v -1.502234 -2.503723 z m 7.4998,0 v 1.497066 2.50424 1.502234 c -0.992598,0.02775 -1.99488,0.04415 -2.999816,0.04909 v -1.502751 -2.494938 -1.501717 c 1.005451,-0.0063 2.007752,-0.02409 2.999816,-0.05323 z m -18.515149,6.135543 c 0.547361,0.0782 1.110245,0.152003 1.689819,0.220658 3.864629,0.457796 8.395271,0.704896 13.075688,0.7059 4.680629,-0.0011 9.210816,-0.248102 13.075171,-0.7059 0.579708,-0.06868 1.142878,-0.142417 1.690336,-0.220658 -0.276801,0.764649 -0.590805,1.50219 -0.93896,2.211234 -0.584867,0.09453 -1.199074,0.181537 -1.832447,0.263034 -3.500398,0.45039 -7.680609,0.70113 -11.9941,0.702282 -4.313162,-9.95e-4 -8.493486,-0.251915 -11.994099,-0.702282 -0.633273,-0.08147 -1.247639,-0.16855 -1.832447,-0.263034 -0.348141,-0.709042 -0.662159,-1.446588 -0.938961,-2.211234 z m 27.677381,3.866431 c -2.651357,4.277637 -6.865261,7.106564 -12.912907,7.106543 -6.045493,2.1e-5 -10.258034,-2.828064 -12.90929,-7.104476 0.632078,0.08876 1.287839,0.170263 1.962155,0.244946 3.303425,0.365868 7.073268,0.562379 10.948168,0.563273 3.875367,-10e-4 7.645262,-0.198384 10.948686,-0.564823 0.674851,-0.07486 1.330668,-0.156545 1.963188,-0.245463 z"
       inkscape:label="egg" />
    <g
       id="text58"
       inkscape:label="text"
       transform="matrix(0.9123136,0,0,0.9123136,-53.354359,3.5026732)"
       style="stroke-width:1.09611">
      <path
         style="color:#000000;-inkscape-font-specification:'Rayhound, Normal';fill:#d6a206;stroke-width:1.09611;stroke-linecap:round;stroke-linejoin:round;-inkscape-stroke:none;paint-order:stroke fill markers"
         d="m 4.4863281,52.0625 c -0.8283928,8.3e-5 -1.4999172,0.671607 -1.5,1.5 v 7.619141 c 0,0.757999 0.2127598,1.597525 0.8203125,2.205078 0.6075528,0.607553 1.4451258,0.820312 2.203125,0.820312 H 38.580078 c 1.700132,0 3.26438,-0.596176 4.365234,-1.699219 1.100855,-1.103042 1.69336,-2.668115 1.69336,-4.373046 0,-1.704932 -0.592505,-3.271958 -1.69336,-4.375 C 41.844458,52.656723 40.28021,52.0625 38.580078,52.0625 Z"
         id="path59"
         sodipodi:nodetypes="ccssssssssc"
         inkscape:label="bg" />
      <path
         id="path66"
         style="-inkscape-font-specification:'Rayhound, Normal';fill:#250657;stroke-linecap:round;stroke-linejoin:round;paint-order:stroke fill markers"
         d="m 17.179733,53.072436 c -1.496123,0 -2.770767,0.505035 -3.664254,1.398523 -0.893487,0.893487 -1.398522,2.167563 -1.398522,3.663687 0,1.496121 0.505035,2.770765 1.398522,3.664254 0.893487,0.893487 2.168131,1.396256 3.664254,1.396256 1.490043,0 2.762279,-0.502786 3.654058,-1.396256 0.891778,-0.893471 1.394557,-2.168133 1.394557,-3.664254 0,-1.496124 -0.502779,-2.770217 -1.394557,-3.663687 -0.891779,-0.89347 -2.164015,-1.398523 -3.654058,-1.398523 z m 11.119075,0 c -1.496121,0 -2.770766,0.505035 -3.664253,1.398523 -0.89349,0.893487 -1.397957,2.167563 -1.397957,3.663687 0,1.496121 0.504467,2.770765 1.397957,3.664254 0.893487,0.893487 2.168132,1.396256 3.664253,1.396256 1.490045,0 2.760581,-0.502786 3.652359,-1.396256 0.891777,-0.893471 1.396256,-2.168133 1.396256,-3.664254 0,-1.496124 -0.504479,-2.770217 -1.396256,-3.663687 -0.891778,-0.89347 -2.162314,-1.398523 -3.652359,-1.398523 z M 4.4865408,53.288814 c -0.150989,2.58e-4 -0.2733289,0.122598 -0.2735871,0.273587 v 7.619087 c 0,0.553662 0.1424919,1.019329 0.4610763,1.337914 0.3185844,0.318585 0.7819854,0.461076 1.3356485,0.461076 h 1.6522844 c 0.1509889,-2.58e-4 0.2733289,-0.122598 0.273587,-0.273587 v -3.486393 h 1.1096418 c 0.5536632,0 1.0187643,-0.141927 1.3373473,-0.46051 0.318584,-0.318585 0.461077,-0.782552 0.461077,-1.336215 v -0.126881 c 6.81e-4,-0.151432 -0.121589,-0.274716 -0.273021,-0.275286 H 7.9355499 v -1.535033 h 1.8341093 c 0.5536628,0 1.0170638,-0.142493 1.3356488,-0.461077 0.318584,-0.318583 0.462775,-0.782552 0.462775,-1.336214 v -0.126881 c -2.58e-4,-0.151654 -0.123634,-0.274268 -0.275286,-0.273587 H 6.1365594 5.5525672 Z m 30.1421532,0 c -0.150766,5.69e-4 -0.272763,0.122818 -0.27302,0.273587 v 7.619087 c 0,0.553661 0.141925,1.01933 0.46051,1.337914 0.318583,0.318584 0.784251,0.461076 1.337914,0.461076 h 0.113286 1.537299 0.775446 c 1.426405,0 2.642292,-0.482485 3.496023,-1.337914 0.853733,-0.855429 1.336215,-2.075448 1.336215,-3.507918 0,-1.432472 -0.482482,-2.654187 -1.336215,-3.509618 -0.853731,-0.855429 -2.069618,-1.336213 -3.496023,-1.336214 H 36.280979 35.0994 Z m -17.448961,1.535599 c 0.556325,0 1.007086,0.408052 1.285236,0.994089 0.278148,0.586038 0.423691,1.378718 0.423691,2.316144 0,0.937426 -0.146134,1.736262 -0.423691,2.328039 -0.27756,0.591775 -0.726184,1.005984 -1.285236,1.005984 -0.563437,0 -1.01538,-0.413825 -1.294866,-1.005984 -0.279485,-0.592161 -0.425957,-1.390613 -0.425957,-2.328039 0,-0.937426 0.145876,-1.729722 0.425957,-2.316144 0.280082,-0.58642 0.734115,-0.994089 1.294866,-0.994089 z m 11.119075,0 c 0.556326,0 1.004822,0.408052 1.28297,0.994089 0.27815,0.586038 0.425959,1.378718 0.425958,2.316144 10e-7,0.937426 -0.146132,1.736262 -0.423692,2.328039 -0.277559,0.591775 -0.726183,1.005984 -1.285236,1.005984 -0.563436,0 -1.015379,-0.413825 -1.294865,-1.005984 -0.279486,-0.592161 -0.427657,-1.390613 -0.427657,-2.328039 0,-0.937426 0.147575,-1.729722 0.427657,-2.316144 0.280082,-0.58642 0.734115,-0.994089 1.294865,-0.994089 z m 9.500211,0.174461 c 1.502095,0.139499 2.151878,1.488165 2.151878,3.135206 0,1.645029 -0.64803,3.01594 -2.146214,3.160694 v -6.208669 c 0,-0.03104 -0.0047,-0.05714 -0.0057,-0.08723 z"
         inkscape:label="fill" />
    </g>
  </g>
</svg>
