<?xml version="1.0" encoding="UTF-8" standalone="no"?>
<!-- Created with Inkscape (http://www.inkscape.org/) -->

<svg
   width="46mm"
   height="66mm"
   viewBox="0 0 46 66"
   version="1.1"
   id="svg1"
   sodipodi:docname="food-token.svg"
   inkscape:version="1.3.1 (91b66b0783, 2023-11-16)"
   xmlns:inkscape="http://www.inkscape.org/namespaces/inkscape"
   xmlns:sodipodi="http://sodipodi.sourceforge.net/DTD/sodipodi-0.dtd"
   xmlns="http://www.w3.org/2000/svg"
   xmlns:svg="http://www.w3.org/2000/svg">
  <sodipodi:namedview
     id="namedview1"
     pagecolor="#ffffff"
     bordercolor="#000000"
     borderopacity="0.25"
     inkscape:showpageshadow="2"
     inkscape:pageopacity="0.0"
     inkscape:pagecheckerboard="0"
     inkscape:deskcolor="#d1d1d1"
     inkscape:document-units="mm"
     inkscape:zoom="2"
     inkscape:cx="48.75"
     inkscape:cy="121.25"
     inkscape:current-layer="layer1" />
  <defs
     id="defs1" />
  <g
     inkscape:label="Layer 1"
     inkscape:groupmode="layer"
     id="layer1"
     style="display:inline">
    <path
       id="rect1"
       style="display:inline;fill:#250657;stroke:none;stroke-width:3;stroke-linecap:square;paint-order:stroke fill markers"
       inkscape:label="cut"
       d="M 6.0001506,0 C 2.6761539,0 0,2.6761539 0,6.0001506 V 59.999955 c 0,3.323997 2.6761539,6.000151 6.0001506,6.000151 H 40.000142 c 3.323997,0 5.999634,-2.676154 5.999634,-6.000151 V 6.0001506 C 45.999776,2.6761539 43.324139,0 40.000142,0 Z" />
    <path
       id="path9"
       style="display:inline;color:#000000;fill:#d6a206;stroke-linecap:square;-inkscape-stroke:none;paint-order:stroke fill markers"
       d="M 5.3691813 50.49976 C 4.3432845 50.499863 3.5001473 51.34277 3.5000448 52.368896 L 3.5000448 59.32041 C 3.5000448 60.105694 3.7187899 61.009869 4.3945638 61.68564 C 5.0700068 62.361087 5.9726911 62.58016 6.7577271 62.58016 L 36.472709 62.58016 C 38.140536 62.58016 39.700371 61.992784 40.808362 60.882589 C 41.916368 59.772381 42.500248 58.210493 42.500248 56.539185 C 42.500248 54.867878 41.91655 53.305654 40.808362 52.195264 C 39.700189 51.084889 38.140203 50.49976 36.472709 50.49976 L 5.3691813 50.49976 z M 16.948836 51.921379 C 18.308221 51.921379 19.468902 52.382146 20.282483 53.19727 C 21.096063 54.012394 21.554757 55.174768 21.554757 56.539701 C 21.554757 57.904632 21.096063 59.067525 20.282483 59.88265 C 19.468902 60.697774 18.308221 61.156474 16.948836 61.156474 C 15.583904 61.156474 14.421027 60.697789 13.605888 59.88265 C 12.790748 59.067508 12.329997 57.904632 12.329997 56.539701 C 12.329997 55.174768 12.790748 54.012409 13.605888 53.19727 C 14.421027 52.382129 15.583904 51.921379 16.948836 51.921379 z M 27.09292 51.921379 C 28.452307 51.921379 29.611436 52.382146 30.425016 53.19727 C 31.238596 54.012394 31.69884 55.174768 31.69884 56.539701 C 31.69884 57.904632 31.238596 59.067525 30.425016 59.88265 C 29.611436 60.697774 28.452307 61.156474 27.09292 61.156474 C 25.72799 61.156474 24.565111 60.697789 23.749972 59.88265 C 22.934829 59.067508 22.474597 57.904632 22.474597 56.539701 C 22.474597 55.174768 22.934829 54.012409 23.749972 53.19727 C 24.565111 52.382129 25.72799 51.921379 27.09292 51.921379 z M 5.3686646 52.118783 L 6.341215 52.118783 L 6.873999 52.118783 L 11.578105 52.118783 C 11.716459 52.118161 11.829017 52.230024 11.829252 52.36838 L 11.829252 52.484135 C 11.829252 52.989248 11.697704 53.412535 11.407056 53.703182 C 11.116407 53.99383 10.693639 54.123828 10.188525 54.123828 L 8.5152425 54.123828 L 8.5152425 55.524259 L 10.91923 55.524259 C 11.057383 55.524779 11.168932 55.637254 11.168311 55.775407 L 11.168311 55.891162 C 11.168311 56.396276 11.038313 56.81956 10.747664 57.110209 C 10.457017 57.400856 10.032698 57.530339 9.5275838 57.530339 L 8.5152425 57.530339 L 8.5152425 60.711023 C 8.515007 60.848772 8.4033944 60.960385 8.2656453 60.96062 L 6.7582438 60.96062 C 6.2531299 60.96062 5.8303621 60.830623 5.5397135 60.539974 C 5.249065 60.249325 5.1190674 59.824489 5.1190674 59.319377 L 5.1190674 52.36838 C 5.1193029 52.230631 5.2309154 52.119018 5.3686646 52.118783 z M 32.867761 52.118783 L 33.297192 52.118783 L 34.375163 52.118783 L 36.472709 52.118783 C 37.774037 52.118783 38.883309 52.557411 39.662179 53.33783 C 40.44105 54.11825 40.881226 55.232839 40.881226 56.539701 C 40.881226 57.846562 40.44105 58.959604 39.662179 59.740023 C 38.883309 60.520442 37.774037 60.96062 36.472709 60.96062 L 35.765259 60.96062 L 34.36276 60.96062 L 34.259408 60.96062 C 33.754294 60.96062 33.329458 60.830622 33.03881 60.539974 C 32.748161 60.249326 32.618681 59.824489 32.618681 59.319377 L 32.618681 52.36838 C 32.618915 52.230831 32.730215 52.119302 32.867761 52.118783 z M 16.948836 53.519731 C 16.437256 53.519731 16.023035 53.891654 15.767513 54.426652 C 15.511992 54.961652 15.378906 55.684476 15.378906 56.539701 C 15.378906 57.394927 15.512535 58.123367 15.767513 58.663603 C 16.022492 59.203837 16.434806 59.581376 16.948836 59.581376 C 17.458866 59.581376 17.868153 59.203487 18.121375 58.663603 C 18.374593 58.123717 18.507914 57.394927 18.507914 56.539701 C 18.507914 55.684476 18.375132 54.961302 18.121375 54.426652 C 17.867615 53.892003 17.456379 53.519731 16.948836 53.519731 z M 27.09292 53.519731 C 26.581341 53.519731 26.167119 53.891654 25.911597 54.426652 C 25.656074 54.961652 25.52144 55.684476 25.52144 56.539701 C 25.52144 57.394927 25.656618 58.123367 25.911597 58.663603 C 26.166575 59.203837 26.57889 59.581376 27.09292 59.581376 C 27.602951 59.581376 28.012238 59.203487 28.265458 58.663603 C 28.51868 58.123717 28.651999 57.394927 28.651998 56.539701 C 28.651999 55.684476 28.517151 54.961302 28.263391 54.426652 C 28.009633 53.892003 27.600463 53.519731 27.09292 53.519731 z M 35.760091 53.678894 C 35.761003 53.706346 35.765259 53.730158 35.765259 53.758476 L 35.765259 59.422729 C 37.132071 59.290669 37.723279 58.039965 37.723279 56.539185 C 37.723279 55.036568 37.130471 53.806161 35.760091 53.678894 z "
       inkscape:label="text" />
    <path
       id="path4"
       style="display:inline;fill:#d6a206;stroke-linecap:square;paint-order:stroke fill markers"
       d="m 23.000146,3.9997559 c -2.393369,-1.26e-5 -4.590947,0.6969543 -6.558256,1.8918741 0.130541,0.5236607 0.278064,1.054289 0.424264,1.4960328 1.845581,-1.1996045 3.899063,-1.8877518 6.132959,-1.8877401 6.160715,-3.28e-5 10.9658,5.1812363 13.755233,12.1367273 -0.502005,0.06712 -1.018956,0.130352 -1.550293,0.189652 -3.608146,0.402673 -7.848823,0.624819 -12.203907,0.626835 -2.230962,-9.44e-4 -4.4167,-0.06915 -6.519498,-0.179834 -0.02915,0.11399 -0.06509,0.220294 -0.09198,0.33228 -0.09753,0.406083 -0.190419,0.787489 -0.294556,1.152901 2.23095,0.125964 4.560553,0.191857 6.906038,0.195337 4.551695,-0.0053 8.99382,-0.245421 12.760462,-0.689881 0.521692,-0.05756 1.030065,-0.118776 1.523421,-0.183451 0.369978,1.056903 0.694183,2.146484 0.972034,3.258716 0.0494,0.197732 0.09668,0.396698 0.143144,0.595829 0.03669,0.158556 0.07265,0.317631 0.107487,0.476974 0.0191,0.08664 0.03871,0.173101 0.05736,0.259932 9.31e-4,0.0043 0.0022,0.0086 0.0031,0.01292 0.0014,0.0064 0.0028,0.01274 0.0041,0.01912 0.01239,0.05913 0.02387,0.118595 0.03617,0.177767 0.03309,0.160452 0.06267,0.322125 0.09405,0.483175 -0.477569,0.07499 -0.973154,0.146693 -1.485181,0.214457 -4.038573,0.560927 -9.047836,0.869021 -14.216187,0.874365 -5.168129,-0.0052 -10.177599,-0.313092 -14.2167028,-0.873848 -0.5138938,-0.06799 -1.0111559,-0.139712 -1.4903483,-0.214974 0.00234,-0.01197 0.0054,-0.02369 0.00775,-0.03566 0.2118185,-1.079937 0.4684875,-2.143992 0.7622273,-3.186368 4.465e-4,-0.0016 0.0011,-0.0031 0.00155,-0.0047 0.054797,-0.192915 0.1113147,-0.384965 0.168982,-0.576193 0.088411,-0.295368 0.1817809,-0.587594 0.2769856,-0.878499 0.066544,-0.201874 0.1342666,-0.402943 0.2041219,-0.602547 0.4934132,0.06468 1.0016685,0.125886 1.5234213,0.183451 0.665184,0.07804 1.353479,0.149966 2.061889,0.215491 -0.07319,-0.281387 -0.143115,-0.570875 -0.216007,-0.874365 -0.05362,-0.223262 -0.121608,-0.436117 -0.182935,-0.662492 -0.375925,-0.03682 -0.742858,-0.07623 -1.106392,-0.116789 -0.531345,-0.05929 -1.0482781,-0.122047 -1.5502928,-0.189136 0.3448643,-0.860117 0.7233926,-1.68989 1.1286128,-2.489253 -0.01522,-0.01014 -0.02965,-0.02281 -0.04496,-0.03256 -0.213872,-0.13607 -0.7542363,-0.326665 -1.3585734,-0.51573 -0.4561383,0.908419 -0.8751432,1.85308 -1.2547038,2.827734 -0.039184,0.10062 -0.077916,0.201586 -0.116272,0.302824 L 7.2987395,18.585892 C 6.6814864,20.349642 6.1882,22.193145 5.8202768,24.078063 l -0.1932699,0.993221 c -0.029718,0.175465 -0.058274,0.351093 -0.085783,0.527099 -0.1968718,1.259667 -0.34029,2.532308 -0.4221964,3.80597 -0.086893,1.351185 -0.1042365,2.704043 -0.055811,4.044197 0.017613,0.487389 0.043708,0.972978 0.080099,1.456242 l 0.043925,0.487826 c 0.1847926,2.054865 0.545699,4.060362 1.09399,5.962943 l 0.1772502,0.618567 c 0.032104,0.101928 0.067516,0.202065 0.1007691,0.303341 0.3942688,1.200805 0.8664197,2.357253 1.427303,3.450435 0.063828,0.124404 0.1313478,0.24617 0.197404,0.36897 0.1193721,0.221912 0.2381234,0.444471 0.3648356,0.660941 0.5498433,0.93935 1.1892348,1.81112 1.8923906,2.62413 0.0016,0.0019 0.003,0.0038 0.0047,0.0057 0.0029,0.0039 0.0056,0.0076 0.0088,0.01137 0.0024,0.0028 0.0048,0.0055 0.0072,0.0083 0.0069,0.0079 0.01325,0.01636 0.02015,0.02429 0.04456,0.04212 0.103043,0.0664 0.164331,0.06821 h 1.345654 c 0.138158,6.3e-5 0.250177,-0.111956 0.250114,-0.250114 -0.0018,-0.05099 -0.01907,-0.100215 -0.04961,-0.141077 -0.0179,-0.01863 -0.03594,-0.03709 -0.05374,-0.05581 -0.763513,-0.802787 -1.449019,-1.690014 -2.048971,-2.657719 0.632069,0.08876 1.287849,0.170264 1.962155,0.244946 3.303359,0.365863 7.073343,0.562379 10.948168,0.563273 3.875297,-10e-4 7.645324,-0.19839 10.948686,-0.564823 0.674841,-0.07486 1.330677,-0.156546 1.963188,-0.245463 -0.605164,0.976355 -1.297399,1.870988 -2.069124,2.679423 -6.73e-4,7.05e-4 -0.0014,0.0014 -0.0021,0.0021 -0.04636,0.04655 -0.07254,0.109483 -0.07286,0.175183 -6.3e-5,0.138159 0.111955,0.250177 0.250114,0.250114 h 1.333768 c 0.06233,-0.0015 0.121858,-0.02616 0.166915,-0.06925 0.0055,-0.0064 0.01049,-0.01326 0.01602,-0.01964 0.0051,-0.0055 0.0099,-0.01117 0.01447,-0.01705 0.0023,-0.0029 0.0046,-0.0058 0.0067,-0.0088 0.704163,-0.813844 1.344418,-1.68672 1.894975,-2.62723 0.12684,-0.216673 0.245874,-0.43933 0.365352,-0.661458 0.06613,-0.122927 0.133512,-0.24495 0.197404,-0.369486 0.561037,-1.093536 1.03351,-2.250265 1.42782,-3.451469 0.03143,-0.09576 0.06469,-0.190471 0.09509,-0.286804 l 0.181901,-0.635104 c 0.54815,-1.902303 0.909275,-3.906039 1.09399,-5.960876 l 0.04599,-0.51108 c 0.0355,-0.475605 0.06123,-0.953404 0.07855,-1.432988 0.0484,-1.340144 0.03064,-2.693017 -0.05633,-4.044197 -0.08202,-1.274319 -0.225686,-2.547605 -0.422713,-3.808037 -0.0271,-0.173339 -0.05499,-0.346527 -0.08423,-0.519348 L 40.177909,24.07605 c -0.368065,-1.884907 -0.86109,-3.728518 -1.478462,-5.492171 L 38.393005,17.70693 C 38.357535,17.61348 38.321695,17.520284 38.285518,17.42736 37.558976,15.561062 36.693306,13.799328 35.689294,12.201322 32.691372,7.4297832 28.3283,3.9997275 23.000146,3.9997559 Z m -8.763289,0.6082316 c -0.465568,1.179e-4 -0.743359,3.2320506 -1.606103,4.6131551 -0.330989,0.5298579 -0.793037,0.9948944 -1.320333,1.3306684 -1.317416,0.838889 -4.3488344,1.185466 -4.6064374,1.600419 0.1881067,0.303 1.8531016,0.572139 3.2519978,1.020609 0.4974846,0.159493 0.9579836,0.341792 1.3089636,0.557072 0.01364,0.0084 0.03218,0.01478 0.04548,0.02326 0.391531,0.249317 0.747083,0.570313 1.03973,0.93586 0.101471,0.126756 0.195379,0.258381 0.280603,0.394808 0.406751,0.651139 0.681815,1.710361 0.909505,2.651518 0.13864,0.573061 0.260816,1.098457 0.381372,1.461409 0.101406,0.305304 0.202801,0.499682 0.315226,0.499711 0.106383,-2.8e-5 0.202697,-0.183123 0.29869,-0.45992 0.118694,-0.342266 0.237741,-0.837104 0.37207,-1.395264 0.232491,-0.966027 0.513989,-2.082112 0.93586,-2.757454 0.330986,-0.529864 0.790243,-0.998482 1.319816,-1.330668 1.381699,-0.866691 4.62262,-1.171028 4.628658,-1.592151 4.1e-5,-0.0029 -5.3e-4,-0.0059 -5.16e-4,-0.0088 -1.4e-5,-0.0029 5.57e-4,-0.0055 5.16e-4,-0.0083 -0.006,-0.421085 -3.246959,-0.725459 -4.628658,-1.592151 C 16.823182,10.338649 16.51707,10.064605 16.250171,9.7585775 16.101469,9.5880777 15.961901,9.4107258 15.843477,9.2211426 15.722722,9.0278373 15.615287,8.7929457 15.515332,8.5410807 15.341399,8.1028069 15.194277,7.6023944 15.065747,7.1024089 14.740413,5.8368378 14.523881,4.6080596 14.236857,4.6079875 Z M 11.319206,20.627681 c -0.08267,0.008 -0.164487,0.02301 -0.24443,0.04444 -0.07994,0.02143 -0.158008,0.04927 -0.233577,0.08372 -0.07419,0.02488 -0.145438,0.05521 -0.213424,0.09043 -0.06799,0.03522 -0.132788,0.07538 -0.193787,0.119889 -0.061,0.04451 -0.118336,0.09349 -0.171565,0.146244 -0.05323,0.05276 -0.102085,0.109037 -0.146761,0.168982 -0.04468,0.05995 -0.08507,0.123567 -0.1204065,0.189653 -0.035342,0.06609 -0.065726,0.135012 -0.09095,0.206189 -0.025224,0.07118 -0.045103,0.144407 -0.059428,0.219625 -0.014324,0.07522 -0.023196,0.152268 -0.025838,0.230477 0.00465,0.104199 0.019946,0.20651 0.045475,0.305924 0.025529,0.09941 0.061485,0.19614 0.1064534,0.287838 0.044968,0.0917 0.099292,0.178364 0.1622641,0.259415 0.06297,0.08105 0.134401,0.156284 0.21394,0.223759 0.06542,0.06367 0.135939,0.120843 0.21084,0.171049 0.0749,0.05021 0.154325,0.09333 0.236678,0.129191 0.08235,0.03586 0.168018,0.06464 0.255798,0.08527 0.08778,0.02063 0.177537,0.03321 0.268718,0.03772 0.135304,-0.0011 0.269441,-0.02068 0.398425,-0.05736 0.128984,-0.03668 0.252817,-0.09045 0.368453,-0.160714 0.113118,-0.06727 0.215131,-0.148097 0.304891,-0.239779 0.08976,-0.09168 0.167252,-0.194348 0.230477,-0.304891 0.06323,-0.110542 0.112214,-0.229099 0.145727,-0.35295 0.03351,-0.12385 0.05157,-0.252866 0.05219,-0.384472 -6.25e-4,-0.122797 -0.01603,-0.243746 -0.04548,-0.360185 -0.02944,-0.11644 -0.07287,-0.228379 -0.128674,-0.33383 -0.05581,-0.105451 -0.124399,-0.20421 -0.204122,-0.294039 -0.07972,-0.08983 -0.170632,-0.17072 -0.271818,-0.240295 -0.06232,-0.04364 -0.127732,-0.0823 -0.195337,-0.115755 -0.06761,-0.03345 -0.137629,-0.06188 -0.209289,-0.08475 -0.07166,-0.02287 -0.144624,-0.0403 -0.219108,-0.05219 -0.07448,-0.01189 -0.150266,-0.01808 -0.226343,-0.0186 z m 23.358781,0 c -0.292614,0.0076 -0.576627,0.100659 -0.817005,0.267684 -0.418364,0.271528 -0.674428,0.733286 -0.683162,1.231967 0.0024,0.526311 0.280506,1.012892 0.732772,1.282092 0.231411,0.140623 0.496607,0.215986 0.767395,0.218074 0.364461,-0.01804 0.709883,-0.168329 0.971517,-0.422713 0.31827,-0.270021 0.509665,-0.660478 0.528133,-1.077453 -0.002,-0.605301 -0.367668,-1.150121 -0.927075,-1.381311 -0.181245,-0.07662 -0.375815,-0.116832 -0.572575,-0.11834 z m -17.519344,0.499712 c -0.167181,0.01588 -0.330517,0.05973 -0.483175,0.129707 -0.590931,0.200848 -0.995782,0.746673 -1.016475,1.370459 0.01756,0.434577 0.222895,0.840163 0.562756,1.11156 0.257695,0.234392 0.588952,0.371791 0.936894,0.388607 0.307016,-0.0106 0.603413,-0.11523 0.849043,-0.299723 0.397165,-0.272408 0.639388,-0.718979 0.651123,-1.200444 -8.41e-4,-0.546226 -0.298582,-1.048862 -0.777213,-1.312064 -0.221261,-0.122664 -0.469976,-0.187371 -0.722953,-0.188102 z m 11.67939,0 c -0.24448,0.0045 -0.484162,0.06874 -0.698149,0.187068 -0.488345,0.256939 -0.796211,0.761309 -0.801501,1.313098 0.01169,0.481742 0.254133,0.928566 0.65164,1.200961 0.245413,0.184109 0.5414,0.288541 0.84801,0.299206 0.348054,-0.01655 0.679508,-0.153776 0.937411,-0.38809 0.339984,-0.271515 0.545344,-0.677318 0.562756,-1.112077 -0.002,-0.59998 -0.361396,-1.141093 -0.913639,-1.375626 -0.185132,-0.08057 -0.384634,-0.122924 -0.586528,-0.12454 z m -5.839954,0.24753 c -0.09341,0.01576 -0.185113,0.04033 -0.273885,0.07338 -0.693257,0.128291 -1.203641,0.722119 -1.226281,1.426787 0.01887,0.408926 0.204078,0.792409 0.51263,1.061433 0.263313,0.263659 0.615369,0.41988 0.987536,0.438217 0.372177,-0.01834 0.724222,-0.174558 0.987537,-0.438217 0.308552,-0.269024 0.493756,-0.652507 0.51263,-1.061433 -0.0022,-0.657458 -0.432256,-1.236919 -1.060917,-1.429371 -0.142079,-0.0453 -0.290131,-0.06916 -0.43925,-0.0708 z m 15.966468,4.466394 c 0.115383,0.735412 0.210503,1.473931 0.285254,2.215885 l -0.118856,0.01705 c -0.440189,0.06424 -0.903342,0.123359 -1.368909,0.181901 -4.206686,0.528976 -9.396202,0.824535 -14.76189,0.82579 -5.365524,-0.0011 -10.555283,-0.295613 -14.7624059,-0.824239 -0.4654595,-0.05848 -0.9282843,-0.11718 -1.368392,-0.181385 l -0.1193725,-0.01757 c 0.074676,-0.741937 0.169431,-1.480488 0.2847371,-2.215885 l 0.01602,0.0026 c 0.4726837,0.07747 0.9674012,0.149391 1.469161,0.219108 4.1373783,0.574851 9.2129423,0.885675 14.4802523,0.888318 5.267173,-0.0029 10.342811,-0.314669 14.479737,-0.889868 0.501817,-0.06977 0.996453,-0.141617 1.469161,-0.219108 z m 0.421679,3.711401 c 0.0879,1.394532 0.09955,2.788866 0.03617,4.164087 l -0.363802,0.0646 c -0.366614,0.06486 -0.761181,0.123942 -1.152385,0.183968 -4.056218,0.622405 -9.37002,0.983984 -14.904516,0.987536 C 17.46565,34.949409 12.15101,34.588022 8.0940756,33.965373 7.7034903,33.905423 7.3093126,33.846163 6.9432414,33.781405 l -0.3658691,-0.0646 c -0.063399,-1.374552 -0.051532,-2.768164 0.036174,-4.16202 l 0.038757,0.0062 c 0.4689468,0.06841 0.9598983,0.131879 1.4552084,0.193787 4.2814863,0.535131 9.4975593,0.826767 14.8926303,0.827856 5.395269,-0.0013 10.611014,-0.294423 14.892115,-0.829923 0.495374,-0.06197 0.986219,-0.12534 1.455208,-0.193787 z M 6.6838298,35.258313 c 0.4907801,0.0832 1.0027494,0.162466 1.5342732,0.237712 0.1747611,0.02804 0.3520758,0.0556 0.5317505,0.08268 v 1.432471 1.401981 0.453202 2.210201 C 8.3998953,41.032447 8.0571127,40.986591 7.7220093,40.939103 l -5.168e-4,-5.17e-4 C 7.3386702,39.609946 7.051552,38.220861 6.856429,36.793103 6.849729,36.744223 6.843279,36.695313 6.836792,36.646342 6.7762111,36.187515 6.7259996,35.724351 6.6838298,35.25883 Z m 32.6321162,0 c -0.04217,0.466156 -0.09227,0.930081 -0.152962,1.389579 -0.0063,0.04725 -0.01265,0.09443 -0.01912,0.141594 -0.195243,1.42996 -0.486602,2.819169 -0.869714,4.149617 -0.33397,0.04728 -0.675529,0.09299 -1.024227,0.136943 v -2.207101 -0.453202 -1.404565 -1.432471 c 0.179849,-0.02708 0.357335,-0.05465 0.532267,-0.08268 0.531297,-0.07522 1.043174,-0.154552 1.533756,-0.237712 z M 10.25002,35.762675 c 0.955326,0.112494 1.958342,0.212362 2.999817,0.29869 V 38.0106 l 0.01964,3.564123 c -0.0065,-4.79e-4 -0.01318,-8.5e-4 -0.01964,-0.0016 -1.041026,-0.0855 -2.044013,-0.184497 -2.999817,-0.296106 v -1.561662 -2.520259 z m 25.499736,0 v 1.432471 2.520259 1.561662 c -0.955803,0.111609 -1.95879,0.21061 -2.999817,0.296106 v -1.544609 -2.518192 -1.449007 c 1.041476,-0.08633 2.044491,-0.186196 2.999817,-0.29869 z m -20.999752,0.413411 c 0.977459,0.06573 1.97998,0.119788 2.999817,0.161748 v 1.488798 2.494938 1.514636 c -1.019919,-0.04213 -2.022425,-0.09635 -2.999817,-0.162264 V 37.64008 Z m 16.499768,0 v 1.463994 2.510441 1.523421 c -0.977392,0.06591 -1.979898,0.120134 -2.999817,0.162264 v -1.514119 -2.495972 -1.488281 c 1.019838,-0.04196 2.022358,-0.09601 2.999817,-0.161748 z M 19.249988,36.39106 c 0.992045,0.02913 1.994383,0.04692 2.999817,0.05323 v 1.501717 2.494938 1.502751 c -1.004919,-0.0049 -2.007237,-0.02135 -2.999817,-0.04909 v -1.502233 -2.503724 z m 7.4998,0 v 1.497067 2.50424 1.502233 c -0.992579,0.02775 -1.9949,0.04415 -2.999816,0.04909 v -1.502751 -2.494938 -1.501717 c 1.005431,-0.0063 2.007771,-0.02409 2.999816,-0.05323 z M 8.2346395,42.526603 c 0.5473505,0.0782 1.1102559,0.152005 1.6898193,0.220659 3.8645542,0.457785 8.3953612,0.704896 13.0756872,0.7059 4.680543,-0.0011 9.21089,-0.248113 13.075171,-0.7059 0.5797,-0.06868 1.142891,-0.142419 1.690336,-0.220659 -0.276792,0.764634 -0.590815,1.502201 -0.93896,2.211235 -0.584859,0.09453 -1.199083,0.181537 -1.832447,0.263033 -3.500329,0.450379 -7.680689,0.701131 -11.9941,0.702282 C 18.687069,45.702158 14.506591,45.451227 11.006047,45.000871 10.372783,44.919397 9.7583973,44.83232 9.1736003,44.737838 8.8254658,44.028806 8.5114365,43.291234 8.2346395,42.526603 Z"
       inkscape:label="egg" />
    <path
       id="path70"
       style="-inkscape-font-specification:'Rayhound, Normal';display:none;fill:#c8a9fa;stroke-width:1.09611;stroke-linecap:round;stroke-linejoin:round;paint-order:stroke fill markers"
       d="m 17.179733,53.072436 c -1.496123,0 -2.770767,0.505035 -3.664254,1.398523 -0.893487,0.893487 -1.398522,2.167563 -1.398522,3.663687 0,1.496121 0.505035,2.770765 1.398522,3.664254 0.893487,0.893487 2.168131,1.396256 3.664254,1.396256 1.490043,0 2.762279,-0.502786 3.654058,-1.396256 0.891778,-0.893471 1.394557,-2.168133 1.394557,-3.664254 0,-1.496124 -0.502779,-2.770217 -1.394557,-3.663687 -0.891779,-0.89347 -2.164015,-1.398523 -3.654058,-1.398523 z m 11.119075,0 c -1.496121,0 -2.770766,0.505035 -3.664253,1.398523 -0.89349,0.893487 -1.397957,2.167563 -1.397957,3.663687 0,1.496121 0.504467,2.770765 1.397957,3.664254 0.893487,0.893487 2.168132,1.396256 3.664253,1.396256 1.490045,0 2.760581,-0.502786 3.652359,-1.396256 0.891777,-0.893471 1.396256,-2.168133 1.396256,-3.664254 0,-1.496124 -0.504479,-2.770217 -1.396256,-3.663687 -0.891778,-0.89347 -2.162314,-1.398523 -3.652359,-1.398523 z M 4.4865408,53.288814 c -0.150989,2.58e-4 -0.2733289,0.122598 -0.2735871,0.273587 v 7.619087 c 0,0.553662 0.1424919,1.019329 0.4610763,1.337914 0.3185844,0.318585 0.7819854,0.461076 1.3356485,0.461076 h 1.6522844 c 0.1509889,-2.58e-4 0.2733289,-0.122598 0.273587,-0.273587 v -3.486393 h 1.1096418 c 0.5536632,0 1.0187643,-0.141927 1.3373473,-0.46051 0.318584,-0.318585 0.461077,-0.782552 0.461077,-1.336215 v -0.126881 c 6.81e-4,-0.151432 -0.121589,-0.274716 -0.273021,-0.275286 H 7.9355499 v -1.535033 h 1.8341093 c 0.5536628,0 1.0170638,-0.142493 1.3356488,-0.461077 0.318584,-0.318583 0.462775,-0.782552 0.462775,-1.336214 v -0.126881 c -2.58e-4,-0.151654 -0.123634,-0.274268 -0.275286,-0.273587 H 6.1365594 5.5525672 Z m 30.1421532,0 c -0.150766,5.69e-4 -0.272763,0.122818 -0.27302,0.273587 v 7.619087 c 0,0.553661 0.141925,1.01933 0.46051,1.337914 0.318583,0.318584 0.784251,0.461076 1.337914,0.461076 h 0.113286 1.537299 0.775446 c 1.426405,0 2.642292,-0.482485 3.496023,-1.337914 0.853733,-0.855429 1.336215,-2.075448 1.336215,-3.507918 0,-1.432472 -0.482482,-2.654187 -1.336215,-3.509618 -0.853731,-0.855429 -2.069618,-1.336213 -3.496023,-1.336214 H 36.280979 35.0994 Z m -17.448961,1.535599 c 0.556325,0 1.007086,0.408052 1.285236,0.994089 0.278148,0.586038 0.423691,1.378718 0.423691,2.316144 0,0.937426 -0.146134,1.736262 -0.423691,2.328039 -0.27756,0.591775 -0.726184,1.005984 -1.285236,1.005984 -0.563437,0 -1.01538,-0.413825 -1.294866,-1.005984 -0.279485,-0.592161 -0.425957,-1.390613 -0.425957,-2.328039 0,-0.937426 0.145876,-1.729722 0.425957,-2.316144 0.280082,-0.58642 0.734115,-0.994089 1.294866,-0.994089 z m 11.119075,0 c 0.556326,0 1.004822,0.408052 1.28297,0.994089 0.27815,0.586038 0.425959,1.378718 0.425958,2.316144 10e-7,0.937426 -0.146132,1.736262 -0.423692,2.328039 -0.277559,0.591775 -0.726183,1.005984 -1.285236,1.005984 -0.563436,0 -1.015379,-0.413825 -1.294865,-1.005984 -0.279486,-0.592161 -0.427657,-1.390613 -0.427657,-2.328039 0,-0.937426 0.147575,-1.729722 0.427657,-2.316144 0.280082,-0.58642 0.734115,-0.994089 1.294865,-0.994089 z m 9.500211,0.174461 c 1.502095,0.139499 2.151878,1.488165 2.151878,3.135206 0,1.645029 -0.64803,3.01594 -2.146214,3.160694 v -6.208669 c 0,-0.03104 -0.0047,-0.05714 -0.0057,-0.08723 z"
       inkscape:label="text outline"
       transform="matrix(0.9123136,0,0,0.9123136,1.2755324,3.5026732)" />
  </g>
  <g
     inkscape:groupmode="layer"
     id="layer2"
     inkscape:label="BUILD"
     style="display:none">
    <path
       id="path58"
       style="fill:#d6a206;stroke-width:1;stroke-linecap:square;paint-order:stroke fill markers"
       d="m -31.629817,4 c -2.393417,-1.26e-5 -4.59091,0.6969316 -6.558256,1.8918742 0.130542,0.5236705 0.278062,1.0542812 0.424264,1.4960332 1.845617,-1.1996273 3.899022,-1.8877523 6.132959,-1.8877406 6.160831,-3.28e-5 10.96575,5.1811032 13.755233,12.1367262 -0.502012,0.06712 -1.018944,0.130352 -1.550293,0.189653 -3.608212,0.402679 -7.848742,0.624819 -12.203907,0.626835 -2.231008,-9.44e-4 -4.41666,-0.06915 -6.519498,-0.179834 -0.02915,0.113991 -0.06509,0.220292 -0.09198,0.332279 -0.09753,0.406093 -0.190418,0.787485 -0.294556,1.152902 2.230991,0.125966 4.560505,0.191857 6.906038,0.195337 4.551779,-0.0053 8.993748,-0.245415 12.760462,-0.689881 0.521704,-0.05756 1.030053,-0.118775 1.523421,-0.183451 0.369983,1.056923 0.694179,2.146463 0.972034,3.258716 0.0494,0.197735 0.09668,0.396695 0.143144,0.595829 0.03669,0.158558 0.07265,0.317628 0.107487,0.476973 0.0191,0.08664 0.03871,0.173101 0.05736,0.259933 9.31e-4,0.0043 0.0022,0.0086 0.0031,0.01292 0.0014,0.0064 0.0028,0.01274 0.0041,0.01912 0.01239,0.05913 0.02387,0.118594 0.03617,0.177767 0.03309,0.160454 0.06267,0.322123 0.09405,0.483175 -0.477576,0.07499 -0.973142,0.146692 -1.485181,0.214457 -4.03865,0.560935 -9.047739,0.86902 -14.216187,0.874365 -5.168231,-0.0052 -10.177522,-0.31308 -14.216703,-0.873848 -0.513904,-0.06799 -1.011147,-0.139711 -1.490349,-0.214974 0.0023,-0.01197 0.0054,-0.02369 0.0078,-0.03566 0.211823,-1.079958 0.468482,-2.143969 0.762228,-3.186369 4.46e-4,-0.0016 0.0011,-0.0031 0.0016,-0.0047 0.0548,-0.192918 0.111314,-0.384962 0.168982,-0.576192 0.08841,-0.295377 0.181779,-0.58759 0.276985,-0.878499 0.06655,-0.201877 0.134265,-0.40294 0.204122,-0.602547 0.493423,0.06468 1.00166,0.125885 1.523422,0.183451 0.665198,0.07804 1.353464,0.149965 2.061889,0.215491 -0.07319,-0.281391 -0.143114,-0.570867 -0.216007,-0.874366 -0.05362,-0.223265 -0.121607,-0.436112 -0.182935,-0.662491 -0.375935,-0.03682 -0.742852,-0.07623 -1.106392,-0.116789 -0.531353,-0.05929 -1.048269,-0.122046 -1.550293,-0.189136 0.344871,-0.860134 0.723383,-1.689875 1.128613,-2.489254 -0.01522,-0.01014 -0.02965,-0.02281 -0.04496,-0.03256 -0.213875,-0.136076 -0.754225,-0.326659 -1.358574,-0.515731 -0.456147,0.908437 -0.875136,1.853062 -1.254704,2.827735 -0.03919,0.100621 -0.07792,0.201585 -0.116272,0.302824 l -0.299683,0.855816 c -0.617265,1.763785 -1.110533,3.607218 -1.478463,5.492172 l -0.19327,0.993221 c -0.02972,0.175468 -0.05827,0.351086 -0.08578,0.527099 -0.196875,1.259689 -0.340288,2.532284 -0.422196,3.805969 -0.08689,1.351214 -0.104239,2.704016 -0.05581,4.044198 0.01761,0.487396 0.04371,0.972967 0.0801,1.456242 l 0.04392,0.487825 c 0.184796,2.054904 0.545688,4.060326 1.09399,5.962944 l 0.17725,0.618567 c 0.0321,0.101929 0.06752,0.202064 0.100769,0.303341 0.394276,1.200827 0.866409,2.357232 1.427303,3.450435 0.06383,0.124406 0.131347,0.246168 0.197404,0.36897 0.119374,0.221915 0.238121,0.444463 0.364836,0.660941 2.845492,4.861216 7.738018,8.241898 14.451314,8.241874 6.714369,2.4e-5 11.605097,-3.380615 14.450798,-8.241874 0.126842,-0.216681 0.245868,-0.439327 0.365352,-0.661458 0.06613,-0.122929 0.133511,-0.244949 0.197404,-0.369487 0.561045,-1.093556 1.0335,-2.250243 1.42782,-3.451469 0.03143,-0.09576 0.06468,-0.190465 0.09508,-0.286804 l 0.181901,-0.635103 c 0.548162,-1.90234 0.909272,-3.906001 1.09399,-5.960877 l 0.04599,-0.511079 c 0.0355,-0.475612 0.06123,-0.953397 0.07855,-1.432988 0.0484,-1.340172 0.03064,-2.692989 -0.05633,-4.044198 -0.08202,-1.274342 -0.225679,-2.547582 -0.422713,-3.808036 -0.0271,-0.173346 -0.05499,-0.346525 -0.08423,-0.519348 l -0.195849,-1.000972 c -0.368075,-1.884943 -0.861076,-3.728484 -1.478462,-5.492172 l -0.306442,-0.876949 c -0.03547,-0.09345 -0.07131,-0.186644 -0.107487,-0.279569 C -17.071002,15.56127 -17.936638,13.7996 -18.940669,12.201566 -21.938648,7.4299344 -26.301564,3.9999716 -31.629817,4 Z m -8.763289,0.6082316 c -0.465574,1.179e-4 -0.74335,3.2320378 -1.606103,4.6131548 -0.33099,0.529863 -0.79303,0.9948926 -1.320333,1.3306676 -1.317427,0.838897 -4.348832,1.185465 -4.606438,1.60042 0.188109,0.303002 1.853089,0.572132 3.251998,1.020609 0.497487,0.159493 0.957978,0.341787 1.308964,0.557072 0.01364,0.0084 0.03218,0.01478 0.04548,0.02325 0.391537,0.249323 0.747082,0.570312 1.03973,0.935861 0.101476,0.126757 0.195379,0.25838 0.280603,0.394808 0.406757,0.651146 0.681814,1.710352 0.909505,2.651517 0.138641,0.573068 0.260816,1.098456 0.381372,1.46141 0.101407,0.305305 0.2028,0.499682 0.315226,0.499711 0.106383,-2.8e-5 0.202697,-0.183122 0.29869,-0.45992 0.118695,-0.342268 0.23774,-0.837101 0.37207,-1.395264 0.232492,-0.966036 0.513983,-2.082104 0.93586,-2.757454 0.330987,-0.529866 0.790236,-0.998477 1.319816,-1.330669 1.381709,-0.866699 4.622615,-1.171021 4.628658,-1.59215 4.1e-5,-0.0029 -5.3e-4,-0.0059 -5.16e-4,-0.0088 -1.4e-5,-0.0029 5.57e-4,-0.0055 5.16e-4,-0.0083 -0.006,-0.421129 -3.246949,-0.72545 -4.628658,-1.592151 -0.340113,-0.213205 -0.646226,-0.487153 -0.913126,-0.7931826 -0.148703,-0.170501 -0.28827,-0.34785 -0.406694,-0.537435 -0.120756,-0.193307 -0.22819,-0.428195 -0.328145,-0.680062 -0.173934,-0.438278 -0.321054,-0.938681 -0.449585,-1.438671 -0.325336,-1.2655822 -0.541865,-2.4943497 -0.82889,-2.4944218 z m -2.917651,16.0196934 c -0.165332,0.01596 -0.326868,0.05927 -0.478007,0.128158 -0.593531,0.199069 -1.001022,0.745827 -1.022161,1.371492 0.01861,0.416804 0.209979,0.807032 0.528134,1.076937 0.26169,0.254692 0.607309,0.405177 0.972034,0.42323 0.270613,-0.0022 0.535606,-0.07754 0.766878,-0.218074 0.452472,-0.269077 0.730775,-0.755664 0.733289,-1.282093 -0.0025,-0.491186 -0.245346,-0.950043 -0.65009,-1.228348 -0.249275,-0.174574 -0.545763,-0.269196 -0.850077,-0.271302 z m 23.358781,0 c -0.292616,0.0076 -0.576625,0.100653 -0.817005,0.267684 -0.418372,0.27153 -0.674428,0.733281 -0.683162,1.231966 0.0024,0.52632 0.280502,1.012891 0.732772,1.282093 0.231417,0.140624 0.496605,0.215986 0.767395,0.218074 0.364469,-0.01804 0.709881,-0.168327 0.971517,-0.422713 0.318277,-0.270024 0.509665,-0.660471 0.528133,-1.077454 -0.002,-0.605306 -0.367658,-1.150114 -0.927075,-1.381311 -0.181246,-0.07662 -0.375809,-0.116831 -0.572575,-0.118339 z m -17.519344,0.499711 c -0.167183,0.01588 -0.330515,0.05973 -0.483175,0.129708 -0.590943,0.20085 -0.995777,0.74666 -1.016475,1.370459 0.01756,0.434582 0.222891,0.840155 0.562756,1.11156 0.257698,0.234395 0.588948,0.371791 0.936894,0.388607 0.307024,-0.0106 0.603405,-0.115228 0.849043,-0.299723 0.39717,-0.272411 0.639387,-0.718973 0.651123,-1.200444 -8.41e-4,-0.546238 -0.298572,-1.048858 -0.777213,-1.312064 -0.221264,-0.122665 -0.469968,-0.187372 -0.722953,-0.188103 z m 11.67939,0 c -0.244483,0.0045 -0.48416,0.06874 -0.698149,0.187069 -0.488355,0.256942 -0.796211,0.761299 -0.801501,1.313098 0.01169,0.481747 0.254129,0.928562 0.65164,1.20096 0.245416,0.184111 0.541397,0.288542 0.84801,0.299207 0.348058,-0.01655 0.679506,-0.153774 0.937411,-0.38809 0.339992,-0.271522 0.545344,-0.677314 0.562756,-1.112077 -0.002,-0.599991 -0.361385,-1.14109 -0.913639,-1.375626 -0.185134,-0.08057 -0.384632,-0.122925 -0.586528,-0.124541 z m -5.839954,0.24753 c -0.09341,0.01576 -0.185112,0.04033 -0.273885,0.07338 -0.69327,0.128292 -1.20364,0.722109 -1.226281,1.426786 0.01887,0.408936 0.204074,0.792402 0.51263,1.061434 0.263317,0.263662 0.61536,0.419879 0.987536,0.438216 0.372181,-0.01834 0.724219,-0.174554 0.987537,-0.438216 0.308556,-0.269032 0.493755,-0.652498 0.51263,-1.061434 -0.0022,-0.657466 -0.432244,-1.236916 -1.060917,-1.42937 -0.142081,-0.0453 -0.290129,-0.06916 -0.43925,-0.0708 z m 15.966468,4.466394 c 0.115385,0.735427 0.210502,1.473917 0.285254,2.215886 l -0.118856,0.01705 c -0.440195,0.06424 -0.903335,0.123358 -1.368909,0.181901 -4.206765,0.528984 -9.396102,0.824535 -14.76189,0.82579 -5.365629,-0.0011 -10.555204,-0.295602 -14.762406,-0.82424 -0.465469,-0.05848 -0.928277,-0.117178 -1.368392,-0.181384 l -0.119373,-0.01757 c 0.07468,-0.741953 0.169429,-1.480473 0.284737,-2.215885 l 0.01602,0.0026 c 0.472693,0.07747 0.967392,0.14939 1.469161,0.219108 4.137457,0.574864 9.21284,0.885675 14.480253,0.888318 5.267272,-0.0029 10.342733,-0.314657 14.479737,-0.889869 0.501829,-0.06977 0.996446,-0.141611 1.469161,-0.219108 z m 0.421679,3.711402 c 0.0879,1.394557 0.09955,2.788841 0.03617,4.164087 l -0.363802,0.06459 c -0.366619,0.06486 -0.761176,0.123941 -1.152385,0.183968 -4.056295,0.622419 -9.369913,0.983985 -14.904516,0.987537 -5.536154,-0.0035 -10.850602,-0.364869 -14.907614,-0.987532 -0.390593,-0.05995 -0.784756,-0.119205 -1.150834,-0.183968 l -0.365869,-0.06459 c -0.0634,-1.374577 -0.05153,-2.768139 0.03617,-4.16202 l 0.03876,0.0057 c 0.468955,0.06841 0.959889,0.131878 1.455208,0.193787 4.281568,0.535143 9.497455,0.826767 14.892631,0.827856 5.395369,-0.0013 10.610934,-0.294411 14.892115,-0.829923 0.495386,-0.06197 0.986208,-0.125339 1.455208,-0.193787 z m -32.702397,5.705595 c 0.49079,0.0832 1.002739,0.162464 1.534273,0.237711 0.174765,0.02804 0.352073,0.0556 0.531751,0.08268 v 1.43247 1.401982 0.453202 2.210201 c -0.349965,-0.04412 -0.692734,-0.08997 -1.027844,-0.137459 -1.04e-4,-3.59e-4 -4.14e-4,-7.08e-4 -5.17e-4,-10e-4 -0.38283,-1.32867 -0.669937,-2.7177 -0.865064,-4.145483 -0.0067,-0.04888 -0.01315,-0.09779 -0.01964,-0.146761 -0.06058,-0.458834 -0.110791,-0.92198 -0.152962,-1.387512 z m 32.632117,0 c -0.04217,0.466163 -0.09227,0.93007 -0.152962,1.389579 -0.0063,0.04725 -0.01265,0.09443 -0.01912,0.141593 -0.195246,1.42999 -0.486592,2.819142 -0.869714,4.149618 -0.333975,0.04728 -0.675519,0.09299 -1.024227,0.136942 v -2.2071 -0.453202 -1.404566 -1.43247 c 0.179852,-0.02708 0.357332,-0.05465 0.532267,-0.08268 0.531309,-0.07522 1.043162,-0.15455 1.533756,-0.237711 z m -29.065926,0.504362 c 0.955344,0.112496 1.958322,0.212361 2.999817,0.29869 v 1.949235 l 0.01964,3.564123 c -0.0065,-4.79e-4 -0.01318,-10e-4 -0.01964,-0.0016 -1.041046,-0.0855 -2.043995,-0.184495 -2.999817,-0.296106 v -1.561612 -2.52026 z m 25.499736,0 v 1.43247 2.52026 1.561662 c -0.955821,0.111611 -1.95877,0.210609 -2.999817,0.296106 v -1.544609 -2.518192 -1.449007 c 1.041496,-0.08633 2.044473,-0.186194 2.999817,-0.29869 z m -20.999752,0.413411 c 0.977478,0.06573 1.979961,0.119787 2.999817,0.161747 v 1.488798 2.494939 1.514636 c -1.019938,-0.04213 -2.022406,-0.09635 -2.999817,-0.162264 v -4.033862 z m 16.499768,0 v 1.463994 2.510441 1.523421 c -0.977411,0.06591 -1.979879,0.120133 -2.999817,0.162264 v -1.51412 -2.495971 -1.488282 c 1.019857,-0.04196 2.022339,-0.09601 2.999817,-0.161747 z m -11.999784,0.214974 c 0.992064,0.02913 1.994364,0.04692 2.999817,0.05323 v 1.501717 2.494938 1.502751 c -1.004938,-0.0049 -2.007218,-0.02135 -2.999817,-0.04909 v -1.502234 -2.503723 z m 7.4998,0 v 1.497066 2.50424 1.502234 c -0.992598,0.02775 -1.99488,0.04415 -2.999816,0.04909 v -1.502751 -2.494938 -1.501717 c 1.005451,-0.0063 2.007752,-0.02409 2.999816,-0.05323 z m -18.515149,6.135543 c 0.547361,0.0782 1.110245,0.152003 1.689819,0.220658 3.864629,0.457796 8.395271,0.704896 13.075688,0.7059 4.680629,-0.0011 9.210816,-0.248102 13.075171,-0.7059 0.579708,-0.06868 1.142878,-0.142417 1.690336,-0.220658 -0.276801,0.764649 -0.590805,1.50219 -0.93896,2.211234 -0.584867,0.09453 -1.199074,0.181537 -1.832447,0.263034 -3.500398,0.45039 -7.680609,0.70113 -11.9941,0.702282 -4.313162,-9.95e-4 -8.493486,-0.251915 -11.994099,-0.702282 -0.633273,-0.08147 -1.247639,-0.16855 -1.832447,-0.263034 -0.348141,-0.709042 -0.662159,-1.446588 -0.938961,-2.211234 z m 27.677381,3.866431 c -2.651357,4.277637 -6.865261,7.106564 -12.912907,7.106543 -6.045493,2.1e-5 -10.258034,-2.828064 -12.90929,-7.104476 0.632078,0.08876 1.287839,0.170263 1.962155,0.244946 3.303425,0.365868 7.073268,0.562379 10.948168,0.563273 3.875367,-10e-4 7.645262,-0.198384 10.948686,-0.564823 0.674851,-0.07486 1.330668,-0.156545 1.963188,-0.245463 z"
       inkscape:label="egg" />
    <g
       id="text58"
       inkscape:label="text"
       transform="matrix(0.9123136,0,0,0.9123136,-53.354359,3.5026732)"
       style="stroke-width:1.09611">
      <path
         style="color:#000000;-inkscape-font-specification:'Rayhound, Normal';fill:#d6a206;stroke-width:1.09611;stroke-linecap:round;stroke-linejoin:round;-inkscape-stroke:none;paint-order:stroke fill markers"
         d="m 4.4863281,52.0625 c -0.8283928,8.3e-5 -1.4999172,0.671607 -1.5,1.5 v 7.619141 c 0,0.757999 0.2127598,1.597525 0.8203125,2.205078 0.6075528,0.607553 1.4451258,0.820312 2.203125,0.820312 H 38.580078 c 1.700132,0 3.26438,-0.596176 4.365234,-1.699219 1.100855,-1.103042 1.69336,-2.668115 1.69336,-4.373046 0,-1.704932 -0.592505,-3.271958 -1.69336,-4.375 C 41.844458,52.656723 40.28021,52.0625 38.580078,52.0625 Z"
         id="path59"
         sodipodi:nodetypes="ccssssssssc"
         inkscape:label="bg" />
      <path
         id="path66"
         style="-inkscape-font-specification:'Rayhound, Normal';fill:#250657;stroke-linecap:round;stroke-linejoin:round;paint-order:stroke fill markers"
         d="m 17.179733,53.072436 c -1.496123,0 -2.770767,0.505035 -3.664254,1.398523 -0.893487,0.893487 -1.398522,2.167563 -1.398522,3.663687 0,1.496121 0.505035,2.770765 1.398522,3.664254 0.893487,0.893487 2.168131,1.396256 3.664254,1.396256 1.490043,0 2.762279,-0.502786 3.654058,-1.396256 0.891778,-0.893471 1.394557,-2.168133 1.394557,-3.664254 0,-1.496124 -0.502779,-2.770217 -1.394557,-3.663687 -0.891779,-0.89347 -2.164015,-1.398523 -3.654058,-1.398523 z m 11.119075,0 c -1.496121,0 -2.770766,0.505035 -3.664253,1.398523 -0.89349,0.893487 -1.397957,2.167563 -1.397957,3.663687 0,1.496121 0.504467,2.770765 1.397957,3.664254 0.893487,0.893487 2.168132,1.396256 3.664253,1.396256 1.490045,0 2.760581,-0.502786 3.652359,-1.396256 0.891777,-0.893471 1.396256,-2.168133 1.396256,-3.664254 0,-1.496124 -0.504479,-2.770217 -1.396256,-3.663687 -0.891778,-0.89347 -2.162314,-1.398523 -3.652359,-1.398523 z M 4.4865408,53.288814 c -0.150989,2.58e-4 -0.2733289,0.122598 -0.2735871,0.273587 v 7.619087 c 0,0.553662 0.1424919,1.019329 0.4610763,1.337914 0.3185844,0.318585 0.7819854,0.461076 1.3356485,0.461076 h 1.6522844 c 0.1509889,-2.58e-4 0.2733289,-0.122598 0.273587,-0.273587 v -3.486393 h 1.1096418 c 0.5536632,0 1.0187643,-0.141927 1.3373473,-0.46051 0.318584,-0.318585 0.461077,-0.782552 0.461077,-1.336215 v -0.126881 c 6.81e-4,-0.151432 -0.121589,-0.274716 -0.273021,-0.275286 H 7.9355499 v -1.535033 h 1.8341093 c 0.5536628,0 1.0170638,-0.142493 1.3356488,-0.461077 0.318584,-0.318583 0.462775,-0.782552 0.462775,-1.336214 v -0.126881 c -2.58e-4,-0.151654 -0.123634,-0.274268 -0.275286,-0.273587 H 6.1365594 5.5525672 Z m 30.1421532,0 c -0.150766,5.69e-4 -0.272763,0.122818 -0.27302,0.273587 v 7.619087 c 0,0.553661 0.141925,1.01933 0.46051,1.337914 0.318583,0.318584 0.784251,0.461076 1.337914,0.461076 h 0.113286 1.537299 0.775446 c 1.426405,0 2.642292,-0.482485 3.496023,-1.337914 0.853733,-0.855429 1.336215,-2.075448 1.336215,-3.507918 0,-1.432472 -0.482482,-2.654187 -1.336215,-3.509618 -0.853731,-0.855429 -2.069618,-1.336213 -3.496023,-1.336214 H 36.280979 35.0994 Z m -17.448961,1.535599 c 0.556325,0 1.007086,0.408052 1.285236,0.994089 0.278148,0.586038 0.423691,1.378718 0.423691,2.316144 0,0.937426 -0.146134,1.736262 -0.423691,2.328039 -0.27756,0.591775 -0.726184,1.005984 -1.285236,1.005984 -0.563437,0 -1.01538,-0.413825 -1.294866,-1.005984 -0.279485,-0.592161 -0.425957,-1.390613 -0.425957,-2.328039 0,-0.937426 0.145876,-1.729722 0.425957,-2.316144 0.280082,-0.58642 0.734115,-0.994089 1.294866,-0.994089 z m 11.119075,0 c 0.556326,0 1.004822,0.408052 1.28297,0.994089 0.27815,0.586038 0.425959,1.378718 0.425958,2.316144 10e-7,0.937426 -0.146132,1.736262 -0.423692,2.328039 -0.277559,0.591775 -0.726183,1.005984 -1.285236,1.005984 -0.563436,0 -1.015379,-0.413825 -1.294865,-1.005984 -0.279486,-0.592161 -0.427657,-1.390613 -0.427657,-2.328039 0,-0.937426 0.147575,-1.729722 0.427657,-2.316144 0.280082,-0.58642 0.734115,-0.994089 1.294865,-0.994089 z m 9.500211,0.174461 c 1.502095,0.139499 2.151878,1.488165 2.151878,3.135206 0,1.645029 -0.64803,3.01594 -2.146214,3.160694 v -6.208669 c 0,-0.03104 -0.0047,-0.05714 -0.0057,-0.08723 z"
         inkscape:label="fill" />
    </g>
  </g>
</svg>
