<?xml version="1.0" encoding="UTF-8" standalone="no"?>
<!-- Created with Inkscape (http://www.inkscape.org/) -->

<svg
   width="140mm"
   height="90mm"
   viewBox="0 0 140 90"
   version="1.1"
   id="svg1"
   xml:space="preserve"
   inkscape:version="1.3.1 (91b66b0783, 2023-11-16)"
   sodipodi:docname="generous-gift-token.svg"
   xmlns:inkscape="http://www.inkscape.org/namespaces/inkscape"
   xmlns:sodipodi="http://sodipodi.sourceforge.net/DTD/sodipodi-0.dtd"
   xmlns="http://www.w3.org/2000/svg"
   xmlns:svg="http://www.w3.org/2000/svg"><sodipodi:namedview
     id="namedview1"
     pagecolor="#ffffff"
     bordercolor="#000000"
     borderopacity="0.25"
     inkscape:showpageshadow="2"
     inkscape:pageopacity="0.0"
     inkscape:pagecheckerboard="0"
     inkscape:deskcolor="#d1d1d1"
     inkscape:document-units="mm"
     inkscape:zoom="1.4142136"
     inkscape:cx="53.386562"
     inkscape:cy="166.52365"
     inkscape:window-width="1620"
     inkscape:window-height="1010"
     inkscape:window-x="-6"
     inkscape:window-y="-6"
     inkscape:window-maximized="1"
     inkscape:current-layer="layer1"
     showgrid="false" /><defs
     id="defs1" /><g
     inkscape:label="Layer 1"
     inkscape:groupmode="layer"
     id="layer1"><g
       id="g81"
       inkscape:label="elephant"
       style="display:inline"
       transform="translate(-12.677942,-17.899864)"><rect
         style="display:inline;fill:#002b36;stroke:none;stroke-width:2;stroke-linecap:round;stroke-linejoin:round;stroke-dashoffset:134.173;paint-order:stroke markers fill"
         id="rect73"
         width="64"
         height="88"
         x="15.677942"
         y="18.899979"
         rx="4"
         ry="4"
         inkscape:label="full card" /><path
         id="path37"
         style="color:#000000;-inkscape-font-specification:'Goldroom, Normal';display:inline;fill:#b58900;stroke-linecap:square;stroke-linejoin:round;stroke-dashoffset:134.173;-inkscape-stroke:none;paint-order:stroke markers fill"
         d="m 59.207253,74.066626 a 0.14987498,0.14987498 0 0 0 -0.150548,0.149929 v 0.350039 a 0.14987498,0.14987498 0 0 0 0.150548,0.14807 h 2.427351 l -2.17396,1.564334 a 0.14987498,0.14987498 0 0 0 -0.04275,0.195774 l 0.208784,0.372963 a 0.14987498,0.14987498 0 0 0 0.18772,0.06443 c 0.395138,-0.165703 0.812786,-0.232474 1.242175,-0.250294 v 5.920309 c -0.610562,-0.02526 -1.171037,-0.15294 -1.657885,-0.457219 -0.291023,-0.181293 -0.540577,-0.388948 -0.748402,-0.625114 a 0.14987498,0.14987498 0 0 0 -0.224273,-0.0019 l -0.238523,0.267641 a 0.14987498,0.14987498 0 0 0 0.0019,0.20135 c 0.247885,0.273705 0.537747,0.510448 0.871071,0.71061 0.633623,0.396659 1.353659,0.594138 2.146701,0.594138 0.716362,0 1.374586,-0.161779 1.967034,-0.486338 a 0.14987498,0.14987498 0 0 0 0.0019,0 c 0.594287,-0.327882 1.069516,-0.768795 1.419982,-1.314661 0.356966,-0.553555 0.537141,-1.171054 0.53714,-1.841887 0,-0.670833 -0.179873,-1.286849 -0.53714,-1.835693 -0.350246,-0.550662 -0.825632,-0.991599 -1.419982,-1.31466 h -0.0019 c -0.592125,-0.329155 -1.250985,-0.494392 -1.967034,-0.494392 -0.08217,0 -0.162359,0.01885 -0.244098,0.02354 l 1.773119,-1.27501 a 0.14987498,0.14987498 0 0 0 0.06257,-0.123288 V 74.21651 a 0.14987498,0.14987498 0 0 0 -0.149928,-0.149929 z m 12.588401,6.870062 -13.183158,10.487547 -0.0043,0.560063 13.226526,-10.41692 z m -6.424613,9.993155 a 0.14987498,0.14987498 0 0 0 -0.150548,0.149929 v 0.350039 a 0.14987498,0.14987498 0 0 0 0.150548,0.148069 h 2.427971 l -2.173961,1.566813 a 0.14987498,0.14987498 0 0 0 -0.04275,0.193296 l 0.208785,0.372962 a 0.14987498,0.14987498 0 0 0 0.18772,0.06443 c 0.395137,-0.165704 0.812786,-0.232474 1.242174,-0.250293 v 5.920309 c -0.610564,-0.02526 -1.171657,-0.15294 -1.658504,-0.457219 -0.291022,-0.181293 -0.539956,-0.388948 -0.747783,-0.625115 a 0.14987498,0.14987498 0 0 0 -0.224892,0 l -0.238523,0.267641 a 0.14987498,0.14987498 0 0 0 0.0025,0.199491 c 0.247613,0.273407 0.538204,0.510586 0.871072,0.710611 0.633623,0.396658 1.353037,0.595994 2.146081,0.595994 0.716362,0 1.376444,-0.163635 1.968893,-0.488194 0.594727,-0.328125 1.071302,-0.768232 1.421841,-1.314661 0.35627,-0.553141 0.535281,-1.171709 0.535281,-1.841888 0,-0.670832 -0.179875,-1.286849 -0.53714,-1.835692 -0.350246,-0.550662 -0.825632,-0.991599 -1.419982,-1.314661 h -0.0019 C 68.745798,93.01255 68.08694,92.847932 67.37089,92.847932 c -0.0828,0 -0.163593,0.01816 -0.245957,0.02292 l 1.775597,-1.27501 a 0.14987498,0.14987498 0 0 0 0.06257,-0.121429 v -0.394646 a 0.14987498,0.14987498 0 0 0 -0.148689,-0.149929 z"
         inkscape:label="3/3"
         transform="matrix(0.83411179,0,0,0.83411179,13.911388,16.473903)" /><path
         id="path72"
         style="display:inline;fill:#b58900;stroke-width:0.352896;stroke-linecap:round;stroke-linejoin:round;stroke-dashoffset:134.173;paint-order:stroke markers fill"
         inkscape:label="art"
         d="m 28.475726,18.89975 9.852112,8.748304 c 0.1791,0.159036 0.78268,-0.245587 0.60358,-0.404627 L 29.535609,18.89975 Z m 4.355289,0 6.895187,7.810893 c 0.155436,0.176078 0.764454,-0.208088 0.608748,-0.384473 l -6.555155,-7.42642 z m 28.745016,0 -6.555156,7.42642 c -0.155704,0.176385 0.453314,0.560551 0.608749,0.384473 L 62.52481,18.89975 Z m 4.244185,0 -9.395809,8.343677 c -0.179099,0.15904 0.42448,0.563663 0.603581,0.404627 L 66.8801,18.89975 Z m -47.242077,0.171049 c -0.277421,0.0792 -0.539645,0.186527 -0.788583,0.320394 l 16.84445,10.734229 c 0.213559,0.136086 0.843498,-0.286633 0.629936,-0.422714 z m 58.199548,0 -16.685803,10.631909 c -0.213564,0.136081 0.416895,0.5588 0.630452,0.422714 L 77.566269,19.391193 C 77.317332,19.257326 77.055107,19.150004 76.777687,19.070799 Z M 16.100254,21.13889 c -0.102351,0.208225 -0.183236,0.426245 -0.248564,0.65319 l 16.990694,9.534819 c 0.22649,0.127107 0.86934,-0.304388 0.642855,-0.431498 z m 63.155318,0 -17.384985,9.756511 c -0.226486,0.12711 0.416365,0.558605 0.642854,0.431498 L 79.504136,21.79208 c -0.06533,-0.226945 -0.146213,-0.444965 -0.248564,-0.65319 z m -38.024036,6.33398 c -0.08616,-0.0052 -0.171587,0.01733 -0.241329,0.06408 l -10.855151,7.279659 c -0.105964,0.07109 -0.163066,0.188664 -0.149345,0.308509 l 2.103231,18.23868 c 0.01548,0.136394 0.119231,0.250706 0.262516,0.289388 l 5.542814,1.494482 -1.333768,2.383317 c -0.102091,0.231012 0.201327,0.639977 0.293522,0.5302 1.205908,-1.435931 2.968292,-0.768674 3.785815,-0.456303 0.940479,0.359352 0.337447,-0.880566 0.337447,-0.880566 l 3.015837,-1.909961 h 3.641638 0.0863 3.641638 l 3.015836,1.909961 c 0,0 -0.603033,1.239918 0.337448,0.880566 0.817526,-0.312371 2.579911,-0.979628 3.785815,0.456303 0.09219,0.109782 0.396122,-0.299188 0.294039,-0.5302 l -1.334286,-2.383317 5.542814,-1.494482 c 0.143289,-0.03869 0.247013,-0.152994 0.262517,-0.289388 l 2.103231,-18.23868 c 0.01372,-0.119845 -0.04338,-0.237419 -0.149345,-0.308509 l -10.855152,-7.27966 c -0.06975,-0.04675 -0.155168,-0.06928 -0.241329,-0.06408 -0.08608,0.0052 -0.167505,0.03786 -0.22996,0.0925 0,0 -2.349825,2.048664 -6.216158,2.189014 -3.866334,-0.14035 -6.216675,-2.189014 -6.216675,-2.189014 -0.06246,-0.05464 -0.143881,-0.0873 -0.22996,-0.0925 z m -0.03669,0.764295 c 0.519389,0.408279 2.608442,1.882132 5.881295,2.15129 0.05649,0.03231 0.119748,0.05583 0.191203,0.05581 0.143648,0 0.271088,-0.01803 0.410827,-0.02274 0.139738,0.0046 0.267696,0.02274 0.411345,0.02274 0.07146,3e-5 0.1342,-0.0235 0.190686,-0.05581 3.272849,-0.269158 5.360876,-1.743011 5.880261,-2.15129 l 8.562268,5.741768 -1.99471,18.172534 -3.607532,2.385901 -3.682979,-6.580477 1.262455,-1.806091 c 4.402384,1.618835 3.934433,-2.247798 3.683496,-3.484025 l 0.06356,-0.04754 1.049548,-0.09974 c 0.176794,-0.01673 0.31511,-0.146862 0.329179,-0.309542 l 0.14056,-1.656229 C 59.97815,40.414249 59.89555,40.28273 59.758054,40.22248 L 58.48578,39.665408 c -0.04355,-0.01909 -0.09082,-0.02968 -0.139009,-0.03204 -0.09734,-0.0046 -0.192542,0.02601 -0.2651,0.08578 l -4.03593,3.313493 c -0.05479,0.04507 -0.09322,0.104504 -0.111104,0.170016 l -1.278992,4.652429 c 3.68e-4,0.0055 0.0012,0.01116 0.0021,0.01654 -0.01519,0.06805 -0.01081,0.139829 0.02274,0.207223 0.0011,0.0039 0.0027,0.0075 0.0041,0.01137 4.04e-4,7.46e-4 1.48e-4,0.0013 5.17e-4,0.0021 l 4.739762,8.468733 c -0.510002,-0.190342 -1.019215,-0.245446 -1.455725,-0.217041 -0.324286,0.0211 -0.614065,0.08074 -0.849044,0.144694 -0.01735,-0.08071 -0.06585,-0.152518 -0.136942,-0.202571 l -3.296957,-2.088245 c -0.06139,-0.03872 -0.133786,-0.05945 -0.208256,-0.05943 h -3.756876 -0.0863 -3.75636 c -0.07446,-1.4e-5 -0.147384,0.02072 -0.208773,0.05943 l -3.295922,2.088245 c -0.07108,0.05006 -0.120117,0.121871 -0.13746,0.202571 -0.234977,-0.06397 -0.524244,-0.123587 -0.848527,-0.144694 -0.43651,-0.02841 -0.946238,0.02671 -1.456242,0.217041 l 4.739246,-8.468733 c 3.68e-4,-7.46e-4 6.85e-4,-0.0013 10e-4,-0.0021 0.0016,-0.0039 0.0023,-0.0079 0.0036,-0.01189 0.03362,-0.06739 0.0379,-0.13866 0.02274,-0.206706 7.37e-4,-0.0053 0.0016,-0.01116 0.0021,-0.01654 L 41.421189,43.20266 c -0.01789,-0.06551 -0.05631,-0.12495 -0.111105,-0.170016 l -4.035929,-3.313493 c -0.07256,-0.05977 -0.167763,-0.09048 -0.2651,-0.08578 -0.04818,0.0024 -0.09547,0.01295 -0.13901,0.03204 l -1.272273,0.557072 c -0.137505,0.06024 -0.220092,0.191769 -0.208256,0.331246 l 0.14056,1.656229 c 0.01407,0.16268 0.152905,0.292824 0.329695,0.309542 l 1.049548,0.09974 0.06305,0.04754 c -0.250937,1.236227 -0.718892,5.10286 3.683496,3.484025 l 1.262455,1.806608 -3.682979,6.57996 -3.607532,-2.385901 -1.994194,-18.172534 z m -25.516789,1.928564 v 0.690914 l 13.901994,2.657202 c 0.324005,0.06194 1.126024,-0.474984 0.802018,-0.536918 z m 63.999711,0 -14.704012,2.811198 c -0.324005,0.06194 0.478013,0.598862 0.802019,0.536918 l 13.901993,-2.657202 z m -63.999711,2.865975 v 0.680579 l 12.835909,1.364774 c 0.250003,0.02658 0.39847,-0.638985 0.152963,-0.665075 z m 63.999711,0 -12.988871,1.380278 c -0.245503,0.02609 -0.096,0.691654 0.153996,0.665075 l 12.834875,-1.364774 z m -47.734037,1.409733 1.967322,17.929655 c 0.01071,0.09624 0.06543,0.183736 0.150895,0.240296 L 36.1011,53.959109 32.795359,53.068207 30.741221,35.248106 Z m 31.468364,0 1.20251,0.806669 -2.054138,17.820101 -3.305741,0.890902 2.039152,-1.347721 c 0.08548,-0.05656 0.14029,-0.144044 0.150895,-0.240296 z M 47.63528,36.786514 c -0.0084,-3e-6 -0.01508,0.0036 -0.02325,0.0041 -5.093822,0.02492 -8.210868,1.707906 -8.210868,1.707906 -0.226057,0.123079 -0.242699,0.417449 -0.03204,0.561723 l 3.815271,2.615344 0.536401,2.021065 c 0.04822,0.181532 0.24727,0.292465 0.444934,0.248047 0.197331,-0.0443 0.318162,-0.226976 0.270268,-0.408244 l -0.567924,-2.139921 c -0.02022,-0.0764 -0.06836,-0.144139 -0.136943,-0.191202 l -3.408577,-2.335258 c 0.192923,-0.09368 0.542443,-0.254564 1.043864,-0.434599 l 3.316593,2.696476 0.419613,2.141471 c 0.03608,0.183567 0.227387,0.306211 0.427364,0.273369 0.200578,-0.0328 0.333341,-0.209161 0.297139,-0.393258 L 45.385292,40.89579 c -0.01466,-0.07464 -0.05656,-0.142414 -0.118339,-0.192753 L 42.161712,38.17816 c 1.242573,-0.360382 3.070783,-0.709355 5.516459,-0.713651 2.44568,0.0043 4.27337,0.353268 5.515943,0.713651 l -3.105237,2.524911 c -0.06178,0.05034 -0.103681,0.118119 -0.118339,0.192753 l -0.441834,2.257743 c -0.03621,0.184097 0.09656,0.360455 0.29714,0.393258 0.199974,0.03284 0.391273,-0.0898 0.427364,-0.273369 l 0.419612,-2.141471 3.316594,-2.696476 c 0.501417,0.180035 0.850939,0.340918 1.043864,0.434599 l -3.407544,2.335774 c -0.06858,0.04707 -0.11776,0.114284 -0.137976,0.190686 l -0.567924,2.139921 c -0.0479,0.181268 0.07294,0.363947 0.270268,0.408244 0.197664,0.04441 0.396702,-0.06652 0.444934,-0.248047 l 0.536401,-2.021582 3.815271,-2.614827 c 0.210647,-0.144275 0.194024,-0.438644 -0.03204,-0.561723 0,0 -3.117045,-1.682993 -8.210869,-1.707906 -0.0081,-4.95e-4 -0.01495,-0.0041 -0.02325,-0.0041 -0.01495,0 -0.02745,0.0015 -0.04237,0.0016 -0.01492,-2.9e-5 -0.02792,-0.0016 -0.04289,-0.0016 z m -18.772498,1.438672 -13.184725,4.185791 v 0.715718 l 13.264307,-4.211629 c 0.238141,-0.07561 0.158544,-0.765486 -0.07958,-0.68988 z m 37.630261,0 c -0.238142,-0.07561 -0.31772,0.61427 -0.07958,0.68988 l 13.264306,4.211629 v -0.715718 z m -37.387382,2.110465 -13.427604,5.141288 v 0.732772 l 13.508736,-5.172294 c 0.23639,-0.09052 0.155265,-0.792283 -0.08113,-0.701766 z m 37.062854,0 c -0.170612,0.07489 -0.206324,0.62256 5.17e-4,0.701766 l 13.508736,5.172294 V 45.476939 L 66.250164,40.335651 c -0.02954,-0.01131 -0.05729,-0.0107 -0.08165,0 z m -29.202868,0.03721 3.768762,3.094902 0.698665,2.544031 -1.240234,-1.775086 c -0.02103,-0.02975 -0.04699,-0.05621 -0.077,-0.07855 l -2.82515,-2.125969 c -0.05554,-0.04205 -0.123754,-0.06837 -0.195337,-0.07545 l -0.854212,-0.08113 -0.09819,-1.142566 z m 21.424532,0 0.822689,0.360185 -0.09819,1.142566 -0.854211,0.08113 c -0.07158,0.0071 -0.139791,0.03339 -0.195337,0.07545 l -2.82515,2.125969 c -0.03002,0.02233 -0.05545,0.04879 -0.07648,0.07855 l -1.240751,1.775602 0.698666,-2.544547 z m -28.816846,3.317627 c -0.02396,-0.0072 -0.05037,-0.0032 -0.07906,0.0155 L 15.678057,52.644461 V 53.4718 l 13.905095,-8.99635 c 0.200947,-0.130009 0.157837,-0.735165 -0.0098,-0.784965 z m 36.209159,0 c -0.167671,0.0498 -0.210795,0.654956 -0.0098,0.784965 L 79.677768,53.4718 V 52.644461 L 65.861557,43.705988 c -0.02871,-0.01856 -0.05509,-0.0226 -0.07906,-0.0155 z m -35.960078,2.158008 c -0.02384,-0.0061 -0.04961,-3.21e-4 -0.07803,0.02067 L 15.678057,56.259227 v 0.867131 l 6.032707,-4.455542 5.894731,6.6182 c 0.119897,0.134601 0.331184,0.163487 0.488859,0.06718 l 6.182568,-3.774964 c 0.641717,-0.39186 -0.846009,-0.944463 -2.218986,-0.598413 l -3.638021,0.917257 -4.445723,-4.90151 5.862174,-4.329451 c 0.199025,-0.146996 0.152943,-0.777813 -0.01395,-0.820622 z m 35.710998,0 c -0.166897,0.04281 -0.212453,0.673625 -0.01344,0.820622 l 5.861658,4.329451 -4.445724,4.90151 -3.63802,-0.917257 c -1.372972,-0.346049 -2.860709,0.206557 -2.218986,0.598413 l 6.182568,3.774964 c 0.15767,0.09632 0.368954,0.06691 0.488859,-0.0677 l 5.895247,-6.617683 6.03219,4.455542 V 56.259227 L 65.611444,45.869164 c -0.02843,-0.021 -0.05418,-0.02679 -0.07803,-0.02067 z m -42.132829,5.57382 4.60437,5.077726 c 0.09245,0.101969 0.24152,0.145208 0.380856,0.110071 l 4.896858,-1.235067 -5.318538,3.248381 -5.679757,-6.376355 z m 48.554659,0 1.116211,0.824756 -5.679756,6.376355 -5.318539,-3.248381 4.896859,1.235067 c 0.139332,0.03514 0.288407,-0.0081 0.380855,-0.110071 z m -33.216577,7.028512 c -0.660199,0.0064 -1.635552,0.131738 -1.788521,1.118278 -1.511319,9.746916 -0.323211,18.732569 9.130709,17.774108 0.462318,-0.04687 0.641945,-0.675285 0.08475,-0.808736 C 37.86057,74.102546 39.805309,66.166523 40.555092,59.985098 40.733424,58.514877 39.44664,58.44398 38.738665,58.450825 Z m 17.878495,0 c -0.707978,-0.0068 -1.994756,0.06405 -1.816426,1.534273 0.749779,6.181425 2.69452,14.117448 -5.61051,16.549377 -0.557184,0.133451 -0.377557,0.761862 0.08475,0.808736 9.453914,0.958461 10.642028,-8.027192 9.130709,-17.774108 -0.152967,-0.98654 -1.128326,-1.111887 -1.788523,-1.118278 z M 41.575701,60.45587 c -0.530558,0.183169 -0.379305,2.102197 -0.379305,2.102197 0,0 0.267612,1.888257 0.35295,2.503207 0,0 0.973393,7.916908 2.019515,8.995833 l 1.071253,-0.660941 h 2.260844 1.55391 2.260844 l 1.071252,0.660941 c 1.046121,-1.078925 2.019515,-8.995833 2.019515,-8.995833 0.08534,-0.61495 0.35295,-2.503207 0.35295,-2.503207 0,0 0.151253,-1.919028 -0.379305,-2.102197 l -0.248047,1.795756 -1.278474,-0.697632 -1.070736,-0.58446 c -0.05699,-0.03113 -0.12231,-0.04756 -0.188619,-0.04754 h -3.273185 -0.0863 -3.273185 c -0.06631,-1.9e-5 -0.131621,0.0164 -0.188619,0.04754 l -1.070736,0.58446 -1.278475,0.697632 z m 2.887679,1.142049 h 3.171383 0.0863 3.171382 l 1.265039,0.690397 1.265039,0.689881 c -0.07108,0.470396 -0.159704,1.069028 -0.235127,1.570447 -0.185989,1.236443 -0.369399,2.453784 -0.579293,3.872631 l -2.066541,-1.234033 c -0.05989,-0.03584 -0.12952,-0.05481 -0.201021,-0.05478 h -2.619478 -0.0863 -2.619478 c -0.07149,-4.1e-5 -0.141129,0.01892 -0.201022,0.05478 l -2.06654,1.234033 C 42.537827,67.002428 42.354418,65.785087 42.16843,64.548644 42.09302,64.047225 42.004395,63.448593 41.933302,62.978197 l 1.265039,-0.689881 z m 0.660425,6.210991 h 2.510958 0.0863 2.510957 l 2.268079,1.354439 -0.921907,3.951697 -0.545187,-0.337964 c -0.0606,-0.03741 -0.132138,-0.0578 -0.205155,-0.05788 h -2.372982 -1.55391 -2.372982 c -0.07303,8.5e-5 -0.14455,0.02047 -0.205156,0.05788 l -0.545186,0.337964 -0.921391,-3.951697 z m -1.516186,10.152868 c -0.126716,0.01352 -0.218212,0.09018 -0.19327,0.269751 0,0 0.966155,7.015538 1.29036,9.749276 0.209534,1.766829 0.365223,3.251654 0.4408,4.304647 0.03779,0.526493 0.05472,0.945973 0.05064,1.229899 -0.0022,0.14196 -0.01019,0.251604 -0.01964,0.311092 -0.306193,0.250962 -0.417934,0.627667 -0.518831,1.071252 -0.11046,0.485557 -0.16991,1.067608 -0.203089,1.67225 -0.06635,1.209273 -0.02532,2.510733 -0.02532,3.181201 0,0.452144 0.252419,0.830064 0.576709,1.102254 0.324286,0.2722 0.723862,0.46395 1.114144,0.60927 0.630814,0.23489 1.147239,0.32553 1.362191,0.36018 0.05429,0.0235 0.112523,0.0367 0.175699,0.0331 1.02e-4,10e-6 0.0078,0.002 0.0078,0.002 0.004,5.6e-4 0.0083,-7.6e-4 0.0124,-5.1e-4 0.004,-4.5e-4 0.0073,7.6e-4 0.01137,5.1e-4 0,0 0.0081,-0.002 0.0083,-0.002 0.06318,0.004 0.12194,-0.0103 0.176217,-0.0331 0.214957,-0.0346 0.73034,-0.12529 1.361157,-0.36018 0.390278,-0.14532 0.790891,-0.33707 1.115178,-0.60927 0.324288,-0.27219 0.576192,-0.65011 0.576192,-1.102254 0,-0.670468 0.04104,-1.971928 -0.02532,-3.181201 -0.03317,-0.604642 -0.09213,-1.186693 -0.202571,-1.67225 -0.100909,-0.443585 -0.213156,-0.82029 -0.519348,-1.071252 -0.0096,-0.05949 -0.01742,-0.169132 -0.01964,-0.311092 -0.004,-0.283926 0.0134,-0.703406 0.05116,-1.229899 0.07557,-1.052993 0.23075,-2.537818 0.440283,-4.304647 0.324205,-2.733738 1.290361,-9.749276 1.290361,-9.749276 0.02495,-0.179563 -0.06656,-0.256225 -0.19327,-0.269751 -0.211185,-0.02252 -0.520488,0.131271 -0.550871,0.27957 0,0 -0.169707,1.213137 -0.251664,1.809192 l -1.437638,-0.645956 c -0.05037,-0.02291 -0.105558,-0.03492 -0.161748,-0.03514 h -1.62574 -0.08527 -1.625741 c -0.05619,2.1e-4 -0.111377,0.01223 -0.161747,0.03514 l -1.437638,0.645956 c -0.08196,-0.596055 -0.252181,-1.809192 -0.252181,-1.809192 -0.03038,-0.148299 -0.338655,-0.302084 -0.549838,-0.27957 z m 2.487703,2.083594 h 1.539441 0.0863 1.539441 l 1.586466,0.713652 c -0.190149,1.392842 -0.346978,2.620758 -0.510563,3.889685 l -0.913123,-0.507463 c -0.05753,-0.03192 -0.123467,-0.04863 -0.190686,-0.04858 h -1.511535 -0.0863 -1.511536 c -0.06721,-2.9e-5 -0.133158,0.01668 -0.190686,0.04858 l -0.913122,0.507463 C 44.855834,83.379782 44.69952,82.151866 44.509372,80.759024 Z m 0.130225,4.723743 h 1.409216 0.0863 1.409216 l 1.11156,0.61805 c -0.105439,0.830464 -0.234944,1.777934 -0.322978,2.520259 -0.04203,0.354381 -0.071,0.640777 -0.10852,0.971517 L 49.18609,88.484133 c -0.06146,-0.03904 -0.134544,-0.06037 -0.20929,-0.06046 h -1.255737 -0.0863 -1.255737 c -0.07474,8.8e-5 -0.147833,0.02141 -0.20929,0.06046 l -0.624251,0.394808 c -0.03751,-0.33074 -0.06647,-0.617136 -0.108521,-0.971517 -0.08803,-0.742325 -0.217532,-1.689795 -0.322977,-2.520259 z m 0.2682,4.331002 h 1.141016 0.0863 1.141532 l 0.861963,0.546219 c -0.107983,0.996718 -0.199695,1.906598 -0.24908,2.594674 -0.03386,0.472181 -0.04473,0.827767 -0.04548,1.131197 -0.414268,-0.196005 -0.994748,-0.388963 -1.657263,-0.414445 -0.01777,-0.0023 -0.03319,-0.0093 -0.05168,-0.0093 -0.01478,0 -0.02819,0.0031 -0.04289,0.0031 -0.01472,-1.78e-4 -0.02863,-0.0031 -0.04341,-0.0031 -0.0185,0 -0.03393,0.0068 -0.05168,0.0093 -0.662517,0.02546 -1.242476,0.21844 -1.656747,0.414445 -7.36e-4,-0.30343 -0.01216,-0.659016 -0.04599,-1.131197 -0.04938,-0.688076 -0.141092,-1.597956 -0.24908,-2.594674 z m 1.184424,4.527372 c 1.077749,0.01741 1.963188,0.665592 1.963188,0.665592 0.004,0.0023 0.0082,0.0042 0.0124,0.0067 0.0037,0.0023 0.0039,0.004 0.0078,0.0072 0.04426,0.02905 0.219495,0.303745 0.316259,0.729154 0.09677,0.425416 0.155473,0.982987 0.187586,1.56838 0.06431,1.170798 0.02429,2.45174 0.02429,3.146578 0,0.230525 -0.112029,0.415157 -0.335897,0.603067 -0.223867,0.18787 -0.554439,0.35532 -0.895036,0.48214 -0.604078,0.22494 -1.148637,0.3133 -1.280542,0.33383 -0.131906,-0.0205 -0.676462,-0.10888 -1.280542,-0.33383 -0.340596,-0.12682 -0.671168,-0.29427 -0.895036,-0.48214 -0.223866,-0.18791 -0.336413,-0.372542 -0.336413,-0.603067 0,-0.694838 -0.04052,-1.97578 0.02377,-3.146578 0.03211,-0.585393 0.09134,-1.142964 0.188102,-1.56838 0.09677,-0.425409 0.272511,-0.700115 0.316777,-0.729154 0.0039,-0.0031 0.0034,-0.004 0.0072,-0.0072 0.0041,-0.0023 0.0089,-0.0042 0.01292,-0.0067 0,0 0.885438,-0.648229 1.963187,-0.665592 z m -0.750858,3.482475 c -0.321123,0 -0.574774,0.223006 -0.73949,0.516247 -0.295371,0.568072 -0.346991,1.141325 0,1.673799 0.325765,0.499901 0.923458,-0.182414 0.923458,-0.182414 v -1.838134 c 3.2e-5,-0.09342 -0.08221,-0.169529 -0.183968,-0.169498 z m 1.5012,0 c -0.101768,-3.1e-5 -0.184003,0.07608 -0.183968,0.169498 v 1.838134 c 0,0 0.587227,0.803307 0.923458,0.182414 0.304876,-0.562992 0.379337,-1.163875 0,-1.673799 -0.164716,-0.293241 -0.41837,-0.516247 -0.73949,-0.516247 z"
         sodipodi:nodetypes="ccccccccccccccccccccccccccccccccccccccccsccccccccsccccccsscccccccscccsscccccccccccccccccccccccccccccsccccccccccscccccccccccccccccccccccccccccccccccccccccccccccccccccccccccccccccccccccccccccccccccccccccccccccscccccccsccccccccccsccccccccccccccccccccccccccccccccccsccccssscccccccccccssscccccccccccssccccccccccccccssscssscsccsccccccccccccccccccccccccccccccscccccccccccccccccccccccccccccssccssssscscccccssssscccsccccccccccccccccccccccccccccccccccscccccccccccccccccccscscccccccccscscscscscscccccccsccccccscc" /></g><g
       id="g83"
       inkscape:label="human"
       style="display:inline"
       transform="translate(57.322058,-17.900019)"><rect
         style="display:inline;fill:#002b36;stroke:none;stroke-width:2;stroke-linecap:round;stroke-linejoin:round;stroke-dashoffset:134.173;paint-order:stroke markers fill"
         id="rect81"
         width="64"
         height="88"
         x="15.677942"
         y="18.899979"
         rx="4"
         ry="4"
         inkscape:label="full card" /><path
         id="path39"
         style="color:#000000;-inkscape-font-specification:'Goldroom, Normal';display:inline;fill:#b58900;stroke-linecap:square;stroke-linejoin:round;stroke-dashoffset:134.173;-inkscape-stroke:none;paint-order:stroke markers fill"
         d="m 64.189581,73.890678 -5.173765,0.96648 a 0.14987498,0.14987498 0 0 0 -0.12143,0.14683 v 0.320302 a 0.14987498,0.14987498 0 0 0 0.0019,0.02912 l 0.0081,0.03717 a 0.14987498,0.14987498 0 0 0 0.17409,0.117093 l 0.981969,-0.181525 v 7.648202 a 0.14987498,0.14987498 0 0 0 0.150547,0.148689 H 64.2187 a 0.14987498,0.14987498 0 0 0 0.148689,-0.148689 v -8.937461 a 0.14987498,0.14987498 0 0 0 -0.177808,-0.146211 z m 7.606074,7.04601 -13.183159,10.487547 -0.0043,0.560063 13.226527,-10.41692 z m -1.440427,9.817206 -5.175624,0.9671 a 0.14987498,0.14987498 0 0 0 -0.12081,0.146211 v 0.320301 a 0.14987498,0.14987498 0 0 0 0.0019,0.02912 l 0.0074,0.03717 a 0.14987498,0.14987498 0 0 0 0.17409,0.117093 l 0.982588,-0.181525 v 7.648821 a 0.14987498,0.14987498 0 0 0 0.150548,0.149929 h 4.007794 a 0.14987498,0.14987498 0 0 0 0.14807,-0.149929 v -8.938081 a 0.14987498,0.14987498 0 0 0 -0.175949,-0.146211 z"
         inkscape:label="1/1"
         transform="matrix(0.83411179,0,0,0.83411179,13.382221,16.473903)" /><path
         id="path109"
         style="color:#000000;fill:#b58900;stroke-width:1;stroke-linecap:square;stroke-linejoin:round;stroke-dasharray:none;stroke-dashoffset:134.173;-inkscape-stroke:none;paint-order:stroke markers fill"
         inkscape:label="art"
         d="m 46.700453,25.850747 c -1.038309,-0.0021 -3.474249,0.150978 -6.345349,1.407666 -3.828131,1.675588 -8.506734,5.328804 -12.005469,12.954248 -0.955769,2.083087 -2.5073,3.588933 -3.435449,5.334042 -0.464076,0.872556 -0.758526,1.890554 -0.525549,2.96571 0.154039,0.710861 0.589508,1.397421 1.156001,2.084627 -0.506051,0.352254 -0.96738,0.788178 -1.357539,1.305864 -0.723256,0.959664 -1.242019,2.153695 -1.330669,3.430798 -0.08865,1.277103 0.311507,2.665482 1.389063,3.715019 0.857022,0.834733 2.203153,1.361148 3.844727,1.688786 -0.440583,1.18285 -0.677645,2.23168 -0.548287,3.092834 0.171509,1.141768 0.908332,1.971139 1.686718,2.3797 1.55678,0.817116 3.283004,0.474389 3.283004,0.474389 0.941943,-0.140948 1.172324,-1.394127 0.342098,-1.860868 0,0 -0.639574,-0.467868 -0.769462,-0.778247 -0.06494,-0.155189 -0.09575,-0.183189 0.05168,-0.427364 0.147429,-0.244178 0.598296,-0.697337 1.614889,-1.196309 0.156762,-0.07694 0.299163,-0.162086 0.441833,-0.247014 0.04516,1.051289 0.217504,2.506564 0.658875,4.07262 l 10e-4,0.04496 c 0,0 0.08472,5.186461 -1.391646,10.457243 -0.73818,2.635391 -1.909181,5.151978 -3.558439,7.297746 -0.722883,0.940508 -2.689758,2.33009 -2.689758,2.33009 -1.419404,0.900813 -3.060106,1.217576 -4.704106,1.372526 -3.21718,0.315472 -5.378305,1.677157 -6.830591,3.47369 v 1.674833 c 0.213416,-0.342812 0.441249,-0.676324 0.699699,-0.988053 1.373618,-1.656782 3.418963,-2.863305 6.528284,-3.089734 2.924823,0.815329 4.717508,2.456239 5.828068,4.487581 1.12752,2.062363 1.538665,4.556517 1.56838,6.97942 0.03064,2.49844 -0.340717,4.87066 -0.710035,6.61251 h 0.976168 c 0.363783,-1.77784 0.712098,-4.14178 0.681612,-6.6275 -0.03119,-2.54494 -0.456645,-5.227887 -1.706355,-7.51375 -0.971767,-1.777473 -2.452945,-3.293573 -4.572848,-4.284493 0.835937,-0.222807 1.611711,-0.536832 2.32699,-0.931209 5.318207,4.553837 6.514478,9.796943 6.419763,13.975372 -0.05017,2.21375 -0.465606,4.07543 -0.854728,5.38158 h 0.993221 c 0.380965,-1.36639 0.758718,-3.21698 0.807186,-5.35523 0.09848,-4.344534 -1.190337,-9.86794 -6.465239,-14.558278 0.87608,-0.605133 1.652671,-1.333777 2.336809,-2.150256 0.2412,-0.28786 0.469211,-0.587533 0.68833,-0.895036 4.764548,1.4156 10.777213,20.20809 19.198311,15.191838 0.807591,0.602736 1.658311,1.126292 2.477368,1.636072 1.225789,0.76292 2.391796,1.5094 3.271118,2.42259 0.879323,0.9132 1.473783,1.95966 1.646928,3.43855 l 0.03204,0.26975 h 0.915189 l -0.04961,-0.42684 c -0.20694,-1.76755 -0.964653,-3.09271 -1.956987,-4.12327 -0.992334,-1.03055 -2.216756,-1.79894 -3.446301,-2.564179 -1.410696,-0.878013 -2.799708,-1.750576 -3.887101,-2.919718 L 48.3603,95.438231 c -0.276649,-0.479896 -0.508751,-1.004393 -0.682646,-1.588534 0,0 2.348807,-3.395246 4.009575,-10.663948 0.524721,-2.29656 1.215946,-6.961849 1.215946,-6.961849 l 0.05323,-0.459404 c 1.01833,-0.861094 2.205753,-1.939817 3.730522,-3.345532 3.550899,-3.27365 4.213474,-7.932988 4.303096,-10.344588 0.19173,0.122966 0.395652,0.239628 0.61495,0.347266 1.016593,0.498972 1.46746,0.952131 1.614888,1.196309 0.147423,0.244175 0.116613,0.272175 0.05168,0.427364 -0.129888,0.310379 -0.769462,0.778247 -0.769462,0.778247 -0.830227,0.466741 -0.599846,1.71992 0.342098,1.860868 0,0 1.726745,0.342727 3.28352,-0.474389 0.77839,-0.408561 1.514692,-1.237932 1.686202,-2.3797 0.129357,-0.861154 -0.107188,-1.909984 -0.54777,-3.092834 1.641572,-0.327638 2.987191,-0.854053 3.84421,-1.688786 1.077556,-1.049537 1.477714,-2.437916 1.389062,-3.715019 -0.08865,-1.277103 -0.60741,-2.471134 -1.330668,-3.430798 -0.390157,-0.517686 -0.851491,-0.95361 -1.35754,-1.305864 0.566491,-0.687206 1.001963,-1.373766 1.156002,-2.084627 0.23298,-1.075156 -0.06148,-2.093154 -0.525549,-2.96571 -0.928153,-1.745109 -2.479677,-3.250955 -3.43545,-5.334042 -3.498733,-7.625444 -8.177338,-11.27866 -12.005468,-12.954248 -2.871097,-1.256688 -5.307039,-1.409753 -6.345349,-1.407666 -0.346102,6.96e-4 -0.536919,0.0186 -0.536919,0.0186 -0.157332,0.01693 -0.308405,0.07094 -0.4408,0.157613 -0.132242,-0.08659 -0.283128,-0.140608 -0.440283,-0.157613 0,0 -0.190813,-0.01791 -0.536918,-0.0186 z m -0.05013,0.995288 c 0.315792,9.58e-4 0.488342,0.01809 0.488342,0.01809 v 5.229138 c -0.112919,-0.01875 -0.901537,-0.1468 -2.174027,-0.191719 -0.341728,-0.01206 -0.712716,-0.01767 -1.107426,-0.0124 -1.184141,0.01581 -2.577574,0.127763 -4.004924,0.445968 -1.903137,0.424275 -3.883945,1.218477 -5.504573,2.665987 -1.620632,1.447514 -2.860155,3.552999 -3.283004,6.493144 -0.14457,1.005217 -0.884973,2.038349 -1.786971,3.039091 -0.901994,1.000745 -1.939103,1.949355 -2.590023,2.932121 -0.32546,0.491385 -0.564975,1.00623 -0.58136,1.567863 -0.01175,0.402738 0.111339,0.809677 0.358118,1.18339 -3.122031,-3.43945 0.833035,-5.314441 2.793628,-9.587529 5.966407,-13.003704 15.181683,-13.789846 17.39222,-13.783138 z m 2.055172,0 c 2.210537,-0.0067 11.425816,0.779434 17.39222,13.783138 1.960596,4.273088 5.915658,6.148079 2.793628,9.587529 0.246777,-0.373713 0.369867,-0.780652 0.358117,-1.18339 -0.01638,-0.561633 -0.255898,-1.076478 -0.58136,-1.567863 -0.650922,-0.982766 -1.688028,-1.931376 -2.590022,-2.932121 -0.901995,-1.000742 -1.642401,-2.033874 -1.786971,-3.039091 -0.42285,-2.940145 -1.662373,-5.04563 -3.283004,-6.493144 -1.620632,-1.44751 -3.600923,-2.241712 -5.504057,-2.665987 -1.427351,-0.318205 -2.820784,-0.430161 -4.004923,-0.445968 -0.394715,-0.0053 -0.766212,3.41e-4 -1.107943,0.0124 -1.27249,0.04492 -2.061108,0.172968 -2.174028,0.191719 v -5.229138 c 0,0 0.172551,-0.01713 0.488343,-0.01809 z m -4.855001,6.044076 c 1.871822,-0.02587 3.203422,0.198954 3.203422,0.198954 l 0.08475,0.01447 v 3.396692 c -0.387415,-0.116264 -3.251301,-0.945216 -6.253365,-0.86403 -1.609771,0.04354 -3.251101,0.350875 -4.522204,1.261422 -1.271105,0.91055 -2.101274,2.451998 -2.046387,4.679301 0.06263,2.541249 -2.012563,4.032003 -3.448885,5.595524 -0.359084,0.390883 -0.677827,0.787836 -0.892452,1.232483 -0.214626,0.444644 -0.316219,0.954848 -0.205672,1.476396 0.113844,0.537114 0.421517,1.051736 0.946712,1.581815 -1.707975,-0.533713 -2.72866,-1.065504 -3.201355,-1.532723 -0.33381,-0.329946 -0.417599,-0.582432 -0.409277,-0.867647 0.0084,-0.285213 0.145265,-0.639271 0.413928,-1.044897 0.53732,-0.811256 1.557529,-1.766924 2.500622,-2.813265 0.943095,-1.046341 1.83667,-2.202958 2.032951,-3.567741 0.393593,-2.73672 1.507337,-4.592679 2.96106,-5.891114 1.453721,-1.298433 3.266689,-2.036952 5.054472,-2.43551 1.340834,-0.298914 2.658588,-0.404603 3.781681,-0.420129 z m 7.65483,0 c 1.123093,0.01553 2.440845,0.121215 3.781681,0.420129 1.787778,0.398558 3.60075,1.137077 5.054472,2.43551 1.453718,1.298435 2.567467,3.154394 2.96106,5.891114 0.196277,1.364783 1.089856,2.5214 2.03295,3.567741 0.943094,1.046341 1.963298,2.002009 2.500623,2.813265 0.268659,0.405626 0.405569,0.759684 0.413928,1.044897 0.0083,0.285215 -0.07546,0.537701 -0.409277,0.867647 -0.472637,0.467162 -1.49325,0.998557 -3.200838,1.532207 0.525027,-0.529985 0.832368,-1.044277 0.946195,-1.581299 0.110543,-0.521548 0.009,-1.031752 -0.205672,-1.476396 -0.214625,-0.444647 -0.533372,-0.8416 -0.892452,-1.232483 -1.436327,-1.563521 -3.511512,-3.054275 -3.448885,-5.595524 0.05489,-2.227303 -0.775286,-3.768751 -2.046387,-4.679301 -1.271104,-0.910547 -2.912436,-1.217884 -4.522205,-1.261422 -3.002264,-0.08119 -5.866264,0.748374 -6.253365,0.864547 v -3.397209 l 0.08475,-0.01447 c 0,0 1.331601,-0.22483 3.203422,-0.198954 z m -10.031429,3.742407 c 2.805827,0.03677 5.517492,0.864547 5.517492,0.864547 l 0.147278,0.04548 v 2.604492 c -17.773592,-5.649185 -5.958044,3.681941 -11.793078,8.500257 -0.985774,0.81401 -1.473277,1.664132 -1.658814,2.527494 -0.08419,0.238356 -0.09865,0.597676 -0.0925,1.038696 -0.799898,-0.18294 -2.648434,-1.614045 -2.844787,-2.540413 -0.06037,-0.284804 -0.01757,-0.534286 0.127124,-0.834058 0.144696,-0.299768 0.399627,-0.63211 0.727087,-0.98857 1.309838,-1.425836 3.788563,-3.209076 3.712435,-6.298324 -0.04883,-1.981308 0.608296,-3.111447 1.628324,-3.842142 1.02003,-0.730692 2.470787,-1.033353 3.967717,-1.073837 0.187117,-0.0051 0.374667,-0.0061 0.561723,-0.0036 z m 12.408028,0 c 0.187055,-0.0025 0.374607,-0.0014 0.561723,0.0036 1.496929,0.04048 2.947683,0.343145 3.967716,1.073837 1.020029,0.730695 1.677153,1.860834 1.628325,3.842142 -0.07613,3.089248 2.402598,4.872488 3.712434,6.298324 0.327458,0.35646 0.582392,0.688802 0.727088,0.98857 0.144695,0.299772 0.188011,0.549254 0.127641,0.834058 -0.119077,0.561785 -0.778356,1.390798 -2.517676,2.465482 l -0.327629,0.07493 c 0.04252,-1.217765 -0.372066,-2.427268 -1.751314,-3.56619 C 54.1752,43.828955 65.99075,34.497829 48.217152,40.147014 V 37.54254 l 0.147278,-0.04548 c 0,0 2.711665,-0.827779 5.517493,-0.864547 z M 39.22184,39.389972 c 1.322618,0.01733 3.766666,0.487317 7.615039,1.71049 h 1.682068 c 4.398139,-1.397912 6.962319,-1.811755 8.114233,-1.690852 0.57596,0.06045 0.723025,0.190738 0.800985,0.290421 0.07796,0.09968 0.157151,0.323716 0.156579,0.769462 -0.0011,0.891498 -0.374454,2.38439 -0.384989,4.014742 -0.01054,1.630355 0.458592,3.523084 2.16731,4.934066 0.202105,0.166892 0.367578,0.327568 0.517797,0.486275 -0.657105,-0.29951 -1.52278,-0.475591 -2.640665,-0.506429 -0.182632,-0.005 -0.361251,-0.0084 -0.536402,-0.0093 -2.627246,-0.01374 -4.421097,0.430291 -5.631697,1.141016 -1.291309,0.758109 -1.886616,1.843918 -2.015381,2.846855 -0.128765,1.002933 0.151983,1.900657 0.574642,2.47375 0.179889,0.243912 0.388225,0.4685 0.706933,0.541053 1.041956,0.70138 2.092688,0.920365 3.041675,0.812353 0.992483,-0.112966 1.862136,-0.560248 2.576587,-1.087272 0.626088,-0.461841 1.143663,-0.99274 1.528072,-1.443323 0.02788,0.0041 0.05606,0.0058 0.08423,0.0052 1.216358,-0.07524 2.257311,-0.5051 2.935738,-1.138949 -0.161808,0.561679 -0.382409,1.151486 -0.620634,1.756482 -0.213276,0.54163 -0.438038,1.094531 -0.613399,1.664498 l -0.07286,0.169499 0.01809,0.0078 c -0.166422,0.58392 -0.272289,1.187483 -0.241846,1.821595 0.03844,0.800728 0.377672,1.596524 1.010274,2.284615 0.02105,1.777928 -0.248664,6.996353 -3.985286,10.441223 -2.38121,2.195285 -3.987528,3.647065 -5.21777,4.524788 -1.230239,0.877726 -2.037306,1.174089 -2.963643,1.174089 h -0.476457 c -0.926337,0 -1.732884,-0.296363 -2.963126,-1.174089 -1.230241,-0.877723 -2.83656,-2.329503 -5.21777,-4.524788 -1.909277,-1.760203 -2.899335,-3.976118 -3.421496,-5.967595 v -5.16e-4 c -0.466918,-1.78102 -0.562472,-3.383999 -0.562757,-4.296379 0.744775,-0.726698 1.144163,-1.590511 1.185975,-2.461348 0.03044,-0.634112 -0.07542,-1.237675 -0.241846,-1.821595 l 0.01809,-0.0078 -0.07338,-0.172083 C 35.89949,56.38885 35.674832,55.83685 35.461871,55.296012 35.281377,54.837635 35.11655,54.39094 34.973012,53.955009 c 0.459999,0.279021 1.012219,0.479882 1.62419,0.575675 0.357319,0.481857 0.932053,1.156955 1.689302,1.717725 0.67063,0.496625 1.501154,0.914521 2.460315,0.999939 0.959161,0.08541 2.030347,-0.179003 3.112989,-0.954981 0.04021,-0.02885 0.07591,-0.0635 0.105936,-0.102836 0.188408,-0.103492 0.329056,-0.27343 0.45527,-0.454752 0.391832,-0.562917 0.654224,-1.444704 0.534851,-2.429826 -0.119373,-0.985123 -0.67098,-2.052081 -1.868103,-2.796729 -1.122302,-0.698104 -2.785249,-1.133846 -5.22087,-1.120345 -0.162375,9e-4 -0.328334,0.0038 -0.497644,0.0088 -0.604814,0.01768 -1.127603,0.08564 -1.582333,0.195854 0.06527,-0.05842 0.123687,-0.115591 0.195854,-0.175183 1.708713,-1.410982 2.177846,-3.303711 2.16731,-4.934066 -0.01053,-1.630352 -0.383329,-3.123244 -0.384473,-4.014742 -5.71e-4,-0.445746 0.07862,-0.669781 0.15658,-0.769462 0.07796,-0.09968 0.224512,-0.22997 0.800467,-0.290421 0.14399,-0.01511 0.310249,-0.02211 0.499195,-0.01964 z m -1.351339,10.981759 c 2.32631,-0.01169 3.826544,0.413241 4.74648,0.98547 0.981269,0.610375 1.332105,1.361131 1.418518,2.074292 0.06475,0.534371 -0.047,1.059526 -0.198437,1.420585 -0.164116,-0.452875 -0.442584,-0.989548 -0.916223,-1.455209 -0.532668,-0.523688 -1.322926,-0.946144 -2.391069,-1.037662 -1.068143,-0.09152 -2.404951,0.131823 -4.11086,0.829923 -0.104933,0.04322 -0.192041,0.120858 -0.247013,0.220142 -0.817215,-0.273869 -1.369608,-0.788415 -1.576131,-1.243335 -6.04e-4,-0.01849 -0.0059,-0.039 -0.0062,-0.05736 -0.005,-0.297539 0.02221,-0.580416 0.09147,-0.859379 0.07135,-0.08831 0.164143,-0.176771 0.289388,-0.267167 0.420955,-0.303838 1.206333,-0.566456 2.423624,-0.602031 0.162502,-0.0047 0.32137,-0.0075 0.476457,-0.0083 z m 18.837093,0.01757 c 0.16729,7.93e-4 0.338377,0.0034 0.513664,0.0083 1.313065,0.03622 2.160232,0.303551 2.614311,0.612883 0.454074,0.309327 0.547393,0.597011 0.499194,0.928109 -0.0799,0.548902 -0.826283,1.307155 -2.02675,1.60972 0.08506,-0.249498 -0.03817,-0.522181 -0.281636,-0.623217 -1.710108,-0.699814 -3.094756,-0.890921 -4.19561,-0.769462 -1.100857,0.121462 -1.917566,0.553458 -2.491837,1.102775 -0.558667,0.534383 -0.888835,1.153713 -1.082105,1.650028 -0.155011,-0.365792 -0.266815,-0.879511 -0.199471,-1.404049 0.09321,-0.726051 0.471671,-1.490088 1.530139,-2.111499 0.992314,-0.582574 2.610768,-1.015456 5.120101,-1.003556 z m -29.571321,0.532784 c 0.543107,0.428931 1.298697,0.818243 2.320788,1.189075 -1.379174,0.480888 -2.567422,1.554712 -3.21014,2.826701 -0.705515,1.39628 -0.692951,3.13898 0.630969,4.366141 0.112123,0.103929 0.235644,0.202595 0.364319,0.29869 -5.89985,-1.80966 -2.893427,-8.01766 -0.105936,-8.680607 z m 41.08328,0 c 2.787489,0.662947 5.793916,6.870947 -0.105937,8.680607 0.128676,-0.09609 0.252196,-0.194761 0.364319,-0.29869 1.323922,-1.227161 1.336489,-2.969861 0.630969,-4.366141 -0.642713,-1.271989 -1.830966,-2.345813 -3.21014,-2.826701 1.02209,-0.370832 1.777684,-0.760144 2.320789,-1.189075 z m -21.415747,1.476913 c -0.06435,-0.0126 -0.130542,-0.01243 -0.19482,5.16e-4 -0.270439,0.05441 -0.445719,0.31756 -0.391708,0.588078 0,0 0.369366,1.845307 0.360185,3.846794 -0.0046,1.000743 -0.108379,2.036687 -0.377755,2.867525 -0.269373,0.830838 -0.681683,1.425674 -1.292944,1.70894 -0.430771,0.199626 -0.749661,0.414109 -0.970483,0.690913 -0.220823,0.276804 -0.315244,0.647614 -0.246497,0.96635 0.137496,0.637479 0.658633,1.002809 1.194759,1.332735 1.072252,0.659846 2.471167,1.084688 2.471167,1.084688 0.111669,0.03476 0.231988,0.02927 0.340031,-0.0155 0,0 1.505486,-0.618225 2.524911,-1.393196 0.254857,-0.193744 0.483368,-0.398518 0.659908,-0.639755 0.176541,-0.241238 0.319256,-0.560727 0.241329,-0.917256 -0.07793,-0.356532 -0.360169,-0.61725 -0.702283,-0.784965 -0.342114,-0.167716 -0.779435,-0.279469 -1.368392,-0.364319 -0.272904,-0.0392 -0.526042,0.149898 -0.565857,0.422713 -0.0392,0.272904 0.149899,0.526042 0.422713,0.565857 0.528274,0.0761 0.883153,0.182706 1.071253,0.274919 0.105177,0.05156 0.144671,0.08472 0.160197,0.100252 -0.0064,0.01641 -0.02183,0.0516 -0.06615,0.112138 -0.08383,0.114553 -0.249807,0.275139 -0.458887,0.434082 -0.775538,0.589569 -1.950121,1.092031 -2.137854,1.174088 -0.18309,-0.05972 -1.241761,-0.394674 -2.069124,-0.90382 -0.448555,-0.276033 -0.721278,-0.606152 -0.740007,-0.692981 -0.0094,-0.04341 -0.02212,-0.04044 0.05116,-0.132292 0.07328,-0.09186 0.263141,-0.246533 0.608748,-0.406694 0.941503,-0.436307 1.504682,-1.323421 1.824695,-2.310453 0.320015,-0.987031 0.420419,-2.106015 0.425297,-3.169315 0.0097,-2.126596 -0.380337,-4.048332 -0.380338,-4.048332 -0.03992,-0.198022 -0.19508,-0.352566 -0.393258,-0.391707 z m -15.778882,0.441833 c 0.906105,0.01331 1.780324,0.44332 2.524394,1.562695 l 0.113688,0.170533 c -0.104578,-0.0317 -0.209449,-0.05961 -0.314709,-0.08113 -1.038745,-0.212377 -2.096259,0.01616 -2.811715,0.623734 -0.35773,0.303793 -0.626866,0.719184 -0.709001,1.205611 -0.08214,0.486432 0.02951,1.022742 0.333313,1.543575 0.423563,0.726148 1.201394,1.45275 2.447396,2.178679 -2.657508,-0.108131 -4.244151,-0.72658 -5.050854,-1.474329 -0.997892,-0.92496 -0.985102,-2.060531 -0.418063,-3.182751 0.567039,-1.122219 1.750685,-2.118937 2.972429,-2.43086 0.305435,-0.07798 0.611086,-0.120194 0.913122,-0.115755 z m 33.305978,0 c 0.302035,-0.0044 0.607685,0.03777 0.913122,0.115755 1.221744,0.311923 2.405388,1.308641 2.972428,2.43086 0.567038,1.12222 0.579829,2.257791 -0.418062,3.182751 -0.806705,0.747749 -2.393349,1.366198 -5.050854,1.474329 1.245997,-0.725929 2.023833,-1.452531 2.447395,-2.178679 0.303803,-0.520833 0.415453,-1.057143 0.333313,-1.543575 -0.08213,-0.486427 -0.351271,-0.901818 -0.709,-1.205611 -0.715457,-0.607576 -1.77297,-0.836111 -2.811715,-0.623734 -0.105262,0.02152 -0.210132,0.04944 -0.314709,0.08113 l 0.113688,-0.170533 c 0.744073,-1.119375 1.618287,-1.549381 2.524394,-1.562695 z m -31.74845,2.579688 c 0.186644,-0.0029 0.377824,0.01354 0.56689,0.05219 0.756259,0.154623 1.472473,0.618817 1.883089,1.588016 l 0.05736,0.13591 c 0.316699,1.017498 0.438109,1.972084 -0.01757,2.814815 l -0.270784,0.01344 c -2.229995,-0.979328 -3.361075,-1.94926 -3.777031,-2.66237 -0.21124,-0.362146 -0.24909,-0.642712 -0.210323,-0.872298 0.03876,-0.229591 0.160974,-0.431987 0.371554,-0.610816 0.315865,-0.268242 0.836883,-0.450073 1.396814,-0.458886 z m 30.191439,0 c 0.559928,0.0088 1.080946,0.190644 1.396814,0.458886 0.210578,0.178829 0.332274,0.381225 0.371036,0.610816 0.03877,0.229586 9.15e-4,0.510152 -0.210323,0.872298 -0.4154,0.712159 -1.544664,1.680239 -3.768762,2.658236 l -0.03101,0.0031 -0.248047,-0.0124 C 59.82792,59.168724 59.949332,58.214138 60.266029,57.19664 l 0.05736,-0.13591 c 0.410617,-0.969199 1.127348,-1.433393 1.883606,-1.588016 0.189065,-0.03866 0.380246,-0.05513 0.566891,-0.05219 z m -33.593815,5.119067 c 1.24532,0.378932 2.863767,0.566636 4.924247,0.51108 -0.229484,0.164079 -0.486408,0.323273 -0.793233,0.473873 -4.466531,2.192302 -0.946713,4.170288 -0.946713,4.170288 0,0 -5.807738,0.856143 -3.184301,-5.155241 z m 36.995674,0 c 2.623435,6.011384 -3.184302,5.155241 -3.184302,5.155241 0,0 3.519815,-1.977986 -0.946712,-4.170288 -0.306828,-0.1506 -0.563749,-0.309794 -0.793233,-0.473873 2.06048,0.05556 3.678923,-0.132148 4.924247,-0.51108 z m -20.166211,6.435783 c -0.829145,0.0016 -1.5508,0.365795 -2.212268,0.652673 -0.661468,0.286881 -1.243686,0.492137 -1.742012,0.409277 -0.458109,-0.07649 -0.763938,0.458454 -0.465605,0.814421 0,0 2.202966,2.65444 5.743835,2.719731 0.0059,-0.0021 0.01176,-0.0044 0.01757,-0.0067 0.006,0.0024 0.01201,0.0046 0.01809,0.0067 3.54087,-0.06529 5.743319,-2.719731 5.743319,-2.719731 0.298005,-0.355764 -0.0072,-0.890294 -0.465088,-0.814421 -0.664475,0.110493 -1.482679,-0.321074 -2.424142,-0.702282 -0.470732,-0.190605 -0.977393,-0.358584 -1.530139,-0.359668 -0.444454,-8.71e-4 -0.902097,0.233873 -1.342037,0.518831 -0.439859,-0.285009 -0.896915,-0.519702 -1.34152,-0.518831 z m -10.321334,1.564245 c 0.637079,1.359676 1.533858,2.708414 2.803964,3.87935 2.384048,2.197903 3.99667,3.664741 5.314404,4.604887 1.309221,0.934073 2.374188,1.353698 3.522266,1.35909 v 10e-4 h 0.02222 0.476457 0.02481 v -10e-4 c 1.147098,-0.006 2.211955,-0.425713 3.520198,-1.35909 0.175894,-0.125493 0.373673,-0.286235 0.561206,-0.430981 -0.08322,0.665422 -0.393986,3.052605 -1.119828,6.301424 -0.508339,2.275294 -1.202787,4.784591 -2.077392,6.956681 -3.284193,-1.029506 -5.448091,-2.908065 -7.650179,-4.809525 -2.214687,-1.912336 -4.4807,-3.845635 -7.867737,-4.753715 0.436499,-1.04297 0.798968,-2.11606 1.097607,-3.182235 0.920836,-3.28749 1.251267,-6.498227 1.372009,-8.565886 z m -2.902148,12.717054 c 3.305917,0.828606 5.457312,2.665478 7.718909,4.618322 2.167316,1.871436 4.43637,3.843127 7.819677,4.941818 -0.455724,1.007507 -0.953711,1.914745 -1.496032,2.64945 -0.03123,0.05097 -0.05501,0.108142 -0.07028,0.168982 -5.362761,-2.708357 -8.84157,-8.91755 -14.618229,-11.147123 0.228138,-0.402491 0.446095,-0.811647 0.645955,-1.231449 z" /></g></g><g
     inkscape:groupmode="layer"
     id="layer2"
     inkscape:label="DRAFTS"
     style="display:none"><g
       id="g108"
       inkscape:label="human draft"
       style="display:none"
       transform="translate(-0.62367901,-6.8994491)"><g
         id="g105"
         inkscape:label="neck"
         transform="matrix(1.044759,0,0,1.274807,-2.6463956,-27.607687)"
         style="stroke-width:0.866502;stroke-dasharray:none"><path
           style="fill:none;stroke:#b58900;stroke-width:0.866502;stroke-linecap:square;stroke-linejoin:round;stroke-dasharray:none;stroke-dashoffset:134.173;paint-order:stroke markers fill"
           d="m 36.325906,75.308658 c 0,0 0.347252,16.52204 -11.889727,17.249644 -12.236979,0.727604 -8.758237,14.341678 -8.758237,14.341678"
           id="path103"
           sodipodi:nodetypes="csc" /><path
           style="fill:none;stroke:#b58900;stroke-width:0.866502;stroke-linecap:square;stroke-linejoin:round;stroke-dasharray:none;stroke-dashoffset:134.173;paint-order:stroke markers fill"
           d="m 52.741493,83.047591 c 0,0 -1.390394,9.798155 -5.063553,13.876336 1.720981,5.268803 9.897301,4.882823 10.624905,9.976053"
           id="path104"
           sodipodi:nodetypes="ccc" /><path
           style="fill:#b58900;stroke:none;stroke-width:0.866502;stroke-linecap:square;stroke-linejoin:round;stroke-dasharray:none;stroke-dashoffset:134.173;paint-order:stroke markers fill"
           d="m 33.081992,87.954481 c 5.799749,1.73057 9.170377,6.911469 14.595948,8.969444 l 3.565073,3.920765 C 42.777251,105.66222 36.823328,89.658888 32.134974,89.109522 Z"
           id="path105"
           sodipodi:nodetypes="ccccc" /><path
           style="display:inline;fill:none;stroke:#b58900;stroke-width:0.949178;stroke-linecap:square;stroke-linejoin:round;stroke-dasharray:none;stroke-dashoffset:134.173;paint-order:stroke markers fill"
           d="m 28.806516,109.82236 c 0,0 5.98207,-16.385093 -6.470175,-19.371191"
           id="path106"
           transform="matrix(0.95582503,0,0,0.87189767,3.086545,13.694138)" /><path
           style="display:inline;fill:none;stroke:#b58900;stroke-width:0.949178;stroke-linecap:square;stroke-linejoin:round;stroke-dasharray:none;stroke-dashoffset:134.173;paint-order:stroke markers fill"
           d="m 32.063296,109.16091 c 0,0 5.988751,-11.449752 -5.198301,-19.880086"
           id="path107"
           transform="matrix(0.95582503,0,0,0.87189767,3.086545,13.694138)" /><path
           style="display:inline;fill:none;stroke:#b58900;stroke-width:0.949178;stroke-linecap:square;stroke-linejoin:round;stroke-dasharray:none;stroke-dashoffset:134.173;paint-order:stroke markers fill"
           d="M 48.482668,92.437223 C 41.279505,90.587425 39.200694,85.17094 32.259093,83.65514"
           id="path108"
           sodipodi:nodetypes="cc"
           transform="matrix(0.95582503,0,0,0.87189767,3.086545,13.694138)" /></g><g
         id="g106"
         inkscape:label="head"
         transform="matrix(1.1451214,0,0,1.1451214,-4.074049,-15.23338)"
         style="stroke-width:0.87327;stroke-dasharray:none"><g
           id="g102"
           inkscape:label="face"
           style="stroke-width:0.87327;stroke-dasharray:none"><g
             id="g95"
             style="display:inline;stroke-width:0.87327;stroke-dasharray:none"
             inkscape:label="eyes"><path
               style="fill:#b58900;stroke:#b58900;stroke-width:0.87327;stroke-linecap:square;stroke-linejoin:round;stroke-dasharray:none;stroke-dashoffset:134.173;paint-order:stroke markers fill"
               d="m 41.604913,63.955351 c 0,0 -0.297419,-4.317575 -6.079156,-1.951554 0,0 2.579105,4.460201 6.079156,1.951554 z"
               id="path86"
               sodipodi:nodetypes="csc" /><path
               style="fill:#b58900;stroke:#b58900;stroke-width:0.87327;stroke-linecap:square;stroke-linejoin:round;stroke-dasharray:none;stroke-dashoffset:134.173;paint-order:stroke markers fill"
               d="m 47.655036,63.955351 c 0,0 0.628138,-4.549086 6.409885,-2.183065 0,0 -2.909834,4.691712 -6.409885,2.183065 z"
               id="path87"
               sodipodi:nodetypes="csc" /><path
               style="fill:none;stroke:#b58900;stroke-width:0.87327;stroke-linecap:square;stroke-linejoin:round;stroke-dasharray:none;stroke-dashoffset:134.173;paint-order:stroke markers fill"
               d="m 48.013953,63.634087 c -0.499965,1.984375 -4.475549,-5.185293 5.526392,-4.909378 4.795573,0.132291 3.481433,3.541635 0.27336,3.740073 0,0 -4.909994,-2.288767 -5.799752,1.169305 z"
               id="path88"
               sodipodi:nodetypes="cscc" /><path
               style="fill:none;stroke:#b58900;stroke-width:0.87327;stroke-linecap:square;stroke-linejoin:round;stroke-dasharray:none;stroke-dashoffset:134.173;paint-order:stroke markers fill"
               d="m 41.205972,63.634087 c 0.499965,1.984375 4.475549,-5.185293 -5.526392,-4.909378 -4.795573,0.132291 -3.481433,3.541635 -0.27336,3.740073 0,0 4.909994,-2.288767 5.799752,1.169305 z"
               id="path89"
               sodipodi:nodetypes="cscc" /></g><path
             style="fill:none;stroke:#b58900;stroke-width:0.87327;stroke-linecap:round;stroke-linejoin:round;stroke-dasharray:none;stroke-dashoffset:134.173;paint-order:stroke markers fill"
             d="m 44.346074,61.337469 c 0,0 1.322917,6.581511 -1.389062,7.838281 -2.711979,1.256771 2.083594,2.745053 2.083594,2.745053 0,0 5.192447,-2.182813 1.289843,-2.745053"
             id="path90"
             inkscape:label="nose" /><path
             id="path91"
             style="fill:#b58900;stroke:#b58900;stroke-width:0.87327;stroke-linecap:square;stroke-linejoin:round;stroke-dasharray:none;stroke-dashoffset:134.173;paint-order:stroke markers fill"
             d="m 43.737326,74.074677 c -1.171419,0.0023 -2.344733,1.118218 -3.525366,0.921908 0,0 1.812779,2.166982 4.68912,2.220019 l 0.0072,-2.68304 c -0.39022,-0.336488 -0.780481,-0.459652 -1.170954,-0.458887 z m 1.170988,0.458887 0.0072,2.68304 c 2.876341,-0.05304 4.68912,-2.220019 4.68912,-2.220019 -1.574177,0.261747 -3.135335,-1.808974 -4.696355,-0.463021 z"
             inkscape:label="mouth" /><path
             style="fill:none;stroke:#b58900;stroke-width:0.87327;stroke-linecap:square;stroke-linejoin:round;stroke-dasharray:none;stroke-dashoffset:134.173;paint-order:stroke markers fill"
             d="m 33.865114,68.010999 c 0,0 -0.558528,6.224908 3.602847,10.061366 4.161377,3.836458 5.621342,5.093229 7.440353,5.093229"
             id="path101" /><path
             style="fill:none;stroke:#b58900;stroke-width:0.87327;stroke-linecap:square;stroke-linejoin:round;stroke-dasharray:none;stroke-dashoffset:134.173;paint-order:stroke markers fill"
             d="m 56.367826,68.010999 c 0,0 0.558528,6.224908 -3.602847,10.061366 -4.161377,3.836458 -5.621342,5.093229 -7.440353,5.093229"
             id="path102" /></g><g
           id="g96"
           inkscape:label="hair side"
           style="stroke-width:0.87327;stroke-dasharray:none"><path
             style="fill:#002b36;stroke:#b58900;stroke-width:1.74654;stroke-linecap:square;stroke-linejoin:round;stroke-dasharray:none;stroke-dashoffset:134.173;paint-order:stroke markers fill"
             d="M 44.722621,50.210476 V 38.610978 c 0,0 -9.660053,-0.957608 -15.614692,12.020447 -1.824115,3.975634 -5.626347,5.574065 -1.824114,8.980257 -2.699098,0.599862 -5.674016,7.205975 1.964431,7.951266 -2.791746,5.749913 2.572469,4.95785 2.572469,4.95785 0,0 -3.073805,-1.72759 0.826698,-3.642071 C 37.823892,66.33796 29.720794,61.517172 34.4242,57.633303 39.519785,53.42559 29.201399,45.277188 44.722621,50.210476 Z"
             id="path84"
             sodipodi:nodetypes="ccscccssc" /><path
             style="fill:none;stroke:#b58900;stroke-width:0.87327;stroke-linecap:square;stroke-linejoin:round;stroke-dasharray:none;stroke-dashoffset:134.173;paint-order:stroke markers fill"
             d="m 44.722621,47.479917 c 0,0 -10.942579,-3.381795 -10.761443,3.968751 0.121166,4.916972 -7.9501,5.715026 -1.521354,9.644075"
             id="path92"
             sodipodi:nodetypes="csc" /><path
             style="fill:none;stroke:#b58900;stroke-width:0.87327;stroke-linecap:square;stroke-linejoin:round;stroke-dasharray:none;stroke-dashoffset:134.173;paint-order:stroke markers fill"
             d="m 44.722622,43.616977 c 0,0 -12.179761,-2.08324 -13.605714,7.83169 -0.595312,4.139323 -10.219534,7.028663 1.322916,9.644076"
             id="path93"
             sodipodi:nodetypes="csc" /><path
             style="fill:none;stroke:#b58900;stroke-width:0.87327;stroke-linecap:square;stroke-linejoin:round;stroke-dasharray:none;stroke-dashoffset:134.173;paint-order:stroke markers fill"
             d="m 33.21898,62.418993 c -3.807247,-5.727601 -13.343709,6.275132 0.646134,5.592006"
             id="path94"
             sodipodi:nodetypes="cc" /><path
             style="fill:none;stroke:#b58900;stroke-width:0.87327;stroke-linecap:square;stroke-linejoin:round;stroke-dasharray:none;stroke-dashoffset:134.173;paint-order:stroke markers fill"
             d="m 34.551916,64.810126 c -1.650649,-3.896122 -8.904459,-0.353638 -0.686802,3.200873"
             id="path95"
             sodipodi:nodetypes="cc" /></g><g
           id="g100"
           inkscape:label="hair side"
           transform="matrix(-1,0,0,1,90.386908,0)"
           style="stroke-width:0.87327;stroke-dasharray:none"><path
             style="fill:#002b36;stroke:#b58900;stroke-width:1.74654;stroke-linecap:square;stroke-linejoin:round;stroke-dasharray:none;stroke-dashoffset:134.173;paint-order:stroke markers fill"
             d="M 44.722621,50.210476 V 38.610978 c 0,0 -9.660053,-0.957608 -15.614692,12.020447 -1.824115,3.975634 -5.626347,5.574065 -1.824114,8.980257 -2.699098,0.599862 -5.674016,7.205975 1.964431,7.951266 -2.791746,5.749913 2.572469,4.95785 2.572469,4.95785 0,0 -3.073805,-1.72759 0.826698,-3.642071 C 37.823892,66.33796 29.720794,61.517172 34.4242,57.633303 39.519785,53.42559 29.201399,45.277188 44.722621,50.210476 Z"
             id="path96"
             sodipodi:nodetypes="ccscccssc" /><path
             style="fill:none;stroke:#b58900;stroke-width:0.87327;stroke-linecap:square;stroke-linejoin:round;stroke-dasharray:none;stroke-dashoffset:134.173;paint-order:stroke markers fill"
             d="m 44.722621,47.479917 c 0,0 -10.942579,-3.381795 -10.761443,3.968751 0.121166,4.916972 -7.9501,5.715026 -1.521354,9.644075"
             id="path97"
             sodipodi:nodetypes="csc" /><path
             style="fill:none;stroke:#b58900;stroke-width:0.87327;stroke-linecap:square;stroke-linejoin:round;stroke-dasharray:none;stroke-dashoffset:134.173;paint-order:stroke markers fill"
             d="m 44.722622,43.616977 c 0,0 -12.179761,-2.08324 -13.605714,7.83169 -0.595312,4.139323 -10.219534,7.028663 1.322916,9.644076"
             id="path98"
             sodipodi:nodetypes="csc" /><path
             style="fill:none;stroke:#b58900;stroke-width:0.87327;stroke-linecap:square;stroke-linejoin:round;stroke-dasharray:none;stroke-dashoffset:134.173;paint-order:stroke markers fill"
             d="m 33.21898,62.418993 c -3.807247,-5.727601 -13.343709,6.275132 0.646134,5.592006"
             id="path99"
             sodipodi:nodetypes="cc" /><path
             style="fill:none;stroke:#b58900;stroke-width:0.87327;stroke-linecap:square;stroke-linejoin:round;stroke-dasharray:none;stroke-dashoffset:134.173;paint-order:stroke markers fill"
             d="m 34.551916,64.810126 c -1.650649,-3.896122 -8.904459,-0.353638 -0.686802,3.200873"
             id="path100"
             sodipodi:nodetypes="cc" /></g></g></g><g
       id="g36"
       inkscape:label="elephant draft"
       style="display:none"
       transform="translate(-0.62367901,-6.8994491)"><g
         id="g16"
         inkscape:label="trunk"
         style="stroke:#b58900"><path
           style="fill:none;stroke:#b58900;stroke-width:2;stroke-linecap:round;stroke-linejoin:round;stroke-dashoffset:134.173;paint-order:stroke markers fill"
           d="m 111.82243,246.06998 c 0,0 -7.93836,-1.20034 -7.93836,-5.23785 0,-4.03751 -0.43649,-15.27707 1.85507,-16.9139 C 108.0307,222.2814 92.438698,113.11786 92.438698,113.11786 l 8.950662,-6.17287 h 10.43307"
           id="path6"
           sodipodi:nodetypes="cssccc" /><path
           style="fill:none;stroke:#b58900;stroke-width:2;stroke-linecap:round;stroke-linejoin:round;stroke-dashoffset:134.173;paint-order:stroke markers fill"
           d="m 111.82243,127.00676 h -9.12134 l -7.672571,4.55716"
           id="path7" /><path
           style="fill:none;stroke:#b58900;stroke-width:2;stroke-linecap:round;stroke-linejoin:round;stroke-dashoffset:134.173;paint-order:stroke markers fill"
           d="m 111.82243,145.37104 h -7.34664 l -6.934616,4.50933"
           id="path8" /><path
           style="fill:none;stroke:#b58900;stroke-width:2;stroke-linecap:round;stroke-linejoin:round;stroke-dashoffset:134.173;paint-order:stroke markers fill"
           d="m 111.82243,164.35261 h -6.18923 l -5.652353,3.79984"
           id="path9" /><path
           style="fill:none;stroke:#b58900;stroke-width:2;stroke-linecap:round;stroke-linejoin:round;stroke-dashoffset:134.173;paint-order:stroke markers fill"
           d="m 111.82243,181.55948 h -4.64601 l -5.04585,2.46915"
           id="path10" /><path
           style="fill:none;stroke:#b58900;stroke-width:2;stroke-linecap:round;stroke-linejoin:round;stroke-dashoffset:134.173;paint-order:stroke markers fill"
           d="m 111.82243,195.52559 h -4.33737 l -3.77787,2.28727"
           id="path11" /><path
           style="fill:none;stroke:#b58900;stroke-width:2;stroke-linecap:round;stroke-linejoin:round;stroke-dashoffset:134.173;paint-order:stroke markers fill"
           d="m 111.82243,208.33429 h -3.64292 l -3.07425,2.11947"
           id="path12"
           sodipodi:nodetypes="ccc" /><path
           style="fill:none;stroke:#b58900;stroke-width:2;stroke-linecap:round;stroke-linejoin:round;stroke-dashoffset:134.173;paint-order:stroke markers fill"
           d="m 111.82243,221.71228 c -3.41121,0 -6.08329,2.20595 -6.08329,2.20595"
           id="path13"
           sodipodi:nodetypes="cc" /><path
           id="path14"
           style="fill:#b58900;stroke:#b58900;stroke-width:1;stroke-linecap:round;stroke-linejoin:round;stroke-dasharray:none;stroke-dashoffset:134.173;paint-order:stroke markers fill"
           d="m 109.66741,242.08698 c -1.22033,0 -2.20959,-1.91758 -2.20959,-4.28304 0,-2.36545 0.98926,-4.28303 2.20959,-4.28303 z"
           sodipodi:nodetypes="cscc"
           inkscape:label="nosetral" /><path
           style="fill:#b58900;stroke:#002b36;stroke-width:4;stroke-linecap:round;stroke-linejoin:round;stroke-dasharray:none;stroke-dashoffset:134.173;paint-order:stroke markers fill"
           d="m 93.210691,118.56646 c -3.324921,-3.15617 -7.847443,-2.92186 -9.841545,1.14029 -5.687325,51.79272 13.577738,58.20644 21.848304,54.8228 12.40793,-5.07632 -21.542944,5.07252 -12.006759,-55.96309 z"
           id="path16"
           sodipodi:nodetypes="ccsc"
           inkscape:label="tusk" /><path
           style="fill:none;stroke:#b58900;stroke-width:2;stroke-linecap:round;stroke-linejoin:round;stroke-dasharray:none;stroke-dashoffset:134.173;paint-order:stroke markers fill"
           d="m 92.652091,114.40486 c 0,0 -5.998659,-3.18234 -10.244305,2.03096 L 97.21898,87.609804"
           id="path33"
           sodipodi:nodetypes="ccc" /></g><g
         id="g21"
         inkscape:label="face"
         style="stroke:#b58900"><path
           style="fill:none;stroke:#b58900;stroke-width:2;stroke-linecap:round;stroke-linejoin:round;stroke-dashoffset:134.173;paint-order:stroke markers fill"
           d="M 82.79359,114.8925 70.370694,103.54986 64.660792,49.614425 94.136235,28.08655 c 0,0 7.125335,6.790153 18.686195,6.790153"
           id="path18" /><path
           style="fill:none;stroke:#b58900;stroke-width:2;stroke-linecap:round;stroke-linejoin:round;stroke-dashoffset:134.173;paint-order:stroke markers fill"
           d="M 84.46475,108.16646 75.318944,100.61775 69.801885,45.859541"
           id="path19"
           sodipodi:nodetypes="ccc" /><path
           style="fill:none;stroke:#b58900;stroke-width:2;stroke-linecap:round;stroke-linejoin:round;stroke-dasharray:none;stroke-dashoffset:134.173;paint-order:stroke markers fill"
           d="m 79.334779,65.695718 0.383533,4.895804 3.148751,0.32578 6.689703,5.516977 7.662214,11.175525 -3.472238,-13.760392 -10.95684,-9.799426 z"
           id="path31"
           sodipodi:nodetypes="cccccccc" /><path
           style="fill:#b58900;stroke:none;stroke-width:2;stroke-linecap:round;stroke-linejoin:round;stroke-dasharray:none;stroke-dashoffset:134.173;paint-order:stroke markers fill"
           d="m 82.867063,70.917302 c 0,0 -1.897583,13.5688 7.759575,9.18214 -1.50636,-4.861134 -7.759575,-9.18214 -7.759575,-9.18214 z"
           id="path32"
           sodipodi:nodetypes="ccc"
           inkscape:label="eye" /><g
           id="g35"
           inkscape:label="brow"
           transform="translate(-0.37545447,-1.543217)"><path
             style="fill:none;stroke:#b58900;stroke-width:2;stroke-linecap:round;stroke-linejoin:round;stroke-dashoffset:134.173;paint-order:stroke markers fill"
             d="M 102.30838,76.373037 100.76517,70.04585 90.116969,62.098282 c 0,0 8.304015,-4.92175 22.080911,-4.92175"
             id="path20"
             sodipodi:nodetypes="cccc" /><path
             style="fill:none;stroke:#b58900;stroke-width:2;stroke-linecap:round;stroke-linejoin:round;stroke-dasharray:none;stroke-dashoffset:134.173;paint-order:stroke markers fill"
             d="m 95.534318,60.239611 9.337242,8.266186 1.20034,6.675853"
             id="path34" /></g></g><g
         id="g22"
         inkscape:label="ear"
         style="display:inline;fill:#b58900;stroke:#b58900"><path
           style="fill:none;stroke:#b58900;stroke-width:2;stroke-linecap:round;stroke-linejoin:round;stroke-dashoffset:134.173;paint-order:stroke markers fill"
           d="m 70.370694,103.54986 -3.935203,6.55867 -5.015453,1.7747 -12.702865,-15.253936"
           id="path21"
           sodipodi:nodetypes="cccc" /><path
           style="fill:none;stroke:#b58900;stroke-width:2;stroke-linecap:round;stroke-linejoin:round;stroke-dashoffset:134.173;paint-order:stroke markers fill"
           d="m 74.318944,107.15478 -5.517059,10.28073 -8.462101,2.70061 -16.280939,-19.90418"
           id="path22"
           sodipodi:nodetypes="cccc" /><path
           style="fill:none;stroke:#b58900;stroke-width:2;stroke-linecap:round;stroke-linejoin:round;stroke-dasharray:none;stroke-dashoffset:134.173;paint-order:stroke markers fill"
           d="M 67.859443,79.828736 0,134.4142 V 121.1361 L 67.218713,73.776417 66.276377,64.875155 0,92.513586 V 81.614243 L 65.645666,58.917488 64.660792,49.614425 0,42.129823 V 31.327304 L 69.801885,45.859541 76.754867,40.781319 10.03091,0 H 27.469264 L 81.374276,37.407457 90.626638,30.401373 59.188894,0 h 12.181798 l 22.765541,28.08655"
           id="path35"
           sodipodi:nodetypes="cccccccccccccccccccc" /></g></g></g></svg>
