<?xml version="1.0" encoding="UTF-8" standalone="no"?>
<!-- Created with Inkscape (http://www.inkscape.org/) -->

<svg
   width="200mm"
   height="66mm"
   viewBox="0 0 200 66"
   version="1.1"
   id="svg1"
   inkscape:version="1.3.1 (91b66b0783, 2023-11-16)"
   sodipodi:docname="mimic-assassin-token-sheet.svg"
   xmlns:inkscape="http://www.inkscape.org/namespaces/inkscape"
   xmlns:sodipodi="http://sodipodi.sourceforge.net/DTD/sodipodi-0.dtd"
   xmlns="http://www.w3.org/2000/svg"
   xmlns:svg="http://www.w3.org/2000/svg">
  <sodipodi:namedview
     id="namedview1"
     pagecolor="#ffffff"
     bordercolor="#000000"
     borderopacity="0.25"
     inkscape:showpageshadow="2"
     inkscape:pageopacity="0.0"
     inkscape:pagecheckerboard="0"
     inkscape:deskcolor="#d1d1d1"
     inkscape:document-units="mm"
     inkscape:zoom="0.70710677"
     inkscape:cx="307.59145"
     inkscape:cy="-91.216776"
     inkscape:window-width="1620"
     inkscape:window-height="1010"
     inkscape:window-x="-6"
     inkscape:window-y="-6"
     inkscape:window-maximized="1"
     inkscape:current-layer="g8"
     showgrid="false" />
  <defs
     id="defs1">
    <inkscape:path-effect
       effect="perspective-envelope"
       up_left_point="39.33,20.027718"
       up_right_point="43.42629,19.13"
       down_left_point="39.326282,26.700179"
       down_right_point="43.43,25.8"
       id="path-effect88"
       is_visible="true"
       lpeversion="1"
       deform_type="perspective"
       horizontal_mirror="false"
       vertical_mirror="false"
       overflow_perspective="false" />
    <inkscape:path-effect
       effect="perspective-envelope"
       up_left_point="39.33,20.027718"
       up_right_point="43.42629,19.13"
       down_left_point="39.326282,26.700179"
       down_right_point="43.43,25.8"
       id="path-effect58"
       is_visible="true"
       lpeversion="1"
       deform_type="perspective"
       horizontal_mirror="false"
       vertical_mirror="false"
       overflow_perspective="false" />
    <inkscape:path-effect
       effect="perspective-envelope"
       up_left_point="39.33,20.027718"
       up_right_point="43.42629,19.13"
       down_left_point="39.326282,26.700179"
       down_right_point="43.43,25.8"
       id="path-effect51"
       is_visible="true"
       lpeversion="1"
       deform_type="perspective"
       horizontal_mirror="false"
       vertical_mirror="false"
       overflow_perspective="false" />
    <inkscape:path-effect
       effect="perspective-envelope"
       up_left_point="39.33,20.027718"
       up_right_point="43.42629,19.13"
       down_left_point="39.326282,26.700179"
       down_right_point="43.43,25.8"
       id="path-effect41"
       is_visible="true"
       lpeversion="1"
       deform_type="perspective"
       horizontal_mirror="false"
       vertical_mirror="false"
       overflow_perspective="false" />
    <inkscape:path-effect
       effect="perspective-envelope"
       up_left_point="39.33,20.027718"
       up_right_point="43.42629,19.13"
       down_left_point="39.326282,26.700179"
       down_right_point="43.43,25.8"
       id="path-effect35"
       is_visible="true"
       lpeversion="1"
       deform_type="perspective"
       horizontal_mirror="false"
       vertical_mirror="false"
       overflow_perspective="false" />
    <inkscape:path-effect
       effect="perspective-envelope"
       up_left_point="39.33,20.027718"
       up_right_point="43.42629,19.13"
       down_left_point="39.326282,26.700179"
       down_right_point="43.43,25.8"
       id="path-effect28"
       is_visible="true"
       lpeversion="1"
       deform_type="perspective"
       horizontal_mirror="false"
       vertical_mirror="false"
       overflow_perspective="false" />
    <inkscape:path-effect
       effect="perspective-envelope"
       up_left_point="100,10"
       up_right_point="120,15"
       down_left_point="100,40"
       down_right_point="120,45"
       id="path-effect21"
       is_visible="true"
       lpeversion="1"
       deform_type="perspective"
       horizontal_mirror="false"
       vertical_mirror="false"
       overflow_perspective="false" />
    <inkscape:path-effect
       effect="perspective-envelope"
       up_left_point="100,10"
       up_right_point="120,15"
       down_left_point="100,40"
       down_right_point="120,45"
       id="path-effect17"
       is_visible="true"
       lpeversion="1"
       deform_type="perspective"
       horizontal_mirror="false"
       vertical_mirror="false"
       overflow_perspective="false" />
    <inkscape:path-effect
       effect="perspective-envelope"
       up_left_point="100,10"
       up_right_point="120,15"
       down_left_point="100,40"
       down_right_point="120,45"
       id="path-effect15"
       is_visible="true"
       lpeversion="1"
       deform_type="perspective"
       horizontal_mirror="false"
       vertical_mirror="false"
       overflow_perspective="false" />
    <inkscape:path-effect
       effect="perspective-envelope"
       up_left_point="100,10"
       up_right_point="120,15"
       down_left_point="100,40"
       down_right_point="120,45"
       id="path-effect8"
       is_visible="true"
       lpeversion="1"
       deform_type="perspective"
       horizontal_mirror="false"
       vertical_mirror="false"
       overflow_perspective="false" />
    <inkscape:path-effect
       effect="perspective-envelope"
       up_left_point="100,10"
       up_right_point="120,15"
       down_left_point="100,40"
       down_right_point="120,45"
       id="path-effect6"
       is_visible="true"
       lpeversion="1"
       deform_type="perspective"
       horizontal_mirror="false"
       vertical_mirror="false"
       overflow_perspective="false" />
    <inkscape:path-effect
       effect="perspective-envelope"
       up_left_point="100,10"
       up_right_point="120,10"
       down_left_point="100,35"
       down_right_point="120,35"
       id="path-effect5"
       is_visible="true"
       lpeversion="1"
       deform_type="perspective"
       horizontal_mirror="false"
       vertical_mirror="false"
       overflow_perspective="false" />
    <inkscape:path-effect
       effect="perspective-envelope"
       up_left_point="83.587146,15.715837"
       up_right_point="103.89288,15.715837"
       down_left_point="83.587146,45.896423"
       down_right_point="103.89288,45.896423"
       id="path-effect4"
       is_visible="true"
       lpeversion="1"
       deform_type="perspective"
       horizontal_mirror="false"
       vertical_mirror="false"
       overflow_perspective="false" />
  </defs>
  <g
     inkscape:label="multi-sheet"
     inkscape:groupmode="layer"
     id="g8">
    <g
       id="g24"
       inkscape:label="cuts"
       style="display:inline">
      <path
         id="rect3"
         style="fill:#93a1a1;stroke-width:7.99999;stroke-linecap:round;stroke-linejoin:round;stroke-dashoffset:134.173;paint-order:stroke markers fill"
         d="m 3,0 h 40 c 1.662,0 3,1.338 3,3 v 60 c 0,1.662 -1.338,3 -3,3 H 3 C 1.338,66 0,64.662 0,63 V 3 C 0,1.338 1.338,0 3,0 Z" />
      <path
         id="rect9"
         style="fill:#93a1a1;stroke-width:7.99999;stroke-linecap:round;stroke-linejoin:round;stroke-dashoffset:134.173;paint-order:stroke markers fill"
         d="m 53,0 h 40 c 1.662,0 3,1.338 3,3 v 60 c 0,1.662 -1.338,3 -3,3 H 53 c -1.662,0 -3,-1.338 -3,-3 V 3 c 0,-1.662 1.338,-3 3,-3 z" />
      <path
         id="rect14"
         style="fill:#93a1a1;stroke-width:7.99999;stroke-linecap:round;stroke-linejoin:round;stroke-dashoffset:134.173;paint-order:stroke markers fill"
         d="m 103,0 h 40 c 1.662,0 3,1.338 3,3 v 60 c 0,1.662 -1.338,3 -3,3 h -40 c -1.662,0 -3,-1.338 -3,-3 V 3 c 0,-1.662 1.338,-3 3,-3 z" />
      <path
         id="rect19"
         style="fill:#93a1a1;stroke-width:7.99999;stroke-linecap:round;stroke-linejoin:round;stroke-dashoffset:134.173;paint-order:stroke markers fill"
         d="m 153,0 h 40 c 1.662,0 3,1.338 3,3 v 60 c 0,1.662 -1.338,3 -3,3 h -40 c -1.662,0 -3,-1.338 -3,-3 V 3 c 0,-1.662 1.338,-3 3,-3 z" />
    </g>
    <g
       id="g26"
       inkscape:label="treasure"
       style="display:none"
       transform="translate(0,2.3315781)">
      <path
         id="path3"
         style="display:inline;fill:#002b36;stroke-width:1.42918;stroke-linecap:round;stroke-linejoin:round;stroke-dashoffset:134.173;paint-order:stroke markers fill"
         d="m 29.750249,9.6758483 c -0.41597,0.0047 -0.823852,0.04303 -1.221114,0.114721 -0.132093,0.0285 -0.168631,0.03217 -0.315226,0.06563 L 11.419585,13.347976 c -0.0046,0.0022 -0.0093,0.0044 -0.01395,0.0067 -1.027704,0.193934 -1.9768923,0.603795 -2.7812255,1.22008 -1.6425789,1.258555 -2.6246537,3.328295 -2.624646,5.692159 v 14.140739 c -4.96e-5,0.658992 0.4444603,1.233487 1.0779704,1.393197 l 14.0766591,3.551721 c 0.203539,0.04938 0.414947,0.05086 0.619601,0.0083 3.32e-4,-7e-5 7.14e-4,6.9e-5 0.001,0 0.0054,-0.0011 0.01064,-0.0014 0.01602,-0.0026 l 0.02842,-0.0057 17.041853,-3.545002 c 0.663458,-0.137657 1.139137,-0.722327 1.138949,-1.399915 V 20.266416 c 2e-6,-0.884575 -0.132223,-1.757565 -0.371037,-2.599842 -0.159126,-0.56123 -0.365753,-1.109666 -0.614432,-1.638659 C 37.64799,13.12049 35.047303,10.735452 31.881868,9.9368143 31.159125,9.7544613 30.443841,9.6680113 29.750216,9.6758483 Z m 0.01654,1.4293697 c 0.564164,-0.0064 1.155863,0.06367 1.765784,0.217558 2.672401,0.674246 4.996917,2.777532 6.18877,5.312854 0.2167,0.460967 0.395688,0.936542 0.532784,1.420068 0.07634,0.269263 0.135095,0.541629 0.184484,0.814937 0.08365,0.462876 0.132293,0.929561 0.132292,1.396297 l -4.208012,0.8754 c -0.0689,-0.617909 -0.261442,-1.049833 -0.519348,-1.35134 -0.575876,-0.673227 -1.481714,-0.68707 -2.101164,-0.592728 -1.395452,0.213319 -2.184792,0.828406 -2.612761,1.573031 h -5.16e-4 c -0.279969,0.487224 -0.398953,1.028119 -0.435632,1.55081 l -4.199227,0.873331 -1.585433,0.330212 c -0.01478,-0.48136 -0.05812,-0.959868 -0.142627,-1.43092 v -5.17e-4 C 22.244826,19.18909 20.447067,16.542245 17.983013,14.902919 17.352665,14.483551 16.67599,14.136906 15.968666,13.862155 L 28.53224,11.248878 c 0.04306,-0.0098 0.08669,-0.01801 0.130225,-0.02687 l 0.120406,-0.02532 v 5.16e-4 c 0.316831,-0.05718 0.645422,-0.08812 0.983919,-0.09198 z m -16.729728,3.556889 c 0.459949,0.01954 0.936272,0.08877 1.424203,0.211873 1.457649,0.367765 2.811864,1.161097 3.93516,2.217436 0.561654,0.528157 1.065725,1.122043 1.496032,1.76165 0.286867,0.426412 0.540881,0.873326 0.757577,1.334285 0.325053,0.691427 0.565783,1.414815 0.706417,2.150256 0.0031,0.01629 0.0042,0.03278 0.0072,0.04909 0.08777,0.474334 0.135911,0.953528 0.135909,1.431954 l -1.350822,-0.340548 -0.09147,-0.02325 -0.0067,-0.0021 -11.2049839,-2.82667 -1.4226522,-0.359151 c -7.3e-6,-2.406822 1.16879,-4.236737 2.9553751,-5.085994 0.414359,-0.196966 0.858235,-0.346381 1.332734,-0.432015 0.422436,-0.07624 0.866068,-0.106362 1.326018,-0.08682 z m 23.203235,3.092318 c -0.39473,-5.2e-5 -0.714737,0.319955 -0.714686,0.714684 -5.1e-5,0.394731 0.319956,0.714737 0.714686,0.714685 0.323026,-0.01155 0.598079,-0.238499 0.67076,-0.553454 0.02072,-0.05186 0.03529,-0.105976 0.04341,-0.161231 -0.0011,-0.204132 -0.08954,-0.398033 -0.242879,-0.532784 -0.129709,-0.115992 -0.297286,-0.180671 -0.471289,-0.1819 z m -9.792684,2.037085 c -0.394731,-5.3e-5 -0.714737,0.319954 -0.714685,0.714684 -5.2e-5,0.394731 0.319954,0.714737 0.714685,0.714685 0.394528,-2.33e-4 0.71422,-0.320156 0.714168,-0.714685 5.2e-5,-0.394528 -0.31964,-0.714451 -0.714168,-0.714684 z m 5.500956,0.696081 c 0.513557,-0.0075 0.900392,0.361614 0.90072,0.905888 -4e-5,0.02181 -0.007,0.04375 -0.0083,0.06563 -0.0218,0.370322 -0.214181,0.748061 -0.52865,1.010274 l 0.187586,0.520382 0.454236,1.262455 -2.465483,0.541052 0.460437,-1.480529 0.181901,-0.58446 c -0.321777,-0.127191 -0.517853,-0.430126 -0.531751,-0.802535 -4.76e-4,-0.01293 -0.0051,-0.02463 -0.0051,-0.03772 3.75e-4,-0.622261 0.505197,-1.237104 1.12758,-1.373559 0.07779,-0.01704 0.153494,-0.0258 0.226859,-0.02687 z m 6.622335,1.239201 V 34.407671 L 22.922242,37.663286 V 24.982924 l 0.0062,-0.0016 1.857767,-0.387057 3.888135,-0.808219 v 1.785421 c 3.6e-4,0.452861 0.416485,0.791213 0.859896,0.699182 l 4.287594,-0.891935 c 0.331454,-0.06877 0.569201,-0.360668 0.569474,-0.699182 v -2.083077 z m -31.1479688,0.02015 1.4226521,0.358635 11.2246367,2.832385 0.0062,0.0016 1.077971,0.271819 c 0.114385,0.0162 0.230314,0.01827 0.345198,0.0062 v -0.0041 c 0.01321,0.0016 0.02656,0.0024 0.03979,0.0036 -0.01326,-9.29e-4 -0.02655,0.0019 -0.03979,5.17e-4 V 37.959393 L 20.07022,37.598691 7.4229309,34.407671 Z"
         inkscape:label="closed chest" />
      <path
         id="path9"
         style="display:inline;fill:#002b36;stroke-width:1.42918;stroke-linecap:round;stroke-linejoin:round;stroke-dashoffset:134.173;paint-order:stroke markers fill"
         d="m 79.750249,9.6758483 c -0.41597,0.0047 -0.823852,0.04303 -1.221114,0.114721 -0.132093,0.0285 -0.168631,0.03217 -0.315226,0.06563 L 61.419585,13.347976 c -0.0046,0.0022 -0.0093,0.0044 -0.01395,0.0067 -1.027704,0.193934 -1.976892,0.603795 -2.781226,1.22008 -1.642578,1.258555 -2.624653,3.328295 -2.624646,5.692159 v 14.140739 c -4.9e-5,0.658992 0.444461,1.233487 1.077971,1.393197 l 14.076659,3.551721 c 0.203539,0.04938 0.414947,0.05086 0.619601,0.0083 3.32e-4,-7e-5 7.14e-4,6.9e-5 0.001,0 0.0054,-0.0011 0.01064,-0.0014 0.01602,-0.0026 l 0.02842,-0.0057 17.041853,-3.545002 c 0.663458,-0.137657 1.139137,-0.722327 1.138949,-1.399915 V 20.266416 c 2e-6,-0.884575 -0.132223,-1.757565 -0.371037,-2.599842 -0.159126,-0.56123 -0.365753,-1.109666 -0.614432,-1.638659 C 87.64799,13.12049 85.047303,10.735452 81.881868,9.9368143 81.159125,9.7544613 80.443841,9.6680113 79.750216,9.6758483 Z m 0.01654,1.4293697 c 0.564164,-0.0064 1.155863,0.06367 1.765784,0.217558 2.672401,0.674246 4.996917,2.777532 6.18877,5.312854 0.2167,0.460967 0.395688,0.936542 0.532784,1.420068 0.07634,0.269263 0.135095,0.541629 0.184484,0.814937 0.08365,0.462876 0.132293,0.929561 0.132292,1.396297 l -4.208012,0.8754 c -0.0689,-0.617909 -0.261442,-1.049833 -0.519348,-1.35134 -0.575876,-0.673227 -1.481714,-0.68707 -2.101164,-0.592728 -1.395452,0.213319 -2.184792,0.828406 -2.612761,1.573031 h -5.16e-4 c -0.279969,0.487224 -0.398953,1.028119 -0.435632,1.55081 l -4.199227,0.873331 -1.585433,0.330212 c -0.01478,-0.48136 -0.05812,-0.959868 -0.142627,-1.43092 v -5.17e-4 C 72.244826,19.18909 70.447067,16.542245 67.983013,14.902919 67.352665,14.483551 66.67599,14.136906 65.968666,13.862155 L 78.53224,11.248878 c 0.04306,-0.0098 0.08669,-0.01801 0.130225,-0.02687 l 0.120406,-0.02532 v 5.16e-4 c 0.316831,-0.05718 0.645422,-0.08812 0.983919,-0.09198 z m -16.729728,3.556889 c 0.459949,0.01954 0.936272,0.08877 1.424203,0.211873 1.457649,0.367765 2.811864,1.161097 3.93516,2.217436 0.561654,0.528157 1.065725,1.122043 1.496032,1.76165 0.286867,0.426412 0.540881,0.873326 0.757577,1.334285 0.325053,0.691427 0.565783,1.414815 0.706417,2.150256 0.0031,0.01629 0.0042,0.03278 0.0072,0.04909 0.08777,0.474334 0.135911,0.953528 0.135909,1.431954 l -1.350822,-0.340548 -0.09147,-0.02325 -0.0067,-0.0021 -11.204984,-2.82667 -1.422652,-0.359151 c -7e-6,-2.406822 1.16879,-4.236737 2.955375,-5.085994 0.414359,-0.196966 0.858235,-0.346381 1.332734,-0.432015 0.422436,-0.07624 0.866068,-0.106362 1.326018,-0.08682 z m 23.203235,3.092318 c -0.39473,-5.2e-5 -0.714737,0.319955 -0.714686,0.714684 -5.1e-5,0.394731 0.319956,0.714737 0.714686,0.714685 0.323026,-0.01155 0.598079,-0.238499 0.67076,-0.553454 0.02072,-0.05186 0.03529,-0.105976 0.04341,-0.161231 -0.0011,-0.204132 -0.08954,-0.398033 -0.242879,-0.532784 -0.129709,-0.115992 -0.297286,-0.180671 -0.471289,-0.1819 z m -9.792684,2.037085 c -0.394731,-5.3e-5 -0.714737,0.319954 -0.714685,0.714684 -5.2e-5,0.394731 0.319954,0.714737 0.714685,0.714685 0.394528,-2.33e-4 0.71422,-0.320156 0.714168,-0.714685 5.2e-5,-0.394528 -0.31964,-0.714451 -0.714168,-0.714684 z m 5.500956,0.696081 c 0.513557,-0.0075 0.900392,0.361614 0.90072,0.905888 -4e-5,0.02181 -0.007,0.04375 -0.0083,0.06563 -0.0218,0.370322 -0.214181,0.748061 -0.52865,1.010274 l 0.187586,0.520382 0.454236,1.262455 -2.465483,0.541052 0.460437,-1.480529 0.181901,-0.58446 c -0.321777,-0.127191 -0.517853,-0.430126 -0.531751,-0.802535 -4.76e-4,-0.01293 -0.0051,-0.02463 -0.0051,-0.03772 3.75e-4,-0.622261 0.505197,-1.237104 1.12758,-1.373559 0.07779,-0.01704 0.153494,-0.0258 0.226859,-0.02687 z m 6.622335,1.239201 V 34.407671 L 72.922242,37.663286 V 24.982924 l 0.0062,-0.0016 1.857767,-0.387057 3.888135,-0.808219 v 1.785421 c 3.6e-4,0.452861 0.416485,0.791213 0.859896,0.699182 l 4.287594,-0.891935 c 0.331454,-0.06877 0.569201,-0.360668 0.569474,-0.699182 v -2.083077 z m -31.147969,0.02015 1.422652,0.358635 11.224637,2.832385 0.0062,0.0016 1.077971,0.271819 c 0.114385,0.0162 0.230314,0.01827 0.345198,0.0062 v -0.0041 c 0.01321,0.0016 0.02656,0.0024 0.03979,0.0036 -0.01326,-9.29e-4 -0.02655,0.0019 -0.03979,5.17e-4 V 37.959393 L 70.07022,37.598691 57.422931,34.407671 Z"
         inkscape:label="closed chest" />
      <path
         id="path14"
         style="display:inline;fill:#002b36;stroke-width:1.42918;stroke-linecap:round;stroke-linejoin:round;stroke-dashoffset:134.173;paint-order:stroke markers fill"
         d="m 129.75025,9.6758483 c -0.41597,0.0047 -0.82385,0.04303 -1.22112,0.114721 -0.13209,0.0285 -0.16863,0.03217 -0.31522,0.06563 l -16.79433,3.4917767 c -0.005,0.0022 -0.009,0.0044 -0.0139,0.0067 -1.02771,0.193934 -1.9769,0.603795 -2.78123,1.22008 -1.64258,1.258555 -2.62465,3.328295 -2.62465,5.692159 v 14.140739 c -5e-5,0.658992 0.44446,1.233487 1.07797,1.393197 l 14.07666,3.551721 c 0.20354,0.04938 0.41495,0.05086 0.6196,0.0083 3.4e-4,-7e-5 7.2e-4,6.9e-5 0.001,0 0.005,-0.0011 0.0106,-0.0014 0.016,-0.0026 l 0.0284,-0.0057 17.04186,-3.545002 c 0.66345,-0.137657 1.13913,-0.722327 1.13895,-1.399915 V 20.266416 c 0,-0.884575 -0.13223,-1.757565 -0.37104,-2.599842 -0.15913,-0.56123 -0.36575,-1.109666 -0.61443,-1.638659 -1.36678,-2.907425 -3.96747,-5.292463 -7.1329,-6.0911007 -0.72275,-0.182353 -1.43803,-0.268803 -2.13165,-0.260966 z m 0.0165,1.4293697 c 0.56416,-0.0064 1.15586,0.06367 1.76578,0.217558 2.6724,0.674246 4.99692,2.777532 6.18877,5.312854 0.2167,0.460967 0.39569,0.936542 0.53279,1.420068 0.0763,0.269263 0.13509,0.541629 0.18448,0.814937 0.0836,0.462876 0.13229,0.929561 0.13229,1.396297 l -4.20801,0.8754 c -0.0689,-0.617909 -0.26144,-1.049833 -0.51935,-1.35134 -0.57587,-0.673227 -1.48171,-0.68707 -2.10116,-0.592728 -1.39545,0.213319 -2.18479,0.828406 -2.61276,1.573031 h -5.2e-4 c -0.27997,0.487224 -0.39895,1.028119 -0.43563,1.55081 l -4.19923,0.873331 -1.58543,0.330212 c -0.0148,-0.48136 -0.0581,-0.959868 -0.14263,-1.43092 v -5.17e-4 c -0.52135,-2.905121 -2.31911,-5.551966 -4.78317,-7.191292 -0.63034,-0.419368 -1.30702,-0.766013 -2.01434,-1.040764 l 12.56357,-2.613277 c 0.0431,-0.0098 0.0867,-0.01801 0.13022,-0.02687 l 0.12041,-0.02532 v 5.16e-4 c 0.31683,-0.05718 0.64542,-0.08812 0.98392,-0.09198 z m -16.72973,3.556889 c 0.45995,0.01954 0.93627,0.08877 1.4242,0.211873 1.45765,0.367765 2.81187,1.161097 3.93516,2.217436 0.56166,0.528157 1.06573,1.122043 1.49604,1.76165 0.28686,0.426412 0.54088,0.873326 0.75757,1.334285 0.32506,0.691427 0.56579,1.414815 0.70642,2.150256 0.003,0.01629 0.004,0.03278 0.007,0.04909 0.0878,0.474334 0.13591,0.953528 0.13591,1.431954 l -1.35082,-0.340548 -0.0915,-0.02325 -0.007,-0.0021 -11.20499,-2.82667 -1.42265,-0.359151 c -1e-5,-2.406822 1.16879,-4.236737 2.95538,-5.085994 0.41436,-0.196966 0.85823,-0.346381 1.33273,-0.432015 0.42244,-0.07624 0.86607,-0.106362 1.32602,-0.08682 z m 23.20324,3.092318 c -0.39473,-5.2e-5 -0.71474,0.319955 -0.71469,0.714684 -5e-5,0.394731 0.31996,0.714737 0.71469,0.714685 0.32302,-0.01155 0.59807,-0.238499 0.67076,-0.553454 0.0207,-0.05186 0.0353,-0.105976 0.0434,-0.161231 -0.001,-0.204132 -0.0895,-0.398033 -0.24288,-0.532784 -0.12971,-0.115992 -0.29729,-0.180671 -0.47129,-0.1819 z m -9.79269,2.037085 c -0.39473,-5.3e-5 -0.71473,0.319954 -0.71468,0.714684 -5e-5,0.394731 0.31995,0.714737 0.71468,0.714685 0.39453,-2.33e-4 0.71422,-0.320156 0.71417,-0.714685 5e-5,-0.394528 -0.31964,-0.714451 -0.71417,-0.714684 z m 5.50096,0.696081 c 0.51356,-0.0075 0.90039,0.361614 0.90072,0.905888 -4e-5,0.02181 -0.007,0.04375 -0.008,0.06563 -0.0218,0.370322 -0.21418,0.748061 -0.52865,1.010274 l 0.18758,0.520382 0.45424,1.262455 -2.46548,0.541052 0.46043,-1.480529 0.18191,-0.58446 c -0.32178,-0.127191 -0.51786,-0.430126 -0.53176,-0.802535 -4.7e-4,-0.01293 -0.005,-0.02463 -0.005,-0.03772 3.8e-4,-0.622261 0.5052,-1.237104 1.12758,-1.373559 0.0778,-0.01704 0.1535,-0.0258 0.22686,-0.02687 z m 6.62233,1.239201 V 34.407671 L 122.9222,37.663286 V 24.982924 l 0.006,-0.0016 1.85777,-0.387057 3.88813,-0.808219 v 1.785421 c 3.6e-4,0.452861 0.41649,0.791213 0.8599,0.699182 l 4.28759,-0.891935 c 0.33146,-0.06877 0.5692,-0.360668 0.56948,-0.699182 v -2.083077 z m -31.14797,0.02015 1.42266,0.358635 11.22463,2.832385 0.006,0.0016 1.07797,0.271819 c 0.11439,0.0162 0.23032,0.01827 0.3452,0.0062 v -0.0041 c 0.0132,0.0016 0.0266,0.0024 0.0398,0.0036 -0.0133,-9.29e-4 -0.0266,0.0019 -0.0398,5.17e-4 v 12.741795 l -1.42937,-0.360702 -12.64729,-3.19102 z"
         inkscape:label="closed chest" />
      <path
         id="path19"
         style="display:inline;fill:#002b36;stroke-width:1.42918;stroke-linecap:round;stroke-linejoin:round;stroke-dashoffset:134.173;paint-order:stroke markers fill"
         d="m 179.75025,9.6758483 c -0.41597,0.0047 -0.82385,0.04303 -1.22112,0.114721 -0.13209,0.0285 -0.16863,0.03217 -0.31522,0.06563 l -16.79433,3.4917767 c -0.005,0.0022 -0.009,0.0044 -0.0139,0.0067 -1.0277,0.193934 -1.97689,0.603795 -2.78122,1.22008 -1.64258,1.258555 -2.62465,3.328295 -2.62465,5.692159 v 14.140739 c -5e-5,0.658992 0.44446,1.233487 1.07797,1.393197 l 14.07666,3.551721 c 0.20354,0.04938 0.41495,0.05086 0.6196,0.0083 3.4e-4,-7e-5 7.2e-4,6.9e-5 10e-4,0 0.005,-0.0011 0.0106,-0.0014 0.016,-0.0026 l 0.0284,-0.0057 17.04186,-3.545002 c 0.66345,-0.137657 1.13913,-0.722327 1.13895,-1.399915 V 20.266416 c 0,-0.884575 -0.13223,-1.757565 -0.37104,-2.599842 -0.15913,-0.56123 -0.36575,-1.109666 -0.61443,-1.638659 -1.36678,-2.907425 -3.96747,-5.292463 -7.1329,-6.0911007 -0.72275,-0.182353 -1.43803,-0.268803 -2.13165,-0.260966 z m 0.0165,1.4293697 c 0.56416,-0.0064 1.15586,0.06367 1.76578,0.217558 2.6724,0.674246 4.99692,2.777532 6.18877,5.312854 0.2167,0.460967 0.39569,0.936542 0.53279,1.420068 0.0763,0.269263 0.13509,0.541629 0.18448,0.814937 0.0836,0.462876 0.13229,0.929561 0.13229,1.396297 l -4.20801,0.8754 c -0.0689,-0.617909 -0.26144,-1.049833 -0.51935,-1.35134 -0.57587,-0.673227 -1.48171,-0.68707 -2.10116,-0.592728 -1.39545,0.213319 -2.18479,0.828406 -2.61276,1.573031 h -5.2e-4 c -0.27997,0.487224 -0.39895,1.028119 -0.43563,1.55081 l -4.19923,0.873331 -1.58543,0.330212 c -0.0148,-0.48136 -0.0581,-0.959868 -0.14263,-1.43092 v -5.17e-4 c -0.52135,-2.905121 -2.31911,-5.551966 -4.78317,-7.191292 -0.63035,-0.419368 -1.30702,-0.766013 -2.01434,-1.040764 l 12.56357,-2.613277 c 0.0431,-0.0098 0.0867,-0.01801 0.13022,-0.02687 l 0.12041,-0.02532 v 5.16e-4 c 0.31683,-0.05718 0.64542,-0.08812 0.98392,-0.09198 z m -16.72973,3.556889 c 0.45995,0.01954 0.93627,0.08877 1.4242,0.211873 1.45765,0.367765 2.81187,1.161097 3.93516,2.217436 0.56166,0.528157 1.06573,1.122043 1.49604,1.76165 0.28686,0.426412 0.54088,0.873326 0.75757,1.334285 0.32506,0.691427 0.56579,1.414815 0.70642,2.150256 0.003,0.01629 0.004,0.03278 0.007,0.04909 0.0878,0.474334 0.13591,0.953528 0.13591,1.431954 l -1.35082,-0.340548 -0.0915,-0.02325 -0.007,-0.0021 -11.20499,-2.82667 -1.42265,-0.359151 c -1e-5,-2.406822 1.16879,-4.236737 2.95538,-5.085994 0.41435,-0.196966 0.85823,-0.346381 1.33273,-0.432015 0.42244,-0.07624 0.86607,-0.106362 1.32602,-0.08682 z m 23.20324,3.092318 c -0.39473,-5.2e-5 -0.71474,0.319955 -0.71469,0.714684 -5e-5,0.394731 0.31996,0.714737 0.71469,0.714685 0.32302,-0.01155 0.59807,-0.238499 0.67076,-0.553454 0.0207,-0.05186 0.0353,-0.105976 0.0434,-0.161231 -0.001,-0.204132 -0.0895,-0.398033 -0.24288,-0.532784 -0.12971,-0.115992 -0.29729,-0.180671 -0.47129,-0.1819 z m -9.79269,2.037085 c -0.39473,-5.3e-5 -0.71474,0.319954 -0.71468,0.714684 -6e-5,0.394731 0.31995,0.714737 0.71468,0.714685 0.39453,-2.33e-4 0.71422,-0.320156 0.71417,-0.714685 5e-5,-0.394528 -0.31964,-0.714451 -0.71417,-0.714684 z m 5.50096,0.696081 c 0.51356,-0.0075 0.90039,0.361614 0.90072,0.905888 -4e-5,0.02181 -0.007,0.04375 -0.008,0.06563 -0.0218,0.370322 -0.21418,0.748061 -0.52865,1.010274 l 0.18758,0.520382 0.45424,1.262455 -2.46548,0.541052 0.46043,-1.480529 0.18191,-0.58446 c -0.32178,-0.127191 -0.51786,-0.430126 -0.53176,-0.802535 -4.7e-4,-0.01293 -0.005,-0.02463 -0.005,-0.03772 3.8e-4,-0.622261 0.5052,-1.237104 1.12758,-1.373559 0.0778,-0.01704 0.1535,-0.0258 0.22686,-0.02687 z m 6.62233,1.239201 V 34.407671 L 172.9222,37.663286 V 24.982924 l 0.006,-0.0016 1.85777,-0.387057 3.88813,-0.808219 v 1.785421 c 3.6e-4,0.452861 0.41649,0.791213 0.8599,0.699182 l 4.28759,-0.891935 c 0.33146,-0.06877 0.5692,-0.360668 0.56948,-0.699182 v -2.083077 z m -31.14797,0.02015 1.42266,0.358635 11.22463,2.832385 0.006,0.0016 1.07797,0.271819 c 0.11439,0.0162 0.23032,0.01827 0.3452,0.0062 v -0.0041 c 0.0132,0.0016 0.0266,0.0024 0.0398,0.0036 -0.0133,-9.29e-4 -0.0265,0.0019 -0.0398,5.17e-4 v 12.741795 l -1.42937,-0.360702 -12.64729,-3.19102 z"
         inkscape:label="closed chest" />
      <text
         xml:space="preserve"
         style="font-size:12.7px;line-height:1.6;font-family:Rayhound;-inkscape-font-specification:'Rayhound, Normal';text-align:center;letter-spacing:1.5875px;word-spacing:0px;text-orientation:upright;text-anchor:middle;fill:#002b36;stroke-width:1;stroke-linecap:round;stroke-linejoin:round;stroke-dashoffset:134.173;paint-order:fill markers stroke"
         x="23.070555"
         y="53.199673"
         id="text1"><tspan
           sodipodi:role="line"
           id="tspan1"
           style="font-style:normal;font-variant:normal;font-weight:normal;font-stretch:normal;font-size:7.05556px;font-family:Mangaka;-inkscape-font-specification:'Mangaka, Normal';font-variant-ligatures:normal;font-variant-caps:normal;font-variant-numeric:normal;font-variant-east-asian:normal;letter-spacing:1.5875px;stroke-width:1"
           x="23.864305"
           y="53.199673">TREASURE</tspan></text>
      <text
         xml:space="preserve"
         style="font-size:12.7px;line-height:1.6;font-family:Rayhound;-inkscape-font-specification:'Rayhound, Normal';text-align:center;letter-spacing:1.5875px;word-spacing:0px;text-orientation:upright;text-anchor:middle;fill:#002b36;stroke-width:1;stroke-linecap:round;stroke-linejoin:round;stroke-dashoffset:134.173;paint-order:fill markers stroke"
         x="73.070557"
         y="53.199673"
         id="text2"><tspan
           sodipodi:role="line"
           id="tspan2"
           style="font-style:normal;font-variant:normal;font-weight:normal;font-stretch:normal;font-size:7.05556px;font-family:Mangaka;-inkscape-font-specification:'Mangaka, Normal';font-variant-ligatures:normal;font-variant-caps:normal;font-variant-numeric:normal;font-variant-east-asian:normal;letter-spacing:1.5875px;stroke-width:1"
           x="73.864304"
           y="53.199673">TREASURE</tspan></text>
      <text
         xml:space="preserve"
         style="font-size:12.7px;line-height:1.6;font-family:Rayhound;-inkscape-font-specification:'Rayhound, Normal';text-align:center;letter-spacing:1.5875px;word-spacing:0px;text-orientation:upright;text-anchor:middle;fill:#002b36;stroke-width:1;stroke-linecap:round;stroke-linejoin:round;stroke-dashoffset:134.173;paint-order:fill markers stroke"
         x="123.07057"
         y="53.199673"
         id="text3"><tspan
           sodipodi:role="line"
           id="tspan3"
           style="font-style:normal;font-variant:normal;font-weight:normal;font-stretch:normal;font-size:7.05556px;font-family:Mangaka;-inkscape-font-specification:'Mangaka, Normal';font-variant-ligatures:normal;font-variant-caps:normal;font-variant-numeric:normal;font-variant-east-asian:normal;letter-spacing:1.5875px;stroke-width:1"
           x="123.86432"
           y="53.199673">TREASURE</tspan></text>
      <text
         xml:space="preserve"
         style="font-size:12.7px;line-height:1.6;font-family:Rayhound;-inkscape-font-specification:'Rayhound, Normal';text-align:center;letter-spacing:1.5875px;word-spacing:0px;text-orientation:upright;text-anchor:middle;fill:#002b36;stroke-width:1;stroke-linecap:round;stroke-linejoin:round;stroke-dashoffset:134.173;paint-order:fill markers stroke"
         x="173.07059"
         y="53.199673"
         id="text4"><tspan
           sodipodi:role="line"
           id="tspan4"
           style="font-style:normal;font-variant:normal;font-weight:normal;font-stretch:normal;font-size:7.05556px;font-family:Mangaka;-inkscape-font-specification:'Mangaka, Normal';font-variant-ligatures:normal;font-variant-caps:normal;font-variant-numeric:normal;font-variant-east-asian:normal;letter-spacing:1.5875px;stroke-width:1"
           x="173.86433"
           y="53.199673">TREASURE</tspan></text>
    </g>
    <g
       id="g25"
       inkscape:label="assassin"
       style="display:inline"
       transform="translate(0,-0.73898746)">
      <g
         id="g7"
         inkscape:label="1"
         style="display:inline"
         transform="translate(-7.6424378e-8,-1.3600234)">
        <path
           id="path7"
           style="display:inline;fill:#002b36;stroke-linecap:round;stroke-linejoin:round;stroke-dashoffset:134.173;paint-order:stroke markers fill"
           inkscape:label="mimic"
           d="m 27.535532,5.215943 c -0.0566,-9.04e-4 -0.113453,0.0071 -0.170015,0.0078 -0.387466,0.0374 -0.775877,0.08202 -1.163753,0.1229897 C 20.3746,5.9621734 14.508236,6.9898438 8.8762064,8.8881159 c -0.03157,0.01045 -0.062794,0.022 -0.093534,0.03462 C 8.6079778,8.9954959 8.4398517,9.0744086 8.2726261,9.1542456 5.1025443,10.667719 3.2689478,13.421782 2.687954,16.276808 c -0.3417052,1.679153 -0.28809,3.400911 0.1245402,4.997628 0.0042,0.01617 0.0081,0.03242 0.012402,0.04857 0.0434,0.164777 0.09054,0.328521 0.1415934,0.49041 0.0255,0.08017 0.054239,0.159224 0.081649,0.238745 0.07035,0.205739 0.1467086,0.408772 0.2294434,0.608748 0.05718,0.137283 0.1166682,0.273557 0.179834,0.408244 0.0383,0.08216 0.07531,0.165033 0.1157552,0.24598 0.1052348,0.209448 0.2178391,0.415165 0.3379639,0.617016 0.0345,0.0582 0.070771,0.115194 0.1064534,0.1726 0.1207068,0.193532 0.247641,0.383745 0.3824056,0.568957 0.0022,0.003 0.004,0.0063 0.0062,0.0093 0.01422,0.0195 0.025928,0.04057 0.040308,0.05994 -0.01428,-0.01927 -0.027211,-0.03953 -0.041341,-0.05891 -0.1107718,0.203614 -0.1703829,0.431235 -0.1736329,0.663008 v 13.579533 c 0.02596,0.633719 0.4625146,1.176579 1.0759034,1.337903 l 1.6433105,0.414445 12.4338669,3.137276 c 0.179943,0.04171 0.3653,0.0442 0.546736,0.0155 0.03258,-0.0045 0.0654,-0.0097 0.09819,-0.01654 l 0.0646,-0.01344 16.875456,-3.51038 0.130224,-0.02687 c 0.472864,-0.09959 0.86355,-0.431534 1.03818,-0.882117 0.0036,2.37e-4 0.0072,2.82e-4 0.01085,5.17e-4 0.124587,0.0081 0.245413,0.01967 0.37207,0.02584 5.15e-4,0.001 5.68e-4,0.0021 10e-4,0.0031 0.0011,9.8e-5 0.0015,-9.6e-5 0.0026,0 0.02668,0.0023 0.04964,0.004 0.06718,0.0052 v -0.001 c 0.0098,4.42e-4 0.01811,0.0022 0.0279,0.0026 0.0014,-8.58e-4 0.0028,-0.0017 0.0041,-0.0026 0.08552,0.0054 0.170796,0.01165 0.255282,0.0124 0.0074,8.3e-5 0.01482,8.3e-5 0.02222,0 0.396333,-0.0051 0.790388,-0.06231 1.172538,-0.167431 l 0.0026,-0.0016 c 2.028117,-0.53681 3.453127,-2.377496 3.460254,-4.475696 v -5.16e-4 -5.17e-4 -5.17e-4 -5.17e-4 -5.16e-4 -5.17e-4 -5.17e-4 -5.17e-4 -5.16e-4 c 8.8e-5,-2.515512 -2.030975,-4.578252 -4.532023,-4.641578 8.08e-4,1.66e-4 0.0047,0.001 0.0047,0.001 l -0.12144,-0.0067 c 0.03923,-1e-6 0.07728,0.0047 0.116272,0.0057 -0.0093,-0.0011 -0.327243,-0.0572 -0.749825,-0.261482 -0.0052,-0.0025 -0.01022,-0.0046 -0.0155,-0.0072 0,0 -0.0221,-2.807352 -0.07028,-4.210079 -0.03287,-0.957153 -0.432015,-2.636532 -0.432015,-2.636532 l -0.8847,-4.117061 C 36.6256,17.98949 35.37417,17.866775 34.97489,18.721134 l -0.906922,2.472717 -0.593245,-2.791044 c -0.112151,-0.505908 -0.542923,-0.782309 -0.977718,-0.783931 -0.338176,-0.0013 -0.678787,0.164074 -0.873849,0.516764 l -1.292427,2.940906 c -0.0079,0.0023 -0.01582,0.0054 -0.02377,0.0078 l -1.068668,-2.8236 c -0.346334,-0.73183 -1.373441,-0.770545 -1.773535,-0.06666 l -1.144633,2.538863 c -0.06174,0.108257 -0.09979,0.221599 -0.118339,0.335381 l -1.979208,-0.322461 3.700033,-4.584217 c 0.0955,0.07556 1.762103,1.35022 1.529622,-1.928564 l 0.877983,-1.013892 2.339909,2.046387 c 0.705022,0.61792 1.796375,0.01333 1.646411,-0.912089 L 33.558937,9.6740663 c 0,0 -0.240266,-0.9840704 -0.532784,-1.4531401 C 31.621595,6.3261681 29.606238,5.2490237 27.535532,5.215943 Z m -0.02325,1.4288531 h 5.17e-4 c 1.568631,0.02522 3.113288,0.8071754 4.282942,2.3285385 0.02637,0.0343 0.05515,0.06364 0.08113,0.0987 l -2.230354,0.4676707 -6.19032,1.2991457 -1.756482,0.368453 h -5.17e-4 l -1.659847,0.348299 -3.667476,0.769462 -0.185519,0.03876 c -0.04204,-0.201661 -0.126681,-0.391902 -0.24908,-0.557588 -0.190697,-0.257299 -0.395412,-0.496349 -0.607198,-0.722954 -0.288029,-0.308188 -0.596778,-0.58048 -0.917774,-0.829406 -0.55141,-0.4276087 -1.142412,-0.7716547 -1.763199,-1.0128584 3.287214,-0.9036864 6.64636,-1.5560301 10.026261,-2.0277818 1.215743,-0.169691 2.434298,-0.313906 3.65249,-0.4428667 0.394806,-0.04179 0.789711,-0.08749 1.184424,-0.125573 z m 0.463538,0.7276034 c -0.394731,-5.21e-5 -0.714737,0.3199534 -0.714686,0.7146847 -5.1e-5,0.3947313 0.319955,0.7147368 0.714686,0.7146847 0.394731,5.16e-5 0.714736,-0.3199538 0.714685,-0.7146847 5.1e-5,-0.3947309 -0.319954,-0.7147363 -0.714685,-0.7146847 z m -9.792684,2.0370841 c -0.394731,-5.16e-5 -0.714736,0.3199537 -0.714685,0.7146844 -5.2e-5,0.394731 0.319954,0.714737 0.714685,0.714685 0.394731,5.2e-5 0.714737,-0.319954 0.714685,-0.714685 5.1e-5,-0.3947307 -0.319954,-0.714736 -0.714685,-0.7146844 z m 14.322639,0.6883294 0.822689,4.415234 -4.275191,-3.678845 z m -22.282877,0.14056 c 0.792721,-0.01958 1.583695,0.152917 2.328023,0.516247 0.449832,0.219579 0.884394,0.500815 1.289327,0.859896 0.337287,0.299092 0.655527,0.646643 0.94878,1.042314 L 5.5952697,23.891803 C 5.4296411,23.668331 5.2788719,23.43311 5.1379333,23.192104 c -0.05218,-0.08892 -0.0982,-0.182015 -0.1472779,-0.273368 -0.07969,-0.149205 -0.1571932,-0.29927 -0.227893,-0.453719 -0.06221,-0.13452 -0.1199471,-0.27123 -0.1756999,-0.409795 -0.03793,-0.09567 -0.072824,-0.192175 -0.107487,-0.289388 -0.6166698,-1.697979 -0.755305,-3.64581 -0.315743,-5.496305 0.3025064,-1.380514 0.8861681,-2.686387 1.7600993,-3.754293 0.8397684,-1.026172 1.8372676,-1.69883 2.8799276,-2.033984 0.4674108,-0.150247 0.9434025,-0.231135 1.4190346,-0.242879 z m 18.138428,0.7953 0.1788,4.372343 -3.720703,-3.679879 z m -4.369243,0.914156 0.02119,4.596619 -3.407544,-3.924309 z m -4.024044,0.818554 0.0088,5.030185 L 16.54449,13.4697 Z m 12.530502,5.85184 0.454753,2.585372 -0.7028,-0.220659 h -5.17e-4 c -0.11859,-0.021 -0.2378,-0.03842 -0.358117,-0.05116 -0.03909,-0.0044 -0.07854,-0.0064 -0.117823,-0.0098 -0.07786,-0.0063 -0.156029,-0.01132 -0.234611,-0.01344 -0.0038,-1.02e-4 -0.0076,-4.24e-4 -0.01137,-5.16e-4 z m -4.164087,0.0708 c 0,0 0.594698,1.783723 1.054716,2.754353 -0.07119,0.03635 -0.147263,0.07174 -0.210323,0.109554 h -5.17e-4 l -1.990063,-0.324014 z m 7.546826,0.454235 0.884701,4.118095 h -5.17e-4 c -0.136481,-0.06023 -0.196742,-0.08141 -0.271301,-0.100769 -0.09088,-0.02844 -0.153479,-0.04444 -0.153479,-0.04444 l -1.08934,-0.22686 c -0.0932,-0.13321 -0.196092,-0.256703 -0.30334,-0.375688 l -5.17e-4,-5.16e-4 c -0.08023,-0.09202 -0.164919,-0.178251 -0.251664,-0.263033 -0.0038,-0.0037 -0.0075,-0.0076 -0.01137,-0.01137 z m -24.810372,2.738335 c 0,0 0.927825,2.426346 1.392163,3.405476 L 9.7211199,24.717078 Z m 20.374467,0.02222 c 2.78e-4,-1e-6 7.55e-4,2e-6 0.001,0 h 5.17e-4 c 0.111067,1.13e-4 0.221816,0.0054 0.331245,0.0155 0.217435,0.02017 0.431081,0.06013 0.638721,0.117823 0.0015,4.25e-4 0.0031,6.39e-4 0.0047,0.001 h 5.17e-4 c 0.0023,6.3e-4 0.0045,0.0014 0.0067,0.0021 0.102285,0.02879 0.202711,0.06183 0.30179,0.09922 0.05844,0.02205 0.113888,0.05046 0.171049,0.07545 0.07872,0.03441 0.155755,0.07287 0.232027,0.112137 0.02553,0.01327 0.05121,0.02602 0.07648,0.03979 0.0029,0.0016 0.0059,0.0031 0.0088,0.0047 0.08299,0.04551 0.164421,0.0932 0.243396,0.145728 0.02562,0.01704 0.05233,0.03295 0.07751,0.05064 0.08109,0.05695 0.159137,0.118409 0.235645,0.181901 0.01701,0.01413 0.03336,0.02896 0.05013,0.04341 0.05861,0.05045 0.115544,0.102822 0.171049,0.157096 0.01948,0.01907 0.03932,0.03783 0.05839,0.05736 0.06173,0.06314 0.121501,0.128456 0.178801,0.19637 0.0061,0.0072 0.0131,0.01342 0.01912,0.02067 v 5.17e-4 c 0.0028,0.0034 0.0055,0.0069 0.0083,0.01034 0.06655,0.08076 0.130337,0.164514 0.190169,0.251664 0.02182,0.03178 0.03973,0.06574 0.05943,0.0987 0.02774,0.04642 0.05659,0.09223 0.08372,0.13901 0.01108,0.01911 0.02338,0.03756 0.03411,0.05684 0.09633,0.173318 0.178664,0.353322 0.245464,0.539502 0.08877,0.247395 0.154373,0.503334 0.188102,0.765845 0.02093,0.154144 0.032,0.309533 0.03307,0.465088 0,0.103458 0.0099,0.194382 0.01292,0.294038 0.0071,0.236351 0.01847,0.467007 0.04134,0.682646 0.04489,0.423322 0.119351,0.805973 0.215491,1.154968 0.0056,0.02034 0.0092,0.04297 0.01499,0.06305 0.317484,1.108915 0.860534,1.860243 1.428853,2.36368 0.509278,0.451127 1.033492,0.705261 1.42937,0.84801 0.0063,0.0023 0.0092,0.0024 0.0155,0.0047 0.375024,0.133241 0.63407,0.167948 0.63407,0.167948 2.014669,-7e-5 3.648426,1.633686 3.648356,3.648356 -0.0056,1.65142 -1.120398,3.093574 -2.717147,3.515031 -0.303301,0.08443 -0.616396,0.129252 -0.931209,0.133325 -0.09317,-8.29e-4 -0.18618,-0.005 -0.278536,-0.01292 0.01793,0.0016 0.03578,0.0028 0.05374,0.0041 -0.140142,-0.0061 -0.272354,-0.01902 -0.409278,-0.0279 -0.0052,-3.36e-4 -0.01032,-8.58e-4 -0.0155,-0.001 -0.494362,-0.03248 -0.974565,-0.07723 -1.42937,-0.142627 C 36.091406,38.144186 35.427497,37.9981 34.804339,37.821702 33.180062,37.361879 31.866108,36.673043 30.800966,35.859031 28.75514,34.295553 27.625047,32.272634 27.008433,30.518788 26.714876,29.683826 26.543237,28.946736 26.435858,28.34166 l -0.173633,-1.398364 c -0.10953,-0.527941 -0.617946,-0.874054 -1.149284,-0.782381 -0.861213,0.128385 -1.70309,0.349048 -2.549715,0.54777 l 0.04237,-0.489892 c 0.01779,-0.199908 0.06099,-0.395149 0.127124,-0.584978 0.183795,-0.527574 0.53751,-1.010698 0.999422,-1.406115 0.134166,-0.114852 0.281919,-0.213581 0.429948,-0.310576 0.0052,-0.0034 0.0098,-0.0075 0.01499,-0.01085 0.142299,-0.09238 0.288117,-0.170711 0.437699,-0.244946 0.484584,-0.240487 0.99095,-0.393811 1.437122,-0.407727 0.746612,-0.02329 1.509466,0.17604 2.173511,0.610815 0.262631,0.171952 0.510016,0.379989 0.734322,0.627352 0.02604,0.02871 0.05003,0.06069 0.07545,0.09043 0.06991,0.08183 0.137718,0.167149 0.202572,0.256832 0.269513,0.37267 0.494287,0.811998 0.655774,1.323433 0.03826,0.121157 0.07439,0.245021 0.10542,0.374138 0.08461,0.352093 0.182,0.683885 0.286287,1.004589 0.918882,2.825784 2.549505,4.464156 4.016293,5.368148 0.369147,0.227512 0.726745,0.404461 1.063501,0.550871 0.0051,0.0022 0.01045,0.005 0.0155,0.0072 0.591804,0.25593 1.066556,0.385664 1.428853,0.465088 0.339075,0.07433 0.588078,0.111104 0.588078,0.111104 0.268182,0.0229 0.504299,-0.175758 0.527616,-0.443901 0.02257,-0.268544 -0.176905,-0.504578 -0.445451,-0.527099 0,0 -0.269859,-0.03277 -0.670243,-0.135909 -0.373007,-0.09608 -0.857342,-0.254232 -1.428853,-0.543636 -0.0053,-0.0027 -0.01016,-0.0045 -0.0155,-0.0072 -0.178559,-0.09095 -0.362826,-0.192296 -0.551388,-0.308508 -1.284025,-0.791358 -2.721122,-2.18619 -3.569808,-4.735629 -0.108464,-0.325818 -0.208448,-0.668214 -0.296106,-1.033011 -0.02852,-0.118696 -0.06337,-0.231562 -0.09767,-0.345199 -0.11985,-0.397043 -0.272905,-0.764062 -0.455786,-1.098641 -0.04437,-0.08117 -0.09084,-0.159746 -0.138493,-0.237195 -0.208113,-0.338274 -0.446847,-0.640366 -0.709001,-0.906921 -0.239236,-0.243246 -0.497343,-0.456781 -0.770496,-0.639238 0.195662,-0.209098 0.32375,-0.311208 0.466639,-0.420646 0.0148,-0.01133 0.03103,-0.02043 0.04599,-0.03152 0.076,-0.05635 0.154571,-0.108566 0.234611,-0.158647 0.03177,-0.01994 0.06324,-0.04049 0.0956,-0.05943 5.35e-4,-3.13e-4 9.5e-4,-7.54e-4 0.0016,-10e-4 0.08994,-0.05237 0.182259,-0.100229 0.276469,-0.144694 0.02521,-0.01197 0.04996,-0.02478 0.07545,-0.03617 4.94e-4,-2.21e-4 0.0011,-2.96e-4 0.0015,-5.17e-4 0.110044,-0.04881 0.222584,-0.09235 0.337447,-0.130224 0.01003,-0.0033 0.01991,-0.0071 0.02997,-0.01034 0.128664,-0.0412 0.26017,-0.07626 0.393774,-0.103353 0.02769,-0.0056 0.05481,-0.01311 0.08268,-0.01809 0.04533,-0.0081 0.09128,-0.01277 0.136943,-0.01964 0.07471,-0.01123 0.149794,-0.02085 0.225309,-0.02842 0.08765,-0.008 0.176002,-0.01466 0.2651,-0.01499 z m -16.678052,0.09405 1.298629,4.03903 -2.604492,-0.542086 z m 3.803386,0.478007 1.02526,4.295345 -2.57917,-0.536919 z m 17.405139,2.074808 0.833024,0.173116 v 3.851962 C 36.403048,27.93101 36.094704,26.998312 36.094704,25.552168 v -5.17e-4 -5.17e-4 -0.0015 -5.17e-4 -0.0016 -5.17e-4 -0.001 c -0.0014,-0.196997 -0.01557,-0.394161 -0.04186,-0.589111 -0.0032,-0.02445 -0.01041,-0.04797 -0.01395,-0.07235 -0.01631,-0.112216 -0.0382,-0.222977 -0.06253,-0.333313 z m -30.3149452,0.796334 2.6184448,0.54467 0.8898686,0.185001 9.2046058,1.915129 1.363741,0.283704 v 0.562239 6.261633 1.45986 1.460892 4.396114 L 18.308705,42.055552 10.185687,40.006065 7.0148213,39.206114 5.6614155,38.864532 Z m 19.6153402,1.735811 0.118856,1.036113 c 0.01879,0.13367 0.04347,0.279611 0.06821,0.425297 0.108497,0.638859 0.280396,1.391496 0.602031,2.306319 0.504168,1.434008 1.358742,3.055193 2.71818,4.499467 0.759404,0.806792 1.675956,1.55865 2.779675,2.191081 0.425928,0.244059 0.888559,0.464252 1.371493,0.66921 0.855117,0.36291 1.800708,0.659097 2.848405,0.867647 l -2.211751,0.45992 -12.389425,2.577621 v -1.459343 -2.936771 -1.460376 -1.45986 -5.364013 -1.159619 c 0,-0.09839 -0.01256,-0.190509 -0.01705,-0.304375 1.37777,-0.256169 2.749132,-0.559008 4.111377,-0.888318 z"
           sodipodi:nodetypes="scccccsccccccccccccccccccccccccccccccccccccsccccccccsccccccscccccccccccccccccccccsccscccccccccsscssscccccccccccccccssscccccccccsssccccccccccccccccccsccccccccccccccccccccccccsscccccsscccscccccccccssscscccsscsccccccccscccsscccccssscssssccsscsccscccsccssssscscsccsccscsccscccccccccccccccsccccccscccccccccccccccccccccsssssccccccccscsc" />
        <text
           xml:space="preserve"
           style="font-style:normal;font-variant:normal;font-weight:normal;font-stretch:normal;font-size:10.5833px;line-height:1.6;font-family:Mangaka;-inkscape-font-specification:'Mangaka, Normal';font-variant-ligatures:normal;font-variant-caps:normal;font-variant-numeric:normal;font-variant-east-asian:normal;text-align:center;letter-spacing:1.5875px;word-spacing:0px;text-orientation:upright;text-anchor:middle;display:inline;fill:#002b36;stroke-width:1;stroke-linecap:round;stroke-linejoin:round;stroke-dashoffset:134.173;paint-order:fill markers stroke"
           x="23.040461"
           y="63.563988"
           id="text9"><tspan
             sodipodi:role="line"
             id="tspan9"
             style="font-style:normal;font-variant:normal;font-weight:normal;font-stretch:normal;font-size:10.5833px;font-family:Mangaka;-inkscape-font-specification:'Mangaka, Normal';font-variant-ligatures:normal;font-variant-caps:normal;font-variant-numeric:normal;font-variant-east-asian:normal;stroke-width:1"
             x="23.834209"
             y="63.563988">3/3</tspan></text>
        <text
           xml:space="preserve"
           style="font-size:12.7px;line-height:1.6;font-family:Rayhound;-inkscape-font-specification:'Rayhound, Normal';text-align:center;letter-spacing:1.5875px;word-spacing:0px;text-orientation:upright;text-anchor:middle;display:inline;fill:#002b36;stroke-width:1;stroke-linecap:round;stroke-linejoin:round;stroke-dashoffset:134.173;paint-order:fill markers stroke"
           x="23.148165"
           y="52.270237"
           id="text5"><tspan
             sodipodi:role="line"
             id="tspan5"
             style="font-style:normal;font-variant:normal;font-weight:normal;font-stretch:normal;font-size:7.05556px;font-family:Mangaka;-inkscape-font-specification:'Mangaka, Normal';font-variant-ligatures:normal;font-variant-caps:normal;font-variant-numeric:normal;font-variant-east-asian:normal;letter-spacing:1.5875px;stroke-width:1"
             x="23.941916"
             y="52.270237">ASSASSIN</tspan></text>
      </g>
      <g
         id="g13"
         inkscape:label="2"
         style="display:inline"
         transform="translate(50,-1.3600234)">
        <path
           id="path11"
           style="display:inline;fill:#002b36;stroke-linecap:round;stroke-linejoin:round;stroke-dashoffset:134.173;paint-order:stroke markers fill"
           inkscape:label="mimic"
           d="m 27.535532,5.215943 c -0.0566,-9.04e-4 -0.113453,0.0071 -0.170015,0.0078 -0.387466,0.0374 -0.775877,0.08202 -1.163753,0.1229897 C 20.3746,5.9621734 14.508236,6.9898438 8.8762064,8.8881159 c -0.03157,0.01045 -0.062794,0.022 -0.093534,0.03462 C 8.6079778,8.9954959 8.4398517,9.0744086 8.2726261,9.1542456 5.1025443,10.667719 3.2689478,13.421782 2.687954,16.276808 c -0.3417052,1.679153 -0.28809,3.400911 0.1245402,4.997628 0.0042,0.01617 0.0081,0.03242 0.012402,0.04857 0.0434,0.164777 0.09054,0.328521 0.1415934,0.49041 0.0255,0.08017 0.054239,0.159224 0.081649,0.238745 0.07035,0.205739 0.1467086,0.408772 0.2294434,0.608748 0.05718,0.137283 0.1166682,0.273557 0.179834,0.408244 0.0383,0.08216 0.07531,0.165033 0.1157552,0.24598 0.1052348,0.209448 0.2178391,0.415165 0.3379639,0.617016 0.0345,0.0582 0.070771,0.115194 0.1064534,0.1726 0.1207068,0.193532 0.247641,0.383745 0.3824056,0.568957 0.0022,0.003 0.004,0.0063 0.0062,0.0093 0.01422,0.0195 0.025928,0.04057 0.040308,0.05994 -0.01428,-0.01927 -0.027211,-0.03953 -0.041341,-0.05891 -0.1107718,0.203614 -0.1703829,0.431235 -0.1736329,0.663008 v 13.579533 c 0.02596,0.633719 0.4625146,1.176579 1.0759034,1.337903 l 1.6433105,0.414445 12.4338669,3.137276 c 0.179943,0.04171 0.3653,0.0442 0.546736,0.0155 0.03258,-0.0045 0.0654,-0.0097 0.09819,-0.01654 l 0.0646,-0.01344 16.875456,-3.51038 0.130224,-0.02687 c 0.472864,-0.09959 0.86355,-0.431534 1.03818,-0.882117 0.0036,2.37e-4 0.0072,2.82e-4 0.01085,5.17e-4 0.124587,0.0081 0.245413,0.01967 0.37207,0.02584 5.15e-4,0.001 5.68e-4,0.0021 10e-4,0.0031 0.0011,9.8e-5 0.0015,-9.6e-5 0.0026,0 0.02668,0.0023 0.04964,0.004 0.06718,0.0052 v -0.001 c 0.0098,4.42e-4 0.01811,0.0022 0.0279,0.0026 0.0014,-8.58e-4 0.0028,-0.0017 0.0041,-0.0026 0.08552,0.0054 0.170796,0.01165 0.255282,0.0124 0.0074,8.3e-5 0.01482,8.3e-5 0.02222,0 0.396333,-0.0051 0.790388,-0.06231 1.172538,-0.167431 l 0.0026,-0.0016 c 2.028117,-0.53681 3.453127,-2.377496 3.460254,-4.475696 v -5.16e-4 -5.17e-4 -5.17e-4 -5.17e-4 -5.16e-4 -5.17e-4 -5.17e-4 -5.17e-4 -5.16e-4 c 8.8e-5,-2.515512 -2.030975,-4.578252 -4.532023,-4.641578 8.08e-4,1.66e-4 0.0047,0.001 0.0047,0.001 l -0.12144,-0.0067 c 0.03923,-1e-6 0.07728,0.0047 0.116272,0.0057 -0.0093,-0.0011 -0.327243,-0.0572 -0.749825,-0.261482 -0.0052,-0.0025 -0.01022,-0.0046 -0.0155,-0.0072 0,0 -0.0221,-2.807352 -0.07028,-4.210079 -0.03287,-0.957153 -0.432015,-2.636532 -0.432015,-2.636532 l -0.8847,-4.117061 C 36.6256,17.98949 35.37417,17.866775 34.97489,18.721134 l -0.906922,2.472717 -0.593245,-2.791044 c -0.112151,-0.505908 -0.542923,-0.782309 -0.977718,-0.783931 -0.338176,-0.0013 -0.678787,0.164074 -0.873849,0.516764 l -1.292427,2.940906 c -0.0079,0.0023 -0.01582,0.0054 -0.02377,0.0078 l -1.068668,-2.8236 c -0.346334,-0.73183 -1.373441,-0.770545 -1.773535,-0.06666 l -1.144633,2.538863 c -0.06174,0.108257 -0.09979,0.221599 -0.118339,0.335381 l -1.979208,-0.322461 3.700033,-4.584217 c 0.0955,0.07556 1.762103,1.35022 1.529622,-1.928564 l 0.877983,-1.013892 2.339909,2.046387 c 0.705022,0.61792 1.796375,0.01333 1.646411,-0.912089 L 33.558937,9.6740663 c 0,0 -0.240266,-0.9840704 -0.532784,-1.4531401 C 31.621595,6.3261681 29.606238,5.2490237 27.535532,5.215943 Z m -0.02325,1.4288531 h 5.17e-4 c 1.568631,0.02522 3.113288,0.8071754 4.282942,2.3285385 0.02637,0.0343 0.05515,0.06364 0.08113,0.0987 l -2.230354,0.4676707 -6.19032,1.2991457 -1.756482,0.368453 h -5.17e-4 l -1.659847,0.348299 -3.667476,0.769462 -0.185519,0.03876 c -0.04204,-0.201661 -0.126681,-0.391902 -0.24908,-0.557588 -0.190697,-0.257299 -0.395412,-0.496349 -0.607198,-0.722954 -0.288029,-0.308188 -0.596778,-0.58048 -0.917774,-0.829406 -0.55141,-0.4276087 -1.142412,-0.7716547 -1.763199,-1.0128584 3.287214,-0.9036864 6.64636,-1.5560301 10.026261,-2.0277818 1.215743,-0.169691 2.434298,-0.313906 3.65249,-0.4428667 0.394806,-0.04179 0.789711,-0.08749 1.184424,-0.125573 z m 0.463538,0.7276034 c -0.394731,-5.21e-5 -0.714737,0.3199534 -0.714686,0.7146847 -5.1e-5,0.3947313 0.319955,0.7147368 0.714686,0.7146847 0.394731,5.16e-5 0.714736,-0.3199538 0.714685,-0.7146847 5.1e-5,-0.3947309 -0.319954,-0.7147363 -0.714685,-0.7146847 z m -9.792684,2.0370841 c -0.394731,-5.16e-5 -0.714736,0.3199537 -0.714685,0.7146844 -5.2e-5,0.394731 0.319954,0.714737 0.714685,0.714685 0.394731,5.2e-5 0.714737,-0.319954 0.714685,-0.714685 5.1e-5,-0.3947307 -0.319954,-0.714736 -0.714685,-0.7146844 z m 14.322639,0.6883294 0.822689,4.415234 -4.275191,-3.678845 z m -22.282877,0.14056 c 0.792721,-0.01958 1.583695,0.152917 2.328023,0.516247 0.449832,0.219579 0.884394,0.500815 1.289327,0.859896 0.337287,0.299092 0.655527,0.646643 0.94878,1.042314 L 5.5952697,23.891803 C 5.4296411,23.668331 5.2788719,23.43311 5.1379333,23.192104 c -0.05218,-0.08892 -0.0982,-0.182015 -0.1472779,-0.273368 -0.07969,-0.149205 -0.1571932,-0.29927 -0.227893,-0.453719 -0.06221,-0.13452 -0.1199471,-0.27123 -0.1756999,-0.409795 -0.03793,-0.09567 -0.072824,-0.192175 -0.107487,-0.289388 -0.6166698,-1.697979 -0.755305,-3.64581 -0.315743,-5.496305 0.3025064,-1.380514 0.8861681,-2.686387 1.7600993,-3.754293 0.8397684,-1.026172 1.8372676,-1.69883 2.8799276,-2.033984 0.4674108,-0.150247 0.9434025,-0.231135 1.4190346,-0.242879 z m 18.138428,0.7953 0.1788,4.372343 -3.720703,-3.679879 z m -4.369243,0.914156 0.02119,4.596619 -3.407544,-3.924309 z m -4.024044,0.818554 0.0088,5.030185 L 16.54449,13.4697 Z m 12.530502,5.85184 0.454753,2.585372 -0.7028,-0.220659 h -5.17e-4 c -0.11859,-0.021 -0.2378,-0.03842 -0.358117,-0.05116 -0.03909,-0.0044 -0.07854,-0.0064 -0.117823,-0.0098 -0.07786,-0.0063 -0.156029,-0.01132 -0.234611,-0.01344 -0.0038,-1.02e-4 -0.0076,-4.24e-4 -0.01137,-5.16e-4 z m -4.164087,0.0708 c 0,0 0.594698,1.783723 1.054716,2.754353 -0.07119,0.03635 -0.147263,0.07174 -0.210323,0.109554 h -5.17e-4 l -1.990063,-0.324014 z m 7.546826,0.454235 0.884701,4.118095 h -5.17e-4 c -0.136481,-0.06023 -0.196742,-0.08141 -0.271301,-0.100769 -0.09088,-0.02844 -0.153479,-0.04444 -0.153479,-0.04444 l -1.08934,-0.22686 c -0.0932,-0.13321 -0.196092,-0.256703 -0.30334,-0.375688 l -5.17e-4,-5.16e-4 c -0.08023,-0.09202 -0.164919,-0.178251 -0.251664,-0.263033 -0.0038,-0.0037 -0.0075,-0.0076 -0.01137,-0.01137 z m -24.810372,2.738335 c 0,0 0.927825,2.426346 1.392163,3.405476 L 9.7211199,24.717078 Z m 20.374467,0.02222 c 2.78e-4,-1e-6 7.55e-4,2e-6 0.001,0 h 5.17e-4 c 0.111067,1.13e-4 0.221816,0.0054 0.331245,0.0155 0.217435,0.02017 0.431081,0.06013 0.638721,0.117823 0.0015,4.25e-4 0.0031,6.39e-4 0.0047,0.001 h 5.17e-4 c 0.0023,6.3e-4 0.0045,0.0014 0.0067,0.0021 0.102285,0.02879 0.202711,0.06183 0.30179,0.09922 0.05844,0.02205 0.113888,0.05046 0.171049,0.07545 0.07872,0.03441 0.155755,0.07287 0.232027,0.112137 0.02553,0.01327 0.05121,0.02602 0.07648,0.03979 0.0029,0.0016 0.0059,0.0031 0.0088,0.0047 0.08299,0.04551 0.164421,0.0932 0.243396,0.145728 0.02562,0.01704 0.05233,0.03295 0.07751,0.05064 0.08109,0.05695 0.159137,0.118409 0.235645,0.181901 0.01701,0.01413 0.03336,0.02896 0.05013,0.04341 0.05861,0.05045 0.115544,0.102822 0.171049,0.157096 0.01948,0.01907 0.03932,0.03783 0.05839,0.05736 0.06173,0.06314 0.121501,0.128456 0.178801,0.19637 0.0061,0.0072 0.0131,0.01342 0.01912,0.02067 v 5.17e-4 c 0.0028,0.0034 0.0055,0.0069 0.0083,0.01034 0.06655,0.08076 0.130337,0.164514 0.190169,0.251664 0.02182,0.03178 0.03973,0.06574 0.05943,0.0987 0.02774,0.04642 0.05659,0.09223 0.08372,0.13901 0.01108,0.01911 0.02338,0.03756 0.03411,0.05684 0.09633,0.173318 0.178664,0.353322 0.245464,0.539502 0.08877,0.247395 0.154373,0.503334 0.188102,0.765845 0.02093,0.154144 0.032,0.309533 0.03307,0.465088 0,0.103458 0.0099,0.194382 0.01292,0.294038 0.0071,0.236351 0.01847,0.467007 0.04134,0.682646 0.04489,0.423322 0.119351,0.805973 0.215491,1.154968 0.0056,0.02034 0.0092,0.04297 0.01499,0.06305 0.317484,1.108915 0.860534,1.860243 1.428853,2.36368 0.509278,0.451127 1.033492,0.705261 1.42937,0.84801 0.0063,0.0023 0.0092,0.0024 0.0155,0.0047 0.375024,0.133241 0.63407,0.167948 0.63407,0.167948 2.014669,-7e-5 3.648426,1.633686 3.648356,3.648356 -0.0056,1.65142 -1.120398,3.093574 -2.717147,3.515031 -0.303301,0.08443 -0.616396,0.129252 -0.931209,0.133325 -0.09317,-8.29e-4 -0.18618,-0.005 -0.278536,-0.01292 0.01793,0.0016 0.03578,0.0028 0.05374,0.0041 -0.140142,-0.0061 -0.272354,-0.01902 -0.409278,-0.0279 -0.0052,-3.36e-4 -0.01032,-8.58e-4 -0.0155,-0.001 -0.494362,-0.03248 -0.974565,-0.07723 -1.42937,-0.142627 C 36.091406,38.144186 35.427497,37.9981 34.804339,37.821702 33.180062,37.361879 31.866108,36.673043 30.800966,35.859031 28.75514,34.295553 27.625047,32.272634 27.008433,30.518788 26.714876,29.683826 26.543237,28.946736 26.435858,28.34166 l -0.173633,-1.398364 c -0.10953,-0.527941 -0.617946,-0.874054 -1.149284,-0.782381 -0.861213,0.128385 -1.70309,0.349048 -2.549715,0.54777 l 0.04237,-0.489892 c 0.01779,-0.199908 0.06099,-0.395149 0.127124,-0.584978 0.183795,-0.527574 0.53751,-1.010698 0.999422,-1.406115 0.134166,-0.114852 0.281919,-0.213581 0.429948,-0.310576 0.0052,-0.0034 0.0098,-0.0075 0.01499,-0.01085 0.142299,-0.09238 0.288117,-0.170711 0.437699,-0.244946 0.484584,-0.240487 0.99095,-0.393811 1.437122,-0.407727 0.746612,-0.02329 1.509466,0.17604 2.173511,0.610815 0.262631,0.171952 0.510016,0.379989 0.734322,0.627352 0.02604,0.02871 0.05003,0.06069 0.07545,0.09043 0.06991,0.08183 0.137718,0.167149 0.202572,0.256832 0.269513,0.37267 0.494287,0.811998 0.655774,1.323433 0.03826,0.121157 0.07439,0.245021 0.10542,0.374138 0.08461,0.352093 0.182,0.683885 0.286287,1.004589 0.918882,2.825784 2.549505,4.464156 4.016293,5.368148 0.369147,0.227512 0.726745,0.404461 1.063501,0.550871 0.0051,0.0022 0.01045,0.005 0.0155,0.0072 0.591804,0.25593 1.066556,0.385664 1.428853,0.465088 0.339075,0.07433 0.588078,0.111104 0.588078,0.111104 0.268182,0.0229 0.504299,-0.175758 0.527616,-0.443901 0.02257,-0.268544 -0.176905,-0.504578 -0.445451,-0.527099 0,0 -0.269859,-0.03277 -0.670243,-0.135909 -0.373007,-0.09608 -0.857342,-0.254232 -1.428853,-0.543636 -0.0053,-0.0027 -0.01016,-0.0045 -0.0155,-0.0072 -0.178559,-0.09095 -0.362826,-0.192296 -0.551388,-0.308508 -1.284025,-0.791358 -2.721122,-2.18619 -3.569808,-4.735629 -0.108464,-0.325818 -0.208448,-0.668214 -0.296106,-1.033011 -0.02852,-0.118696 -0.06337,-0.231562 -0.09767,-0.345199 -0.11985,-0.397043 -0.272905,-0.764062 -0.455786,-1.098641 -0.04437,-0.08117 -0.09084,-0.159746 -0.138493,-0.237195 -0.208113,-0.338274 -0.446847,-0.640366 -0.709001,-0.906921 -0.239236,-0.243246 -0.497343,-0.456781 -0.770496,-0.639238 0.195662,-0.209098 0.32375,-0.311208 0.466639,-0.420646 0.0148,-0.01133 0.03103,-0.02043 0.04599,-0.03152 0.076,-0.05635 0.154571,-0.108566 0.234611,-0.158647 0.03177,-0.01994 0.06324,-0.04049 0.0956,-0.05943 5.35e-4,-3.13e-4 9.5e-4,-7.54e-4 0.0016,-10e-4 0.08994,-0.05237 0.182259,-0.100229 0.276469,-0.144694 0.02521,-0.01197 0.04996,-0.02478 0.07545,-0.03617 4.94e-4,-2.21e-4 0.0011,-2.96e-4 0.0015,-5.17e-4 0.110044,-0.04881 0.222584,-0.09235 0.337447,-0.130224 0.01003,-0.0033 0.01991,-0.0071 0.02997,-0.01034 0.128664,-0.0412 0.26017,-0.07626 0.393774,-0.103353 0.02769,-0.0056 0.05481,-0.01311 0.08268,-0.01809 0.04533,-0.0081 0.09128,-0.01277 0.136943,-0.01964 0.07471,-0.01123 0.149794,-0.02085 0.225309,-0.02842 0.08765,-0.008 0.176002,-0.01466 0.2651,-0.01499 z m -16.678052,0.09405 1.298629,4.03903 -2.604492,-0.542086 z m 3.803386,0.478007 1.02526,4.295345 -2.57917,-0.536919 z m 17.405139,2.074808 0.833024,0.173116 v 3.851962 C 36.403048,27.93101 36.094704,26.998312 36.094704,25.552168 v -5.17e-4 -5.17e-4 -0.0015 -5.17e-4 -0.0016 -5.17e-4 -0.001 c -0.0014,-0.196997 -0.01557,-0.394161 -0.04186,-0.589111 -0.0032,-0.02445 -0.01041,-0.04797 -0.01395,-0.07235 -0.01631,-0.112216 -0.0382,-0.222977 -0.06253,-0.333313 z m -30.3149452,0.796334 2.6184448,0.54467 0.8898686,0.185001 9.2046058,1.915129 1.363741,0.283704 v 0.562239 6.261633 1.45986 1.460892 4.396114 L 18.308705,42.055552 10.185687,40.006065 7.0148213,39.206114 5.6614155,38.864532 Z m 19.6153402,1.735811 0.118856,1.036113 c 0.01879,0.13367 0.04347,0.279611 0.06821,0.425297 0.108497,0.638859 0.280396,1.391496 0.602031,2.306319 0.504168,1.434008 1.358742,3.055193 2.71818,4.499467 0.759404,0.806792 1.675956,1.55865 2.779675,2.191081 0.425928,0.244059 0.888559,0.464252 1.371493,0.66921 0.855117,0.36291 1.800708,0.659097 2.848405,0.867647 l -2.211751,0.45992 -12.389425,2.577621 v -1.459343 -2.936771 -1.460376 -1.45986 -5.364013 -1.159619 c 0,-0.09839 -0.01256,-0.190509 -0.01705,-0.304375 1.37777,-0.256169 2.749132,-0.559008 4.111377,-0.888318 z"
           sodipodi:nodetypes="scccccsccccccccccccccccccccccccccccccccccccsccccccccsccccccscccccccccccccccccccccsccscccccccccsscssscccccccccccccccssscccccccccsssccccccccccccccccccsccccccccccccccccccccccccsscccccsscccscccccccccssscscccsscsccccccccscccsscccccssscssssccsscsccscccsccssssscscsccsccscsccscccccccccccccccsccccccscccccccccccccccccccccsssssccccccccscsc" />
        <text
           xml:space="preserve"
           style="font-style:normal;font-variant:normal;font-weight:normal;font-stretch:normal;font-size:10.5833px;line-height:1.6;font-family:Mangaka;-inkscape-font-specification:'Mangaka, Normal';font-variant-ligatures:normal;font-variant-caps:normal;font-variant-numeric:normal;font-variant-east-asian:normal;text-align:center;letter-spacing:1.5875px;word-spacing:0px;text-orientation:upright;text-anchor:middle;display:inline;fill:#002b36;stroke-width:1;stroke-linecap:round;stroke-linejoin:round;stroke-dashoffset:134.173;paint-order:fill markers stroke"
           x="23.040461"
           y="63.563988"
           id="text12"><tspan
             sodipodi:role="line"
             id="tspan12"
             style="font-style:normal;font-variant:normal;font-weight:normal;font-stretch:normal;font-size:10.5833px;font-family:Mangaka;-inkscape-font-specification:'Mangaka, Normal';font-variant-ligatures:normal;font-variant-caps:normal;font-variant-numeric:normal;font-variant-east-asian:normal;stroke-width:1"
             x="23.834209"
             y="63.563988">3/3</tspan></text>
        <text
           xml:space="preserve"
           style="font-size:12.7px;line-height:1.6;font-family:Rayhound;-inkscape-font-specification:'Rayhound, Normal';text-align:center;letter-spacing:1.5875px;word-spacing:0px;text-orientation:upright;text-anchor:middle;display:inline;fill:#002b36;stroke-width:1;stroke-linecap:round;stroke-linejoin:round;stroke-dashoffset:134.173;paint-order:fill markers stroke"
           x="23.148165"
           y="52.270237"
           id="text13"><tspan
             sodipodi:role="line"
             id="tspan13"
             style="font-style:normal;font-variant:normal;font-weight:normal;font-stretch:normal;font-size:7.05556px;font-family:Mangaka;-inkscape-font-specification:'Mangaka, Normal';font-variant-ligatures:normal;font-variant-caps:normal;font-variant-numeric:normal;font-variant-east-asian:normal;letter-spacing:1.5875px;stroke-width:1"
             x="23.941916"
             y="52.270237">ASSASSIN</tspan></text>
      </g>
      <g
         id="g11"
         inkscape:label="3"
         style="display:inline"
         transform="translate(100,-1.3600234)">
        <path
           id="path10"
           style="display:inline;fill:#002b36;stroke-linecap:round;stroke-linejoin:round;stroke-dashoffset:134.173;paint-order:stroke markers fill"
           inkscape:label="mimic"
           d="m 27.535532,5.215943 c -0.0566,-9.04e-4 -0.113453,0.0071 -0.170015,0.0078 -0.387466,0.0374 -0.775877,0.08202 -1.163753,0.1229897 C 20.3746,5.9621734 14.508236,6.9898438 8.8762064,8.8881159 c -0.03157,0.01045 -0.062794,0.022 -0.093534,0.03462 C 8.6079778,8.9954959 8.4398517,9.0744086 8.2726261,9.1542456 5.1025443,10.667719 3.2689478,13.421782 2.687954,16.276808 c -0.3417052,1.679153 -0.28809,3.400911 0.1245402,4.997628 0.0042,0.01617 0.0081,0.03242 0.012402,0.04857 0.0434,0.164777 0.09054,0.328521 0.1415934,0.49041 0.0255,0.08017 0.054239,0.159224 0.081649,0.238745 0.07035,0.205739 0.1467086,0.408772 0.2294434,0.608748 0.05718,0.137283 0.1166682,0.273557 0.179834,0.408244 0.0383,0.08216 0.07531,0.165033 0.1157552,0.24598 0.1052348,0.209448 0.2178391,0.415165 0.3379639,0.617016 0.0345,0.0582 0.070771,0.115194 0.1064534,0.1726 0.1207068,0.193532 0.247641,0.383745 0.3824056,0.568957 0.0022,0.003 0.004,0.0063 0.0062,0.0093 0.01422,0.0195 0.025928,0.04057 0.040308,0.05994 -0.01428,-0.01927 -0.027211,-0.03953 -0.041341,-0.05891 -0.1107718,0.203614 -0.1703829,0.431235 -0.1736329,0.663008 v 13.579533 c 0.02596,0.633719 0.4625146,1.176579 1.0759034,1.337903 l 1.6433105,0.414445 12.4338669,3.137276 c 0.179943,0.04171 0.3653,0.0442 0.546736,0.0155 0.03258,-0.0045 0.0654,-0.0097 0.09819,-0.01654 l 0.0646,-0.01344 16.875456,-3.51038 0.130224,-0.02687 c 0.472864,-0.09959 0.86355,-0.431534 1.03818,-0.882117 0.0036,2.37e-4 0.0072,2.82e-4 0.01085,5.17e-4 0.124587,0.0081 0.245413,0.01967 0.37207,0.02584 5.15e-4,0.001 5.68e-4,0.0021 10e-4,0.0031 0.0011,9.8e-5 0.0015,-9.6e-5 0.0026,0 0.02668,0.0023 0.04964,0.004 0.06718,0.0052 v -0.001 c 0.0098,4.42e-4 0.01811,0.0022 0.0279,0.0026 0.0014,-8.58e-4 0.0028,-0.0017 0.0041,-0.0026 0.08552,0.0054 0.170796,0.01165 0.255282,0.0124 0.0074,8.3e-5 0.01482,8.3e-5 0.02222,0 0.396333,-0.0051 0.790388,-0.06231 1.172538,-0.167431 l 0.0026,-0.0016 c 2.028117,-0.53681 3.453127,-2.377496 3.460254,-4.475696 v -5.16e-4 -5.17e-4 -5.17e-4 -5.17e-4 -5.16e-4 -5.17e-4 -5.17e-4 -5.17e-4 -5.16e-4 c 8.8e-5,-2.515512 -2.030975,-4.578252 -4.532023,-4.641578 8.08e-4,1.66e-4 0.0047,0.001 0.0047,0.001 l -0.12144,-0.0067 c 0.03923,-1e-6 0.07728,0.0047 0.116272,0.0057 -0.0093,-0.0011 -0.327243,-0.0572 -0.749825,-0.261482 -0.0052,-0.0025 -0.01022,-0.0046 -0.0155,-0.0072 0,0 -0.0221,-2.807352 -0.07028,-4.210079 -0.03287,-0.957153 -0.432015,-2.636532 -0.432015,-2.636532 l -0.8847,-4.117061 C 36.6256,17.98949 35.37417,17.866775 34.97489,18.721134 l -0.906922,2.472717 -0.593245,-2.791044 c -0.112151,-0.505908 -0.542923,-0.782309 -0.977718,-0.783931 -0.338176,-0.0013 -0.678787,0.164074 -0.873849,0.516764 l -1.292427,2.940906 c -0.0079,0.0023 -0.01582,0.0054 -0.02377,0.0078 l -1.068668,-2.8236 c -0.346334,-0.73183 -1.373441,-0.770545 -1.773535,-0.06666 l -1.144633,2.538863 c -0.06174,0.108257 -0.09979,0.221599 -0.118339,0.335381 l -1.979208,-0.322461 3.700033,-4.584217 c 0.0955,0.07556 1.762103,1.35022 1.529622,-1.928564 l 0.877983,-1.013892 2.339909,2.046387 c 0.705022,0.61792 1.796375,0.01333 1.646411,-0.912089 L 33.558937,9.6740663 c 0,0 -0.240266,-0.9840704 -0.532784,-1.4531401 C 31.621595,6.3261681 29.606238,5.2490237 27.535532,5.215943 Z m -0.02325,1.4288531 h 5.17e-4 c 1.568631,0.02522 3.113288,0.8071754 4.282942,2.3285385 0.02637,0.0343 0.05515,0.06364 0.08113,0.0987 l -2.230354,0.4676707 -6.19032,1.2991457 -1.756482,0.368453 h -5.17e-4 l -1.659847,0.348299 -3.667476,0.769462 -0.185519,0.03876 c -0.04204,-0.201661 -0.126681,-0.391902 -0.24908,-0.557588 -0.190697,-0.257299 -0.395412,-0.496349 -0.607198,-0.722954 -0.288029,-0.308188 -0.596778,-0.58048 -0.917774,-0.829406 -0.55141,-0.4276087 -1.142412,-0.7716547 -1.763199,-1.0128584 3.287214,-0.9036864 6.64636,-1.5560301 10.026261,-2.0277818 1.215743,-0.169691 2.434298,-0.313906 3.65249,-0.4428667 0.394806,-0.04179 0.789711,-0.08749 1.184424,-0.125573 z m 0.463538,0.7276034 c -0.394731,-5.21e-5 -0.714737,0.3199534 -0.714686,0.7146847 -5.1e-5,0.3947313 0.319955,0.7147368 0.714686,0.7146847 0.394731,5.16e-5 0.714736,-0.3199538 0.714685,-0.7146847 5.1e-5,-0.3947309 -0.319954,-0.7147363 -0.714685,-0.7146847 z m -9.792684,2.0370841 c -0.394731,-5.16e-5 -0.714736,0.3199537 -0.714685,0.7146844 -5.2e-5,0.394731 0.319954,0.714737 0.714685,0.714685 0.394731,5.2e-5 0.714737,-0.319954 0.714685,-0.714685 5.1e-5,-0.3947307 -0.319954,-0.714736 -0.714685,-0.7146844 z m 14.322639,0.6883294 0.822689,4.415234 -4.275191,-3.678845 z m -22.282877,0.14056 c 0.792721,-0.01958 1.583695,0.152917 2.328023,0.516247 0.449832,0.219579 0.884394,0.500815 1.289327,0.859896 0.337287,0.299092 0.655527,0.646643 0.94878,1.042314 L 5.5952697,23.891803 C 5.4296411,23.668331 5.2788719,23.43311 5.1379333,23.192104 c -0.05218,-0.08892 -0.0982,-0.182015 -0.1472779,-0.273368 -0.07969,-0.149205 -0.1571932,-0.29927 -0.227893,-0.453719 -0.06221,-0.13452 -0.1199471,-0.27123 -0.1756999,-0.409795 -0.03793,-0.09567 -0.072824,-0.192175 -0.107487,-0.289388 -0.6166698,-1.697979 -0.755305,-3.64581 -0.315743,-5.496305 0.3025064,-1.380514 0.8861681,-2.686387 1.7600993,-3.754293 0.8397684,-1.026172 1.8372676,-1.69883 2.8799276,-2.033984 0.4674108,-0.150247 0.9434025,-0.231135 1.4190346,-0.242879 z m 18.138428,0.7953 0.1788,4.372343 -3.720703,-3.679879 z m -4.369243,0.914156 0.02119,4.596619 -3.407544,-3.924309 z m -4.024044,0.818554 0.0088,5.030185 L 16.54449,13.4697 Z m 12.530502,5.85184 0.454753,2.585372 -0.7028,-0.220659 h -5.17e-4 c -0.11859,-0.021 -0.2378,-0.03842 -0.358117,-0.05116 -0.03909,-0.0044 -0.07854,-0.0064 -0.117823,-0.0098 -0.07786,-0.0063 -0.156029,-0.01132 -0.234611,-0.01344 -0.0038,-1.02e-4 -0.0076,-4.24e-4 -0.01137,-5.16e-4 z m -4.164087,0.0708 c 0,0 0.594698,1.783723 1.054716,2.754353 -0.07119,0.03635 -0.147263,0.07174 -0.210323,0.109554 h -5.17e-4 l -1.990063,-0.324014 z m 7.546826,0.454235 0.884701,4.118095 h -5.17e-4 c -0.136481,-0.06023 -0.196742,-0.08141 -0.271301,-0.100769 -0.09088,-0.02844 -0.153479,-0.04444 -0.153479,-0.04444 l -1.08934,-0.22686 c -0.0932,-0.13321 -0.196092,-0.256703 -0.30334,-0.375688 l -5.17e-4,-5.16e-4 c -0.08023,-0.09202 -0.164919,-0.178251 -0.251664,-0.263033 -0.0038,-0.0037 -0.0075,-0.0076 -0.01137,-0.01137 z m -24.810372,2.738335 c 0,0 0.927825,2.426346 1.392163,3.405476 L 9.7211199,24.717078 Z m 20.374467,0.02222 c 2.78e-4,-1e-6 7.55e-4,2e-6 0.001,0 h 5.17e-4 c 0.111067,1.13e-4 0.221816,0.0054 0.331245,0.0155 0.217435,0.02017 0.431081,0.06013 0.638721,0.117823 0.0015,4.25e-4 0.0031,6.39e-4 0.0047,0.001 h 5.17e-4 c 0.0023,6.3e-4 0.0045,0.0014 0.0067,0.0021 0.102285,0.02879 0.202711,0.06183 0.30179,0.09922 0.05844,0.02205 0.113888,0.05046 0.171049,0.07545 0.07872,0.03441 0.155755,0.07287 0.232027,0.112137 0.02553,0.01327 0.05121,0.02602 0.07648,0.03979 0.0029,0.0016 0.0059,0.0031 0.0088,0.0047 0.08299,0.04551 0.164421,0.0932 0.243396,0.145728 0.02562,0.01704 0.05233,0.03295 0.07751,0.05064 0.08109,0.05695 0.159137,0.118409 0.235645,0.181901 0.01701,0.01413 0.03336,0.02896 0.05013,0.04341 0.05861,0.05045 0.115544,0.102822 0.171049,0.157096 0.01948,0.01907 0.03932,0.03783 0.05839,0.05736 0.06173,0.06314 0.121501,0.128456 0.178801,0.19637 0.0061,0.0072 0.0131,0.01342 0.01912,0.02067 v 5.17e-4 c 0.0028,0.0034 0.0055,0.0069 0.0083,0.01034 0.06655,0.08076 0.130337,0.164514 0.190169,0.251664 0.02182,0.03178 0.03973,0.06574 0.05943,0.0987 0.02774,0.04642 0.05659,0.09223 0.08372,0.13901 0.01108,0.01911 0.02338,0.03756 0.03411,0.05684 0.09633,0.173318 0.178664,0.353322 0.245464,0.539502 0.08877,0.247395 0.154373,0.503334 0.188102,0.765845 0.02093,0.154144 0.032,0.309533 0.03307,0.465088 0,0.103458 0.0099,0.194382 0.01292,0.294038 0.0071,0.236351 0.01847,0.467007 0.04134,0.682646 0.04489,0.423322 0.119351,0.805973 0.215491,1.154968 0.0056,0.02034 0.0092,0.04297 0.01499,0.06305 0.317484,1.108915 0.860534,1.860243 1.428853,2.36368 0.509278,0.451127 1.033492,0.705261 1.42937,0.84801 0.0063,0.0023 0.0092,0.0024 0.0155,0.0047 0.375024,0.133241 0.63407,0.167948 0.63407,0.167948 2.014669,-7e-5 3.648426,1.633686 3.648356,3.648356 -0.0056,1.65142 -1.120398,3.093574 -2.717147,3.515031 -0.303301,0.08443 -0.616396,0.129252 -0.931209,0.133325 -0.09317,-8.29e-4 -0.18618,-0.005 -0.278536,-0.01292 0.01793,0.0016 0.03578,0.0028 0.05374,0.0041 -0.140142,-0.0061 -0.272354,-0.01902 -0.409278,-0.0279 -0.0052,-3.36e-4 -0.01032,-8.58e-4 -0.0155,-0.001 -0.494362,-0.03248 -0.974565,-0.07723 -1.42937,-0.142627 C 36.091406,38.144186 35.427497,37.9981 34.804339,37.821702 33.180062,37.361879 31.866108,36.673043 30.800966,35.859031 28.75514,34.295553 27.625047,32.272634 27.008433,30.518788 26.714876,29.683826 26.543237,28.946736 26.435858,28.34166 l -0.173633,-1.398364 c -0.10953,-0.527941 -0.617946,-0.874054 -1.149284,-0.782381 -0.861213,0.128385 -1.70309,0.349048 -2.549715,0.54777 l 0.04237,-0.489892 c 0.01779,-0.199908 0.06099,-0.395149 0.127124,-0.584978 0.183795,-0.527574 0.53751,-1.010698 0.999422,-1.406115 0.134166,-0.114852 0.281919,-0.213581 0.429948,-0.310576 0.0052,-0.0034 0.0098,-0.0075 0.01499,-0.01085 0.142299,-0.09238 0.288117,-0.170711 0.437699,-0.244946 0.484584,-0.240487 0.99095,-0.393811 1.437122,-0.407727 0.746612,-0.02329 1.509466,0.17604 2.173511,0.610815 0.262631,0.171952 0.510016,0.379989 0.734322,0.627352 0.02604,0.02871 0.05003,0.06069 0.07545,0.09043 0.06991,0.08183 0.137718,0.167149 0.202572,0.256832 0.269513,0.37267 0.494287,0.811998 0.655774,1.323433 0.03826,0.121157 0.07439,0.245021 0.10542,0.374138 0.08461,0.352093 0.182,0.683885 0.286287,1.004589 0.918882,2.825784 2.549505,4.464156 4.016293,5.368148 0.369147,0.227512 0.726745,0.404461 1.063501,0.550871 0.0051,0.0022 0.01045,0.005 0.0155,0.0072 0.591804,0.25593 1.066556,0.385664 1.428853,0.465088 0.339075,0.07433 0.588078,0.111104 0.588078,0.111104 0.268182,0.0229 0.504299,-0.175758 0.527616,-0.443901 0.02257,-0.268544 -0.176905,-0.504578 -0.445451,-0.527099 0,0 -0.269859,-0.03277 -0.670243,-0.135909 -0.373007,-0.09608 -0.857342,-0.254232 -1.428853,-0.543636 -0.0053,-0.0027 -0.01016,-0.0045 -0.0155,-0.0072 -0.178559,-0.09095 -0.362826,-0.192296 -0.551388,-0.308508 -1.284025,-0.791358 -2.721122,-2.18619 -3.569808,-4.735629 -0.108464,-0.325818 -0.208448,-0.668214 -0.296106,-1.033011 -0.02852,-0.118696 -0.06337,-0.231562 -0.09767,-0.345199 -0.11985,-0.397043 -0.272905,-0.764062 -0.455786,-1.098641 -0.04437,-0.08117 -0.09084,-0.159746 -0.138493,-0.237195 -0.208113,-0.338274 -0.446847,-0.640366 -0.709001,-0.906921 -0.239236,-0.243246 -0.497343,-0.456781 -0.770496,-0.639238 0.195662,-0.209098 0.32375,-0.311208 0.466639,-0.420646 0.0148,-0.01133 0.03103,-0.02043 0.04599,-0.03152 0.076,-0.05635 0.154571,-0.108566 0.234611,-0.158647 0.03177,-0.01994 0.06324,-0.04049 0.0956,-0.05943 5.35e-4,-3.13e-4 9.5e-4,-7.54e-4 0.0016,-10e-4 0.08994,-0.05237 0.182259,-0.100229 0.276469,-0.144694 0.02521,-0.01197 0.04996,-0.02478 0.07545,-0.03617 4.94e-4,-2.21e-4 0.0011,-2.96e-4 0.0015,-5.17e-4 0.110044,-0.04881 0.222584,-0.09235 0.337447,-0.130224 0.01003,-0.0033 0.01991,-0.0071 0.02997,-0.01034 0.128664,-0.0412 0.26017,-0.07626 0.393774,-0.103353 0.02769,-0.0056 0.05481,-0.01311 0.08268,-0.01809 0.04533,-0.0081 0.09128,-0.01277 0.136943,-0.01964 0.07471,-0.01123 0.149794,-0.02085 0.225309,-0.02842 0.08765,-0.008 0.176002,-0.01466 0.2651,-0.01499 z m -16.678052,0.09405 1.298629,4.03903 -2.604492,-0.542086 z m 3.803386,0.478007 1.02526,4.295345 -2.57917,-0.536919 z m 17.405139,2.074808 0.833024,0.173116 v 3.851962 C 36.403048,27.93101 36.094704,26.998312 36.094704,25.552168 v -5.17e-4 -5.17e-4 -0.0015 -5.17e-4 -0.0016 -5.17e-4 -0.001 c -0.0014,-0.196997 -0.01557,-0.394161 -0.04186,-0.589111 -0.0032,-0.02445 -0.01041,-0.04797 -0.01395,-0.07235 -0.01631,-0.112216 -0.0382,-0.222977 -0.06253,-0.333313 z m -30.3149452,0.796334 2.6184448,0.54467 0.8898686,0.185001 9.2046058,1.915129 1.363741,0.283704 v 0.562239 6.261633 1.45986 1.460892 4.396114 L 18.308705,42.055552 10.185687,40.006065 7.0148213,39.206114 5.6614155,38.864532 Z m 19.6153402,1.735811 0.118856,1.036113 c 0.01879,0.13367 0.04347,0.279611 0.06821,0.425297 0.108497,0.638859 0.280396,1.391496 0.602031,2.306319 0.504168,1.434008 1.358742,3.055193 2.71818,4.499467 0.759404,0.806792 1.675956,1.55865 2.779675,2.191081 0.425928,0.244059 0.888559,0.464252 1.371493,0.66921 0.855117,0.36291 1.800708,0.659097 2.848405,0.867647 l -2.211751,0.45992 -12.389425,2.577621 v -1.459343 -2.936771 -1.460376 -1.45986 -5.364013 -1.159619 c 0,-0.09839 -0.01256,-0.190509 -0.01705,-0.304375 1.37777,-0.256169 2.749132,-0.559008 4.111377,-0.888318 z"
           sodipodi:nodetypes="scccccsccccccccccccccccccccccccccccccccccccsccccccccsccccccscccccccccccccccccccccsccscccccccccsscssscccccccccccccccssscccccccccsssccccccccccccccccccsccccccccccccccccccccccccsscccccsscccscccccccccssscscccsscsccccccccscccsscccccssscssssccsscsccscccsccssssscscsccsccscsccscccccccccccccccsccccccscccccccccccccccccccccsssssccccccccscsc" />
        <text
           xml:space="preserve"
           style="font-style:normal;font-variant:normal;font-weight:normal;font-stretch:normal;font-size:10.5833px;line-height:1.6;font-family:Mangaka;-inkscape-font-specification:'Mangaka, Normal';font-variant-ligatures:normal;font-variant-caps:normal;font-variant-numeric:normal;font-variant-east-asian:normal;text-align:center;letter-spacing:1.5875px;word-spacing:0px;text-orientation:upright;text-anchor:middle;display:inline;fill:#002b36;stroke-width:1;stroke-linecap:round;stroke-linejoin:round;stroke-dashoffset:134.173;paint-order:fill markers stroke"
           x="23.040461"
           y="63.563988"
           id="text10"><tspan
             sodipodi:role="line"
             id="tspan10"
             style="font-style:normal;font-variant:normal;font-weight:normal;font-stretch:normal;font-size:10.5833px;font-family:Mangaka;-inkscape-font-specification:'Mangaka, Normal';font-variant-ligatures:normal;font-variant-caps:normal;font-variant-numeric:normal;font-variant-east-asian:normal;stroke-width:1"
             x="23.834209"
             y="63.563988">3/3</tspan></text>
        <text
           xml:space="preserve"
           style="font-size:12.7px;line-height:1.6;font-family:Rayhound;-inkscape-font-specification:'Rayhound, Normal';text-align:center;letter-spacing:1.5875px;word-spacing:0px;text-orientation:upright;text-anchor:middle;display:inline;fill:#002b36;stroke-width:1;stroke-linecap:round;stroke-linejoin:round;stroke-dashoffset:134.173;paint-order:fill markers stroke"
           x="23.148165"
           y="52.270237"
           id="text11"><tspan
             sodipodi:role="line"
             id="tspan11"
             style="font-style:normal;font-variant:normal;font-weight:normal;font-stretch:normal;font-size:7.05556px;font-family:Mangaka;-inkscape-font-specification:'Mangaka, Normal';font-variant-ligatures:normal;font-variant-caps:normal;font-variant-numeric:normal;font-variant-east-asian:normal;letter-spacing:1.5875px;stroke-width:1"
             x="23.941916"
             y="52.270237">ASSASSIN</tspan></text>
      </g>
      <g
         id="g15"
         inkscape:label="4"
         style="display:inline"
         transform="translate(150,-1.3600234)">
        <path
           id="path13"
           style="display:inline;fill:#002b36;stroke-linecap:round;stroke-linejoin:round;stroke-dashoffset:134.173;paint-order:stroke markers fill"
           inkscape:label="mimic"
           d="m 27.535532,5.215943 c -0.0566,-9.04e-4 -0.113453,0.0071 -0.170015,0.0078 -0.387466,0.0374 -0.775877,0.08202 -1.163753,0.1229897 C 20.3746,5.9621734 14.508236,6.9898438 8.8762064,8.8881159 c -0.03157,0.01045 -0.062794,0.022 -0.093534,0.03462 C 8.6079778,8.9954959 8.4398517,9.0744086 8.2726261,9.1542456 5.1025443,10.667719 3.2689478,13.421782 2.687954,16.276808 c -0.3417052,1.679153 -0.28809,3.400911 0.1245402,4.997628 0.0042,0.01617 0.0081,0.03242 0.012402,0.04857 0.0434,0.164777 0.09054,0.328521 0.1415934,0.49041 0.0255,0.08017 0.054239,0.159224 0.081649,0.238745 0.07035,0.205739 0.1467086,0.408772 0.2294434,0.608748 0.05718,0.137283 0.1166682,0.273557 0.179834,0.408244 0.0383,0.08216 0.07531,0.165033 0.1157552,0.24598 0.1052348,0.209448 0.2178391,0.415165 0.3379639,0.617016 0.0345,0.0582 0.070771,0.115194 0.1064534,0.1726 0.1207068,0.193532 0.247641,0.383745 0.3824056,0.568957 0.0022,0.003 0.004,0.0063 0.0062,0.0093 0.01422,0.0195 0.025928,0.04057 0.040308,0.05994 -0.01428,-0.01927 -0.027211,-0.03953 -0.041341,-0.05891 -0.1107718,0.203614 -0.1703829,0.431235 -0.1736329,0.663008 v 13.579533 c 0.02596,0.633719 0.4625146,1.176579 1.0759034,1.337903 l 1.6433105,0.414445 12.4338669,3.137276 c 0.179943,0.04171 0.3653,0.0442 0.546736,0.0155 0.03258,-0.0045 0.0654,-0.0097 0.09819,-0.01654 l 0.0646,-0.01344 16.875456,-3.51038 0.130224,-0.02687 c 0.472864,-0.09959 0.86355,-0.431534 1.03818,-0.882117 0.0036,2.37e-4 0.0072,2.82e-4 0.01085,5.17e-4 0.124587,0.0081 0.245413,0.01967 0.37207,0.02584 5.15e-4,0.001 5.68e-4,0.0021 10e-4,0.0031 0.0011,9.8e-5 0.0015,-9.6e-5 0.0026,0 0.02668,0.0023 0.04964,0.004 0.06718,0.0052 v -0.001 c 0.0098,4.42e-4 0.01811,0.0022 0.0279,0.0026 0.0014,-8.58e-4 0.0028,-0.0017 0.0041,-0.0026 0.08552,0.0054 0.170796,0.01165 0.255282,0.0124 0.0074,8.3e-5 0.01482,8.3e-5 0.02222,0 0.396333,-0.0051 0.790388,-0.06231 1.172538,-0.167431 l 0.0026,-0.0016 c 2.028117,-0.53681 3.453127,-2.377496 3.460254,-4.475696 v -5.16e-4 -5.17e-4 -5.17e-4 -5.17e-4 -5.16e-4 -5.17e-4 -5.17e-4 -5.17e-4 -5.16e-4 c 8.8e-5,-2.515512 -2.030975,-4.578252 -4.532023,-4.641578 8.08e-4,1.66e-4 0.0047,0.001 0.0047,0.001 l -0.12144,-0.0067 c 0.03923,-1e-6 0.07728,0.0047 0.116272,0.0057 -0.0093,-0.0011 -0.327243,-0.0572 -0.749825,-0.261482 -0.0052,-0.0025 -0.01022,-0.0046 -0.0155,-0.0072 0,0 -0.0221,-2.807352 -0.07028,-4.210079 -0.03287,-0.957153 -0.432015,-2.636532 -0.432015,-2.636532 l -0.8847,-4.117061 C 36.6256,17.98949 35.37417,17.866775 34.97489,18.721134 l -0.906922,2.472717 -0.593245,-2.791044 c -0.112151,-0.505908 -0.542923,-0.782309 -0.977718,-0.783931 -0.338176,-0.0013 -0.678787,0.164074 -0.873849,0.516764 l -1.292427,2.940906 c -0.0079,0.0023 -0.01582,0.0054 -0.02377,0.0078 l -1.068668,-2.8236 c -0.346334,-0.73183 -1.373441,-0.770545 -1.773535,-0.06666 l -1.144633,2.538863 c -0.06174,0.108257 -0.09979,0.221599 -0.118339,0.335381 l -1.979208,-0.322461 3.700033,-4.584217 c 0.0955,0.07556 1.762103,1.35022 1.529622,-1.928564 l 0.877983,-1.013892 2.339909,2.046387 c 0.705022,0.61792 1.796375,0.01333 1.646411,-0.912089 L 33.558937,9.6740663 c 0,0 -0.240266,-0.9840704 -0.532784,-1.4531401 C 31.621595,6.3261681 29.606238,5.2490237 27.535532,5.215943 Z m -0.02325,1.4288531 h 5.17e-4 c 1.568631,0.02522 3.113288,0.8071754 4.282942,2.3285385 0.02637,0.0343 0.05515,0.06364 0.08113,0.0987 l -2.230354,0.4676707 -6.19032,1.2991457 -1.756482,0.368453 h -5.17e-4 l -1.659847,0.348299 -3.667476,0.769462 -0.185519,0.03876 c -0.04204,-0.201661 -0.126681,-0.391902 -0.24908,-0.557588 -0.190697,-0.257299 -0.395412,-0.496349 -0.607198,-0.722954 -0.288029,-0.308188 -0.596778,-0.58048 -0.917774,-0.829406 -0.55141,-0.4276087 -1.142412,-0.7716547 -1.763199,-1.0128584 3.287214,-0.9036864 6.64636,-1.5560301 10.026261,-2.0277818 1.215743,-0.169691 2.434298,-0.313906 3.65249,-0.4428667 0.394806,-0.04179 0.789711,-0.08749 1.184424,-0.125573 z m 0.463538,0.7276034 c -0.394731,-5.21e-5 -0.714737,0.3199534 -0.714686,0.7146847 -5.1e-5,0.3947313 0.319955,0.7147368 0.714686,0.7146847 0.394731,5.16e-5 0.714736,-0.3199538 0.714685,-0.7146847 5.1e-5,-0.3947309 -0.319954,-0.7147363 -0.714685,-0.7146847 z m -9.792684,2.0370841 c -0.394731,-5.16e-5 -0.714736,0.3199537 -0.714685,0.7146844 -5.2e-5,0.394731 0.319954,0.714737 0.714685,0.714685 0.394731,5.2e-5 0.714737,-0.319954 0.714685,-0.714685 5.1e-5,-0.3947307 -0.319954,-0.714736 -0.714685,-0.7146844 z m 14.322639,0.6883294 0.822689,4.415234 -4.275191,-3.678845 z m -22.282877,0.14056 c 0.792721,-0.01958 1.583695,0.152917 2.328023,0.516247 0.449832,0.219579 0.884394,0.500815 1.289327,0.859896 0.337287,0.299092 0.655527,0.646643 0.94878,1.042314 L 5.5952697,23.891803 C 5.4296411,23.668331 5.2788719,23.43311 5.1379333,23.192104 c -0.05218,-0.08892 -0.0982,-0.182015 -0.1472779,-0.273368 -0.07969,-0.149205 -0.1571932,-0.29927 -0.227893,-0.453719 -0.06221,-0.13452 -0.1199471,-0.27123 -0.1756999,-0.409795 -0.03793,-0.09567 -0.072824,-0.192175 -0.107487,-0.289388 -0.6166698,-1.697979 -0.755305,-3.64581 -0.315743,-5.496305 0.3025064,-1.380514 0.8861681,-2.686387 1.7600993,-3.754293 0.8397684,-1.026172 1.8372676,-1.69883 2.8799276,-2.033984 0.4674108,-0.150247 0.9434025,-0.231135 1.4190346,-0.242879 z m 18.138428,0.7953 0.1788,4.372343 -3.720703,-3.679879 z m -4.369243,0.914156 0.02119,4.596619 -3.407544,-3.924309 z m -4.024044,0.818554 0.0088,5.030185 L 16.54449,13.4697 Z m 12.530502,5.85184 0.454753,2.585372 -0.7028,-0.220659 h -5.17e-4 c -0.11859,-0.021 -0.2378,-0.03842 -0.358117,-0.05116 -0.03909,-0.0044 -0.07854,-0.0064 -0.117823,-0.0098 -0.07786,-0.0063 -0.156029,-0.01132 -0.234611,-0.01344 -0.0038,-1.02e-4 -0.0076,-4.24e-4 -0.01137,-5.16e-4 z m -4.164087,0.0708 c 0,0 0.594698,1.783723 1.054716,2.754353 -0.07119,0.03635 -0.147263,0.07174 -0.210323,0.109554 h -5.17e-4 l -1.990063,-0.324014 z m 7.546826,0.454235 0.884701,4.118095 h -5.17e-4 c -0.136481,-0.06023 -0.196742,-0.08141 -0.271301,-0.100769 -0.09088,-0.02844 -0.153479,-0.04444 -0.153479,-0.04444 l -1.08934,-0.22686 c -0.0932,-0.13321 -0.196092,-0.256703 -0.30334,-0.375688 l -5.17e-4,-5.16e-4 c -0.08023,-0.09202 -0.164919,-0.178251 -0.251664,-0.263033 -0.0038,-0.0037 -0.0075,-0.0076 -0.01137,-0.01137 z m -24.810372,2.738335 c 0,0 0.927825,2.426346 1.392163,3.405476 L 9.7211199,24.717078 Z m 20.374467,0.02222 c 2.78e-4,-1e-6 7.55e-4,2e-6 0.001,0 h 5.17e-4 c 0.111067,1.13e-4 0.221816,0.0054 0.331245,0.0155 0.217435,0.02017 0.431081,0.06013 0.638721,0.117823 0.0015,4.25e-4 0.0031,6.39e-4 0.0047,0.001 h 5.17e-4 c 0.0023,6.3e-4 0.0045,0.0014 0.0067,0.0021 0.102285,0.02879 0.202711,0.06183 0.30179,0.09922 0.05844,0.02205 0.113888,0.05046 0.171049,0.07545 0.07872,0.03441 0.155755,0.07287 0.232027,0.112137 0.02553,0.01327 0.05121,0.02602 0.07648,0.03979 0.0029,0.0016 0.0059,0.0031 0.0088,0.0047 0.08299,0.04551 0.164421,0.0932 0.243396,0.145728 0.02562,0.01704 0.05233,0.03295 0.07751,0.05064 0.08109,0.05695 0.159137,0.118409 0.235645,0.181901 0.01701,0.01413 0.03336,0.02896 0.05013,0.04341 0.05861,0.05045 0.115544,0.102822 0.171049,0.157096 0.01948,0.01907 0.03932,0.03783 0.05839,0.05736 0.06173,0.06314 0.121501,0.128456 0.178801,0.19637 0.0061,0.0072 0.0131,0.01342 0.01912,0.02067 v 5.17e-4 c 0.0028,0.0034 0.0055,0.0069 0.0083,0.01034 0.06655,0.08076 0.130337,0.164514 0.190169,0.251664 0.02182,0.03178 0.03973,0.06574 0.05943,0.0987 0.02774,0.04642 0.05659,0.09223 0.08372,0.13901 0.01108,0.01911 0.02338,0.03756 0.03411,0.05684 0.09633,0.173318 0.178664,0.353322 0.245464,0.539502 0.08877,0.247395 0.154373,0.503334 0.188102,0.765845 0.02093,0.154144 0.032,0.309533 0.03307,0.465088 0,0.103458 0.0099,0.194382 0.01292,0.294038 0.0071,0.236351 0.01847,0.467007 0.04134,0.682646 0.04489,0.423322 0.119351,0.805973 0.215491,1.154968 0.0056,0.02034 0.0092,0.04297 0.01499,0.06305 0.317484,1.108915 0.860534,1.860243 1.428853,2.36368 0.509278,0.451127 1.033492,0.705261 1.42937,0.84801 0.0063,0.0023 0.0092,0.0024 0.0155,0.0047 0.375024,0.133241 0.63407,0.167948 0.63407,0.167948 2.014669,-7e-5 3.648426,1.633686 3.648356,3.648356 -0.0056,1.65142 -1.120398,3.093574 -2.717147,3.515031 -0.303301,0.08443 -0.616396,0.129252 -0.931209,0.133325 -0.09317,-8.29e-4 -0.18618,-0.005 -0.278536,-0.01292 0.01793,0.0016 0.03578,0.0028 0.05374,0.0041 -0.140142,-0.0061 -0.272354,-0.01902 -0.409278,-0.0279 -0.0052,-3.36e-4 -0.01032,-8.58e-4 -0.0155,-0.001 -0.494362,-0.03248 -0.974565,-0.07723 -1.42937,-0.142627 C 36.091406,38.144186 35.427497,37.9981 34.804339,37.821702 33.180062,37.361879 31.866108,36.673043 30.800966,35.859031 28.75514,34.295553 27.625047,32.272634 27.008433,30.518788 26.714876,29.683826 26.543237,28.946736 26.435858,28.34166 l -0.173633,-1.398364 c -0.10953,-0.527941 -0.617946,-0.874054 -1.149284,-0.782381 -0.861213,0.128385 -1.70309,0.349048 -2.549715,0.54777 l 0.04237,-0.489892 c 0.01779,-0.199908 0.06099,-0.395149 0.127124,-0.584978 0.183795,-0.527574 0.53751,-1.010698 0.999422,-1.406115 0.134166,-0.114852 0.281919,-0.213581 0.429948,-0.310576 0.0052,-0.0034 0.0098,-0.0075 0.01499,-0.01085 0.142299,-0.09238 0.288117,-0.170711 0.437699,-0.244946 0.484584,-0.240487 0.99095,-0.393811 1.437122,-0.407727 0.746612,-0.02329 1.509466,0.17604 2.173511,0.610815 0.262631,0.171952 0.510016,0.379989 0.734322,0.627352 0.02604,0.02871 0.05003,0.06069 0.07545,0.09043 0.06991,0.08183 0.137718,0.167149 0.202572,0.256832 0.269513,0.37267 0.494287,0.811998 0.655774,1.323433 0.03826,0.121157 0.07439,0.245021 0.10542,0.374138 0.08461,0.352093 0.182,0.683885 0.286287,1.004589 0.918882,2.825784 2.549505,4.464156 4.016293,5.368148 0.369147,0.227512 0.726745,0.404461 1.063501,0.550871 0.0051,0.0022 0.01045,0.005 0.0155,0.0072 0.591804,0.25593 1.066556,0.385664 1.428853,0.465088 0.339075,0.07433 0.588078,0.111104 0.588078,0.111104 0.268182,0.0229 0.504299,-0.175758 0.527616,-0.443901 0.02257,-0.268544 -0.176905,-0.504578 -0.445451,-0.527099 0,0 -0.269859,-0.03277 -0.670243,-0.135909 -0.373007,-0.09608 -0.857342,-0.254232 -1.428853,-0.543636 -0.0053,-0.0027 -0.01016,-0.0045 -0.0155,-0.0072 -0.178559,-0.09095 -0.362826,-0.192296 -0.551388,-0.308508 -1.284025,-0.791358 -2.721122,-2.18619 -3.569808,-4.735629 -0.108464,-0.325818 -0.208448,-0.668214 -0.296106,-1.033011 -0.02852,-0.118696 -0.06337,-0.231562 -0.09767,-0.345199 -0.11985,-0.397043 -0.272905,-0.764062 -0.455786,-1.098641 -0.04437,-0.08117 -0.09084,-0.159746 -0.138493,-0.237195 -0.208113,-0.338274 -0.446847,-0.640366 -0.709001,-0.906921 -0.239236,-0.243246 -0.497343,-0.456781 -0.770496,-0.639238 0.195662,-0.209098 0.32375,-0.311208 0.466639,-0.420646 0.0148,-0.01133 0.03103,-0.02043 0.04599,-0.03152 0.076,-0.05635 0.154571,-0.108566 0.234611,-0.158647 0.03177,-0.01994 0.06324,-0.04049 0.0956,-0.05943 5.35e-4,-3.13e-4 9.5e-4,-7.54e-4 0.0016,-10e-4 0.08994,-0.05237 0.182259,-0.100229 0.276469,-0.144694 0.02521,-0.01197 0.04996,-0.02478 0.07545,-0.03617 4.94e-4,-2.21e-4 0.0011,-2.96e-4 0.0015,-5.17e-4 0.110044,-0.04881 0.222584,-0.09235 0.337447,-0.130224 0.01003,-0.0033 0.01991,-0.0071 0.02997,-0.01034 0.128664,-0.0412 0.26017,-0.07626 0.393774,-0.103353 0.02769,-0.0056 0.05481,-0.01311 0.08268,-0.01809 0.04533,-0.0081 0.09128,-0.01277 0.136943,-0.01964 0.07471,-0.01123 0.149794,-0.02085 0.225309,-0.02842 0.08765,-0.008 0.176002,-0.01466 0.2651,-0.01499 z m -16.678052,0.09405 1.298629,4.03903 -2.604492,-0.542086 z m 3.803386,0.478007 1.02526,4.295345 -2.57917,-0.536919 z m 17.405139,2.074808 0.833024,0.173116 v 3.851962 C 36.403048,27.93101 36.094704,26.998312 36.094704,25.552168 v -5.17e-4 -5.17e-4 -0.0015 -5.17e-4 -0.0016 -5.17e-4 -0.001 c -0.0014,-0.196997 -0.01557,-0.394161 -0.04186,-0.589111 -0.0032,-0.02445 -0.01041,-0.04797 -0.01395,-0.07235 -0.01631,-0.112216 -0.0382,-0.222977 -0.06253,-0.333313 z m -30.3149452,0.796334 2.6184448,0.54467 0.8898686,0.185001 9.2046058,1.915129 1.363741,0.283704 v 0.562239 6.261633 1.45986 1.460892 4.396114 L 18.308705,42.055552 10.185687,40.006065 7.0148213,39.206114 5.6614155,38.864532 Z m 19.6153402,1.735811 0.118856,1.036113 c 0.01879,0.13367 0.04347,0.279611 0.06821,0.425297 0.108497,0.638859 0.280396,1.391496 0.602031,2.306319 0.504168,1.434008 1.358742,3.055193 2.71818,4.499467 0.759404,0.806792 1.675956,1.55865 2.779675,2.191081 0.425928,0.244059 0.888559,0.464252 1.371493,0.66921 0.855117,0.36291 1.800708,0.659097 2.848405,0.867647 l -2.211751,0.45992 -12.389425,2.577621 v -1.459343 -2.936771 -1.460376 -1.45986 -5.364013 -1.159619 c 0,-0.09839 -0.01256,-0.190509 -0.01705,-0.304375 1.37777,-0.256169 2.749132,-0.559008 4.111377,-0.888318 z"
           sodipodi:nodetypes="scccccsccccccccccccccccccccccccccccccccccccsccccccccsccccccscccccccccccccccccccccsccscccccccccsscssscccccccccccccccssscccccccccsssccccccccccccccccccsccccccccccccccccccccccccsscccccsscccscccccccccssscscccsscsccccccccscccsscccccssscssssccsscsccscccsccssssscscsccsccscsccscccccccccccccccsccccccscccccccccccccccccccccsssssccccccccscsc" />
        <text
           xml:space="preserve"
           style="font-style:normal;font-variant:normal;font-weight:normal;font-stretch:normal;font-size:10.5833px;line-height:1.6;font-family:Mangaka;-inkscape-font-specification:'Mangaka, Normal';font-variant-ligatures:normal;font-variant-caps:normal;font-variant-numeric:normal;font-variant-east-asian:normal;text-align:center;letter-spacing:1.5875px;word-spacing:0px;text-orientation:upright;text-anchor:middle;display:inline;fill:#002b36;stroke-width:1;stroke-linecap:round;stroke-linejoin:round;stroke-dashoffset:134.173;paint-order:fill markers stroke"
           x="23.040461"
           y="63.563988"
           id="text14"><tspan
             sodipodi:role="line"
             id="tspan14"
             style="font-style:normal;font-variant:normal;font-weight:normal;font-stretch:normal;font-size:10.5833px;font-family:Mangaka;-inkscape-font-specification:'Mangaka, Normal';font-variant-ligatures:normal;font-variant-caps:normal;font-variant-numeric:normal;font-variant-east-asian:normal;stroke-width:1"
             x="23.834209"
             y="63.563988">3/3</tspan></text>
        <text
           xml:space="preserve"
           style="font-size:12.7px;line-height:1.6;font-family:Rayhound;-inkscape-font-specification:'Rayhound, Normal';text-align:center;letter-spacing:1.5875px;word-spacing:0px;text-orientation:upright;text-anchor:middle;display:inline;fill:#002b36;stroke-width:1;stroke-linecap:round;stroke-linejoin:round;stroke-dashoffset:134.173;paint-order:fill markers stroke"
           x="23.148165"
           y="52.270237"
           id="text15"><tspan
             sodipodi:role="line"
             id="tspan15"
             style="font-style:normal;font-variant:normal;font-weight:normal;font-stretch:normal;font-size:7.05556px;font-family:Mangaka;-inkscape-font-specification:'Mangaka, Normal';font-variant-ligatures:normal;font-variant-caps:normal;font-variant-numeric:normal;font-variant-east-asian:normal;letter-spacing:1.5875px;stroke-width:1"
             x="23.941916"
             y="52.270237">ASSASSIN</tspan></text>
      </g>
    </g>
  </g>
</svg>
