<?xml version="1.0" encoding="UTF-8" standalone="no"?>
<!-- Created with Inkscape (http://www.inkscape.org/) -->

<svg
   width="4.875in"
   height="2in"
   viewBox="0 0 123.825 50.8"
   version="1.1"
   id="svg1"
   inkscape:version="1.3.1 (91b66b0783, 2023-11-16)"
   sodipodi:docname="mutant.svg"
   xml:space="preserve"
   xmlns:inkscape="http://www.inkscape.org/namespaces/inkscape"
   xmlns:sodipodi="http://sodipodi.sourceforge.net/DTD/sodipodi-0.dtd"
   xmlns="http://www.w3.org/2000/svg"
   xmlns:svg="http://www.w3.org/2000/svg"><sodipodi:namedview
     id="namedview1"
     pagecolor="#ffffff"
     bordercolor="#000000"
     borderopacity="0.25"
     inkscape:showpageshadow="2"
     inkscape:pageopacity="0.0"
     inkscape:pagecheckerboard="0"
     inkscape:deskcolor="#d1d1d1"
     inkscape:document-units="in"
     inkscape:zoom="2"
     inkscape:cx="310.75"
     inkscape:cy="70"
     inkscape:window-width="1620"
     inkscape:window-height="1010"
     inkscape:window-x="-6"
     inkscape:window-y="-6"
     inkscape:window-maximized="1"
     inkscape:current-layer="layer1" /><defs
     id="defs1" /><g
     inkscape:label="Layer 1"
     inkscape:groupmode="layer"
     id="layer1"><g
       id="g5"
       inkscape:label="token"><path
         id="rect1"
         style="fill:#fed1aa;stroke:#000000;stroke-width:0.0254;stroke-linecap:round;stroke-linejoin:round;paint-order:fill markers stroke"
         d="M 9.5249999,3.175 H 53.975002 c 3.5179,0 6.349999,2.8320999 6.349999,6.3499999 0,3.5179001 -2.832099,6.3500001 -6.349999,6.3500001 H 9.5249999 C 6.0070999,15.875 3.175,13.0429 3.175,9.5249999 3.175,6.0070999 6.0070999,3.175 9.5249999,3.175 Z" /><path
         style="font-size:6.35px;line-height:0.8;font-family:'Baxter\'s Slab';-inkscape-font-specification:'Baxter\'s Slab, Normal';letter-spacing:0.198437px;word-spacing:0px;text-orientation:upright;fill:#5b2d07;stroke-width:0.0254;stroke-linecap:round;stroke-linejoin:round;paint-order:fill markers stroke"
         d="M 7.7422061,11.820809 V 7.3931727 H 7.3453311 V 6.6552333 h 1.5875 V 7.765243 L 10.123456,8.8690516 11.314081,7.765243 V 6.6552333 h 1.190625 V 11.08287 h 0.396875 v 0.737939 h -1.5875 V 9.2411219 L 10.123456,10.34493 8.9328311,9.2411219 v 2.5796871 z m 6.5484369,0 -0.79375,-0.737939 V 7.3931727 H 13.100018 V 6.6552333 h 1.5875 V 11.08287 h 1.190625 V 6.6552333 h 1.190625 V 11.08287 l -0.79375,0.737939 z m 4.167188,0 V 11.08287 h 0.396875 V 7.3931727 H 17.664081 V 6.6552333 h 3.571874 V 7.3931727 H 20.04533 V 11.08287 h 0.396875 v 0.737939 z M 24.609392,8.8690516 V 7.3931727 h -1.190625 v 1.4758789 z m -2.38125,2.9517574 V 9.606991 H 21.831267 V 8.8690516 h 0.396875 V 7.3931727 l 0.79375,-0.7379394 h 1.984375 l 0.79375,0.7379394 V 11.08287 h 0.396875 v 0.737939 h -1.5875 V 9.606991 h -1.190625 v 2.213818 z m 4.564061,0 V 7.3931727 H 26.395328 V 6.6552333 h 1.5875 V 7.765243 l 1.190625,1.1038086 V 6.6552333 h 1.190625 V 11.08287 h 0.396875 v 0.737939 h -1.5875 V 10.34493 L 27.982828,9.2411219 v 2.5796871 z m 4.960938,0 V 11.08287 h 0.396875 V 7.3931727 H 30.959391 V 6.6552333 h 3.571874 V 7.3931727 H 33.340641 V 11.08287 h 0.396875 v 0.737939 z"
         id="text1"
         aria-label="MUTANT" /><path
         d="m 43.948947,11.820809 -0.79375,-0.737939 v -0.73794 h 1.190625 v 0.73794 h 1.190625 V 9.606991 H 44.345822 V 8.8690516 h 1.190625 V 7.3931727 H 44.345822 V 8.1311122 H 43.155197 V 7.3931727 l 0.79375,-0.7379394 h 1.984375 l 0.79375,0.7379394 v 1.4758789 l -0.396875,0.3720703 0.396875,0.3658691 v 1.475879 l -0.79375,0.737939 z m 3.770312,0 V 9.9790613 L 50.100509,7.765243 V 6.6552333 h 1.190625 v 1.4758789 l -2.38125,2.2138178 v 0.73794 h 0.396875 v 0.737939 z m 5.357812,0 -0.79375,-0.737939 v -0.73794 h 1.190625 v 0.73794 h 1.190625 V 9.606991 H 53.473946 V 8.8690516 h 1.190625 V 7.3931727 H 53.473946 V 8.1311122 H 52.283321 V 7.3931727 l 0.79375,-0.7379394 h 1.984375 l 0.79375,0.7379394 v 1.4758789 l -0.396875,0.3720703 0.396875,0.3658691 v 1.475879 l -0.79375,0.737939 z"
         id="text2"
         style="font-size:6.35px;line-height:0.8;font-family:'Baxter\'s Slab';-inkscape-font-specification:'Baxter\'s Slab, Normal';letter-spacing:0.198437px;word-spacing:0px;text-orientation:upright;fill:#5b2d07;stroke-width:0.0254;stroke-linecap:round;stroke-linejoin:round;paint-order:fill markers stroke"
         aria-label="3/3" /><path
         id="path1"
         mask="none"
         style="fill:#ac560e;stroke-width:0.422008"
         inkscape:label="DNA"
         d="M 39.370723 3.175 C 38.933345 4.2679884 38.985596 5.220798 39.571745 6.8657308 C 39.645965 7.0739928 39.786125 7.513186 39.883354 7.8418986 C 40.038308 8.3658595 40.063836 8.4718504 40.087476 8.7033447 C 40.134026 9.1591955 40.106392 9.6761041 40.017712 10.02006 C 40.011712 10.04345 40.008233 10.066213 40.004793 10.088273 L 37.517607 8.8061808 L 37.569283 8.7286662 C 37.607613 8.6714392 37.706958 8.5412913 37.790975 8.4397949 L 37.943937 8.2553101 L 38.870496 8.7591553 C 39.487652 9.0946796 39.810569 9.2569615 39.839429 9.2454305 C 39.876379 9.2309465 39.881151 9.1958896 39.869401 9.0092692 L 39.855448 8.7901611 L 39.112341 8.3757161 C 38.703614 8.1477355 38.36679 7.9520533 38.36355 7.9411174 C 38.350912 7.8977657 38.669419 7.7227488 39.130945 7.5189209 L 39.47821 7.3649251 L 39.399146 7.1323812 C 39.2783 6.7760372 39.301481 6.7962889 39.093221 6.8569458 C 38.994721 6.8856148 38.780591 6.9747522 38.617798 7.0548665 C 38.142768 7.2886376 37.727194 7.6003519 37.408569 7.9617879 C 37.275968 8.1122063 37.02127 8.4959429 36.978621 8.5622681 L 36.765198 8.8883464 C 36.698838 9.0100993 36.625549 9.4173782 36.595699 9.6454061 C 36.555119 9.9553865 36.552044 10.283121 36.586914 10.653097 C 36.615674 10.958227 36.624841 10.997455 36.814807 11.638566 C 36.923651 12.005879 37.055883 12.413135 37.108846 12.54342 C 37.161806 12.673708 37.284032 13.02646 37.380147 13.326835 C 37.634567 14.122276 37.690148 14.546339 37.611141 15.093136 C 37.573221 15.35553 37.448779 15.81009 37.411153 15.824874 C 37.377873 15.837904 34.919843 14.496238 34.90898 14.459066 C 34.89238 14.402406 35.215294 13.93051 35.423161 13.70769 L 35.512044 13.612606 L 36.421549 14.106632 C 36.921735 14.378511 37.346231 14.595482 37.364644 14.588257 C 37.406644 14.571777 37.407543 14.548887 37.374463 14.314372 L 37.347074 14.124202 L 36.641174 13.730945 C 36.10911 13.435182 35.93855 13.329986 35.950777 13.302547 C 35.961787 13.277857 36.125821 13.200265 36.460307 13.062769 L 36.953817 12.860197 L 36.873201 12.636955 C 36.828962 12.51413 36.776342 12.381532 36.756413 12.342399 L 36.720756 12.271602 L 36.24895 12.469006 C 35.877482 12.624574 35.732206 12.695584 35.565271 12.805937 C 34.980985 13.192177 34.614415 13.648879 34.293514 14.389819 C 34.074965 14.894453 33.965411 15.364824 33.95555 15.875 L 34.533293 15.875 C 34.535821 15.753229 34.542768 15.635836 34.553963 15.545821 C 34.573713 15.387268 34.695713 14.901112 34.71571 14.900899 C 34.72501 14.900812 35.292357 15.20531 35.976099 15.577344 L 36.522835 15.875 L 38.013184 15.875 C 38.194211 15.347167 38.254576 14.83623 38.204386 14.258561 C 38.183176 14.012846 38.165927 13.941886 37.980627 13.312882 C 37.849256 12.866654 37.714085 12.457349 37.58737 12.121741 C 37.349679 11.492152 37.193774 10.923512 37.159489 10.561629 C 37.118239 10.126297 37.14259 9.7520445 37.23752 9.3472331 L 37.26956 9.2097738 L 39.739176 10.564213 L 39.658561 10.677901 C 39.603101 10.756231 39.499243 10.888599 39.427568 10.97194 L 39.296826 11.123352 L 39.082369 11.011731 C 38.96417 10.950351 38.533518 10.71969 38.125321 10.499618 L 37.383248 10.099642 L 37.386865 10.278959 C 37.394265 10.64108 37.333302 10.581714 38.154777 11.032402 C 38.553054 11.250903 38.874741 11.439693 38.869462 11.451497 C 38.849502 11.496247 38.656766 11.594964 38.228158 11.780676 C 37.792639 11.969386 37.785049 11.973772 37.809578 12.017871 C 37.823318 12.042541 37.874985 12.173815 37.923783 12.309326 L 38.01215 12.555306 L 38.287585 12.447819 C 39.134448 12.11571 39.667994 11.706106 40.130884 11.034985 C 40.214484 10.913774 40.20553 10.919098 40.277128 10.803992 L 40.493652 10.452075 C 40.555512 10.347531 40.612808 10.040401 40.657467 9.7094849 C 40.75782 8.9668455 40.650093 8.2167794 40.292631 7.1685547 C 39.830442 5.8130161 39.697096 5.3234585 39.668896 4.8792887 C 39.655056 4.6615715 39.661463 4.3730556 39.683883 4.1930257 C 39.703633 4.0344732 39.825115 3.5483163 39.845113 3.5481038 C 39.854413 3.5479927 40.42176 3.8525147 41.105501 4.2245483 L 42.348319 4.9009928 L 42.298193 4.9945272 C 42.231303 5.1191347 41.932985 5.50933 41.833105 5.6027588 C 41.764996 5.6664207 41.742116 5.675942 41.675492 5.672522 C 41.629592 5.670162 41.253032 5.4828628 40.756169 5.2146688 C 40.29324 4.9647896 39.9118 4.7667018 39.908158 4.7749023 C 39.904558 4.7830523 39.917014 4.9043888 39.936064 5.0441366 L 39.970687 5.2983846 L 40.589771 5.6399658 C 40.93042 5.8280132 41.214249 5.9972466 41.219706 6.0161702 C 41.230956 6.0546502 40.95617 6.191422 40.539128 6.3551676 L 40.312268 6.4445679 L 40.384615 6.6450724 C 40.424575 6.7552784 40.475728 6.8881687 40.497786 6.9406616 L 40.537577 7.036263 L 40.657983 6.9918213 C 41.866876 6.5472856 42.511955 5.9746689 42.98394 4.9263143 C 43.251018 4.3331251 43.366352 3.7861935 43.349292 3.175 L 42.769482 3.175 C 42.778831 3.3628436 42.768406 3.5438159 42.740027 3.7403402 C 42.702117 4.0027368 42.578182 4.4572942 42.540556 4.4720785 C 42.509752 4.4841575 40.476781 3.375484 40.154655 3.175 L 39.370723 3.175 z M 42.364856 3.175 C 42.405366 3.1936315 42.489957 3.2370662 42.494047 3.2354614 C 42.515542 3.2270369 42.52516 3.2143507 42.526086 3.175 L 42.364856 3.175 z " /></g><g
       id="g8"
       inkscape:label="token"
       transform="translate(60.3377)"><path
         id="path5"
         style="fill:#fed1aa;stroke:#000000;stroke-width:0.0254;stroke-linecap:round;stroke-linejoin:round;paint-order:fill markers stroke"
         d="M 9.5249999,3.175 H 53.975002 c 3.5179,0 6.349999,2.8320999 6.349999,6.3499999 0,3.5179001 -2.832099,6.3500001 -6.349999,6.3500001 H 9.5249999 C 6.0070999,15.875 3.175,13.0429 3.175,9.5249999 3.175,6.0070999 6.0070999,3.175 9.5249999,3.175 Z" /><path
         style="font-size:6.35px;line-height:0.8;font-family:'Baxter\'s Slab';-inkscape-font-specification:'Baxter\'s Slab, Normal';letter-spacing:0.198437px;word-spacing:0px;text-orientation:upright;fill:#5b2d07;stroke-width:0.0254;stroke-linecap:round;stroke-linejoin:round;paint-order:fill markers stroke"
         d="M 7.7422061,11.820809 V 7.3931727 H 7.3453311 V 6.6552333 h 1.5875 V 7.765243 L 10.123456,8.8690516 11.314081,7.765243 V 6.6552333 h 1.190625 V 11.08287 h 0.396875 v 0.737939 h -1.5875 V 9.2411219 L 10.123456,10.34493 8.9328311,9.2411219 v 2.5796871 z m 6.5484369,0 -0.79375,-0.737939 V 7.3931727 H 13.100018 V 6.6552333 h 1.5875 V 11.08287 h 1.190625 V 6.6552333 h 1.190625 V 11.08287 l -0.79375,0.737939 z m 4.167188,0 V 11.08287 h 0.396875 V 7.3931727 H 17.664081 V 6.6552333 h 3.571874 V 7.3931727 H 20.04533 V 11.08287 h 0.396875 v 0.737939 z M 24.609392,8.8690516 V 7.3931727 h -1.190625 v 1.4758789 z m -2.38125,2.9517574 V 9.606991 H 21.831267 V 8.8690516 h 0.396875 V 7.3931727 l 0.79375,-0.7379394 h 1.984375 l 0.79375,0.7379394 V 11.08287 h 0.396875 v 0.737939 h -1.5875 V 9.606991 h -1.190625 v 2.213818 z m 4.564061,0 V 7.3931727 H 26.395328 V 6.6552333 h 1.5875 V 7.765243 l 1.190625,1.1038086 V 6.6552333 h 1.190625 V 11.08287 h 0.396875 v 0.737939 h -1.5875 V 10.34493 L 27.982828,9.2411219 v 2.5796871 z m 4.960938,0 V 11.08287 h 0.396875 V 7.3931727 H 30.959391 V 6.6552333 h 3.571874 V 7.3931727 H 33.340641 V 11.08287 h 0.396875 v 0.737939 z"
         id="path6"
         aria-label="MUTANT" /><path
         d="m 43.948947,11.820809 -0.79375,-0.737939 v -0.73794 h 1.190625 v 0.73794 h 1.190625 V 9.606991 H 44.345822 V 8.8690516 h 1.190625 V 7.3931727 H 44.345822 V 8.1311122 H 43.155197 V 7.3931727 l 0.79375,-0.7379394 h 1.984375 l 0.79375,0.7379394 v 1.4758789 l -0.396875,0.3720703 0.396875,0.3658691 v 1.475879 l -0.79375,0.737939 z m 3.770312,0 V 9.9790613 L 50.100509,7.765243 V 6.6552333 h 1.190625 v 1.4758789 l -2.38125,2.2138178 v 0.73794 h 0.396875 v 0.737939 z m 5.357812,0 -0.79375,-0.737939 v -0.73794 h 1.190625 v 0.73794 h 1.190625 V 9.606991 H 53.473946 V 8.8690516 h 1.190625 V 7.3931727 H 53.473946 V 8.1311122 H 52.283321 V 7.3931727 l 0.79375,-0.7379394 h 1.984375 l 0.79375,0.7379394 v 1.4758789 l -0.396875,0.3720703 0.396875,0.3658691 v 1.475879 l -0.79375,0.737939 z"
         id="path7"
         style="font-size:6.35px;line-height:0.8;font-family:'Baxter\'s Slab';-inkscape-font-specification:'Baxter\'s Slab, Normal';letter-spacing:0.198437px;word-spacing:0px;text-orientation:upright;fill:#5b2d07;stroke-width:0.0254;stroke-linecap:round;stroke-linejoin:round;paint-order:fill markers stroke"
         aria-label="3/3" /><path
         id="path8"
         mask="none"
         style="fill:#ac560e;stroke-width:0.422008"
         inkscape:label="DNA"
         d="M 39.370426 3.175 C 38.933072 4.267965 38.985825 5.220826 39.571964 6.8657308 C 39.646184 7.0739928 39.786344 7.513186 39.883573 7.8418986 C 40.038527 8.3658595 40.064055 8.4718504 40.087695 8.7033447 C 40.134245 9.1591955 40.106611 9.6761041 40.017932 10.02006 C 40.011932 10.04345 40.008452 10.066213 40.005012 10.088273 L 37.517309 8.8061808 L 37.568985 8.7286662 C 37.607315 8.6714392 37.707177 8.5412913 37.791194 8.4397949 L 37.944156 8.2553101 L 38.870198 8.7591553 C 39.487354 9.0946796 39.810788 9.2569615 39.839648 9.2454305 C 39.876598 9.2309465 39.880853 9.1958896 39.869103 9.0092692 L 39.855668 8.7901611 L 39.11256 8.3757161 C 38.703833 8.1477355 38.367009 7.9520533 38.363769 7.9411174 C 38.351131 7.8977657 38.669122 7.7227488 39.130647 7.5189209 L 39.47843 7.3649251 L 39.399365 7.1323812 C 39.278519 6.7760372 39.301183 6.7962889 39.092923 6.8569458 C 38.994423 6.8856148 38.78081 6.9747522 38.618017 7.0548665 C 38.142987 7.2886376 37.726896 7.6003519 37.408272 7.9617879 C 37.275671 8.1122063 37.021489 8.4959429 36.978841 8.5622681 L 36.7649 8.8883464 C 36.69854 9.0100993 36.625251 9.4173782 36.595401 9.6454061 C 36.554821 9.9553865 36.552263 10.283121 36.587133 10.653097 C 36.615893 10.958227 36.62506 10.997455 36.815026 11.638566 C 36.92387 12.005879 37.056102 12.413135 37.109065 12.54342 C 37.162025 12.673708 37.284252 13.02646 37.380366 13.326835 C 37.634786 14.122276 37.68985 14.546339 37.610843 15.093136 C 37.572923 15.35553 37.448998 15.81009 37.411372 15.824874 C 37.378092 15.837904 34.920062 14.496238 34.909199 14.459066 C 34.892599 14.402406 35.215513 13.93051 35.42338 13.70769 L 35.512263 13.612606 L 36.421769 14.106632 C 36.921954 14.378511 37.345934 14.595482 37.364347 14.588257 C 37.406347 14.571777 37.407245 14.548887 37.374165 14.314372 L 37.347293 14.124202 L 36.640877 13.730945 C 36.108812 13.435182 35.938769 13.329986 35.950996 13.302547 C 35.962006 13.277857 36.12604 13.200265 36.460526 13.062769 L 36.953519 12.860197 L 36.873421 12.636955 C 36.829181 12.51413 36.776561 12.381532 36.756632 12.342399 L 36.720975 12.271602 L 36.249169 12.469006 C 35.877701 12.624574 35.732425 12.695584 35.56549 12.805937 C 34.981204 13.192177 34.614634 13.648879 34.293733 14.389819 C 34.075184 14.894451 33.965631 15.364826 33.955769 15.875 L 34.532995 15.875 C 34.535524 15.753229 34.542987 15.635836 34.554182 15.545821 C 34.573932 15.387268 34.695416 14.901112 34.715413 14.900899 C 34.724713 14.900812 35.29206 15.20531 35.975801 15.577344 L 36.523054 15.875 L 38.013403 15.875 C 38.194414 15.347189 38.254277 14.836207 38.204089 14.258561 C 38.182879 14.012846 38.166146 13.941886 37.980847 13.312882 C 37.849475 12.866654 37.713787 12.457349 37.587072 12.121741 C 37.349381 11.492152 37.193993 10.923512 37.159708 10.561629 C 37.118458 10.126297 37.142293 9.7520445 37.237223 9.3472331 L 37.269262 9.2097738 L 39.738879 10.564213 L 39.658264 10.677901 C 39.602804 10.756231 39.498946 10.888599 39.42727 10.97194 L 39.297045 11.123352 L 39.082071 11.011731 C 38.963872 10.950351 38.53322 10.71969 38.125024 10.499618 L 37.38295 10.099642 L 37.386568 10.278959 C 37.393968 10.64108 37.333521 10.581714 38.154996 11.032402 C 38.553273 11.250903 38.87496 11.439693 38.869681 11.451497 C 38.849721 11.496247 38.656468 11.594964 38.22786 11.780676 C 37.792341 11.969386 37.785269 11.973772 37.809798 12.017871 C 37.823538 12.042541 37.874688 12.173815 37.923486 12.309326 L 38.012369 12.555306 L 38.287805 12.447819 C 39.134667 12.11571 39.668213 11.706106 40.131103 11.034985 C 40.214703 10.913774 40.205749 10.919098 40.277347 10.803992 L 40.493355 10.452075 C 40.555215 10.347531 40.61251 10.040401 40.657169 9.7094849 C 40.757522 8.9668455 40.650312 8.2167794 40.29285 7.1685547 C 39.830662 5.8130161 39.697316 5.3234585 39.669116 4.8792887 C 39.655276 4.6615715 39.661165 4.3730556 39.683585 4.1930257 C 39.703335 4.0344732 39.825334 3.5483163 39.845332 3.5481038 C 39.854632 3.5479927 40.421462 3.8525147 41.105204 4.2245483 L 42.348539 4.9009928 L 42.298412 4.9945272 C 42.231523 5.1191347 41.932688 5.50933 41.832808 5.6027588 C 41.764698 5.6664207 41.742335 5.675942 41.675711 5.672522 C 41.629812 5.670162 41.253251 5.4828628 40.756388 5.2146688 C 40.293459 4.9647896 39.911503 4.7667018 39.907861 4.7749023 C 39.904261 4.7830523 39.917233 4.9043888 39.936283 5.0441366 L 39.970906 5.2983846 L 40.58999 5.6399658 C 40.930639 5.8280132 41.214468 5.9972466 41.219925 6.0161702 C 41.231175 6.0546502 40.955873 6.191422 40.53883 6.3551676 L 40.31197 6.4445679 L 40.384834 6.6450724 C 40.424794 6.7552784 40.475431 6.8881687 40.497489 6.9406616 L 40.53728 7.036263 L 40.658203 6.9918213 C 41.867095 6.5472856 42.511657 5.9746689 42.983642 4.9263143 C 43.250721 4.3331251 43.366054 3.7861934 43.348994 3.175 L 42.769185 3.175 C 42.778533 3.3628442 42.768626 3.5438154 42.740246 3.7403402 C 42.702336 4.0027368 42.577884 4.4572942 42.540258 4.4720785 C 42.509454 4.4841575 40.477 3.375484 40.154874 3.175 L 39.370426 3.175 z M 42.364558 3.175 C 42.405068 3.1936315 42.48966 3.2370662 42.493749 3.2354614 C 42.515244 3.2270369 42.525379 3.2143501 42.526306 3.175 L 42.364558 3.175 z " /></g><g
       id="g12"
       inkscape:label="token"
       transform="translate(0,31.7627)"><path
         id="path9"
         style="fill:#fed1aa;stroke:#000000;stroke-width:0.0254;stroke-linecap:round;stroke-linejoin:round;paint-order:fill markers stroke"
         d="M 9.5249999,3.175 H 53.975002 c 3.5179,0 6.349999,2.8320999 6.349999,6.3499999 0,3.5179001 -2.832099,6.3500001 -6.349999,6.3500001 H 9.5249999 C 6.0070999,15.875 3.175,13.0429 3.175,9.5249999 3.175,6.0070999 6.0070999,3.175 9.5249999,3.175 Z" /><path
         style="font-size:6.35px;line-height:0.8;font-family:'Baxter\'s Slab';-inkscape-font-specification:'Baxter\'s Slab, Normal';letter-spacing:0.198437px;word-spacing:0px;text-orientation:upright;fill:#5b2d07;stroke-width:0.0254;stroke-linecap:round;stroke-linejoin:round;paint-order:fill markers stroke"
         d="M 7.7422061,11.820809 V 7.3931727 H 7.3453311 V 6.6552333 h 1.5875 V 7.765243 L 10.123456,8.8690516 11.314081,7.765243 V 6.6552333 h 1.190625 V 11.08287 h 0.396875 v 0.737939 h -1.5875 V 9.2411219 L 10.123456,10.34493 8.9328311,9.2411219 v 2.5796871 z m 6.5484369,0 -0.79375,-0.737939 V 7.3931727 H 13.100018 V 6.6552333 h 1.5875 V 11.08287 h 1.190625 V 6.6552333 h 1.190625 V 11.08287 l -0.79375,0.737939 z m 4.167188,0 V 11.08287 h 0.396875 V 7.3931727 H 17.664081 V 6.6552333 h 3.571874 V 7.3931727 H 20.04533 V 11.08287 h 0.396875 v 0.737939 z M 24.609392,8.8690516 V 7.3931727 h -1.190625 v 1.4758789 z m -2.38125,2.9517574 V 9.606991 H 21.831267 V 8.8690516 h 0.396875 V 7.3931727 l 0.79375,-0.7379394 h 1.984375 l 0.79375,0.7379394 V 11.08287 h 0.396875 v 0.737939 h -1.5875 V 9.606991 h -1.190625 v 2.213818 z m 4.564061,0 V 7.3931727 H 26.395328 V 6.6552333 h 1.5875 V 7.765243 l 1.190625,1.1038086 V 6.6552333 h 1.190625 V 11.08287 h 0.396875 v 0.737939 h -1.5875 V 10.34493 L 27.982828,9.2411219 v 2.5796871 z m 4.960938,0 V 11.08287 h 0.396875 V 7.3931727 H 30.959391 V 6.6552333 h 3.571874 V 7.3931727 H 33.340641 V 11.08287 h 0.396875 v 0.737939 z"
         id="path10"
         aria-label="MUTANT" /><path
         d="m 43.948947,11.820809 -0.79375,-0.737939 v -0.73794 h 1.190625 v 0.73794 h 1.190625 V 9.606991 H 44.345822 V 8.8690516 h 1.190625 V 7.3931727 H 44.345822 V 8.1311122 H 43.155197 V 7.3931727 l 0.79375,-0.7379394 h 1.984375 l 0.79375,0.7379394 v 1.4758789 l -0.396875,0.3720703 0.396875,0.3658691 v 1.475879 l -0.79375,0.737939 z m 3.770312,0 V 9.9790613 L 50.100509,7.765243 V 6.6552333 h 1.190625 v 1.4758789 l -2.38125,2.2138178 v 0.73794 h 0.396875 v 0.737939 z m 5.357812,0 -0.79375,-0.737939 v -0.73794 h 1.190625 v 0.73794 h 1.190625 V 9.606991 H 53.473946 V 8.8690516 h 1.190625 V 7.3931727 H 53.473946 V 8.1311122 H 52.283321 V 7.3931727 l 0.79375,-0.7379394 h 1.984375 l 0.79375,0.7379394 v 1.4758789 l -0.396875,0.3720703 0.396875,0.3658691 v 1.475879 l -0.79375,0.737939 z"
         id="path11"
         style="font-size:6.35px;line-height:0.8;font-family:'Baxter\'s Slab';-inkscape-font-specification:'Baxter\'s Slab, Normal';letter-spacing:0.198437px;word-spacing:0px;text-orientation:upright;fill:#5b2d07;stroke-width:0.0254;stroke-linecap:round;stroke-linejoin:round;paint-order:fill markers stroke"
         aria-label="3/3" /><path
         id="path12"
         mask="none"
         style="fill:#ac560e;stroke-width:0.422008"
         inkscape:label="DNA"
         d="M 39.370723 3.1752191 C 38.933345 4.2682076 38.985596 5.2205003 39.571745 6.8654331 C 39.645965 7.0736951 39.786125 7.5128884 39.883354 7.8416009 C 40.038308 8.3655618 40.063836 8.4720695 40.087476 8.7035638 C 40.134026 9.1594146 40.106392 9.6758064 40.017712 10.019763 C 40.011712 10.043153 40.008233 10.066432 40.004793 10.088492 L 37.517607 8.8058832 L 37.569283 8.7288853 C 37.607613 8.6716583 37.706958 8.5415104 37.790975 8.440014 L 37.943937 8.2550124 L 38.870496 8.7588576 C 39.487652 9.094382 39.810569 9.2566638 39.839429 9.2451328 C 39.876379 9.2306489 39.881151 9.1961087 39.869401 9.0094883 L 39.855448 8.7898635 L 39.112341 8.3754185 C 38.703614 8.1474378 38.36679 7.9517557 38.36355 7.9408197 C 38.350912 7.897468 38.669419 7.7224511 39.130945 7.5186232 L 39.47821 7.3651442 L 39.399146 7.1320835 C 39.2783 6.7757396 39.301481 6.7959912 39.093221 6.8566481 C 38.994721 6.8853171 38.780591 6.9749713 38.617798 7.0550856 C 38.142768 7.2888567 37.727194 7.600571 37.408569 7.962007 C 37.275968 8.1124254 37.02127 8.4956453 36.978621 8.5619704 L 36.765198 8.8885655 C 36.698838 9.0103184 36.625549 9.4175973 36.595699 9.6456252 C 36.555119 9.9556056 36.552044 10.28334 36.586914 10.653316 C 36.615674 10.958446 36.624841 10.997674 36.814807 11.638785 C 36.923651 12.006098 37.055883 12.412837 37.108846 12.543123 C 37.161806 12.673411 37.284032 13.026163 37.380147 13.326537 C 37.634567 14.121979 37.690148 14.546041 37.611141 15.092838 C 37.573221 15.355233 37.448779 15.810309 37.411153 15.825093 C 37.377873 15.838123 34.919843 14.49594 34.90898 14.458768 C 34.89238 14.402108 35.215294 13.930729 35.423161 13.70791 L 35.512044 13.612825 L 36.421549 14.106852 C 36.921735 14.37873 37.346231 14.595184 37.364644 14.587959 C 37.406644 14.571479 37.407543 14.549106 37.374463 14.314591 L 37.347074 14.124422 L 36.641174 13.731164 C 36.10911 13.435401 35.93855 13.329689 35.950777 13.30225 C 35.961787 13.27756 36.125821 13.200485 36.460307 13.062988 L 36.953817 12.860416 L 36.873201 12.636657 C 36.828962 12.513832 36.776342 12.381234 36.756413 12.342101 L 36.720756 12.271305 L 36.24895 12.468709 C 35.877482 12.624277 35.732206 12.695803 35.565271 12.806156 C 34.980985 13.192396 34.614415 13.649098 34.293514 14.390038 C 34.074965 14.894672 33.965411 15.365043 33.95555 15.875219 L 34.533293 15.875219 C 34.535812 15.753258 34.542752 15.636185 34.553963 15.54604 C 34.573713 15.387487 34.695713 14.900815 34.71571 14.900602 C 34.72501 14.900515 35.292357 15.205012 35.976099 15.577046 L 36.523869 15.875219 L 38.013184 15.875219 C 38.194287 15.347286 38.254585 14.836552 38.204386 14.25878 C 38.183176 14.013066 38.165927 13.942105 37.980627 13.313102 C 37.849256 12.866873 37.714085 12.457052 37.58737 12.121443 C 37.349679 11.491855 37.193774 10.923731 37.159489 10.561848 C 37.118239 10.126516 37.14259 9.7517468 37.23752 9.3469354 L 37.26956 9.2094761 L 39.739176 10.564432 L 39.658561 10.677604 C 39.603101 10.755933 39.499243 10.888302 39.427568 10.971642 L 39.296826 11.123054 L 39.082369 11.011433 C 38.96417 10.950053 38.533518 10.719909 38.125321 10.499837 L 37.383248 10.099344 L 37.386865 10.278661 C 37.394265 10.640782 37.333302 10.581933 38.154777 11.032621 C 38.553054 11.251122 38.874741 11.439913 38.869462 11.451717 C 38.849502 11.496466 38.656766 11.595184 38.228158 11.780895 C 37.792639 11.969605 37.785049 11.973991 37.809578 12.01809 C 37.823318 12.04276 37.874985 12.173518 37.923783 12.309029 L 38.01215 12.555525 L 38.287585 12.447521 C 39.134448 12.115413 39.667994 11.706325 40.130884 11.035204 C 40.214484 10.913994 40.20553 10.919317 40.277128 10.804211 L 40.493652 10.452294 C 40.555512 10.34775 40.612808 10.040104 40.657467 9.7091872 C 40.75782 8.9665478 40.650093 8.2164818 40.292631 7.168257 C 39.830442 5.8127185 39.697096 5.3231608 39.668896 4.8789911 C 39.655056 4.6612738 39.661463 4.3732747 39.683883 4.1932448 C 39.703633 4.0346923 39.825115 3.5480187 39.845113 3.5478062 C 39.854413 3.5476951 40.42176 3.8522171 41.105501 4.2242507 L 42.348319 4.9006952 L 42.298193 4.9942295 C 42.231303 5.118837 41.932985 5.5095491 41.833105 5.6029779 C 41.764996 5.6666398 41.742116 5.6761611 41.675492 5.6727411 C 41.629592 5.6703811 41.253032 5.4825652 40.756169 5.2143711 C 40.29324 4.964492 39.9118 4.7669209 39.908158 4.7751215 C 39.904558 4.7832714 39.917014 4.9040911 39.936064 5.0438389 L 39.970687 5.2980869 L 40.589771 5.6401849 C 40.93042 5.8282323 41.214249 5.9974657 41.219706 6.0163894 C 41.230956 6.0548693 40.95617 6.1916411 40.539128 6.3553868 L 40.312268 6.444787 L 40.384615 6.6447748 C 40.424575 6.7549808 40.475728 6.8883878 40.497786 6.9408807 L 40.537577 7.0364821 L 40.657983 6.9920404 C 41.866876 6.5475047 42.511955 5.9743713 42.98394 4.9260166 C 43.251018 4.3328274 43.366352 3.7864126 43.349292 3.1752191 L 42.769482 3.1752191 C 42.778825 3.3630394 42.768403 3.5435409 42.740027 3.7400425 C 42.702117 4.0024392 42.578182 4.4575133 42.540556 4.4722976 C 42.509773 4.4843683 40.48004 3.3768647 40.155688 3.1752191 L 39.370723 3.1752191 z M 42.365889 3.1752191 C 42.405807 3.1935519 42.48999 3.2367555 42.494047 3.2351638 C 42.515494 3.226758 42.525119 3.2143522 42.526086 3.1752191 L 42.365889 3.1752191 z " /></g><g
       id="g16"
       inkscape:label="token"
       transform="translate(60.3377,31.7627)"><path
         id="path13"
         style="fill:#fed1aa;stroke:#000000;stroke-width:0.0254;stroke-linecap:round;stroke-linejoin:round;paint-order:fill markers stroke"
         d="M 9.5249999,3.175 H 53.975002 c 3.5179,0 6.349999,2.8320999 6.349999,6.3499999 0,3.5179001 -2.832099,6.3500001 -6.349999,6.3500001 H 9.5249999 C 6.0070999,15.875 3.175,13.0429 3.175,9.5249999 3.175,6.0070999 6.0070999,3.175 9.5249999,3.175 Z" /><path
         style="font-size:6.35px;line-height:0.8;font-family:'Baxter\'s Slab';-inkscape-font-specification:'Baxter\'s Slab, Normal';letter-spacing:0.198437px;word-spacing:0px;text-orientation:upright;fill:#5b2d07;stroke-width:0.0254;stroke-linecap:round;stroke-linejoin:round;paint-order:fill markers stroke"
         d="M 7.7422061,11.820809 V 7.3931727 H 7.3453311 V 6.6552333 h 1.5875 V 7.765243 L 10.123456,8.8690516 11.314081,7.765243 V 6.6552333 h 1.190625 V 11.08287 h 0.396875 v 0.737939 h -1.5875 V 9.2411219 L 10.123456,10.34493 8.9328311,9.2411219 v 2.5796871 z m 6.5484369,0 -0.79375,-0.737939 V 7.3931727 H 13.100018 V 6.6552333 h 1.5875 V 11.08287 h 1.190625 V 6.6552333 h 1.190625 V 11.08287 l -0.79375,0.737939 z m 4.167188,0 V 11.08287 h 0.396875 V 7.3931727 H 17.664081 V 6.6552333 h 3.571874 V 7.3931727 H 20.04533 V 11.08287 h 0.396875 v 0.737939 z M 24.609392,8.8690516 V 7.3931727 h -1.190625 v 1.4758789 z m -2.38125,2.9517574 V 9.606991 H 21.831267 V 8.8690516 h 0.396875 V 7.3931727 l 0.79375,-0.7379394 h 1.984375 l 0.79375,0.7379394 V 11.08287 h 0.396875 v 0.737939 h -1.5875 V 9.606991 h -1.190625 v 2.213818 z m 4.564061,0 V 7.3931727 H 26.395328 V 6.6552333 h 1.5875 V 7.765243 l 1.190625,1.1038086 V 6.6552333 h 1.190625 V 11.08287 h 0.396875 v 0.737939 h -1.5875 V 10.34493 L 27.982828,9.2411219 v 2.5796871 z m 4.960938,0 V 11.08287 h 0.396875 V 7.3931727 H 30.959391 V 6.6552333 h 3.571874 V 7.3931727 H 33.340641 V 11.08287 h 0.396875 v 0.737939 z"
         id="path14"
         aria-label="MUTANT" /><path
         d="m 43.948947,11.820809 -0.79375,-0.737939 v -0.73794 h 1.190625 v 0.73794 h 1.190625 V 9.606991 H 44.345822 V 8.8690516 h 1.190625 V 7.3931727 H 44.345822 V 8.1311122 H 43.155197 V 7.3931727 l 0.79375,-0.7379394 h 1.984375 l 0.79375,0.7379394 v 1.4758789 l -0.396875,0.3720703 0.396875,0.3658691 v 1.475879 l -0.79375,0.737939 z m 3.770312,0 V 9.9790613 L 50.100509,7.765243 V 6.6552333 h 1.190625 v 1.4758789 l -2.38125,2.2138178 v 0.73794 h 0.396875 v 0.737939 z m 5.357812,0 -0.79375,-0.737939 v -0.73794 h 1.190625 v 0.73794 h 1.190625 V 9.606991 H 53.473946 V 8.8690516 h 1.190625 V 7.3931727 H 53.473946 V 8.1311122 H 52.283321 V 7.3931727 l 0.79375,-0.7379394 h 1.984375 l 0.79375,0.7379394 v 1.4758789 l -0.396875,0.3720703 0.396875,0.3658691 v 1.475879 l -0.79375,0.737939 z"
         id="path15"
         style="font-size:6.35px;line-height:0.8;font-family:'Baxter\'s Slab';-inkscape-font-specification:'Baxter\'s Slab, Normal';letter-spacing:0.198437px;word-spacing:0px;text-orientation:upright;fill:#5b2d07;stroke-width:0.0254;stroke-linecap:round;stroke-linejoin:round;paint-order:fill markers stroke"
         aria-label="3/3" /><path
         id="path16"
         mask="none"
         style="fill:#ac560e;stroke-width:0.422008"
         inkscape:label="DNA"
         d="M 39.370426 3.1752191 C 38.933072 4.2681841 38.985825 5.2205284 39.571964 6.8654331 C 39.646184 7.0736951 39.786344 7.5128884 39.883573 7.8416009 C 40.038527 8.3655618 40.064055 8.4720695 40.087695 8.7035638 C 40.134245 9.1594146 40.106611 9.6758064 40.017932 10.019763 C 40.011932 10.043153 40.008452 10.066432 40.005012 10.088492 L 37.517309 8.8058832 L 37.568985 8.7288853 C 37.607315 8.6716583 37.707177 8.5415104 37.791194 8.440014 L 37.944156 8.2550124 L 38.870198 8.7588576 C 39.487354 9.094382 39.810788 9.2566638 39.839648 9.2451328 C 39.876598 9.2306489 39.880853 9.1961087 39.869103 9.0094883 L 39.855668 8.7898635 L 39.11256 8.3754185 C 38.703833 8.1474378 38.367009 7.9517557 38.363769 7.9408197 C 38.351131 7.897468 38.669122 7.7224511 39.130647 7.5186232 L 39.47843 7.3651442 L 39.399365 7.1320835 C 39.278519 6.7757396 39.301183 6.7959912 39.092923 6.8566481 C 38.994423 6.8853171 38.78081 6.9749713 38.618017 7.0550856 C 38.142987 7.2888567 37.726896 7.600571 37.408272 7.962007 C 37.275671 8.1124254 37.021489 8.4956453 36.978841 8.5619704 L 36.7649 8.8885655 C 36.69854 9.0103184 36.625251 9.4175973 36.595401 9.6456252 C 36.554821 9.9556056 36.552263 10.28334 36.587133 10.653316 C 36.615893 10.958446 36.62506 10.997674 36.815026 11.638785 C 36.92387 12.006098 37.056102 12.412837 37.109065 12.543123 C 37.162025 12.673411 37.284252 13.026163 37.380366 13.326537 C 37.634786 14.121979 37.68985 14.546041 37.610843 15.092838 C 37.572923 15.355233 37.448998 15.810309 37.411372 15.825093 C 37.378092 15.838123 34.920062 14.49594 34.909199 14.458768 C 34.892599 14.402108 35.215513 13.930729 35.42338 13.70791 L 35.512263 13.612825 L 36.421769 14.106852 C 36.921954 14.37873 37.345934 14.595184 37.364347 14.587959 C 37.406347 14.571479 37.407245 14.549106 37.374165 14.314591 L 37.347293 14.124422 L 36.640877 13.731164 C 36.108812 13.435401 35.938769 13.329689 35.950996 13.30225 C 35.962006 13.27756 36.12604 13.200485 36.460526 13.062988 L 36.953519 12.860416 L 36.873421 12.636657 C 36.829181 12.513832 36.776561 12.381234 36.756632 12.342101 L 36.720975 12.271305 L 36.249169 12.468709 C 35.877701 12.624277 35.732425 12.695803 35.56549 12.806156 C 34.981204 13.192396 34.614634 13.649098 34.293733 14.390038 C 34.075184 14.89467 33.965631 15.365045 33.955769 15.875219 L 34.532995 15.875219 C 34.535514 15.753258 34.542971 15.636185 34.554182 15.54604 C 34.573932 15.387487 34.695416 14.900815 34.715413 14.900602 C 34.724713 14.900515 35.29206 15.205012 35.975801 15.577046 L 36.524088 15.875219 L 38.012886 15.875219 C 38.194016 15.347251 38.254291 14.836587 38.204089 14.25878 C 38.182879 14.013066 38.166146 13.942105 37.980847 13.313102 C 37.849475 12.866873 37.713787 12.457052 37.587072 12.121443 C 37.349381 11.491855 37.193993 10.923731 37.159708 10.561848 C 37.118458 10.126516 37.142293 9.7517468 37.237223 9.3469354 L 37.269262 9.2094761 L 39.738879 10.564432 L 39.658264 10.677604 C 39.602804 10.755933 39.498946 10.888302 39.42727 10.971642 L 39.297045 11.123054 L 39.082071 11.011433 C 38.963872 10.950053 38.53322 10.719909 38.125024 10.499837 L 37.38295 10.099344 L 37.386568 10.278661 C 37.393968 10.640782 37.333521 10.581933 38.154996 11.032621 C 38.553273 11.251122 38.87496 11.439913 38.869681 11.451717 C 38.849721 11.496466 38.656468 11.595184 38.22786 11.780895 C 37.792341 11.969605 37.785269 11.973991 37.809798 12.01809 C 37.823538 12.04276 37.874688 12.173518 37.923486 12.309029 L 38.012369 12.555525 L 38.287805 12.447521 C 39.134667 12.115413 39.668213 11.706325 40.131103 11.035204 C 40.214703 10.913994 40.205749 10.919317 40.277347 10.804211 L 40.493355 10.452294 C 40.555215 10.34775 40.61251 10.040104 40.657169 9.7091872 C 40.757522 8.9665478 40.650312 8.2164818 40.29285 7.168257 C 39.830662 5.8127185 39.697316 5.3231608 39.669116 4.8789911 C 39.655276 4.6612738 39.661165 4.3732747 39.683585 4.1932448 C 39.703335 4.0346923 39.825334 3.5480187 39.845332 3.5478062 C 39.854632 3.5476951 40.421462 3.8522171 41.105204 4.2242507 L 42.348539 4.9006952 L 42.298412 4.9942295 C 42.231523 5.118837 41.932688 5.5095491 41.832808 5.6029779 C 41.764698 5.6666398 41.742335 5.6761611 41.675711 5.6727411 C 41.629812 5.6703811 41.253251 5.4825652 40.756388 5.2143711 C 40.293459 4.964492 39.911503 4.7669209 39.907861 4.7751215 C 39.904261 4.7832714 39.917233 4.9040911 39.936283 5.0438389 L 39.970906 5.2980869 L 40.58999 5.6401849 C 40.930639 5.8282323 41.214468 5.9974657 41.219925 6.0163894 C 41.231175 6.0548693 40.955873 6.1916411 40.53883 6.3553868 L 40.31197 6.444787 L 40.384834 6.6447748 C 40.424794 6.7549808 40.475431 6.8883878 40.497489 6.9408807 L 40.53728 7.0364821 L 40.658203 6.9920404 C 41.867095 6.5475047 42.511657 5.9743713 42.983642 4.9260166 C 43.250721 4.3328274 43.366054 3.7864125 43.348994 3.1752191 L 42.769185 3.1752191 C 42.778528 3.36304 42.768622 3.5435404 42.740246 3.7400425 C 42.702336 4.0024392 42.577884 4.4575133 42.540258 4.4722976 C 42.509475 4.4843683 40.480259 3.3768647 40.155908 3.1752191 L 39.370426 3.1752191 z M 42.365592 3.1752191 C 42.40551 3.1935519 42.489693 3.2367555 42.493749 3.2351638 C 42.515196 3.2267581 42.525338 3.2143517 42.526306 3.1752191 L 42.365592 3.1752191 z " /></g><g
       id="g20"
       inkscape:label="token"
       transform="translate(0,15.8877)"><path
         id="path17"
         style="fill:#fed1aa;stroke:#000000;stroke-width:0.0254;stroke-linecap:round;stroke-linejoin:round;paint-order:fill markers stroke"
         d="M 9.5249999,3.175 H 53.975002 c 3.5179,0 6.349999,2.8320999 6.349999,6.3499999 0,3.5179001 -2.832099,6.3500001 -6.349999,6.3500001 H 9.5249999 C 6.0070999,15.875 3.175,13.0429 3.175,9.5249999 3.175,6.0070999 6.0070999,3.175 9.5249999,3.175 Z" /><path
         style="font-size:6.35px;line-height:0.8;font-family:'Baxter\'s Slab';-inkscape-font-specification:'Baxter\'s Slab, Normal';letter-spacing:0.198437px;word-spacing:0px;text-orientation:upright;fill:#5b2d07;stroke-width:0.0254;stroke-linecap:round;stroke-linejoin:round;paint-order:fill markers stroke"
         d="M 7.7422061,11.820809 V 7.3931727 H 7.3453311 V 6.6552333 h 1.5875 V 7.765243 L 10.123456,8.8690516 11.314081,7.765243 V 6.6552333 h 1.190625 V 11.08287 h 0.396875 v 0.737939 h -1.5875 V 9.2411219 L 10.123456,10.34493 8.9328311,9.2411219 v 2.5796871 z m 6.5484369,0 -0.79375,-0.737939 V 7.3931727 H 13.100018 V 6.6552333 h 1.5875 V 11.08287 h 1.190625 V 6.6552333 h 1.190625 V 11.08287 l -0.79375,0.737939 z m 4.167188,0 V 11.08287 h 0.396875 V 7.3931727 H 17.664081 V 6.6552333 h 3.571874 V 7.3931727 H 20.04533 V 11.08287 h 0.396875 v 0.737939 z M 24.609392,8.8690516 V 7.3931727 h -1.190625 v 1.4758789 z m -2.38125,2.9517574 V 9.606991 H 21.831267 V 8.8690516 h 0.396875 V 7.3931727 l 0.79375,-0.7379394 h 1.984375 l 0.79375,0.7379394 V 11.08287 h 0.396875 v 0.737939 h -1.5875 V 9.606991 h -1.190625 v 2.213818 z m 4.564061,0 V 7.3931727 H 26.395328 V 6.6552333 h 1.5875 V 7.765243 l 1.190625,1.1038086 V 6.6552333 h 1.190625 V 11.08287 h 0.396875 v 0.737939 h -1.5875 V 10.34493 L 27.982828,9.2411219 v 2.5796871 z m 4.960938,0 V 11.08287 h 0.396875 V 7.3931727 H 30.959391 V 6.6552333 h 3.571874 V 7.3931727 H 33.340641 V 11.08287 h 0.396875 v 0.737939 z"
         id="path18"
         aria-label="MUTANT" /><path
         d="m 43.948947,11.820809 -0.79375,-0.737939 v -0.73794 h 1.190625 v 0.73794 h 1.190625 V 9.606991 H 44.345822 V 8.8690516 h 1.190625 V 7.3931727 H 44.345822 V 8.1311122 H 43.155197 V 7.3931727 l 0.79375,-0.7379394 h 1.984375 l 0.79375,0.7379394 v 1.4758789 l -0.396875,0.3720703 0.396875,0.3658691 v 1.475879 l -0.79375,0.737939 z m 3.770312,0 V 9.9790613 L 50.100509,7.765243 V 6.6552333 h 1.190625 v 1.4758789 l -2.38125,2.2138178 v 0.73794 h 0.396875 v 0.737939 z m 5.357812,0 -0.79375,-0.737939 v -0.73794 h 1.190625 v 0.73794 h 1.190625 V 9.606991 H 53.473946 V 8.8690516 h 1.190625 V 7.3931727 H 53.473946 V 8.1311122 H 52.283321 V 7.3931727 l 0.79375,-0.7379394 h 1.984375 l 0.79375,0.7379394 v 1.4758789 l -0.396875,0.3720703 0.396875,0.3658691 v 1.475879 l -0.79375,0.737939 z"
         id="path19"
         style="font-size:6.35px;line-height:0.8;font-family:'Baxter\'s Slab';-inkscape-font-specification:'Baxter\'s Slab, Normal';letter-spacing:0.198437px;word-spacing:0px;text-orientation:upright;fill:#5b2d07;stroke-width:0.0254;stroke-linecap:round;stroke-linejoin:round;paint-order:fill markers stroke"
         aria-label="3/3" /><path
         id="path20"
         mask="none"
         style="fill:#ac560e;stroke-width:0.422008"
         inkscape:label="DNA"
         d="M 39.370723 3.1752191 C 38.933345 4.2682076 38.985596 5.2205003 39.571745 6.8654331 C 39.645965 7.0736951 39.786125 7.5128884 39.883354 7.8416009 C 40.038308 8.3655618 40.063836 8.4720695 40.087476 8.7035638 C 40.134026 9.1594146 40.106392 9.6758064 40.017712 10.019763 C 40.011712 10.043153 40.008233 10.066432 40.004793 10.088492 L 37.517607 8.8058832 L 37.569283 8.7288853 C 37.607613 8.6716583 37.706958 8.5415104 37.790975 8.440014 L 37.943937 8.2550124 L 38.870496 8.7588576 C 39.487652 9.094382 39.810569 9.2566638 39.839429 9.2451328 C 39.876379 9.2306489 39.881151 9.1961087 39.869401 9.0094883 L 39.855448 8.7898635 L 39.112341 8.3754185 C 38.703614 8.1474378 38.36679 7.9517557 38.36355 7.9408197 C 38.350912 7.897468 38.669419 7.7224511 39.130945 7.5186232 L 39.47821 7.3651442 L 39.399146 7.1320835 C 39.2783 6.7757396 39.301481 6.7959912 39.093221 6.8566481 C 38.994721 6.8853171 38.780591 6.9749713 38.617798 7.0550856 C 38.142768 7.2888567 37.727194 7.600571 37.408569 7.962007 C 37.275968 8.1124254 37.02127 8.4956453 36.978621 8.5619704 L 36.765198 8.8885655 C 36.698838 9.0103184 36.625549 9.4175973 36.595699 9.6456252 C 36.555119 9.9556056 36.552044 10.28334 36.586914 10.653316 C 36.615674 10.958446 36.624841 10.997674 36.814807 11.638785 C 36.923651 12.006098 37.055883 12.412837 37.108846 12.543123 C 37.161806 12.673411 37.284032 13.026163 37.380147 13.326537 C 37.634567 14.121979 37.690148 14.546041 37.611141 15.092838 C 37.573221 15.355233 37.448779 15.810309 37.411153 15.825093 C 37.377873 15.838123 34.919843 14.49594 34.90898 14.458768 C 34.89238 14.402108 35.215294 13.930729 35.423161 13.70791 L 35.512044 13.612825 L 36.421549 14.106852 C 36.921735 14.37873 37.346231 14.595184 37.364644 14.587959 C 37.406644 14.571479 37.407543 14.549106 37.374463 14.314591 L 37.347074 14.124422 L 36.641174 13.731164 C 36.10911 13.435401 35.93855 13.329689 35.950777 13.30225 C 35.961787 13.27756 36.125821 13.200485 36.460307 13.062988 L 36.953817 12.860416 L 36.873201 12.636657 C 36.828962 12.513832 36.776342 12.381234 36.756413 12.342101 L 36.720756 12.271305 L 36.24895 12.468709 C 35.877482 12.624277 35.732206 12.695803 35.565271 12.806156 C 34.980985 13.192396 34.614415 13.649098 34.293514 14.390038 C 34.074965 14.894672 33.965411 15.365043 33.95555 15.875219 L 34.533293 15.875219 C 34.535812 15.753258 34.542752 15.636185 34.553963 15.54604 C 34.573713 15.387487 34.695713 14.900815 34.71571 14.900602 C 34.72501 14.900515 35.292357 15.205012 35.976099 15.577046 L 36.523869 15.875219 L 38.013184 15.875219 C 38.194287 15.347286 38.254585 14.836552 38.204386 14.25878 C 38.183176 14.013066 38.165927 13.942105 37.980627 13.313102 C 37.849256 12.866873 37.714085 12.457052 37.58737 12.121443 C 37.349679 11.491855 37.193774 10.923731 37.159489 10.561848 C 37.118239 10.126516 37.14259 9.7517468 37.23752 9.3469354 L 37.26956 9.2094761 L 39.739176 10.564432 L 39.658561 10.677604 C 39.603101 10.755933 39.499243 10.888302 39.427568 10.971642 L 39.296826 11.123054 L 39.082369 11.011433 C 38.96417 10.950053 38.533518 10.719909 38.125321 10.499837 L 37.383248 10.099344 L 37.386865 10.278661 C 37.394265 10.640782 37.333302 10.581933 38.154777 11.032621 C 38.553054 11.251122 38.874741 11.439913 38.869462 11.451717 C 38.849502 11.496466 38.656766 11.595184 38.228158 11.780895 C 37.792639 11.969605 37.785049 11.973991 37.809578 12.01809 C 37.823318 12.04276 37.874985 12.173518 37.923783 12.309029 L 38.01215 12.555525 L 38.287585 12.447521 C 39.134448 12.115413 39.667994 11.706325 40.130884 11.035204 C 40.214484 10.913994 40.20553 10.919317 40.277128 10.804211 L 40.493652 10.452294 C 40.555512 10.34775 40.612808 10.040104 40.657467 9.7091872 C 40.75782 8.9665478 40.650093 8.2164818 40.292631 7.168257 C 39.830442 5.8127185 39.697096 5.3231608 39.668896 4.8789911 C 39.655056 4.6612738 39.661463 4.3732747 39.683883 4.1932448 C 39.703633 4.0346923 39.825115 3.5480187 39.845113 3.5478062 C 39.854413 3.5476951 40.42176 3.8522171 41.105501 4.2242507 L 42.348319 4.9006952 L 42.298193 4.9942295 C 42.231303 5.118837 41.932985 5.5095491 41.833105 5.6029779 C 41.764996 5.6666398 41.742116 5.6761611 41.675492 5.6727411 C 41.629592 5.6703811 41.253032 5.4825652 40.756169 5.2143711 C 40.29324 4.964492 39.9118 4.7669209 39.908158 4.7751215 C 39.904558 4.7832714 39.917014 4.9040911 39.936064 5.0438389 L 39.970687 5.2980869 L 40.589771 5.6401849 C 40.93042 5.8282323 41.214249 5.9974657 41.219706 6.0163894 C 41.230956 6.0548693 40.95617 6.1916411 40.539128 6.3553868 L 40.312268 6.444787 L 40.384615 6.6447748 C 40.424575 6.7549808 40.475728 6.8883878 40.497786 6.9408807 L 40.537577 7.0364821 L 40.657983 6.9920404 C 41.866876 6.5475047 42.511955 5.9743713 42.98394 4.9260166 C 43.251018 4.3328274 43.366352 3.7864126 43.349292 3.1752191 L 42.769482 3.1752191 C 42.778825 3.3630394 42.768403 3.5435409 42.740027 3.7400425 C 42.702117 4.0024392 42.578182 4.4575133 42.540556 4.4722976 C 42.509773 4.4843683 40.48004 3.3768647 40.155688 3.1752191 L 39.370723 3.1752191 z M 42.365889 3.1752191 C 42.405807 3.1935519 42.48999 3.2367555 42.494047 3.2351638 C 42.515494 3.226758 42.525119 3.2143522 42.526086 3.1752191 L 42.365889 3.1752191 z " /></g><g
       id="g24"
       inkscape:label="token"
       transform="translate(60.3377,15.8877)"><path
         id="path21"
         style="fill:#fed1aa;stroke:#000000;stroke-width:0.0254;stroke-linecap:round;stroke-linejoin:round;paint-order:fill markers stroke"
         d="M 9.5249999,3.175 H 53.975002 c 3.5179,0 6.349999,2.8320999 6.349999,6.3499999 0,3.5179001 -2.832099,6.3500001 -6.349999,6.3500001 H 9.5249999 C 6.0070999,15.875 3.175,13.0429 3.175,9.5249999 3.175,6.0070999 6.0070999,3.175 9.5249999,3.175 Z" /><path
         style="font-size:6.35px;line-height:0.8;font-family:'Baxter\'s Slab';-inkscape-font-specification:'Baxter\'s Slab, Normal';letter-spacing:0.198437px;word-spacing:0px;text-orientation:upright;fill:#5b2d07;stroke-width:0.0254;stroke-linecap:round;stroke-linejoin:round;paint-order:fill markers stroke"
         d="M 7.7422061,11.820809 V 7.3931727 H 7.3453311 V 6.6552333 h 1.5875 V 7.765243 L 10.123456,8.8690516 11.314081,7.765243 V 6.6552333 h 1.190625 V 11.08287 h 0.396875 v 0.737939 h -1.5875 V 9.2411219 L 10.123456,10.34493 8.9328311,9.2411219 v 2.5796871 z m 6.5484369,0 -0.79375,-0.737939 V 7.3931727 H 13.100018 V 6.6552333 h 1.5875 V 11.08287 h 1.190625 V 6.6552333 h 1.190625 V 11.08287 l -0.79375,0.737939 z m 4.167188,0 V 11.08287 h 0.396875 V 7.3931727 H 17.664081 V 6.6552333 h 3.571874 V 7.3931727 H 20.04533 V 11.08287 h 0.396875 v 0.737939 z M 24.609392,8.8690516 V 7.3931727 h -1.190625 v 1.4758789 z m -2.38125,2.9517574 V 9.606991 H 21.831267 V 8.8690516 h 0.396875 V 7.3931727 l 0.79375,-0.7379394 h 1.984375 l 0.79375,0.7379394 V 11.08287 h 0.396875 v 0.737939 h -1.5875 V 9.606991 h -1.190625 v 2.213818 z m 4.564061,0 V 7.3931727 H 26.395328 V 6.6552333 h 1.5875 V 7.765243 l 1.190625,1.1038086 V 6.6552333 h 1.190625 V 11.08287 h 0.396875 v 0.737939 h -1.5875 V 10.34493 L 27.982828,9.2411219 v 2.5796871 z m 4.960938,0 V 11.08287 h 0.396875 V 7.3931727 H 30.959391 V 6.6552333 h 3.571874 V 7.3931727 H 33.340641 V 11.08287 h 0.396875 v 0.737939 z"
         id="path22"
         aria-label="MUTANT" /><path
         d="m 43.948947,11.820809 -0.79375,-0.737939 v -0.73794 h 1.190625 v 0.73794 h 1.190625 V 9.606991 H 44.345822 V 8.8690516 h 1.190625 V 7.3931727 H 44.345822 V 8.1311122 H 43.155197 V 7.3931727 l 0.79375,-0.7379394 h 1.984375 l 0.79375,0.7379394 v 1.4758789 l -0.396875,0.3720703 0.396875,0.3658691 v 1.475879 l -0.79375,0.737939 z m 3.770312,0 V 9.9790613 L 50.100509,7.765243 V 6.6552333 h 1.190625 v 1.4758789 l -2.38125,2.2138178 v 0.73794 h 0.396875 v 0.737939 z m 5.357812,0 -0.79375,-0.737939 v -0.73794 h 1.190625 v 0.73794 h 1.190625 V 9.606991 H 53.473946 V 8.8690516 h 1.190625 V 7.3931727 H 53.473946 V 8.1311122 H 52.283321 V 7.3931727 l 0.79375,-0.7379394 h 1.984375 l 0.79375,0.7379394 v 1.4758789 l -0.396875,0.3720703 0.396875,0.3658691 v 1.475879 l -0.79375,0.737939 z"
         id="path23"
         style="font-size:6.35px;line-height:0.8;font-family:'Baxter\'s Slab';-inkscape-font-specification:'Baxter\'s Slab, Normal';letter-spacing:0.198437px;word-spacing:0px;text-orientation:upright;fill:#5b2d07;stroke-width:0.0254;stroke-linecap:round;stroke-linejoin:round;paint-order:fill markers stroke"
         aria-label="3/3" /><path
         id="path24"
         mask="none"
         style="fill:#ac560e;stroke-width:0.422008"
         inkscape:label="DNA"
         d="M 39.370426 3.1752191 C 38.933072 4.2681841 38.985825 5.2205284 39.571964 6.8654331 C 39.646184 7.0736951 39.786344 7.5128884 39.883573 7.8416009 C 40.038527 8.3655618 40.064055 8.4720695 40.087695 8.7035638 C 40.134245 9.1594146 40.106611 9.6758064 40.017932 10.019763 C 40.011932 10.043153 40.008452 10.066432 40.005012 10.088492 L 37.517309 8.8058832 L 37.568985 8.7288853 C 37.607315 8.6716583 37.707177 8.5415104 37.791194 8.440014 L 37.944156 8.2550124 L 38.870198 8.7588576 C 39.487354 9.094382 39.810788 9.2566638 39.839648 9.2451328 C 39.876598 9.2306489 39.880853 9.1961087 39.869103 9.0094883 L 39.855668 8.7898635 L 39.11256 8.3754185 C 38.703833 8.1474378 38.367009 7.9517557 38.363769 7.9408197 C 38.351131 7.897468 38.669122 7.7224511 39.130647 7.5186232 L 39.47843 7.3651442 L 39.399365 7.1320835 C 39.278519 6.7757396 39.301183 6.7959912 39.092923 6.8566481 C 38.994423 6.8853171 38.78081 6.9749713 38.618017 7.0550856 C 38.142987 7.2888567 37.726896 7.600571 37.408272 7.962007 C 37.275671 8.1124254 37.021489 8.4956453 36.978841 8.5619704 L 36.7649 8.8885655 C 36.69854 9.0103184 36.625251 9.4175973 36.595401 9.6456252 C 36.554821 9.9556056 36.552263 10.28334 36.587133 10.653316 C 36.615893 10.958446 36.62506 10.997674 36.815026 11.638785 C 36.92387 12.006098 37.056102 12.412837 37.109065 12.543123 C 37.162025 12.673411 37.284252 13.026163 37.380366 13.326537 C 37.634786 14.121979 37.68985 14.546041 37.610843 15.092838 C 37.572923 15.355233 37.448998 15.810309 37.411372 15.825093 C 37.378092 15.838123 34.920062 14.49594 34.909199 14.458768 C 34.892599 14.402108 35.215513 13.930729 35.42338 13.70791 L 35.512263 13.612825 L 36.421769 14.106852 C 36.921954 14.37873 37.345934 14.595184 37.364347 14.587959 C 37.406347 14.571479 37.407245 14.549106 37.374165 14.314591 L 37.347293 14.124422 L 36.640877 13.731164 C 36.108812 13.435401 35.938769 13.329689 35.950996 13.30225 C 35.962006 13.27756 36.12604 13.200485 36.460526 13.062988 L 36.953519 12.860416 L 36.873421 12.636657 C 36.829181 12.513832 36.776561 12.381234 36.756632 12.342101 L 36.720975 12.271305 L 36.249169 12.468709 C 35.877701 12.624277 35.732425 12.695803 35.56549 12.806156 C 34.981204 13.192396 34.614634 13.649098 34.293733 14.390038 C 34.075184 14.89467 33.965631 15.365045 33.955769 15.875219 L 34.532995 15.875219 C 34.535514 15.753258 34.542971 15.636185 34.554182 15.54604 C 34.573932 15.387487 34.695416 14.900815 34.715413 14.900602 C 34.724713 14.900515 35.29206 15.205012 35.975801 15.577046 L 36.524088 15.875219 L 38.012886 15.875219 C 38.194016 15.347251 38.254291 14.836587 38.204089 14.25878 C 38.182879 14.013066 38.166146 13.942105 37.980847 13.313102 C 37.849475 12.866873 37.713787 12.457052 37.587072 12.121443 C 37.349381 11.491855 37.193993 10.923731 37.159708 10.561848 C 37.118458 10.126516 37.142293 9.7517468 37.237223 9.3469354 L 37.269262 9.2094761 L 39.738879 10.564432 L 39.658264 10.677604 C 39.602804 10.755933 39.498946 10.888302 39.42727 10.971642 L 39.297045 11.123054 L 39.082071 11.011433 C 38.963872 10.950053 38.53322 10.719909 38.125024 10.499837 L 37.38295 10.099344 L 37.386568 10.278661 C 37.393968 10.640782 37.333521 10.581933 38.154996 11.032621 C 38.553273 11.251122 38.87496 11.439913 38.869681 11.451717 C 38.849721 11.496466 38.656468 11.595184 38.22786 11.780895 C 37.792341 11.969605 37.785269 11.973991 37.809798 12.01809 C 37.823538 12.04276 37.874688 12.173518 37.923486 12.309029 L 38.012369 12.555525 L 38.287805 12.447521 C 39.134667 12.115413 39.668213 11.706325 40.131103 11.035204 C 40.214703 10.913994 40.205749 10.919317 40.277347 10.804211 L 40.493355 10.452294 C 40.555215 10.34775 40.61251 10.040104 40.657169 9.7091872 C 40.757522 8.9665478 40.650312 8.2164818 40.29285 7.168257 C 39.830662 5.8127185 39.697316 5.3231608 39.669116 4.8789911 C 39.655276 4.6612738 39.661165 4.3732747 39.683585 4.1932448 C 39.703335 4.0346923 39.825334 3.5480187 39.845332 3.5478062 C 39.854632 3.5476951 40.421462 3.8522171 41.105204 4.2242507 L 42.348539 4.9006952 L 42.298412 4.9942295 C 42.231523 5.118837 41.932688 5.5095491 41.832808 5.6029779 C 41.764698 5.6666398 41.742335 5.6761611 41.675711 5.6727411 C 41.629812 5.6703811 41.253251 5.4825652 40.756388 5.2143711 C 40.293459 4.964492 39.911503 4.7669209 39.907861 4.7751215 C 39.904261 4.7832714 39.917233 4.9040911 39.936283 5.0438389 L 39.970906 5.2980869 L 40.58999 5.6401849 C 40.930639 5.8282323 41.214468 5.9974657 41.219925 6.0163894 C 41.231175 6.0548693 40.955873 6.1916411 40.53883 6.3553868 L 40.31197 6.444787 L 40.384834 6.6447748 C 40.424794 6.7549808 40.475431 6.8883878 40.497489 6.9408807 L 40.53728 7.0364821 L 40.658203 6.9920404 C 41.867095 6.5475047 42.511657 5.9743713 42.983642 4.9260166 C 43.250721 4.3328274 43.366054 3.7864125 43.348994 3.1752191 L 42.769185 3.1752191 C 42.778528 3.36304 42.768622 3.5435404 42.740246 3.7400425 C 42.702336 4.0024392 42.577884 4.4575133 42.540258 4.4722976 C 42.509475 4.4843683 40.480259 3.3768647 40.155908 3.1752191 L 39.370426 3.1752191 z M 42.365592 3.1752191 C 42.40551 3.1935519 42.489693 3.2367555 42.493749 3.2351638 C 42.515196 3.2267581 42.525338 3.2143517 42.526306 3.1752191 L 42.365592 3.1752191 z " /></g></g></svg>
