<?xml version="1.0" encoding="UTF-8" standalone="no"?>
<!-- Created with Inkscape (http://www.inkscape.org/) -->

<svg
   width="380mm"
   height="160mm"
   viewBox="0 0 380 159.99999"
   version="1.1"
   id="svg1"
   inkscape:version="1.3.1 (91b66b0783, 2023-11-16)"
   sodipodi:docname="staging-zone.svg"
   xmlns:inkscape="http://www.inkscape.org/namespaces/inkscape"
   xmlns:sodipodi="http://sodipodi.sourceforge.net/DTD/sodipodi-0.dtd"
   xmlns="http://www.w3.org/2000/svg"
   xmlns:svg="http://www.w3.org/2000/svg">
  <sodipodi:namedview
     id="namedview1"
     pagecolor="#ffffff"
     bordercolor="#000000"
     borderopacity="0.25"
     inkscape:showpageshadow="2"
     inkscape:pageopacity="0.0"
     inkscape:pagecheckerboard="0"
     inkscape:deskcolor="#d1d1d1"
     inkscape:document-units="mm"
     inkscape:zoom="0.672594"
     inkscape:cx="553.82594"
     inkscape:cy="257.95651"
     inkscape:window-width="1620"
     inkscape:window-height="1010"
     inkscape:window-x="-6"
     inkscape:window-y="-6"
     inkscape:window-maximized="1"
     inkscape:current-layer="layer1"
     showgrid="false" />
  <defs
     id="defs1" />
  <g
     inkscape:label="shapes"
     inkscape:groupmode="layer"
     id="layer1"
     style="display:inline">
    <path
       id="rect11"
       style="fill:#002b36;stroke:none;stroke-width:0.506369;stroke-linecap:round;stroke-dashoffset:134.173;paint-order:stroke markers fill"
       inkscape:label="foot"
       d="m 78.033466,22.338839 a 1.0001,1.0001 0 0 0 -0.99994,-0.99994 H 14.03326 v 91.000171 h 63.000266 a 1.0001,1.0001 0 0 0 0.99994,-0.99994 z m -10.00003,9.6976 v 69.999881 h -2.99984 V 32.036439 Z m -41.00039,0 v 69.999881 h -2.99983 V 32.036439 Z" />
    <path
       id="rect12"
       style="display:inline;fill:#dc322f;stroke:none;stroke-width:0.506369;stroke-linecap:round;stroke-dashoffset:134.173;paint-order:stroke markers fill"
       inkscape:label="middle"
       d="m 291.27326,156.00024 c 0,2.216 1.82977,3.99976 4.10259,3.99976 h 71.79511 c 2.27281,0 4.10208,-1.78376 4.10208,-3.99976 v -101 c 0,-2.216 -1.82927,-4.00028 -4.10208,-4.00028 h -71.79511 c -2.27282,0 -4.10259,1.78428 -4.10259,4.00028 z m 25.99996,-5.1e-4 V 55.00024 h 2.99982 v 100.9995 z m 41.00009,0 V 55.00024 h 2.99982 v 100.9995 z" />
    <g
       id="g45"
       inkscape:label="top">
      <path
         id="rect15"
         style="display:inline;fill:#b58900;stroke:none;stroke-width:0.506369;stroke-linecap:round;stroke-dashoffset:134.173;paint-order:stroke markers fill"
         inkscape:label="cut"
         d="M 3.9997559,0 C 1.7837625,0 0,1.829778 0,4.102592 v 71.795101 c 0,2.272814 1.7837625,4.102075 3.9997559,4.102075 H 8.8025635 V 69.999862 H 4.0002726 V 67.000045 H 8.8025635 V 28.99978 H 4.0002726 V 25.999963 H 8.8025635 V 16.999996 A 1.0001,1.0001 0 0 1 9.8025024,16.000057 H 98.802755 a 1.0001,1.0001 0 0 1 0.999939,0.999939 v 8.999967 h 5.197096 v 2.999817 h -5.197096 v 38.000265 h 5.197096 v 2.999817 h -5.197096 v 9.999906 h 5.197096 c 2.216,0 4.00028,-1.829261 4.00028,-4.102075 V 4.102592 C 109.00007,1.829778 107.21579,0 104.99979,0 Z" />
      <path
         style="-inkscape-font-specification:'Texas Tango BOLD PERSONAL USE, Bold';display:none;fill:#586e75;stroke-width:0.5;stroke-linecap:round;stroke-dashoffset:134.173;paint-order:stroke markers fill"
         d="M 11.608918,7.5729628 C 11.425474,7.4720684 11.205341,7.3895184 10.939346,7.3161407 10.159708,7.0960074 9.7653021,6.9859407 9.7653021,6.9859407 9.3892411,6.8667019 9.2057967,6.6832575 9.2057967,6.4356075 c 0,-0.293511 0.1008944,-0.5503332 0.293511,-0.7612943 0.2017888,-0.2201333 0.4494388,-0.3301999 0.7337773,-0.3301999 0.797983,0 1.3208,0.5778499 1.586794,1.7427218 L 12.370213,7.040974 12.269318,4.6928857 c -1.036461,-0.045861 -1.843616,-0.073378 -2.4306382,-0.073378 -0.6328831,0 -1.1740441,0.1834444 -1.6051385,0.541161 -0.4677832,0.376061 -0.6970887,0.8805331 -0.6970887,1.5042441 0,0.376061 0.073378,0.706261 0.2201333,0.9814276 L 7.3530082,8.0499183 10.196396,8.8203848 c 0.614539,0.1742722 0.926395,0.4952999 0.926395,0.9447387 0,0.5503335 -0.458611,0.9539105 -1.008945,0.9539105 -0.3393717,0 -0.7154327,-0.220133 -1.1190104,-0.669572 C 8.637119,9.6550568 8.3986413,9.2606513 8.2885746,8.8845903 L 7.637347,8.9304514 7.7382414,11.351918 c 1.3299719,0.128411 2.1004384,0.192616 2.3297436,0.192616 0.669572,0 1.256595,-0.201789 1.751894,-0.605366 0.541161,-0.431095 0.807156,-0.9722557 0.807156,-1.6234833 0,-0.3118555 -0.07338,-0.6053666 -0.220133,-0.8897054 L 12.764618,8.040746 Z m 6.659746,-1.3483164 c 0,-0.3210277 0.3302,-0.6053665 0.651227,-0.6053665 0.302683,0 0.522817,0.2568222 0.651228,0.7612943 0.03669,0.1375833 0.08255,0.5044721 0.137583,1.082322 L 20.378274,7.0868351 V 4.6378523 l -5.815187,0.00917 v 2.540705 l 0.605366,0.3301999 c 0.01835,-0.4219221 0.09172,-0.8071554 0.229306,-1.1556998 0.192616,-0.4861276 0.458611,-0.7337776 0.807155,-0.7337776 0.321028,0 0.486128,0.1834444 0.486128,0.5595055 v 1.1740442 l -0.715433,0.6879165 0.715433,0.6970887 v 1.3666613 c 0,0.357716 -0.24765,0.642055 -0.605367,0.706261 v 0.623711 c 0.08255,0.0092 0.155928,0.0092 0.229306,0.0092 h 1.238249 1.027289 c 0.137583,0 0.24765,-0.01834 0.348544,-0.04586 l -0.0092,-0.642056 c -0.210961,0.0092 -0.376061,-0.07338 -0.4953,-0.256822 C 18.323669,10.343 18.268636,10.150384 18.268636,9.9394223 V 8.7194903 L 18.910719,8.040746 18.268664,7.3803462 Z m 5.586588,2.3572606 0.8255,-2.0637495 1.036461,2.0729218 z m 2.357261,-2.4214661 c -0.06421,-0.1192389 -0.09172,-0.2201333 -0.09172,-0.3118555 0,-0.1375833 0.06421,-0.2568222 0.201788,-0.3393721 0.110067,-0.073378 0.238478,-0.1100667 0.394406,-0.1192389 V 4.665369 h -3.329516 l -0.0092,0.7979832 c 0.08255,-0.00917 0.155927,-0.018345 0.229305,-0.018345 0.24765,0 0.366889,0.091722 0.366889,0.2843389 0,0.128411 -0.192617,0.6603998 -0.587022,1.5867941 l -1.063978,0.7337776 0.522817,0.5319887 -0.697089,1.6051385 c -0.1651,0.385233 -0.467783,0.587022 -0.917222,0.605366 v 0.605367 l 2.797527,0.01834 v -0.587022 c -0.559505,0.0092 -0.843844,-0.174272 -0.843844,-0.550333 0,-0.100895 0.08255,-0.3393719 0.238478,-0.7154329 h 2.843388 c 0.119239,0.1926166 0.192617,0.3301999 0.238478,0.4127499 0.110066,0.192616 0.1651,0.339372 0.1651,0.440266 0,0.146756 -0.110067,0.256822 -0.321028,0.3302 -0.155928,0.05503 -0.3302,0.08255 -0.513644,0.08255 v 0.605367 l 3.201105,0.02752 V 10.8291 c -0.256823,0.02752 -0.504473,-0.183444 -0.74295,-0.642055 L 27.44159,8.5360459 27.900201,8.040746 26.882085,7.453724 Z m 4.944529,2.540705 c 0.174272,1.4216941 0.898877,2.3297441 2.173816,2.7241491 0.174272,0.05503 0.403578,0.07338 0.669572,0.05503 0.467783,0.01834 1.302455,-0.0092 2.494844,-0.08255 V 9.4074069 c 0,-0.6145388 0.192617,-0.9814276 0.568678,-1.1006665 V 7.6188239 L 34.358147,7.5087573 v 0.7429498 c 0.41275,0.08255 0.752122,0.3852333 0.752122,0.788811 V 9.911879 c 0,0.504472 -0.385234,0.797983 -0.898878,0.797983 -0.541161,0 -0.926394,-0.321028 -1.164872,-0.963083 C 32.936452,9.4440957 32.863075,9.0955514 32.826386,8.7011459 L 33.450097,8.040746 32.835558,7.4078629 c 0.04586,-0.3944055 0.128411,-0.7521221 0.24765,-1.0639776 0.265994,-0.6879165 0.687917,-1.0364609 1.256594,-1.0364609 0.376061,0 0.715433,0.1375833 0.999772,0.4035777 0.284339,0.2659944 0.458611,0.5870221 0.522817,0.9630831 L 36.541135,6.4998131 36.119213,4.6470246 33.982086,4.6011635 c -0.853017,0 -1.559278,0.3485443 -2.109611,1.0548053 -0.403578,0.5136443 -0.642055,1.1006664 -0.724605,1.7610663 l -0.632884,0.6328832 z m 10.154356,-2.623255 c 0,-0.3944054 0.275167,-0.6695721 0.669572,-0.6787443 L 41.95345,4.6561968 c -0.137583,0.00917 -0.62371,0.00917 -1.476727,0.018344 -0.853016,0.00917 -1.339144,0 -1.467555,-0.00917 l -0.01835,0.7246054 c 0.486128,-0.036689 0.724606,0.2659944 0.724606,0.9080498 v 1.0548053 l -0.687917,0.6970888 0.697089,0.7062609 v 1.311628 c 0,0.403577 -0.238478,0.752122 -0.632883,0.779638 v 0.605367 l 2.834216,-0.01834 V 10.847451 C 41.513179,10.783241 41.31139,10.544768 41.31139,10.113674 V 8.7378348 L 41.962626,8.040746 41.311398,7.371174 Z m 8.448314,0.018345 c 0,-0.3760611 0.284339,-0.6512277 0.6604,-0.6603999 V 4.665369 c -0.07338,-0.00917 -0.467783,-0.00917 -1.174044,0 -0.706261,0 -1.091494,0.00917 -1.1557,0.018344 v 0.7337777 c 0.458611,0 0.687917,0.293511 0.687917,0.8897053 V 8.47184 l -3.302,-3.7972992 h -1.568449 v 0.8163276 c 0.3302,-0.00917 0.587022,0.1100667 0.770466,0.3393722 0.1651,0.210961 0.24765,0.4769554 0.24765,0.8163276 v 0.7154332 l -0.01834,-0.018344 -0.697089,0.706261 0.697089,0.7062609 0.01834,-0.00917 v 1.2932827 c 0,0.394406 -0.265994,0.706261 -0.642055,0.74295 v 0.678744 c 0.04586,0.0092 0.449438,0.0092 1.192388,0.0092 0.74295,0.0092 1.164872,-0.0092 1.256594,-0.04586 v -0.6604 C 46.23758,10.78324 45.98993,10.498901 45.98993,9.911879 V 7.8389572 l 3.091038,3.5588218 h 0.678744 V 8.747007 l 0.6604,-0.706261 -0.6604,-0.6787442 z m 2.935824,2.6049105 c 0.174272,1.4216936 0.898877,2.3297436 2.173816,2.7241486 0.174272,0.05503 0.403578,0.07338 0.669572,0.05503 0.467783,0.01834 1.302455,-0.0092 2.494844,-0.08255 V 9.4074069 c 0,-0.6145388 0.192617,-0.9814276 0.568678,-1.1006665 V 7.6188239 L 55.896641,7.5087573 v 0.7429498 c 0.41275,0.08255 0.752122,0.3852333 0.752122,0.788811 V 9.911879 c 0,0.504472 -0.385233,0.797983 -0.898878,0.797983 -0.541161,0 -0.926394,-0.321028 -1.164872,-0.963083 C 54.474947,9.4440957 54.401569,9.0955514 54.36488,8.7011459 L 54.988591,8.040746 54.374052,7.4078629 c 0.04586,-0.3944055 0.128411,-0.7521221 0.24765,-1.0639776 0.265995,-0.6879165 0.687917,-1.0364609 1.256594,-1.0364609 0.376061,0 0.715433,0.1375833 0.999772,0.4035777 0.284339,0.2659944 0.458611,0.5870221 0.522817,0.9630831 L 58.079629,6.4998131 57.657707,4.6470246 55.52058,4.6011635 c -0.853017,0 -1.559278,0.3485443 -2.109611,1.0548053 -0.403578,0.5136443 -0.642055,1.1006664 -0.724605,1.7610663 L 52.05348,8.0499183 Z M 68.13379,8.581907 68.95929,6.5181575 69.995751,8.5910793 Z M 70.49105,6.1604409 C 70.42684,6.041202 70.39933,5.9403076 70.39933,5.8485854 c 0,-0.1375833 0.06421,-0.2568222 0.201789,-0.3393721 0.110067,-0.073378 0.238478,-0.1100667 0.394406,-0.1192389 V 4.665369 h -3.329516 l -0.0092,0.7979832 c 0.08255,-0.00917 0.155928,-0.018345 0.229306,-0.018345 0.24765,0 0.366889,0.091722 0.366889,0.2843389 0,0.128411 -0.192617,0.6603998 -0.587022,1.5867941 l -1.063978,0.7337776 0.522817,0.5319887 -0.697089,1.6051385 c -0.1651,0.385233 -0.467783,0.587022 -0.917222,0.605366 v 0.605367 l 2.797527,0.01834 v -0.587022 c -0.559505,0.0092 -0.843844,-0.174272 -0.843844,-0.550333 0,-0.100895 0.08255,-0.3393719 0.238478,-0.7154329 h 2.843388 c 0.119239,0.1926166 0.192616,0.3301999 0.238478,0.4127499 0.110066,0.192616 0.1651,0.339372 0.1651,0.440266 0,0.146756 -0.110067,0.256822 -0.321028,0.3302 -0.155928,0.05503 -0.3302,0.08255 -0.513645,0.08255 v 0.605367 l 3.201105,0.02752 V 10.8291 c -0.256822,0.02752 -0.504472,-0.183444 -0.74295,-0.642055 L 71.720128,8.5360459 72.178739,8.040746 71.160623,7.453724 Z m 5.12797,2.5590494 v 1.2932827 c 0,0.394406 -0.265994,0.733778 -0.6604,0.779639 v 0.623711 c 1.889478,0.01835 2.898422,0.01835 3.017661,-0.0092 V 10.69149 C 77.545186,10.68229 77.251675,10.27874 77.251675,9.8384732 V 9.0130014 c 0,-0.2293055 0.1651,-0.3393722 0.504472,-0.3393722 0.3302,0 0.614539,0.2751667 0.862189,0.8254999 0.220133,0.5503329 0.385233,0.9630829 0.486128,1.2474219 0.293511,0.486128 0.724605,0.724605 1.293283,0.724605 0.321028,0 0.605366,-0.100894 0.853016,-0.311855 0.256822,-0.210961 0.385234,-0.467783 0.385234,-0.779639 0,-0.210961 -0.06421,-0.4402664 -0.201789,-0.6879163 -0.201789,0.3760613 -0.403578,0.5595053 -0.605367,0.5595053 -0.146755,0 -0.302683,-0.155928 -0.476955,-0.4677831 L 80.04003,9.1138958 C 79.847414,8.7928681 79.608936,8.5543904 79.324597,8.4076349 79.443836,8.3801182 79.563075,8.3526015 79.673141,8.3067404 L 80.78298,8.0224016 80.461952,7.5454462 c 0.09172,-0.2017889 0.137584,-0.4219222 0.137584,-0.6695721 0,-0.6512277 -0.210961,-1.1923886 -0.623711,-1.623483 -0.41275,-0.4310944 -0.953911,-0.6420554 -1.605139,-0.6420554 -2.072922,0.036689 -3.219449,0.055033 -3.439582,0.055033 v 0.8621887 c 0.07338,-0.027517 0.137583,-0.036689 0.201788,-0.036689 0.321028,0 0.486128,0.24765 0.486128,0.7521221 V 7.389518 l -0.6604,0.6603999 z m 3.448755,-2.1829884 c 0,0.8530165 -0.568678,1.4125219 -1.421694,1.4125219 -0.110067,0 -0.229306,-0.018344 -0.348545,-0.045861 V 6.4356075 c 0,-0.5595054 0.3302,-0.8438443 0.9906,-0.8438443 0.265995,0 0.458611,0.091722 0.596195,0.2843389 0.119238,0.1650999 0.183444,0.3852332 0.183444,0.6603998 z m 5.56824,2.164644 V 9.829329 c 0,0.210961 -0.03669,0.403578 -0.119238,0.57785 -0.100895,0.229305 -0.24765,0.339372 -0.431095,0.339372 v 0.678744 l 5.301544,0.02752 0.1651,-2.2196773 -0.74295,-0.091722 c -0.03669,0.9539103 -0.706261,1.5134163 -1.669344,1.5134163 -0.449439,0 -0.724606,-0.275167 -0.843845,-0.834672 -0.04586,-0.2017889 -0.06421,-0.6420554 -0.06421,-1.3116275 0.06421,-0.091722 0.174272,-0.1375833 0.311855,-0.1375833 0.220134,0 0.376061,0.045861 0.467784,0.1467555 0.06421,0.064205 0.137583,0.2109611 0.220133,0.4310944 h 0.733777 l -0.08255,-2.2288496 -0.642055,-0.027517 c -0.02752,0.6053665 -0.24765,0.9080498 -0.6604,0.9080498 -0.128411,0 -0.24765,-0.027517 -0.357716,-0.073378 0,-0.1100666 0,-0.1650999 0,-0.1650999 -0.0092,-0.1742722 -0.0092,-0.24765 -0.0092,-0.2201333 V 6.7658074 c 0,-0.4310943 0.07338,-0.7429498 0.210961,-0.9263942 0.155928,-0.2201333 0.449439,-0.3301999 0.871361,-0.3301999 0.632884,0 1.229078,0.4035777 1.348317,0.999772 l 0.522816,-0.1651 0.04586,-1.6509996 c -2.118782,0 -3.898193,0 -5.356576,0.00917 V 5.37163 c 0.275166,-0.045861 0.476955,0.073378 0.614539,0.3393721 0.100894,0.2109611 0.155927,0.458611 0.155927,0.7612943 V 7.4078629 L 83.99396,8.0499183 Z M 94.04741,8.581907 94.87291,6.5181575 95.909371,8.5910793 Z M 96.40467,6.1604409 C 96.34046,6.041202 96.31295,5.9403076 96.31295,5.8485854 c 0,-0.1375833 0.06421,-0.2568222 0.201789,-0.3393721 0.110067,-0.073378 0.238478,-0.1100667 0.394406,-0.1192389 V 4.665369 h -3.329516 l -0.0092,0.7979832 c 0.08255,-0.00917 0.155928,-0.018345 0.229306,-0.018345 0.24765,0 0.366889,0.091722 0.366889,0.2843389 0,0.128411 -0.192617,0.6603998 -0.587022,1.5867941 l -1.063978,0.7337776 0.522817,0.5319887 -0.697089,1.6051385 c -0.1651,0.385233 -0.467783,0.587022 -0.917222,0.605366 v 0.605367 l 2.797527,0.01834 v -0.587022 c -0.559505,0.0092 -0.843844,-0.174272 -0.843844,-0.550333 0,-0.100895 0.08255,-0.3393719 0.238478,-0.7154329 h 2.843388 c 0.119239,0.1926166 0.192616,0.3301999 0.238478,0.4127499 0.110066,0.192616 0.165099,0.339372 0.165099,0.440266 0,0.146756 -0.110066,0.256822 -0.321027,0.3302 -0.155928,0.05503 -0.3302,0.08255 -0.513645,0.08255 v 0.605367 l 3.201105,0.02752 V 10.8291 c -0.256822,0.02752 -0.504472,-0.183444 -0.74295,-0.642055 L 97.633748,8.5360459 98.092359,8.040746 97.074243,7.453724 Z"
         id="text8"
         inkscape:label="staging area"
         aria-label="staging area" />
      <path
         style="-inkscape-font-specification:'Fugaz One, Normal';display:inline;fill:#586e75;stroke-width:0.25;stroke-linecap:round;stroke-linejoin:round;stroke-dashoffset:134.173;paint-order:stroke markers fill"
         d="m 13.887273,9.6894751 h -1.259417 l -0.41275,2.3177499 h -1.905 L 11.65419,4.3872253 h 3.227916 q 1.195917,0 1.703917,0.5503333 0.370417,0.4233333 0.370417,1.0794999 0,0.22225 -0.04233,0.4656667 l -0.21167,1.1959166 q -0.15875,0.8784167 -0.931334,1.4499167 -0.772583,0.5609166 -1.883833,0.5609166 z m 0.328083,-3.6512499 h -0.9525 l -0.34925,2.00025 h 0.941917 q 0.867833,0 1.005417,-0.7725834 l 0.07408,-0.4339166 q 0.02117,-0.09525 0.02117,-0.254 0,-0.15875 -0.15875,-0.34925 -0.15875,-0.1905 -0.582084,-0.1905 z m 7.524756,5.9689998 0.0635,-1.661583 h -1.767416 l -0.518584,1.661583 h -2.021416 l 2.719916,-7.6199997 h 3.4925 l 0.04233,7.6199997 z M 21.306195,6.2393085 20.470112,8.9274751 h 1.386417 l 0.116416,-2.6881666 z m 6.455841,3.5983333 q 0,0.7302502 1.04775,0.7302502 1.058334,0 1.058334,-0.6561669 0,-0.34925 -0.359834,-0.5715 -0.359833,-0.22225 -0.878416,-0.3704166 -0.508,-0.1481667 -1.026584,-0.3386667 -0.508,-0.2010833 -0.867833,-0.6138333 -0.359833,-0.4233333 -0.359833,-1.04775 0,-2.6564166 3.418416,-2.6564166 1.248834,0 1.883834,0.47625 0.645583,0.4656667 0.645583,1.30175 0,0.3069166 -0.08467,0.5926666 -0.07408,0.2751667 -0.15875,0.3915834 l -0.08467,0.1269999 h -1.87325 q 0.232833,-0.2434166 0.232833,-0.6138333 0,-0.6879166 -0.899583,-0.6879166 -1.132417,0 -1.132417,0.7196666 0,0.3598334 0.359833,0.5715 0.359834,0.2116667 0.867834,0.3386667 0.518583,0.1164166 1.037166,0.2963333 0.518584,0.1799167 0.878417,0.60325 0.359833,0.41275 0.359833,1.0794999 0,1.3440836 -0.804333,2.0002496 -0.804333,0.645584 -2.4765,0.645584 -1.672167,0 -2.286,-0.592667 -0.455083,-0.4445 -0.455083,-1.227667 0,-0.296333 0.0635,-0.6455829 l 0.03175,-0.1693333 h 1.905 l -0.02117,0.127 q -0.02117,0.1058333 -0.02117,0.1905 z m 7.916342,0 q 0,0.7302502 1.04775,0.7302502 1.058333,0 1.058333,-0.6561669 0,-0.34925 -0.359833,-0.5715 -0.359833,-0.22225 -0.878417,-0.3704166 -0.508,-0.1481667 -1.026583,-0.3386667 -0.508,-0.2010833 -0.867833,-0.6138333 -0.359833,-0.4233333 -0.359833,-1.04775 0,-2.6564166 3.418416,-2.6564166 1.248833,0 1.883833,0.47625 0.645584,0.4656667 0.645584,1.30175 0,0.3069166 -0.08467,0.5926666 -0.07408,0.2751667 -0.15875,0.3915834 l -0.08467,0.1269999 h -1.87325 q 0.232834,-0.2434166 0.232834,-0.6138333 0,-0.6879166 -0.899584,-0.6879166 -1.132416,0 -1.132416,0.7196666 0,0.3598334 0.359833,0.5715 0.359833,0.2116667 0.867833,0.3386667 0.518584,0.1164166 1.037167,0.2963333 0.518583,0.1799167 0.878417,0.60325 0.359833,0.41275 0.359833,1.0794999 0,1.3440836 -0.804333,2.0002496 -0.804334,0.645584 -2.4765,0.645584 -1.672167,0 -2.286,-0.592667 -0.455083,-0.4445 -0.455083,-1.227667 0,-0.296333 0.0635,-0.6455829 l 0.03175,-0.1693333 h 1.904999 l -0.02117,0.127 q -0.02117,0.1058333 -0.02117,0.1905 z m 9.144007,-5.4504165 -1.3335,7.6199997 h -1.915584 l 1.344084,-7.6199997 z m 8.434921,0 -1.3335,7.6199997 h -1.915583 l -1.3335,-4.1698332 -0.719667,4.1698332 h -1.915583 l 1.344083,-7.6199997 h 1.9685 l 1.312333,3.8946665 0.687917,-3.8946665 z m 3.873505,7.7681667 q -1.502834,0 -2.074334,-0.6985 -0.391583,-0.486834 -0.391583,-1.3335 0,-0.3915836 0.08467,-0.8572502 L 55.11998,7.1494752 q 0.497417,-2.8363333 3.471333,-2.8363333 1.227667,0 1.862667,0.5291667 0.635,0.5185833 0.635,1.4287499 0,0.3704167 -0.105833,0.7514167 -0.09525,0.381 -0.1905,0.5715 l -0.105834,0.1905 h -1.87325 q 0.275167,-0.381 0.275167,-0.8784167 0,-0.9524999 -0.79375,-0.9524999 -1.068916,0 -1.280583,1.2382499 l -0.359833,2.032 q -0.05292,0.2857499 -0.05292,0.5609166 0,0.7302499 0.85725,0.7302499 0.867833,0 1.11125,-0.8678332 h -0.867833 l 0.211666,-1.17475 h 2.804583 l -0.169333,0.9101666 -0.05292,0.3069167 q -0.4445,2.4659169 -3.365499,2.4659169 z m 14.171082,-0.148167 h -5.577416 l 0.296333,-1.651 h 0.01058 L 70.12714,6.0382252 H 66.772227 L 67.06856,4.3872253 h 5.588 l -0.296333,1.6509999 -4.09575,4.3179998 h 3.33375 z m 6.413502,-7.6940831 q 2.550583,0 2.550583,2.0849166 0,0.34925 -0.07408,0.7514167 l -0.370417,2.1166666 q -0.254,1.4710832 -1.100666,2.1801662 -0.846667,0.709084 -2.38125,0.709084 -1.534584,0 -2.137834,-0.709084 -0.41275,-0.486833 -0.41275,-1.344083 0,-0.3809999 0.08467,-0.8360832 l 0.370417,-2.1166666 q 0.497416,-2.8363333 3.471333,-2.8363333 z m -1.090083,6.2018331 q 0.529166,0 0.846666,-0.275167 0.3175,-0.2751662 0.4445,-1.0159995 l 0.359834,-2.032 q 0.03175,-0.2116666 0.03175,-0.381 0,-0.8572499 -0.867834,-0.8572499 -1.090083,0.021167 -1.30175,1.2382499 l -0.359833,2.032 q -0.04233,0.2645833 -0.04233,0.5503333 0,0.7408332 0.889,0.7408332 z m 12.276659,-6.1277497 -1.3335,7.6199997 h -1.915584 l -1.3335,-4.1698332 -0.719666,4.1698332 h -1.915584 l 1.344084,-7.6199997 h 1.9685 l 1.312333,3.8946665 0.687917,-3.8946665 z m 6.529921,7.6199997 h -5.312833 l 1.344083,-7.6199997 h 5.312833 l -0.296333,1.6509999 h -3.407833 l -0.243417,1.42875 h 2.815167 l -0.296334,1.6509999 h -2.815166 l -0.211667,1.2382499 h 3.407833 z"
         id="text1"
         inkscape:label="passing zone"
         aria-label="PASSING ZONE" />
    </g>
    <path
       id="path1"
       style="fill:#002b36;stroke:none;stroke-width:0.506369;stroke-linecap:round;stroke-dashoffset:134.173;paint-order:stroke markers fill"
       inkscape:label="foot"
       d="m 115.20234,135.25264 a 1.0001,1.0001 0 0 0 0.99994,0.99994 h 63.00027 V 45.252402 h -63.00027 a 1.0001,1.0001 0 0 0 -0.99994,0.99994 z m 10.00003,-9.6976 V 55.555152 h 2.99984 v 69.999888 z m 41.00039,0 V 55.555152 h 2.99983 v 69.999888 z" />
    <g
       id="g4"
       inkscape:label="top"
       transform="rotate(180,96.63888,80)">
      <path
         id="path2"
         style="display:inline;fill:#b58900;stroke:none;stroke-width:0.506369;stroke-linecap:round;stroke-dashoffset:134.173;paint-order:stroke markers fill"
         inkscape:label="cut"
         d="M 3.9997559,0 C 1.7837625,0 0,1.829778 0,4.102592 v 71.795101 c 0,2.272814 1.7837625,4.102075 3.9997559,4.102075 H 8.8025635 V 69.999862 H 4.0002726 V 67.000045 H 8.8025635 V 28.99978 H 4.0002726 V 25.999963 H 8.8025635 V 16.999996 A 1.0001,1.0001 0 0 1 9.8025024,16.000057 H 98.802755 a 1.0001,1.0001 0 0 1 0.999939,0.999939 v 8.999967 h 5.197096 v 2.999817 h -5.197096 v 38.000265 h 5.197096 v 2.999817 h -5.197096 v 9.999906 h 5.197096 c 2.216,0 4.00028,-1.829261 4.00028,-4.102075 V 4.102592 C 109.00007,1.829778 107.21579,0 104.99979,0 Z" />
      <path
         style="-inkscape-font-specification:'Texas Tango BOLD PERSONAL USE, Bold';display:none;fill:#586e75;stroke-width:0.5;stroke-linecap:round;stroke-dashoffset:134.173;paint-order:stroke markers fill"
         d="M 11.608918,7.5729628 C 11.425474,7.4720684 11.205341,7.3895184 10.939346,7.3161407 10.159708,7.0960074 9.7653021,6.9859407 9.7653021,6.9859407 9.3892411,6.8667019 9.2057967,6.6832575 9.2057967,6.4356075 c 0,-0.293511 0.1008944,-0.5503332 0.293511,-0.7612943 0.2017888,-0.2201333 0.4494388,-0.3301999 0.7337773,-0.3301999 0.797983,0 1.3208,0.5778499 1.586794,1.7427218 L 12.370213,7.040974 12.269318,4.6928857 c -1.036461,-0.045861 -1.843616,-0.073378 -2.4306382,-0.073378 -0.6328831,0 -1.1740441,0.1834444 -1.6051385,0.541161 -0.4677832,0.376061 -0.6970887,0.8805331 -0.6970887,1.5042441 0,0.376061 0.073378,0.706261 0.2201333,0.9814276 L 7.3530082,8.0499183 10.196396,8.8203848 c 0.614539,0.1742722 0.926395,0.4952999 0.926395,0.9447387 0,0.5503335 -0.458611,0.9539105 -1.008945,0.9539105 -0.3393717,0 -0.7154327,-0.220133 -1.1190104,-0.669572 C 8.637119,9.6550568 8.3986413,9.2606513 8.2885746,8.8845903 L 7.637347,8.9304514 7.7382414,11.351918 c 1.3299719,0.128411 2.1004384,0.192616 2.3297436,0.192616 0.669572,0 1.256595,-0.201789 1.751894,-0.605366 0.541161,-0.431095 0.807156,-0.9722557 0.807156,-1.6234833 0,-0.3118555 -0.07338,-0.6053666 -0.220133,-0.8897054 L 12.764618,8.040746 Z m 6.659746,-1.3483164 c 0,-0.3210277 0.3302,-0.6053665 0.651227,-0.6053665 0.302683,0 0.522817,0.2568222 0.651228,0.7612943 0.03669,0.1375833 0.08255,0.5044721 0.137583,1.082322 L 20.378274,7.0868351 V 4.6378523 l -5.815187,0.00917 v 2.540705 l 0.605366,0.3301999 c 0.01835,-0.4219221 0.09172,-0.8071554 0.229306,-1.1556998 0.192616,-0.4861276 0.458611,-0.7337776 0.807155,-0.7337776 0.321028,0 0.486128,0.1834444 0.486128,0.5595055 v 1.1740442 l -0.715433,0.6879165 0.715433,0.6970887 v 1.3666613 c 0,0.357716 -0.24765,0.642055 -0.605367,0.706261 v 0.623711 c 0.08255,0.0092 0.155928,0.0092 0.229306,0.0092 h 1.238249 1.027289 c 0.137583,0 0.24765,-0.01834 0.348544,-0.04586 l -0.0092,-0.642056 c -0.210961,0.0092 -0.376061,-0.07338 -0.4953,-0.256822 C 18.323669,10.343 18.268636,10.150384 18.268636,9.9394223 V 8.7194903 L 18.910719,8.040746 18.268664,7.3803462 Z m 5.586588,2.3572606 0.8255,-2.0637495 1.036461,2.0729218 z m 2.357261,-2.4214661 c -0.06421,-0.1192389 -0.09172,-0.2201333 -0.09172,-0.3118555 0,-0.1375833 0.06421,-0.2568222 0.201788,-0.3393721 0.110067,-0.073378 0.238478,-0.1100667 0.394406,-0.1192389 V 4.665369 h -3.329516 l -0.0092,0.7979832 c 0.08255,-0.00917 0.155927,-0.018345 0.229305,-0.018345 0.24765,0 0.366889,0.091722 0.366889,0.2843389 0,0.128411 -0.192617,0.6603998 -0.587022,1.5867941 l -1.063978,0.7337776 0.522817,0.5319887 -0.697089,1.6051385 c -0.1651,0.385233 -0.467783,0.587022 -0.917222,0.605366 v 0.605367 l 2.797527,0.01834 v -0.587022 c -0.559505,0.0092 -0.843844,-0.174272 -0.843844,-0.550333 0,-0.100895 0.08255,-0.3393719 0.238478,-0.7154329 h 2.843388 c 0.119239,0.1926166 0.192617,0.3301999 0.238478,0.4127499 0.110066,0.192616 0.1651,0.339372 0.1651,0.440266 0,0.146756 -0.110067,0.256822 -0.321028,0.3302 -0.155928,0.05503 -0.3302,0.08255 -0.513644,0.08255 v 0.605367 l 3.201105,0.02752 V 10.8291 c -0.256823,0.02752 -0.504473,-0.183444 -0.74295,-0.642055 L 27.44159,8.5360459 27.900201,8.040746 26.882085,7.453724 Z m 4.944529,2.540705 c 0.174272,1.4216941 0.898877,2.3297441 2.173816,2.7241491 0.174272,0.05503 0.403578,0.07338 0.669572,0.05503 0.467783,0.01834 1.302455,-0.0092 2.494844,-0.08255 V 9.4074069 c 0,-0.6145388 0.192617,-0.9814276 0.568678,-1.1006665 V 7.6188239 L 34.358147,7.5087573 v 0.7429498 c 0.41275,0.08255 0.752122,0.3852333 0.752122,0.788811 V 9.911879 c 0,0.504472 -0.385234,0.797983 -0.898878,0.797983 -0.541161,0 -0.926394,-0.321028 -1.164872,-0.963083 C 32.936452,9.4440957 32.863075,9.0955514 32.826386,8.7011459 L 33.450097,8.040746 32.835558,7.4078629 c 0.04586,-0.3944055 0.128411,-0.7521221 0.24765,-1.0639776 0.265994,-0.6879165 0.687917,-1.0364609 1.256594,-1.0364609 0.376061,0 0.715433,0.1375833 0.999772,0.4035777 0.284339,0.2659944 0.458611,0.5870221 0.522817,0.9630831 L 36.541135,6.4998131 36.119213,4.6470246 33.982086,4.6011635 c -0.853017,0 -1.559278,0.3485443 -2.109611,1.0548053 -0.403578,0.5136443 -0.642055,1.1006664 -0.724605,1.7610663 l -0.632884,0.6328832 z m 10.154356,-2.623255 c 0,-0.3944054 0.275167,-0.6695721 0.669572,-0.6787443 L 41.95345,4.6561968 c -0.137583,0.00917 -0.62371,0.00917 -1.476727,0.018344 -0.853016,0.00917 -1.339144,0 -1.467555,-0.00917 l -0.01835,0.7246054 c 0.486128,-0.036689 0.724606,0.2659944 0.724606,0.9080498 v 1.0548053 l -0.687917,0.6970888 0.697089,0.7062609 v 1.311628 c 0,0.403577 -0.238478,0.752122 -0.632883,0.779638 v 0.605367 l 2.834216,-0.01834 V 10.847451 C 41.513179,10.783241 41.31139,10.544768 41.31139,10.113674 V 8.7378348 L 41.962626,8.040746 41.311398,7.371174 Z m 8.448314,0.018345 c 0,-0.3760611 0.284339,-0.6512277 0.6604,-0.6603999 V 4.665369 c -0.07338,-0.00917 -0.467783,-0.00917 -1.174044,0 -0.706261,0 -1.091494,0.00917 -1.1557,0.018344 v 0.7337777 c 0.458611,0 0.687917,0.293511 0.687917,0.8897053 V 8.47184 l -3.302,-3.7972992 h -1.568449 v 0.8163276 c 0.3302,-0.00917 0.587022,0.1100667 0.770466,0.3393722 0.1651,0.210961 0.24765,0.4769554 0.24765,0.8163276 v 0.7154332 l -0.01834,-0.018344 -0.697089,0.706261 0.697089,0.7062609 0.01834,-0.00917 v 1.2932827 c 0,0.394406 -0.265994,0.706261 -0.642055,0.74295 v 0.678744 c 0.04586,0.0092 0.449438,0.0092 1.192388,0.0092 0.74295,0.0092 1.164872,-0.0092 1.256594,-0.04586 v -0.6604 C 46.23758,10.78324 45.98993,10.498901 45.98993,9.911879 V 7.8389572 l 3.091038,3.5588218 h 0.678744 V 8.747007 l 0.6604,-0.706261 -0.6604,-0.6787442 z m 2.935824,2.6049105 c 0.174272,1.4216936 0.898877,2.3297436 2.173816,2.7241486 0.174272,0.05503 0.403578,0.07338 0.669572,0.05503 0.467783,0.01834 1.302455,-0.0092 2.494844,-0.08255 V 9.4074069 c 0,-0.6145388 0.192617,-0.9814276 0.568678,-1.1006665 V 7.6188239 L 55.896641,7.5087573 v 0.7429498 c 0.41275,0.08255 0.752122,0.3852333 0.752122,0.788811 V 9.911879 c 0,0.504472 -0.385233,0.797983 -0.898878,0.797983 -0.541161,0 -0.926394,-0.321028 -1.164872,-0.963083 C 54.474947,9.4440957 54.401569,9.0955514 54.36488,8.7011459 L 54.988591,8.040746 54.374052,7.4078629 c 0.04586,-0.3944055 0.128411,-0.7521221 0.24765,-1.0639776 0.265995,-0.6879165 0.687917,-1.0364609 1.256594,-1.0364609 0.376061,0 0.715433,0.1375833 0.999772,0.4035777 0.284339,0.2659944 0.458611,0.5870221 0.522817,0.9630831 L 58.079629,6.4998131 57.657707,4.6470246 55.52058,4.6011635 c -0.853017,0 -1.559278,0.3485443 -2.109611,1.0548053 -0.403578,0.5136443 -0.642055,1.1006664 -0.724605,1.7610663 L 52.05348,8.0499183 Z M 68.13379,8.581907 68.95929,6.5181575 69.995751,8.5910793 Z M 70.49105,6.1604409 C 70.42684,6.041202 70.39933,5.9403076 70.39933,5.8485854 c 0,-0.1375833 0.06421,-0.2568222 0.201789,-0.3393721 0.110067,-0.073378 0.238478,-0.1100667 0.394406,-0.1192389 V 4.665369 h -3.329516 l -0.0092,0.7979832 c 0.08255,-0.00917 0.155928,-0.018345 0.229306,-0.018345 0.24765,0 0.366889,0.091722 0.366889,0.2843389 0,0.128411 -0.192617,0.6603998 -0.587022,1.5867941 l -1.063978,0.7337776 0.522817,0.5319887 -0.697089,1.6051385 c -0.1651,0.385233 -0.467783,0.587022 -0.917222,0.605366 v 0.605367 l 2.797527,0.01834 v -0.587022 c -0.559505,0.0092 -0.843844,-0.174272 -0.843844,-0.550333 0,-0.100895 0.08255,-0.3393719 0.238478,-0.7154329 h 2.843388 c 0.119239,0.1926166 0.192616,0.3301999 0.238478,0.4127499 0.110066,0.192616 0.1651,0.339372 0.1651,0.440266 0,0.146756 -0.110067,0.256822 -0.321028,0.3302 -0.155928,0.05503 -0.3302,0.08255 -0.513645,0.08255 v 0.605367 l 3.201105,0.02752 V 10.8291 c -0.256822,0.02752 -0.504472,-0.183444 -0.74295,-0.642055 L 71.720128,8.5360459 72.178739,8.040746 71.160623,7.453724 Z m 5.12797,2.5590494 v 1.2932827 c 0,0.394406 -0.265994,0.733778 -0.6604,0.779639 v 0.623711 c 1.889478,0.01835 2.898422,0.01835 3.017661,-0.0092 V 10.69149 C 77.545186,10.68229 77.251675,10.27874 77.251675,9.8384732 V 9.0130014 c 0,-0.2293055 0.1651,-0.3393722 0.504472,-0.3393722 0.3302,0 0.614539,0.2751667 0.862189,0.8254999 0.220133,0.5503329 0.385233,0.9630829 0.486128,1.2474219 0.293511,0.486128 0.724605,0.724605 1.293283,0.724605 0.321028,0 0.605366,-0.100894 0.853016,-0.311855 0.256822,-0.210961 0.385234,-0.467783 0.385234,-0.779639 0,-0.210961 -0.06421,-0.4402664 -0.201789,-0.6879163 -0.201789,0.3760613 -0.403578,0.5595053 -0.605367,0.5595053 -0.146755,0 -0.302683,-0.155928 -0.476955,-0.4677831 L 80.04003,9.1138958 C 79.847414,8.7928681 79.608936,8.5543904 79.324597,8.4076349 79.443836,8.3801182 79.563075,8.3526015 79.673141,8.3067404 L 80.78298,8.0224016 80.461952,7.5454462 c 0.09172,-0.2017889 0.137584,-0.4219222 0.137584,-0.6695721 0,-0.6512277 -0.210961,-1.1923886 -0.623711,-1.623483 -0.41275,-0.4310944 -0.953911,-0.6420554 -1.605139,-0.6420554 -2.072922,0.036689 -3.219449,0.055033 -3.439582,0.055033 v 0.8621887 c 0.07338,-0.027517 0.137583,-0.036689 0.201788,-0.036689 0.321028,0 0.486128,0.24765 0.486128,0.7521221 V 7.389518 l -0.6604,0.6603999 z m 3.448755,-2.1829884 c 0,0.8530165 -0.568678,1.4125219 -1.421694,1.4125219 -0.110067,0 -0.229306,-0.018344 -0.348545,-0.045861 V 6.4356075 c 0,-0.5595054 0.3302,-0.8438443 0.9906,-0.8438443 0.265995,0 0.458611,0.091722 0.596195,0.2843389 0.119238,0.1650999 0.183444,0.3852332 0.183444,0.6603998 z m 5.56824,2.164644 V 9.829329 c 0,0.210961 -0.03669,0.403578 -0.119238,0.57785 -0.100895,0.229305 -0.24765,0.339372 -0.431095,0.339372 v 0.678744 l 5.301544,0.02752 0.1651,-2.2196773 -0.74295,-0.091722 c -0.03669,0.9539103 -0.706261,1.5134163 -1.669344,1.5134163 -0.449439,0 -0.724606,-0.275167 -0.843845,-0.834672 -0.04586,-0.2017889 -0.06421,-0.6420554 -0.06421,-1.3116275 0.06421,-0.091722 0.174272,-0.1375833 0.311855,-0.1375833 0.220134,0 0.376061,0.045861 0.467784,0.1467555 0.06421,0.064205 0.137583,0.2109611 0.220133,0.4310944 h 0.733777 l -0.08255,-2.2288496 -0.642055,-0.027517 c -0.02752,0.6053665 -0.24765,0.9080498 -0.6604,0.9080498 -0.128411,0 -0.24765,-0.027517 -0.357716,-0.073378 0,-0.1100666 0,-0.1650999 0,-0.1650999 -0.0092,-0.1742722 -0.0092,-0.24765 -0.0092,-0.2201333 V 6.7658074 c 0,-0.4310943 0.07338,-0.7429498 0.210961,-0.9263942 0.155928,-0.2201333 0.449439,-0.3301999 0.871361,-0.3301999 0.632884,0 1.229078,0.4035777 1.348317,0.999772 l 0.522816,-0.1651 0.04586,-1.6509996 c -2.118782,0 -3.898193,0 -5.356576,0.00917 V 5.37163 c 0.275166,-0.045861 0.476955,0.073378 0.614539,0.3393721 0.100894,0.2109611 0.155927,0.458611 0.155927,0.7612943 V 7.4078629 L 83.99396,8.0499183 Z M 94.04741,8.581907 94.87291,6.5181575 95.909371,8.5910793 Z M 96.40467,6.1604409 C 96.34046,6.041202 96.31295,5.9403076 96.31295,5.8485854 c 0,-0.1375833 0.06421,-0.2568222 0.201789,-0.3393721 0.110067,-0.073378 0.238478,-0.1100667 0.394406,-0.1192389 V 4.665369 h -3.329516 l -0.0092,0.7979832 c 0.08255,-0.00917 0.155928,-0.018345 0.229306,-0.018345 0.24765,0 0.366889,0.091722 0.366889,0.2843389 0,0.128411 -0.192617,0.6603998 -0.587022,1.5867941 l -1.063978,0.7337776 0.522817,0.5319887 -0.697089,1.6051385 c -0.1651,0.385233 -0.467783,0.587022 -0.917222,0.605366 v 0.605367 l 2.797527,0.01834 v -0.587022 c -0.559505,0.0092 -0.843844,-0.174272 -0.843844,-0.550333 0,-0.100895 0.08255,-0.3393719 0.238478,-0.7154329 h 2.843388 c 0.119239,0.1926166 0.192616,0.3301999 0.238478,0.4127499 0.110066,0.192616 0.165099,0.339372 0.165099,0.440266 0,0.146756 -0.110066,0.256822 -0.321027,0.3302 -0.155928,0.05503 -0.3302,0.08255 -0.513645,0.08255 v 0.605367 l 3.201105,0.02752 V 10.8291 c -0.256822,0.02752 -0.504472,-0.183444 -0.74295,-0.642055 L 97.633748,8.5360459 98.092359,8.040746 97.074243,7.453724 Z"
         id="path3"
         inkscape:label="staging area"
         aria-label="staging area" />
      <path
         style="-inkscape-font-specification:'Fugaz One, Normal';display:inline;fill:#586e75;stroke-width:0.25;stroke-linecap:round;stroke-linejoin:round;stroke-dashoffset:134.173;paint-order:stroke markers fill"
         d="m 13.887273,9.6894751 h -1.259417 l -0.41275,2.3177499 h -1.905 L 11.65419,4.3872253 h 3.227916 q 1.195917,0 1.703917,0.5503333 0.370417,0.4233333 0.370417,1.0794999 0,0.22225 -0.04233,0.4656667 l -0.21167,1.1959166 q -0.15875,0.8784167 -0.931334,1.4499167 -0.772583,0.5609166 -1.883833,0.5609166 z m 0.328083,-3.6512499 h -0.9525 l -0.34925,2.00025 h 0.941917 q 0.867833,0 1.005417,-0.7725834 l 0.07408,-0.4339166 q 0.02117,-0.09525 0.02117,-0.254 0,-0.15875 -0.15875,-0.34925 -0.15875,-0.1905 -0.582084,-0.1905 z m 7.524756,5.9689998 0.0635,-1.661583 h -1.767416 l -0.518584,1.661583 h -2.021416 l 2.719916,-7.6199997 h 3.4925 l 0.04233,7.6199997 z M 21.306195,6.2393085 20.470112,8.9274751 h 1.386417 l 0.116416,-2.6881666 z m 6.455841,3.5983333 q 0,0.7302502 1.04775,0.7302502 1.058334,0 1.058334,-0.6561669 0,-0.34925 -0.359834,-0.5715 -0.359833,-0.22225 -0.878416,-0.3704166 -0.508,-0.1481667 -1.026584,-0.3386667 -0.508,-0.2010833 -0.867833,-0.6138333 -0.359833,-0.4233333 -0.359833,-1.04775 0,-2.6564166 3.418416,-2.6564166 1.248834,0 1.883834,0.47625 0.645583,0.4656667 0.645583,1.30175 0,0.3069166 -0.08467,0.5926666 -0.07408,0.2751667 -0.15875,0.3915834 l -0.08467,0.1269999 h -1.87325 q 0.232833,-0.2434166 0.232833,-0.6138333 0,-0.6879166 -0.899583,-0.6879166 -1.132417,0 -1.132417,0.7196666 0,0.3598334 0.359833,0.5715 0.359834,0.2116667 0.867834,0.3386667 0.518583,0.1164166 1.037166,0.2963333 0.518584,0.1799167 0.878417,0.60325 0.359833,0.41275 0.359833,1.0794999 0,1.3440836 -0.804333,2.0002496 -0.804333,0.645584 -2.4765,0.645584 -1.672167,0 -2.286,-0.592667 -0.455083,-0.4445 -0.455083,-1.227667 0,-0.296333 0.0635,-0.6455829 l 0.03175,-0.1693333 h 1.905 l -0.02117,0.127 q -0.02117,0.1058333 -0.02117,0.1905 z m 7.916342,0 q 0,0.7302502 1.04775,0.7302502 1.058333,0 1.058333,-0.6561669 0,-0.34925 -0.359833,-0.5715 -0.359833,-0.22225 -0.878417,-0.3704166 -0.508,-0.1481667 -1.026583,-0.3386667 -0.508,-0.2010833 -0.867833,-0.6138333 -0.359833,-0.4233333 -0.359833,-1.04775 0,-2.6564166 3.418416,-2.6564166 1.248833,0 1.883833,0.47625 0.645584,0.4656667 0.645584,1.30175 0,0.3069166 -0.08467,0.5926666 -0.07408,0.2751667 -0.15875,0.3915834 l -0.08467,0.1269999 h -1.87325 q 0.232834,-0.2434166 0.232834,-0.6138333 0,-0.6879166 -0.899584,-0.6879166 -1.132416,0 -1.132416,0.7196666 0,0.3598334 0.359833,0.5715 0.359833,0.2116667 0.867833,0.3386667 0.518584,0.1164166 1.037167,0.2963333 0.518583,0.1799167 0.878417,0.60325 0.359833,0.41275 0.359833,1.0794999 0,1.3440836 -0.804333,2.0002496 -0.804334,0.645584 -2.4765,0.645584 -1.672167,0 -2.286,-0.592667 -0.455083,-0.4445 -0.455083,-1.227667 0,-0.296333 0.0635,-0.6455829 l 0.03175,-0.1693333 h 1.904999 l -0.02117,0.127 q -0.02117,0.1058333 -0.02117,0.1905 z m 9.144007,-5.4504165 -1.3335,7.6199997 h -1.915584 l 1.344084,-7.6199997 z m 8.434921,0 -1.3335,7.6199997 h -1.915583 l -1.3335,-4.1698332 -0.719667,4.1698332 h -1.915583 l 1.344083,-7.6199997 h 1.9685 l 1.312333,3.8946665 0.687917,-3.8946665 z m 3.873505,7.7681667 q -1.502834,0 -2.074334,-0.6985 -0.391583,-0.486834 -0.391583,-1.3335 0,-0.3915836 0.08467,-0.8572502 L 55.11998,7.1494752 q 0.497417,-2.8363333 3.471333,-2.8363333 1.227667,0 1.862667,0.5291667 0.635,0.5185833 0.635,1.4287499 0,0.3704167 -0.105833,0.7514167 -0.09525,0.381 -0.1905,0.5715 l -0.105834,0.1905 h -1.87325 q 0.275167,-0.381 0.275167,-0.8784167 0,-0.9524999 -0.79375,-0.9524999 -1.068916,0 -1.280583,1.2382499 l -0.359833,2.032 q -0.05292,0.2857499 -0.05292,0.5609166 0,0.7302499 0.85725,0.7302499 0.867833,0 1.11125,-0.8678332 h -0.867833 l 0.211666,-1.17475 h 2.804583 l -0.169333,0.9101666 -0.05292,0.3069167 q -0.4445,2.4659169 -3.365499,2.4659169 z m 14.171082,-0.148167 h -5.577416 l 0.296333,-1.651 h 0.01058 L 70.12714,6.0382252 H 66.772227 L 67.06856,4.3872253 h 5.588 l -0.296333,1.6509999 -4.09575,4.3179998 h 3.33375 z m 6.413502,-7.6940831 q 2.550583,0 2.550583,2.0849166 0,0.34925 -0.07408,0.7514167 l -0.370417,2.1166666 q -0.254,1.4710832 -1.100666,2.1801662 -0.846667,0.709084 -2.38125,0.709084 -1.534584,0 -2.137834,-0.709084 -0.41275,-0.486833 -0.41275,-1.344083 0,-0.3809999 0.08467,-0.8360832 l 0.370417,-2.1166666 q 0.497416,-2.8363333 3.471333,-2.8363333 z m -1.090083,6.2018331 q 0.529166,0 0.846666,-0.275167 0.3175,-0.2751662 0.4445,-1.0159995 l 0.359834,-2.032 q 0.03175,-0.2116666 0.03175,-0.381 0,-0.8572499 -0.867834,-0.8572499 -1.090083,0.021167 -1.30175,1.2382499 l -0.359833,2.032 q -0.04233,0.2645833 -0.04233,0.5503333 0,0.7408332 0.889,0.7408332 z m 12.276659,-6.1277497 -1.3335,7.6199997 h -1.915584 l -1.3335,-4.1698332 -0.719666,4.1698332 h -1.915584 l 1.344084,-7.6199997 h 1.9685 l 1.312333,3.8946665 0.687917,-3.8946665 z m 6.529921,7.6199997 h -5.312833 l 1.344083,-7.6199997 h 5.312833 l -0.296333,1.6509999 h -3.407833 l -0.243417,1.42875 h 2.815167 l -0.296334,1.6509999 h -2.815166 l -0.211667,1.2382499 h 3.407833 z"
         id="path4"
         inkscape:label="passing zone"
         aria-label="PASSING ZONE" />
    </g>
    <path
       id="path5"
       style="display:inline;fill:#dc322f;stroke:none;stroke-width:0.506369;stroke-linecap:round;stroke-dashoffset:134.173;paint-order:stroke markers fill"
       inkscape:label="middle"
       d="m 202.27562,156.00024 c 0,2.216 1.82977,3.99976 4.10259,3.99976 h 71.79511 c 2.27281,0 4.10208,-1.78376 4.10208,-3.99976 V 55.000239 c 0,-2.216 -1.82927,-4.00028 -4.10208,-4.00028 h -71.79511 c -2.27282,0 -4.10259,1.78428 -4.10259,4.00028 z m 25.99996,-5.1e-4 V 55.000239 h 2.99982 V 155.99974 Z m 41.00009,0 V 55.000239 h 2.99982 V 155.99974 Z" />
    <path
       d="m 223.30488,8.234275 v 3.000326 2.99982 l -15.50035,-6e-6 v 3.000339 l -69.99984,-8e-6 1e-5,-3.000326 -15.49983,-5e-6 v -2.999819 l 0,-3.0003291 4.9997,9e-6 0,3.0003191 91.00011,6e-6 -1e-5,-3.0003311 z"
       style="display:inline;fill:#d33682;stroke-width:2;stroke-linecap:round;stroke-linejoin:round;stroke-dashoffset:134.173;paint-order:stroke markers fill"
       id="path27"
       inkscape:label="support" />
    <path
       d="m 223.30488,24.109276 v 3.000326 2.99982 l -15.50035,-6e-6 v 3.000339 l -69.99984,-8e-6 1e-5,-3.000326 -15.49983,-5e-6 v -2.999819 -3.000329 l 4.9997,9e-6 v 3.000319 l 91.00011,6e-6 -1e-5,-3.000331 z"
       style="display:inline;fill:#d33682;stroke-width:2;stroke-linecap:round;stroke-linejoin:round;stroke-dashoffset:134.173;paint-order:stroke markers fill"
       id="path6"
       inkscape:label="support" />
    <path
       d="m 339.72162,8.234275 v 3.000326 2.99982 l -15.50035,-6e-6 v 3.000339 l -69.99984,-8e-6 1e-5,-3.000326 -15.49983,-5e-6 V 11.234596 8.2342669 l 4.9997,9e-6 v 3.0003191 l 91.00011,6e-6 -1e-5,-3.0003311 z"
       style="display:inline;fill:#d33682;stroke-width:2;stroke-linecap:round;stroke-linejoin:round;stroke-dashoffset:134.173;paint-order:stroke markers fill"
       id="path7"
       inkscape:label="support" />
    <path
       d="m 339.72162,24.109276 v 3.000326 2.99982 l -15.50035,-6e-6 v 3.000339 l -69.99984,-8e-6 1e-5,-3.000326 -15.49983,-5e-6 v -2.999819 -3.000329 l 4.9997,9e-6 v 3.000319 l 91.00011,6e-6 -1e-5,-3.000331 z"
       style="display:inline;fill:#d33682;stroke-width:2;stroke-linecap:round;stroke-linejoin:round;stroke-dashoffset:134.173;paint-order:stroke markers fill"
       id="path8"
       inkscape:label="support" />
  </g>
</svg>
