<?xml version="1.0" encoding="UTF-8" standalone="no"?>
<!-- Created with Inkscape (http://www.inkscape.org/) -->

<svg
   width="3.5in"
   height="5in"
   viewBox="0 0 88.9 127.00001"
   version="1.1"
   id="svg1"
   inkscape:version="1.3.1 (91b66b0783, 2023-11-16)"
   sodipodi:docname="command-zone-holder.svg"
   xmlns:inkscape="http://www.inkscape.org/namespaces/inkscape"
   xmlns:sodipodi="http://sodipodi.sourceforge.net/DTD/sodipodi-0.dtd"
   xmlns="http://www.w3.org/2000/svg"
   xmlns:svg="http://www.w3.org/2000/svg">
  <sodipodi:namedview
     id="namedview1"
     pagecolor="#ffffff"
     bordercolor="#000000"
     borderopacity="0.25"
     inkscape:showpageshadow="2"
     inkscape:pageopacity="0.0"
     inkscape:pagecheckerboard="0"
     inkscape:deskcolor="#d1d1d1"
     inkscape:document-units="in"
     inkscape:zoom="1.375477"
     inkscape:cx="115.23275"
     inkscape:cy="207.20085"
     inkscape:window-width="1620"
     inkscape:window-height="1010"
     inkscape:window-x="-6"
     inkscape:window-y="-6"
     inkscape:window-maximized="1"
     inkscape:current-layer="layer1" />
  <defs
     id="defs1" />
  <g
     inkscape:label="Layer 1"
     inkscape:groupmode="layer"
     id="layer1">
    <path
       id="rect1"
       style="font-variation-settings:'wdth' 95.1, 'wght' 600;fill:#d56a11;stroke:#5b2d07;stroke-width:0.126909;stroke-linecap:round;stroke-linejoin:round;paint-order:fill markers stroke"
       d="M 3.2384548,-4.7091064e-5 H 85.661549 c 1.75895,0 3.175,1.416050091064 3.175,3.175000191064 V 123.82505 c 0,1.75895 -1.41605,3.175 -3.175,3.175 H 3.2384548 c -1.7589501,0 -3.17500014,-1.41605 -3.17500014,-3.175 V 3.1749531 c 0,-1.7589501 1.41605004,-3.175000191064 3.17500014,-3.175000191064 z"
       inkscape:label="cut" />
    <path
       style="color:#000000;display:inline;fill:#808080;stroke-linecap:round;stroke-linejoin:round;-inkscape-stroke:none;paint-order:fill markers stroke"
       d="M 7.9375005,17.2085 H 80.9625 c 1.75895,0 3.175,1.41605 3.175,3.175 v 98.425 c 0,1.75895 -1.41605,3.175 -3.175,3.175 H 7.9375005 c -1.7589501,0 -3.1750002,-1.41605 -3.1750002,-3.175 v -98.425 c 0,-1.75895 1.4160501,-3.175 3.1750002,-3.175 z"
       id="path7"
       inkscape:label="card fill" />
    <path
       style="color:#000000;display:inline;fill:#5b2d07;stroke-linecap:round;stroke-linejoin:round;-inkscape-stroke:none;paint-order:fill markers stroke"
       d="m 7.9375,17.144531 c -1.7930289,0 -3.2382812,1.445253 -3.2382813,3.238281 v 98.425778 c 0,1.79303 1.4452524,3.23829 3.2382813,3.23829 h 73.025391 c 1.793029,0 3.238281,-1.44526 3.238281,-3.23829 V 20.382812 c 0,-1.793028 -1.445252,-3.238281 -3.238281,-3.238281 z m 0,0.126953 h 73.025391 c 1.724867,0 3.111328,1.386461 3.111328,3.111328 v 98.425778 c 0,1.72487 -1.386461,3.11133 -3.111328,3.11133 H 7.9375 c -1.7248678,0 -3.1113281,-1.38646 -3.1113281,-3.11133 V 20.382812 c 0,-1.724867 1.3864603,-3.111328 3.1113281,-3.111328 z"
       id="path8"
       inkscape:label="card border" />
    <path
       style="color:#000000;-inkscape-font-specification:&quot;Baxter's Slab, Normal&quot;;fill:#808080;stroke-linecap:round;stroke-linejoin:round;-inkscape-stroke:none;paint-order:fill markers stroke"
       d="M 5.8649624,12.832226 4.6302411,11.684321 V 5.944796 L 5.8649624,4.7968911 H 8.9517656 L 10.186487,5.944796 V 7.092701 H 8.334405 V 5.944796 H 6.482323 v 5.739525 h 1.852082 v -1.147905 h 1.852082 v 1.147905 L 8.9517656,12.832226 Z M 15.125372,11.684321 V 5.944796 H 13.27329 v 5.739525 z m -2.469443,1.147905 -1.234721,-1.147905 V 5.944796 l 1.234721,-1.1479049 h 3.086804 l 1.234721,1.1479049 v 5.739525 l -1.234721,1.147905 z m 5.556246,0 V 5.944796 H 17.594814 V 4.7968911 h 2.469443 V 6.5235716 L 21.916339,8.240606 23.768421,6.5235716 V 4.7968911 h 1.852082 v 6.8874299 h 0.617361 v 1.147905 H 23.768421 V 8.8193816 L 21.916339,10.536416 20.064257,8.8193816 v 4.0128444 z m 8.643049,0 v -6.88743 h -0.61736 V 4.7968911 h 2.469442 V 6.5235716 L 30.559388,8.240606 32.41147,6.5235716 V 4.7968911 h 1.852082 v 6.8874299 h 0.617361 v 1.147905 H 32.41147 V 8.8193816 L 30.559388,10.536416 28.707306,8.8193816 v 4.0128444 z m 12.347213,-4.59162 v -2.29581 h -1.852082 v 2.29581 z m -3.704163,4.59162 V 9.3885109 H 34.880913 V 8.240606 h 0.617361 v -2.29581 l 1.234721,-1.1479049 h 3.086803 l 1.234721,1.1479049 v 5.739525 h 0.617361 v 1.147905 H 39.202437 V 9.3885109 h -1.852082 v 3.4437151 z m 6.790967,0 v -6.88743 h -0.61736 V 4.7968911 h 2.469442 V 6.5235716 L 45.993405,8.240606 V 4.7968911 h 1.852082 v 6.8874299 h 0.617361 v 1.147905 h -2.469443 v -2.29581 L 44.141323,8.8193816 v 4.0128444 z m 10.49513,-1.147905 V 5.944796 h -1.852082 v 5.739525 z m -3.704164,1.147905 v -6.88743 h -0.61736 V 4.7968911 h 4.938885 l 1.234721,1.1479049 v 5.739525 l -1.234721,1.147905 z m 9.260411,0 V 9.9672865 L 62.044782,6.5235716 V 5.944796 H 60.1927 V 7.092701 H 58.340618 V 4.7968911 h 5.556246 V 7.092701 L 60.1927,10.536416 v 1.147905 h 1.852082 v -1.147905 h 1.852082 v 2.29581 z m 10.49513,-1.147905 V 5.944796 h -1.852082 v 5.739525 z m -2.469443,1.147905 -1.234721,-1.147905 V 5.944796 l 1.234721,-1.1479049 h 3.086803 L 70.68783,5.944796 v 5.739525 l -1.234722,1.147905 z m 5.556249,0 V 5.944796 H 71.305193 V 4.7968911 h 2.469443 V 6.5235716 L 75.626718,8.240606 V 4.7968911 H 77.4788 v 6.8874299 h 0.61736 v 1.147905 h -2.469442 v -2.29581 L 73.774636,8.8193816 v 4.0128444 z m 6.790962,0 V 5.944796 H 78.096155 V 4.7968911 h 6.173607 V 7.092701 H 82.41768 V 5.944796 h -1.852082 v 2.29581 h 2.469442 v 1.1479049 h -2.469442 v 2.2958101 h 1.852082 v -1.147905 h 1.852082 v 2.29581 z"
       id="path5"
       inkscape:label="text fill" />
    <path
       style="color:#000000;-inkscape-font-specification:&quot;Baxter's Slab, Normal&quot;;display:inline;fill:#000000;stroke-linecap:round;stroke-linejoin:round;-inkscape-stroke:none;paint-order:fill markers stroke"
       d="M 5.8652344,4.7324219 A 0.06350635,0.06350635 0 0 0 5.8222656,4.75 l -1.234375,1.1484375 a 0.06350635,0.06350635 0 0 0 -0.021484,0.046875 v 5.7382815 a 0.06350635,0.06350635 0 0 0 0.021484,0.04687 l 1.234375,1.148437 a 0.06350635,0.06350635 0 0 0 0.042969,0.01758 h 3.0859375 a 0.06350635,0.06350635 0 0 0 0.042969,-0.01758 L 10.230469,11.730469 A 0.06350635,0.06350635 0 0 0 10.25,11.683594 v -1.146485 a 0.06350635,0.06350635 0 0 0 -0.06445,-0.06445 H 8.3339844 a 0.06350635,0.06350635 0 0 0 -0.0625,0.06445 v 1.083985 H 6.5449219 V 6.0078125 h 1.7265625 v 1.0839844 a 0.06350635,0.06350635 0 0 0 0.0625,0.064453 H 10.185547 A 0.06350635,0.06350635 0 0 0 10.25,7.0917969 V 5.9453125 A 0.06350635,0.06350635 0 0 0 10.23047,5.8984375 L 8.9941406,4.75 A 0.06350635,0.06350635 0 0 0 8.9511716,4.732422 Z m 6.7910156,0 A 0.06350635,0.06350635 0 0 0 12.613281,4.75 l -1.234375,1.1484375 a 0.06350635,0.06350635 0 0 0 -0.02148,0.046875 v 5.7382815 a 0.06350635,0.06350635 0 0 0 0.02148,0.04687 l 1.234375,1.148437 a 0.06350635,0.06350635 0 0 0 0.04297,0.01758 h 3.085938 a 0.06350635,0.06350635 0 0 0 0.04297,-0.01758 l 1.236328,-1.148437 a 0.06350635,0.06350635 0 0 0 0.01953,-0.04687 V 5.9453125 a 0.06350635,0.06350635 0 0 0 -0.01953,-0.046875 L 15.785156,4.75 a 0.06350635,0.06350635 0 0 0 -0.04297,-0.017578 z m 4.939453,0 a 0.06350635,0.06350635 0 0 0 -0.06445,0.064453 v 1.1484375 a 0.06350635,0.06350635 0 0 0 0.06445,0.0625 h 0.552734 v 6.8242186 a 0.06350635,0.06350635 0 0 0 0.06445,0.06445 h 1.851562 a 0.06350635,0.06350635 0 0 0 0.0625,-0.06445 V 8.9628906 l 1.746094,1.6191404 a 0.06350635,0.06350635 0 0 0 0.08594,0 l 1.746094,-1.6171872 v 3.8671872 a 0.06350635,0.06350635 0 0 0 0.0625,0.06445 h 2.470703 a 0.06350635,0.06350635 0 0 0 0.0625,-0.06445 v -1.148437 a 0.06350635,0.06350635 0 0 0 -0.0625,-0.0625 H 25.683594 V 4.796875 a 0.06350635,0.06350635 0 0 0 -0.0625,-0.064453 h -1.853516 a 0.06350635,0.06350635 0 0 0 -0.0625,0.064453 V 6.4960937 L 21.916016,8.1542969 20.126953,6.4960937 V 4.796875 a 0.06350635,0.06350635 0 0 0 -0.0625,-0.064453 z m 8.642578,0 a 0.06350635,0.06350635 0 0 0 -0.06445,0.064453 v 1.1484375 a 0.06350635,0.06350635 0 0 0 0.06445,0.0625 h 0.552735 v 6.8242186 a 0.06350635,0.06350635 0 0 0 0.06445,0.06445 h 1.851562 a 0.06350635,0.06350635 0 0 0 0.06445,-0.06445 V 8.9648438 l 1.744141,1.6171872 a 0.06350635,0.06350635 0 0 0 0.08789,0 l 1.74414,-1.6171872 v 3.8671872 a 0.06350635,0.06350635 0 0 0 0.06445,0.06445 h 2.46875 a 0.06350635,0.06350635 0 0 0 0.06445,-0.06445 v -1.148437 a 0.06350635,0.06350635 0 0 0 -0.06445,-0.0625 H 34.326172 V 4.796875 a 0.06350635,0.06350635 0 0 0 -0.0625,-0.064453 h -1.851563 a 0.06350635,0.06350635 0 0 0 -0.06445,0.064453 V 6.4960937 L 30.558594,8.1542969 28.771484,6.4960937 V 4.796875 a 0.06350635,0.06350635 0 0 0 -0.06445,-0.064453 z m 10.494141,0 A 0.06350635,0.06350635 0 0 0 36.689453,4.75 l -1.234375,1.1484375 a 0.06350635,0.06350635 0 0 0 -0.01953,0.046875 V 8.1777344 H 34.88086 a 0.06350635,0.06350635 0 0 0 -0.0625,0.0625 v 1.1484375 a 0.06350635,0.06350635 0 0 0 0.0625,0.0625 h 0.554688 v 3.3808591 a 0.06350635,0.06350635 0 0 0 0.0625,0.06445 h 1.851562 a 0.06350635,0.06350635 0 0 0 0.06445,-0.06445 V 9.4511719 h 1.72461 v 3.3808591 a 0.06350635,0.06350635 0 0 0 0.06445,0.06445 h 2.46875 a 0.06350635,0.06350635 0 0 0 0.06445,-0.06445 v -1.148437 a 0.06350635,0.06350635 0 0 0 -0.06445,-0.0625 H 41.117187 V 5.9453125 a 0.06350635,0.06350635 0 0 0 -0.01953,-0.046875 L 39.863281,4.75 a 0.06350635,0.06350635 0 0 0 -0.04297,-0.017578 z m 4.939453,0 a 0.06350635,0.06350635 0 0 0 -0.06445,0.064453 v 1.1484375 a 0.06350635,0.06350635 0 0 0 0.06445,0.0625 h 0.554687 v 6.8242186 a 0.06350635,0.06350635 0 0 0 0.0625,0.06445 h 1.851563 a 0.06350635,0.06350635 0 0 0 0.06445,-0.06445 V 8.9648438 l 1.724609,1.5996092 v 2.267578 a 0.06350635,0.06350635 0 0 0 0.06445,0.06445 h 2.46875 a 0.06350635,0.06350635 0 0 0 0.0625,-0.06445 v -1.148437 a 0.06350635,0.06350635 0 0 0 -0.0625,-0.0625 H 47.908203 V 4.796875 a 0.06350635,0.06350635 0 0 0 -0.0625,-0.064453 h -1.851562 a 0.06350635,0.06350635 0 0 0 -0.06445,0.064453 V 8.09375 L 44.205078,6.4960937 V 4.796875 a 0.06350635,0.06350635 0 0 0 -0.06445,-0.064453 z m 6.791016,0 a 0.06350635,0.06350635 0 0 0 -0.06445,0.064453 v 1.1484375 a 0.06350635,0.06350635 0 0 0 0.06445,0.0625 h 0.554687 v 6.8242186 a 0.06350635,0.06350635 0 0 0 0.0625,0.06445 h 4.322266 a 0.06350635,0.06350635 0 0 0 0.04297,-0.01758 l 1.234375,-1.148437 a 0.06350635,0.06350635 0 0 0 0.01953,-0.04687 V 5.9453125 a 0.06350635,0.06350635 0 0 0 -0.01953,-0.046875 L 53.445312,4.75 a 0.06350635,0.06350635 0 0 0 -0.04297,-0.017578 z m 9.876953,0 a 0.06350635,0.06350635 0 0 0 -0.0625,0.064453 v 2.2949219 a 0.06350635,0.06350635 0 0 0 0.0625,0.064453 h 1.853515 a 0.06350635,0.06350635 0 0 0 0.0625,-0.064453 V 6.0078125 h 1.72461 v 0.4882812 l -3.683594,3.4238282 a 0.06350635,0.06350635 0 0 0 -0.01953,0.046875 v 2.8652341 a 0.06350635,0.06350635 0 0 0 0.0625,0.06445 h 5.55664 a 0.06350635,0.06350635 0 0 0 0.06445,-0.06445 v -2.294922 a 0.06350635,0.06350635 0 0 0 -0.06445,-0.06445 h -1.851562 a 0.06350635,0.06350635 0 0 0 -0.06445,0.06445 v 1.083985 h -1.72461 v -1.056641 l 3.683594,-3.4257811 a 0.06350635,0.06350635 0 0 0 0.02148,-0.046875 V 4.796875 a 0.06350635,0.06350635 0 0 0 -0.06445,-0.064453 z m 8.027343,0 A 0.06350635,0.06350635 0 0 0 66.322266,4.75 l -1.234375,1.1484375 a 0.06350635,0.06350635 0 0 0 -0.01953,0.046875 v 5.7382815 a 0.06350635,0.06350635 0 0 0 0.01953,0.04687 l 1.234375,1.148437 a 0.06350635,0.06350635 0 0 0 0.04492,0.01758 h 3.085938 a 0.06350635,0.06350635 0 0 0 0.04297,-0.01758 l 1.234375,-1.148437 a 0.06350635,0.06350635 0 0 0 0.02148,-0.04687 V 5.9453125 a 0.06350635,0.06350635 0 0 0 -0.02148,-0.046875 L 69.496094,4.75 a 0.06350635,0.06350635 0 0 0 -0.04297,-0.017578 z m 4.9375,0 a 0.06350635,0.06350635 0 0 0 -0.0625,0.064453 v 1.1484375 a 0.06350635,0.06350635 0 0 0 0.0625,0.0625 h 0.554688 v 6.8242186 a 0.06350635,0.06350635 0 0 0 0.0625,0.06445 h 1.853516 a 0.06350635,0.06350635 0 0 0 0.0625,-0.06445 V 8.9628906 L 75.5625,10.564453 v 2.267578 a 0.06350635,0.06350635 0 0 0 0.06445,0.06445 h 2.46875 a 0.06350635,0.06350635 0 0 0 0.06445,-0.06445 v -1.148437 a 0.06350635,0.06350635 0 0 0 -0.06445,-0.0625 H 77.542969 V 4.796875 A 0.06350635,0.06350635 0 0 0 77.478519,4.732422 H 75.626953 A 0.06350635,0.06350635 0 0 0 75.5625,4.796875 V 8.09375 L 73.837891,6.4960937 V 4.796875 a 0.06350635,0.06350635 0 0 0 -0.0625,-0.064453 z m 6.791016,0 a 0.06350635,0.06350635 0 0 0 -0.0625,0.064453 v 1.1484375 a 0.06350635,0.06350635 0 0 0 0.0625,0.0625 h 0.554688 v 6.8242186 a 0.06350635,0.06350635 0 0 0 0.0625,0.06445 h 5.55664 a 0.06350635,0.06350635 0 0 0 0.06445,-0.06445 v -2.294922 a 0.06350635,0.06350635 0 0 0 -0.06445,-0.06445 h -1.851562 a 0.06350635,0.06350635 0 0 0 -0.06445,0.06445 v 1.083985 h -1.72461 V 9.4511719 h 2.40625 a 0.06350635,0.06350635 0 0 0 0.0625,-0.0625 V 8.2402344 a 0.06350635,0.06350635 0 0 0 -0.0625,-0.0625 h -2.40625 V 6.0078125 h 1.72461 v 1.0839844 a 0.06350635,0.06350635 0 0 0 0.06445,0.064453 h 1.851562 a 0.06350635,0.06350635 0 0 0 0.06445,-0.064453 V 4.796875 A 0.06350635,0.06350635 0 0 0 84.269531,4.732422 Z M 5.890625,4.8613281 H 8.9277344 L 10.123047,5.9726562 V 7.0292969 H 8.3984375 V 5.9453125 A 0.06350635,0.06350635 0 0 0 8.3339844,5.8808594 H 6.4824219 a 0.06350635,0.06350635 0 0 0 -0.064453,0.064453 v 5.7382816 a 0.06350635,0.06350635 0 0 0 0.064453,0.06445 h 1.8515625 a 0.06350635,0.06350635 0 0 0 0.064453,-0.06445 V 10.599609 H 10.123047 V 11.65625 L 8.9277344,12.769531 H 5.890625 L 4.6933594,11.65625 V 5.9726562 Z m 6.791016,0 h 3.037109 l 1.195312,1.1113281 V 11.65625 L 15.71875,12.769531 H 12.681641 L 11.484375,11.65625 V 5.9726562 Z m 4.976562,0 H 20 v 1.6621094 a 0.06350635,0.06350635 0 0 0 0.02148,0.046875 l 1.851563,1.7167969 a 0.06350635,0.06350635 0 0 0 0.08594,0 L 23.8125,6.5703125 a 0.06350635,0.06350635 0 0 0 0.01953,-0.046875 V 4.8613281 h 1.72461 v 6.8222659 a 0.06350635,0.06350635 0 0 0 0.06445,0.06445 h 0.552734 v 1.021484 H 23.832031 V 8.8203125 A 0.06350635,0.06350635 0 0 0 23.724609,8.7734375 L 21.916016,10.449219 20.107422,8.7734375 A 0.06350635,0.06350635 0 0 0 20,8.8203125 V 12.769531 H 18.275391 V 5.9453125 a 0.06350635,0.06350635 0 0 0 -0.0625,-0.064453 h -0.554688 z m 8.642578,0 h 2.34375 v 1.6621094 a 0.06350635,0.06350635 0 0 0 0.01953,0.046875 l 1.851563,1.7167969 a 0.06350635,0.06350635 0 0 0 0.08789,0 l 1.851562,-1.7167969 a 0.06350635,0.06350635 0 0 0 0.01953,-0.046875 V 4.8613281 h 1.72461 v 6.8222659 a 0.06350635,0.06350635 0 0 0 0.06445,0.06445 h 0.554687 v 1.021484 h -2.34375 V 8.8203125 A 0.06350635,0.06350635 0 0 0 32.369141,8.7734375 L 30.558594,10.449219 28.75,8.7734375 a 0.06350635,0.06350635 0 0 0 -0.105469,0.046875 V 12.769531 H 26.917969 V 5.9453125 a 0.06350635,0.06350635 0 0 0 -0.0625,-0.064453 h -0.554688 z m 10.457031,0 h 3.03711 l 1.195312,1.1113281 v 5.7109378 a 0.06350635,0.06350635 0 0 0 0.06445,0.06445 h 0.552735 v 1.021484 H 39.265625 V 9.3886719 a 0.06350635,0.06350635 0 0 0 -0.0625,-0.064453 h -1.853516 a 0.06350635,0.06350635 0 0 0 -0.0625,0.064453 V 12.769531 H 35.5625 V 9.3886719 A 0.06350635,0.06350635 0 0 0 35.49805,9.3242189 H 34.945312 V 8.3046875 h 0.552735 A 0.06350635,0.06350635 0 0 0 35.5625,8.2402344 V 5.9726562 Z m 4.978516,0 h 2.341797 v 1.6621094 a 0.06350635,0.06350635 0 0 0 0.01953,0.046875 l 1.853516,1.7167969 A 0.06350635,0.06350635 0 0 0 46.05664,8.2402344 V 4.8613281 h 1.724609 v 6.8222659 a 0.06350635,0.06350635 0 0 0 0.06445,0.06445 h 0.552734 v 1.021484 h -2.341796 v -2.232422 a 0.06350635,0.06350635 0 0 0 -0.01953,-0.04687 L 44.183594,8.7734375 a 0.06350635,0.06350635 0 0 0 -0.105469,0.046875 V 12.769531 H 42.353516 V 5.9453125 a 0.06350635,0.06350635 0 0 0 -0.06445,-0.064453 h -0.552734 z m 6.789063,0 h 4.851562 l 1.195313,1.1113281 V 11.65625 l -1.195313,1.113281 H 49.144531 V 5.9453125 a 0.06350635,0.06350635 0 0 0 -0.06445,-0.064453 h -0.554687 z m 9.878906,0 h 5.429687 v 2.203125 l -3.683593,3.4257809 a 0.06350635,0.06350635 0 0 0 -0.02148,0.04687 v 1.146485 a 0.06350635,0.06350635 0 0 0 0.06445,0.06445 h 1.851563 a 0.06350635,0.06350635 0 0 0 0.0625,-0.06445 v -1.083985 h 1.726562 v 2.169922 H 58.404297 V 9.9941406 l 3.683594,-3.4238281 a 0.06350635,0.06350635 0 0 0 0.01953,-0.046875 v -0.578125 a 0.06350635,0.06350635 0 0 0 -0.0625,-0.064453 h -1.851563 a 0.06350635,0.06350635 0 0 0 -0.06445,0.064453 v 1.0839844 h -1.724609 z m 7.986328,0 h 3.037109 L 70.625,5.9726562 V 11.65625 l -1.197266,1.113281 H 66.392578 L 65.195312,11.65625 V 5.9726562 Z m 4.978516,0 h 2.341796 v 1.6621094 a 0.06350635,0.06350635 0 0 0 0.02148,0.046875 l 1.851562,1.7167969 a 0.06350635,0.06350635 0 0 0 0.105469,-0.046875 V 4.8613281 h 1.726563 v 6.8222659 a 0.06350635,0.06350635 0 0 0 0.0625,0.06445 h 0.554687 v 1.021484 h -2.34375 v -2.232422 a 0.06350635,0.06350635 0 0 0 -0.01953,-0.04687 L 73.818359,8.7734375 a 0.06350635,0.06350635 0 0 0 -0.107422,0.046875 V 12.769531 H 71.986328 V 5.9453125 a 0.06350635,0.06350635 0 0 0 -0.06445,-0.064453 h -0.552734 z m 6.791015,0 h 6.046875 V 7.0292969 H 82.480469 V 5.9453125 a 0.06350635,0.06350635 0 0 0 -0.0625,-0.064453 h -1.851563 a 0.06350635,0.06350635 0 0 0 -0.06445,0.064453 v 2.2949219 a 0.06350635,0.06350635 0 0 0 0.06445,0.064453 h 2.404297 v 1.0195313 h -2.404297 a 0.06350635,0.06350635 0 0 0 -0.06445,0.064453 v 2.2949223 a 0.06350635,0.06350635 0 0 0 0.06445,0.06445 h 1.851563 a 0.06350635,0.06350635 0 0 0 0.0625,-0.06445 v -1.083985 h 1.726562 v 2.169922 H 78.777344 V 5.9453125 a 0.06350635,0.06350635 0 0 0 -0.06445,-0.064453 H 78.160156 Z M 13.273438,5.8808594 a 0.06350635,0.06350635 0 0 0 -0.06445,0.064453 v 5.7382816 a 0.06350635,0.06350635 0 0 0 0.06445,0.06445 H 15.125 a 0.06350635,0.06350635 0 0 0 0.06445,-0.06445 V 5.9453125 A 0.06350635,0.06350635 0 0 0 15.125,5.8808594 Z m 24.076171,0 a 0.06350635,0.06350635 0 0 0 -0.0625,0.064453 v 2.2949219 a 0.06350635,0.06350635 0 0 0 0.0625,0.064453 h 1.853516 a 0.06350635,0.06350635 0 0 0 0.0625,-0.064453 V 5.9453125 a 0.06350635,0.06350635 0 0 0 -0.0625,-0.064453 z m 13.582032,0 a 0.06350635,0.06350635 0 0 0 -0.0625,0.064453 v 5.7382816 a 0.06350635,0.06350635 0 0 0 0.0625,0.06445 h 1.853515 a 0.06350635,0.06350635 0 0 0 0.0625,-0.06445 V 5.9453125 a 0.06350635,0.06350635 0 0 0 -0.0625,-0.064453 z m 16.052734,0 a 0.06350635,0.06350635 0 0 0 -0.06445,0.064453 v 5.7382816 a 0.06350635,0.06350635 0 0 0 0.06445,0.06445 h 1.851562 a 0.06350635,0.06350635 0 0 0 0.0625,-0.06445 V 5.9453125 a 0.06350635,0.06350635 0 0 0 -0.0625,-0.064453 z M 13.335938,6.0078125 H 15.0625 v 5.6132815 h -1.726562 z m 24.078124,0 h 1.72461 v 2.1699219 h -1.72461 z m 13.582032,0 h 1.724609 v 5.6132815 h -1.724609 z m 16.050781,0 h 1.724609 v 5.6132815 h -1.724609 z"
       id="path6"
       inkscape:label="text border" />
  </g>
</svg>
