<?xml version="1.0" encoding="UTF-8" standalone="no"?>
<!-- Created with Inkscape (http://www.inkscape.org/) -->

<svg
   width="2.75in"
   height="1.25in"
   viewBox="0 0 69.85 31.75"
   version="1.1"
   id="svg1"
   inkscape:version="1.3.1 (91b66b0783, 2023-11-16)"
   sodipodi:docname="dihada-token.svg"
   xmlns:inkscape="http://www.inkscape.org/namespaces/inkscape"
   xmlns:sodipodi="http://sodipodi.sourceforge.net/DTD/sodipodi-0.dtd"
   xmlns="http://www.w3.org/2000/svg"
   xmlns:svg="http://www.w3.org/2000/svg">
  <sodipodi:namedview
     id="namedview1"
     pagecolor="#ffffff"
     bordercolor="#000000"
     borderopacity="0.25"
     inkscape:showpageshadow="2"
     inkscape:pageopacity="0.0"
     inkscape:pagecheckerboard="false"
     inkscape:deskcolor="#d1d1d1"
     inkscape:document-units="in"
     inkscape:zoom="1.4142136"
     inkscape:cx="90.863222"
     inkscape:cy="-41.7193"
     inkscape:window-width="1620"
     inkscape:window-height="1010"
     inkscape:window-x="-6"
     inkscape:window-y="-6"
     inkscape:window-maximized="1"
     inkscape:current-layer="layer2"
     showguides="true" />
  <defs
     id="defs1">
    <rect
       x="162.96371"
       y="64.774223"
       width="129.04063"
       height="64.68602"
       id="rect2" />
    <rect
       x="162.96371"
       y="64.774223"
       width="129.04063"
       height="64.68602"
       id="rect4" />
    <rect
       x="162.96371"
       y="64.774223"
       width="129.04063"
       height="64.68602"
       id="rect3" />
    <rect
       x="162.96371"
       y="64.774223"
       width="129.04063"
       height="64.68602"
       id="rect16" />
  </defs>
  <g
     inkscape:groupmode="layer"
     id="layer2"
     inkscape:label="RAW"
     style="display:none">
    <rect
       style="fill:#ffe9a6;stroke:none;stroke-width:0.15;stroke-linecap:round;stroke-linejoin:round"
       id="rect1"
       width="63.5"
       height="25.4"
       x="3.175"
       y="3.1750002"
       rx="3.175"
       ry="3.175"
       inkscape:label="cut" />
    <rect
       style="display:inline;fill:#ffe9a6;stroke:#000000;stroke-width:0.508;stroke-linecap:round;stroke-linejoin:round;stroke-dasharray:none"
       id="rect5"
       width="60.325001"
       height="22.225"
       x="4.7624998"
       y="4.7624998"
       rx="2.54"
       ry="2.54"
       inkscape:label="border" />
    <path
       id="rect6"
       style="display:inline;fill:#000000;fill-opacity:1;stroke:none;stroke-width:0.15;stroke-linecap:round;stroke-linejoin:round"
       inkscape:label="inset"
       d="M 7.3023966,4.7625 C 5.8952381,4.7625 4.7625,5.8952381 4.7625,7.3023966 V 24.447603 c 0,1.407159 1.1327381,2.539897 2.5398966,2.539897 H 26.789062 V 4.7625 Z" />
    <text
       xml:space="preserve"
       id="text4"
       style="font-style:normal;font-variant:normal;font-weight:normal;font-stretch:normal;font-size:18.6667px;line-height:1.1;font-family:'Franklin Gothic Medium Cond';-inkscape-font-specification:'Franklin Gothic Medium Cond, Normal';font-variant-ligatures:normal;font-variant-caps:normal;font-variant-numeric:normal;font-variant-east-asian:normal;letter-spacing:0.4px;white-space:pre;shape-inside:url(#rect4);display:inline;fill:#856404"
       transform="matrix(0.26458333,0,0,0.26458333,-13.417449,-9.1818204)"
       inkscape:label="raw font"><tspan
         x="162.96289"
         y="80.390288"
         id="tspan1">INDESTRUCTIBLE
</tspan><tspan
         x="162.96289"
         y="100.92366"
         id="tspan2">LIFELINK
</tspan><tspan
         x="162.96289"
         y="121.45703"
         id="tspan3">VIGILANCE</tspan></text>
    <g
       id="g14"
       inkscape:label="crown"
       style="display:inline"
       transform="matrix(0.85326598,0,0,0.85326598,-7.563926,-6.4579529)">
      <path
         id="path4"
         style="color:#000000;fill:#856404;stroke-width:0.860652;stroke-linecap:round;stroke-linejoin:round;-inkscape-stroke:none"
         d="m 18.729969,31.866996 c 0,0.226912 0.150779,0.414083 0.317352,0.5398 0.166574,0.125718 0.364636,0.216829 0.596524,0.3015 0.463777,0.169343 1.071923,0.304883 1.816298,0.419845 1.488751,0.229922 3.505941,0.36832 5.735224,0.36832 2.229287,0 4.246475,-0.138398 5.735225,-0.36832 0.744375,-0.114962 1.354428,-0.250502 1.818207,-0.419845 0.231888,-0.08467 0.429951,-0.175782 0.596523,-0.3015 0.166573,-0.125717 0.34802,-0.303228 0.317352,-0.5398 0,0 -0.06335,-0.382327 -0.280544,-0.23025 -0.217197,0.152077 -0.401434,0.227696 -0.633323,0.312368 -0.463779,0.169342 -1.073832,0.303276 -1.818207,0.418235 -1.488749,0.229923 -3.505938,0.36832 -5.735225,0.36832 -2.229283,0 -4.246474,-0.138397 -5.735224,-0.36832 -0.744377,-0.114959 -1.352521,-0.248893 -1.816298,-0.418235 -0.231889,-0.08467 -0.372924,-0.15128 -0.596048,-0.302707 -0.223123,-0.151427 -0.317836,0.151791 -0.317836,0.220589 z"
         sodipodi:nodetypes="ssssssssczssssszs"
         inkscape:label="backring" />
      <path
         id="path13"
         style="display:inline;fill:#856404;fill-opacity:1;stroke:#d6a206;stroke-width:0;stroke-linejoin:round;stroke-dasharray:none;stroke-opacity:1"
         inkscape:label="crown back"
         d="m 21.604883,20.870561 c -0.49697,1.285476 -1.256161,2.199111 -1.99471,2.83962 0.210678,0.0634 0.428499,0.115981 0.653706,0.150379 0.979374,0.149588 2.074875,-0.0024 3.22461,-0.824239 0.103375,-0.07389 0.206949,-0.155531 0.311092,-0.240813 -0.803759,-0.410698 -1.599454,-1.01783 -2.194698,-1.924947 z m 11.181229,0 c -0.594984,0.906723 -1.390339,1.513734 -2.193664,1.924431 0.104327,0.08546 0.208569,0.167302 0.312126,0.241329 1.149691,0.821812 2.245293,0.973826 3.224609,0.824239 0.224662,-0.03432 0.441474,-0.08718 0.65164,-0.150379 -0.738582,-0.640513 -1.497718,-1.554092 -1.994711,-2.83962 z" />
      <path
         id="path11"
         style="color:#000000;fill:#ffe9a6;fill-opacity:1;stroke-width:1.02284;stroke-linecap:round;stroke-linejoin:round;-inkscape-stroke:none"
         d="m 17.881423,30.930092 c 0,-0.291303 0.165886,-0.531589 0.349151,-0.692981 0.183265,-0.161393 0.401174,-0.278359 0.656299,-0.387057 0.51025,-0.217397 1.179336,-0.3914 1.998301,-0.538985 1.637933,-0.295168 3.857256,-0.472839 6.309927,-0.472839 2.452673,0 4.671994,0.177671 6.309926,0.472839 0.818965,0.147585 1.490149,0.321588 2.000401,0.538985 0.255125,0.108698 0.473035,0.225664 0.656298,0.387057 0.183265,0.161392 0.382893,0.389276 0.349153,0.692981 0,0 -0.0697,0.490821 -0.308655,0.295588 -0.238963,-0.195232 -0.441661,-0.29231 -0.696788,-0.401009 -0.510251,-0.217397 -1.181435,-0.389337 -2.000401,-0.536918 -1.63793,-0.295169 -3.857252,-0.47284 -6.309925,-0.47284 -2.452671,0 -4.671996,0.177671 -6.309927,0.47284 -0.818968,0.147581 -1.488051,0.319521 -1.998301,0.536918 -0.255126,0.108699 -0.410294,0.194209 -0.655774,0.388607 -0.245482,0.194398 -0.349685,-0.194865 -0.349685,-0.283186 z"
         sodipodi:nodetypes="ssssssssczssssszs"
         inkscape:label="front ring" />
      <path
         id="path12"
         style="display:inline;fill:#ffe9a6;fill-opacity:1;stroke:#d6a206;stroke-width:0;stroke-linejoin:round;stroke-dasharray:none;stroke-opacity:1"
         inkscape:label="crown"
         d="m 27.19679,18.850529 c -0.922159,1.98799 -1.900579,3.387959 -2.893364,4.276742 l -5.17e-4,5.16e-4 c -0.08353,0.07476 -0.167482,0.145947 -0.251147,0.213941 -0.0028,0.0023 -0.006,0.005 -0.0088,0.0072 -10e-4,8.33e-4 -0.0021,0.0018 -0.0031,0.0026 -0.08557,0.0692 -0.171096,0.134569 -0.256832,0.195854 -0.625963,0.447451 -1.253054,0.717774 -1.859834,0.855245 -0.151696,0.03437 -0.302319,0.06007 -0.451136,0.07855 -0.148815,0.01848 -0.296048,0.02959 -0.441316,0.03359 -0.290535,0.008 -0.573122,-0.01164 -0.845427,-0.05323 -0.09768,-0.01492 -0.193036,-0.03217 -0.286287,-0.05116 -0.07895,-0.01608 -0.155651,-0.03401 -0.231511,-0.05271 -0.01308,-0.0032 -0.0268,-0.006 -0.03979,-0.0093 -0.0876,-0.02224 -0.173294,-0.046 -0.256832,-0.07131 -0.08421,-0.02551 -0.166302,-0.05242 -0.246497,-0.08061 -1.025324,-0.360423 -1.717999,-0.929825 -2.128552,-1.30328 0.250654,2.141648 0.823478,4.540328 1.046964,6.68383 1.47017,-1.268256 5.074043,-1.546395 9.153447,-1.547709 4.069133,2.6e-4 7.702516,0.525584 9.183935,1.459859 0.427822,-2.751762 0.981138,-5.957878 1.015959,-6.59598 -0.410347,0.373381 -1.104213,0.943324 -2.130619,1.303797 -0.0078,0.0027 -0.01596,0.005 -0.02377,0.0078 -0.07216,0.02501 -0.145282,0.04953 -0.220659,0.07235 -6.9e-4,2.09e-4 -0.0014,3.09e-4 -0.0021,5.17e-4 -0.0093,0.0028 -0.01908,0.005 -0.02842,0.0078 -0.07182,0.02133 -0.144837,0.04192 -0.219625,0.06098 -0.04298,0.0109 -0.08781,0.0204 -0.131775,0.03049 -0.04931,0.01137 -0.09773,0.02331 -0.148311,0.03359 -0.09324,0.01895 -0.188636,0.03624 -0.286287,0.05116 -0.272292,0.04159 -0.554891,0.06122 -0.845427,0.05323 -0.145269,-0.004 -0.292497,-0.01511 -0.441317,-0.03359 -0.148817,-0.01848 -0.299436,-0.04418 -0.451135,-0.07855 -0.530944,-0.120287 -1.077557,-0.342223 -1.625224,-0.695565 -0.07824,-0.05048 -0.156368,-0.103748 -0.234611,-0.15968 -0.08571,-0.06126 -0.171353,-0.126642 -0.256832,-0.195854 -0.0037,-0.003 -0.0072,-0.0063 -0.01085,-0.0093 -0.08394,-0.06828 -0.167863,-0.139886 -0.251664,-0.214974 -0.992048,-0.888873 -1.968651,-2.289007 -2.890779,-4.276742 z" />
    </g>
  </g>
  <g
     inkscape:label="EXPORT"
     inkscape:groupmode="layer"
     id="layer1"
     style="display:none">
    <rect
       style="display:inline;fill:#ffe9a6;stroke:none;stroke-width:0.15;stroke-linecap:round;stroke-linejoin:round"
       id="rect7"
       width="63.5"
       height="25.4"
       x="3.175"
       y="3.1750002"
       rx="3.175"
       ry="3.175"
       inkscape:label="cut" />
    <path
       id="path21"
       style="color:#000000;display:inline;fill:#000000;stroke-linecap:round;stroke-linejoin:round;-inkscape-stroke:none"
       inkscape:label="inset"
       d="m 7.3029134,4.5077352 c -1.543473,0 -2.7951782,1.2517052 -2.7951782,2.7951782 V 24.447087 c 0,1.543471 1.2517052,2.795178 2.7951782,2.795178 H 62.547087 c 1.543471,0 2.794661,-1.251707 2.794661,-2.795178 V 7.3029134 c 0,-1.543473 -1.25119,-2.7951782 -2.794661,-2.7951782 z M 26.789062,5.0157145 h 35.758025 c 1.270826,0 2.286682,1.0163692 2.286682,2.2871989 V 24.447087 c 0,1.270826 -1.015856,2.287198 -2.286682,2.287198 H 26.789062 Z M 15.641939,9.6268026 c 0.78682,1.6960654 1.620553,2.8904284 2.467033,3.6488724 0.0715,0.06407 0.142834,0.125191 0.214457,0.183452 0.0031,0.0026 0.0061,0.0057 0.0093,0.0083 0.07294,0.05906 0.145975,0.114644 0.219108,0.166915 0.06676,0.04773 0.133229,0.09335 0.199988,0.136426 0.467305,0.301494 0.933959,0.490608 1.386995,0.593245 0.12944,0.02933 0.258009,0.05141 0.38499,0.06718 0.126983,0.01577 0.252768,0.02501 0.376721,0.02842 0.247904,0.0068 0.489066,-0.01 0.721403,-0.04548 0.08332,-0.01273 0.164354,-0.02724 0.243913,-0.04341 0.04316,-0.0088 0.08453,-0.01872 0.126607,-0.02842 0.03751,-0.0086 0.07598,-0.01705 0.112655,-0.02635 0.06381,-0.01626 0.125787,-0.03399 0.187068,-0.05219 0.008,-0.0024 0.01635,-0.0038 0.02429,-0.0062 5.98e-4,-1.78e-4 0.0015,-3.39e-4 0.0021,-5.17e-4 0.06432,-0.01947 0.126531,-0.04067 0.188103,-0.06201 0.0067,-0.0024 0.0135,-0.0044 0.02015,-0.0067 0.875797,-0.307579 1.467842,-0.793484 1.817977,-1.112077 -0.02971,0.544471 -0.501568,3.280098 -0.866614,5.628081 -1.264043,-0.797185 -4.364164,-1.245697 -7.836214,-1.245919 -3.480813,0.0011 -6.5559309,0.238691 -7.8103757,1.320849 -0.1906928,-1.828975 -0.6796112,-3.875617 -0.8934855,-5.703011 0.3503106,0.318657 0.9415534,0.804541 1.8164266,1.112077 0.068428,0.02405 0.1384696,0.04696 0.2103231,0.06873 0.07128,0.0216 0.144362,0.04148 0.219108,0.06046 0.011084,0.0028 0.022429,0.0055 0.03359,0.0083 0.064729,0.01596 0.1305555,0.03124 0.1979208,0.04496 0.079568,0.0162 0.1605658,0.03068 0.2439127,0.04341 0.2323484,0.03549 0.473499,0.0523 0.721403,0.04548 0.123952,-0.0034 0.249742,-0.01265 0.376721,-0.02842 0.12698,-0.01577 0.255552,-0.03785 0.384989,-0.06718 0.517745,-0.117299 1.052871,-0.347877 1.586984,-0.729671 0.07315,-0.05229 0.146094,-0.108386 0.219108,-0.167432 8.53e-4,-6.82e-4 0.0017,-0.0014 0.0026,-0.0021 0.0024,-0.0019 0.0048,-0.0042 0.0072,-0.0062 0.07139,-0.05802 0.143184,-0.118628 0.214457,-0.182418 l 5.17e-4,-5.17e-4 c 0.847109,-0.758367 1.681737,-1.95259 2.468583,-3.6488724 z m -4.771285,1.7234094 c 0.507901,0.774009 1.186937,1.291842 1.872754,1.642277 -0.08886,0.07277 -0.17741,0.142624 -0.265617,0.205672 -0.981026,0.701244 -1.915589,0.830954 -2.7512529,0.703316 -0.1921609,-0.02935 -0.3778249,-0.07406 -0.5575887,-0.128158 0.6301769,-0.546521 1.2776596,-1.32626 1.7017046,-2.423107 z m 9.540503,0 c 0.424067,1.096892 1.072018,1.876582 1.702222,2.423107 -0.179327,0.05393 -0.364342,0.09887 -0.556039,0.128158 -0.835614,0.127637 -1.770264,-0.0021 -2.751253,-0.703316 -0.08836,-0.06317 -0.177632,-0.132752 -0.26665,-0.205672 0.685447,-0.350434 1.364043,-0.868604 1.87172,-1.642277 z m -4.770251,6.798551 c 2.092778,0 3.986062,0.151736 5.38365,0.403593 0.698795,0.125929 1.271493,0.274423 1.706873,0.45992 0.217689,0.09275 0.403801,0.192502 0.560173,0.330213 0.156372,0.137709 0.326962,0.332037 0.298173,0.591178 0,0 -0.05966,0.418766 -0.26355,0.252181 -0.203899,-0.166585 -0.377105,-0.249349 -0.594796,-0.342098 -0.435379,-0.185497 -1.008077,-0.332444 -1.706873,-0.45837 -1.397586,-0.251857 -3.290872,-0.403076 -5.38365,-0.403076 -2.092777,0 -3.986579,0.151219 -5.384168,0.403076 -0.6987956,0.125926 -1.2699439,0.272873 -1.705322,0.45837 -0.2176899,0.09275 -0.3496797,0.16589 -0.559139,0.331763 -0.209461,0.165873 -0.2986898,-0.166485 -0.2986898,-0.241846 0,-0.248559 0.1417995,-0.453469 0.2981731,-0.591178 0.1563734,-0.137711 0.3419667,-0.237465 0.5596557,-0.330213 0.4353781,-0.185497 1.006529,-0.333991 1.705322,-0.45992 1.39759,-0.251857 3.291391,-0.403593 5.384168,-0.403593 z m 7.07657,2.357996 c 0.112786,0.01116 0.148312,0.226342 0.148312,0.226342 0.02617,0.201859 -0.128654,0.35317 -0.270785,0.460437 -0.14213,0.107271 -0.311151,0.185103 -0.509013,0.257349 -0.395723,0.144495 -0.91618,0.260025 -1.551326,0.358118 -1.270296,0.196184 -2.991591,0.314192 -4.893758,0.314192 -1.902164,0 -3.623465,-0.118008 -4.893758,-0.314192 C 10.111998,21.710912 9.593095,21.595382 9.1973714,21.450887 8.9995101,21.37864 8.8304897,21.300809 8.6883586,21.193538 8.5462279,21.086271 8.4175741,20.926717 8.4175741,20.733101 c 0,-0.0587 0.080919,-0.317309 0.2713012,-0.188102 0.1903834,0.129208 0.3106339,0.186136 0.5084961,0.258382 0.3957236,0.144494 0.9146256,0.258477 1.5497766,0.356568 1.270292,0.196185 2.991594,0.314192 4.893758,0.314192 1.902167,0 3.623463,-0.118007 4.893758,-0.314192 0.635146,-0.09809 1.155603,-0.212074 1.551326,-0.356568 0.197863,-0.07225 0.355209,-0.136888 0.540536,-0.26665 0.03475,-0.02433 0.06492,-0.03255 0.09095,-0.02997 z" />
    <path
       id="path19"
       style="color:#000000;display:inline;fill:#856404;stroke-width:0.860652;stroke-linecap:round;stroke-linejoin:round;-inkscape-stroke:none"
       inkscape:label="crown shadow"
       d="m 21.604729,20.87059 c -0.496969,1.285475 -1.255794,2.199295 -1.994343,2.839804 0.210678,0.0634 0.428269,0.115798 0.653476,0.150196 0.979373,0.149588 2.074646,-0.0024 3.22438,-0.824263 0.103374,-0.07389 0.207151,-0.15576 0.311294,-0.241042 -0.803758,-0.410697 -1.599563,-1.017579 -2.194807,-1.924695 z m 11.18116,0 c -0.594984,0.906722 -1.390272,1.513999 -2.193596,1.924695 0.104327,0.08546 0.208949,0.167015 0.312506,0.241042 1.14969,0.821811 2.245064,0.97385 3.224379,0.824263 0.224662,-0.03432 0.441493,-0.087 0.651659,-0.150196 -0.738581,-0.640513 -1.497956,-1.554277 -1.994948,-2.839804 z m 2.702931,10.731176 c -0.0305,-0.003 -0.06587,0.0066 -0.106591,0.03513 -0.217197,0.152077 -0.401602,0.227834 -0.63349,0.312506 -0.463779,0.169342 -1.07373,0.302926 -1.818105,0.417885 -1.488747,0.229923 -3.50604,0.368224 -5.735325,0.368224 -2.229281,0 -4.246577,-0.138301 -5.735326,-0.368224 -0.744376,-0.114959 -1.35251,-0.248543 -1.816287,-0.417885 -0.231889,-0.08467 -0.372817,-0.151389 -0.595941,-0.302816 -0.223123,-0.151427 -0.317956,0.151652 -0.317956,0.22045 0,0.226912 0.150778,0.4139 0.31735,0.539617 0.166574,0.125718 0.364659,0.216934 0.596547,0.301604 0.463777,0.169343 1.071913,0.304741 1.816287,0.419703 1.48875,0.229922 3.506045,0.368223 5.735326,0.368223 2.229285,0 4.246577,-0.138301 5.735325,-0.368223 0.744375,-0.114962 1.354326,-0.25036 1.818105,-0.419703 0.231887,-0.08467 0.429974,-0.175886 0.596546,-0.301604 0.166573,-0.125717 0.348019,-0.303045 0.317351,-0.539617 0,0 -0.04164,-0.252189 -0.173816,-0.265266 z"
       transform="matrix(0.85326598,0,0,0.85326598,-7.5639261,-6.4579529)" />
    <path
       id="path17"
       d="m 203.30928,67.720522 c -1.14237,0 -2.05925,0.337239 -2.75196,1.011719 -0.68663,0.674479 -1.03125,1.507594 -1.03125,2.498047 0,0.650174 0.15495,1.229816 0.46485,1.740234 0.3099,0.510417 0.68359,0.896918 1.12109,1.158203 0.44357,0.261285 1.16363,0.580295 2.16016,0.957031 0.94184,0.358507 1.53255,0.695746 1.76953,1.011719 0.23698,0.315972 0.35547,0.658637 0.35547,1.029297 0,0.504341 -0.17318,0.930989 -0.51953,1.277344 -0.34028,0.340278 -0.84158,0.509765 -1.50391,0.509765 -1.35504,0 -2.19358,-0.765624 -2.51562,-2.296875 l -1.8418,0.519532 c 0.54687,2.321182 1.96875,3.482422 4.26562,3.482422 1.33074,0 2.36437,-0.368272 3.09961,-1.103516 0.74132,-0.735243 1.11133,-1.624782 1.11133,-2.669922 0,-0.644098 -0.14214,-1.209201 -0.42773,-1.695313 -0.27952,-0.492187 -0.64779,-0.884114 -1.10352,-1.175781 -0.45573,-0.291667 -1.10655,-0.599826 -1.95117,-0.921875 -0.99045,-0.376736 -1.65213,-0.697483 -1.98633,-0.964844 -0.32813,-0.273437 -0.49219,-0.63802 -0.49219,-1.09375 0,-0.413195 0.14584,-0.777777 0.4375,-1.09375 0.29775,-0.322049 0.71702,-0.484375 1.25782,-0.484375 0.58334,0 1.04275,0.158637 1.37695,0.47461 0.34028,0.309896 0.61372,0.792969 0.82031,1.449219 l 1.75781,-0.611329 c -0.55902,-2.00521 -1.8496,-3.007812 -3.87304,-3.007812 z m 38.91406,0 c -1.47657,0 -2.60677,0.559677 -3.39062,1.677734 -0.78386,1.118056 -1.17579,2.72591 -1.17579,4.822266 0,1.944446 0.37197,3.495659 1.11329,4.65625 0.74132,1.160591 1.86784,1.742188 3.38085,1.742188 2.32726,0 3.68533,-1.383679 4.07422,-4.148438 l -1.89648,-0.263672 c -0.13368,0.875001 -0.35786,1.54579 -0.67383,2.013672 -0.3099,0.461806 -0.78385,0.693359 -1.42187,0.693359 -1.59202,0 -2.38868,-1.525822 -2.38868,-4.576172 0,-3.275176 0.79666,-4.912109 2.38868,-4.912109 1.19097,0 1.8891,0.94249 2.0957,2.826172 l 1.91406,-0.283203 c -0.39496,-2.8316 -1.73481,-4.248047 -4.01953,-4.248047 z m -78.06641,0.228515 v 12.441407 h 2.06055 V 67.949037 Z m 4.78321,0 v 12.441407 h 1.72265 v -9.962891 l 4.59375,9.962891 h 1.92383 V 67.949037 h -1.72266 v 8.968751 l -4.09179,-8.968751 z m 10.96484,0 v 12.441407 h 2.95312 c 1.42188,0 2.51563,-0.291666 3.28125,-0.875 0.77171,-0.583334 1.34224,-1.348957 1.7129,-2.296875 0.37673,-0.953994 0.5664,-2.038628 0.5664,-3.253906 0,-1.154515 -0.20964,-2.20638 -0.6289,-3.154297 -0.4132,-0.947918 -1.02757,-1.660591 -1.8418,-2.140625 -0.80816,-0.480036 -1.8891,-0.720704 -3.24414,-0.720704 z m 10.88086,0 v 12.441407 h 7.21094 v -1.685547 h -5.15039 v -3.892578 h 3.97461 v -1.658203 h -3.97461 v -3.554688 h 5.06836 v -1.650391 z m 17.68945,0 v 1.75 h 2.75391 v 10.691407 h 2.05859 V 69.699037 h 2.78125 v -1.75 z m 8.88672,0 v 12.441407 h 2.0586 v -5.195313 h 1.93359 l 1.94141,5.195313 h 2.23242 l -2.35938,-5.623047 c 1.26997,-0.638021 1.9043,-1.722655 1.9043,-3.253906 0,-1.148439 -0.3227,-2.030816 -0.9668,-2.644532 -0.6441,-0.613716 -1.64301,-0.919922 -2.99804,-0.919922 z m 10.05274,0 v 7.720704 c 0,1.54948 0.15494,2.626735 0.46484,3.234375 0.30989,0.601563 0.76562,1.039062 1.36719,1.3125 0.60764,0.267361 1.32031,0.402344 2.14062,0.402344 1.05729,0 1.89953,-0.217014 2.52539,-0.648438 0.63195,-0.431424 1.03299,-0.974609 1.20313,-1.630859 0.17621,-0.656251 0.26367,-1.591362 0.26367,-2.806641 v -7.583985 h -1.84961 v 7.683594 c 0,1.069445 -0.0601,1.785807 -0.18164,2.150391 -0.12153,0.358508 -0.32942,0.639323 -0.62109,0.839844 -0.29167,0.194444 -0.69814,0.291015 -1.22071,0.291015 -0.55295,0 -0.99414,-0.118489 -1.32226,-0.355468 -0.32205,-0.243056 -0.528,-0.567492 -0.61914,-0.97461 -0.0912,-0.413195 -0.13672,-1.051215 -0.13672,-1.914062 v -7.720704 z m 19.42968,0 v 1.75 h 2.75196 v 10.691407 h 2.06054 V 69.699037 h 2.7793 v -1.75 z m 8.88477,0 v 12.441407 h 2.06055 V 67.949037 Z m 4.84961,0 v 12.441407 h 3.81836 c 1.65885,0 2.77994,-0.340929 3.36328,-1.021485 0.58941,-0.686632 0.88477,-1.488714 0.88477,-2.40625 0,-1.61632 -0.74566,-2.657117 -2.23438,-3.125 1.23351,-0.4375 1.85156,-1.34722 1.85156,-2.726562 0,-0.753473 -0.17144,-1.391492 -0.51172,-1.914063 -0.34028,-0.528646 -0.75586,-0.867621 -1.24804,-1.019531 -0.49219,-0.15191 -1.21224,-0.228516 -2.16016,-0.228516 z m 10.57031,0 v 12.441407 h 6.46289 v -1.740235 h -4.40234 V 67.949037 Z m 8.0293,0 v 12.441407 h 7.20898 v -1.685547 h -5.14843 v -3.892578 h 3.97265 v -1.658203 h -3.97265 v -3.554688 h 5.0664 v -1.650391 z m -59.75781,1.595704 h 1.5957 c 1.35503,0 2.0332,0.64887 2.0332,1.949218 0,0.625868 -0.16775,1.134548 -0.50195,1.523438 -0.32813,0.388889 -0.84397,0.582031 -1.54883,0.582031 h -1.57812 z m 43.17187,0 h 1.50391 c 0.69878,0 1.21463,0.136718 1.54883,0.410156 0.3342,0.267362 0.50195,0.713976 0.50195,1.339844 0,0.534722 -0.14584,0.972221 -0.4375,1.3125 -0.29167,0.334201 -0.89692,0.5 -1.81445,0.5 h -1.30274 z m -80.62695,0.05469 h 0.85547 c 2.27864,0 3.41796,1.523869 3.41796,4.574219 0,1.385418 -0.26974,2.495659 -0.81054,3.328125 -0.5408,0.826389 -1.41037,1.238281 -2.60742,1.238281 h -0.85547 z m 80.62695,5.103516 h 1.48633 c 0.99045,0 1.6467,0.205946 1.96875,0.61914 0.32205,0.413195 0.48242,0.881727 0.48242,1.404297 0,1.342883 -0.7602,2.013672 -2.2793,2.013672 h -1.6582 z m -98.43555,13.779297 v 12.441406 h 6.46289 v -1.740234 h -4.40234 V 88.482241 Z m 8.0293,0 v 12.441406 h 2.05859 V 88.482241 Z m 4.84766,0 v 12.441406 h 2.06054 v -5.423828 h 3.88282 v -1.648437 h -3.88282 v -3.71875 h 4.84766 v -1.650391 z m 8.34765,0 v 12.441406 h 7.20899 V 99.2381 h -5.14844 v -3.892578 h 3.97266 v -1.658203 h -3.97266 v -3.554687 h 5.06641 v -1.650391 z m 8.98633,0 v 12.441406 h 6.46289 v -1.740234 h -4.40234 V 88.482241 Z m 8.0293,0 v 12.441406 h 2.05859 V 88.482241 Z m 4.7832,0 v 12.441406 h 1.72266 v -9.96289 l 4.59375,9.96289 h 1.92383 V 88.482241 h -1.72266 v 8.96875 l -4.09375,-8.96875 z m 10.95508,0 v 12.441406 h 2.06055 v -4.083984 l 1.46679,-2.085938 2.7793,6.169922 h 2.23437 l -3.75585,-7.875 3.20898,-4.566406 h -2.17969 l -3.7539,5.933594 v -5.933594 z m -35.83399,20.304686 c -1.60417,0 -2.79448,0.59614 -3.57226,1.78711 -0.7717,1.18489 -1.1582,2.79448 -1.1582,4.83008 0,1.93229 0.39192,3.46354 1.17578,4.59375 0.78386,1.12413 1.87218,1.6875 3.26367,1.6875 1.36718,0 2.3661,-0.57249 2.99805,-1.71485 l 0.27343,1.57813 h 1.09375 v -6.47266 h -4.15625 v 1.65039 h 2.23438 c 0,2.16927 -0.71094,3.25391 -2.13281,3.25391 -1.71355,0 -2.57032,-1.58594 -2.57032,-4.75781 0,-3.15365 0.83486,-4.73047 2.50586,-4.73047 0.50435,0 0.94184,0.15863 1.3125,0.47461 0.37066,0.31596 0.66602,1.00868 0.88477,2.07812 l 1.85937,-0.46484 c -0.4375,-2.52778 -1.7756,-3.79297 -4.01172,-3.79297 z m 44.12891,0 c -1.47656,0 -2.60677,0.55968 -3.39062,1.67773 -0.78386,1.11806 -1.17579,2.72591 -1.17579,4.82227 0,1.94444 0.37001,3.49566 1.11133,4.65625 0.74133,1.16058 1.86784,1.74219 3.38086,1.74219 2.32726,0 3.68533,-1.38368 4.07422,-4.14844 l -1.89453,-0.26367 c -0.13368,0.875 -0.35981,1.54578 -0.67578,2.01367 -0.30989,0.4618 -0.78385,0.69336 -1.42188,0.69336 -1.59201,0 -2.38672,-1.52583 -2.38672,-4.57617 0,-3.27518 0.79471,-4.91211 2.38672,-4.91211 1.19098,0 1.89106,0.94249 2.09766,2.82617 l 1.91406,-0.2832 c -0.39496,-2.8316 -1.7348,-4.24805 -4.01953,-4.24805 z m -63.54102,0.22851 3.20899,12.44141 2.23242,0.0273 3.28125,-12.46875 h -1.82226 l -2.36915,9.92579 -2.36132,-9.92579 z m 10.25391,0 v 12.44141 h 2.05859 v -12.44141 z m 15.74805,0 v 12.44141 h 2.05859 v -12.44141 z m 4.84765,0 v 12.44141 h 6.4629 v -1.74023 h -4.40235 v -10.70118 z m 10.36133,0 -3.59961,12.44141 h 1.96875 l 0.76563,-3.11719 h 3.63672 l 0.7832,3.11719 h 2.08789 l -3.33594,-12.44141 z m 7.22657,0 v 12.44141 h 1.72265 v -9.96289 l 4.59375,9.96289 h 1.92383 v -12.44141 h -1.72266 v 8.96875 l -4.09179,-8.96875 z m 21.20898,0 v 12.44141 h 7.20898 v -1.68555 h -5.15039 v -3.89257 h 3.97461 v -1.65821 h -3.97461 v -3.55469 h 5.06836 v -1.65039 z m -27.48633,2.00586 1.41211,5.69532 h -2.81641 z"
       style="font-size:18.6667px;line-height:1.1;font-family:'Franklin Gothic Medium Cond';-inkscape-font-specification:'Franklin Gothic Medium Cond, Normal';letter-spacing:0.4px;white-space:pre;display:inline;fill:#856404"
       transform="matrix(0.26458333,0,0,0.26458333,-13.417449,-9.1818203)"
       inkscape:label="text" />
  </g>
  <g
     inkscape:groupmode="layer"
     id="layer3"
     inkscape:label="SIMPLER">
    <path
       id="rect8"
       style="display:inline;fill:#fed1aa;stroke-width:0.15;stroke-linecap:round;stroke-linejoin:round"
       inkscape:label="cut"
       d="M 6.3499999,3.1750002 H 63.5 c 1.75895,0 3.175,1.41605 3.175,3.1749999 V 25.4 c 0,1.75895 -1.41605,3.175 -3.175,3.175 H 6.3499999 C 4.5910499,28.575 3.175,27.15895 3.175,25.4 V 6.3500001 c 0,-1.7589499 1.4160499,-3.1749999 3.1749999,-3.1749999 z" />
    <path
       id="path49"
       style="display:inline;fill:#5b2d07;fill-opacity:1;stroke-width:0.384748"
       d="M 53.729537 14.825452 C 53.675196 14.827882 53.620738 14.849048 53.56779 14.891081 C 52.860046 15.452929 52.610705 16.814916 53.046891 17.736385 C 53.06481 17.774245 53.000153 17.770319 52.82675 17.722949 C 52.060104 17.513498 51.003855 18.124024 50.912655 18.829342 C 50.893351 18.978631 50.879208 18.975045 51.29196 18.916675 C 51.998954 18.816703 52.784121 19.399913 52.915116 20.122286 C 53.183663 21.603182 51.41564 22.430496 50.210372 21.387842 C 49.915301 21.132582 49.900555 21.092404 50.070846 21.010604 C 50.752026 20.683411 50.390559 19.677869 49.591805 19.677869 C 48.707512 19.677869 48.466399 20.706425 49.269344 21.053495 C 49.572383 21.184482 49.572232 21.182832 49.329806 21.637439 C 48.779653 22.669106 47.120035 22.654418 46.588888 21.613151 C 46.329352 21.104352 46.449691 20.605459 46.932019 20.192566 C 47.237496 19.931067 47.233198 19.875244 46.894295 19.725411 C 46.249314 19.440257 45.381555 19.596746 45.046863 20.058724 C 44.922401 20.23053 44.922508 20.230511 44.830339 19.961056 C 44.629088 19.372674 43.796855 18.872339 43.068172 18.901689 C 42.960331 18.906039 42.831591 18.89435 42.782402 18.87585 C 42.639412 18.822057 42.676021 18.917141 42.917277 19.228284 C 44.157556 20.827846 45.211709 23.087516 45.57758 24.929228 C 45.622681 25.156248 45.672657 25.398326 45.688167 25.467696 C 45.716366 25.59382 45.716484 25.593787 53.735221 25.593787 C 58.145526 25.593787 61.749018 25.57859 61.743518 25.55968 C 61.666584 25.298738 62.402363 22.878736 62.799784 22.085474 C 63.427394 20.832752 63.790973 20.216656 64.375916 19.415352 C 64.794554 18.84185 64.798838 18.878458 64.315971 18.914608 C 63.354619 18.986565 62.730905 19.390215 62.552771 20.05459 C 62.519372 20.17916 62.51904 20.179181 62.310409 19.976042 C 61.902393 19.578765 61.093064 19.462981 60.510518 19.718693 C 60.174417 19.866229 60.165916 19.920929 60.446956 20.142957 C 61.352083 20.858021 60.998652 22.096744 59.807202 22.38468 C 59.129123 22.548554 58.295165 22.131287 58.03005 21.495329 C 57.89113 21.162085 57.891903 21.158115 58.073975 21.122225 C 58.723386 20.994209 58.813986 19.973009 58.196448 19.741431 C 57.256592 19.388984 56.50522 20.534767 57.367558 21.005436 C 57.929119 21.31194 56.241427 22.029908 55.524776 21.789368 C 53.74484 21.191942 54.484195 18.561844 56.326794 18.936312 C 56.545464 18.98076 56.546205 18.980579 56.524715 18.859314 C 56.386254 18.07844 55.102089 17.399454 54.46851 17.772042 C 54.363329 17.833895 54.363824 17.829986 54.485046 17.460433 C 54.799631 16.501404 54.25483 14.80196 53.729537 14.825452 z M 53.691296 21.607467 L 54.249402 22.338171 L 54.249402 23.798547 L 53.691296 24.529252 L 53.133708 23.798547 L 53.133708 22.338171 L 53.691296 21.607467 z "
       inkscape:label="crown" />
    <path
       id="path8"
       d="M 7.4388224 6.68538 L 7.4388224 11.730033 L 8.0682414 11.730033 L 8.0682414 6.68538 L 7.4388224 6.68538 z M 11.596708 6.68538 L 11.596708 11.730033 L 12.647807 11.730033 C 12.815239 11.730033 12.951664 11.701097 13.057084 11.643217 C 13.162502 11.585339 13.245184 11.515059 13.305131 11.432377 C 13.365074 11.349695 13.407448 11.267012 13.432255 11.18433 C 13.459128 11.101644 13.474631 11.032398 13.478764 10.976591 C 13.484964 10.918713 13.488066 10.329601 13.488066 9.209257 C 13.488066 8.0868461 13.484964 7.4977336 13.478764 7.441923 C 13.474631 7.3840455 13.459128 7.3137654 13.432255 7.2310832 C 13.407452 7.148401 13.365078 7.0657185 13.305131 6.9830363 C 13.245186 6.9003538 13.162504 6.8300737 13.057084 6.7721965 C 12.951664 6.7143192 12.815239 6.68538 12.647807 6.68538 L 11.596708 6.68538 z M 33.276005 6.68538 L 33.276005 11.730033 L 33.905424 11.730033 L 33.905424 6.68538 L 33.276005 6.68538 z M 34.723979 6.68538 L 34.723979 11.730033 L 35.775077 11.730033 C 36.072734 11.730033 36.291842 11.630814 36.432402 11.432377 C 36.535757 11.291817 36.594668 11.138855 36.609135 10.97349 L 36.615336 10.889775 L 36.615336 9.4169963 C 36.602936 9.3095094 36.582264 9.2154581 36.553324 9.1348429 C 36.524386 9.0542278 36.474776 8.9736124 36.404496 8.8929972 C 36.474775 8.810315 36.524384 8.7296997 36.553324 8.6511515 C 36.582264 8.5705363 36.599834 8.5033567 36.606034 8.4496134 C 36.612234 8.3938029 36.615336 8.226371 36.615336 7.9473185 C 36.615336 7.6661991 36.613268 7.4977336 36.609135 7.441923 C 36.594666 7.2765586 36.535755 7.1235961 36.432402 6.9830363 C 36.291842 6.784599 36.072734 6.68538 35.775077 6.68538 L 34.723979 6.68538 z M 9.7270549 6.6884806 C 9.4293989 6.6884806 9.2102904 6.7866661 9.0697306 6.9830363 C 8.9684449 7.1256632 8.9105684 7.2786254 8.8960978 7.441923 L 8.8867961 7.5287394 L 8.8867961 11.730033 L 9.5193156 11.730033 L 9.5193156 7.5287394 C 9.531718 7.3881797 9.6009645 7.3178996 9.7270549 7.3178996 L 9.9378947 7.3178996 C 10.066052 7.3178996 10.136332 7.3881797 10.148735 7.5287394 L 10.148735 11.730033 L 10.778153 11.730033 L 10.778153 7.5287394 C 10.76782 7.4150514 10.75025 7.3168659 10.725444 7.2341838 C 10.661364 7.0274782 10.536307 6.8745157 10.350273 6.775297 C 10.242785 6.7174198 10.105326 6.6884806 9.9378947 6.6884806 L 9.7270549 6.6884806 z M 14.30662 6.6884806 L 14.30662 11.730033 L 16.197978 11.730033 L 16.197978 11.100614 L 14.936039 11.100614 L 14.936039 9.209257 L 15.987138 9.209257 L 15.987138 8.5798381 L 14.936039 8.5798381 L 14.936039 7.3178996 L 16.197978 7.3178996 L 16.197978 6.6884806 L 14.30662 6.6884806 z M 17.856791 6.6884806 C 17.559135 6.6884806 17.340027 6.7866661 17.199467 6.9830363 C 17.098178 7.1256632 17.040301 7.2786257 17.025834 7.441923 C 17.019634 7.4998006 17.016532 7.7385461 17.016532 8.1581584 C 17.016532 8.4144732 17.139522 8.6914594 17.385502 8.9891154 C 17.490922 9.1172728 17.600476 9.2412965 17.714164 9.3611857 C 17.95601 9.6154335 18.11724 9.816972 18.197856 9.9658 C 18.251602 10.065019 18.278471 10.163204 18.278471 10.260356 L 18.27537 10.911479 C 18.271237 10.95282 18.256769 10.99106 18.231962 11.0262 C 18.196822 11.075807 18.142045 11.100614 18.067631 11.100614 L 17.856791 11.100614 C 17.782377 11.100614 17.7276 11.075807 17.69246 11.0262 C 17.667653 10.991059 17.653185 10.952819 17.649052 10.911479 L 17.645951 10.049516 L 17.016532 10.049516 C 17.016532 10.609686 17.019634 10.918711 17.025834 10.976591 C 17.040303 11.139888 17.098181 11.292851 17.199467 11.435478 C 17.340027 11.631848 17.559135 11.730033 17.856791 11.730033 L 18.067631 11.730033 C 18.365287 11.730033 18.585429 11.631848 18.728056 11.435478 C 18.829344 11.292851 18.887222 11.139888 18.901689 10.976591 C 18.905822 10.918713 18.90789 10.679968 18.90789 10.260356 C 18.90789 9.9792362 18.765263 9.6588416 18.480009 9.299174 C 18.36012 9.1482789 18.239197 9.0046182 18.11724 8.8681925 C 17.987016 8.7214317 17.875394 8.5881062 17.782377 8.468217 C 17.691427 8.3483277 17.645951 8.2449747 17.645951 8.1581584 L 17.645951 7.5287394 C 17.658354 7.3881797 17.728634 7.3178996 17.856791 7.3178996 L 18.067631 7.3178996 C 18.195791 7.3178996 18.266071 7.3881797 18.278471 7.5287394 L 18.278471 8.3689982 L 18.90789 8.3689982 L 18.90789 7.5287394 C 18.897556 7.4129843 18.879986 7.3137654 18.85518 7.2310832 C 18.791101 7.0264447 18.666044 6.8734822 18.480009 6.7721965 C 18.372522 6.7163858 18.235062 6.6884806 18.067631 6.6884806 L 17.856791 6.6884806 z M 19.726444 6.6884806 L 19.726444 7.3178996 L 20.355863 7.3178996 L 20.355863 11.730033 L 20.985282 11.730033 L 20.985282 7.3178996 L 21.617802 7.3178996 L 21.617802 6.6884806 L 19.726444 6.6884806 z M 22.436357 6.6884806 L 22.436357 11.730033 L 23.068876 11.730033 L 23.068876 7.3178996 L 23.487455 7.3178996 C 23.528795 7.3178996 23.562901 7.3251344 23.589775 7.3396037 C 23.616648 7.354073 23.63732 7.371643 23.651786 7.3923136 C 23.66626 7.4129843 23.676592 7.4336547 23.682792 7.4543254 C 23.691059 7.474996 23.695194 7.492566 23.695194 7.5070353 C 23.697261 7.5215047 23.698295 7.7385461 23.698295 8.1581584 C 23.698295 8.5798377 23.697261 8.7979127 23.695194 8.812382 C 23.695194 8.824784 23.691059 8.8413207 23.682792 8.8619914 C 23.676585 8.8826614 23.666253 8.9043657 23.651786 8.9271037 C 23.63732 8.9477743 23.616648 8.9653443 23.589775 8.9798136 C 23.562902 8.9922163 23.528795 8.9984172 23.487455 8.9984172 L 23.276615 8.9984172 L 23.698295 11.730033 L 24.327714 11.730033 L 23.983549 9.4914103 C 24.068301 9.4293986 24.134447 9.3591185 24.181986 9.2805705 C 24.229526 9.2020224 24.263633 9.1255411 24.284306 9.0511271 C 24.304979 8.9767131 24.31738 8.9147012 24.321513 8.865092 C 24.325646 8.8154826 24.327714 8.5798376 24.327714 8.1581584 C 24.327714 7.7385463 24.324612 7.5008342 24.318412 7.4450236 C 24.314279 7.3871461 24.298777 7.3168659 24.271903 7.2341838 C 24.247101 7.1494345 24.204726 7.0657185 24.144779 6.9830363 C 24.086902 6.9003542 24.004219 6.8311076 23.896733 6.775297 C 23.791313 6.7174198 23.654886 6.6884806 23.487455 6.6884806 L 22.436357 6.6884806 z M 25.146269 6.6884806 C 25.146269 9.4893383 25.148337 10.918711 25.15247 10.976591 C 25.16694 11.139888 25.225851 11.292851 25.329203 11.435478 C 25.469763 11.631848 25.688872 11.730033 25.986528 11.730033 L 26.197367 11.730033 C 26.495023 11.730033 26.714132 11.631848 26.854692 11.435478 C 26.95598 11.292851 27.013858 11.139888 27.028324 10.976591 C 27.034524 10.918713 27.037626 9.4893403 27.037626 6.6884806 L 26.408207 6.6884806 L 26.405107 10.911479 C 26.400973 10.95282 26.386505 10.99106 26.361698 11.0262 C 26.326558 11.075807 26.271781 11.100614 26.197367 11.100614 L 25.986528 11.100614 C 25.912114 11.100614 25.857336 11.075807 25.822196 11.0262 C 25.79739 10.991059 25.782922 10.952819 25.778788 10.911479 L 25.775688 6.6884806 L 25.146269 6.6884806 z M 28.69644 6.6884806 C 28.398784 6.6884806 28.179675 6.7866661 28.039115 6.9830363 C 27.937833 7.1256632 27.879956 7.2786257 27.865483 7.441923 C 27.859283 7.4998006 27.856181 8.0889131 27.856181 9.209257 C 27.856181 10.329599 27.858249 10.918711 27.862382 10.976591 C 27.868582 11.034468 27.884084 11.104749 27.908891 11.187431 C 27.93576 11.270113 27.979169 11.352796 28.039115 11.435478 C 28.09906 11.518158 28.181742 11.588438 28.287162 11.646318 C 28.392582 11.702131 28.529008 11.730033 28.69644 11.730033 L 28.907279 11.730033 C 29.204936 11.730033 29.425078 11.631848 29.567704 11.435478 C 29.668993 11.292851 29.72687 11.139888 29.741337 10.976591 L 29.747538 10.889775 L 29.747538 10.049516 L 29.118119 10.049516 L 29.118119 10.889775 C 29.105717 11.030334 29.035437 11.100614 28.907279 11.100614 L 28.69644 11.100614 C 28.622026 11.100614 28.567249 11.075807 28.532109 11.0262 C 28.507302 10.991059 28.492834 10.952819 28.4887 10.911479 L 28.4887 9.209257 C 28.4887 8.0682424 28.492836 7.483264 28.501103 7.4543254 C 28.530041 7.3633749 28.595154 7.3178996 28.69644 7.3178996 L 28.907279 7.3178996 C 29.035439 7.3178996 29.105719 7.3881797 29.118119 7.5287394 L 29.118119 8.3689982 L 29.747538 8.3689982 L 29.747538 7.5287394 C 29.737205 7.4150514 29.719635 7.3168659 29.694828 7.2341838 C 29.63075 7.0274782 29.505693 6.8745157 29.319657 6.775297 C 29.212171 6.7174198 29.074711 6.6884806 28.907279 6.6884806 L 28.69644 6.6884806 z M 30.566093 6.6884806 L 30.566093 7.3178996 L 31.195512 7.3178996 L 31.195512 11.730033 L 31.824931 11.730033 L 31.824931 7.3178996 L 32.45745 7.3178996 L 32.45745 6.6884806 L 30.566093 6.6884806 z M 37.433891 6.6884806 C 37.433891 9.4893383 37.435959 10.918711 37.440092 10.976591 C 37.454561 11.139888 37.513472 11.292851 37.616825 11.435478 C 37.757385 11.631848 37.976493 11.730033 38.27415 11.730033 L 39.325248 11.730033 L 39.325248 11.100614 L 38.27415 11.100614 C 38.199736 11.100614 38.144958 11.075807 38.109819 11.0262 C 38.085012 10.991059 38.070544 10.952819 38.06641 10.911479 L 38.06331 6.6884806 L 37.433891 6.6884806 z M 40.143803 6.6884806 L 40.143803 11.730033 L 42.03516 11.730033 L 42.03516 11.100614 L 40.773222 11.100614 L 40.773222 9.209257 L 41.82432 9.209257 L 41.82432 8.5798381 L 40.773222 8.5798381 L 40.773222 7.3178996 L 42.03516 7.3178996 L 42.03516 6.6884806 L 40.143803 6.6884806 z M 12.226127 7.3178996 L 12.647807 7.3178996 C 12.689147 7.3178996 12.723253 7.3251344 12.750126 7.3396037 C 12.776999 7.3520057 12.797671 7.3695757 12.812138 7.3923136 C 12.826611 7.4129843 12.836944 7.4336547 12.843144 7.4543254 C 12.849344 7.474996 12.852445 7.492566 12.852445 7.5070353 C 12.854512 7.5194377 12.855546 8.0868461 12.855546 9.209257 C 12.855546 10.329603 12.854512 10.897012 12.852445 10.911479 C 12.852445 10.925945 12.849344 10.943515 12.843144 10.964189 C 12.836937 10.984855 12.826605 11.005527 12.812138 11.0262 C 12.797671 11.046874 12.776999 11.064444 12.750126 11.07891 C 12.723253 11.09131 12.689147 11.097514 12.647807 11.097514 L 12.226127 11.097514 L 12.226127 7.3178996 z M 35.353398 7.3178996 L 35.775077 7.3178996 C 35.816417 7.3178996 35.850523 7.3251344 35.877397 7.3396037 C 35.90427 7.3520057 35.924942 7.3685424 35.939408 7.3892131 C 35.953882 7.409883 35.964214 7.4315874 35.970414 7.4543254 C 35.976614 7.474996 35.98075 7.492566 35.982817 7.5070353 C 35.984883 7.5194377 35.985917 7.6661991 35.985917 7.9473185 C 35.985917 8.226371 35.984883 8.3731324 35.982817 8.3876017 C 35.98075 8.402071 35.976614 8.419641 35.970414 8.4403117 C 35.964208 8.4609823 35.953875 8.4816528 35.939408 8.5023234 C 35.924942 8.5229941 35.90427 8.540564 35.877397 8.5550334 C 35.850523 8.5695027 35.816417 8.5767375 35.775077 8.5767375 L 35.353398 8.5767375 L 35.353398 7.3178996 z M 35.353398 9.209257 L 35.775077 9.209257 C 35.849491 9.209257 35.904268 9.2330279 35.939408 9.2805705 C 35.964215 9.3177776 35.978683 9.3560182 35.982817 9.3952922 L 35.985917 10.151835 C 35.985917 10.643797 35.984883 10.897012 35.982817 10.911479 C 35.98075 10.923879 35.976614 10.941449 35.970414 10.964189 C 35.964208 10.984855 35.953875 11.005527 35.939408 11.0262 C 35.924942 11.046874 35.90427 11.064444 35.877397 11.07891 C 35.850523 11.09131 35.816417 11.097514 35.775077 11.097514 L 35.353398 11.097514 L 35.353398 9.209257 z M 10.148735 13.352673 L 10.148735 18.397327 L 10.778153 18.397327 L 10.778153 13.352673 L 10.148735 13.352673 z M 19.726444 13.352673 L 19.726444 18.397327 L 20.355863 18.397327 L 20.355863 13.352673 L 19.726444 13.352673 z M 7.4388224 13.355774 C 7.4388224 16.156631 7.4408903 17.586004 7.4450236 17.643884 C 7.459493 17.807181 7.5184042 17.960144 7.621757 18.102771 C 7.7623167 18.299141 7.9814252 18.397327 8.2790812 18.397327 L 9.3301799 18.397327 L 9.3301799 17.767908 L 8.2790812 17.767908 C 8.2046672 17.767908 8.1498901 17.7431 8.1147502 17.693494 C 8.0899449 17.658352 8.0754753 17.620112 8.071342 17.578772 L 8.0682414 13.355774 L 7.4388224 13.355774 z M 11.596708 13.355774 L 11.596708 18.397327 L 12.226127 18.397327 L 12.226127 15.87655 L 13.277226 15.87655 L 13.277226 15.247131 L 12.226127 15.247131 L 12.226127 13.985193 L 13.488066 13.985193 L 13.488066 13.355774 L 11.596708 13.355774 z M 14.30662 13.355774 L 14.30662 18.397327 L 16.197978 18.397327 L 16.197978 17.767908 L 14.936039 17.767908 L 14.936039 15.87655 L 15.987138 15.87655 L 15.987138 15.247131 L 14.936039 15.247131 L 14.936039 13.985193 L 16.197978 13.985193 L 16.197978 13.355774 L 14.30662 13.355774 z M 17.016532 13.355774 C 17.016532 16.156631 17.0186 17.586004 17.022734 17.643884 C 17.037203 17.807181 17.096114 17.960144 17.199467 18.102771 C 17.340027 18.299141 17.559135 18.397327 17.856791 18.397327 L 18.90789 18.397327 L 18.90789 17.767908 L 17.856791 17.767908 C 17.782377 17.767908 17.7276 17.7431 17.69246 17.693494 C 17.667653 17.658352 17.653185 17.620112 17.649052 17.578772 L 17.645951 13.355774 L 17.016532 13.355774 z M 22.014677 13.355774 C 21.717021 13.355774 21.497913 13.453959 21.357353 13.65033 C 21.256065 13.792956 21.198187 13.945919 21.18372 14.109216 L 21.174418 14.196033 L 21.174418 18.397327 L 21.806938 18.397327 L 21.806938 14.196033 C 21.81934 14.055473 21.888586 13.985193 22.014677 13.985193 L 22.225517 13.985193 C 22.353676 13.985193 22.423957 14.055473 22.436357 14.196033 L 22.436357 18.397327 L 23.065776 18.397327 L 23.065776 14.196033 C 23.055442 14.082344 23.037872 13.984159 23.013066 13.901477 C 22.948987 13.694771 22.82393 13.541809 22.637895 13.44259 C 22.530408 13.38471 22.392948 13.355774 22.225517 13.355774 L 22.014677 13.355774 z M 23.88433 13.355774 L 23.88433 18.397327 L 24.513749 18.397327 L 24.513749 15.87655 L 24.935429 15.87655 C 25.061521 15.87655 25.130768 15.94683 25.143168 16.08739 L 25.143168 18.397327 L 25.775688 18.397327 C 25.775688 16.857367 25.772586 16.060515 25.766386 16.006775 C 25.749849 15.849678 25.68267 15.701884 25.564848 15.563391 C 25.682666 15.422831 25.749846 15.274003 25.766386 15.116907 L 25.775688 15.036292 L 25.775688 13.355774 L 25.143168 13.355774 L 25.143168 15.036292 L 25.130766 15.110706 C 25.101827 15.201656 25.036715 15.247131 24.935429 15.247131 L 24.513749 15.247131 L 24.513749 13.355774 L 23.88433 13.355774 z M 10.148735 20.019967 L 10.148735 25.06462 L 10.778153 25.06462 L 10.778153 20.019967 L 10.148735 20.019967 z M 12.436967 20.019967 C 12.139311 20.019967 11.919169 20.119186 11.776542 20.317623 C 11.675254 20.458183 11.617376 20.611145 11.602909 20.77651 C 11.598776 20.834387 11.596708 21.423499 11.596708 22.543844 C 11.596708 23.664185 11.598776 24.253298 11.602909 24.311178 C 11.609109 24.366988 11.624611 24.436235 11.649418 24.518917 C 11.676287 24.601599 11.718662 24.685315 11.776542 24.770064 C 11.836487 24.852744 11.919169 24.923024 12.024589 24.980904 C 12.132076 25.036717 12.269536 25.06462 12.436967 25.06462 L 12.647807 25.06462 C 12.945463 25.06462 13.164571 24.965401 13.305131 24.766964 C 13.406419 24.626404 13.464297 24.473441 13.478764 24.308077 C 13.484964 24.252266 13.488066 23.664187 13.488066 22.543844 L 12.647807 22.543844 L 12.647807 23.173263 L 12.855546 23.173263 L 12.855546 24.246065 C 12.851413 24.287407 12.836944 24.325647 12.812138 24.360787 C 12.776998 24.410394 12.722221 24.435201 12.647807 24.435201 L 12.436967 24.435201 C 12.362553 24.435201 12.307776 24.410394 12.272636 24.360787 C 12.247829 24.325646 12.233361 24.287405 12.229228 24.246065 L 12.226127 22.543844 C 12.226127 21.40283 12.231297 20.817852 12.24163 20.788912 C 12.268501 20.697961 12.333614 20.652486 12.436967 20.652486 L 12.647807 20.652486 C 12.775967 20.652486 12.845213 20.722766 12.855546 20.863326 L 12.855546 21.703585 L 13.488066 21.703585 L 13.488066 20.863326 C 13.477732 20.747571 13.459128 20.648352 13.432255 20.56567 C 13.370243 20.361031 13.245186 20.208069 13.057084 20.106783 C 12.951664 20.048903 12.815239 20.019967 12.647807 20.019967 L 12.436967 20.019967 z M 14.30662 20.019967 L 14.30662 25.06462 L 14.936039 25.06462 L 14.936039 20.019967 L 14.30662 20.019967 z M 7.4388224 20.023067 L 7.4388224 23.384102 C 7.4388224 23.756172 7.6496627 24.316346 8.071342 25.06462 L 8.7007609 25.06462 C 9.1203732 24.316346 9.3301799 23.756172 9.3301799 23.384102 L 9.3301799 20.023067 L 8.7007609 20.023067 L 8.7007609 23.384102 C 8.7007609 23.654886 8.5953407 23.979415 8.3845011 24.357686 C 8.1757285 23.979415 8.071342 23.654886 8.071342 23.384102 L 8.071342 20.023067 L 7.4388224 20.023067 z M 15.754594 20.023067 C 15.754594 22.823925 15.756662 24.253298 15.760795 24.311178 C 15.775265 24.474475 15.834176 24.627438 15.937528 24.770064 C 16.078088 24.966435 16.297197 25.06462 16.594853 25.06462 L 17.645951 25.06462 L 17.645951 24.435201 L 16.594853 24.435201 C 16.520439 24.435201 16.465662 24.410394 16.430522 24.360787 C 16.405715 24.325646 16.391247 24.287405 16.387113 24.246065 L 16.384013 20.023067 L 15.754594 20.023067 z M 19.304765 20.023067 C 19.007109 20.023067 18.786967 20.121252 18.64434 20.317623 C 18.543051 20.46025 18.485174 20.613212 18.470707 20.77651 L 18.464506 20.863326 L 18.464506 25.06462 L 19.093925 25.06462 L 19.093925 22.962423 L 19.723344 22.962423 L 19.723344 25.06462 L 20.355863 25.06462 L 20.355863 20.863326 C 20.34553 20.747571 20.326926 20.648352 20.300053 20.56567 C 20.238042 20.361031 20.112984 20.208069 19.924882 20.106783 C 19.819462 20.05097 19.683036 20.023067 19.515605 20.023067 L 19.304765 20.023067 z M 22.014677 20.023067 C 21.717021 20.023067 21.497913 20.121252 21.357353 20.317623 C 21.256065 20.46025 21.198187 20.613212 21.18372 20.77651 L 21.174418 20.863326 L 21.174418 25.06462 L 21.806938 25.06462 L 21.806938 20.863326 C 21.81934 20.722766 21.888586 20.652486 22.014677 20.652486 L 22.225517 20.652486 C 22.353676 20.652486 22.423957 20.722766 22.436357 20.863326 L 22.436357 25.06462 L 23.065776 25.06462 L 23.065776 20.863326 C 23.055442 20.749638 23.037872 20.651452 23.013066 20.56877 C 22.948987 20.362065 22.82393 20.209102 22.637895 20.109884 C 22.530408 20.052004 22.392948 20.023067 22.225517 20.023067 L 22.014677 20.023067 z M 24.724589 20.023067 C 24.426933 20.023067 24.207825 20.121252 24.067265 20.317623 C 23.965976 20.46025 23.908099 20.613212 23.893632 20.77651 C 23.887432 20.834387 23.88433 21.423499 23.88433 22.543844 C 23.88433 23.664185 23.886398 24.253298 23.890531 24.311178 C 23.896731 24.369055 23.912234 24.439335 23.93704 24.522017 C 23.96391 24.604699 24.007318 24.687382 24.067265 24.770064 C 24.127209 24.852744 24.209892 24.923024 24.315312 24.980904 C 24.420732 25.036717 24.557158 25.06462 24.724589 25.06462 L 24.935429 25.06462 C 25.233085 25.06462 25.453226 24.966435 25.595854 24.770064 C 25.697142 24.627438 25.75502 24.474475 25.769486 24.311178 L 25.775688 24.224361 L 25.775688 23.384102 L 25.146269 23.384102 L 25.146269 24.224361 C 25.133866 24.364921 25.063586 24.435201 24.935429 24.435201 L 24.724589 24.435201 C 24.650175 24.435201 24.595398 24.410394 24.560258 24.360787 C 24.535451 24.325646 24.520983 24.287405 24.51685 24.246065 L 24.51685 22.543844 C 24.51685 21.40283 24.520985 20.817852 24.529252 20.788912 C 24.558191 20.697961 24.623303 20.652486 24.724589 20.652486 L 24.935429 20.652486 C 25.063589 20.652486 25.133869 20.722766 25.146269 20.863326 L 25.146269 21.703585 L 25.775688 21.703585 L 25.775688 20.863326 C 25.765354 20.749638 25.747784 20.651452 25.722978 20.56877 C 25.658899 20.362065 25.533842 20.209102 25.347807 20.109884 C 25.24032 20.052004 25.10286 20.023067 24.935429 20.023067 L 24.724589 20.023067 z M 26.594242 20.023067 L 26.594242 25.06462 L 28.4856 25.06462 L 28.4856 24.435201 L 27.223661 24.435201 L 27.223661 22.543844 L 28.27476 22.543844 L 28.27476 21.914425 L 27.223661 21.914425 L 27.223661 20.652486 L 28.4856 20.652486 L 28.4856 20.023067 L 26.594242 20.023067 z M 19.304765 20.652486 L 19.515605 20.652486 C 19.641697 20.652486 19.710944 20.722766 19.723344 20.863326 L 19.723344 22.333004 L 19.093925 22.333004 L 19.093925 20.863326 C 19.106327 20.722766 19.176608 20.652486 19.304765 20.652486 z "
       style="font-stretch:condensed;font-size:6.35px;line-height:1.05;font-family:'Matth condensed';-inkscape-font-specification:'Matth condensed, Condensed';letter-spacing:0.198437px;word-spacing:0px;text-orientation:upright;fill:#5b2d07;stroke-width:0.0254;stroke-linecap:round;stroke-linejoin:round;paint-order:fill markers stroke"
       inkscape:label="abilities" />
    <path
       d="m -15.238648,64.037437 h -0.700732 v -3.363099 h 0.700732 q 0.167432,0 0.272852,0.05788 0.105419,0.05788 0.165364,0.140559 0.05995,0.08268 0.08475,0.165365 0.02687,0.08268 0.03101,0.14056 0.0062,0.05581 0.0062,1.178221 0,1.120344 -0.0062,1.178222 -0.0041,0.05581 -0.03101,0.138493 -0.0248,0.08268 -0.08475,0.165364 -0.05994,0.08268 -0.165364,0.14056 -0.10542,0.05788 -0.272852,0.05788 z m 0,-0.421679 q 0.04134,0 0.06821,-0.0124 0.02687,-0.01447 0.04134,-0.03514 0.01447,-0.02067 0.02067,-0.04134 0.0062,-0.02067 0.0062,-0.03514 0.0021,-0.01447 0.0021,-1.134814 0,-1.122411 -0.0021,-1.134813 0,-0.01447 -0.0062,-0.03514 -0.0062,-0.02067 -0.02067,-0.04134 -0.01447,-0.02274 -0.04134,-0.03514 -0.02687,-0.01447 -0.06821,-0.01447 h -0.281119 v 2.519741 z m 1.591633,0.421679 h -0.419613 v -3.363099 h 0.419613 z m 1.872752,0 h -0.419612 v -1.680516 h -0.42168 v 1.680516 h -0.419612 v -3.361032 h 0.419612 v 1.260904 h 0.42168 v -1.260904 h 0.419612 z m 1.8727515,0 h -0.4216795 v -1.401463 h -0.419612 v 1.401463 h -0.419612 v -2.80086 l 0.0041,-0.05788 q 0.01447,-0.163298 0.115755,-0.305925 0.142627,-0.19637 0.440283,-0.19637 h 0.140559 q 0.167432,0 0.272852,0.05581 0.188102,0.101285 0.2501135,0.305924 0.026872,0.08268 0.037207,0.198437 z m -0.4216795,-1.821076 v -0.979784 q -0.0124,-0.14056 -0.138493,-0.14056 h -0.140559 q -0.128158,0 -0.14056,0.14056 v 0.979784 z m 1.7342596,1.821076 h -0.7007318 v -3.363099 h 0.7007318 q 0.1674315,0 0.2728514,0.05788 0.1054198,0.05788 0.1653644,0.140559 0.059945,0.08268 0.084749,0.165365 0.026872,0.08268 0.031006,0.14056 0.0062,0.05581 0.0062,1.178221 0,1.120344 -0.0062,1.178222 -0.00413,0.05581 -0.031006,0.138493 -0.024805,0.08268 -0.084749,0.165364 -0.059945,0.08268 -0.1653644,0.14056 -0.1054199,0.05788 -0.2728514,0.05788 z m 0,-0.421679 q 0.041341,0 0.068213,-0.0124 0.026872,-0.01447 0.041341,-0.03514 0.014469,-0.02067 0.020671,-0.04134 0.0062,-0.02067 0.0062,-0.03514 0.00207,-0.01447 0.00207,-1.134814 0,-1.122411 -0.00207,-1.134813 0,-0.01447 -0.0062,-0.03514 -0.0062,-0.02067 -0.020671,-0.04134 -0.014469,-0.02274 -0.041341,-0.03514 -0.026872,-0.01447 -0.068213,-0.01447 h -0.2811195 v 2.519741 z m 2.4329243,0.421679 h -0.4216793 v -1.401463 h -0.4196123 v 1.401463 H -7.416911 v -2.80086 l 0.00413,-0.05788 q 0.014469,-0.163298 0.1157551,-0.305925 0.1426269,-0.19637 0.4402829,-0.19637 h 0.1405597 q 0.1674315,0 0.2728514,0.05581 0.188102,0.101285 0.2501137,0.305924 0.026872,0.08268 0.037207,0.198437 z m -0.4216793,-1.821076 v -0.979784 q -0.012402,-0.14056 -0.1384928,-0.14056 h -0.1405597 q -0.1281575,0 -0.1405598,0.14056 v 0.979784 z"
       id="text7"
       style="font-stretch:condensed;font-size:4.23333px;line-height:1.05;font-family:'Matth condensed';-inkscape-font-specification:'Matth condensed, Condensed';text-align:end;letter-spacing:0.198437px;word-spacing:0px;text-orientation:upright;text-anchor:end;fill:#5b2d07;stroke-width:0.0254;stroke-linecap:round;stroke-linejoin:round;paint-order:fill markers stroke"
       inkscape:label="dihada"
       transform="rotate(-90)"
       aria-label="DIHADA" />
  </g>
</svg>
