<?xml version="1.0" encoding="UTF-8" standalone="no"?>
<!-- Created with Inkscape (http://www.inkscape.org/) -->

<svg
   width="4.875in"
   height="2in"
   viewBox="0 0 123.825 50.8"
   version="1.1"
   id="svg1"
   inkscape:version="1.3.1 (91b66b0783, 2023-11-16)"
   sodipodi:docname="mutant.svg"
   xml:space="preserve"
   xmlns:inkscape="http://www.inkscape.org/namespaces/inkscape"
   xmlns:sodipodi="http://sodipodi.sourceforge.net/DTD/sodipodi-0.dtd"
   xmlns="http://www.w3.org/2000/svg"
   xmlns:svg="http://www.w3.org/2000/svg"><sodipodi:namedview
     id="namedview1"
     pagecolor="#ffffff"
     bordercolor="#000000"
     borderopacity="0.25"
     inkscape:showpageshadow="2"
     inkscape:pageopacity="0.0"
     inkscape:pagecheckerboard="0"
     inkscape:deskcolor="#d1d1d1"
     inkscape:document-units="in"
     inkscape:zoom="2"
     inkscape:cx="246.25"
     inkscape:cy="70"
     inkscape:window-width="1620"
     inkscape:window-height="1010"
     inkscape:window-x="-6"
     inkscape:window-y="-6"
     inkscape:window-maximized="1"
     inkscape:current-layer="layer1" /><defs
     id="defs1"><mask
       maskUnits="userSpaceOnUse"
       id="mask5"><rect
         style="fill:#ffffff;fill-opacity:1;stroke:none;stroke-width:0.0254;stroke-linecap:round;stroke-linejoin:round;stroke-dasharray:none;stroke-opacity:1;paint-order:fill markers stroke"
         id="rect5"
         width="57.150002"
         height="12.7"
         x="3.175"
         y="3.175"
         rx="6.3499999"
         ry="6.3499999" /></mask></defs><g
     inkscape:label="Layer 1"
     inkscape:groupmode="layer"
     id="layer1"><g
       id="g5"
       inkscape:label="token"><path
         id="rect1"
         style="fill:#fed1aa;stroke:#000000;stroke-width:0.0254;stroke-linecap:round;stroke-linejoin:round;paint-order:fill markers stroke"
         d="M 9.5249999,3.175 H 53.975002 c 3.5179,0 6.349999,2.8320999 6.349999,6.3499999 0,3.5179001 -2.832099,6.3500001 -6.349999,6.3500001 H 9.5249999 C 6.0070999,15.875 3.175,13.0429 3.175,9.5249999 3.175,6.0070999 6.0070999,3.175 9.5249999,3.175 Z" /><path
         style="font-size:6.35px;line-height:0.8;font-family:'Baxter\'s Slab';-inkscape-font-specification:'Baxter\'s Slab, Normal';letter-spacing:0.198437px;word-spacing:0px;text-orientation:upright;fill:#5b2d07;stroke-width:0.0254;stroke-linecap:round;stroke-linejoin:round;paint-order:fill markers stroke"
         d="M 7.7422061,11.820809 V 7.3931727 H 7.3453311 V 6.6552333 h 1.5875 V 7.765243 L 10.123456,8.8690516 11.314081,7.765243 V 6.6552333 h 1.190625 V 11.08287 h 0.396875 v 0.737939 h -1.5875 V 9.2411219 L 10.123456,10.34493 8.9328311,9.2411219 v 2.5796871 z m 6.5484369,0 -0.79375,-0.737939 V 7.3931727 H 13.100018 V 6.6552333 h 1.5875 V 11.08287 h 1.190625 V 6.6552333 h 1.190625 V 11.08287 l -0.79375,0.737939 z m 4.167188,0 V 11.08287 h 0.396875 V 7.3931727 H 17.664081 V 6.6552333 h 3.571874 V 7.3931727 H 20.04533 V 11.08287 h 0.396875 v 0.737939 z M 24.609392,8.8690516 V 7.3931727 h -1.190625 v 1.4758789 z m -2.38125,2.9517574 V 9.606991 H 21.831267 V 8.8690516 h 0.396875 V 7.3931727 l 0.79375,-0.7379394 h 1.984375 l 0.79375,0.7379394 V 11.08287 h 0.396875 v 0.737939 h -1.5875 V 9.606991 h -1.190625 v 2.213818 z m 4.564061,0 V 7.3931727 H 26.395328 V 6.6552333 h 1.5875 V 7.765243 l 1.190625,1.1038086 V 6.6552333 h 1.190625 V 11.08287 h 0.396875 v 0.737939 h -1.5875 V 10.34493 L 27.982828,9.2411219 v 2.5796871 z m 4.960938,0 V 11.08287 h 0.396875 V 7.3931727 H 30.959391 V 6.6552333 h 3.571874 V 7.3931727 H 33.340641 V 11.08287 h 0.396875 v 0.737939 z"
         id="text1"
         aria-label="MUTANT" /><path
         d="m 43.948947,11.820809 -0.79375,-0.737939 v -0.73794 h 1.190625 v 0.73794 h 1.190625 V 9.606991 H 44.345822 V 8.8690516 h 1.190625 V 7.3931727 H 44.345822 V 8.1311122 H 43.155197 V 7.3931727 l 0.79375,-0.7379394 h 1.984375 l 0.79375,0.7379394 v 1.4758789 l -0.396875,0.3720703 0.396875,0.3658691 v 1.475879 l -0.79375,0.737939 z m 3.770312,0 V 9.9790613 L 50.100509,7.765243 V 6.6552333 h 1.190625 v 1.4758789 l -2.38125,2.2138178 v 0.73794 h 0.396875 v 0.737939 z m 5.357812,0 -0.79375,-0.737939 v -0.73794 h 1.190625 v 0.73794 h 1.190625 V 9.606991 H 53.473946 V 8.8690516 h 1.190625 V 7.3931727 H 53.473946 V 8.1311122 H 52.283321 V 7.3931727 l 0.79375,-0.7379394 h 1.984375 l 0.79375,0.7379394 v 1.4758789 l -0.396875,0.3720703 0.396875,0.3658691 v 1.475879 l -0.79375,0.737939 z"
         id="text2"
         style="font-size:6.35px;line-height:0.8;font-family:'Baxter\'s Slab';-inkscape-font-specification:'Baxter\'s Slab, Normal';letter-spacing:0.198437px;word-spacing:0px;text-orientation:upright;fill:#5b2d07;stroke-width:0.0254;stroke-linecap:round;stroke-linejoin:round;paint-order:fill markers stroke"
         aria-label="3/3" /><path
         id="path1"
         style="fill:#ac560e;stroke-width:0.422008"
         d="m 41.894714,-2.4642991 c -0.02206,0.00326 -0.140251,0.5284929 -0.170102,0.756521 -0.04059,0.3099814 -0.04326,0.6377932 -0.0084,1.00776824 0.02876,0.305131 0.03793,0.34439004 0.227897,0.98550309 0.108844,0.36731255 0.241217,0.77468787 0.29418,0.90497477 0.05296,0.1302881 0.174864,0.4826229 0.270983,0.7829972 0.254419,0.7954418 0.309896,1.2200218 0.230936,1.7668094 -0.03791,0.2623969 -0.162076,0.7171762 -0.199702,0.7319605 -0.03328,0.01305 -2.491221,-1.3288893 -2.502083,-1.3660629 -0.0166,-0.056654 0.306271,-0.5283378 0.514138,-0.7511577 l 0.08881,-0.095573 0.909617,0.4945845 c 0.500184,0.2718787 0.924388,0.4884953 0.942802,0.4812699 0.042,-0.016461 0.04287,-0.03955 0.0099,-0.2740704 L 42.477004,2.770839 41.770398,2.3783761 C 41.238334,2.0826145 41.067929,1.9765955 41.080157,1.9491559 41.091167,1.9244569 41.255293,1.8477424 41.58978,1.7102533 l 0.493477,-0.2032766 -0.08071,-0.2228419 c -0.04424,-0.1228259 -0.09634,-0.2556699 -0.11626,-0.29480441 l -0.0363,-0.0712129 -0.47177,0.19754541 c -0.371466,0.1555672 -0.516485,0.2272921 -0.68342,0.3376438 -0.584288,0.3862422 -0.950567,0.8427674 -1.271468,1.5837094 -0.499456,1.1532509 -0.462339,2.1140352 0.148589,3.8285078 0.07422,0.2082622 0.214438,0.647565 0.311667,0.9762779 0.154954,0.5239614 0.18023,0.6301345 0.20387,0.8616291 0.04655,0.4558512 0.01914,0.9724486 -0.06954,1.3164051 -0.006,0.02339 -0.0097,0.04634 -0.01314,0.0684 L 37.517358,8.806039 37.569028,8.72866 c 0.03833,-0.057227 0.13805,-0.1873651 0.222067,-0.2888616 l 0.152946,-0.184556 0.926238,0.5036689 c 0.617157,0.3355247 0.940531,0.497942 0.969391,0.486411 0.03695,-0.014484 0.04137,-0.049373 0.02962,-0.2359936 L 39.855625,8.7900888 39.112318,8.3756486 C 38.70359,8.1476677 38.366794,7.951827 38.363554,7.940891 38.350916,7.8975393 38.669309,7.7225428 39.130835,7.5187147 l 0.347451,-0.1536611 -0.07914,-0.2329028 c -0.120846,-0.3563443 -0.09774,-0.3359439 -0.306,-0.2752869 -0.0985,0.028669 -0.312466,0.1179038 -0.475259,0.1980182 -0.47503,0.2337713 -0.890867,0.545541 -1.209492,0.9069774 -0.132601,0.1504185 -0.387084,0.5339382 -0.429733,0.6002634 L 36.76506,8.8885847 C 36.6987,9.0103378 36.625333,9.41746 36.595483,9.6454881 c -0.04058,0.3099807 -0.04327,0.6377929 -0.0084,1.0077689 0.02876,0.305131 0.03793,0.344389 0.227896,0.985501 0.108844,0.367313 0.241115,0.774185 0.294078,0.904471 0.05296,0.130288 0.174967,0.483128 0.271082,0.783503 0.25442,0.795442 0.309796,1.219517 0.230789,1.766314 -0.03792,0.262395 -0.162076,0.717175 -0.199702,0.731959 -0.03328,0.01303 -2.49122,-1.328889 -2.502083,-1.366061 -0.0166,-0.05666 0.306271,-0.528338 0.514138,-0.751158 l 0.08891,-0.09507 0.909515,0.494079 c 0.500186,0.271879 0.924391,0.488495 0.942804,0.48127 0.042,-0.01648 0.04298,-0.03905 0.0099,-0.273565 l -0.02709,-0.190264 -0.706284,-0.393089 c -0.532065,-0.295763 -0.702367,-0.401277 -0.69014,-0.428716 0.01101,-0.02469 0.175035,-0.101909 0.509521,-0.239406 l 0.493158,-0.202648 -0.08038,-0.223472 c -0.04424,-0.122825 -0.09676,-0.255548 -0.116689,-0.294681 l -0.03577,-0.07084 -0.471769,0.197541 c -0.371469,0.155568 -0.51659,0.226786 -0.683525,0.337139 -0.584287,0.386241 -0.950991,0.84289 -1.271892,1.583831 -0.499456,1.153251 -0.461916,2.113915 0.149012,3.828386 0.07422,0.208263 0.214439,0.647565 0.311667,0.976279 0.154954,0.523961 0.179905,0.630762 0.203543,0.862255 0.04655,0.455851 0.01957,0.972327 -0.06912,1.316284 -0.01567,0.06073 -0.02395,0.1266 -0.01801,0.146683 0.0059,0.02009 0.114671,0.09459 0.2417,0.165169 0.127012,0.0706 0.240368,0.124615 0.251897,0.12005 0.0311,-0.0124 0.119304,-0.411554 0.163964,-0.742471 0.100233,-0.742645 -0.0072,-1.492594 -0.364683,-2.540821 -0.462192,-1.355544 -0.595751,-1.845638 -0.623953,-2.289809 -0.01384,-0.217719 -0.008,-0.505929 0.01439,-0.685958 0.01975,-0.158553 0.141585,-0.644931 0.161582,-0.645144 0.0093,-8.7e-5 0.576707,0.304278 1.260449,0.676312 l 1.24301,0.67654 -0.05055,0.09414 c -0.06689,0.124607 -0.365104,0.514338 -0.464985,0.607766 -0.06811,0.06366 -0.09045,0.07385 -0.157083,0.07042 -0.04589,-0.0023 -0.422559,-0.190457 -0.919423,-0.458651 -0.46293,-0.249878 -0.844607,-0.447349 -0.848249,-0.439148 -0.0036,0.0081 0.0091,0.129231 0.02815,0.268979 l 0.03443,0.253812 0.61931,0.34184 c 0.340651,0.188048 0.623927,0.357383 0.629384,0.376307 0.01125,0.03848 -0.263331,0.175685 -0.680373,0.339434 l -0.226874,0.08897 0.07265,0.200607 c 0.03995,0.110206 0.09081,0.243289 0.112868,0.295783 l 0.0398,0.0953 0.120198,-0.0443 c 1.208904,-0.444533 1.854166,-1.017511 2.326151,-2.065866 0.30567,-0.6789 0.412613,-1.296837 0.349752,-2.020344 -0.02121,-0.245715 -0.03817,-0.316666 -0.22347,-0.94567 -0.131372,-0.446229 -0.266704,-0.855744 -0.393419,-1.191353 -0.237691,-0.629589 -0.393492,-1.198089 -0.427777,-1.559972 -0.04125,-0.435333 -0.01702,-0.8098929 0.07791,-1.2147047 l 0.03198,-0.1373676 2.469736,1.3545753 -0.08072,0.113523 c -0.05546,0.07833 -0.159204,0.210733 -0.23088,0.294074 l -0.130468,0.151395 -0.214769,-0.111543 c -0.118199,-0.06138 -0.54883,-0.291787 -0.957027,-0.51186 l -0.742259,-0.400327 0.0038,0.179362 c 0.0074,0.362121 -0.05337,0.303103 0.768106,0.753791 0.398277,0.218502 0.71991,0.407174 0.714631,0.418978 -0.01996,0.04475 -0.213003,0.143604 -0.641612,0.329316 -0.435519,0.18871 -0.442622,0.192949 -0.418093,0.237048 0.01374,0.02467 0.06495,0.155747 0.113748,0.291258 l 0.08854,0.246209 0.275534,-0.107811 c 0.846863,-0.332109 1.380569,-0.741293 1.843459,-1.412414 0.0836,-0.121211 0.07465,-0.116104 0.146248,-0.23121 l 0.216136,-0.351755 c 0.06186,-0.104544 0.119202,-0.412058 0.163861,-0.7429749 0.100353,-0.7426401 -0.0071,-1.4925889 -0.364562,-2.5408147 -0.462189,-1.3555399 -0.595648,-1.8451301 -0.623848,-2.2893003 -0.01384,-0.2177175 -0.0076,-0.5060503 0.01482,-0.6860804 0.01975,-0.1585527 0.141583,-0.6449317 0.161581,-0.6451442 0.0093,-1.111e-4 0.576282,0.3044009 1.260024,0.6764349 l 1.243011,0.6765396 -0.05022,0.093511 c -0.06689,0.1246076 -0.365427,0.5149646 -0.465307,0.6083935 -0.06811,0.063662 -0.09056,0.073341 -0.157184,0.069921 -0.0459,-0.00236 -0.422457,-0.1899534 -0.919321,-0.4581477 -0.462929,-0.2498794 -0.84471,-0.4478558 -0.848352,-0.4396552 -0.0036,0.00815 0.0091,0.1292309 0.02815,0.2689788 l 0.03457,0.2543062 0.619309,0.3418401 c 0.34065,0.1880476 0.624351,0.3572605 0.629808,0.3761842 0.01125,0.03848 -0.263855,0.175305 -0.680898,0.3390508 l -0.226774,0.08947 0.07255,0.2001019 c 0.03996,0.1102061 0.09081,0.2432897 0.112868,0.2957827 l 0.0399,0.095801 0.120624,-0.044418 C 41.866992,6.5474852 42.511831,5.9746295 42.983816,4.9262738 43.289485,4.2473747 43.396428,3.6294362 43.333568,2.9059304 43.312315,2.660221 43.295378,2.5892659 43.110097,1.9602611 42.978651,1.5140644 42.843743,1.1044257 42.717028,0.76881667 c -0.237691,-0.62958908 -0.393915,-1.1979666 -0.4282,-1.5598494 -0.04125,-0.43533317 -0.01712,-0.81039777 0.0778,-1.21520977 l 0.03909,-0.1666483 -0.249145,-0.14647 c -0.137128,-0.080674 -0.25494,-0.1459272 -0.261856,-0.1449375 z m 0.617577,1.2110133 0.0038,0.1793633 c 0.0074,0.36212092 -0.05295,0.30298114 0.768529,0.75366929 0.398276,0.21850034 0.719788,0.40667558 0.714529,0.4184737 -0.01995,0.04475775 -0.213325,0.14423108 -0.641935,0.32994235 -0.435508,0.18870911 -0.442727,0.1924425 -0.418193,0.23654288 0.01373,0.024675 0.06495,0.15574664 0.113747,0.2912581 l 0.08865,0.24671248 0.275433,-0.1083164 c 0.846862,-0.33210762 1.380671,-0.74078756 1.84356,-1.41190852 0.0836,-0.12121107 0.149525,-0.22527396 0.146249,-0.23120954 -0.0032,-0.005912 -0.120945,-0.0691805 -0.261773,-0.14015637 l -0.25633,-0.12890207 -0.100399,0.14269656 c -0.05546,0.0783333 -0.15973,0.21035152 -0.231406,0.29369233 l -0.130377,0.15188205 -0.21487,-0.1120466 c -0.118239,-0.0613931 -0.548871,-0.29179449 -0.957066,-0.51186807 z M 33.963948,18.209623 c -0.0985,0.02867 -0.312467,0.117907 -0.475261,0.198013 -0.475029,0.233771 -0.890866,0.54554 -1.209491,0.906977 -0.132602,0.150419 -0.440413,0.580828 -0.429634,0.600768 0.0032,0.006 0.12165,0.06896 0.263145,0.140295 l 0.256996,0.129788 0.07007,-0.104042 c 0.03833,-0.05722 0.138153,-0.186861 0.222167,-0.288357 l 0.152845,-0.185062 0.926238,0.503669 c 0.617156,0.335526 0.940533,0.497944 0.96939,0.486411 0.03694,-0.01455 0.04137,-0.04937 0.02962,-0.235993 l -0.01358,-0.219246 -0.743305,-0.41444 c -0.408704,-0.227987 -0.745397,-0.423322 -0.748638,-0.434259 -0.01264,-0.04335 0.305653,-0.218852 0.767181,-0.422681 l 0.347451,-0.153661 -0.07914,-0.232906 c -0.120849,-0.356343 -0.09774,-0.335942 -0.306004,-0.275285 z"
         inkscape:label="DNA"
         sodipodi:nodetypes="cscsccscccccccccsccccccscscsscccccccccccccccssccscsccscccccccccsccccccscccsscccscsccccccssccccccccccccccccccccccccccscsscccsccscsscccccssscccccccccccccccccccccsssscccsccccccccccsscccccccccccccccc"
         mask="url(#mask5)" /></g><g
       id="g8"
       inkscape:label="token"
       transform="translate(60.3377)"><path
         id="path5"
         style="fill:#fed1aa;stroke:#000000;stroke-width:0.0254;stroke-linecap:round;stroke-linejoin:round;paint-order:fill markers stroke"
         d="M 9.5249999,3.175 H 53.975002 c 3.5179,0 6.349999,2.8320999 6.349999,6.3499999 0,3.5179001 -2.832099,6.3500001 -6.349999,6.3500001 H 9.5249999 C 6.0070999,15.875 3.175,13.0429 3.175,9.5249999 3.175,6.0070999 6.0070999,3.175 9.5249999,3.175 Z" /><path
         style="font-size:6.35px;line-height:0.8;font-family:'Baxter\'s Slab';-inkscape-font-specification:'Baxter\'s Slab, Normal';letter-spacing:0.198437px;word-spacing:0px;text-orientation:upright;fill:#5b2d07;stroke-width:0.0254;stroke-linecap:round;stroke-linejoin:round;paint-order:fill markers stroke"
         d="M 7.7422061,11.820809 V 7.3931727 H 7.3453311 V 6.6552333 h 1.5875 V 7.765243 L 10.123456,8.8690516 11.314081,7.765243 V 6.6552333 h 1.190625 V 11.08287 h 0.396875 v 0.737939 h -1.5875 V 9.2411219 L 10.123456,10.34493 8.9328311,9.2411219 v 2.5796871 z m 6.5484369,0 -0.79375,-0.737939 V 7.3931727 H 13.100018 V 6.6552333 h 1.5875 V 11.08287 h 1.190625 V 6.6552333 h 1.190625 V 11.08287 l -0.79375,0.737939 z m 4.167188,0 V 11.08287 h 0.396875 V 7.3931727 H 17.664081 V 6.6552333 h 3.571874 V 7.3931727 H 20.04533 V 11.08287 h 0.396875 v 0.737939 z M 24.609392,8.8690516 V 7.3931727 h -1.190625 v 1.4758789 z m -2.38125,2.9517574 V 9.606991 H 21.831267 V 8.8690516 h 0.396875 V 7.3931727 l 0.79375,-0.7379394 h 1.984375 l 0.79375,0.7379394 V 11.08287 h 0.396875 v 0.737939 h -1.5875 V 9.606991 h -1.190625 v 2.213818 z m 4.564061,0 V 7.3931727 H 26.395328 V 6.6552333 h 1.5875 V 7.765243 l 1.190625,1.1038086 V 6.6552333 h 1.190625 V 11.08287 h 0.396875 v 0.737939 h -1.5875 V 10.34493 L 27.982828,9.2411219 v 2.5796871 z m 4.960938,0 V 11.08287 h 0.396875 V 7.3931727 H 30.959391 V 6.6552333 h 3.571874 V 7.3931727 H 33.340641 V 11.08287 h 0.396875 v 0.737939 z"
         id="path6"
         aria-label="MUTANT" /><path
         d="m 43.948947,11.820809 -0.79375,-0.737939 v -0.73794 h 1.190625 v 0.73794 h 1.190625 V 9.606991 H 44.345822 V 8.8690516 h 1.190625 V 7.3931727 H 44.345822 V 8.1311122 H 43.155197 V 7.3931727 l 0.79375,-0.7379394 h 1.984375 l 0.79375,0.7379394 v 1.4758789 l -0.396875,0.3720703 0.396875,0.3658691 v 1.475879 l -0.79375,0.737939 z m 3.770312,0 V 9.9790613 L 50.100509,7.765243 V 6.6552333 h 1.190625 v 1.4758789 l -2.38125,2.2138178 v 0.73794 h 0.396875 v 0.737939 z m 5.357812,0 -0.79375,-0.737939 v -0.73794 h 1.190625 v 0.73794 h 1.190625 V 9.606991 H 53.473946 V 8.8690516 h 1.190625 V 7.3931727 H 53.473946 V 8.1311122 H 52.283321 V 7.3931727 l 0.79375,-0.7379394 h 1.984375 l 0.79375,0.7379394 v 1.4758789 l -0.396875,0.3720703 0.396875,0.3658691 v 1.475879 l -0.79375,0.737939 z"
         id="path7"
         style="font-size:6.35px;line-height:0.8;font-family:'Baxter\'s Slab';-inkscape-font-specification:'Baxter\'s Slab, Normal';letter-spacing:0.198437px;word-spacing:0px;text-orientation:upright;fill:#5b2d07;stroke-width:0.0254;stroke-linecap:round;stroke-linejoin:round;paint-order:fill markers stroke"
         aria-label="3/3" /><path
         id="path8"
         style="fill:#ac560e;stroke-width:0.422008"
         d="m 41.894714,-2.4642991 c -0.02206,0.00326 -0.140251,0.5284929 -0.170102,0.756521 -0.04059,0.3099814 -0.04326,0.6377932 -0.0084,1.00776824 0.02876,0.305131 0.03793,0.34439004 0.227897,0.98550309 0.108844,0.36731255 0.241217,0.77468787 0.29418,0.90497477 0.05296,0.1302881 0.174864,0.4826229 0.270983,0.7829972 0.254419,0.7954418 0.309896,1.2200218 0.230936,1.7668094 -0.03791,0.2623969 -0.162076,0.7171762 -0.199702,0.7319605 -0.03328,0.01305 -2.491221,-1.3288893 -2.502083,-1.3660629 -0.0166,-0.056654 0.306271,-0.5283378 0.514138,-0.7511577 l 0.08881,-0.095573 0.909617,0.4945845 c 0.500184,0.2718787 0.924388,0.4884953 0.942802,0.4812699 0.042,-0.016461 0.04287,-0.03955 0.0099,-0.2740704 L 42.477004,2.770839 41.770398,2.3783761 C 41.238334,2.0826145 41.067929,1.9765955 41.080157,1.9491559 41.091167,1.9244569 41.255293,1.8477424 41.58978,1.7102533 l 0.493477,-0.2032766 -0.08071,-0.2228419 c -0.04424,-0.1228259 -0.09634,-0.2556699 -0.11626,-0.29480441 l -0.0363,-0.0712129 -0.47177,0.19754541 c -0.371466,0.1555672 -0.516485,0.2272921 -0.68342,0.3376438 -0.584288,0.3862422 -0.950567,0.8427674 -1.271468,1.5837094 -0.499456,1.1532509 -0.462339,2.1140352 0.148589,3.8285078 0.07422,0.2082622 0.214438,0.647565 0.311667,0.9762779 0.154954,0.5239614 0.18023,0.6301345 0.20387,0.8616291 0.04655,0.4558512 0.01914,0.9724486 -0.06954,1.3164051 -0.006,0.02339 -0.0097,0.04634 -0.01314,0.0684 L 37.517358,8.806039 37.569028,8.72866 c 0.03833,-0.057227 0.13805,-0.1873651 0.222067,-0.2888616 l 0.152946,-0.184556 0.926238,0.5036689 c 0.617157,0.3355247 0.940531,0.497942 0.969391,0.486411 0.03695,-0.014484 0.04137,-0.049373 0.02962,-0.2359936 L 39.855625,8.7900888 39.112318,8.3756486 C 38.70359,8.1476677 38.366794,7.951827 38.363554,7.940891 38.350916,7.8975393 38.669309,7.7225428 39.130835,7.5187147 l 0.347451,-0.1536611 -0.07914,-0.2329028 c -0.120846,-0.3563443 -0.09774,-0.3359439 -0.306,-0.2752869 -0.0985,0.028669 -0.312466,0.1179038 -0.475259,0.1980182 -0.47503,0.2337713 -0.890867,0.545541 -1.209492,0.9069774 -0.132601,0.1504185 -0.387084,0.5339382 -0.429733,0.6002634 L 36.76506,8.8885847 C 36.6987,9.0103378 36.625333,9.41746 36.595483,9.6454881 c -0.04058,0.3099807 -0.04327,0.6377929 -0.0084,1.0077689 0.02876,0.305131 0.03793,0.344389 0.227896,0.985501 0.108844,0.367313 0.241115,0.774185 0.294078,0.904471 0.05296,0.130288 0.174967,0.483128 0.271082,0.783503 0.25442,0.795442 0.309796,1.219517 0.230789,1.766314 -0.03792,0.262395 -0.162076,0.717175 -0.199702,0.731959 -0.03328,0.01303 -2.49122,-1.328889 -2.502083,-1.366061 -0.0166,-0.05666 0.306271,-0.528338 0.514138,-0.751158 l 0.08891,-0.09507 0.909515,0.494079 c 0.500186,0.271879 0.924391,0.488495 0.942804,0.48127 0.042,-0.01648 0.04298,-0.03905 0.0099,-0.273565 l -0.02709,-0.190264 -0.706284,-0.393089 c -0.532065,-0.295763 -0.702367,-0.401277 -0.69014,-0.428716 0.01101,-0.02469 0.175035,-0.101909 0.509521,-0.239406 l 0.493158,-0.202648 -0.08038,-0.223472 c -0.04424,-0.122825 -0.09676,-0.255548 -0.116689,-0.294681 l -0.03577,-0.07084 -0.471769,0.197541 c -0.371469,0.155568 -0.51659,0.226786 -0.683525,0.337139 -0.584287,0.386241 -0.950991,0.84289 -1.271892,1.583831 -0.499456,1.153251 -0.461916,2.113915 0.149012,3.828386 0.07422,0.208263 0.214439,0.647565 0.311667,0.976279 0.154954,0.523961 0.179905,0.630762 0.203543,0.862255 0.04655,0.455851 0.01957,0.972327 -0.06912,1.316284 -0.01567,0.06073 -0.02395,0.1266 -0.01801,0.146683 0.0059,0.02009 0.114671,0.09459 0.2417,0.165169 0.127012,0.0706 0.240368,0.124615 0.251897,0.12005 0.0311,-0.0124 0.119304,-0.411554 0.163964,-0.742471 0.100233,-0.742645 -0.0072,-1.492594 -0.364683,-2.540821 -0.462192,-1.355544 -0.595751,-1.845638 -0.623953,-2.289809 -0.01384,-0.217719 -0.008,-0.505929 0.01439,-0.685958 0.01975,-0.158553 0.141585,-0.644931 0.161582,-0.645144 0.0093,-8.7e-5 0.576707,0.304278 1.260449,0.676312 l 1.24301,0.67654 -0.05055,0.09414 c -0.06689,0.124607 -0.365104,0.514338 -0.464985,0.607766 -0.06811,0.06366 -0.09045,0.07385 -0.157083,0.07042 -0.04589,-0.0023 -0.422559,-0.190457 -0.919423,-0.458651 -0.46293,-0.249878 -0.844607,-0.447349 -0.848249,-0.439148 -0.0036,0.0081 0.0091,0.129231 0.02815,0.268979 l 0.03443,0.253812 0.61931,0.34184 c 0.340651,0.188048 0.623927,0.357383 0.629384,0.376307 0.01125,0.03848 -0.263331,0.175685 -0.680373,0.339434 l -0.226874,0.08897 0.07265,0.200607 c 0.03995,0.110206 0.09081,0.243289 0.112868,0.295783 l 0.0398,0.0953 0.120198,-0.0443 c 1.208904,-0.444533 1.854166,-1.017511 2.326151,-2.065866 0.30567,-0.6789 0.412613,-1.296837 0.349752,-2.020344 -0.02121,-0.245715 -0.03817,-0.316666 -0.22347,-0.94567 -0.131372,-0.446229 -0.266704,-0.855744 -0.393419,-1.191353 -0.237691,-0.629589 -0.393492,-1.198089 -0.427777,-1.559972 -0.04125,-0.435333 -0.01702,-0.8098929 0.07791,-1.2147047 l 0.03198,-0.1373676 2.469736,1.3545753 -0.08072,0.113523 c -0.05546,0.07833 -0.159204,0.210733 -0.23088,0.294074 l -0.130468,0.151395 -0.214769,-0.111543 c -0.118199,-0.06138 -0.54883,-0.291787 -0.957027,-0.51186 l -0.742259,-0.400327 0.0038,0.179362 c 0.0074,0.362121 -0.05337,0.303103 0.768106,0.753791 0.398277,0.218502 0.71991,0.407174 0.714631,0.418978 -0.01996,0.04475 -0.213003,0.143604 -0.641612,0.329316 -0.435519,0.18871 -0.442622,0.192949 -0.418093,0.237048 0.01374,0.02467 0.06495,0.155747 0.113748,0.291258 l 0.08854,0.246209 0.275534,-0.107811 c 0.846863,-0.332109 1.380569,-0.741293 1.843459,-1.412414 0.0836,-0.121211 0.07465,-0.116104 0.146248,-0.23121 l 0.216136,-0.351755 c 0.06186,-0.104544 0.119202,-0.412058 0.163861,-0.7429749 0.100353,-0.7426401 -0.0071,-1.4925889 -0.364562,-2.5408147 -0.462189,-1.3555399 -0.595648,-1.8451301 -0.623848,-2.2893003 -0.01384,-0.2177175 -0.0076,-0.5060503 0.01482,-0.6860804 0.01975,-0.1585527 0.141583,-0.6449317 0.161581,-0.6451442 0.0093,-1.111e-4 0.576282,0.3044009 1.260024,0.6764349 l 1.243011,0.6765396 -0.05022,0.093511 c -0.06689,0.1246076 -0.365427,0.5149646 -0.465307,0.6083935 -0.06811,0.063662 -0.09056,0.073341 -0.157184,0.069921 -0.0459,-0.00236 -0.422457,-0.1899534 -0.919321,-0.4581477 -0.462929,-0.2498794 -0.84471,-0.4478558 -0.848352,-0.4396552 -0.0036,0.00815 0.0091,0.1292309 0.02815,0.2689788 l 0.03457,0.2543062 0.619309,0.3418401 c 0.34065,0.1880476 0.624351,0.3572605 0.629808,0.3761842 0.01125,0.03848 -0.263855,0.175305 -0.680898,0.3390508 l -0.226774,0.08947 0.07255,0.2001019 c 0.03996,0.1102061 0.09081,0.2432897 0.112868,0.2957827 l 0.0399,0.095801 0.120624,-0.044418 C 41.866992,6.5474852 42.511831,5.9746295 42.983816,4.9262738 43.289485,4.2473747 43.396428,3.6294362 43.333568,2.9059304 43.312315,2.660221 43.295378,2.5892659 43.110097,1.9602611 42.978651,1.5140644 42.843743,1.1044257 42.717028,0.76881667 c -0.237691,-0.62958908 -0.393915,-1.1979666 -0.4282,-1.5598494 -0.04125,-0.43533317 -0.01712,-0.81039777 0.0778,-1.21520977 l 0.03909,-0.1666483 -0.249145,-0.14647 c -0.137128,-0.080674 -0.25494,-0.1459272 -0.261856,-0.1449375 z m 0.617577,1.2110133 0.0038,0.1793633 c 0.0074,0.36212092 -0.05295,0.30298114 0.768529,0.75366929 0.398276,0.21850034 0.719788,0.40667558 0.714529,0.4184737 -0.01995,0.04475775 -0.213325,0.14423108 -0.641935,0.32994235 -0.435508,0.18870911 -0.442727,0.1924425 -0.418193,0.23654288 0.01373,0.024675 0.06495,0.15574664 0.113747,0.2912581 l 0.08865,0.24671248 0.275433,-0.1083164 c 0.846862,-0.33210762 1.380671,-0.74078756 1.84356,-1.41190852 0.0836,-0.12121107 0.149525,-0.22527396 0.146249,-0.23120954 -0.0032,-0.005912 -0.120945,-0.0691805 -0.261773,-0.14015637 l -0.25633,-0.12890207 -0.100399,0.14269656 c -0.05546,0.0783333 -0.15973,0.21035152 -0.231406,0.29369233 l -0.130377,0.15188205 -0.21487,-0.1120466 c -0.118239,-0.0613931 -0.548871,-0.29179449 -0.957066,-0.51186807 z M 33.963948,18.209623 c -0.0985,0.02867 -0.312467,0.117907 -0.475261,0.198013 -0.475029,0.233771 -0.890866,0.54554 -1.209491,0.906977 -0.132602,0.150419 -0.440413,0.580828 -0.429634,0.600768 0.0032,0.006 0.12165,0.06896 0.263145,0.140295 l 0.256996,0.129788 0.07007,-0.104042 c 0.03833,-0.05722 0.138153,-0.186861 0.222167,-0.288357 l 0.152845,-0.185062 0.926238,0.503669 c 0.617156,0.335526 0.940533,0.497944 0.96939,0.486411 0.03694,-0.01455 0.04137,-0.04937 0.02962,-0.235993 l -0.01358,-0.219246 -0.743305,-0.41444 c -0.408704,-0.227987 -0.745397,-0.423322 -0.748638,-0.434259 -0.01264,-0.04335 0.305653,-0.218852 0.767181,-0.422681 l 0.347451,-0.153661 -0.07914,-0.232906 c -0.120849,-0.356343 -0.09774,-0.335942 -0.306004,-0.275285 z"
         inkscape:label="DNA"
         sodipodi:nodetypes="cscsccscccccccccsccccccscscsscccccccccccccccssccscsccscccccccccsccccccscccsscccscsccccccssccccccccccccccccccccccccccscsscccsccscsscccccssscccccccccccccccccccccsssscccsccccccccccsscccccccccccccccc"
         mask="url(#mask5)" /></g><g
       id="g12"
       inkscape:label="token"
       transform="translate(0,31.7627)"><path
         id="path9"
         style="fill:#fed1aa;stroke:#000000;stroke-width:0.0254;stroke-linecap:round;stroke-linejoin:round;paint-order:fill markers stroke"
         d="M 9.5249999,3.175 H 53.975002 c 3.5179,0 6.349999,2.8320999 6.349999,6.3499999 0,3.5179001 -2.832099,6.3500001 -6.349999,6.3500001 H 9.5249999 C 6.0070999,15.875 3.175,13.0429 3.175,9.5249999 3.175,6.0070999 6.0070999,3.175 9.5249999,3.175 Z" /><path
         style="font-size:6.35px;line-height:0.8;font-family:'Baxter\'s Slab';-inkscape-font-specification:'Baxter\'s Slab, Normal';letter-spacing:0.198437px;word-spacing:0px;text-orientation:upright;fill:#5b2d07;stroke-width:0.0254;stroke-linecap:round;stroke-linejoin:round;paint-order:fill markers stroke"
         d="M 7.7422061,11.820809 V 7.3931727 H 7.3453311 V 6.6552333 h 1.5875 V 7.765243 L 10.123456,8.8690516 11.314081,7.765243 V 6.6552333 h 1.190625 V 11.08287 h 0.396875 v 0.737939 h -1.5875 V 9.2411219 L 10.123456,10.34493 8.9328311,9.2411219 v 2.5796871 z m 6.5484369,0 -0.79375,-0.737939 V 7.3931727 H 13.100018 V 6.6552333 h 1.5875 V 11.08287 h 1.190625 V 6.6552333 h 1.190625 V 11.08287 l -0.79375,0.737939 z m 4.167188,0 V 11.08287 h 0.396875 V 7.3931727 H 17.664081 V 6.6552333 h 3.571874 V 7.3931727 H 20.04533 V 11.08287 h 0.396875 v 0.737939 z M 24.609392,8.8690516 V 7.3931727 h -1.190625 v 1.4758789 z m -2.38125,2.9517574 V 9.606991 H 21.831267 V 8.8690516 h 0.396875 V 7.3931727 l 0.79375,-0.7379394 h 1.984375 l 0.79375,0.7379394 V 11.08287 h 0.396875 v 0.737939 h -1.5875 V 9.606991 h -1.190625 v 2.213818 z m 4.564061,0 V 7.3931727 H 26.395328 V 6.6552333 h 1.5875 V 7.765243 l 1.190625,1.1038086 V 6.6552333 h 1.190625 V 11.08287 h 0.396875 v 0.737939 h -1.5875 V 10.34493 L 27.982828,9.2411219 v 2.5796871 z m 4.960938,0 V 11.08287 h 0.396875 V 7.3931727 H 30.959391 V 6.6552333 h 3.571874 V 7.3931727 H 33.340641 V 11.08287 h 0.396875 v 0.737939 z"
         id="path10"
         aria-label="MUTANT" /><path
         d="m 43.948947,11.820809 -0.79375,-0.737939 v -0.73794 h 1.190625 v 0.73794 h 1.190625 V 9.606991 H 44.345822 V 8.8690516 h 1.190625 V 7.3931727 H 44.345822 V 8.1311122 H 43.155197 V 7.3931727 l 0.79375,-0.7379394 h 1.984375 l 0.79375,0.7379394 v 1.4758789 l -0.396875,0.3720703 0.396875,0.3658691 v 1.475879 l -0.79375,0.737939 z m 3.770312,0 V 9.9790613 L 50.100509,7.765243 V 6.6552333 h 1.190625 v 1.4758789 l -2.38125,2.2138178 v 0.73794 h 0.396875 v 0.737939 z m 5.357812,0 -0.79375,-0.737939 v -0.73794 h 1.190625 v 0.73794 h 1.190625 V 9.606991 H 53.473946 V 8.8690516 h 1.190625 V 7.3931727 H 53.473946 V 8.1311122 H 52.283321 V 7.3931727 l 0.79375,-0.7379394 h 1.984375 l 0.79375,0.7379394 v 1.4758789 l -0.396875,0.3720703 0.396875,0.3658691 v 1.475879 l -0.79375,0.737939 z"
         id="path11"
         style="font-size:6.35px;line-height:0.8;font-family:'Baxter\'s Slab';-inkscape-font-specification:'Baxter\'s Slab, Normal';letter-spacing:0.198437px;word-spacing:0px;text-orientation:upright;fill:#5b2d07;stroke-width:0.0254;stroke-linecap:round;stroke-linejoin:round;paint-order:fill markers stroke"
         aria-label="3/3" /><path
         id="path12"
         style="fill:#ac560e;stroke-width:0.422008"
         d="m 41.894714,-2.4642991 c -0.02206,0.00326 -0.140251,0.5284929 -0.170102,0.756521 -0.04059,0.3099814 -0.04326,0.6377932 -0.0084,1.00776824 0.02876,0.305131 0.03793,0.34439004 0.227897,0.98550309 0.108844,0.36731255 0.241217,0.77468787 0.29418,0.90497477 0.05296,0.1302881 0.174864,0.4826229 0.270983,0.7829972 0.254419,0.7954418 0.309896,1.2200218 0.230936,1.7668094 -0.03791,0.2623969 -0.162076,0.7171762 -0.199702,0.7319605 -0.03328,0.01305 -2.491221,-1.3288893 -2.502083,-1.3660629 -0.0166,-0.056654 0.306271,-0.5283378 0.514138,-0.7511577 l 0.08881,-0.095573 0.909617,0.4945845 c 0.500184,0.2718787 0.924388,0.4884953 0.942802,0.4812699 0.042,-0.016461 0.04287,-0.03955 0.0099,-0.2740704 L 42.477004,2.770839 41.770398,2.3783761 C 41.238334,2.0826145 41.067929,1.9765955 41.080157,1.9491559 41.091167,1.9244569 41.255293,1.8477424 41.58978,1.7102533 l 0.493477,-0.2032766 -0.08071,-0.2228419 c -0.04424,-0.1228259 -0.09634,-0.2556699 -0.11626,-0.29480441 l -0.0363,-0.0712129 -0.47177,0.19754541 c -0.371466,0.1555672 -0.516485,0.2272921 -0.68342,0.3376438 -0.584288,0.3862422 -0.950567,0.8427674 -1.271468,1.5837094 -0.499456,1.1532509 -0.462339,2.1140352 0.148589,3.8285078 0.07422,0.2082622 0.214438,0.647565 0.311667,0.9762779 0.154954,0.5239614 0.18023,0.6301345 0.20387,0.8616291 0.04655,0.4558512 0.01914,0.9724486 -0.06954,1.3164051 -0.006,0.02339 -0.0097,0.04634 -0.01314,0.0684 L 37.517358,8.806039 37.569028,8.72866 c 0.03833,-0.057227 0.13805,-0.1873651 0.222067,-0.2888616 l 0.152946,-0.184556 0.926238,0.5036689 c 0.617157,0.3355247 0.940531,0.497942 0.969391,0.486411 0.03695,-0.014484 0.04137,-0.049373 0.02962,-0.2359936 L 39.855625,8.7900888 39.112318,8.3756486 C 38.70359,8.1476677 38.366794,7.951827 38.363554,7.940891 38.350916,7.8975393 38.669309,7.7225428 39.130835,7.5187147 l 0.347451,-0.1536611 -0.07914,-0.2329028 c -0.120846,-0.3563443 -0.09774,-0.3359439 -0.306,-0.2752869 -0.0985,0.028669 -0.312466,0.1179038 -0.475259,0.1980182 -0.47503,0.2337713 -0.890867,0.545541 -1.209492,0.9069774 -0.132601,0.1504185 -0.387084,0.5339382 -0.429733,0.6002634 L 36.76506,8.8885847 C 36.6987,9.0103378 36.625333,9.41746 36.595483,9.6454881 c -0.04058,0.3099807 -0.04327,0.6377929 -0.0084,1.0077689 0.02876,0.305131 0.03793,0.344389 0.227896,0.985501 0.108844,0.367313 0.241115,0.774185 0.294078,0.904471 0.05296,0.130288 0.174967,0.483128 0.271082,0.783503 0.25442,0.795442 0.309796,1.219517 0.230789,1.766314 -0.03792,0.262395 -0.162076,0.717175 -0.199702,0.731959 -0.03328,0.01303 -2.49122,-1.328889 -2.502083,-1.366061 -0.0166,-0.05666 0.306271,-0.528338 0.514138,-0.751158 l 0.08891,-0.09507 0.909515,0.494079 c 0.500186,0.271879 0.924391,0.488495 0.942804,0.48127 0.042,-0.01648 0.04298,-0.03905 0.0099,-0.273565 l -0.02709,-0.190264 -0.706284,-0.393089 c -0.532065,-0.295763 -0.702367,-0.401277 -0.69014,-0.428716 0.01101,-0.02469 0.175035,-0.101909 0.509521,-0.239406 l 0.493158,-0.202648 -0.08038,-0.223472 c -0.04424,-0.122825 -0.09676,-0.255548 -0.116689,-0.294681 l -0.03577,-0.07084 -0.471769,0.197541 c -0.371469,0.155568 -0.51659,0.226786 -0.683525,0.337139 -0.584287,0.386241 -0.950991,0.84289 -1.271892,1.583831 -0.499456,1.153251 -0.461916,2.113915 0.149012,3.828386 0.07422,0.208263 0.214439,0.647565 0.311667,0.976279 0.154954,0.523961 0.179905,0.630762 0.203543,0.862255 0.04655,0.455851 0.01957,0.972327 -0.06912,1.316284 -0.01567,0.06073 -0.02395,0.1266 -0.01801,0.146683 0.0059,0.02009 0.114671,0.09459 0.2417,0.165169 0.127012,0.0706 0.240368,0.124615 0.251897,0.12005 0.0311,-0.0124 0.119304,-0.411554 0.163964,-0.742471 0.100233,-0.742645 -0.0072,-1.492594 -0.364683,-2.540821 -0.462192,-1.355544 -0.595751,-1.845638 -0.623953,-2.289809 -0.01384,-0.217719 -0.008,-0.505929 0.01439,-0.685958 0.01975,-0.158553 0.141585,-0.644931 0.161582,-0.645144 0.0093,-8.7e-5 0.576707,0.304278 1.260449,0.676312 l 1.24301,0.67654 -0.05055,0.09414 c -0.06689,0.124607 -0.365104,0.514338 -0.464985,0.607766 -0.06811,0.06366 -0.09045,0.07385 -0.157083,0.07042 -0.04589,-0.0023 -0.422559,-0.190457 -0.919423,-0.458651 -0.46293,-0.249878 -0.844607,-0.447349 -0.848249,-0.439148 -0.0036,0.0081 0.0091,0.129231 0.02815,0.268979 l 0.03443,0.253812 0.61931,0.34184 c 0.340651,0.188048 0.623927,0.357383 0.629384,0.376307 0.01125,0.03848 -0.263331,0.175685 -0.680373,0.339434 l -0.226874,0.08897 0.07265,0.200607 c 0.03995,0.110206 0.09081,0.243289 0.112868,0.295783 l 0.0398,0.0953 0.120198,-0.0443 c 1.208904,-0.444533 1.854166,-1.017511 2.326151,-2.065866 0.30567,-0.6789 0.412613,-1.296837 0.349752,-2.020344 -0.02121,-0.245715 -0.03817,-0.316666 -0.22347,-0.94567 -0.131372,-0.446229 -0.266704,-0.855744 -0.393419,-1.191353 -0.237691,-0.629589 -0.393492,-1.198089 -0.427777,-1.559972 -0.04125,-0.435333 -0.01702,-0.8098929 0.07791,-1.2147047 l 0.03198,-0.1373676 2.469736,1.3545753 -0.08072,0.113523 c -0.05546,0.07833 -0.159204,0.210733 -0.23088,0.294074 l -0.130468,0.151395 -0.214769,-0.111543 c -0.118199,-0.06138 -0.54883,-0.291787 -0.957027,-0.51186 l -0.742259,-0.400327 0.0038,0.179362 c 0.0074,0.362121 -0.05337,0.303103 0.768106,0.753791 0.398277,0.218502 0.71991,0.407174 0.714631,0.418978 -0.01996,0.04475 -0.213003,0.143604 -0.641612,0.329316 -0.435519,0.18871 -0.442622,0.192949 -0.418093,0.237048 0.01374,0.02467 0.06495,0.155747 0.113748,0.291258 l 0.08854,0.246209 0.275534,-0.107811 c 0.846863,-0.332109 1.380569,-0.741293 1.843459,-1.412414 0.0836,-0.121211 0.07465,-0.116104 0.146248,-0.23121 l 0.216136,-0.351755 c 0.06186,-0.104544 0.119202,-0.412058 0.163861,-0.7429749 0.100353,-0.7426401 -0.0071,-1.4925889 -0.364562,-2.5408147 -0.462189,-1.3555399 -0.595648,-1.8451301 -0.623848,-2.2893003 -0.01384,-0.2177175 -0.0076,-0.5060503 0.01482,-0.6860804 0.01975,-0.1585527 0.141583,-0.6449317 0.161581,-0.6451442 0.0093,-1.111e-4 0.576282,0.3044009 1.260024,0.6764349 l 1.243011,0.6765396 -0.05022,0.093511 c -0.06689,0.1246076 -0.365427,0.5149646 -0.465307,0.6083935 -0.06811,0.063662 -0.09056,0.073341 -0.157184,0.069921 -0.0459,-0.00236 -0.422457,-0.1899534 -0.919321,-0.4581477 -0.462929,-0.2498794 -0.84471,-0.4478558 -0.848352,-0.4396552 -0.0036,0.00815 0.0091,0.1292309 0.02815,0.2689788 l 0.03457,0.2543062 0.619309,0.3418401 c 0.34065,0.1880476 0.624351,0.3572605 0.629808,0.3761842 0.01125,0.03848 -0.263855,0.175305 -0.680898,0.3390508 l -0.226774,0.08947 0.07255,0.2001019 c 0.03996,0.1102061 0.09081,0.2432897 0.112868,0.2957827 l 0.0399,0.095801 0.120624,-0.044418 C 41.866992,6.5474852 42.511831,5.9746295 42.983816,4.9262738 43.289485,4.2473747 43.396428,3.6294362 43.333568,2.9059304 43.312315,2.660221 43.295378,2.5892659 43.110097,1.9602611 42.978651,1.5140644 42.843743,1.1044257 42.717028,0.76881667 c -0.237691,-0.62958908 -0.393915,-1.1979666 -0.4282,-1.5598494 -0.04125,-0.43533317 -0.01712,-0.81039777 0.0778,-1.21520977 l 0.03909,-0.1666483 -0.249145,-0.14647 c -0.137128,-0.080674 -0.25494,-0.1459272 -0.261856,-0.1449375 z m 0.617577,1.2110133 0.0038,0.1793633 c 0.0074,0.36212092 -0.05295,0.30298114 0.768529,0.75366929 0.398276,0.21850034 0.719788,0.40667558 0.714529,0.4184737 -0.01995,0.04475775 -0.213325,0.14423108 -0.641935,0.32994235 -0.435508,0.18870911 -0.442727,0.1924425 -0.418193,0.23654288 0.01373,0.024675 0.06495,0.15574664 0.113747,0.2912581 l 0.08865,0.24671248 0.275433,-0.1083164 c 0.846862,-0.33210762 1.380671,-0.74078756 1.84356,-1.41190852 0.0836,-0.12121107 0.149525,-0.22527396 0.146249,-0.23120954 -0.0032,-0.005912 -0.120945,-0.0691805 -0.261773,-0.14015637 l -0.25633,-0.12890207 -0.100399,0.14269656 c -0.05546,0.0783333 -0.15973,0.21035152 -0.231406,0.29369233 l -0.130377,0.15188205 -0.21487,-0.1120466 c -0.118239,-0.0613931 -0.548871,-0.29179449 -0.957066,-0.51186807 z M 33.963948,18.209623 c -0.0985,0.02867 -0.312467,0.117907 -0.475261,0.198013 -0.475029,0.233771 -0.890866,0.54554 -1.209491,0.906977 -0.132602,0.150419 -0.440413,0.580828 -0.429634,0.600768 0.0032,0.006 0.12165,0.06896 0.263145,0.140295 l 0.256996,0.129788 0.07007,-0.104042 c 0.03833,-0.05722 0.138153,-0.186861 0.222167,-0.288357 l 0.152845,-0.185062 0.926238,0.503669 c 0.617156,0.335526 0.940533,0.497944 0.96939,0.486411 0.03694,-0.01455 0.04137,-0.04937 0.02962,-0.235993 l -0.01358,-0.219246 -0.743305,-0.41444 c -0.408704,-0.227987 -0.745397,-0.423322 -0.748638,-0.434259 -0.01264,-0.04335 0.305653,-0.218852 0.767181,-0.422681 l 0.347451,-0.153661 -0.07914,-0.232906 c -0.120849,-0.356343 -0.09774,-0.335942 -0.306004,-0.275285 z"
         inkscape:label="DNA"
         sodipodi:nodetypes="cscsccscccccccccsccccccscscsscccccccccccccccssccscsccscccccccccsccccccscccsscccscsccccccssccccccccccccccccccccccccccscsscccsccscsscccccssscccccccccccccccccccccsssscccsccccccccccsscccccccccccccccc"
         mask="url(#mask5)" /></g><g
       id="g16"
       inkscape:label="token"
       transform="translate(60.3377,31.7627)"><path
         id="path13"
         style="fill:#fed1aa;stroke:#000000;stroke-width:0.0254;stroke-linecap:round;stroke-linejoin:round;paint-order:fill markers stroke"
         d="M 9.5249999,3.175 H 53.975002 c 3.5179,0 6.349999,2.8320999 6.349999,6.3499999 0,3.5179001 -2.832099,6.3500001 -6.349999,6.3500001 H 9.5249999 C 6.0070999,15.875 3.175,13.0429 3.175,9.5249999 3.175,6.0070999 6.0070999,3.175 9.5249999,3.175 Z" /><path
         style="font-size:6.35px;line-height:0.8;font-family:'Baxter\'s Slab';-inkscape-font-specification:'Baxter\'s Slab, Normal';letter-spacing:0.198437px;word-spacing:0px;text-orientation:upright;fill:#5b2d07;stroke-width:0.0254;stroke-linecap:round;stroke-linejoin:round;paint-order:fill markers stroke"
         d="M 7.7422061,11.820809 V 7.3931727 H 7.3453311 V 6.6552333 h 1.5875 V 7.765243 L 10.123456,8.8690516 11.314081,7.765243 V 6.6552333 h 1.190625 V 11.08287 h 0.396875 v 0.737939 h -1.5875 V 9.2411219 L 10.123456,10.34493 8.9328311,9.2411219 v 2.5796871 z m 6.5484369,0 -0.79375,-0.737939 V 7.3931727 H 13.100018 V 6.6552333 h 1.5875 V 11.08287 h 1.190625 V 6.6552333 h 1.190625 V 11.08287 l -0.79375,0.737939 z m 4.167188,0 V 11.08287 h 0.396875 V 7.3931727 H 17.664081 V 6.6552333 h 3.571874 V 7.3931727 H 20.04533 V 11.08287 h 0.396875 v 0.737939 z M 24.609392,8.8690516 V 7.3931727 h -1.190625 v 1.4758789 z m -2.38125,2.9517574 V 9.606991 H 21.831267 V 8.8690516 h 0.396875 V 7.3931727 l 0.79375,-0.7379394 h 1.984375 l 0.79375,0.7379394 V 11.08287 h 0.396875 v 0.737939 h -1.5875 V 9.606991 h -1.190625 v 2.213818 z m 4.564061,0 V 7.3931727 H 26.395328 V 6.6552333 h 1.5875 V 7.765243 l 1.190625,1.1038086 V 6.6552333 h 1.190625 V 11.08287 h 0.396875 v 0.737939 h -1.5875 V 10.34493 L 27.982828,9.2411219 v 2.5796871 z m 4.960938,0 V 11.08287 h 0.396875 V 7.3931727 H 30.959391 V 6.6552333 h 3.571874 V 7.3931727 H 33.340641 V 11.08287 h 0.396875 v 0.737939 z"
         id="path14"
         aria-label="MUTANT" /><path
         d="m 43.948947,11.820809 -0.79375,-0.737939 v -0.73794 h 1.190625 v 0.73794 h 1.190625 V 9.606991 H 44.345822 V 8.8690516 h 1.190625 V 7.3931727 H 44.345822 V 8.1311122 H 43.155197 V 7.3931727 l 0.79375,-0.7379394 h 1.984375 l 0.79375,0.7379394 v 1.4758789 l -0.396875,0.3720703 0.396875,0.3658691 v 1.475879 l -0.79375,0.737939 z m 3.770312,0 V 9.9790613 L 50.100509,7.765243 V 6.6552333 h 1.190625 v 1.4758789 l -2.38125,2.2138178 v 0.73794 h 0.396875 v 0.737939 z m 5.357812,0 -0.79375,-0.737939 v -0.73794 h 1.190625 v 0.73794 h 1.190625 V 9.606991 H 53.473946 V 8.8690516 h 1.190625 V 7.3931727 H 53.473946 V 8.1311122 H 52.283321 V 7.3931727 l 0.79375,-0.7379394 h 1.984375 l 0.79375,0.7379394 v 1.4758789 l -0.396875,0.3720703 0.396875,0.3658691 v 1.475879 l -0.79375,0.737939 z"
         id="path15"
         style="font-size:6.35px;line-height:0.8;font-family:'Baxter\'s Slab';-inkscape-font-specification:'Baxter\'s Slab, Normal';letter-spacing:0.198437px;word-spacing:0px;text-orientation:upright;fill:#5b2d07;stroke-width:0.0254;stroke-linecap:round;stroke-linejoin:round;paint-order:fill markers stroke"
         aria-label="3/3" /><path
         id="path16"
         style="fill:#ac560e;stroke-width:0.422008"
         d="m 41.894714,-2.4642991 c -0.02206,0.00326 -0.140251,0.5284929 -0.170102,0.756521 -0.04059,0.3099814 -0.04326,0.6377932 -0.0084,1.00776824 0.02876,0.305131 0.03793,0.34439004 0.227897,0.98550309 0.108844,0.36731255 0.241217,0.77468787 0.29418,0.90497477 0.05296,0.1302881 0.174864,0.4826229 0.270983,0.7829972 0.254419,0.7954418 0.309896,1.2200218 0.230936,1.7668094 -0.03791,0.2623969 -0.162076,0.7171762 -0.199702,0.7319605 -0.03328,0.01305 -2.491221,-1.3288893 -2.502083,-1.3660629 -0.0166,-0.056654 0.306271,-0.5283378 0.514138,-0.7511577 l 0.08881,-0.095573 0.909617,0.4945845 c 0.500184,0.2718787 0.924388,0.4884953 0.942802,0.4812699 0.042,-0.016461 0.04287,-0.03955 0.0099,-0.2740704 L 42.477004,2.770839 41.770398,2.3783761 C 41.238334,2.0826145 41.067929,1.9765955 41.080157,1.9491559 41.091167,1.9244569 41.255293,1.8477424 41.58978,1.7102533 l 0.493477,-0.2032766 -0.08071,-0.2228419 c -0.04424,-0.1228259 -0.09634,-0.2556699 -0.11626,-0.29480441 l -0.0363,-0.0712129 -0.47177,0.19754541 c -0.371466,0.1555672 -0.516485,0.2272921 -0.68342,0.3376438 -0.584288,0.3862422 -0.950567,0.8427674 -1.271468,1.5837094 -0.499456,1.1532509 -0.462339,2.1140352 0.148589,3.8285078 0.07422,0.2082622 0.214438,0.647565 0.311667,0.9762779 0.154954,0.5239614 0.18023,0.6301345 0.20387,0.8616291 0.04655,0.4558512 0.01914,0.9724486 -0.06954,1.3164051 -0.006,0.02339 -0.0097,0.04634 -0.01314,0.0684 L 37.517358,8.806039 37.569028,8.72866 c 0.03833,-0.057227 0.13805,-0.1873651 0.222067,-0.2888616 l 0.152946,-0.184556 0.926238,0.5036689 c 0.617157,0.3355247 0.940531,0.497942 0.969391,0.486411 0.03695,-0.014484 0.04137,-0.049373 0.02962,-0.2359936 L 39.855625,8.7900888 39.112318,8.3756486 C 38.70359,8.1476677 38.366794,7.951827 38.363554,7.940891 38.350916,7.8975393 38.669309,7.7225428 39.130835,7.5187147 l 0.347451,-0.1536611 -0.07914,-0.2329028 c -0.120846,-0.3563443 -0.09774,-0.3359439 -0.306,-0.2752869 -0.0985,0.028669 -0.312466,0.1179038 -0.475259,0.1980182 -0.47503,0.2337713 -0.890867,0.545541 -1.209492,0.9069774 -0.132601,0.1504185 -0.387084,0.5339382 -0.429733,0.6002634 L 36.76506,8.8885847 C 36.6987,9.0103378 36.625333,9.41746 36.595483,9.6454881 c -0.04058,0.3099807 -0.04327,0.6377929 -0.0084,1.0077689 0.02876,0.305131 0.03793,0.344389 0.227896,0.985501 0.108844,0.367313 0.241115,0.774185 0.294078,0.904471 0.05296,0.130288 0.174967,0.483128 0.271082,0.783503 0.25442,0.795442 0.309796,1.219517 0.230789,1.766314 -0.03792,0.262395 -0.162076,0.717175 -0.199702,0.731959 -0.03328,0.01303 -2.49122,-1.328889 -2.502083,-1.366061 -0.0166,-0.05666 0.306271,-0.528338 0.514138,-0.751158 l 0.08891,-0.09507 0.909515,0.494079 c 0.500186,0.271879 0.924391,0.488495 0.942804,0.48127 0.042,-0.01648 0.04298,-0.03905 0.0099,-0.273565 l -0.02709,-0.190264 -0.706284,-0.393089 c -0.532065,-0.295763 -0.702367,-0.401277 -0.69014,-0.428716 0.01101,-0.02469 0.175035,-0.101909 0.509521,-0.239406 l 0.493158,-0.202648 -0.08038,-0.223472 c -0.04424,-0.122825 -0.09676,-0.255548 -0.116689,-0.294681 l -0.03577,-0.07084 -0.471769,0.197541 c -0.371469,0.155568 -0.51659,0.226786 -0.683525,0.337139 -0.584287,0.386241 -0.950991,0.84289 -1.271892,1.583831 -0.499456,1.153251 -0.461916,2.113915 0.149012,3.828386 0.07422,0.208263 0.214439,0.647565 0.311667,0.976279 0.154954,0.523961 0.179905,0.630762 0.203543,0.862255 0.04655,0.455851 0.01957,0.972327 -0.06912,1.316284 -0.01567,0.06073 -0.02395,0.1266 -0.01801,0.146683 0.0059,0.02009 0.114671,0.09459 0.2417,0.165169 0.127012,0.0706 0.240368,0.124615 0.251897,0.12005 0.0311,-0.0124 0.119304,-0.411554 0.163964,-0.742471 0.100233,-0.742645 -0.0072,-1.492594 -0.364683,-2.540821 -0.462192,-1.355544 -0.595751,-1.845638 -0.623953,-2.289809 -0.01384,-0.217719 -0.008,-0.505929 0.01439,-0.685958 0.01975,-0.158553 0.141585,-0.644931 0.161582,-0.645144 0.0093,-8.7e-5 0.576707,0.304278 1.260449,0.676312 l 1.24301,0.67654 -0.05055,0.09414 c -0.06689,0.124607 -0.365104,0.514338 -0.464985,0.607766 -0.06811,0.06366 -0.09045,0.07385 -0.157083,0.07042 -0.04589,-0.0023 -0.422559,-0.190457 -0.919423,-0.458651 -0.46293,-0.249878 -0.844607,-0.447349 -0.848249,-0.439148 -0.0036,0.0081 0.0091,0.129231 0.02815,0.268979 l 0.03443,0.253812 0.61931,0.34184 c 0.340651,0.188048 0.623927,0.357383 0.629384,0.376307 0.01125,0.03848 -0.263331,0.175685 -0.680373,0.339434 l -0.226874,0.08897 0.07265,0.200607 c 0.03995,0.110206 0.09081,0.243289 0.112868,0.295783 l 0.0398,0.0953 0.120198,-0.0443 c 1.208904,-0.444533 1.854166,-1.017511 2.326151,-2.065866 0.30567,-0.6789 0.412613,-1.296837 0.349752,-2.020344 -0.02121,-0.245715 -0.03817,-0.316666 -0.22347,-0.94567 -0.131372,-0.446229 -0.266704,-0.855744 -0.393419,-1.191353 -0.237691,-0.629589 -0.393492,-1.198089 -0.427777,-1.559972 -0.04125,-0.435333 -0.01702,-0.8098929 0.07791,-1.2147047 l 0.03198,-0.1373676 2.469736,1.3545753 -0.08072,0.113523 c -0.05546,0.07833 -0.159204,0.210733 -0.23088,0.294074 l -0.130468,0.151395 -0.214769,-0.111543 c -0.118199,-0.06138 -0.54883,-0.291787 -0.957027,-0.51186 l -0.742259,-0.400327 0.0038,0.179362 c 0.0074,0.362121 -0.05337,0.303103 0.768106,0.753791 0.398277,0.218502 0.71991,0.407174 0.714631,0.418978 -0.01996,0.04475 -0.213003,0.143604 -0.641612,0.329316 -0.435519,0.18871 -0.442622,0.192949 -0.418093,0.237048 0.01374,0.02467 0.06495,0.155747 0.113748,0.291258 l 0.08854,0.246209 0.275534,-0.107811 c 0.846863,-0.332109 1.380569,-0.741293 1.843459,-1.412414 0.0836,-0.121211 0.07465,-0.116104 0.146248,-0.23121 l 0.216136,-0.351755 c 0.06186,-0.104544 0.119202,-0.412058 0.163861,-0.7429749 0.100353,-0.7426401 -0.0071,-1.4925889 -0.364562,-2.5408147 -0.462189,-1.3555399 -0.595648,-1.8451301 -0.623848,-2.2893003 -0.01384,-0.2177175 -0.0076,-0.5060503 0.01482,-0.6860804 0.01975,-0.1585527 0.141583,-0.6449317 0.161581,-0.6451442 0.0093,-1.111e-4 0.576282,0.3044009 1.260024,0.6764349 l 1.243011,0.6765396 -0.05022,0.093511 c -0.06689,0.1246076 -0.365427,0.5149646 -0.465307,0.6083935 -0.06811,0.063662 -0.09056,0.073341 -0.157184,0.069921 -0.0459,-0.00236 -0.422457,-0.1899534 -0.919321,-0.4581477 -0.462929,-0.2498794 -0.84471,-0.4478558 -0.848352,-0.4396552 -0.0036,0.00815 0.0091,0.1292309 0.02815,0.2689788 l 0.03457,0.2543062 0.619309,0.3418401 c 0.34065,0.1880476 0.624351,0.3572605 0.629808,0.3761842 0.01125,0.03848 -0.263855,0.175305 -0.680898,0.3390508 l -0.226774,0.08947 0.07255,0.2001019 c 0.03996,0.1102061 0.09081,0.2432897 0.112868,0.2957827 l 0.0399,0.095801 0.120624,-0.044418 C 41.866992,6.5474852 42.511831,5.9746295 42.983816,4.9262738 43.289485,4.2473747 43.396428,3.6294362 43.333568,2.9059304 43.312315,2.660221 43.295378,2.5892659 43.110097,1.9602611 42.978651,1.5140644 42.843743,1.1044257 42.717028,0.76881667 c -0.237691,-0.62958908 -0.393915,-1.1979666 -0.4282,-1.5598494 -0.04125,-0.43533317 -0.01712,-0.81039777 0.0778,-1.21520977 l 0.03909,-0.1666483 -0.249145,-0.14647 c -0.137128,-0.080674 -0.25494,-0.1459272 -0.261856,-0.1449375 z m 0.617577,1.2110133 0.0038,0.1793633 c 0.0074,0.36212092 -0.05295,0.30298114 0.768529,0.75366929 0.398276,0.21850034 0.719788,0.40667558 0.714529,0.4184737 -0.01995,0.04475775 -0.213325,0.14423108 -0.641935,0.32994235 -0.435508,0.18870911 -0.442727,0.1924425 -0.418193,0.23654288 0.01373,0.024675 0.06495,0.15574664 0.113747,0.2912581 l 0.08865,0.24671248 0.275433,-0.1083164 c 0.846862,-0.33210762 1.380671,-0.74078756 1.84356,-1.41190852 0.0836,-0.12121107 0.149525,-0.22527396 0.146249,-0.23120954 -0.0032,-0.005912 -0.120945,-0.0691805 -0.261773,-0.14015637 l -0.25633,-0.12890207 -0.100399,0.14269656 c -0.05546,0.0783333 -0.15973,0.21035152 -0.231406,0.29369233 l -0.130377,0.15188205 -0.21487,-0.1120466 c -0.118239,-0.0613931 -0.548871,-0.29179449 -0.957066,-0.51186807 z M 33.963948,18.209623 c -0.0985,0.02867 -0.312467,0.117907 -0.475261,0.198013 -0.475029,0.233771 -0.890866,0.54554 -1.209491,0.906977 -0.132602,0.150419 -0.440413,0.580828 -0.429634,0.600768 0.0032,0.006 0.12165,0.06896 0.263145,0.140295 l 0.256996,0.129788 0.07007,-0.104042 c 0.03833,-0.05722 0.138153,-0.186861 0.222167,-0.288357 l 0.152845,-0.185062 0.926238,0.503669 c 0.617156,0.335526 0.940533,0.497944 0.96939,0.486411 0.03694,-0.01455 0.04137,-0.04937 0.02962,-0.235993 l -0.01358,-0.219246 -0.743305,-0.41444 c -0.408704,-0.227987 -0.745397,-0.423322 -0.748638,-0.434259 -0.01264,-0.04335 0.305653,-0.218852 0.767181,-0.422681 l 0.347451,-0.153661 -0.07914,-0.232906 c -0.120849,-0.356343 -0.09774,-0.335942 -0.306004,-0.275285 z"
         inkscape:label="DNA"
         sodipodi:nodetypes="cscsccscccccccccsccccccscscsscccccccccccccccssccscsccscccccccccsccccccscccsscccscsccccccssccccccccccccccccccccccccccscsscccsccscsscccccssscccccccccccccccccccccsssscccsccccccccccsscccccccccccccccc"
         mask="url(#mask5)" /></g><g
       id="g20"
       inkscape:label="token"
       transform="translate(0,15.8877)"><path
         id="path17"
         style="fill:#fed1aa;stroke:#000000;stroke-width:0.0254;stroke-linecap:round;stroke-linejoin:round;paint-order:fill markers stroke"
         d="M 9.5249999,3.175 H 53.975002 c 3.5179,0 6.349999,2.8320999 6.349999,6.3499999 0,3.5179001 -2.832099,6.3500001 -6.349999,6.3500001 H 9.5249999 C 6.0070999,15.875 3.175,13.0429 3.175,9.5249999 3.175,6.0070999 6.0070999,3.175 9.5249999,3.175 Z" /><path
         style="font-size:6.35px;line-height:0.8;font-family:'Baxter\'s Slab';-inkscape-font-specification:'Baxter\'s Slab, Normal';letter-spacing:0.198437px;word-spacing:0px;text-orientation:upright;fill:#5b2d07;stroke-width:0.0254;stroke-linecap:round;stroke-linejoin:round;paint-order:fill markers stroke"
         d="M 7.7422061,11.820809 V 7.3931727 H 7.3453311 V 6.6552333 h 1.5875 V 7.765243 L 10.123456,8.8690516 11.314081,7.765243 V 6.6552333 h 1.190625 V 11.08287 h 0.396875 v 0.737939 h -1.5875 V 9.2411219 L 10.123456,10.34493 8.9328311,9.2411219 v 2.5796871 z m 6.5484369,0 -0.79375,-0.737939 V 7.3931727 H 13.100018 V 6.6552333 h 1.5875 V 11.08287 h 1.190625 V 6.6552333 h 1.190625 V 11.08287 l -0.79375,0.737939 z m 4.167188,0 V 11.08287 h 0.396875 V 7.3931727 H 17.664081 V 6.6552333 h 3.571874 V 7.3931727 H 20.04533 V 11.08287 h 0.396875 v 0.737939 z M 24.609392,8.8690516 V 7.3931727 h -1.190625 v 1.4758789 z m -2.38125,2.9517574 V 9.606991 H 21.831267 V 8.8690516 h 0.396875 V 7.3931727 l 0.79375,-0.7379394 h 1.984375 l 0.79375,0.7379394 V 11.08287 h 0.396875 v 0.737939 h -1.5875 V 9.606991 h -1.190625 v 2.213818 z m 4.564061,0 V 7.3931727 H 26.395328 V 6.6552333 h 1.5875 V 7.765243 l 1.190625,1.1038086 V 6.6552333 h 1.190625 V 11.08287 h 0.396875 v 0.737939 h -1.5875 V 10.34493 L 27.982828,9.2411219 v 2.5796871 z m 4.960938,0 V 11.08287 h 0.396875 V 7.3931727 H 30.959391 V 6.6552333 h 3.571874 V 7.3931727 H 33.340641 V 11.08287 h 0.396875 v 0.737939 z"
         id="path18"
         aria-label="MUTANT" /><path
         d="m 43.948947,11.820809 -0.79375,-0.737939 v -0.73794 h 1.190625 v 0.73794 h 1.190625 V 9.606991 H 44.345822 V 8.8690516 h 1.190625 V 7.3931727 H 44.345822 V 8.1311122 H 43.155197 V 7.3931727 l 0.79375,-0.7379394 h 1.984375 l 0.79375,0.7379394 v 1.4758789 l -0.396875,0.3720703 0.396875,0.3658691 v 1.475879 l -0.79375,0.737939 z m 3.770312,0 V 9.9790613 L 50.100509,7.765243 V 6.6552333 h 1.190625 v 1.4758789 l -2.38125,2.2138178 v 0.73794 h 0.396875 v 0.737939 z m 5.357812,0 -0.79375,-0.737939 v -0.73794 h 1.190625 v 0.73794 h 1.190625 V 9.606991 H 53.473946 V 8.8690516 h 1.190625 V 7.3931727 H 53.473946 V 8.1311122 H 52.283321 V 7.3931727 l 0.79375,-0.7379394 h 1.984375 l 0.79375,0.7379394 v 1.4758789 l -0.396875,0.3720703 0.396875,0.3658691 v 1.475879 l -0.79375,0.737939 z"
         id="path19"
         style="font-size:6.35px;line-height:0.8;font-family:'Baxter\'s Slab';-inkscape-font-specification:'Baxter\'s Slab, Normal';letter-spacing:0.198437px;word-spacing:0px;text-orientation:upright;fill:#5b2d07;stroke-width:0.0254;stroke-linecap:round;stroke-linejoin:round;paint-order:fill markers stroke"
         aria-label="3/3" /><path
         id="path20"
         style="fill:#ac560e;stroke-width:0.422008"
         d="m 41.894714,-2.4642991 c -0.02206,0.00326 -0.140251,0.5284929 -0.170102,0.756521 -0.04059,0.3099814 -0.04326,0.6377932 -0.0084,1.00776824 0.02876,0.305131 0.03793,0.34439004 0.227897,0.98550309 0.108844,0.36731255 0.241217,0.77468787 0.29418,0.90497477 0.05296,0.1302881 0.174864,0.4826229 0.270983,0.7829972 0.254419,0.7954418 0.309896,1.2200218 0.230936,1.7668094 -0.03791,0.2623969 -0.162076,0.7171762 -0.199702,0.7319605 -0.03328,0.01305 -2.491221,-1.3288893 -2.502083,-1.3660629 -0.0166,-0.056654 0.306271,-0.5283378 0.514138,-0.7511577 l 0.08881,-0.095573 0.909617,0.4945845 c 0.500184,0.2718787 0.924388,0.4884953 0.942802,0.4812699 0.042,-0.016461 0.04287,-0.03955 0.0099,-0.2740704 L 42.477004,2.770839 41.770398,2.3783761 C 41.238334,2.0826145 41.067929,1.9765955 41.080157,1.9491559 41.091167,1.9244569 41.255293,1.8477424 41.58978,1.7102533 l 0.493477,-0.2032766 -0.08071,-0.2228419 c -0.04424,-0.1228259 -0.09634,-0.2556699 -0.11626,-0.29480441 l -0.0363,-0.0712129 -0.47177,0.19754541 c -0.371466,0.1555672 -0.516485,0.2272921 -0.68342,0.3376438 -0.584288,0.3862422 -0.950567,0.8427674 -1.271468,1.5837094 -0.499456,1.1532509 -0.462339,2.1140352 0.148589,3.8285078 0.07422,0.2082622 0.214438,0.647565 0.311667,0.9762779 0.154954,0.5239614 0.18023,0.6301345 0.20387,0.8616291 0.04655,0.4558512 0.01914,0.9724486 -0.06954,1.3164051 -0.006,0.02339 -0.0097,0.04634 -0.01314,0.0684 L 37.517358,8.806039 37.569028,8.72866 c 0.03833,-0.057227 0.13805,-0.1873651 0.222067,-0.2888616 l 0.152946,-0.184556 0.926238,0.5036689 c 0.617157,0.3355247 0.940531,0.497942 0.969391,0.486411 0.03695,-0.014484 0.04137,-0.049373 0.02962,-0.2359936 L 39.855625,8.7900888 39.112318,8.3756486 C 38.70359,8.1476677 38.366794,7.951827 38.363554,7.940891 38.350916,7.8975393 38.669309,7.7225428 39.130835,7.5187147 l 0.347451,-0.1536611 -0.07914,-0.2329028 c -0.120846,-0.3563443 -0.09774,-0.3359439 -0.306,-0.2752869 -0.0985,0.028669 -0.312466,0.1179038 -0.475259,0.1980182 -0.47503,0.2337713 -0.890867,0.545541 -1.209492,0.9069774 -0.132601,0.1504185 -0.387084,0.5339382 -0.429733,0.6002634 L 36.76506,8.8885847 C 36.6987,9.0103378 36.625333,9.41746 36.595483,9.6454881 c -0.04058,0.3099807 -0.04327,0.6377929 -0.0084,1.0077689 0.02876,0.305131 0.03793,0.344389 0.227896,0.985501 0.108844,0.367313 0.241115,0.774185 0.294078,0.904471 0.05296,0.130288 0.174967,0.483128 0.271082,0.783503 0.25442,0.795442 0.309796,1.219517 0.230789,1.766314 -0.03792,0.262395 -0.162076,0.717175 -0.199702,0.731959 -0.03328,0.01303 -2.49122,-1.328889 -2.502083,-1.366061 -0.0166,-0.05666 0.306271,-0.528338 0.514138,-0.751158 l 0.08891,-0.09507 0.909515,0.494079 c 0.500186,0.271879 0.924391,0.488495 0.942804,0.48127 0.042,-0.01648 0.04298,-0.03905 0.0099,-0.273565 l -0.02709,-0.190264 -0.706284,-0.393089 c -0.532065,-0.295763 -0.702367,-0.401277 -0.69014,-0.428716 0.01101,-0.02469 0.175035,-0.101909 0.509521,-0.239406 l 0.493158,-0.202648 -0.08038,-0.223472 c -0.04424,-0.122825 -0.09676,-0.255548 -0.116689,-0.294681 l -0.03577,-0.07084 -0.471769,0.197541 c -0.371469,0.155568 -0.51659,0.226786 -0.683525,0.337139 -0.584287,0.386241 -0.950991,0.84289 -1.271892,1.583831 -0.499456,1.153251 -0.461916,2.113915 0.149012,3.828386 0.07422,0.208263 0.214439,0.647565 0.311667,0.976279 0.154954,0.523961 0.179905,0.630762 0.203543,0.862255 0.04655,0.455851 0.01957,0.972327 -0.06912,1.316284 -0.01567,0.06073 -0.02395,0.1266 -0.01801,0.146683 0.0059,0.02009 0.114671,0.09459 0.2417,0.165169 0.127012,0.0706 0.240368,0.124615 0.251897,0.12005 0.0311,-0.0124 0.119304,-0.411554 0.163964,-0.742471 0.100233,-0.742645 -0.0072,-1.492594 -0.364683,-2.540821 -0.462192,-1.355544 -0.595751,-1.845638 -0.623953,-2.289809 -0.01384,-0.217719 -0.008,-0.505929 0.01439,-0.685958 0.01975,-0.158553 0.141585,-0.644931 0.161582,-0.645144 0.0093,-8.7e-5 0.576707,0.304278 1.260449,0.676312 l 1.24301,0.67654 -0.05055,0.09414 c -0.06689,0.124607 -0.365104,0.514338 -0.464985,0.607766 -0.06811,0.06366 -0.09045,0.07385 -0.157083,0.07042 -0.04589,-0.0023 -0.422559,-0.190457 -0.919423,-0.458651 -0.46293,-0.249878 -0.844607,-0.447349 -0.848249,-0.439148 -0.0036,0.0081 0.0091,0.129231 0.02815,0.268979 l 0.03443,0.253812 0.61931,0.34184 c 0.340651,0.188048 0.623927,0.357383 0.629384,0.376307 0.01125,0.03848 -0.263331,0.175685 -0.680373,0.339434 l -0.226874,0.08897 0.07265,0.200607 c 0.03995,0.110206 0.09081,0.243289 0.112868,0.295783 l 0.0398,0.0953 0.120198,-0.0443 c 1.208904,-0.444533 1.854166,-1.017511 2.326151,-2.065866 0.30567,-0.6789 0.412613,-1.296837 0.349752,-2.020344 -0.02121,-0.245715 -0.03817,-0.316666 -0.22347,-0.94567 -0.131372,-0.446229 -0.266704,-0.855744 -0.393419,-1.191353 -0.237691,-0.629589 -0.393492,-1.198089 -0.427777,-1.559972 -0.04125,-0.435333 -0.01702,-0.8098929 0.07791,-1.2147047 l 0.03198,-0.1373676 2.469736,1.3545753 -0.08072,0.113523 c -0.05546,0.07833 -0.159204,0.210733 -0.23088,0.294074 l -0.130468,0.151395 -0.214769,-0.111543 c -0.118199,-0.06138 -0.54883,-0.291787 -0.957027,-0.51186 l -0.742259,-0.400327 0.0038,0.179362 c 0.0074,0.362121 -0.05337,0.303103 0.768106,0.753791 0.398277,0.218502 0.71991,0.407174 0.714631,0.418978 -0.01996,0.04475 -0.213003,0.143604 -0.641612,0.329316 -0.435519,0.18871 -0.442622,0.192949 -0.418093,0.237048 0.01374,0.02467 0.06495,0.155747 0.113748,0.291258 l 0.08854,0.246209 0.275534,-0.107811 c 0.846863,-0.332109 1.380569,-0.741293 1.843459,-1.412414 0.0836,-0.121211 0.07465,-0.116104 0.146248,-0.23121 l 0.216136,-0.351755 c 0.06186,-0.104544 0.119202,-0.412058 0.163861,-0.7429749 0.100353,-0.7426401 -0.0071,-1.4925889 -0.364562,-2.5408147 -0.462189,-1.3555399 -0.595648,-1.8451301 -0.623848,-2.2893003 -0.01384,-0.2177175 -0.0076,-0.5060503 0.01482,-0.6860804 0.01975,-0.1585527 0.141583,-0.6449317 0.161581,-0.6451442 0.0093,-1.111e-4 0.576282,0.3044009 1.260024,0.6764349 l 1.243011,0.6765396 -0.05022,0.093511 c -0.06689,0.1246076 -0.365427,0.5149646 -0.465307,0.6083935 -0.06811,0.063662 -0.09056,0.073341 -0.157184,0.069921 -0.0459,-0.00236 -0.422457,-0.1899534 -0.919321,-0.4581477 -0.462929,-0.2498794 -0.84471,-0.4478558 -0.848352,-0.4396552 -0.0036,0.00815 0.0091,0.1292309 0.02815,0.2689788 l 0.03457,0.2543062 0.619309,0.3418401 c 0.34065,0.1880476 0.624351,0.3572605 0.629808,0.3761842 0.01125,0.03848 -0.263855,0.175305 -0.680898,0.3390508 l -0.226774,0.08947 0.07255,0.2001019 c 0.03996,0.1102061 0.09081,0.2432897 0.112868,0.2957827 l 0.0399,0.095801 0.120624,-0.044418 C 41.866992,6.5474852 42.511831,5.9746295 42.983816,4.9262738 43.289485,4.2473747 43.396428,3.6294362 43.333568,2.9059304 43.312315,2.660221 43.295378,2.5892659 43.110097,1.9602611 42.978651,1.5140644 42.843743,1.1044257 42.717028,0.76881667 c -0.237691,-0.62958908 -0.393915,-1.1979666 -0.4282,-1.5598494 -0.04125,-0.43533317 -0.01712,-0.81039777 0.0778,-1.21520977 l 0.03909,-0.1666483 -0.249145,-0.14647 c -0.137128,-0.080674 -0.25494,-0.1459272 -0.261856,-0.1449375 z m 0.617577,1.2110133 0.0038,0.1793633 c 0.0074,0.36212092 -0.05295,0.30298114 0.768529,0.75366929 0.398276,0.21850034 0.719788,0.40667558 0.714529,0.4184737 -0.01995,0.04475775 -0.213325,0.14423108 -0.641935,0.32994235 -0.435508,0.18870911 -0.442727,0.1924425 -0.418193,0.23654288 0.01373,0.024675 0.06495,0.15574664 0.113747,0.2912581 l 0.08865,0.24671248 0.275433,-0.1083164 c 0.846862,-0.33210762 1.380671,-0.74078756 1.84356,-1.41190852 0.0836,-0.12121107 0.149525,-0.22527396 0.146249,-0.23120954 -0.0032,-0.005912 -0.120945,-0.0691805 -0.261773,-0.14015637 l -0.25633,-0.12890207 -0.100399,0.14269656 c -0.05546,0.0783333 -0.15973,0.21035152 -0.231406,0.29369233 l -0.130377,0.15188205 -0.21487,-0.1120466 c -0.118239,-0.0613931 -0.548871,-0.29179449 -0.957066,-0.51186807 z M 33.963948,18.209623 c -0.0985,0.02867 -0.312467,0.117907 -0.475261,0.198013 -0.475029,0.233771 -0.890866,0.54554 -1.209491,0.906977 -0.132602,0.150419 -0.440413,0.580828 -0.429634,0.600768 0.0032,0.006 0.12165,0.06896 0.263145,0.140295 l 0.256996,0.129788 0.07007,-0.104042 c 0.03833,-0.05722 0.138153,-0.186861 0.222167,-0.288357 l 0.152845,-0.185062 0.926238,0.503669 c 0.617156,0.335526 0.940533,0.497944 0.96939,0.486411 0.03694,-0.01455 0.04137,-0.04937 0.02962,-0.235993 l -0.01358,-0.219246 -0.743305,-0.41444 c -0.408704,-0.227987 -0.745397,-0.423322 -0.748638,-0.434259 -0.01264,-0.04335 0.305653,-0.218852 0.767181,-0.422681 l 0.347451,-0.153661 -0.07914,-0.232906 c -0.120849,-0.356343 -0.09774,-0.335942 -0.306004,-0.275285 z"
         inkscape:label="DNA"
         sodipodi:nodetypes="cscsccscccccccccsccccccscscsscccccccccccccccssccscsccscccccccccsccccccscccsscccscsccccccssccccccccccccccccccccccccccscsscccsccscsscccccssscccccccccccccccccccccsssscccsccccccccccsscccccccccccccccc"
         mask="url(#mask5)" /></g><g
       id="g24"
       inkscape:label="token"
       transform="translate(60.3377,15.8877)"><path
         id="path21"
         style="fill:#fed1aa;stroke:#000000;stroke-width:0.0254;stroke-linecap:round;stroke-linejoin:round;paint-order:fill markers stroke"
         d="M 9.5249999,3.175 H 53.975002 c 3.5179,0 6.349999,2.8320999 6.349999,6.3499999 0,3.5179001 -2.832099,6.3500001 -6.349999,6.3500001 H 9.5249999 C 6.0070999,15.875 3.175,13.0429 3.175,9.5249999 3.175,6.0070999 6.0070999,3.175 9.5249999,3.175 Z" /><path
         style="font-size:6.35px;line-height:0.8;font-family:'Baxter\'s Slab';-inkscape-font-specification:'Baxter\'s Slab, Normal';letter-spacing:0.198437px;word-spacing:0px;text-orientation:upright;fill:#5b2d07;stroke-width:0.0254;stroke-linecap:round;stroke-linejoin:round;paint-order:fill markers stroke"
         d="M 7.7422061,11.820809 V 7.3931727 H 7.3453311 V 6.6552333 h 1.5875 V 7.765243 L 10.123456,8.8690516 11.314081,7.765243 V 6.6552333 h 1.190625 V 11.08287 h 0.396875 v 0.737939 h -1.5875 V 9.2411219 L 10.123456,10.34493 8.9328311,9.2411219 v 2.5796871 z m 6.5484369,0 -0.79375,-0.737939 V 7.3931727 H 13.100018 V 6.6552333 h 1.5875 V 11.08287 h 1.190625 V 6.6552333 h 1.190625 V 11.08287 l -0.79375,0.737939 z m 4.167188,0 V 11.08287 h 0.396875 V 7.3931727 H 17.664081 V 6.6552333 h 3.571874 V 7.3931727 H 20.04533 V 11.08287 h 0.396875 v 0.737939 z M 24.609392,8.8690516 V 7.3931727 h -1.190625 v 1.4758789 z m -2.38125,2.9517574 V 9.606991 H 21.831267 V 8.8690516 h 0.396875 V 7.3931727 l 0.79375,-0.7379394 h 1.984375 l 0.79375,0.7379394 V 11.08287 h 0.396875 v 0.737939 h -1.5875 V 9.606991 h -1.190625 v 2.213818 z m 4.564061,0 V 7.3931727 H 26.395328 V 6.6552333 h 1.5875 V 7.765243 l 1.190625,1.1038086 V 6.6552333 h 1.190625 V 11.08287 h 0.396875 v 0.737939 h -1.5875 V 10.34493 L 27.982828,9.2411219 v 2.5796871 z m 4.960938,0 V 11.08287 h 0.396875 V 7.3931727 H 30.959391 V 6.6552333 h 3.571874 V 7.3931727 H 33.340641 V 11.08287 h 0.396875 v 0.737939 z"
         id="path22"
         aria-label="MUTANT" /><path
         d="m 43.948947,11.820809 -0.79375,-0.737939 v -0.73794 h 1.190625 v 0.73794 h 1.190625 V 9.606991 H 44.345822 V 8.8690516 h 1.190625 V 7.3931727 H 44.345822 V 8.1311122 H 43.155197 V 7.3931727 l 0.79375,-0.7379394 h 1.984375 l 0.79375,0.7379394 v 1.4758789 l -0.396875,0.3720703 0.396875,0.3658691 v 1.475879 l -0.79375,0.737939 z m 3.770312,0 V 9.9790613 L 50.100509,7.765243 V 6.6552333 h 1.190625 v 1.4758789 l -2.38125,2.2138178 v 0.73794 h 0.396875 v 0.737939 z m 5.357812,0 -0.79375,-0.737939 v -0.73794 h 1.190625 v 0.73794 h 1.190625 V 9.606991 H 53.473946 V 8.8690516 h 1.190625 V 7.3931727 H 53.473946 V 8.1311122 H 52.283321 V 7.3931727 l 0.79375,-0.7379394 h 1.984375 l 0.79375,0.7379394 v 1.4758789 l -0.396875,0.3720703 0.396875,0.3658691 v 1.475879 l -0.79375,0.737939 z"
         id="path23"
         style="font-size:6.35px;line-height:0.8;font-family:'Baxter\'s Slab';-inkscape-font-specification:'Baxter\'s Slab, Normal';letter-spacing:0.198437px;word-spacing:0px;text-orientation:upright;fill:#5b2d07;stroke-width:0.0254;stroke-linecap:round;stroke-linejoin:round;paint-order:fill markers stroke"
         aria-label="3/3" /><path
         id="path24"
         style="fill:#ac560e;stroke-width:0.422008"
         d="m 41.894714,-2.4642991 c -0.02206,0.00326 -0.140251,0.5284929 -0.170102,0.756521 -0.04059,0.3099814 -0.04326,0.6377932 -0.0084,1.00776824 0.02876,0.305131 0.03793,0.34439004 0.227897,0.98550309 0.108844,0.36731255 0.241217,0.77468787 0.29418,0.90497477 0.05296,0.1302881 0.174864,0.4826229 0.270983,0.7829972 0.254419,0.7954418 0.309896,1.2200218 0.230936,1.7668094 -0.03791,0.2623969 -0.162076,0.7171762 -0.199702,0.7319605 -0.03328,0.01305 -2.491221,-1.3288893 -2.502083,-1.3660629 -0.0166,-0.056654 0.306271,-0.5283378 0.514138,-0.7511577 l 0.08881,-0.095573 0.909617,0.4945845 c 0.500184,0.2718787 0.924388,0.4884953 0.942802,0.4812699 0.042,-0.016461 0.04287,-0.03955 0.0099,-0.2740704 L 42.477004,2.770839 41.770398,2.3783761 C 41.238334,2.0826145 41.067929,1.9765955 41.080157,1.9491559 41.091167,1.9244569 41.255293,1.8477424 41.58978,1.7102533 l 0.493477,-0.2032766 -0.08071,-0.2228419 c -0.04424,-0.1228259 -0.09634,-0.2556699 -0.11626,-0.29480441 l -0.0363,-0.0712129 -0.47177,0.19754541 c -0.371466,0.1555672 -0.516485,0.2272921 -0.68342,0.3376438 -0.584288,0.3862422 -0.950567,0.8427674 -1.271468,1.5837094 -0.499456,1.1532509 -0.462339,2.1140352 0.148589,3.8285078 0.07422,0.2082622 0.214438,0.647565 0.311667,0.9762779 0.154954,0.5239614 0.18023,0.6301345 0.20387,0.8616291 0.04655,0.4558512 0.01914,0.9724486 -0.06954,1.3164051 -0.006,0.02339 -0.0097,0.04634 -0.01314,0.0684 L 37.517358,8.806039 37.569028,8.72866 c 0.03833,-0.057227 0.13805,-0.1873651 0.222067,-0.2888616 l 0.152946,-0.184556 0.926238,0.5036689 c 0.617157,0.3355247 0.940531,0.497942 0.969391,0.486411 0.03695,-0.014484 0.04137,-0.049373 0.02962,-0.2359936 L 39.855625,8.7900888 39.112318,8.3756486 C 38.70359,8.1476677 38.366794,7.951827 38.363554,7.940891 38.350916,7.8975393 38.669309,7.7225428 39.130835,7.5187147 l 0.347451,-0.1536611 -0.07914,-0.2329028 c -0.120846,-0.3563443 -0.09774,-0.3359439 -0.306,-0.2752869 -0.0985,0.028669 -0.312466,0.1179038 -0.475259,0.1980182 -0.47503,0.2337713 -0.890867,0.545541 -1.209492,0.9069774 -0.132601,0.1504185 -0.387084,0.5339382 -0.429733,0.6002634 L 36.76506,8.8885847 C 36.6987,9.0103378 36.625333,9.41746 36.595483,9.6454881 c -0.04058,0.3099807 -0.04327,0.6377929 -0.0084,1.0077689 0.02876,0.305131 0.03793,0.344389 0.227896,0.985501 0.108844,0.367313 0.241115,0.774185 0.294078,0.904471 0.05296,0.130288 0.174967,0.483128 0.271082,0.783503 0.25442,0.795442 0.309796,1.219517 0.230789,1.766314 -0.03792,0.262395 -0.162076,0.717175 -0.199702,0.731959 -0.03328,0.01303 -2.49122,-1.328889 -2.502083,-1.366061 -0.0166,-0.05666 0.306271,-0.528338 0.514138,-0.751158 l 0.08891,-0.09507 0.909515,0.494079 c 0.500186,0.271879 0.924391,0.488495 0.942804,0.48127 0.042,-0.01648 0.04298,-0.03905 0.0099,-0.273565 l -0.02709,-0.190264 -0.706284,-0.393089 c -0.532065,-0.295763 -0.702367,-0.401277 -0.69014,-0.428716 0.01101,-0.02469 0.175035,-0.101909 0.509521,-0.239406 l 0.493158,-0.202648 -0.08038,-0.223472 c -0.04424,-0.122825 -0.09676,-0.255548 -0.116689,-0.294681 l -0.03577,-0.07084 -0.471769,0.197541 c -0.371469,0.155568 -0.51659,0.226786 -0.683525,0.337139 -0.584287,0.386241 -0.950991,0.84289 -1.271892,1.583831 -0.499456,1.153251 -0.461916,2.113915 0.149012,3.828386 0.07422,0.208263 0.214439,0.647565 0.311667,0.976279 0.154954,0.523961 0.179905,0.630762 0.203543,0.862255 0.04655,0.455851 0.01957,0.972327 -0.06912,1.316284 -0.01567,0.06073 -0.02395,0.1266 -0.01801,0.146683 0.0059,0.02009 0.114671,0.09459 0.2417,0.165169 0.127012,0.0706 0.240368,0.124615 0.251897,0.12005 0.0311,-0.0124 0.119304,-0.411554 0.163964,-0.742471 0.100233,-0.742645 -0.0072,-1.492594 -0.364683,-2.540821 -0.462192,-1.355544 -0.595751,-1.845638 -0.623953,-2.289809 -0.01384,-0.217719 -0.008,-0.505929 0.01439,-0.685958 0.01975,-0.158553 0.141585,-0.644931 0.161582,-0.645144 0.0093,-8.7e-5 0.576707,0.304278 1.260449,0.676312 l 1.24301,0.67654 -0.05055,0.09414 c -0.06689,0.124607 -0.365104,0.514338 -0.464985,0.607766 -0.06811,0.06366 -0.09045,0.07385 -0.157083,0.07042 -0.04589,-0.0023 -0.422559,-0.190457 -0.919423,-0.458651 -0.46293,-0.249878 -0.844607,-0.447349 -0.848249,-0.439148 -0.0036,0.0081 0.0091,0.129231 0.02815,0.268979 l 0.03443,0.253812 0.61931,0.34184 c 0.340651,0.188048 0.623927,0.357383 0.629384,0.376307 0.01125,0.03848 -0.263331,0.175685 -0.680373,0.339434 l -0.226874,0.08897 0.07265,0.200607 c 0.03995,0.110206 0.09081,0.243289 0.112868,0.295783 l 0.0398,0.0953 0.120198,-0.0443 c 1.208904,-0.444533 1.854166,-1.017511 2.326151,-2.065866 0.30567,-0.6789 0.412613,-1.296837 0.349752,-2.020344 -0.02121,-0.245715 -0.03817,-0.316666 -0.22347,-0.94567 -0.131372,-0.446229 -0.266704,-0.855744 -0.393419,-1.191353 -0.237691,-0.629589 -0.393492,-1.198089 -0.427777,-1.559972 -0.04125,-0.435333 -0.01702,-0.8098929 0.07791,-1.2147047 l 0.03198,-0.1373676 2.469736,1.3545753 -0.08072,0.113523 c -0.05546,0.07833 -0.159204,0.210733 -0.23088,0.294074 l -0.130468,0.151395 -0.214769,-0.111543 c -0.118199,-0.06138 -0.54883,-0.291787 -0.957027,-0.51186 l -0.742259,-0.400327 0.0038,0.179362 c 0.0074,0.362121 -0.05337,0.303103 0.768106,0.753791 0.398277,0.218502 0.71991,0.407174 0.714631,0.418978 -0.01996,0.04475 -0.213003,0.143604 -0.641612,0.329316 -0.435519,0.18871 -0.442622,0.192949 -0.418093,0.237048 0.01374,0.02467 0.06495,0.155747 0.113748,0.291258 l 0.08854,0.246209 0.275534,-0.107811 c 0.846863,-0.332109 1.380569,-0.741293 1.843459,-1.412414 0.0836,-0.121211 0.07465,-0.116104 0.146248,-0.23121 l 0.216136,-0.351755 c 0.06186,-0.104544 0.119202,-0.412058 0.163861,-0.7429749 0.100353,-0.7426401 -0.0071,-1.4925889 -0.364562,-2.5408147 -0.462189,-1.3555399 -0.595648,-1.8451301 -0.623848,-2.2893003 -0.01384,-0.2177175 -0.0076,-0.5060503 0.01482,-0.6860804 0.01975,-0.1585527 0.141583,-0.6449317 0.161581,-0.6451442 0.0093,-1.111e-4 0.576282,0.3044009 1.260024,0.6764349 l 1.243011,0.6765396 -0.05022,0.093511 c -0.06689,0.1246076 -0.365427,0.5149646 -0.465307,0.6083935 -0.06811,0.063662 -0.09056,0.073341 -0.157184,0.069921 -0.0459,-0.00236 -0.422457,-0.1899534 -0.919321,-0.4581477 -0.462929,-0.2498794 -0.84471,-0.4478558 -0.848352,-0.4396552 -0.0036,0.00815 0.0091,0.1292309 0.02815,0.2689788 l 0.03457,0.2543062 0.619309,0.3418401 c 0.34065,0.1880476 0.624351,0.3572605 0.629808,0.3761842 0.01125,0.03848 -0.263855,0.175305 -0.680898,0.3390508 l -0.226774,0.08947 0.07255,0.2001019 c 0.03996,0.1102061 0.09081,0.2432897 0.112868,0.2957827 l 0.0399,0.095801 0.120624,-0.044418 C 41.866992,6.5474852 42.511831,5.9746295 42.983816,4.9262738 43.289485,4.2473747 43.396428,3.6294362 43.333568,2.9059304 43.312315,2.660221 43.295378,2.5892659 43.110097,1.9602611 42.978651,1.5140644 42.843743,1.1044257 42.717028,0.76881667 c -0.237691,-0.62958908 -0.393915,-1.1979666 -0.4282,-1.5598494 -0.04125,-0.43533317 -0.01712,-0.81039777 0.0778,-1.21520977 l 0.03909,-0.1666483 -0.249145,-0.14647 c -0.137128,-0.080674 -0.25494,-0.1459272 -0.261856,-0.1449375 z m 0.617577,1.2110133 0.0038,0.1793633 c 0.0074,0.36212092 -0.05295,0.30298114 0.768529,0.75366929 0.398276,0.21850034 0.719788,0.40667558 0.714529,0.4184737 -0.01995,0.04475775 -0.213325,0.14423108 -0.641935,0.32994235 -0.435508,0.18870911 -0.442727,0.1924425 -0.418193,0.23654288 0.01373,0.024675 0.06495,0.15574664 0.113747,0.2912581 l 0.08865,0.24671248 0.275433,-0.1083164 c 0.846862,-0.33210762 1.380671,-0.74078756 1.84356,-1.41190852 0.0836,-0.12121107 0.149525,-0.22527396 0.146249,-0.23120954 -0.0032,-0.005912 -0.120945,-0.0691805 -0.261773,-0.14015637 l -0.25633,-0.12890207 -0.100399,0.14269656 c -0.05546,0.0783333 -0.15973,0.21035152 -0.231406,0.29369233 l -0.130377,0.15188205 -0.21487,-0.1120466 c -0.118239,-0.0613931 -0.548871,-0.29179449 -0.957066,-0.51186807 z M 33.963948,18.209623 c -0.0985,0.02867 -0.312467,0.117907 -0.475261,0.198013 -0.475029,0.233771 -0.890866,0.54554 -1.209491,0.906977 -0.132602,0.150419 -0.440413,0.580828 -0.429634,0.600768 0.0032,0.006 0.12165,0.06896 0.263145,0.140295 l 0.256996,0.129788 0.07007,-0.104042 c 0.03833,-0.05722 0.138153,-0.186861 0.222167,-0.288357 l 0.152845,-0.185062 0.926238,0.503669 c 0.617156,0.335526 0.940533,0.497944 0.96939,0.486411 0.03694,-0.01455 0.04137,-0.04937 0.02962,-0.235993 l -0.01358,-0.219246 -0.743305,-0.41444 c -0.408704,-0.227987 -0.745397,-0.423322 -0.748638,-0.434259 -0.01264,-0.04335 0.305653,-0.218852 0.767181,-0.422681 l 0.347451,-0.153661 -0.07914,-0.232906 c -0.120849,-0.356343 -0.09774,-0.335942 -0.306004,-0.275285 z"
         inkscape:label="DNA"
         sodipodi:nodetypes="cscsccscccccccccsccccccscscsscccccccccccccccssccscsccscccccccccsccccccscccsscccscsccccccssccccccccccccccccccccccccccscsscccsccscsscccccssscccccccccccccccccccccsssscccsccccccccccsscccccccccccccccc"
         mask="url(#mask5)" /></g></g></svg>
