<?xml version="1.0" encoding="UTF-8" standalone="no"?>
<!-- Created with Inkscape (http://www.inkscape.org/) -->

<svg
   width="2.75in"
   height="1.25in"
   viewBox="0 0 69.850001 31.75"
   version="1.1"
   id="svg1"
   xml:space="preserve"
   inkscape:version="1.3.1 (91b66b0783, 2023-11-16)"
   sodipodi:docname="role-auras.svg"
   xmlns:inkscape="http://www.inkscape.org/namespaces/inkscape"
   xmlns:sodipodi="http://sodipodi.sourceforge.net/DTD/sodipodi-0.dtd"
   xmlns="http://www.w3.org/2000/svg"
   xmlns:svg="http://www.w3.org/2000/svg"><sodipodi:namedview
     id="namedview1"
     pagecolor="#ffffff"
     bordercolor="#000000"
     borderopacity="0.25"
     inkscape:showpageshadow="2"
     inkscape:pageopacity="0.0"
     inkscape:pagecheckerboard="0"
     inkscape:deskcolor="#d1d1d1"
     inkscape:document-units="mm"
     inkscape:zoom="2.8284271"
     inkscape:cx="131.69864"
     inkscape:cy="36.769553"
     inkscape:window-width="1620"
     inkscape:window-height="1010"
     inkscape:window-x="-6"
     inkscape:window-y="-6"
     inkscape:window-maximized="1"
     inkscape:current-layer="g19" /><defs
     id="defs1"><mask
       maskUnits="userSpaceOnUse"
       id="mask25"><path
         id="path26"
         style="color:#000000;display:inline;fill:#ffffff;fill-opacity:1;stroke-width:1;stroke-linecap:round;stroke-linejoin:round;-inkscape-stroke:none;paint-order:markers fill stroke"
         d="M 10.422266,3.4912596 C 9.5923777,3.4911083 8.8557518,3.7483119 8.2988806,4.2291992 5.7531738,6.4300603 4.4145676,9.5088017 3.8361038,12.778032 a 0.95259525,0.95259525 0 0 0 0.9374108,1.119311 h 0.8381921 c 0.571315,-10e-7 1.0779699,0.506653 1.0779699,1.077971 v 1.777669 c 0,0.571318 -0.5078418,1.080038 -1.0779699,1.080038 h -0.840259 a 0.95259525,0.95259525 0 0 0 -0.9374111,1.117244 c 0.5759241,3.276811 1.9142191,6.364908 4.464844,8.570021 0.557425,0.482169 1.2941332,0.73823 2.1233854,0.738455 h 48.794953 c 0.829251,-2.25e-4 1.565812,-0.256601 2.122868,-0.738455 2.702708,-2.336597 4.196498,-5.623839 4.681368,-9.191172 A 0.95259525,0.95259525 0 0 0 65.078361,17.24701 h -1.046964 c -0.57132,0 -1.080037,-0.507842 -1.080037,-1.077971 V 14.39137 c 0,-0.570128 0.509905,-1.080037 1.080037,-1.080037 h 0.732256 a 0.95259525,0.95259525 0 0 0 0.931725,-1.152385 C 65.051871,9.1469834 63.75527,6.307541 61.387114,4.2390176 a 0.95259525,0.95259525 0 0 0 -0.0021,-0.00156 C 60.827243,3.7508937 60.088253,3.4909591 59.252345,3.4912485 Z"
         inkscape:label="cut" /></mask></defs><g
     inkscape:label="Layer 1"
     inkscape:groupmode="layer"
     id="layer1"><path
       id="path88"
       style="color:#000000;display:inline;fill:#febc85;stroke-linecap:round;stroke-linejoin:round;-inkscape-stroke:none;paint-order:markers fill stroke"
       d="M 10.422266,3.4912597 C 9.5923777,3.4911082 8.8557517,3.7483119 8.2988807,4.2291991 5.7531737,6.4300602 4.4145677,9.5088016 3.8361037,12.778032 a 0.95259524,0.95259524 0 0 0 0.937411,1.119311 h 0.838192 c 0.571315,-10e-7 1.07797,0.506653 1.07797,1.077971 v 1.777669 c 0,0.571318 -0.507842,1.080038 -1.07797,1.080038 h -0.840259 a 0.95259524,0.95259524 0 0 0 -0.937411,1.117244 c 0.575924,3.276811 1.914219,6.364908 4.464844,8.57002 0.557425,0.482171 1.294133,0.738231 2.1233853,0.738456 H 59.21722 c 0.829251,-2.25e-4 1.56581,-0.256602 2.122868,-0.738456 2.702708,-2.336596 4.196497,-5.623838 4.681368,-9.191171 A 0.95259524,0.95259524 0 0 0 65.078361,17.24701 h -1.046964 c -0.57132,0 -1.080038,-0.507842 -1.080038,-1.077971 V 14.39137 c 0,-0.570128 0.509906,-1.080037 1.080038,-1.080037 h 0.732255 a 0.95259524,0.95259524 0 0 0 0.931726,-1.152385 C 65.051871,9.1469834 63.755269,6.307541 61.387114,4.2390177 a 0.95259524,0.95259524 0 0 0 -0.0021,-0.00155 C 60.827258,3.7509048 60.088269,3.4909701 59.25236,3.4912597 Z"
       inkscape:label="cut" /><path
       id="path22"
       style="color:#000000;fill:#5b2d07;stroke-linecap:round;stroke-linejoin:round;-inkscape-stroke:none;paint-order:markers stroke fill"
       d="M 10.394714 5.0276001 A 0.44454445 0.44454445 0 0 0 10.101709 5.1366374 C 10.101709 5.1366374 7.2554971 7.5997468 5.828068 11.507825 C 5.5560714 12.252509 5.338042 13.052212 5.2017497 13.897343 L 5.6115438 13.897343 C 5.775838 13.897343 5.9330265 13.942912 6.0761149 14.016199 C 6.2069138 13.240056 6.411726 12.50393 6.6641927 11.812716 C 7.9580357 8.270376 10.418946 6.0642513 10.585917 5.915918 L 13.292729 5.915918 A 0.4445 0.4445 0 0 0 13.73818 5.4725342 A 0.4445 0.4445 0 0 0 13.292729 5.0276001 L 10.394714 5.0276001 z M 6.0776652 17.712614 C 5.9340767 17.786799 5.7762822 17.83302 5.6115438 17.83302 L 5.2126017 17.83302 C 5.6634234 20.516849 7.0783378 23.457183 10.080005 26.45885 A 0.44454445 0.44454445 0 0 0 10.394714 26.589591 L 13.292729 26.589591 A 0.4445 0.4445 0 0 0 13.73818 26.146724 A 0.4445 0.4445 0 0 0 13.292729 25.701274 L 10.605554 25.701274 C 7.8090416 22.861895 6.4981778 20.162756 6.0776652 17.712614 z " /><path
       id="path27"
       style="color:#000000;fill:#5b2d07;stroke-linecap:round;stroke-linejoin:round;-inkscape-stroke:none;paint-order:markers stroke fill"
       d="M 13.293054 26.589867 A 0.4445 0.4445 0 0 0 13.738505 26.146483 A 0.4445 0.4445 0 0 0 13.293054 25.701033 L 10.605363 25.701033 C 8.0302976 23.086496 6.7164747 20.591746 6.1958126 18.299934 C 6.1761332 18.30115 6.1572626 18.306652 6.1374183 18.306652 L 5.4051632 18.306652 A 0.95259525 0.95259525 0 0 0 5.304911 18.321638 C 5.8400662 20.871929 7.2598583 23.638654 10.08033 26.459126 A 0.44454445 0.44454445 0 0 0 10.394523 26.589867 L 13.293054 26.589867 z M 6.0211463 14.370975 C 6.1449784 13.463699 6.373356 12.608215 6.6640011 11.812475 C 7.9578441 8.2701349 10.418755 6.064527 10.585726 5.9161936 L 13.293054 5.9161936 A 0.4445 0.4445 0 0 0 13.738505 5.4728098 A 0.4445 0.4445 0 0 0 13.293054 5.027359 L 10.394523 5.027359 A 0.44454445 0.44454445 0 0 0 10.101517 5.136913 C 10.101517 5.136913 7.2553055 7.5995057 5.8278764 11.507584 C 5.5056093 12.3899 5.2598182 13.34997 5.1354123 14.370975 L 6.0211463 14.370975 z "
       transform="rotate(180,35.084326,15.808992)" /></g><g
     inkscape:groupmode="layer"
     id="g8"
     inkscape:label="Royal"
     style="display:none"><g
       id="g11"
       transform="translate(-1.6554217,-0.52916667)"><g
         id="g10"
         inkscape:label="ward (1)"
         transform="translate(-6.5976699,4.0188974)"><path
           id="path9"
           style="font-variation-settings:'wdth' 90, 'wght' 600;display:inline;fill:#5b2d07;stroke-width:2.42775;stroke-linecap:round;stroke-linejoin:round;paint-order:markers stroke fill"
           d="m 57.287825,12.727751 a 2.1458449,2.1458449 0 0 0 -2.145606,2.145606 2.1458449,2.1458449 0 0 0 2.145606,2.146122 2.1458449,2.1458449 0 0 0 2.146122,-2.146122 2.1458449,2.1458449 0 0 0 -2.146122,-2.145606 z m -0.151929,0.642855 h 0.460954 v 3.005501 h -0.477491 v -2.470133 l -0.405143,0.212907 v -0.504362 z"
           transform="translate(-2.6458333,4.6448103)" /><text
           xml:space="preserve"
           style="font-style:normal;font-variant:normal;font-weight:normal;font-stretch:normal;font-size:4.23333px;line-height:1;font-family:Bahnschrift;-inkscape-font-specification:'Bahnschrift, @wght=600,wdth=90.0';font-variant-ligatures:normal;font-variant-caps:normal;font-variant-numeric:normal;font-variant-east-asian:normal;font-variation-settings:'wdth' 90, 'wght' 600;text-align:start;letter-spacing:-0.0396875px;word-spacing:0px;text-orientation:upright;text-anchor:start;fill:#5b2d07;fill-opacity:1;stroke:none;stroke-width:2.54;stroke-linecap:round;stroke-linejoin:round;paint-order:markers stroke fill"
           x="43.290371"
           y="21.003536"
           id="text8"
           inkscape:label="ward"><tspan
             sodipodi:role="line"
             id="tspan8"
             style="font-style:normal;font-variant:normal;font-weight:normal;font-stretch:normal;font-size:4.23333px;font-family:Bahnschrift;-inkscape-font-specification:'Bahnschrift, @wght=600,wdth=90.0';font-variant-ligatures:normal;font-variant-caps:normal;font-variant-numeric:normal;font-variant-east-asian:normal;font-variation-settings:'wdth' 90, 'wght' 600;text-align:start;text-anchor:start;fill:#5b2d07;fill-opacity:1;stroke:none;stroke-width:2.54"
             x="43.290371"
             y="21.003536">Ward</tspan></text></g><text
         xml:space="preserve"
         style="font-style:normal;font-variant:normal;font-weight:normal;font-stretch:normal;font-size:4.93889px;line-height:1;font-family:'Breathe Fire III';-inkscape-font-specification:'Breathe Fire III, Normal';font-variant-ligatures:normal;font-variant-caps:normal;font-variant-numeric:normal;font-variant-east-asian:normal;text-align:start;letter-spacing:0px;word-spacing:0px;text-orientation:upright;text-anchor:start;fill:#5b2d07;fill-opacity:1;stroke:none;stroke-width:2.54;stroke-linecap:round;stroke-linejoin:round;paint-order:markers stroke fill"
         x="33.479706"
         y="25.184361"
         id="text10"><tspan
           sodipodi:role="line"
           id="tspan10"
           style="font-size:4.93889px;stroke-width:2.54"
           x="33.479706"
           y="25.184361">-</tspan></text><text
         xml:space="preserve"
         style="font-style:normal;font-variant:normal;font-weight:normal;font-stretch:normal;font-size:4.23333px;line-height:1;font-family:Bahnschrift;-inkscape-font-specification:'Bahnschrift, @wght=600,wdth=90.0';font-variant-ligatures:normal;font-variant-caps:normal;font-variant-numeric:normal;font-variant-east-asian:normal;font-variation-settings:'wdth' 90, 'wght' 600;text-align:start;letter-spacing:-0.0396875px;word-spacing:0px;text-orientation:upright;text-anchor:start;fill:#5b2d07;fill-opacity:1;stroke:none;stroke-width:2.54;stroke-linecap:round;stroke-linejoin:round;paint-order:markers stroke fill"
         x="22.772184"
         y="24.932522"
         id="text7"
         inkscape:label="+1/+1"><tspan
           sodipodi:role="line"
           id="tspan7"
           style="font-style:normal;font-variant:normal;font-weight:normal;font-stretch:normal;font-size:4.23333px;font-family:Bahnschrift;-inkscape-font-specification:'Bahnschrift, @wght=600,wdth=90.0';font-variant-ligatures:normal;font-variant-caps:normal;font-variant-numeric:normal;font-variant-east-asian:normal;font-variation-settings:'wdth' 90, 'wght' 600;text-align:start;text-anchor:start;fill:#5b2d07;fill-opacity:1;stroke:none;stroke-width:2.54"
           x="22.772184"
           y="24.932522">+1 / +1</tspan></text></g><text
       xml:space="preserve"
       style="font-style:normal;font-variant:normal;font-weight:normal;font-stretch:normal;font-size:8.46667px;line-height:1;font-family:'Breathe Fire III';-inkscape-font-specification:'Breathe Fire III, Normal';font-variant-ligatures:normal;font-variant-caps:normal;font-variant-numeric:normal;font-variant-east-asian:normal;text-align:start;letter-spacing:0px;word-spacing:0px;text-orientation:upright;text-anchor:start;fill:#5b2d07;fill-opacity:1;stroke:none;stroke-width:2.54;stroke-linecap:round;stroke-linejoin:round;paint-order:markers stroke fill"
       x="37.811264"
       y="15.298227"
       id="text6"
       inkscape:label="title"><tspan
         sodipodi:role="line"
         id="tspan6"
         style="font-style:normal;font-variant:normal;font-weight:normal;font-stretch:normal;font-size:8.46667px;font-family:'Breathe Fire III';-inkscape-font-specification:'Breathe Fire III, Normal';font-variant-ligatures:normal;font-variant-caps:normal;font-variant-numeric:normal;font-variant-east-asian:normal;text-align:start;letter-spacing:0px;text-anchor:start;fill:#5b2d07;fill-opacity:1;stroke:none;stroke-width:2.54"
         x="37.811264"
         y="15.298227">Royal</tspan></text><path
       style="fill:#5b2d07;fill-opacity:1;stroke-width:0.42017"
       d="m 14.666239,18.243564 c -0.01576,-0.08142 -0.06615,-0.366052 -0.111973,-0.632515 -0.371755,-2.161681 -1.443257,-4.81364 -2.703484,-6.691101 -0.245136,-0.3652 -0.281993,-0.476699 -0.136703,-0.413561 0.04998,0.02172 0.180519,0.03532 0.290094,0.03021 0.740404,-0.03445 1.58621,0.552905 1.790697,1.243508 0.09365,0.316269 0.09365,0.316269 0.220116,0.114618 0.340076,-0.54224 1.22155,-0.726024 1.876905,-0.391329 0.344353,0.175864 0.34897,0.241491 0.03858,0.548421 -0.490086,0.484626 -0.612625,1.070227 -0.348915,1.667422 0.53969,1.222171 2.226034,1.239472 2.785035,0.02857 0.246325,-0.533587 0.24649,-0.531758 -0.06142,-0.685502 -0.81586,-0.407368 -0.570933,-1.614533 0.327582,-1.614533 0.811601,0 1.178778,1.180339 0.486642,1.564376 -0.17303,0.09601 -0.158041,0.14278 0.141776,0.442387 1.224653,1.2238 3.021065,0.252955 2.748199,-1.485224 -0.133103,-0.847875 -0.930834,-1.532304 -1.649199,-1.414964 -0.41939,0.06851 -0.404931,0.07237 -0.385317,-0.102854 0.09267,-0.8278567 1.165947,-1.5445091 1.944923,-1.2986695 0.176192,0.055605 0.241977,0.060256 0.22377,0.015824 -0.443202,-1.0815599 -0.189836,-2.6802448 0.52929,-3.3397065 0.573861,-0.5262487 1.284486,1.7739816 0.931775,3.0160737 -0.123172,0.4337572 -0.123374,0.4382107 -0.0165,0.3656122 0.643769,-0.4373192 1.948147,0.3595204 2.088835,1.2760591 0.02184,0.142333 0.02111,0.142665 -0.201073,0.0905 -1.872234,-0.439526 -2.623254,2.647293 -0.814691,3.348513 0.728178,0.282331 2.442784,-0.560051 1.872191,-0.919805 -0.876207,-0.552441 -0.112702,-1.897553 0.84227,-1.483874 0.627471,0.271812 0.535466,1.470914 -0.12439,1.62117 -0.185001,0.04213 -0.185435,0.04643 -0.04428,0.437573 0.269379,0.746446 1.116605,1.236292 1.80559,1.043948 1.210608,-0.337965 1.569862,-1.791724 0.650177,-2.63102 -0.285561,-0.260602 -0.27725,-0.325042 0.06426,-0.49821 0.591915,-0.300138 1.41448,-0.164344 1.829058,0.301954 0.211987,0.238432 0.211987,0.238432 0.245923,0.09222 0.180999,-0.779801 0.815159,-1.253174 1.791973,-1.337632 0.490634,-0.04243 0.486164,-0.08563 0.06079,0.587503 -0.59435,0.940518 -0.963882,1.663615 -1.601585,3.133978 -0.403814,0.931079 -1.151329,3.771434 -1.073158,4.077711 0.0056,0.0222 -3.656162,0.04037 -8.1374,0.04037 -8.147705,0 -8.147705,0 -8.176358,-0.148036 z"
       id="path10" /></g><g
     inkscape:groupmode="layer"
     id="g15"
     inkscape:label="Sorcerer"
     style="display:none"><g
       id="g14"
       transform="translate(-8.2131248,-0.52916667)"><text
         xml:space="preserve"
         style="font-style:normal;font-variant:normal;font-weight:normal;font-stretch:normal;font-size:4.23333px;line-height:1;font-family:Bahnschrift;-inkscape-font-specification:'Bahnschrift, @wght=600,wdth=90.0';font-variant-ligatures:normal;font-variant-caps:normal;font-variant-numeric:normal;font-variant-east-asian:normal;font-variation-settings:'wdth' 90, 'wght' 600;text-align:start;letter-spacing:-0.0396875px;word-spacing:0px;text-orientation:upright;text-anchor:start;fill:#5b2d07;fill-opacity:1;stroke:none;stroke-width:2.54;stroke-linecap:round;stroke-linejoin:round;paint-order:markers stroke fill"
         x="43.290371"
         y="21.003536"
         id="text12"
         inkscape:label="ward"
         transform="translate(-6.5976699,4.0188973)"><tspan
           sodipodi:role="line"
           id="tspan12"
           style="font-style:normal;font-variant:normal;font-weight:normal;font-stretch:normal;font-size:4.23333px;font-family:Bahnschrift;-inkscape-font-specification:'Bahnschrift, @wght=600,wdth=90.0';font-variant-ligatures:normal;font-variant-caps:normal;font-variant-numeric:normal;font-variant-east-asian:normal;font-variation-settings:'wdth' 90, 'wght' 600;text-align:start;text-anchor:start;fill:#5b2d07;fill-opacity:1;stroke:none;stroke-width:2.54"
           x="43.290371"
           y="21.003536">On attack, scry 1</tspan></text><text
         xml:space="preserve"
         style="font-style:normal;font-variant:normal;font-weight:normal;font-stretch:normal;font-size:4.93889px;line-height:1;font-family:'Breathe Fire III';-inkscape-font-specification:'Breathe Fire III, Normal';font-variant-ligatures:normal;font-variant-caps:normal;font-variant-numeric:normal;font-variant-east-asian:normal;text-align:start;letter-spacing:0px;word-spacing:0px;text-orientation:upright;text-anchor:start;fill:#5b2d07;fill-opacity:1;stroke:none;stroke-width:2.54;stroke-linecap:round;stroke-linejoin:round;paint-order:markers stroke fill"
         x="33.479706"
         y="25.184361"
         id="text13"><tspan
           sodipodi:role="line"
           id="tspan13"
           style="font-size:4.93889px;stroke-width:2.54"
           x="33.479706"
           y="25.184361">-</tspan></text><text
         xml:space="preserve"
         style="font-style:normal;font-variant:normal;font-weight:normal;font-stretch:normal;font-size:4.23333px;line-height:1;font-family:Bahnschrift;-inkscape-font-specification:'Bahnschrift, @wght=600,wdth=90.0';font-variant-ligatures:normal;font-variant-caps:normal;font-variant-numeric:normal;font-variant-east-asian:normal;font-variation-settings:'wdth' 90, 'wght' 600;text-align:start;letter-spacing:-0.0396875px;word-spacing:0px;text-orientation:upright;text-anchor:start;fill:#5b2d07;fill-opacity:1;stroke:none;stroke-width:2.54;stroke-linecap:round;stroke-linejoin:round;paint-order:markers stroke fill"
         x="22.772184"
         y="24.932522"
         id="text14"
         inkscape:label="+1/+1"><tspan
           sodipodi:role="line"
           id="tspan14"
           style="font-style:normal;font-variant:normal;font-weight:normal;font-stretch:normal;font-size:4.23333px;font-family:Bahnschrift;-inkscape-font-specification:'Bahnschrift, @wght=600,wdth=90.0';font-variant-ligatures:normal;font-variant-caps:normal;font-variant-numeric:normal;font-variant-east-asian:normal;font-variation-settings:'wdth' 90, 'wght' 600;text-align:start;text-anchor:start;fill:#5b2d07;fill-opacity:1;stroke:none;stroke-width:2.54"
           x="22.772184"
           y="24.932522">+1 / +1</tspan></text></g><text
       xml:space="preserve"
       style="font-style:normal;font-variant:normal;font-weight:normal;font-stretch:normal;font-size:8.46667px;line-height:1;font-family:'Breathe Fire III';-inkscape-font-specification:'Breathe Fire III, Normal';font-variant-ligatures:normal;font-variant-caps:normal;font-variant-numeric:normal;font-variant-east-asian:normal;text-align:start;letter-spacing:0px;word-spacing:0px;text-orientation:upright;text-anchor:start;fill:#5b2d07;fill-opacity:1;stroke:none;stroke-width:2.54;stroke-linecap:round;stroke-linejoin:round;paint-order:markers stroke fill"
       x="28.815432"
       y="15.298227"
       id="text15"
       inkscape:label="title"><tspan
         sodipodi:role="line"
         id="tspan15"
         style="font-style:normal;font-variant:normal;font-weight:normal;font-stretch:normal;font-size:8.46667px;font-family:'Breathe Fire III';-inkscape-font-specification:'Breathe Fire III, Normal';font-variant-ligatures:normal;font-variant-caps:normal;font-variant-numeric:normal;font-variant-east-asian:normal;text-align:start;letter-spacing:0px;text-anchor:start;fill:#5b2d07;fill-opacity:1;stroke:none;stroke-width:2.54"
         x="28.815432"
         y="15.298227">Sorcerer</tspan></text><path
       style="fill:#5b2d07;fill-opacity:1;stroke-width:0.719333"
       d="m 16.317017,19.280991 c -2.92514,-0.21822 -4.750752,-0.675864 -5.31659,-1.332763 -0.670355,-0.778233 0.493733,-1.540518 2.905824,-1.902833 0.921709,-0.138448 0.791556,-0.0334 1.100333,-0.88813 0.14706,-0.407081 0.413045,-1.139827 0.591079,-1.628324 0.178034,-0.488498 0.415692,-1.145114 0.52813,-1.459149 0.112436,-0.314033 0.399125,-1.103877 0.637086,-1.755207 0.390284,-1.0682624 0.577416,-1.5857374 1.138028,-3.146988 0.322562,-0.8983046 0.223779,-0.7927687 1.02138,-1.0911952 0.381521,-0.1427477 1.35029,-0.5084378 2.152822,-0.8126447 2.053434,-0.7783733 2.22105,-0.7359286 1.442311,0.3652313 -0.210337,0.2974234 -0.448671,0.6359317 -0.529629,0.7522406 -0.08096,0.1163088 -0.280763,0.399831 -0.44401,0.630049 -0.163246,0.2302181 -0.284848,0.4395741 -0.270225,0.4652356 0.01462,0.025662 0.01145,0.032991 -0.007,0.016288 -0.01849,-0.016703 -0.08776,0.051356 -0.15392,0.1512431 -0.1931,0.2915262 -0.30811,0.354212 -0.667671,0.3639117 -0.03256,8.776e-4 0.01914,0.058358 0.11491,0.1277317 0.138552,0.1003665 0.18712,0.1716485 0.237745,0.3489265 0.145679,0.510145 1.474675,5.2660914 1.504129,5.3826794 0.01763,0.06978 0.131842,0.478981 0.253805,0.909324 0.121963,0.430343 0.244175,0.867024 0.271585,0.970403 l 0.04983,0.187961 0.517819,0.07557 c 2.307286,0.336718 3.533441,0.986037 3.241207,1.716402 -0.05698,0.142424 -0.431834,0.561535 -0.504258,0.563803 -0.01188,3.72e-4 -0.140993,0.05476 -0.286928,0.120875 -1.578847,0.715223 -6.083839,1.126281 -9.527755,0.86936 z m 4.027258,-1.605484 c 0.950417,-0.137969 1.683805,-0.375469 2.066412,-0.669187 l 0.173362,-0.133086 -0.07471,-0.255293 C 22.468249,16.47753 22.394393,16.224685 22.34521,16.056063 l -0.08942,-0.306586 -0.156826,0.07865 c -1.262374,0.63308 -4.621089,0.703459 -6.364699,0.133367 -0.211587,-0.06918 -0.388891,-0.121416 -0.394011,-0.116078 -0.09916,0.10339 -0.371915,1.049227 -0.316242,1.096654 0.787539,0.670905 3.333375,1.021868 5.320262,0.733439 z m -0.805565,-2.337471 0.387984,-0.200244 c 0.69066,0.332008 1.031046,0.329058 1.041602,0.316745 0.07804,-0.08623 0.07378,-0.135453 -0.08116,-0.938326 -0.0082,-0.04248 0.117865,-0.199106 0.319841,-0.397402 0.428206,-0.420401 0.442134,-0.61157 0.04872,-0.668738 -0.08769,-0.01275 -0.292668,-0.04508 -0.4555,-0.07185 l -0.296059,-0.04869 -0.20278,-0.418056 c -0.305006,-0.628811 -0.41204,-0.625457 -0.736307,0.02307 -0.105312,0.21062 -0.196847,0.388927 -0.203411,0.39624 -0.0065,0.0073 -0.208964,0.04234 -0.449779,0.07784 -0.711303,0.104855 -0.751163,0.21973 -0.246612,0.710732 l 0.339262,0.33015 -0.08126,0.449053 c -0.128169,0.708245 -0.03465,0.775028 0.615462,0.439499 z m -2.252682,-3.158215 c 0.265558,-0.14826 0.316822,-0.149569 0.589579,-0.01506 0.291855,0.143928 0.283871,0.147127 0.237083,-0.09497 -0.06297,-0.325829 -0.0505,-0.373541 0.155031,-0.593273 0.215056,-0.229912 0.216192,-0.227821 -0.153202,-0.281959 -0.230187,-0.03374 -0.233945,-0.03664 -0.359501,-0.277163 -0.153237,-0.29356 -0.151081,-0.293225 -0.272926,-0.04241 -0.113793,0.234238 -0.191544,0.306633 -0.329317,0.306633 -0.176643,0 -0.24168,0.239898 -0.108081,0.398671 0.108023,0.128379 0.114516,0.257859 0.02984,0.595212 -0.0328,0.130676 -0.01547,0.13103 0.211487,0.0043 z m 2.62993,-1.674912 c 0.02579,0 0.135016,0.04685 0.242709,0.10411 l 0.195805,0.10411 -0.0266,-0.254506 c -0.02628,-0.251415 -0.02466,-0.256492 0.132981,-0.417933 l 0.159581,-0.1634274 -0.206176,-0.0297 c -0.243705,-0.03511 -0.31616,-0.09035 -0.419725,-0.320022 l -0.07724,-0.171275 -0.08169,0.161956 c -0.121174,0.240246 -0.197138,0.309655 -0.342513,0.312957 -0.276886,0.0063 -0.29706,0.04701 -0.11076,0.2235454 0.0936,0.08869 0.169048,0.183448 0.167661,0.210564 -0.0014,0.02711 -0.01721,0.138462 -0.03517,0.247437 l -0.03265,0.198136 0.193437,-0.102974 c 0.10639,-0.05663 0.214543,-0.102974 0.240341,-0.102974 z M 18.89696,8.6862596 c 0.02363,0 0.134941,0.04896 0.247351,0.108803 0.179673,0.09565 0.201543,0.09948 0.180878,0.03172 -0.07926,-0.259899 -0.04504,-0.435101 0.117459,-0.601522 L 19.603115,8.0609271 19.398067,8.0323688 C 19.147118,7.9974175 19.090011,7.9547611 18.98005,7.7201275 L 18.89396,7.5364367 18.792531,7.7529912 c -0.06468,0.138106 -0.133089,0.2229184 -0.188825,0.2341217 -0.04807,0.00966 -0.160157,0.029303 -0.249086,0.043646 l -0.16169,0.026079 0.174003,0.1887707 c 0.179889,0.195157 0.189934,0.253794 0.09956,0.581173 -0.01878,0.06804 0.0027,0.06431 0.183107,-0.03172 0.112411,-0.05984 0.223719,-0.108802 0.247351,-0.108802 z m 0.232618,0.02115 c 0,-0.01163 0.0095,-0.02115 0.02115,-0.02115 0.01163,0 0.02115,0.0095 0.02115,0.02115 0,0.01163 -0.0095,0.02115 -0.02115,0.02115 -0.01163,0 -0.02115,-0.0095 -0.02115,-0.02115 z m 1.571188,-2.1487184 c 0.08856,-0.035373 0.134785,-0.02985 0.220557,0.02635 0.150153,0.098384 0.158246,0.092742 0.129032,-0.089949 -0.02154,-0.1346652 -0.0071,-0.1831709 0.08785,-0.2960591 L 21.251806,6.0640256 H 21.14577 c -0.170288,0 -0.235764,-0.042074 -0.310469,-0.1995046 l -0.07024,-0.1480092 -0.06098,0.1208884 c -0.0829,0.1643445 -0.171305,0.2266238 -0.321677,0.2266238 h -0.126711 l 0.118404,0.123588 c 0.09889,0.1032167 0.115679,0.1521702 0.101868,0.2969895 -0.01363,0.1429354 -0.0052,0.1686086 0.04811,0.1461214 0.03556,-0.015004 0.115066,-0.047419 0.176688,-0.072033 z m -0.09089,-0.2197554 c 0,-0.011631 0.0095,-0.021147 0.02115,-0.021147 0.01163,0 0.02115,0.00952 0.02115,0.021147 0,0.011631 -0.0095,0.021147 -0.02115,0.021147 -0.01163,0 -0.02115,-0.00952 -0.02115,-0.021147 z m 0,-0.2537649 c 0,-0.011631 0.0095,-0.021147 0.02115,-0.021147 0.01163,0 0.02115,0.00952 0.02115,0.021147 0,0.011631 -0.0095,0.021147 -0.02115,0.021147 -0.01163,0 -0.02115,-0.00952 -0.02115,-0.021147 z m 5.794298,10.7004201 c 0,-0.01163 0.0095,-0.02115 0.02115,-0.02115 0.01163,0 0.02115,0.0095 0.02115,0.02115 0,0.01163 -0.0095,0.02115 -0.02115,0.02115 -0.01163,0 -0.02115,-0.0095 -0.02115,-0.02115 z M 22.639992,5.6199343 c 0,-0.011631 0.0095,-0.021147 0.02115,-0.021147 0.01163,0 0.02115,0.00952 0.02115,0.021147 0,0.011631 -0.0095,0.021147 -0.02115,0.021147 -0.01163,0 -0.02115,-0.00952 -0.02115,-0.021147 z"
       id="path16"
       sodipodi:nodetypes="cssssssssssssssssssssscssscccsscsscssssscccsssscsscsscsccsssssssssssssscsscsscscscccssssssscsscssscsscssssssssssccsscsscsssssssssssssssssssssssss" /></g><g
     inkscape:groupmode="layer"
     id="g19"
     inkscape:label="Monster"
     style="display:inline"><g
       id="g18"
       transform="translate(-1.5582394,-0.52916667)"><text
         xml:space="preserve"
         style="font-style:normal;font-variant:normal;font-weight:normal;font-stretch:normal;font-size:4.23333px;line-height:1;font-family:Bahnschrift;-inkscape-font-specification:'Bahnschrift, @wght=600,wdth=90.0';font-variant-ligatures:normal;font-variant-caps:normal;font-variant-numeric:normal;font-variant-east-asian:normal;font-variation-settings:'wdth' 90, 'wght' 600;text-align:start;letter-spacing:-0.0396875px;word-spacing:0px;text-orientation:upright;text-anchor:start;fill:#5b2d07;fill-opacity:1;stroke:none;stroke-width:2.54;stroke-linecap:round;stroke-linejoin:round;paint-order:markers stroke fill"
         x="43.290371"
         y="21.003536"
         id="text16"
         inkscape:label="ward"
         transform="translate(-6.5976699,4.0188973)"><tspan
           sodipodi:role="line"
           id="tspan16"
           style="font-style:normal;font-variant:normal;font-weight:normal;font-stretch:normal;font-size:4.23333px;font-family:Bahnschrift;-inkscape-font-specification:'Bahnschrift, @wght=600,wdth=90.0';font-variant-ligatures:normal;font-variant-caps:normal;font-variant-numeric:normal;font-variant-east-asian:normal;font-variation-settings:'wdth' 90, 'wght' 600;text-align:start;text-anchor:start;fill:#5b2d07;fill-opacity:1;stroke:none;stroke-width:2.54"
           x="43.290371"
           y="21.003536">Trample</tspan></text><text
         xml:space="preserve"
         style="font-style:normal;font-variant:normal;font-weight:normal;font-stretch:normal;font-size:4.93889px;line-height:1;font-family:'Breathe Fire III';-inkscape-font-specification:'Breathe Fire III, Normal';font-variant-ligatures:normal;font-variant-caps:normal;font-variant-numeric:normal;font-variant-east-asian:normal;text-align:start;letter-spacing:0px;word-spacing:0px;text-orientation:upright;text-anchor:start;fill:#5b2d07;fill-opacity:1;stroke:none;stroke-width:2.54;stroke-linecap:round;stroke-linejoin:round;paint-order:markers stroke fill"
         x="33.479706"
         y="25.184361"
         id="text17"><tspan
           sodipodi:role="line"
           id="tspan17"
           style="font-size:4.93889px;stroke-width:2.54"
           x="33.479706"
           y="25.184361">-</tspan></text><text
         xml:space="preserve"
         style="font-style:normal;font-variant:normal;font-weight:normal;font-stretch:normal;font-size:4.23333px;line-height:1;font-family:Bahnschrift;-inkscape-font-specification:'Bahnschrift, @wght=600,wdth=90.0';font-variant-ligatures:normal;font-variant-caps:normal;font-variant-numeric:normal;font-variant-east-asian:normal;font-variation-settings:'wdth' 90, 'wght' 600;text-align:start;letter-spacing:-0.0396875px;word-spacing:0px;text-orientation:upright;text-anchor:start;fill:#5b2d07;fill-opacity:1;stroke:none;stroke-width:2.54;stroke-linecap:round;stroke-linejoin:round;paint-order:markers stroke fill"
         x="22.772184"
         y="24.932522"
         id="text18"
         inkscape:label="+1/+1"><tspan
           sodipodi:role="line"
           id="tspan18"
           style="font-style:normal;font-variant:normal;font-weight:normal;font-stretch:normal;font-size:4.23333px;font-family:Bahnschrift;-inkscape-font-specification:'Bahnschrift, @wght=600,wdth=90.0';font-variant-ligatures:normal;font-variant-caps:normal;font-variant-numeric:normal;font-variant-east-asian:normal;font-variation-settings:'wdth' 90, 'wght' 600;text-align:start;text-anchor:start;fill:#5b2d07;fill-opacity:1;stroke:none;stroke-width:2.54"
           x="22.772184"
           y="24.932522">+1 / +1</tspan></text></g><text
       xml:space="preserve"
       style="font-style:normal;font-variant:normal;font-weight:normal;font-stretch:normal;font-size:8.46667px;line-height:1;font-family:'Breathe Fire III';-inkscape-font-specification:'Breathe Fire III, Normal';font-variant-ligatures:normal;font-variant-caps:normal;font-variant-numeric:normal;font-variant-east-asian:normal;text-align:start;letter-spacing:0px;word-spacing:0px;text-orientation:upright;text-anchor:start;fill:#5b2d07;fill-opacity:1;stroke:none;stroke-width:2.54;stroke-linecap:round;stroke-linejoin:round;paint-order:markers stroke fill"
       x="30.402933"
       y="15.827394"
       id="text19"
       inkscape:label="title"><tspan
         sodipodi:role="line"
         id="tspan19"
         style="font-style:normal;font-variant:normal;font-weight:normal;font-stretch:normal;font-size:8.46667px;font-family:'Breathe Fire III';-inkscape-font-specification:'Breathe Fire III, Normal';font-variant-ligatures:normal;font-variant-caps:normal;font-variant-numeric:normal;font-variant-east-asian:normal;text-align:start;letter-spacing:0px;text-anchor:start;fill:#5b2d07;fill-opacity:1;stroke:none;stroke-width:2.54"
         x="30.402933"
         y="15.827394">Monster</tspan></text><path
       style="fill:#5b2d07;fill-opacity:1;stroke-width:0.589572"
       d="m 19.749749,19.51666 c 0,-0.0098 -0.06265,-0.01634 -0.155272,-0.01634 -0.09262,0 -0.155273,-0.0066 -0.155273,-0.01634 0,-0.009 -0.04002,-0.01634 -0.08893,-0.01634 -0.04891,0 -0.09347,-0.0074 -0.09903,-0.01634 -0.0055,-0.009 -0.04601,-0.01634 -0.08989,-0.01634 -0.04389,0 -0.08434,-0.0074 -0.0899,-0.01634 -0.0055,-0.009 -0.03196,-0.01634 -0.05868,-0.01634 -0.02811,0 -0.05255,-0.01034 -0.05799,-0.02452 -0.0054,-0.01397 -0.02974,-0.02451 -0.05669,-0.02451 -0.02601,0 -0.04728,-0.0074 -0.04728,-0.01634 0,-0.009 -0.02206,-0.01634 -0.04903,-0.01634 -0.02697,0 -0.04903,-0.0074 -0.04903,-0.01634 0,-0.009 -0.01839,-0.01634 -0.04086,-0.01634 -0.02247,0 -0.04086,-0.0074 -0.04086,-0.01634 0,-0.009 -0.01043,-0.01634 -0.02319,-0.01634 -0.02917,0 -0.123667,-0.05302 -0.123805,-0.06946 -5.7e-5,-0.0067 -0.01481,-0.01226 -0.03279,-0.01226 -0.01798,0 -0.03269,-0.0074 -0.03269,-0.01634 0,-0.009 -0.01839,-0.01634 -0.04086,-0.01634 -0.02248,0 -0.04086,-0.0074 -0.04086,-0.01634 0,-0.009 -0.01471,-0.01634 -0.03269,-0.01634 -0.01798,0 -0.03269,-0.0074 -0.03269,-0.01634 0,-0.009 -0.01129,-0.01634 -0.02509,-0.01634 -0.0298,0 -0.103187,-0.04467 -0.140271,-0.08539 -0.01454,-0.01597 -0.0352,-0.02902 -0.04591,-0.02902 -0.01071,0 -0.01493,-0.0074 -0.0094,-0.01634 0.0055,-0.009 -0.0032,-0.01658 -0.01947,-0.01686 -0.03612,-6.48e-4 -0.08677,-0.03715 -0.08677,-0.06257 0,-0.01025 -0.01471,-0.01863 -0.03269,-0.01863 -0.01798,0 -0.03269,-0.0074 -0.03269,-0.01634 0,-0.009 -0.0076,-0.01634 -0.01678,-0.01634 -0.02191,0 -0.310104,-0.288196 -0.310104,-0.310103 0,-0.0092 -0.0076,-0.01678 -0.01689,-0.01678 -0.02619,0 -0.130211,-0.110311 -0.130211,-0.138086 0,-0.01362 -0.02574,-0.05127 -0.05721,-0.08367 -0.03147,-0.0324 -0.05721,-0.06931 -0.05721,-0.08202 0,-0.01271 -0.0074,-0.02311 -0.01634,-0.02311 -0.009,0 -0.01634,-0.01471 -0.01634,-0.03269 0,-0.01798 -0.0074,-0.03269 -0.01634,-0.03269 -0.009,0 -0.01634,-0.0141 -0.01634,-0.03133 0,-0.01723 -0.0077,-0.03389 -0.01707,-0.03702 -0.0094,-0.0031 -0.01831,-0.02213 -0.01982,-0.04222 -0.0015,-0.02009 -0.01222,-0.03653 -0.02379,-0.03653 -0.01157,0 -0.02104,-0.01427 -0.02104,-0.03173 0,-0.01745 -0.0074,-0.03627 -0.01634,-0.04182 -0.009,-0.0055 -0.01634,-0.03173 -0.01634,-0.05817 0,-0.02644 -0.0074,-0.04807 -0.01634,-0.04807 -0.009,0 -0.01634,-0.02574 -0.01634,-0.05721 0,-0.03147 -0.0074,-0.05721 -0.01634,-0.05721 -0.01023,0 -0.01634,-0.100791 -0.01634,-0.269684 0,-0.168894 0.0061,-0.269685 0.01634,-0.269685 0.009,0 0.01634,-0.02574 0.01634,-0.05721 0,-0.03146 0.0074,-0.05721 0.01634,-0.05721 0.009,0 0.01634,-0.02207 0.01634,-0.04904 0,-0.02697 0.0074,-0.04903 0.01634,-0.04903 0.009,0 0.01634,-0.0079 0.01634,-0.01751 0,-0.0096 0.0092,-0.02776 0.02043,-0.04029 0.05084,-0.05669 0.06129,-0.0732 0.06129,-0.09678 0,-0.01386 0.0074,-0.0252 0.01634,-0.0252 0.009,0 0.01634,-0.0094 0.01634,-0.02091 0,-0.0115 0.01471,-0.03151 0.03269,-0.04447 0.01798,-0.01296 0.03269,-0.03665 0.03269,-0.05264 0,-0.01599 0.01103,-0.02908 0.02451,-0.02908 0.01348,0 0.02451,-0.0075 0.02451,-0.01677 0,-0.01762 0.139146,-0.163015 0.15601,-0.163015 0.01285,0 0.05647,-0.04386 0.05647,-0.05678 0,-0.01691 0.0791,-0.09032 0.09732,-0.09032 0.0094,0 0.01709,-0.0074 0.01709,-0.01634 0,-0.009 0.01471,-0.01634 0.03269,-0.01634 0.01798,0 0.03269,-0.0077 0.03269,-0.01709 0,-0.02021 0.07426,-0.09732 0.09372,-0.09732 0.0074,0 0.02408,-0.01471 0.03704,-0.03269 0.01296,-0.01798 0.03665,-0.03269 0.05264,-0.03269 0.016,0 0.02908,-0.0079 0.02908,-0.01751 0,-0.02263 0.04158,-0.06421 0.06421,-0.06421 0.0096,0 0.01751,-0.0074 0.01751,-0.01634 0,-0.009 0.01205,-0.01634 0.02677,-0.01634 0.01472,0 0.04868,-0.02565 0.07545,-0.05699 0.02678,-0.03135 0.05476,-0.05324 0.0622,-0.04865 0.0074,0.0046 0.03943,-0.01757 0.0711,-0.04924 0.03168,-0.03168 0.06519,-0.0576 0.07448,-0.0576 0.0093,0 0.01689,-0.01053 0.01689,-0.02342 0,-0.01288 0.01507,-0.0282 0.03351,-0.03405 0.01842,-0.0058 0.05863,-0.03576 0.08935,-0.06648 0.03072,-0.03072 0.06029,-0.05584 0.06573,-0.05584 0.01353,0 0.05658,-0.04407 0.05658,-0.05792 0,-0.01511 0.117347,-0.12187 0.13395,-0.12187 0.0072,0 0.01315,-0.0094 0.01315,-0.02091 0,-0.0115 0.01471,-0.03151 0.03269,-0.04447 0.01798,-0.01296 0.03269,-0.03331 0.03269,-0.04521 0,-0.01191 0.01655,-0.03935 0.03678,-0.06098 0.06715,-0.07182 0.07764,-0.08829 0.07764,-0.121938 0,-0.01836 0.0074,-0.03338 0.01634,-0.03338 0.009,0 0.01634,-0.01471 0.01634,-0.03269 0,-0.01798 0.0074,-0.03269 0.01634,-0.03269 0.009,0 0.01634,-0.01839 0.01634,-0.04086 0,-0.02248 0.0074,-0.04086 0.01634,-0.04086 0.009,0 0.01634,-0.02163 0.01634,-0.04807 0,-0.02644 0.0071,-0.05248 0.01587,-0.05788 0.0087,-0.0054 0.02071,-0.04628 0.02663,-0.09086 0.0059,-0.04458 0.01716,-0.08105 0.02499,-0.08105 0.0078,0 0.01424,-0.05149 0.01424,-0.114411 0,-0.06538 0.007,-0.114412 0.01634,-0.114412 0.0098,0 0.01634,-0.06506 0.01634,-0.16248 0,-0.09069 0.0072,-0.166944 0.01634,-0.172582 0.009,-0.0055 0.01634,-0.07586 0.01634,-0.156238 0,-0.08653 0.0067,-0.146135 0.01634,-0.146135 0.009,0 0.01634,-0.02434 0.01634,-0.05408 0,-0.02974 0.0108,-0.06836 0.02399,-0.08581 0.0132,-0.01745 0.02423,-0.05195 0.02452,-0.07667 2.85e-4,-0.02472 0.0079,-0.04495 0.01686,-0.04495 0.009,0 0.01634,-0.02574 0.01634,-0.05721 0,-0.03146 0.0074,-0.05721 0.01634,-0.05721 0.009,0 0.01634,-0.01471 0.01634,-0.03269 0,-0.01798 0.0074,-0.03269 0.01634,-0.03269 0.009,0 0.01634,-0.01471 0.01634,-0.03269 0,-0.01798 0.0074,-0.03269 0.01634,-0.03269 0.009,0 0.01634,-0.0098 0.01634,-0.02175 0,-0.01197 0.01839,-0.0316 0.04086,-0.04362 0.02248,-0.01203 0.04086,-0.03533 0.04086,-0.05179 0,-0.01646 0.01147,-0.02993 0.02548,-0.02993 0.01401,0 0.02094,-0.0074 0.01538,-0.01634 -0.0055,-0.009 -0.0023,-0.01634 0.0072,-0.01634 0.0095,0 0.01731,-0.01103 0.01731,-0.02451 0,-0.01348 0.0094,-0.02451 0.02091,-0.02451 0.0115,0 0.03151,-0.01471 0.04447,-0.03269 0.01296,-0.01798 0.03665,-0.03269 0.05264,-0.03269 0.016,0 0.02908,-0.0063 0.02908,-0.01411 0,-0.02474 0.08515,-0.100296 0.113032,-0.100296 0.01477,0 0.03746,-0.01471 0.05041,-0.03269 0.01296,-0.01798 0.03341,-0.03269 0.04543,-0.03269 0.01203,0 0.01781,-0.0066 0.01285,-0.0146 -0.005,-0.008 0.0093,-0.0192 0.03173,-0.02483 0.02241,-0.0056 0.04075,-0.01744 0.04075,-0.02626 0,-0.0088 0.01309,-0.01604 0.02908,-0.01604 0.016,0 0.03968,-0.01471 0.05264,-0.03269 0.01296,-0.01798 0.04033,-0.03269 0.06081,-0.03269 0.02049,0 0.03726,-0.0074 0.03726,-0.01634 0,-0.009 0.01134,-0.01634 0.0252,-0.01634 0.01386,0 0.03985,-0.01364 0.05775,-0.03032 0.0179,-0.01668 0.06164,-0.04426 0.0972,-0.06129 0.03556,-0.01703 0.06473,-0.03648 0.06483,-0.04323 1.03e-4,-0.0067 0.01858,-0.01226 0.04105,-0.01226 0.02247,0 0.04086,-0.0074 0.04086,-0.01634 0,-0.009 0.01471,-0.01634 0.03269,-0.01634 0.01798,0 0.03269,-0.0057 0.03269,-0.01263 0,-0.0069 0.02574,-0.02649 0.05721,-0.04343 0.03147,-0.01694 0.05721,-0.03701 0.05721,-0.04458 0,-0.0076 0.01471,-0.01377 0.03269,-0.01377 0.01798,0 0.03269,-0.0074 0.03269,-0.01634 0,-0.009 0.02574,-0.01634 0.05721,-0.01634 0.03147,0 0.05721,-0.0074 0.05721,-0.01634 0,-0.009 0.02863,-0.01634 0.06363,-0.01634 0.04148,0 0.0669,-0.0085 0.07304,-0.02451 0.0055,-0.01433 0.02999,-0.02452 0.05895,-0.02452 0.02725,0 0.04955,-0.0066 0.04955,-0.01477 0,-0.01462 0.07582,-0.02691 0.273871,-0.04438 0.05624,-0.005 0.0981,-0.01575 0.09302,-0.02397 -0.0054,-0.0087 0.07616,-0.01495 0.196034,-0.01495 0.125951,0 0.205271,-0.0063 0.205271,-0.01634 0,-0.0096 0.05721,-0.01634 0.138929,-0.01634 0.08172,0 0.138928,0.0067 0.138928,0.01634 0,0.01003 0.07932,0.01634 0.205271,0.01634 0.132685,0 0.201699,0.0058 0.195169,0.01634 -0.0063,0.01021 0.02707,0.01634 0.08893,0.01634 0.05513,0 0.09903,0.0072 0.09903,0.01634 0,0.009 0.0331,0.01634 0.07355,0.01634 0.04045,0 0.07355,0.0074 0.07355,0.01634 0,0.009 0.0223,0.01634 0.04955,0.01634 0.02896,0 0.05346,0.01018 0.05895,0.02451 0.0054,0.01397 0.02974,0.02451 0.05669,0.02451 0.02601,0 0.04728,0.0074 0.04728,0.01634 0,0.009 0.02163,0.01634 0.04807,0.01634 0.02644,0 0.05261,0.0074 0.05817,0.01634 0.0055,0.009 0.02438,0.01634 0.04182,0.01634 0.01745,0 0.03172,0.0074 0.03172,0.01634 0,0.009 0.01381,0.01634 0.03069,0.01634 0.01688,0 0.03984,0.01103 0.05103,0.02451 0.01119,0.01348 0.03048,0.02451 0.04286,0.02451 0.01238,0 0.02252,0.0074 0.02252,0.01634 0,0.009 0.01471,0.01634 0.03269,0.01634 0.01798,0 0.03269,0.0074 0.03269,0.01634 0,0.009 0.01332,0.01634 0.02961,0.01634 0.01628,0 0.0454,0.01471 0.0647,0.03269 0.0193,0.01798 0.04643,0.03269 0.06029,0.03269 0.01386,0 0.0252,0.01103 0.0252,0.02452 0,0.01348 0.01103,0.02451 0.02451,0.02451 0.01348,0 0.02452,0.0074 0.02452,0.01634 0,0.009 0.0096,0.01634 0.02144,0.01634 0.01179,0 0.03723,0.01471 0.05652,0.03269 0.0193,0.01798 0.03941,0.03269 0.04468,0.03269 0.01253,0 0.08984,0.07735 0.08984,0.08989 0,0.0053 0.04781,0.05653 0.10624,0.113819 0.05843,0.05729 0.106239,0.113107 0.106239,0.124033 0,0.01092 0.02023,0.03726 0.04495,0.05852 0.02472,0.02126 0.03891,0.03866 0.03153,0.03867 -0.0074,1.2e-5 -0.0037,0.0108 0.0082,0.02397 0.04923,0.05459 0.06246,0.07361 0.06246,0.08977 0,0.0094 0.0074,0.01703 0.01634,0.01703 0.009,0 0.01634,0.01137 0.01634,0.02526 0,0.01389 0.01655,0.04296 0.03678,0.06459 0.05877,0.06286 0.07764,0.08764 0.07764,0.101986 0,0.0074 0.01471,0.02403 0.03269,0.03698 0.01798,0.01296 0.03269,0.03346 0.03269,0.04557 0,0.0121 0.02574,0.04628 0.05721,0.07596 0.03147,0.02967 0.05721,0.0627 0.05721,0.0734 0,0.0107 0.0331,0.05208 0.07355,0.09196 0.04045,0.03988 0.07355,0.08063 0.07355,0.09056 0,0.0099 0.02206,0.03866 0.04903,0.06386 0.02697,0.02519 0.04903,0.05073 0.04903,0.05676 0,0.01365 0.04319,0.05765 0.05658,0.05765 0.01688,0 0.123206,0.112369 0.123206,0.130211 0,0.0093 0.01103,0.01689 0.02452,0.01689 0.01348,0 0.02451,0.0074 0.02451,0.01634 0,0.009 0.01103,0.01634 0.02451,0.01634 0.01348,0 0.02452,0.0074 0.02452,0.01634 0,0.009 0.0077,0.01634 0.01709,0.01634 0.0094,0 0.03478,0.01655 0.05642,0.03678 0.06286,0.05877 0.08764,0.07764 0.101985,0.07764 0.0074,0 0.02403,0.01471 0.03699,0.03269 0.01296,0.01798 0.04033,0.03269 0.06081,0.03269 0.02049,0 0.03734,0.0055 0.03744,0.01226 1.03e-4,0.0067 0.02953,0.02631 0.06538,0.04349 0.03585,0.01718 0.06519,0.0374 0.06519,0.04495 0,0.0075 0.01839,0.01371 0.04086,0.01371 0.02248,0 0.04086,0.0074 0.04086,0.01634 0,0.009 0.02206,0.01634 0.04903,0.01634 0.02697,0 0.04903,0.0074 0.04903,0.01634 0,0.009 0.02574,0.01634 0.05721,0.01634 0.03147,0 0.05721,0.0074 0.05721,0.01634 0,0.009 0.0331,0.01634 0.07355,0.01634 0.04045,0 0.07355,0.0065 0.07355,0.01446 0,0.008 0.04045,0.01952 0.08989,0.02569 0.04944,0.0062 0.0899,0.01806 0.0899,0.0264 0,0.0083 0.04266,0.01517 0.0948,0.01517 0.05214,0 0.101786,0.0066 0.110325,0.01476 0.0085,0.0081 0.04863,0.01891 0.08908,0.02399 0.174326,0.0219 0.221551,0.03082 0.236178,0.04464 0.0085,0.0081 0.03569,0.01467 0.06033,0.01467 0.02464,0 0.04935,0.0074 0.0549,0.01634 0.0055,0.009 0.02385,0.01634 0.04066,0.01634 0.01681,0 0.04159,0.01103 0.05507,0.02451 0.01348,0.01348 0.04711,0.02451 0.07472,0.02451 0.02761,0 0.0502,0.0065 0.0502,0.01436 0,0.0079 0.02207,0.0235 0.04903,0.03467 0.02697,0.01117 0.04903,0.02677 0.04903,0.03467 0,0.0079 0.0107,0.01436 0.02377,0.01436 0.01308,0 0.04216,0.01839 0.06463,0.04086 0.02248,0.02247 0.05223,0.04086 0.06612,0.04086 0.01389,0 0.02526,0.0074 0.02526,0.01634 0,0.009 0.0079,0.01634 0.01751,0.01634 0.0193,0 0.06421,0.04033 0.06421,0.05765 0,0.006 0.02207,0.03157 0.04904,0.05676 0.02697,0.02519 0.04903,0.05235 0.04903,0.06036 0,0.008 0.02574,0.04185 0.05721,0.0752 0.03147,0.03336 0.05721,0.07166 0.05721,0.08513 0,0.01347 0.0074,0.02448 0.01634,0.02448 0.009,0 0.01634,0.01393 0.01634,0.03094 0,0.01701 0.01103,0.03517 0.02451,0.04035 0.01348,0.0052 0.02452,0.02435 0.02452,0.04261 0,0.01826 0.0055,0.03326 0.01226,0.03333 0.01658,1.72e-4 0.05312,0.08102 0.05312,0.117542 0,0.01618 0.0074,0.02943 0.01634,0.02943 0.0092,0 0.01634,0.04631 0.01634,0.106239 0,0.05993 0.0071,0.106239 0.01634,0.106239 0.009,0 0.01634,0.04045 0.01634,0.0899 0,0.04944 -0.0074,0.08989 -0.01634,0.08989 -0.0097,0 -0.01634,0.05993 -0.01634,0.147101 0,0.08717 -0.0067,0.147101 -0.01634,0.147101 -0.009,0 -0.01634,0.02574 -0.01634,0.05721 0,0.03146 -0.0074,0.05721 -0.01634,0.05721 -0.009,0 -0.01634,0.02163 -0.01634,0.04807 0,0.02644 -0.0074,0.05261 -0.01634,0.05817 -0.009,0.0055 -0.01634,0.03173 -0.01634,0.05817 0,0.03183 -0.0083,0.04807 -0.02452,0.04807 -0.01712,0 -0.02451,0.01725 -0.02451,0.05721 0,0.03147 -0.0074,0.05721 -0.01634,0.05721 -0.009,0 -0.01634,0.01471 -0.01634,0.03269 0,0.01798 -0.0074,0.03269 -0.01634,0.03269 -0.009,0 -0.01634,0.01839 -0.01634,0.04086 0,0.02248 -0.0062,0.04086 -0.01386,0.04086 -0.0076,0 -0.02713,0.02942 -0.04335,0.06538 -0.01621,0.03596 -0.03572,0.06538 -0.04335,0.06538 -0.0076,0 -0.01386,0.01471 -0.01386,0.03269 0,0.01798 -0.0074,0.03269 -0.01634,0.03269 -0.009,0 -0.01634,0.0094 -0.01634,0.02091 0,0.0115 -0.01471,0.03151 -0.03269,0.04447 -0.01798,0.01296 -0.03269,0.03488 -0.03269,0.04871 0,0.01383 -0.02558,0.04714 -0.05685,0.07403 -0.03127,0.02688 -0.05701,0.05672 -0.05721,0.0663 -4.25e-4,0.02096 -0.155378,0.186821 -0.174722,0.187023 -0.0075,7.8e-5 -0.04069,0.02582 -0.07379,0.05721 -0.03311,0.03138 -0.07173,0.05706 -0.08581,0.05706 -0.01409,0 -0.0256,0.0074 -0.0256,0.01634 0,0.009 -0.01103,0.01634 -0.02451,0.01634 -0.01348,0 -0.02452,0.0074 -0.02452,0.01634 0,0.009 -0.01156,0.01634 -0.02568,0.01634 -0.01413,0 -0.03593,0.0092 -0.04847,0.02043 -0.05646,0.05063 -0.07312,0.06129 -0.09581,0.06129 -0.01333,0 -0.02879,0.0074 -0.03434,0.01634 -0.0055,0.009 -0.03173,0.01634 -0.05817,0.01634 -0.02644,0 -0.04807,0.0074 -0.04807,0.01634 0,0.009 -0.02513,0.01634 -0.05584,0.01634 -0.03072,0 -0.05848,0.0079 -0.0617,0.01756 -0.0032,0.0097 -0.05164,0.02171 -0.107601,0.02678 -0.05596,0.0051 -0.101748,0.01556 -0.101748,0.0233 0,0.0077 -0.08047,0.01407 -0.178824,0.01407 -0.101587,0 -0.183189,0.0071 -0.188927,0.01634 -0.0055,0.009 -0.07218,0.01634 -0.148065,0.01634 -0.08108,0 -0.137964,-0.0067 -0.137964,-0.01634 0,-0.01026 -0.10515,-0.01634 -0.28276,-0.01634 -0.168415,0 -0.28943,-0.0067 -0.299253,-0.0165 -0.0091,-0.0091 -0.1319,-0.02125 -0.272954,-0.02707 -0.141052,-0.0058 -0.256459,-0.01678 -0.256459,-0.02437 0,-0.01909 -0.516799,-0.01744 -0.551849,0.0018 -0.01561,0.0085 -0.07056,0.0201 -0.122104,0.02566 -0.05155,0.0055 -0.09795,0.01696 -0.103118,0.02532 -0.0052,0.0084 -0.0347,0.0152 -0.06564,0.0152 -0.03093,0 -0.05624,0.0074 -0.05624,0.01634 0,0.009 -0.0331,0.01634 -0.07355,0.01634 -0.04045,0 -0.07355,0.0074 -0.07355,0.01634 0,0.009 -0.02574,0.01634 -0.05721,0.01634 -0.03147,0 -0.05721,0.0074 -0.05721,0.01634 0,0.009 -0.02574,0.01634 -0.05721,0.01634 -0.03147,0 -0.05721,0.0074 -0.05721,0.01634 0,0.009 -0.01418,0.01634 -0.03152,0.01634 -0.01734,0 -0.04256,0.01103 -0.05604,0.02451 -0.01348,0.01348 -0.03608,0.02451 -0.0502,0.02451 -0.01413,0 -0.02568,0.0074 -0.02568,0.01634 0,0.009 -0.02574,0.01634 -0.05721,0.01634 -0.03147,0 -0.05721,0.0074 -0.05721,0.01634 0,0.009 -0.01427,0.01634 -0.03173,0.01634 -0.01745,0 -0.03627,0.0074 -0.04182,0.01634 -0.0055,0.009 -0.03173,0.01634 -0.05817,0.01634 -0.02644,0 -0.04807,0.0084 -0.04807,0.01863 0,0.0295 -0.05307,0.062 -0.102154,0.06257 -0.02472,2.86e-4 -0.04495,0.0079 -0.04495,0.01686 0,0.009 -0.01471,0.01634 -0.03269,0.01634 -0.01798,0 -0.03269,0.0074 -0.03269,0.01634 0,0.009 -0.01103,0.01634 -0.02451,0.01634 -0.01348,0 -0.02451,0.0074 -0.02451,0.01634 0,0.009 -0.01471,0.01634 -0.03269,0.01634 -0.01798,0 -0.03273,0.0055 -0.03279,0.01226 -1.39e-4,0.01644 -0.09464,0.06946 -0.123805,0.06946 -0.01275,0 -0.02319,0.0074 -0.02319,0.01634 0,0.009 -0.01471,0.01634 -0.03269,0.01634 -0.01798,0 -0.03269,0.0074 -0.03269,0.01634 0,0.009 -0.01471,0.01634 -0.03269,0.01634 -0.01798,0 -0.03269,0.0074 -0.03269,0.01634 0,0.009 -0.01103,0.01634 -0.02452,0.01634 -0.01348,0 -0.02456,0.0055 -0.02462,0.01226 -1.39e-4,0.01644 -0.09464,0.06946 -0.123805,0.06946 -0.01276,0 -0.02319,0.0074 -0.02319,0.01634 0,0.009 -0.01471,0.01634 -0.03269,0.01634 -0.01798,0 -0.03269,0.0074 -0.03269,0.01634 0,0.009 -0.01393,0.01634 -0.03094,0.01634 -0.01702,0 -0.03517,0.01103 -0.04035,0.02452 -0.0052,0.01348 -0.02273,0.02451 -0.039,0.02451 -0.01628,0 -0.0402,0.01471 -0.05316,0.03269 -0.01296,0.01798 -0.03621,0.03269 -0.05168,0.03269 -0.01546,0 -0.03266,0.0074 -0.03822,0.01634 -0.0055,0.009 -0.02438,0.01634 -0.04182,0.01634 -0.01745,0 -0.03172,0.0074 -0.03172,0.01634 0,0.009 -0.0141,0.01634 -0.03133,0.01634 -0.01723,0 -0.03378,0.0058 -0.03678,0.01286 -0.009,0.02125 -0.185841,0.101552 -0.223642,0.101552 -0.01933,0 -0.03514,0.0074 -0.03514,0.01634 0,0.009 -0.01471,0.01634 -0.03269,0.01634 -0.01798,0 -0.03269,0.0074 -0.03269,0.01634 0,0.009 -0.01839,0.01634 -0.04086,0.01634 -0.02248,0 -0.04086,0.0074 -0.04086,0.01634 0,0.009 -0.01155,0.01634 -0.02568,0.01634 -0.01413,0 -0.03672,0.01103 -0.0502,0.02451 -0.01348,0.01348 -0.04238,0.02451 -0.06421,0.02451 -0.02183,0 -0.0397,0.0074 -0.0397,0.01634 0,0.009 -0.02207,0.01634 -0.04903,0.01634 -0.02697,0 -0.04903,0.0074 -0.04903,0.01634 0,0.009 -0.01839,0.01634 -0.04086,0.01634 -0.02247,0 -0.04086,0.0074 -0.04086,0.01634 0,0.009 -0.02207,0.01634 -0.04903,0.01634 -0.02697,0 -0.04903,0.0074 -0.04903,0.01634 0,0.009 -0.01698,0.01634 -0.03774,0.01634 -0.02076,0 -0.05201,0.0108 -0.06946,0.024 -0.01745,0.0132 -0.05931,0.02423 -0.09302,0.02451 -0.03371,2.86e-4 -0.06129,0.0079 -0.06129,0.01686 0,0.009 -0.0331,0.01634 -0.07355,0.01634 -0.04045,0 -0.07355,0.0074 -0.07355,0.01634 0,0.0099 -0.07083,0.01634 -0.179789,0.01634 -0.108963,0 -0.17979,0.0064 -0.17979,0.01634 0,0.009 -0.0331,0.01634 -0.07355,0.01634 -0.04045,0 -0.07355,-0.0074 -0.07355,-0.01634 z m -2.79491,-3.595744 c -0.02248,-0.0075 -0.06844,-0.01833 -0.102153,-0.02397 -0.03371,-0.0057 -0.06129,-0.01727 -0.06129,-0.02585 0,-0.0086 -0.01471,-0.01561 -0.03269,-0.01561 -0.01798,0 -0.03269,-0.0074 -0.03269,-0.01634 0,-0.009 -0.02574,-0.01634 -0.05721,-0.01634 -0.03147,0 -0.05721,-0.0074 -0.05721,-0.01634 0,-0.009 -0.01471,-0.01634 -0.03269,-0.01634 -0.01798,0 -0.03269,-0.0066 -0.03269,-0.01457 0,-0.008 -0.01839,-0.01919 -0.04086,-0.02483 -0.02248,-0.0057 -0.04086,-0.01747 -0.04086,-0.02629 0,-0.0088 -0.01309,-0.01603 -0.02908,-0.01603 -0.016,0 -0.03968,-0.01471 -0.05264,-0.03269 -0.01296,-0.01798 -0.03481,-0.0327 -0.04856,-0.03271 -0.02603,-2.1e-5 -0.114889,-0.06875 -0.114889,-0.08886 0,-0.021 -0.04628,-0.05822 -0.07238,-0.05822 -0.01413,0 -0.02568,-0.0074 -0.02568,-0.01634 0,-0.009 -0.0077,-0.01634 -0.01709,-0.01634 -0.02219,0 -0.09732,-0.07514 -0.09732,-0.09732 0,-0.0094 -0.0077,-0.01709 -0.01709,-0.01709 -0.02624,0 -0.09732,-0.07706 -0.09732,-0.105496 0,-0.01389 -0.0074,-0.02526 -0.01634,-0.02526 -0.009,0 -0.01634,-0.0079 -0.01634,-0.01751 0,-0.02174 -0.04123,-0.06421 -0.06235,-0.06421 -0.0086,0 -0.02787,-0.02576 -0.04281,-0.05725 -0.01494,-0.03149 -0.04499,-0.07507 -0.06676,-0.09684 -0.02177,-0.02177 -0.05258,-0.06956 -0.06845,-0.106193 -0.01587,-0.03663 -0.03447,-0.0666 -0.04134,-0.0666 -0.0069,0 -0.01249,-0.01471 -0.01249,-0.03269 0,-0.01798 -0.0074,-0.03269 -0.01634,-0.03269 -0.009,0 -0.01634,-0.01471 -0.01634,-0.03269 0,-0.01798 -0.0074,-0.03268 -0.01634,-0.03268 -0.009,0 -0.01634,-0.01839 -0.01634,-0.04086 0,-0.02542 -0.0093,-0.04086 -0.02451,-0.04086 -0.01348,0 -0.02451,-0.01427 -0.02451,-0.03172 0,-0.01745 -0.0074,-0.03627 -0.01634,-0.04182 -0.009,-0.0055 -0.01634,-0.03173 -0.01634,-0.05817 0,-0.02644 -0.0074,-0.04807 -0.01634,-0.04807 -0.009,0 -0.01634,-0.02574 -0.01634,-0.05721 0,-0.03147 -0.0074,-0.05721 -0.01634,-0.05721 -0.009,0 -0.01634,-0.04045 -0.01634,-0.08989 0,-0.04944 -0.0074,-0.0899 -0.01634,-0.0899 -0.0094,0 -0.01634,-0.05176 -0.01634,-0.122584 0,-0.07083 -0.0069,-0.122584 -0.01634,-0.122584 -0.0094,0 -0.01634,-0.04935 -0.01634,-0.115376 0,-0.07275 0.006,-0.111645 0.01634,-0.105274 0.01031,0.0064 0.01634,-0.03252 0.01634,-0.105275 0,-0.06602 0.007,-0.115376 0.01634,-0.115376 0.009,0 0.01634,-0.0331 0.01634,-0.07355 0,-0.04045 0.0074,-0.07355 0.01634,-0.07355 0.009,0 0.01634,-0.01839 0.01634,-0.04086 0,-0.02248 0.0074,-0.04086 0.01634,-0.04086 0.009,0 0.01634,-0.01471 0.01634,-0.03269 0,-0.01798 0.0074,-0.03269 0.01634,-0.03269 0.009,0 0.01634,-0.01471 0.01634,-0.03269 0,-0.01816 0.0109,-0.03269 0.02451,-0.03269 0.01348,0 0.02451,-0.0076 0.02451,-0.01693 0,-0.01755 0.03582,-0.06031 0.126391,-0.150883 0.102069,-0.102068 0.134249,-0.12639 0.167226,-0.12639 0.0183,0 0.03328,-0.0074 0.03328,-0.01634 0,-0.009 0.01324,-0.01634 0.02942,-0.01634 0.01618,0 0.03641,-0.0061 0.04495,-0.01364 0.07624,-0.06699 0.587797,-0.1002 0.608022,-0.03948 0.0041,0.01229 0.03596,0.02043 0.07996,0.02043 0.04461,0 0.06921,0.0064 0.06305,0.01634 -0.0057,0.0093 0.008,0.01634 0.03172,0.01634 0.02301,0 0.04182,0.0074 0.04182,0.01634 0,0.009 0.02163,0.01634 0.04807,0.01634 0.02644,0 0.05261,0.0074 0.05817,0.01634 0.0055,0.009 0.02438,0.01634 0.04182,0.01634 0.01745,0 0.03172,0.0074 0.03172,0.01634 0,0.009 0.01417,0.01634 0.0315,0.01634 0.01733,0 0.04596,0.01839 0.06364,0.04086 0.01768,0.02248 0.04601,0.04086 0.06296,0.04086 0.01695,0 0.04142,0.01471 0.05438,0.03269 0.01296,0.01798 0.03349,0.03269 0.04564,0.03269 0.02637,0 0.06877,0.03959 0.06877,0.06421 0,0.0096 0.0094,0.01751 0.02091,0.01751 0.0115,0 0.03151,0.01471 0.04447,0.03269 0.01296,0.01798 0.03334,0.03269 0.04527,0.03269 0.03015,0 0.216238,0.189458 0.216238,0.220149 0,0.01376 0.0074,0.02502 0.01634,0.02502 0.009,0 0.01634,0.01103 0.01634,0.02452 0,0.01348 0.0083,0.02451 0.01853,0.02451 0.02353,0 0.09584,0.08322 0.09586,0.110326 10e-6,0.01124 0.0074,0.02043 0.01637,0.02043 0.009,0 0.01634,0.0079 0.01634,0.01751 0,0.0096 0.0092,0.02776 0.02043,0.0403 0.05166,0.0576 0.06129,0.07353 0.06129,0.101341 0,0.01637 0.01471,0.04037 0.03269,0.05333 0.01798,0.01296 0.03269,0.03665 0.03269,0.05264 0,0.016 0.0074,0.02908 0.01634,0.02908 0.009,0 0.01634,0.01839 0.01634,0.04086 0,0.02248 0.006,0.04086 0.01332,0.04086 0.01829,0 0.06841,0.108177 0.06841,0.147655 0,0.01768 0.0074,0.03213 0.01634,0.03213 0.009,0 0.01634,0.01795 0.01634,0.0399 0,0.02194 0.0074,0.04444 0.01634,0.05 0.009,0.0055 0.01634,0.03541 0.01634,0.06634 0,0.03093 0.0074,0.05624 0.01634,0.05624 0.009,0 0.01634,0.03967 0.01634,0.08815 0,0.06327 0.0069,0.0908 0.02451,0.09755 0.03659,0.01404 0.03659,0.59523 0,0.60927 -0.01664,0.0064 -0.02451,0.03246 -0.02451,0.08121 0,0.03949 -0.0074,0.0718 -0.01634,0.0718 -0.009,0 -0.01634,0.02206 -0.01634,0.04903 0,0.02697 -0.0074,0.04903 -0.01634,0.04903 -0.009,0 -0.01658,0.01287 -0.01686,0.0286 -6.49e-4,0.03533 -0.03746,0.08581 -0.06257,0.08581 -0.01025,0 -0.01863,0.01394 -0.01863,0.03098 0,0.03211 -0.214759,0.263227 -0.244602,0.263227 -0.0093,0 -0.01691,0.0074 -0.01691,0.01634 0,0.009 -0.02207,0.01634 -0.04903,0.01634 -0.02697,0 -0.04903,0.0074 -0.04903,0.01634 0,0.009 -0.01471,0.01634 -0.03269,0.01634 -0.01816,0 -0.03269,0.01089 -0.03269,0.02451 0,0.01712 -0.01725,0.02451 -0.05721,0.02451 -0.03147,0 -0.05721,0.0074 -0.05721,0.01634 0,0.01997 -0.398154,0.02002 -0.457647,4.8e-5 z m 9.218301,-1.846977 c 0,-0.009 -0.02023,-0.01645 -0.04495,-0.01659 -0.04639,-2.53e-4 -0.158342,-0.03415 -0.178123,-0.05393 -0.0062,-0.0062 -0.02468,-0.0112 -0.04116,-0.0112 -0.01648,0 -0.02997,-0.0079 -0.02997,-0.01751 0,-0.02604 -0.04303,-0.06421 -0.07238,-0.06421 -0.01413,0 -0.02569,-0.0074 -0.02569,-0.01634 0,-0.009 -0.0077,-0.01634 -0.01709,-0.01634 -0.0094,0 -0.03458,-0.01655 -0.05596,-0.03678 -0.02138,-0.02023 -0.06517,-0.05877 -0.09732,-0.08565 -0.03215,-0.02688 -0.05846,-0.05814 -0.05846,-0.06946 0,-0.01133 -0.0074,-0.02059 -0.01634,-0.02059 -0.009,0 -0.01634,-0.0094 -0.01634,-0.02091 0,-0.0115 -0.01471,-0.03151 -0.03269,-0.04447 -0.01798,-0.01296 -0.03269,-0.03375 -0.03269,-0.04621 0,-0.01245 -0.01839,-0.03711 -0.04086,-0.05478 -0.02247,-0.01768 -0.04086,-0.0447 -0.04086,-0.06004 0,-0.01534 -0.01471,-0.0385 -0.03269,-0.05146 -0.02125,-0.01532 -0.03269,-0.04231 -0.03269,-0.07716 0,-0.03675 -0.0077,-0.0536 -0.02451,-0.0536 -0.01362,0 -0.02451,-0.01453 -0.02451,-0.03269 0,-0.01798 -0.0074,-0.03269 -0.01634,-0.03269 -0.009,0 -0.01634,-0.01427 -0.01634,-0.03172 0,-0.01745 -0.0074,-0.03627 -0.01634,-0.04182 -0.009,-0.0055 -0.01634,-0.03173 -0.01634,-0.05817 0,-0.02644 -0.0074,-0.04807 -0.01634,-0.04807 -0.009,0 -0.01634,-0.02574 -0.01634,-0.05721 0,-0.03147 -0.0074,-0.05721 -0.01634,-0.05721 -0.009,0 -0.01634,-0.0331 -0.01634,-0.07355 0,-0.04045 -0.0074,-0.07355 -0.01634,-0.07355 -0.0092,0 -0.01634,-0.04586 -0.01634,-0.104878 0,-0.06937 -0.0069,-0.107182 -0.02043,-0.111687 -0.01532,-0.0051 -0.02043,-0.07892 -0.02043,-0.294746 0,-0.208556 0.0057,-0.293568 0.02043,-0.308366 0.01124,-0.01124 0.02043,-0.05941 0.02043,-0.107057 0,-0.04764 0.0074,-0.08662 0.01634,-0.08662 0.009,0 0.01634,-0.0331 0.01634,-0.07355 0,-0.04045 0.0074,-0.07355 0.01634,-0.07355 0.009,0 0.01634,-0.02163 0.01634,-0.04807 0,-0.02644 0.0074,-0.05261 0.01634,-0.05817 0.009,-0.0055 0.01634,-0.03173 0.01634,-0.05817 0,-0.02644 0.0074,-0.04807 0.01634,-0.04807 0.009,0 0.01634,-0.0099 0.01634,-0.02201 0,-0.03277 0.04913,-0.125095 0.06658,-0.125095 0.0083,0 0.01515,-0.01471 0.01515,-0.03269 0,-0.01798 0.0074,-0.03269 0.01634,-0.03269 0.009,0 0.01634,-0.01471 0.01634,-0.03269 0,-0.01798 0.0074,-0.03269 0.01634,-0.03269 0.009,0 0.01634,-0.0079 0.01634,-0.01751 0,-0.02263 0.04158,-0.06421 0.06421,-0.06421 0.0096,0 0.01751,-0.01095 0.01751,-0.02433 0,-0.02589 0.03761,-0.07784 0.08763,-0.12102 0.01673,-0.01444 0.04011,-0.03546 0.05195,-0.0467 0.01184,-0.01124 0.02907,-0.02043 0.03829,-0.02043 0.0092,0 0.03516,-0.01839 0.05763,-0.04086 0.02248,-0.02247 0.05223,-0.04086 0.06612,-0.04086 0.01389,0 0.02526,-0.0074 0.02526,-0.01634 0,-0.009 0.01471,-0.01634 0.03269,-0.01634 0.01798,0 0.03269,-0.0073 0.03269,-0.01634 0,-0.009 0.02513,-0.01634 0.05584,-0.01634 0.03072,0 0.05894,-0.0092 0.06272,-0.02043 0.0085,-0.0253 0.409516,-0.02125 0.418082,0.0042 0.003,0.0089 0.03058,0.0162 0.06129,0.0162 0.03072,0 0.05584,0.0074 0.05584,0.01634 0,0.009 0.01839,0.01634 0.04086,0.01634 0.02248,0 0.04086,0.0074 0.04086,0.01634 0,0.009 0.01156,0.01634 0.02569,0.01634 0.02936,0 0.07238,0.03817 0.07238,0.06421 0,0.0096 0.01529,0.01751 0.03397,0.01751 0.01868,0 0.06224,0.02942 0.09679,0.06538 0.03455,0.03596 0.07075,0.06538 0.08044,0.06538 0.0097,0 0.01763,0.0081 0.01763,0.01796 0,0.0099 0.02207,0.03857 0.04904,0.06376 0.02697,0.02519 0.04903,0.05389 0.04903,0.06376 0,0.0099 0.0074,0.01796 0.01634,0.01796 0.009,0 0.01634,0.01471 0.01634,0.03269 0,0.01798 0.01042,0.03269 0.02315,0.03269 0.01273,0 0.03292,0.02207 0.04485,0.04903 0.01194,0.02697 0.02726,0.04903 0.03406,0.04903 0.0068,0 0.01236,0.01839 0.01236,0.04086 0,0.02247 0.0074,0.04086 0.01634,0.04086 0.009,0 0.01634,0.01471 0.01634,0.03269 0,0.01798 0.0074,0.03269 0.01634,0.03269 0.009,0 0.01634,0.01494 0.01634,0.0332 0,0.01826 0.01103,0.03744 0.02451,0.04261 0.01348,0.0052 0.02452,0.0229 0.02452,0.03938 0,0.01648 0.0074,0.03452 0.01634,0.04008 0.009,0.0055 0.01634,0.03173 0.01634,0.05817 0,0.02644 0.0074,0.04807 0.01634,0.04807 0.009,0 0.01634,0.02207 0.01634,0.04903 0,0.02697 0.0074,0.04903 0.01634,0.04903 0.009,0 0.01634,0.03248 0.01634,0.07219 0,0.04147 0.0083,0.07496 0.01954,0.0787 0.04486,0.01495 0.08186,0.712238 0.04554,0.858268 -0.01064,0.04276 -0.02302,0.109011 -0.02751,0.147217 -0.0045,0.0382 -0.01479,0.06946 -0.02288,0.06946 -0.0081,0 -0.0147,0.02942 -0.0147,0.06538 0,0.03596 -0.0074,0.06538 -0.01634,0.06538 -0.009,0 -0.01634,0.02942 -0.01634,0.06538 0,0.03596 -0.0074,0.06538 -0.01634,0.06538 -0.009,0 -0.01634,0.01839 -0.01634,0.04086 0,0.02248 -0.0074,0.04086 -0.01634,0.04086 -0.009,0 -0.01634,0.01471 -0.01634,0.03269 0,0.01816 -0.0109,0.03269 -0.02452,0.03269 -0.01525,0 -0.02451,0.01544 -0.02451,0.04086 0,0.02248 -0.0074,0.04086 -0.01634,0.04086 -0.009,0 -0.01634,0.01471 -0.01634,0.03269 0,0.01798 -0.0074,0.03269 -0.01634,0.03269 -0.009,0 -0.01634,0.01471 -0.01634,0.03269 0,0.01798 -0.0074,0.03269 -0.01634,0.03269 -0.009,0 -0.01634,0.0083 -0.01634,0.01853 0,0.01957 -0.08126,0.09583 -0.102153,0.09586 -0.0067,1e-5 -0.01231,0.01289 -0.01237,0.02862 -6.2e-5,0.01573 -0.02723,0.04699 -0.06037,0.06946 -0.03315,0.02248 -0.07689,0.05741 -0.09721,0.07764 -0.02032,0.02023 -0.04832,0.03678 -0.06221,0.03678 -0.01389,0 -0.02526,0.01103 -0.02526,0.02451 0,0.01526 -0.01543,0.02451 -0.04086,0.02451 -0.02247,0 -0.04086,0.0074 -0.04086,0.01634 0,0.009 -0.01427,0.01634 -0.03173,0.01634 -0.01745,0 -0.03627,0.0074 -0.04182,0.01634 -0.0055,0.009 -0.03909,0.01634 -0.07451,0.01634 -0.03543,0 -0.06441,0.0074 -0.06441,0.01634 0,0.0097 -0.05993,0.01634 -0.147101,0.01634 -0.08717,0 -0.147101,-0.0067 -0.147101,-0.01634 z m -7.697535,-0.759894 c -0.06702,-0.01115 -0.124635,-0.02861 -0.128031,-0.03881 -0.0034,-0.01019 -0.03131,-0.01853 -0.06202,-0.01853 -0.03071,0 -0.05584,-0.0074 -0.05584,-0.01634 0,-0.009 -0.02207,-0.01634 -0.04903,-0.01634 -0.02697,0 -0.04903,-0.0074 -0.04903,-0.01634 0,-0.009 -0.01839,-0.01634 -0.04086,-0.01634 -0.02248,0 -0.04086,-0.0055 -0.04086,-0.01236 0,-0.0068 -0.02207,-0.02212 -0.04903,-0.03406 -0.02697,-0.01194 -0.04903,-0.03212 -0.04903,-0.04485 0,-0.01273 -0.01471,-0.02315 -0.03269,-0.02315 -0.01798,0 -0.03269,-0.0074 -0.03269,-0.01634 0,-0.009 -0.0081,-0.01634 -0.01796,-0.01634 -0.0099,0 -0.03857,-0.02207 -0.06376,-0.04904 -0.02519,-0.02697 -0.05329,-0.04903 -0.06243,-0.04903 -0.02269,0 -0.150049,-0.123853 -0.150049,-0.145912 0,-0.0097 -0.0331,-0.05035 -0.07355,-0.09023 -0.04045,-0.03988 -0.07355,-0.08029 -0.07355,-0.0898 0,-0.0095 -0.0074,-0.01729 -0.01634,-0.01729 -0.009,0 -0.01634,-0.01471 -0.01634,-0.03269 0,-0.01798 -0.0079,-0.03269 -0.01751,-0.03269 -0.02604,0 -0.06421,-0.04303 -0.06421,-0.07238 0,-0.01413 -0.0074,-0.02568 -0.01634,-0.02568 -0.009,0 -0.01634,-0.01103 -0.01634,-0.02451 0,-0.01348 -0.0074,-0.02451 -0.01634,-0.02451 -0.009,0 -0.01634,-0.01471 -0.01634,-0.03269 0,-0.01798 -0.0074,-0.03269 -0.01634,-0.03269 -0.009,0 -0.01634,-0.01013 -0.01634,-0.02252 0,-0.01238 -0.01103,-0.03167 -0.02451,-0.04286 -0.01348,-0.01119 -0.02452,-0.03416 -0.02452,-0.05103 0,-0.01688 -0.0074,-0.03069 -0.01634,-0.03069 -0.009,0 -0.01634,-0.01471 -0.01634,-0.03269 0,-0.01798 -0.0074,-0.03269 -0.01634,-0.03269 -0.009,0 -0.01634,-0.01839 -0.01634,-0.04086 0,-0.02247 -0.0074,-0.04086 -0.01634,-0.04086 -0.009,0 -0.01634,-0.02207 -0.01634,-0.04903 0,-0.02697 -0.0074,-0.04903 -0.01634,-0.04903 -0.009,0 -0.01634,-0.02496 -0.01634,-0.05546 0,-0.03422 -0.0094,-0.05906 -0.02452,-0.06486 -0.01348,-0.0052 -0.02451,-0.02435 -0.02451,-0.04261 0,-0.01826 -0.0074,-0.0332 -0.01634,-0.0332 -0.009,0 -0.01634,-0.02899 -0.01634,-0.06441 0,-0.03543 -0.0074,-0.06896 -0.01634,-0.07451 -0.009,-0.0055 -0.01634,-0.0538 -0.01634,-0.107203 0,-0.05384 -0.0073,-0.0971 -0.01634,-0.0971 -0.0098,0 -0.01634,-0.06265 -0.01634,-0.155273 0,-0.09262 -0.0066,-0.155273 -0.01634,-0.155273 -0.0094,0 -0.01634,-0.05176 -0.01634,-0.122584 0,-0.07083 0.0069,-0.122584 0.01634,-0.122584 0.0095,0 0.01634,-0.05448 0.01634,-0.130755 0,-0.07627 0.0068,-0.130756 0.01634,-0.130756 0.009,0 0.01634,-0.02942 0.01634,-0.06538 0,-0.03596 0.0074,-0.06538 0.01634,-0.06538 0.009,0 0.01634,-0.02574 0.01634,-0.05721 0,-0.03147 0.0074,-0.05721 0.01634,-0.05721 0.009,0 0.01634,-0.0099 0.01634,-0.022 0,-0.03277 0.04913,-0.125095 0.06658,-0.125095 0.0083,0 0.01515,-0.01471 0.01515,-0.03269 0,-0.01798 0.0074,-0.03269 0.01634,-0.03269 0.009,0 0.01634,-0.01099 0.01634,-0.02442 0,-0.01343 0.0331,-0.058 0.07355,-0.09903 0.04045,-0.04103 0.07355,-0.07838 0.07355,-0.08298 0,-0.01838 0.04823,-0.05508 0.07238,-0.05508 0.01413,0 0.02569,-0.0074 0.02569,-0.01634 0,-0.009 0.01103,-0.01634 0.02451,-0.01634 0.01348,0 0.02451,-0.0074 0.02451,-0.01634 0,-0.009 0.01471,-0.01634 0.03269,-0.01634 0.01798,0 0.03269,-0.0074 0.03269,-0.01634 0,-0.009 0.02574,-0.01634 0.05721,-0.01634 0.04118,0 0.05721,-0.0072 0.05721,-0.02575 0,-0.03398 0.458603,-0.02878 0.46993,0.0053 0.0037,0.01124 0.03191,0.02043 0.06263,0.02043 0.03072,0 0.05584,0.0074 0.05584,0.01634 0,0.009 0.02207,0.01634 0.04903,0.01634 0.02697,0 0.04903,0.0074 0.04903,0.01634 0,0.009 0.01471,0.01634 0.03269,0.01634 0.01798,0 0.03269,0.0074 0.03269,0.01634 0,0.009 0.0079,0.01634 0.01751,0.01634 0.0096,0 0.02776,0.0092 0.04029,0.02043 0.05669,0.05084 0.07319,0.06129 0.09678,0.06129 0.01386,0 0.0252,0.0074 0.0252,0.01634 0,0.009 0.0081,0.01634 0.01796,0.01634 0.0099,0 0.03857,0.02207 0.06376,0.04903 0.02519,0.02697 0.05389,0.04903 0.06376,0.04903 0.0099,0 0.01796,0.01103 0.01796,0.02451 0,0.01348 0.0079,0.02451 0.0176,0.02451 0.01819,0 0.113154,0.08819 0.113154,0.105076 0,0.0053 0.0331,0.04215 0.07355,0.08203 0.04045,0.03988 0.07355,0.08397 0.07355,0.09797 0,0.01401 0.0074,0.02546 0.01634,0.02546 0.009,0 0.01634,0.01103 0.01634,0.02451 0,0.01348 0.0097,0.02451 0.02148,0.02451 0.02171,0 0.09293,0.117421 0.09293,0.153209 0,0.01065 0.01471,0.02997 0.03269,0.04293 0.01798,0.01296 0.03269,0.03688 0.03269,0.05316 0,0.01628 0.01103,0.03383 0.02451,0.039 0.01348,0.0052 0.02451,0.02333 0.02451,0.04035 0,0.01701 0.0074,0.03094 0.01634,0.03094 0.009,0 0.01634,0.01427 0.01634,0.03172 0,0.01745 0.0074,0.03627 0.01634,0.04182 0.009,0.0055 0.01634,0.02438 0.01634,0.04182 0,0.01745 0.0074,0.03172 0.01634,0.03172 0.009,0 0.01634,0.02145 0.01634,0.04767 0,0.02622 0.0081,0.05038 0.01806,0.05369 0.02128,0.0071 0.06306,0.120043 0.06342,0.171442 1.35e-4,0.0197 0.0076,0.04036 0.01659,0.04591 0.009,0.0055 0.01634,0.03173 0.01634,0.05817 0,0.02644 0.0074,0.04807 0.01634,0.04807 0.009,0 0.01634,0.04045 0.01634,0.0899 0,0.04944 0.0074,0.08989 0.01634,0.08989 0.0097,0 0.01634,0.05993 0.01634,0.147101 0,0.08717 0.0067,0.147101 0.01634,0.147101 0.0097,0 0.01634,0.05993 0.01634,0.1471 0,0.08717 -0.0067,0.147101 -0.01634,0.147101 -0.0097,0 -0.01634,0.05993 -0.01634,0.147101 0,0.08717 -0.0067,0.1471 -0.01634,0.1471 -0.009,0 -0.01634,0.02574 -0.01634,0.05721 0,0.03146 -0.0074,0.05721 -0.01634,0.05721 -0.009,0 -0.01634,0.02207 -0.01634,0.04903 0,0.02697 -0.0074,0.04903 -0.01634,0.04903 -0.009,0 -0.01634,0.01331 -0.01634,0.02957 0,0.01626 -0.0108,0.04384 -0.02399,0.06129 -0.0132,0.01745 -0.02423,0.04297 -0.02451,0.05672 -2.86e-4,0.01375 -0.01523,0.0356 -0.03321,0.04856 -0.01798,0.01296 -0.03269,0.03665 -0.03269,0.05264 0,0.016 -0.0074,0.02908 -0.01634,0.02908 -0.009,0 -0.01634,0.0083 -0.01634,0.01853 0,0.01957 -0.08126,0.09583 -0.102154,0.09586 -0.0067,1e-5 -0.01226,0.0079 -0.01226,0.01753 0,0.02566 -0.03374,0.05491 -0.09398,0.08146 -0.02922,0.01288 -0.05312,0.02898 -0.05312,0.03577 0,0.0068 -0.0141,0.01235 -0.03133,0.01235 -0.01723,0 -0.03378,0.0055 -0.03678,0.01226 -0.01166,0.02624 -0.132373,0.06946 -0.193965,0.06946 -0.03565,0 -0.06482,0.0074 -0.06482,0.01634 0,0.01986 -0.03682,0.01834 -0.195407,-0.008 z m -3.155217,-0.458736 c 0,-0.023 -0.0071,-0.03741 -0.01586,-0.03202 -0.0087,0.0054 -0.02038,-0.01072 -0.02588,-0.03581 -0.0055,-0.02509 -0.01418,-0.05665 -0.01927,-0.07013 -0.01516,-0.04017 -0.03893,-0.196635 -0.04779,-0.314632 -0.0045,-0.06068 -0.01504,-0.110325 -0.02329,-0.110325 -0.0087,0 -0.015,-0.168242 -0.015,-0.40044 0,-0.256064 0.0059,-0.400441 0.01634,-0.400441 0.0093,0 0.01634,-0.04871 0.01634,-0.113447 0,-0.0624 0.0064,-0.11739 0.01418,-0.122209 0.0078,-0.0048 0.0189,-0.04019 0.02468,-0.0786 0.02654,-0.176397 0.03094,-0.192423 0.05282,-0.192423 0.01508,0 0.02273,-0.01925 0.02273,-0.05721 0,-0.03147 0.0074,-0.05721 0.01634,-0.05721 0.009,0 0.01634,-0.02163 0.01634,-0.04807 0,-0.02644 0.0074,-0.05261 0.01634,-0.05817 0.009,-0.0055 0.01634,-0.02438 0.01634,-0.04182 0,-0.01745 0.0074,-0.03172 0.01634,-0.03172 0.009,0 0.01634,-0.01427 0.01634,-0.03172 0,-0.01745 0.0074,-0.03627 0.01634,-0.04182 0.009,-0.0055 0.01634,-0.02438 0.01634,-0.04182 0,-0.01745 0.01103,-0.03172 0.02451,-0.03172 0.01362,0 0.02452,-0.01453 0.02452,-0.03269 0,-0.01798 0.0074,-0.03269 0.01634,-0.03269 0.009,0 0.01634,-0.01839 0.01634,-0.04086 0,-0.02248 0.0074,-0.04086 0.01634,-0.04086 0.009,0 0.01634,-0.01471 0.01634,-0.03269 0,-0.01798 0.006,-0.03269 0.01332,-0.03269 0.0073,0 0.02559,-0.02574 0.0406,-0.05721 0.015,-0.03146 0.03475,-0.05721 0.04389,-0.05721 0.0091,0 0.01661,-0.01137 0.01661,-0.02526 0,-0.02844 0.07109,-0.105496 0.09732,-0.105496 0.01152,0 0.01709,0.165103 0.01709,0.506679 0,0.32689 0.0058,0.50668 0.01634,0.50668 0.0096,0 0.01634,0.05675 0.01634,0.137566 0,0.08751 0.0067,0.139801 0.01842,0.143706 0.01013,0.0034 0.0221,0.04444 0.0266,0.09126 0.0045,0.04681 0.0146,0.08512 0.02244,0.08512 0.0078,0 0.01426,0.0331 0.01426,0.07355 0,0.04045 0.0074,0.07355 0.01634,0.07355 0.009,0 0.01634,0.0331 0.01634,0.07355 0,0.04045 0.0074,0.07355 0.01634,0.07355 0.009,0 0.01634,0.02206 0.01634,0.04903 0,0.02697 0.0074,0.04903 0.01634,0.04903 0.009,0 0.01634,0.02574 0.01634,0.05721 0,0.03572 0.0079,0.05721 0.02101,0.05721 0.01156,0 0.02201,0.01287 0.02323,0.02861 0.0035,0.04489 0.04414,0.151186 0.05781,0.151186 0.0068,0 0.01234,0.01471 0.01234,0.03269 0,0.01798 0.0074,0.03269 0.01634,0.03269 0.009,0 0.01634,0.02942 0.01634,0.06538 v 0.06538 h -0.07355 c -0.04045,0 -0.07355,0.0074 -0.07355,0.01634 0,0.009 -0.01427,0.01634 -0.03173,0.01634 -0.01745,0 -0.03627,0.0074 -0.04182,0.01634 -0.0055,0.009 -0.03173,0.01634 -0.05817,0.01634 -0.02644,0 -0.04807,0.0074 -0.04807,0.01634 0,0.009 -0.01103,0.01634 -0.02452,0.01634 -0.01348,0 -0.02451,0.0074 -0.02451,0.01634 0,0.009 -0.01126,0.01634 -0.02503,0.01634 -0.01377,0 -0.02926,0.01103 -0.03444,0.02452 -0.0052,0.01348 -0.01965,0.02451 -0.03216,0.02451 -0.01251,0 -0.05307,0.02942 -0.09012,0.06538 -0.03705,0.03596 -0.07384,0.06538 -0.08174,0.06538 -0.0079,0 -0.01437,0.0076 -0.01437,0.01689 0,0.03029 -0.112458,0.130212 -0.146556,0.130212 -0.02476,0 -0.03323,-0.01067 -0.03323,-0.04182 z m 8.188598,-0.759055 c 0,-0.009 -0.03257,-0.01634 -0.07238,-0.01634 -0.04255,0 -0.08249,-0.01011 -0.0969,-0.02452 -0.01348,-0.01348 -0.03975,-0.02451 -0.05837,-0.02451 -0.01862,0 -0.03386,-0.0074 -0.03386,-0.01634 0,-0.009 -0.01471,-0.01634 -0.03269,-0.01634 -0.01798,0 -0.03269,-0.0074 -0.03269,-0.01634 0,-0.009 -0.01471,-0.01634 -0.03269,-0.01634 -0.01798,0 -0.03269,-0.0074 -0.03269,-0.01634 0,-0.009 -0.0077,-0.01634 -0.01703,-0.01634 -0.01782,0 -0.04003,-0.01633 -0.105593,-0.07764 -0.02163,-0.02023 -0.04368,-0.03678 -0.04899,-0.03678 -0.01249,0 -0.0899,-0.07727 -0.0899,-0.08974 0,-0.0052 -0.01503,-0.02578 -0.0334,-0.04569 -0.07135,-0.07729 -0.113655,-0.135145 -0.113675,-0.155431 -10e-6,-0.01165 -0.01657,-0.03887 -0.0368,-0.06051 -0.0613,-0.06556 -0.07764,-0.08778 -0.07764,-0.105594 0,-0.0094 -0.0074,-0.01703 -0.01634,-0.01703 -0.009,0 -0.01634,-0.02207 -0.01634,-0.04903 0,-0.02697 -0.0074,-0.04903 -0.01634,-0.04903 -0.009,0 -0.01634,-0.01839 -0.01634,-0.04086 0,-0.02247 -0.0074,-0.04086 -0.01634,-0.04086 -0.009,0 -0.01634,-0.01393 -0.01634,-0.03094 0,-0.01702 -0.01103,-0.03517 -0.02451,-0.04035 -0.01433,-0.0055 -0.02451,-0.02999 -0.02451,-0.05895 0,-0.02725 -0.0074,-0.04955 -0.01634,-0.04955 -0.009,0 -0.01634,-0.02163 -0.01634,-0.04807 0,-0.02644 -0.0074,-0.05261 -0.01634,-0.05817 -0.009,-0.0055 -0.01634,-0.04277 -0.01634,-0.08269 0,-0.03992 -0.0074,-0.07259 -0.01634,-0.07259 -0.009,0 -0.01634,-0.03678 -0.01634,-0.08172 0,-0.04495 -0.0074,-0.08172 -0.01634,-0.08172 -0.01008,0 -0.01634,-0.08399 -0.01634,-0.219289 0,-0.15945 -0.0056,-0.221891 -0.02043,-0.228823 -0.01634,-0.0076 -0.01634,-0.01144 0,-0.01907 0.01473,-0.0069 0.02043,-0.0661 0.02043,-0.2124787 0,-0.1244 0.0063,-0.202944 0.01634,-0.202944 0.009,0 0.01634,-0.04045 0.01634,-0.08989 0,-0.04944 0.0074,-0.08989 0.01634,-0.08989 0.009,0 0.01634,-0.02942 0.01634,-0.06538 0,-0.03596 0.0074,-0.06538 0.01634,-0.06538 0.009,0 0.01634,-0.02434 0.01634,-0.05408 0,-0.02974 0.0108,-0.06836 0.024,-0.08581 0.0132,-0.01745 0.02423,-0.04459 0.02451,-0.06033 2.86e-4,-0.01573 0.0079,-0.02861 0.01686,-0.02861 0.009,0 0.01634,-0.01471 0.01634,-0.03269 0,-0.01798 0.0074,-0.03269 0.01634,-0.03269 0.009,0 0.01634,-0.01839 0.01634,-0.04086 0,-0.02247 0.0074,-0.04086 0.01634,-0.04086 0.009,0 0.01634,-0.01471 0.01634,-0.03269 0,-0.017979 0.0074,-0.032689 0.01634,-0.032689 0.009,0 0.01634,-0.01471 0.01634,-0.032689 0,-0.017979 0.0069,-0.032689 0.01524,-0.032689 0.0084,0 0.02047,-0.016549 0.02686,-0.036775 0.0064,-0.020226 0.02527,-0.04867 0.04197,-0.063209 0.01669,-0.014539 0.03035,-0.038442 0.03035,-0.05312 0,-0.014677 0.0074,-0.026686 0.01634,-0.026686 0.009,0 0.01634,-0.00769 0.01634,-0.017088 0,-0.020055 0.07419,-0.097324 0.09344,-0.097324 0.0073,0 0.02783,-0.019673 0.04569,-0.043719 0.04801,-0.064619 0.0928,-0.1033821 0.119456,-0.1033821 0.01298,0 0.0355,-0.013555 0.05004,-0.030124 0.04895,-0.055782 0.187626,-0.1162938 0.267515,-0.1167312 0.02472,-1.354e-4 0.04495,-0.0076 0.04495,-0.016591 0,-0.010025 0.079,-0.016345 0.204307,-0.016345 0.125307,0 0.204306,0.00632 0.204306,0.016345 0,0.00899 0.02207,0.016345 0.04903,0.016345 0.02697,0 0.04903,0.00735 0.04903,0.016345 0,0.00899 0.01786,0.016345 0.0397,0.016345 0.02183,0 0.05073,0.011033 0.06421,0.024517 0.01348,0.013484 0.03338,0.024517 0.0442,0.024517 0.01082,0 0.03158,0.012922 0.04612,0.028715 0.01454,0.015793 0.0485,0.039696 0.07547,0.05312 0.05924,0.029488 0.08989,0.056916 0.08989,0.080444 0,0.00963 0.0076,0.017512 0.01689,0.017512 0.01748,0 0.130211,0.1061618 0.130211,0.1226231 0,0.00512 0.01503,0.025587 0.03341,0.045492 0.07449,0.080697 0.113656,0.1355697 0.113674,0.1592528 1.2e-5,0.013747 0.01473,0.035597 0.03271,0.048555 0.01798,0.012959 0.03269,0.039712 0.03269,0.059452 0,0.01974 0.0059,0.03834 0.01309,0.04134 0.02446,0.01018 0.101321,0.164654 0.101321,0.203641 0,0.02134 0.0074,0.03881 0.01634,0.03881 0.009,0 0.01634,0.02206 0.01634,0.04903 0,0.02697 0.0058,0.04903 0.01298,0.04903 0.01653,0 0.06874,0.1680834 0.06874,0.2212984 0,0.02211 0.0067,0.04021 0.01489,0.04021 0.0257,0 0.03725,0.190091 0.03725,0.6129197 0,0.422827 -0.01155,0.612918 -0.03725,0.612918 -0.0082,0 -0.01489,0.02522 -0.01489,0.05604 0,0.03082 -0.01103,0.06707 -0.02451,0.08056 -0.01348,0.01348 -0.02452,0.04711 -0.02452,0.07472 0,0.02761 -0.0074,0.0502 -0.01634,0.0502 -0.009,0 -0.01634,0.02206 -0.01634,0.04903 0,0.02697 -0.0074,0.04903 -0.01634,0.04903 -0.009,0 -0.01634,0.01839 -0.01634,0.04086 0,0.02247 -0.0074,0.04086 -0.01634,0.04086 -0.009,0 -0.01634,0.01427 -0.01634,0.03172 0,0.01745 -0.0074,0.03627 -0.01634,0.04182 -0.009,0.0055 -0.01634,0.02438 -0.01634,0.04182 0,0.01745 -0.01103,0.03172 -0.02452,0.03172 -0.01348,0 -0.02451,0.01309 -0.02451,0.02908 0,0.016 -0.01471,0.03968 -0.03269,0.05264 -0.01798,0.01296 -0.0327,0.03481 -0.03271,0.04856 -2.4e-5,0.03062 -0.07034,0.114889 -0.09586,0.114889 -0.01019,0 -0.01853,0.01103 -0.01853,0.02451 0,0.01348 -0.02942,0.05394 -0.06538,0.0899 -0.03596,0.03596 -0.07641,0.06538 -0.08989,0.06538 -0.01348,0 -0.02451,0.0077 -0.02451,0.01709 0,0.02624 -0.07706,0.09732 -0.105497,0.09732 -0.01389,0 -0.02526,0.0074 -0.02526,0.01634 0,0.009 -0.01839,0.01634 -0.04086,0.01634 -0.02248,0 -0.04086,0.0074 -0.04086,0.01634 0,0.009 -0.01287,0.01658 -0.02861,0.01686 -0.01573,2.86e-4 -0.04288,0.01132 -0.06033,0.02451 -0.01745,0.0132 -0.05931,0.024 -0.09302,0.024 -0.03371,0 -0.06583,0.0074 -0.07139,0.01634 -0.0055,0.009 -0.06483,0.01634 -0.131721,0.01634 -0.07018,0 -0.121619,-0.0069 -0.121619,-0.01634 z m -2.876634,-0.473991 c 0,-0.009 -0.02574,-0.01634 -0.05721,-0.01634 -0.03147,0 -0.05721,-0.0074 -0.05721,-0.01634 0,-0.009 -0.01502,-0.01634 -0.03338,-0.01634 -0.03115,0 -0.04678,-0.0091 -0.104949,-0.06129 -0.01253,-0.01124 -0.03066,-0.02043 -0.04029,-0.02043 -0.0096,0 -0.01751,-0.0074 -0.01751,-0.01634 0,-0.009 -0.01309,-0.01634 -0.02908,-0.01634 -0.016,0 -0.03968,-0.01471 -0.05264,-0.03269 -0.01296,-0.01798 -0.03545,-0.03269 -0.04998,-0.03269 -0.01453,0 -0.0552,-0.0329 -0.09037,-0.0731 -0.03517,-0.04021 -0.0714,-0.07331 -0.0805,-0.07355 -0.0091,-2.45e-4 -0.03117,-0.02005 -0.04903,-0.044 -0.01786,-0.02395 -0.06006,-0.07236 -0.09377,-0.107574 -0.03371,-0.03521 -0.06129,-0.07283 -0.06129,-0.08359 0,-0.01077 -0.01471,-0.03018 -0.03269,-0.04314 -0.01798,-0.01296 -0.03269,-0.03502 -0.03269,-0.04904 0,-0.01401 -0.01471,-0.03608 -0.03269,-0.04903 -0.01798,-0.01296 -0.03269,-0.03954 -0.03269,-0.05906 0,-0.01953 -0.01103,-0.03974 -0.02451,-0.04491 -0.01348,-0.0052 -0.02451,-0.02067 -0.02451,-0.03444 0,-0.01377 -0.0059,-0.02503 -0.01306,-0.02503 -0.0072,0 -0.02237,-0.02574 -0.03375,-0.05721 -0.01138,-0.03146 -0.02756,-0.05721 -0.03597,-0.05721 -0.0084,0 -0.01529,-0.02207 -0.01529,-0.04903 0,-0.02697 -0.0074,-0.04903 -0.01634,-0.04903 -0.009,0 -0.01634,-0.01524 -0.01634,-0.03386 0,-0.01862 -0.01103,-0.04489 -0.02451,-0.05837 -0.01348,-0.01348 -0.02452,-0.04238 -0.02452,-0.06421 0,-0.02183 -0.0074,-0.0397 -0.01634,-0.0397 -0.009,0 -0.01634,-0.02574 -0.01634,-0.05721 0,-0.03147 -0.0074,-0.05721 -0.01634,-0.05721 -0.009,0 -0.01634,-0.02942 -0.01634,-0.06538 0,-0.03596 -0.0074,-0.06538 -0.01634,-0.06538 -0.009,0 -0.01634,-0.03249 -0.01634,-0.07219 0,-0.04237 -0.0083,-0.07494 -0.01999,-0.07885 -0.01361,-0.0045 -0.01893,-0.04237 -0.01667,-0.118577 0.0018,-0.06155 -0.0029,-0.119847 -0.01056,-0.129542 -0.02977,-0.0378 -0.03605,-0.2927357 -0.0105,-0.4262397 0.01377,-0.07192 0.02503,-0.150983 0.02503,-0.175704 2e-6,-0.02472 0.0074,-0.04495 0.01635,-0.04495 0.009,0 0.01634,-0.0331 0.01634,-0.07355 0,-0.040452 0.0074,-0.07355 0.01634,-0.07355 0.009,0 0.01634,-0.025743 0.01634,-0.057206 0,-0.031463 0.0074,-0.057206 0.01634,-0.057206 0.009,0 0.01634,-0.025743 0.01634,-0.057206 0,-0.031463 0.0074,-0.057206 0.01634,-0.057206 0.009,0 0.01634,-0.01471 0.01634,-0.032689 0,-0.017979 0.0072,-0.032689 0.01603,-0.032689 0.0088,0 0.02065,-0.018388 0.02629,-0.040861 0.0057,-0.022474 0.01681,-0.040862 0.02483,-0.040862 0.008,0 0.01457,-0.011033 0.01457,-0.024517 0,-0.013484 0.0074,-0.024517 0.01634,-0.024517 0.009,0 0.01634,-0.011033 0.01634,-0.024517 0,-0.013484 0.0074,-0.024517 0.01634,-0.024517 0.009,0 0.01634,-0.00767 0.01634,-0.017034 0,-0.00937 0.0092,-0.027989 0.02043,-0.041379 0.0701,-0.083532 0.141858,-0.1518416 0.187962,-0.1789327 0.02921,-0.017168 0.05312,-0.036983 0.05312,-0.044035 0,-0.00705 0.01471,-0.01282 0.03269,-0.01282 0.01798,0 0.03269,-0.00735 0.03269,-0.016345 0,-0.00899 0.01471,-0.016345 0.03269,-0.016345 0.01798,0 0.03269,-0.00736 0.03269,-0.016345 0,-0.00899 0.02496,-0.016345 0.05546,-0.016345 0.03482,0 0.05904,-0.00935 0.0651,-0.025131 0.01361,-0.035477 0.465216,-0.033425 0.478877,0.00218 0.0055,0.014271 0.03288,0.022955 0.07244,0.022955 0.035,0 0.06363,0.00735 0.06363,0.016345 0,0.00899 0.01839,0.016345 0.04086,0.016345 0.02247,0 0.04086,0.00735 0.04086,0.016345 0,0.00899 0.01471,0.016345 0.03269,0.016345 0.01798,0 0.03269,0.00599 0.03269,0.013317 0,0.00732 0.02574,0.025593 0.05721,0.040597 0.03147,0.015003 0.05721,0.034753 0.05721,0.043888 0,0.00913 0.01309,0.016609 0.02908,0.016609 0.016,0 0.03969,0.01471 0.05264,0.032689 0.01296,0.017979 0.02963,0.032689 0.03704,0.032689 0.01601,0 0.09372,0.075486 0.09372,0.091034 0,0.014804 0.117622,0.1214449 0.13395,0.1214449 0.0072,0 0.01315,0.00941 0.01315,0.020909 0,0.0115 0.01471,0.031511 0.03269,0.04447 0.01798,0.012958 0.03269,0.036647 0.03269,0.052642 0,0.015994 0.0098,0.029081 0.02175,0.029081 0.01196,0 0.03159,0.018388 0.04362,0.040861 0.01203,0.022474 0.02798,0.040862 0.03545,0.040862 0.0075,0 0.01358,0.01471 0.01358,0.032689 0,0.017979 0.0074,0.032689 0.01634,0.032689 0.009,0 0.01634,0.01471 0.01634,0.032689 0,0.017979 0.0074,0.032689 0.01634,0.032689 0.009,0 0.01634,0.00788 0.01634,0.017512 0,0.00963 0.0092,0.027764 0.02043,0.040294 0.05217,0.058171 0.06129,0.073796 0.06129,0.1049488 0,0.01836 0.0074,0.03338 0.01634,0.03338 0.009,0 0.01634,0.02207 0.01634,0.04903 0,0.02697 0.0074,0.04903 0.01634,0.04903 0.009,0 0.01634,0.01839 0.01634,0.04086 0,0.02248 0.0074,0.04086 0.01634,0.04086 0.009,0 0.01634,0.02207 0.01634,0.04903 0,0.02697 0.0074,0.04903 0.01634,0.04903 0.009,0 0.01661,0.01655 0.01693,0.03678 3.18e-4,0.02023 0.01109,0.05516 0.02394,0.07764 0.01285,0.02248 0.02362,0.06477 0.02394,0.09398 3.19e-4,0.02921 0.0079,0.05312 0.01693,0.05312 0.009,0 0.01634,0.0331 0.01634,0.07355 0,0.04045 0.0074,0.07355 0.01634,0.07355 0.0094,0 0.01634,0.05176 0.01634,0.122584 0,0.07083 0.0069,0.122583 0.01634,0.122583 0.01006,0 0.01634,0.08172 0.01634,0.2124797 0,0.130756 -0.0063,0.212479 -0.01634,0.212479 -0.0093,0 -0.01634,0.04903 -0.01634,0.114411 0,0.06538 -0.007,0.114412 -0.01634,0.114412 -0.009,0 -0.01634,0.0331 -0.01634,0.07355 0,0.04045 -0.0074,0.07355 -0.01634,0.07355 -0.009,0 -0.01634,0.01851 -0.01634,0.04112 0,0.0639 -0.03837,0.17136 -0.06118,0.17136 -0.0113,0 -0.02054,0.01839 -0.02054,0.04086 0,0.02248 -0.0074,0.04086 -0.01634,0.04086 -0.009,0 -0.01634,0.01471 -0.01634,0.03269 0,0.01798 -0.0065,0.03269 -0.01436,0.03269 -0.0079,0 -0.02329,0.02154 -0.03419,0.04787 -0.01091,0.02633 -0.03754,0.06117 -0.05919,0.07743 -0.02165,0.01626 -0.03936,0.03807 -0.03936,0.04847 0,0.02567 -0.09003,0.120433 -0.114412,0.120433 -0.01076,0 -0.04019,0.02206 -0.06538,0.04903 -0.02519,0.02697 -0.05298,0.04903 -0.06176,0.04903 -0.0088,0 -0.02512,0.01103 -0.03631,0.02451 -0.01119,0.01348 -0.03416,0.02451 -0.05103,0.02451 -0.01688,0 -0.03069,0.0074 -0.03069,0.01634 0,0.009 -0.02163,0.01634 -0.04807,0.01634 -0.02644,0 -0.05261,0.0074 -0.05817,0.01634 -0.006,0.0097 -0.109133,0.01634 -0.254305,0.01634 -0.151905,0 -0.244203,-0.0062 -0.244203,-0.01634 z m 6.112846,-1.046048 c 0,-0.009 -0.01471,-0.01634 -0.03269,-0.01634 -0.01798,0 -0.03269,-0.0074 -0.03269,-0.01634 0,-0.009 -0.02513,-0.01634 -0.05584,-0.01634 -0.03072,0 -0.05848,-0.0079 -0.0617,-0.01756 -0.0032,-0.0097 -0.05164,-0.02171 -0.107602,-0.02678 -0.05596,-0.0051 -0.101747,-0.01556 -0.101747,-0.0233 0,-0.02258 -0.143348,-0.01661 -0.152667,0.0064 -0.0062,0.01538 -0.01263,0.01437 -0.02588,-0.0041 -0.01293,-0.01803 -0.02089,-0.01943 -0.03007,-0.0053 -0.0069,0.01058 -0.06019,0.02646 -0.118498,0.03529 -0.05831,0.0088 -0.122565,0.02127 -0.142791,0.02762 -0.03648,0.01147 -0.03678,0.01022 -0.03678,-0.153788 0,-0.09934 -0.0065,-0.165351 -0.01634,-0.165351 -0.0095,0 -0.01634,-0.05448 -0.01634,-0.130756 0,-0.07192 -0.0065,-0.1307567 -0.01446,-0.1307567 -0.008,0 -0.01951,-0.04045 -0.02569,-0.08989 -0.0062,-0.04944 -0.01806,-0.0899 -0.0264,-0.0899 -0.0083,0 -0.01517,-0.02942 -0.01517,-0.06538 0,-0.03596 -0.0074,-0.06538 -0.01634,-0.06538 -0.009,0 -0.01634,-0.02574 -0.01634,-0.05721 0,-0.03147 -0.0074,-0.05721 -0.01634,-0.05721 -0.009,0 -0.01634,-0.01839 -0.01634,-0.04086 0,-0.02247 -0.0074,-0.04086 -0.01634,-0.04086 -0.009,0 -0.01634,-0.02207 -0.01634,-0.04903 0,-0.02697 -0.007,-0.04903 -0.01561,-0.04903 -0.0086,0 -0.02043,-0.02574 -0.02634,-0.05721 -0.0059,-0.03147 -0.01727,-0.05721 -0.02526,-0.05721 -0.008,0 -0.01453,-0.01471 -0.01453,-0.03269 0,-0.01798 -0.0074,-0.03269 -0.01634,-0.03269 -0.009,0 -0.01634,-0.01839 -0.01634,-0.04086 0,-0.02247 -0.0074,-0.04086 -0.01634,-0.04086 -0.009,0 -0.01634,-0.01839 -0.01634,-0.04086 0,-0.02247 -0.0074,-0.04086 -0.01634,-0.04086 -0.009,0 -0.01634,-0.02206 -0.01634,-0.04903 0,-0.032689 -0.0082,-0.049034 -0.02451,-0.049034 -0.01348,0 -0.02452,-0.01134 -0.02452,-0.0252 0,-0.01386 -0.01471,-0.040989 -0.03269,-0.060288 -0.01798,-0.019298 -0.03269,-0.048411 -0.03269,-0.064694 0,-0.016284 -0.0074,-0.029607 -0.01634,-0.029607 -0.009,0 -0.01634,-0.01471 -0.01634,-0.032689 0,-0.017979 -0.0074,-0.032689 -0.01634,-0.032689 -0.009,0 -0.01634,-0.010132 -0.01634,-0.022516 0,-0.012383 -0.01103,-0.031672 -0.02451,-0.042863 -0.01348,-0.011191 -0.02452,-0.034156 -0.02452,-0.051035 0,-0.016878 -0.0074,-0.030688 -0.01634,-0.030688 -0.009,0 -0.01634,-0.01471 -0.01634,-0.032689 0,-0.017979 -0.0074,-0.032689 -0.01634,-0.032689 -0.009,0 -0.01634,-0.016764 -0.01634,-0.037253 0,-0.020489 -0.01471,-0.047856 -0.03269,-0.060814 -0.0468,-0.033731 -0.0408,-0.065472 0.01226,-0.064858 0.04908,5.676e-4 0.102153,0.033076 0.102153,0.062574 0,0.010246 0.01471,0.018629 0.03269,0.018629 0.01798,0 0.03269,0.00735 0.03269,0.016345 0,0.00899 0.01778,0.016345 0.0395,0.016345 0.02173,0 0.04195,0.00579 0.04495,0.012864 0.003,0.00708 0.04222,0.03413 0.08717,0.060121 0.04495,0.025991 0.101222,0.06801 0.125055,0.093375 0.02383,0.025365 0.05325,0.046127 0.06538,0.046138 0.02383,2.16e-5 0.11194,0.069965 0.11194,0.088858 0,0.017785 0.04459,0.058223 0.06421,0.058223 0.0096,0 0.01751,0.00735 0.01751,0.016345 0,0.00899 0.01471,0.016345 0.03269,0.016345 0.01798,0 0.03269,0.00808 0.03269,0.017964 0,0.00988 0.0331,0.049227 0.07355,0.087439 0.04045,0.038211 0.07355,0.076311 0.07355,0.084667 0,0.0084 0.01471,0.02579 0.03269,0.03875 0.01798,0.01296 0.03269,0.03297 0.03269,0.04447 0,0.0115 0.0083,0.02091 0.01853,0.02091 0.02553,0 0.09584,0.08427 0.09586,0.114889 1.1e-5,0.01375 0.01473,0.0356 0.03271,0.04856 0.01798,0.01296 0.03269,0.03375 0.03269,0.04621 0,0.01245 0.01839,0.03711 0.04086,0.05478 0.02247,0.01767 0.04086,0.0447 0.04086,0.06004 0,0.01534 0.01471,0.0385 0.03269,0.05146 0.01798,0.01296 0.03269,0.03665 0.03269,0.05264 0,0.016 0.0074,0.02908 0.01634,0.02908 0.009,0 0.01634,0.01839 0.01634,0.04086 0,0.02247 0.0055,0.04091 0.01226,0.04096 0.01644,1.39e-4 0.06946,0.09464 0.06946,0.123805 0,0.01275 0.0074,0.02319 0.01634,0.02319 0.009,0 0.01634,0.01471 0.01634,0.03269 0,0.01798 0.0074,0.03269 0.01634,0.03269 0.009,0 0.01634,0.02574 0.01634,0.05721 0,0.03146 0.0074,0.05721 0.01634,0.05721 0.009,0 0.01634,0.01393 0.01634,0.03094 0,0.01702 0.01017,0.03484 0.02258,0.03961 0.02109,0.0081 0.02997,0.0406 0.05332,0.195051 0.0051,0.03371 0.01584,0.06129 0.02389,0.06129 0.008,0 0.01463,0.0331 0.01463,0.07355 0,0.04045 0.0074,0.07355 0.01634,0.07355 0.009,0 0.01634,0.04045 0.01634,0.0899 0,0.08499 -0.0022,0.08989 -0.04086,0.08989 -0.02248,0 -0.04086,-0.0074 -0.04086,-0.01634 z M 16.94586,9.9428653 c -0.0061,-0.02023 -0.01768,-0.03678 -0.02562,-0.03678 -0.0079,0 -0.01444,-0.02207 -0.01444,-0.04903 0,-0.02697 -0.0074,-0.04903 -0.01634,-0.04903 -0.009,0 -0.01634,-0.02427 -0.01634,-0.05394 0,-0.02967 -0.007,-0.06092 -0.01549,-0.06946 -0.02036,-0.02041 -0.05133,-0.183563 -0.06112,-0.3219867 -0.0043,-0.06068 -0.01455,-0.110326 -0.0228,-0.110326 -0.0087,0 -0.015,-0.152186 -0.015,-0.3595791 0,-0.228823 0.0059,-0.3595791 0.01634,-0.3595791 0.0091,0 0.01634,-0.043944 0.01634,-0.099141 0,-0.054528 0.007,-0.112199 0.01553,-0.1281579 0.0085,-0.015959 0.01736,-0.060078 0.0196,-0.098041 0.0022,-0.037964 0.01,-0.072664 0.01716,-0.077113 0.0072,-0.00445 0.01309,-0.029194 0.01309,-0.05499 0,-0.025796 0.01103,-0.057934 0.02451,-0.071418 0.01348,-0.013484 0.02451,-0.039752 0.02451,-0.058373 0,-0.018621 0.0074,-0.033857 0.01634,-0.033857 0.009,0 0.01634,-0.025742 0.01634,-0.057206 0,-0.031463 0.0074,-0.057206 0.01634,-0.057206 0.009,0 0.01634,-0.022065 0.01634,-0.049034 0,-0.026968 0.0074,-0.049034 0.01634,-0.049034 0.009,0 0.01634,-0.0099 0.01634,-0.022006 0,-0.03277 0.04913,-0.1250949 0.06658,-0.1250949 0.0083,0 0.01515,-0.01471 0.01515,-0.032689 0,-0.017979 0.0074,-0.032689 0.01634,-0.032689 0.009,0 0.01634,-0.018388 0.01634,-0.040862 0,-0.022474 0.0074,-0.040861 0.01634,-0.040861 0.009,0 0.01634,-0.011558 0.01634,-0.025684 0,-0.014126 0.0092,-0.035936 0.02043,-0.048466 0.0485,-0.054085 0.06129,-0.072573 0.06129,-0.088605 0,-0.00937 0.0074,-0.017035 0.01634,-0.017035 0.009,0 0.01634,-0.011558 0.01634,-0.025684 0,-0.036054 0.04043,-0.072383 0.08056,-0.072383 0.02522,0 0.03386,0.010427 0.03386,0.040861 0,0.022474 -0.0074,0.040862 -0.01634,0.040862 -0.02377,0 -0.02008,0.09383 0.0041,0.103633 0.01542,0.00626 0.01443,0.012904 -0.0041,0.027123 -0.01851,0.014219 -0.01951,0.020864 -0.0041,0.027123 0.02426,0.00984 0.02761,0.054599 0.0041,0.054599 -0.0092,0 -0.01634,0.046309 -0.01634,0.1062393 0,0.05993 0.0071,0.1062393 0.01634,0.1062393 0.01023,0 0.01634,0.1007911 0.01634,0.2696843 0,0.1688933 0.0061,0.2696844 0.01634,0.2696844 0.0094,0 0.01634,0.051303 0.01634,0.1212217 0,0.067733 0.0073,0.1236696 0.01664,0.1267692 0.0092,0.00305 0.02121,0.044117 0.0268,0.091257 0.0056,0.047141 0.01648,0.085709 0.02422,0.085709 0.0077,0 0.01407,0.033097 0.01407,0.07355 0,0.040453 0.0074,0.07355 0.01634,0.07355 0.009,0 0.01634,0.033097 0.01634,0.07355 0,0.040452 0.0074,0.07355 0.01634,0.07355 0.009,0 0.01634,0.018388 0.01634,0.040862 0,0.022474 0.0074,0.040862 0.01634,0.040862 0.009,0 0.01634,0.02206 0.01634,0.04903 0,0.03269 0.0082,0.04903 0.02451,0.04903 0.0151,0 0.02452,0.01533 0.02452,0.0399 0,0.02194 0.0074,0.04444 0.01634,0.05 0.009,0.0055 0.01634,0.02805 0.01634,0.05 0,0.02194 0.0074,0.0399 0.01634,0.0399 0.009,0 0.01634,0.01471 0.01634,0.03269 0,0.01798 0.0074,0.03269 0.01634,0.03269 0.009,0 0.01634,0.01103 0.01634,0.02451 0,0.01348 0.0074,0.02451 0.01634,0.02451 0.02911,0 0.01731,0.05253 -0.01884,0.08389 -0.01936,0.01679 -0.05981,0.03052 -0.0899,0.03052 -0.03009,0 -0.05471,0.0074 -0.05471,0.01634 0,0.009 -0.01427,0.01634 -0.03172,0.01634 -0.01745,0 -0.03627,0.0074 -0.04182,0.01634 -0.0055,0.009 -0.02438,0.01634 -0.04182,0.01634 -0.01745,0 -0.03173,0.0074 -0.03173,0.01634 0,0.009 -0.01471,0.01634 -0.03269,0.01634 -0.01798,0 -0.03269,0.0074 -0.03269,0.01634 0,0.009 -0.0095,0.01634 -0.02111,0.01634 -0.01161,0 -0.0484,0.02574 -0.08176,0.05721 -0.03336,0.03147 -0.068,0.05721 -0.07697,0.05721 -0.02053,0 -0.147044,0.129258 -0.147044,0.150239 0,0.02039 -0.04226,0.06224 -0.06285,0.06224 -0.0089,0 -0.01994,0.0092 -0.02459,0.02043 -0.0051,0.01238 -0.01284,0.0059 -0.01961,-0.01634 z m 6.154513,-1.8428435 c 0,-0.040453 -0.0074,-0.07355 -0.01634,-0.07355 -0.009,0 -0.01634,-0.033097 -0.01634,-0.07355 0,-0.040453 -0.0074,-0.07355 -0.01634,-0.07355 -0.009,0 -0.01634,-0.036775 -0.01634,-0.081722 0,-0.044947 -0.007,-0.081723 -0.01561,-0.081723 -0.0086,0 -0.02043,-0.025742 -0.02634,-0.057206 -0.0059,-0.031463 -0.01727,-0.057206 -0.02526,-0.057206 -0.008,0 -0.01453,-0.025743 -0.01453,-0.057206 0,-0.031463 -0.0074,-0.057206 -0.01634,-0.057206 -0.009,0 -0.01634,-0.014276 -0.01634,-0.031724 0,-0.017448 -0.0074,-0.03627 -0.01634,-0.041826 -0.009,-0.00555 -0.01634,-0.031733 -0.01634,-0.05817 0,-0.026438 -0.0074,-0.048069 -0.01634,-0.048069 -0.009,0 -0.01634,-0.011558 -0.01634,-0.025684 0,-0.014126 -0.01136,-0.037045 -0.02525,-0.050931 -0.01388,-0.013886 -0.02249,-0.033521 -0.01912,-0.043634 0.0034,-0.010113 -0.0018,-0.027391 -0.01153,-0.038397 -0.05007,-0.05674 -0.05852,-0.071489 -0.05852,-0.1021764 0,-0.018358 -0.0074,-0.033379 -0.01634,-0.033379 -0.009,0 -0.01634,-0.01471 -0.01634,-0.032689 0,-0.017979 -0.0074,-0.032689 -0.01634,-0.032689 -0.009,0 -0.01634,-0.011033 -0.01634,-0.024517 0,-0.013484 -0.0074,-0.024517 -0.01634,-0.024517 -0.009,0 -0.01634,-0.010246 -0.01634,-0.022768 0,-0.012523 -0.01103,-0.027002 -0.02451,-0.032176 -0.01348,-0.00518 -0.02452,-0.024349 -0.02452,-0.04261 0,-0.018261 -0.0074,-0.033202 -0.01634,-0.033202 -0.009,0 -0.01634,-0.01471 -0.01634,-0.032689 0,-0.017979 -0.0074,-0.032689 -0.01634,-0.032689 -0.009,0 -0.01634,-0.011033 -0.01634,-0.024517 0,-0.013484 -0.0074,-0.024517 -0.01634,-0.024517 -0.009,0 -0.01634,-0.011646 -0.01634,-0.025879 0,-0.014233 -0.02574,-0.050879 -0.05721,-0.081434 -0.03147,-0.030555 -0.05721,-0.065093 -0.05721,-0.076752 0,-0.011659 -0.01471,-0.0318 -0.03269,-0.044758 -0.01798,-0.012958 -0.03269,-0.036647 -0.03269,-0.052642 0,-0.015995 -0.0084,-0.029081 -0.01863,-0.029081 -0.02293,0 -0.06187,-0.049318 -0.06257,-0.079251 -2.86e-4,-0.012125 -0.02259,-0.042657 -0.04955,-0.06785 -0.02697,-0.025192 -0.04903,-0.053886 -0.04903,-0.063763 0,-0.00988 -0.01154,-0.017959 -0.02565,-0.017959 -0.01726,0 -0.02394,-0.01204 -0.02043,-0.036775 0.0063,-0.044559 0.06429,-0.057579 0.09446,-0.021219 0.01155,0.013918 0.03849,0.025306 0.05986,0.025306 0.02137,0 0.03886,0.00735 0.03886,0.016345 0,0.00899 0.01471,0.016345 0.03269,0.016345 0.01798,0 0.03269,0.00735 0.03269,0.016345 0,0.00899 0.01839,0.016345 0.04086,0.016345 0.02247,0 0.04086,0.00736 0.04086,0.016345 0,0.00899 0.0099,0.016345 0.02201,0.016345 0.03277,0 0.125094,0.049136 0.125094,0.066575 0,0.00833 0.01471,0.015147 0.03269,0.015147 0.01798,0 0.03269,0.00735 0.03269,0.016345 0,0.00899 0.01471,0.016345 0.03269,0.016345 0.01798,0 0.03269,0.00588 0.03269,0.013061 0,0.00718 0.02574,0.02237 0.05721,0.033747 0.03147,0.011377 0.05721,0.027565 0.05721,0.035972 0,0.00841 0.01079,0.015286 0.02397,0.015286 0.01318,0 0.04971,0.025743 0.08118,0.057206 0.03147,0.031463 0.06607,0.057206 0.0769,0.057206 0.01083,0 0.0514,0.033097 0.09017,0.07355 0.03876,0.040453 0.08163,0.07355 0.09526,0.07355 0.01364,0 0.02479,0.00611 0.02479,0.013583 0,0.00747 0.01839,0.023423 0.04086,0.035451 0.02248,0.012028 0.04086,0.028707 0.04086,0.037066 0,0.00836 0.02054,0.034697 0.04564,0.05853 0.0251,0.023833 0.06733,0.072753 0.09384,0.1087108 0.02651,0.035958 0.07217,0.087965 0.101463,0.1155721 0.0293,0.027607 0.05326,0.058866 0.05326,0.069464 0,0.010599 0.0074,0.01927 0.01634,0.01927 0.009,0 0.01634,0.00766 0.01634,0.017028 0,0.00937 0.01471,0.032817 0.03269,0.052115 0.01798,0.019298 0.03269,0.044733 0.03269,0.056522 0,0.011789 0.0074,0.021435 0.01634,0.021435 0.009,0 0.01634,0.01042 0.01634,0.023155 0,0.012735 0.0062,0.025606 0.01387,0.028603 0.01971,0.00775 0.100548,0.1571368 0.100548,0.1858177 0,0.013165 0.0074,0.023937 0.01634,0.023937 0.009,0 0.01634,0.01471 0.01634,0.032689 0,0.017979 0.0066,0.032689 0.01457,0.032689 0.008,0 0.01918,0.018388 0.02483,0.040862 0.0057,0.022474 0.01747,0.040861 0.02629,0.040861 0.0088,0 0.01603,0.01471 0.01603,0.032689 0,0.017979 0.0074,0.032689 0.01634,0.032689 0.009,0 0.01634,0.018388 0.01634,0.040862 0,0.022474 0.0074,0.040862 0.01634,0.040862 0.009,0 0.01634,0.022065 0.01634,0.049033 0,0.026968 0.0074,0.049034 0.01634,0.049034 0.009,0 0.01634,0.015236 0.01634,0.033857 0,0.018621 0.01103,0.044889 0.02451,0.058373 0.05574,0.055735 0.03155,0.1365934 -0.04086,0.1365934 -0.03596,0 -0.06538,-0.00647 -0.06538,-0.01438 0,-0.018437 -0.171206,-0.038537 -0.318718,-0.037418 -0.161933,0.00123 -0.318718,0.019383 -0.318718,0.036905 0,0.00819 -0.02574,0.014893 -0.05721,0.014893 -0.03147,0 -0.05721,0.00735 -0.05721,0.016345 0,0.00899 -0.02574,0.016345 -0.05721,0.016345 -0.0569,0 -0.05721,-3.892e-4 -0.05721,-0.07355 z M 19.49787,8.0019548 c -0.0057,-0.022474 -0.01747,-0.040862 -0.02629,-0.040862 -0.0088,0 -0.01603,-0.025742 -0.01603,-0.057206 0,-0.031463 -0.0074,-0.057206 -0.01634,-0.057206 -0.009,0 -0.01634,-0.017954 -0.01634,-0.039897 0,-0.021943 -0.0074,-0.044443 -0.01634,-0.049998 -0.009,-0.00555 -0.01634,-0.03541 -0.01634,-0.066343 0,-0.030932 -0.0074,-0.056241 -0.01634,-0.056241 -0.009,0 -0.01634,-0.029945 -0.01634,-0.066545 0,-0.037359 -0.01075,-0.077298 -0.02452,-0.091062 -0.01348,-0.013484 -0.02451,-0.044585 -0.02451,-0.069114 0,-0.024529 -0.0068,-0.051585 -0.01502,-0.060124 -0.02026,-0.02094 -0.03435,-0.1883753 -0.04394,-0.522169 -0.0044,-0.1528002 -0.01499,-0.284823 -0.02355,-0.2933839 -0.02122,-0.021222 -0.02048,-0.4830181 7.67e-4,-0.4830181 0.01009,0 0.01634,-0.084447 0.01634,-0.2206508 0,-0.1381096 0.0062,-0.2206508 0.01656,-0.2206508 0.02343,0 0.179501,0.1596839 0.179928,0.1840913 1.94e-4,0.011118 0.02594,0.04221 0.05721,0.069093 0.03127,0.026883 0.05685,0.060195 0.05685,0.074028 0,0.013833 0.01471,0.035753 0.03269,0.048712 0.01798,0.012958 0.03268,0.03297 0.03268,0.04447 0,0.0115 0.0074,0.020909 0.01634,0.020909 0.009,0 0.01634,0.011099 0.01634,0.024665 0,0.013566 0.02266,0.048381 0.05036,0.077366 0.0277,0.028985 0.06238,0.073049 0.07707,0.097918 0.01469,0.02487 0.03248,0.045218 0.03953,0.045218 0.0071,0 0.01282,0.013086 0.01282,0.029081 0,0.015994 0.01471,0.039684 0.03269,0.052642 0.01798,0.012958 0.03269,0.031826 0.03269,0.041927 0,0.010101 0.01838,0.039737 0.04084,0.065856 0.02246,0.026119 0.04085,0.056683 0.04086,0.06792 1.2e-5,0.011237 0.0074,0.02043 0.01637,0.02043 0.009,0 0.01634,0.00788 0.01634,0.017512 0,0.00963 0.0092,0.027764 0.02043,0.040294 0.05084,0.056691 0.06129,0.073195 0.06129,0.096777 0,0.013864 0.0074,0.025207 0.01634,0.025207 0.009,0 0.01634,0.011033 0.01634,0.024517 0,0.013484 0.0074,0.024517 0.01634,0.024517 0.009,0 0.01634,0.01471 0.01634,0.032689 0,0.017979 0.0074,0.032689 0.01634,0.032689 0.009,0 0.01634,0.018388 0.01634,0.040862 0,0.025425 0.0093,0.040861 0.02451,0.040861 0.01348,0 0.02451,0.013086 0.02451,0.029081 0,0.015994 0.01471,0.039683 0.03269,0.052642 0.01798,0.012958 0.03269,0.040325 0.03269,0.060814 0,0.020489 0.0074,0.037253 0.01634,0.037253 0.009,0 0.01634,0.01471 0.01634,0.032689 0,0.017979 0.0074,0.032689 0.01634,0.032689 0.009,0 0.01634,0.025742 0.01634,0.057206 0,0.031463 0.0057,0.057206 0.01263,0.057206 0.02512,0 0.101784,0.1791003 0.101784,0.2377644 0,0.022051 0.0074,0.040092 0.01634,0.040092 0.009,0 0.01634,0.026771 0.01634,0.05949 0,0.066074 -0.04256,0.1133335 -0.07661,0.085074 -0.03542,-0.029398 -0.430073,0.00457 -0.430073,0.037014 0,0.00801 -0.02574,0.014557 -0.05721,0.014557 -0.03147,0 -0.05721,0.00735 -0.05721,0.016345 0,0.00899 -0.01471,0.016345 -0.03269,0.016345 -0.01798,0 -0.03269,0.00735 -0.03269,0.016345 0,0.00899 -0.01471,0.016345 -0.03269,0.016345 -0.01798,0 -0.03269,0.00717 -0.03269,0.015925 0,0.00876 -0.0239,0.028265 -0.05312,0.043348 -0.02921,0.015082 -0.07571,0.052047 -0.103314,0.082142 -0.05971,0.06509 -0.09775,0.069806 -0.111791,0.013858 z"
       id="path20" /></g></svg>
